<?xml version="1.0" encoding="utf-8"?>
<!-- Generator: Adobe Illustrator 16.0.3, SVG Export Plug-In . SVG Version: 6.00 Build 0)  -->
<!DOCTYPE svg PUBLIC "-//W3C//DTD SVG 1.1//EN" "http://www.w3.org/Graphics/SVG/1.1/DTD/svg11.dtd">
<svg version="1.1" id="Layer_1" xmlns="http://www.w3.org/2000/svg" xmlns:xlink="http://www.w3.org/1999/xlink" x="0px" y="0px"
	 width="50px" height="50px" viewBox="0 0 50 50" enable-background="new 0 0 50 50" xml:space="preserve">
<g>
	<g id="XMLID_1_">
		<g>
			<path fill="#FFFFFF" d="M22.82,30.37c0.149,0.04,0.39,0.25,0.6,0.42c0.41,0.35,0.92,0.79,1.58,0.79s1.17-0.44,1.58-0.79
				c0.21-0.18,0.45-0.38,0.6-0.42c0.04-0.01,0.09-0.01,0.15-0.01c0.17,0,0.39,0.029,0.62,0.08c0.149,0.02,0.3,0.05,0.46,0.069v8.65
				L25,35.75l-3.41,3.41v-8.65c0.16-0.02,0.311-0.05,0.46-0.069c0.23-0.051,0.45-0.08,0.62-0.08
				C22.73,30.36,22.78,30.36,22.82,30.37z"/>
			<path fill="#FFFFFF" d="M17.51,17.92c0.36-0.63,1.521-0.64,2.03-1.14c0.5-0.51,0.52-1.67,1.14-2.03
				c0.15-0.09,0.33-0.12,0.521-0.12c0.479,0,1.05,0.2,1.52,0.18c0.101,0,0.19-0.01,0.28-0.03c0.68-0.18,1.27-1.19,2-1.19
				s1.32,1.01,2,1.19c0.09,0.02,0.18,0.03,0.28,0.03c0.47,0.02,1.04-0.18,1.52-0.18c0.19,0,0.37,0.03,0.521,0.12
				c0.63,0.36,0.64,1.52,1.14,2.03c0.51,0.5,1.67,0.51,2.03,1.14c0.35,0.61-0.21,1.62-0.03,2.32c0.18,0.68,1.19,1.27,1.19,2
				c0,0.73-1.011,1.32-1.19,2c-0.18,0.7,0.38,1.71,0.03,2.319C32.13,27.19,30.97,27.2,30.46,27.7c-0.5,0.51-0.51,1.67-1.14,2.03
				c-0.15,0.09-0.33,0.119-0.521,0.119c-0.479,0-1.05-0.199-1.52-0.189c-0.101,0.01-0.19,0.02-0.28,0.04
				c-0.68,0.18-1.27,1.189-2,1.189s-1.32-1.01-2-1.189c-0.09-0.021-0.18-0.03-0.28-0.04c-0.47-0.01-1.04,0.189-1.52,0.189
				c-0.19,0-0.37-0.029-0.521-0.119c-0.55-0.32-0.62-1.25-0.97-1.811c-0.05-0.08-0.11-0.16-0.17-0.22
				c-0.51-0.5-1.67-0.521-2.03-1.141c-0.35-0.609,0.21-1.62,0.03-2.319c-0.18-0.68-1.19-1.27-1.19-2c0-0.73,1.011-1.32,1.19-2
				C17.72,19.54,17.16,18.53,17.51,17.92z M19.92,22.24c0,2.8,2.271,5.08,5.08,5.08s5.08-2.28,5.08-5.08
				c0-2.81-2.271-5.09-5.08-5.09S19.92,19.43,19.92,22.24z"/>
			<path fill="#BDA770" d="M25,17.15c2.81,0,5.08,2.28,5.08,5.09c0,2.8-2.271,5.08-5.08,5.08s-5.08-2.28-5.08-5.08
				C19.92,19.43,22.19,17.15,25,17.15z"/>
			<path fill="#BDA770" d="M27.18,30.37c-0.149,0.04-0.39,0.24-0.6,0.42c-0.41,0.35-0.92,0.79-1.58,0.79s-1.17-0.44-1.58-0.79
				c-0.21-0.17-0.45-0.38-0.6-0.42c-0.04-0.01-0.09-0.01-0.15-0.01c-0.17,0-0.39,0.029-0.62,0.08c-0.149,0.02-0.3,0.05-0.46,0.069
				v8.65L25,35.75l3.41,3.41v-8.65c-0.16-0.02-0.311-0.05-0.46-0.069c-0.23-0.051-0.45-0.08-0.62-0.08
				C27.27,30.36,27.22,30.36,27.18,30.37z M25,30.89c0.73,0,1.32-1.01,2-1.189c0.09-0.021,0.18-0.03,0.28-0.04
				c0.47-0.01,1.04,0.189,1.52,0.189c0.19,0,0.37-0.029,0.521-0.119c0.63-0.36,0.64-1.521,1.14-2.03c0.51-0.5,1.67-0.51,2.03-1.141
				c0.35-0.609-0.21-1.62-0.03-2.319c0.18-0.68,1.19-1.27,1.19-2c0-0.73-1.011-1.32-1.19-2c-0.18-0.7,0.38-1.71,0.03-2.32
				c-0.36-0.63-1.521-0.64-2.03-1.14c-0.5-0.51-0.51-1.67-1.14-2.03c-0.15-0.09-0.33-0.12-0.521-0.12c-0.479,0-1.05,0.2-1.52,0.18
				c-0.101,0-0.19-0.01-0.28-0.03c-0.68-0.18-1.27-1.19-2-1.19s-1.32,1.01-2,1.19c-0.09,0.02-0.18,0.03-0.28,0.03
				c-0.47,0.02-1.04-0.18-1.52-0.18c-0.19,0-0.37,0.03-0.521,0.12c-0.62,0.36-0.64,1.52-1.14,2.03c-0.51,0.5-1.67,0.51-2.03,1.14
				c-0.35,0.61,0.21,1.62,0.03,2.32c-0.18,0.68-1.19,1.27-1.19,2c0,0.73,1.011,1.32,1.19,2c0.18,0.7-0.38,1.71-0.03,2.319
				c0.36,0.62,1.521,0.641,2.03,1.141c0.06,0.06,0.12,0.14,0.17,0.22c0.35,0.561,0.42,1.49,0.97,1.811
				c0.15,0.09,0.33,0.119,0.521,0.119c0.479,0,1.05-0.199,1.52-0.189c0.101,0.01,0.19,0.02,0.28,0.04
				C23.68,29.88,24.27,30.89,25,30.89z M25,0c13.81,0,25,11.19,25,25c0,13.81-11.19,25-25,25S0,38.81,0,25C0,11.19,11.19,0,25,0z"/>
		</g>
	</g>
</g>
</svg>
