<?xml version="1.0" encoding="utf-8"?>
<!-- Generator: Adobe Illustrator 16.0.3, SVG Export Plug-In . SVG Version: 6.00 Build 0)  -->
<!DOCTYPE svg PUBLIC "-//W3C//DTD SVG 1.1//EN" "http://www.w3.org/Graphics/SVG/1.1/DTD/svg11.dtd">
<svg version="1.1" id="Layer_1" xmlns="http://www.w3.org/2000/svg" xmlns:xlink="http://www.w3.org/1999/xlink" x="0px" y="0px"
	 width="50px" height="50px" viewBox="0 0 50 50" enable-background="new 0 0 50 50" xml:space="preserve">
<path fill="#BDA770" d="M25,0C11.19,0,0,11.19,0,25c0,13.81,11.19,25,25,25c13.81,0,25-11.19,25-25C50,11.19,38.81,0,25,0z"/>
<path fill="#FFFFFF" d="M36.902,15.845c-0.258-1.044-0.906-1.339-1.27-1.421c-1.064-0.242-2.271,0.668-2.474,1.555
	c-0.071,0.305-0.211,0.384-0.255,0.41c-0.142,0.08-0.335,0.012-0.494-0.005c0.169-1.4,0.229-2.383,0.229-2.383H17.372
	c0,0,0.059,0.982,0.229,2.382c-0.162,0.019-0.359,0.051-0.504-0.031c-0.045-0.025-0.185-0.084-0.255-0.389
	c-0.204-0.888-1.409-1.789-2.474-1.548c-0.363,0.083-1.012,0.381-1.269,1.426c-0.196,0.788-0.136,1.894,0.175,3.282
	c0.544,2.431,2.21,4.854,4.819,7c0.933,0.769,1.825,1.703,2.509,2.127C21.686,30.294,23.116,32,24.997,32H22v1h1.859
	c-0.226,1-0.743,2.701-2.952,2.701L19,36.794V38h12v-1.241l-1.635-1.058c-2.211,0-2.726-1.701-2.952-2.701H28v-1h-2.987
	c1.884,0,3.316-1.711,4.401-3.762c0.682-0.422,1.566-1.189,2.493-1.951c2.609-2.146,4.276-4.649,4.82-7.081
	C37.038,17.819,37.098,16.633,36.902,15.845z M14.308,18.893c-0.528-2.366-0.172-3.328,0.293-3.434
	c0.444-0.101,1.119,0.379,1.205,0.756c0.145,0.636,0.504,0.951,0.778,1.103c0.398,0.22,0.833,0.229,1.153,0.19
	c0.338,2.436,0.958,5.777,2.034,8.566C17.696,24.562,15.019,22.063,14.308,18.893z M23.281,27.826
	c-0.101,0.091-0.229,0.136-0.354,0.136c-0.146,0-0.29-0.06-0.396-0.176c-1.744-1.949-2.519-4.824-2.863-6.895
	c-0.196-1.175-0.274-2.208-0.305-2.868c-0.061-1.277-0.004-1.367,0.065-1.481c0.125-0.2,0.367-0.294,0.597-0.23
	c0.143,0.041,0.385,0.168,0.388,0.571c0.001,0.036-0.002,0.07-0.008,0.104c-0.006,0.869,0.078,6.921,2.916,10.09
	C23.516,27.295,23.499,27.632,23.281,27.826z M35.691,18.893c-0.708,3.164-3.376,5.656-5.448,7.17
	c1.073-2.786,1.691-6.121,2.03-8.554c0.318,0.038,0.749,0.026,1.143-0.191c0.272-0.152,0.633-0.467,0.777-1.102
	c0.086-0.378,0.758-0.858,1.205-0.757C35.864,15.565,36.221,16.527,35.691,18.893z"/>
</svg>
