<?xml version="1.0" encoding="utf-8"?>
<!-- Generator: Adobe Illustrator 16.0.3, SVG Export Plug-In . SVG Version: 6.00 Build 0)  -->
<!DOCTYPE svg PUBLIC "-//W3C//DTD SVG 1.1//EN" "http://www.w3.org/Graphics/SVG/1.1/DTD/svg11.dtd">
<svg version="1.1" id="Layer_1" xmlns="http://www.w3.org/2000/svg" xmlns:xlink="http://www.w3.org/1999/xlink" x="0px" y="0px"
	 width="50px" height="50px" viewBox="0 0 50 50" enable-background="new 0 0 50 50" xml:space="preserve">
<g>
	<g id="XMLID_3_">
		<g>
			<path fill="#FFFFFF" d="M35.39,24.1v-6.06c-1.159,0.05-2.729,0.18-4.26,0.47c-2.55,0.47-3.66,1.12-4.14,1.56v5.88
				c0.58-0.39,1.92-0.97,4.14-1.39C32.66,24.28,34.23,24.15,35.39,24.1z M35.39,26.37V26.02v-0.35c-1.09,0.05-2.729,0.17-4.33,0.47
				c-1.819,0.341-3.18,0.891-4.069,1.33v0.8l0.04-0.02c0.819-0.45,2.2-1.06,4.16-1.42C32.74,26.54,34.32,26.42,35.39,26.37z
				 M25.36,18.83c1.81-2.69,8.89-3.09,11.649-3.09v15.5c-3.029,0-9.05,0.51-11.649,2.71V18.83z M31.06,28.02
				c-1.829,0.341-3.18,0.881-4.069,1.33v0.79l0.029-0.02c0.82-0.44,2.211-1.05,4.171-1.42c1.55-0.28,3.13-0.41,4.199-0.46v-0.7
				C34.3,27.59,32.65,27.72,31.06,28.02z"/>
			<path fill="#FFFFFF" d="M25.83,34.5c2.38-2,8.15-2.54,11.18-2.54h0.721V18.47h0.81v14.81h-1.53C27.15,33.28,25,36.26,25,36.26
				s-2.15-2.979-12.01-2.979h-1.53V18.47h0.81v13.49h0.721c3.029,0,8.8,0.54,11.18,2.54L25,35.2L25.83,34.5z"/>
			<path fill="#FFFFFF" d="M24.64,18.83v15.12c-2.6-2.2-8.62-2.71-11.649-2.71v-15.5C15.75,15.74,22.83,16.14,24.64,18.83z"/>
			<path fill="#BDA770" d="M35.39,18.04v6.06c-1.159,0.05-2.729,0.18-4.26,0.46c-2.22,0.42-3.56,1-4.14,1.39v-5.88
				c0.479-0.44,1.59-1.09,4.14-1.56C32.66,18.22,34.23,18.09,35.39,18.04z"/>
			<path fill="#BDA770" d="M35.39,26.37c-1.069,0.05-2.649,0.17-4.199,0.46c-1.96,0.36-3.341,0.97-4.16,1.42l-0.04,0.02v-0.8
				c0.89-0.439,2.25-0.989,4.069-1.33c1.601-0.3,3.24-0.419,4.33-0.47v0.35V26.37z"/>
			<path fill="#BDA770" d="M31.19,28.7c-1.96,0.37-3.351,0.979-4.171,1.42l-0.029,0.02v-0.79c0.89-0.449,2.24-0.989,4.069-1.33
				c1.591-0.3,3.24-0.43,4.33-0.479v0.7C34.32,28.29,32.74,28.42,31.19,28.7z"/>
			<path fill="#BDA770" d="M24.64,33.95V18.83c-1.81-2.69-8.89-3.09-11.649-3.09v15.5C16.02,31.24,22.04,31.75,24.64,33.95z
				 M25.36,33.95c2.6-2.2,8.62-2.71,11.649-2.71v-15.5c-2.76,0-9.84,0.4-11.649,3.09V33.95z M37.01,31.96
				c-3.029,0-8.8,0.54-11.18,2.54L25,35.2l-0.83-0.7c-2.38-2-8.15-2.54-11.18-2.54H12.27V18.47h-0.81v14.81h1.53
				C22.85,33.28,25,36.26,25,36.26s2.15-2.979,12.01-2.979h1.53V18.47h-0.81v13.49H37.01z M25,0c13.81,0,25,11.19,25,25
				c0,13.81-11.19,25-25,25S0,38.81,0,25C0,11.19,11.19,0,25,0z"/>
		</g>
	</g>
</g>
</svg>
