<?xml version="1.0" encoding="utf-8"?>
<!-- Generator: Adobe Illustrator 16.0.4, SVG Export Plug-In . SVG Version: 6.00 Build 0)  -->
<svg version="1.2" baseProfile="tiny" id="Layer_1" xmlns="http://www.w3.org/2000/svg" xmlns:xlink="http://www.w3.org/1999/xlink"
	 x="0px" y="0px" width="50px" height="50px" viewBox="0 0 50 50" xml:space="preserve">
<g>
	<path fill="#BDA770" d="M25,28.419c-9.375,0-16.614,7.964-16.614,17.343h33.227C41.613,36.383,34.379,28.419,25,28.419z
		 M38.128,42.889c-0.032,0.006-0.259,0.077-0.293,0.08c-0.658,0.081-1.138-0.529-1.188-0.867c-0.881-5.665-5.137-9.938-10.881-9.938
		c-0.372,0-0.677-0.299-0.677-0.672s0.305-0.68,0.677-0.68c6.405,0,11.971,4.768,12.948,11.083
		C38.77,42.273,38.498,42.832,38.128,42.889z"/>
	<path fill="#BDA770" d="M38.27,49.929H11.728c-0.252,0-0.457-0.478-0.457-1.071c0-0.586,0.204-1.062,0.457-1.062h26.543
		c0.256,0,0.462,0.477,0.462,1.062C38.732,49.451,38.524,49.929,38.27,49.929z"/>
	<path fill="#BDA770" d="M28.452,23.976c0-0.581-1.548-1.047-3.452-1.047c-1.909,0-3.453,0.469-3.453,1.047
		c0,0.49,0.944,0.901,2.459,1.014v1.834h1.993v-1.834C27.507,24.877,28.452,24.466,28.452,23.976z"/>
</g>
</svg>
