<?xml version="1.0" encoding="utf-8"?>
<!-- Generator: Adobe Illustrator 16.0.3, SVG Export Plug-In . SVG Version: 6.00 Build 0)  -->
<!DOCTYPE svg PUBLIC "-//W3C//DTD SVG 1.1//EN" "http://www.w3.org/Graphics/SVG/1.1/DTD/svg11.dtd">
<svg version="1.1" id="Layer_1" xmlns="http://www.w3.org/2000/svg" xmlns:xlink="http://www.w3.org/1999/xlink" x="0px" y="0px"
  width="50px" height="100px" viewBox="0 0 50 100" enable-background="new 0 0 50 100" xml:space="preserve">
<g>
 <path fill="#BDA770" d="M25,69.25c-6.922,0-12.266,5.88-12.266,12.802h24.531C37.266,75.13,31.922,69.25,25,69.25z M34.691,79.932
  c-0.025,0.005-0.189,0.056-0.216,0.059c-0.487,0.06-0.841-0.391-0.878-0.639c-0.646-4.182-3.791-7.336-8.031-7.336
  c-0.275,0-0.5-0.224-0.5-0.5c0-0.277,0.225-0.501,0.5-0.501c4.729,0,8.839,3.519,9.56,8.185
  C35.167,79.474,34.965,79.888,34.691,79.932z"/>
 <path fill="#BDA770" d="M34.799,85.129H15.202c-0.187,0-0.339-0.353-0.339-0.788c0-0.435,0.152-0.787,0.339-0.787h19.598
  c0.186,0,0.337,0.353,0.337,0.787C35.137,84.776,34.985,85.129,34.799,85.129z"/>
 <path fill="#BDA770" d="M27.548,65.967c0-0.428-1.141-0.772-2.548-0.772c-1.408,0-2.549,0.345-2.549,0.772
  c0,0.364,0.696,0.666,1.814,0.751v1.351h1.471v-1.351C26.851,66.633,27.548,66.331,27.548,65.967z"/>
</g>
<g>
 <path fill="#FFFFFF" d="M25,19.25c-6.922,0-12.266,5.88-12.266,12.802h24.531C37.266,25.13,31.922,19.25,25,19.25z M34.691,29.932
  c-0.025,0.005-0.189,0.056-0.216,0.059c-0.487,0.06-0.841-0.391-0.878-0.639c-0.646-4.182-3.791-7.336-8.031-7.336
  c-0.275,0-0.5-0.224-0.5-0.5c0-0.277,0.225-0.501,0.5-0.501c4.729,0,8.839,3.519,9.56,8.185
  C35.167,29.474,34.965,29.888,34.691,29.932z"/>
 <path fill="#FFFFFF" d="M34.799,35.129H15.202c-0.187,0-0.339-0.353-0.339-0.788c0-0.435,0.152-0.787,0.339-0.787h19.598
  c0.186,0,0.337,0.353,0.337,0.787C35.137,34.776,34.985,35.129,34.799,35.129z"/>
 <path fill="#FFFFFF" d="M27.548,15.967c0-0.428-1.141-0.772-2.548-0.772c-1.408,0-2.549,0.345-2.549,0.772
  c0,0.364,0.696,0.666,1.814,0.751v1.351h1.471v-1.351C26.851,16.633,27.548,16.331,27.548,15.967z"/>
</g>
</svg>
