<?xml version="1.0" encoding="utf-8"?>
<!-- Generator: Adobe Illustrator 16.0.0, SVG Export Plug-In . SVG Version: 6.00 Build 0)  -->
<!DOCTYPE svg PUBLIC "-//W3C//DTD SVG 1.1//EN" "http://www.w3.org/Graphics/SVG/1.1/DTD/svg11.dtd">
<svg version="1.1" id="Layer_1" xmlns="http://www.w3.org/2000/svg" xmlns:xlink="http://www.w3.org/1999/xlink" x="0px" y="0px"
	 width="50px" height="100px" viewBox="0 0 50 100" enable-background="new 0 0 50 100" xml:space="preserve">
<g>
	<path fill="#BDA770" d="M25,68.658c-7.617,0-13.5,6.463-13.5,14.083h27C38.5,75.121,32.617,68.658,25,68.658z M35.664,80.412
		c-0.023,0.009-0.211,0.062-0.234,0.062c-0.535,0.069-0.926-0.425-0.969-0.703c-0.711-4.597-4.176-8.077-8.84-8.077
		c-0.299,0-0.548-0.237-0.548-0.549c0-0.296,0.249-0.549,0.548-0.549c5.207,0,9.727,3.871,10.518,9.008
		C36.191,79.908,35.967,80.368,35.664,80.412z"/>
	<path fill="#BDA770" d="M35.785,86.132H14.217c-0.206,0-0.377-0.385-0.377-0.865s0.171-0.864,0.377-0.864h21.57
		c0.202,0,0.373,0.386,0.373,0.864C36.16,85.747,35.985,86.132,35.785,86.132z"/>
	<path fill="#BDA770" d="M27.807,65.044c0-0.47-1.262-0.853-2.807-0.853c-1.55,0-2.803,0.383-2.803,0.853
		c0,0.4,0.767,0.73,1.991,0.822v1.485h1.618v-1.485C27.045,65.774,27.807,65.444,27.807,65.044z"/>
</g>
<g>
	<path fill="#FFFFFF" d="M25,18.655c-7.617,0-13.5,6.473-13.5,14.09h27C38.5,25.128,32.617,18.655,25,18.655z M35.666,30.414
		c-0.027,0.001-0.211,0.059-0.238,0.065c-0.533,0.065-0.922-0.433-0.967-0.707c-0.711-4.604-4.174-8.071-8.842-8.071
		c-0.296,0-0.547-0.25-0.547-0.554s0.251-0.55,0.547-0.55c5.209,0,9.73,3.872,10.521,9.011
		C36.193,29.909,35.967,30.362,35.666,30.414z"/>
	<path fill="#FFFFFF" d="M35.785,36.132H14.217c-0.205,0-0.376-0.391-0.376-0.865c0-0.48,0.171-0.87,0.376-0.87h21.57
		c0.202,0,0.373,0.392,0.373,0.87C36.16,35.741,35.985,36.132,35.785,36.132z"/>
	<path fill="#FFFFFF" d="M27.809,15.043c0-0.475-1.264-0.852-2.809-0.852c-1.549,0-2.803,0.378-2.803,0.852
		c0,0.398,0.766,0.73,1.992,0.825v1.485h1.617v-1.485C27.043,15.774,27.809,15.441,27.809,15.043z"/>
</g>
</svg>
