<?xml version="1.0" encoding="utf-8"?>
<!-- Generator: Adobe Illustrator 16.0.3, SVG Export Plug-In . SVG Version: 6.00 Build 0)  -->
<!DOCTYPE svg PUBLIC "-//W3C//DTD SVG 1.1//EN" "http://www.w3.org/Graphics/SVG/1.1/DTD/svg11.dtd">
<svg version="1.1" id="Layer_1" xmlns="http://www.w3.org/2000/svg" xmlns:xlink="http://www.w3.org/1999/xlink" x="0px" y="0px"
	 width="50px" height="100px" viewBox="0 0 50 100" enable-background="new 0 0 50 100" xml:space="preserve">
<g>
	<g>
		<path fill="#999999" d="M25.25,21.194c-0.315,0-0.57-0.256-0.57-0.571v-3.33c0-0.216,0.121-0.414,0.315-0.51
			c0.012-0.007,1.396-0.725,1.396-1.916c0-1.48-0.247-2.141-1.712-2.141c-1.618,0-1.806,1.346-1.812,1.403
			c-0.012,0.093-0.047,0.182-0.102,0.259c-0.05,0.071-0.52,0.709-1.418,1.118c-0.29,0.131-0.626,0.003-0.756-0.284
			c-0.131-0.287-0.005-0.625,0.283-0.756c0.459-0.209,0.759-0.506,0.888-0.651c0.18-0.857,0.962-2.23,2.917-2.23
			c2.854,0,2.854,2.3,2.854,3.282c0,1.456-1.141,2.38-1.713,2.751v3.005C25.82,20.938,25.565,21.194,25.25,21.194z"/>
	</g>
	<g>
		<g>
			<path fill="#999999" d="M25.188,25.383c-0.652,0.016-1.079,0.378-1.079,0.378C24.502,25.499,24.868,25.398,25.188,25.383z"/>
		</g>
		<g>
			<path fill="#999999" d="M26.392,25.761c0,0-0.427-0.362-1.079-0.378C25.633,25.398,25.998,25.499,26.392,25.761z"/>
		</g>
		<g>
			<path fill="#999999" d="M49.084,38.035c-0.143-1.998-0.286-2.568-3.711-4.566s-9.848-4.853-9.848-4.853s-3.14-1.855-4.995-4.995
				c0,0-1.427-2.997-5.28-2.997s-5.28,2.997-5.28,2.997c-1.855,3.14-4.995,4.995-4.995,4.995s-6.423,2.854-9.848,4.853
				s-3.568,2.568-3.711,4.566c0,0,0.342,0.706,1.57,0c0,0,8.135-4.709,11.988-6.564s9.134-5.709,9.134-5.709
				s0.427-0.362,1.079-0.378c0.021,0,0.041-0.001,0.062,0c0.021,0,0.042,0,0.062,0c0.652,0.016,1.079,0.378,1.079,0.378
				s5.28,3.854,9.134,5.709s11.988,6.564,11.988,6.564S48.608,38.891,49.084,38.035z"/>
		</g>
	</g>
	<g>
		<path fill="#999999" d="M47.609,37.16H3.176c-0.315,0-0.57-0.255-0.57-0.57s0.255-0.571,0.57-0.571h44.434
			c0.315,0,0.571,0.256,0.571,0.571S47.925,37.16,47.609,37.16z"/>
	</g>
</g>
<g>
	<g>
		<path fill="#FFFFFF" d="M25.25,71.194c-0.315,0-0.57-0.256-0.57-0.57v-3.33c0-0.217,0.121-0.414,0.315-0.511
			c0.012-0.007,1.396-0.726,1.396-1.916c0-1.48-0.247-2.141-1.712-2.141c-1.618,0-1.806,1.346-1.812,1.403
			c-0.012,0.093-0.047,0.182-0.102,0.258c-0.05,0.072-0.52,0.709-1.418,1.118c-0.29,0.132-0.626,0.003-0.756-0.284
			c-0.131-0.287-0.005-0.625,0.283-0.756c0.459-0.209,0.759-0.506,0.888-0.65c0.18-0.857,0.962-2.23,2.917-2.23
			c2.854,0,2.854,2.301,2.854,3.282c0,1.456-1.141,2.38-1.713,2.751v3.006C25.82,70.938,25.565,71.194,25.25,71.194z"/>
	</g>
	<g>
		<g>
			<path fill="#FFFFFF" d="M25.188,75.384c-0.652,0.016-1.079,0.377-1.079,0.377C24.502,75.499,24.868,75.398,25.188,75.384z"/>
		</g>
		<g>
			<path fill="#FFFFFF" d="M26.392,75.761c0,0-0.427-0.361-1.079-0.377C25.633,75.398,25.998,75.499,26.392,75.761z"/>
		</g>
		<g>
			<path fill="#FFFFFF" d="M49.084,88.034c-0.143-1.998-0.286-2.568-3.711-4.566s-9.848-4.852-9.848-4.852s-3.14-1.855-4.995-4.996
				c0,0-1.427-2.996-5.28-2.996s-5.28,2.996-5.28,2.996c-1.855,3.141-4.995,4.996-4.995,4.996s-6.423,2.854-9.848,4.852
				s-3.568,2.568-3.711,4.566c0,0,0.342,0.707,1.57,0c0,0,8.135-4.709,11.988-6.564s9.134-5.709,9.134-5.709
				s0.427-0.361,1.079-0.377c0.021,0,0.041-0.002,0.062-0.001c0.021-0.001,0.042,0.001,0.062,0.001
				c0.652,0.016,1.079,0.377,1.079,0.377s5.28,3.854,9.134,5.709s11.988,6.564,11.988,6.564S48.608,88.892,49.084,88.034z"/>
		</g>
	</g>
	<g>
		<path fill="#FFFFFF" d="M47.609,87.159H3.176c-0.315,0-0.57-0.254-0.57-0.57c0-0.314,0.255-0.57,0.57-0.57h44.434
			c0.315,0,0.571,0.256,0.571,0.57C48.181,86.905,47.925,87.159,47.609,87.159z"/>
	</g>
</g>
</svg>
