<?xml version="1.0" encoding="utf-8"?>
<!-- Generator: Adobe Illustrator 16.0.3, SVG Export Plug-In . SVG Version: 6.00 Build 0)  -->
<!DOCTYPE svg PUBLIC "-//W3C//DTD SVG 1.1//EN" "http://www.w3.org/Graphics/SVG/1.1/DTD/svg11.dtd">
<svg version="1.1" id="Layer_1" xmlns="http://www.w3.org/2000/svg" xmlns:xlink="http://www.w3.org/1999/xlink" x="0px" y="0px"
	 width="50px" height="50px" viewBox="0 0 50 50" enable-background="new 0 0 50 50" xml:space="preserve">
<g>
	<path fill="#BDA770" d="M20.743,40h6c3.3,0,6-2.7,6-6v-1h-5.5c-0.276,0-0.5-0.225-0.5-0.5v-1c0-0.275,0.224-0.5,0.5-0.5h5.5v-2
		h-5.5c-0.275,0-0.5-0.225-0.5-0.5v-1c0-0.275,0.225-0.5,0.5-0.5h5.5v-1v-1h-5.5c-0.275,0-0.5-0.225-0.5-0.5v-1
		c0-0.275,0.225-0.5,0.5-0.5h5.5v-2h-5.5c-0.275,0-0.5-0.225-0.5-0.5v-1c0-0.275,0.225-0.5,0.5-0.5h5.5v-1c0-3.3-2.7-6-6-6h-6
		c-3.3,0-6,2.7-6,6v1h5.5c0.275,0,0.5,0.225,0.5,0.5v1c0,0.275-0.225,0.5-0.5,0.5h-5.5v2h5.5c0.275,0,0.5,0.225,0.5,0.5v1
		c0,0.275-0.225,0.5-0.5,0.5h-5.5v1v1h5.5c0.275,0,0.5,0.225,0.5,0.5v1c0,0.275-0.225,0.5-0.5,0.5h-5.5v2h5.5
		c0.276,0,0.5,0.225,0.5,0.5v1c0,0.275-0.224,0.5-0.5,0.5h-5.5v1C14.743,37.3,17.443,40,20.743,40z"/>
	<path fill="#BDA770" d="M36.743,26h-1v8c0,4.963-4.037,9-9,9h-1.5h-3h-1.5c-4.963,0-9-4.037-9-9v-8h-1h-1v8c0,6.064,4.935,11,11,11
		h1v4.5c0,0.275,0.225,0.5,0.5,0.5h3c0.274,0,0.5-0.225,0.5-0.5V45h1c6.065,0,11-4.936,11-11v-8H36.743z"/>
</g>
</svg>
