<?xml version="1.0" encoding="utf-8"?>
<!-- Generator: Adobe Illustrator 15.1.0, SVG Export Plug-In . SVG Version: 6.00 Build 0)  -->
<!DOCTYPE svg PUBLIC "-//W3C//DTD SVG 1.1//EN" "http://www.w3.org/Graphics/SVG/1.1/DTD/svg11.dtd">
<svg version="1.1" id="Layer_1" xmlns="http://www.w3.org/2000/svg" xmlns:xlink="http://www.w3.org/1999/xlink" x="0px" y="0px"
	 width="50px" height="100px" viewBox="0 0 50 100" enable-background="new 0 0 50 100" xml:space="preserve">
<g>
	<path fill="#999999" d="M42.959,30.32v-2.487h-4.712v2.487h-1.199v19.074h10.935V30.32H42.959z M39.264,45.8h-1.234v-2.832h1.234
		V45.8L39.264,45.8z M39.264,41.924h-1.234v-2.836h1.234V41.924L39.264,41.924z M39.264,38.046h-1.234v-2.833h1.234V38.046
		L39.264,38.046z M39.264,34.174h-1.234v-2.835h1.234V34.174L39.264,34.174z M41.199,45.8h-1.238v-2.832h1.238V45.8z M41.199,41.924
		h-1.238v-2.836h1.238V41.924z M41.199,38.046h-1.238v-2.833h1.238V38.046z M41.199,34.174h-1.238v-2.835h1.238V34.174z
		 M43.134,45.8H41.9v-2.832h1.232L43.134,45.8L43.134,45.8z M43.134,41.924H41.9v-2.836h1.232L43.134,41.924L43.134,41.924z
		 M43.134,38.046H41.9v-2.833h1.232L43.134,38.046L43.134,38.046z M43.134,34.174H41.9v-2.835h1.232L43.134,34.174L43.134,34.174z
		 M45.063,45.8h-1.229v-2.832h1.229V45.8z M45.063,41.924h-1.229v-2.836h1.229V41.924z M45.063,38.046h-1.229v-2.833h1.229V38.046z
		 M45.063,34.174h-1.229v-2.835h1.229V34.174z M47.001,45.8h-1.233v-2.832h1.233V45.8z M47.001,41.924h-1.233v-2.836h1.233V41.924z
		 M47.001,38.046h-1.233v-2.833h1.233V38.046z M47.001,34.174h-1.233v-2.835h1.233V34.174z"/>
	<polygon fill="#999999" points="34.803,45.426 34.803,40.787 33.641,40.787 33.641,15.576 32.747,15.576 32.747,12.884 
		31.688,12.884 31.688,11.163 30.813,11.163 30.158,6.298 30.158,6.298 30.158,5.794 29.675,5.794 29.613,1.135 29.502,1.135 
		29.443,5.794 28.961,5.794 28.961,6.298 28.307,11.163 27.43,11.163 27.43,12.884 26.374,12.884 26.374,15.576 25.475,15.576 
		25.475,40.787 24.319,40.787 24.319,45.426 23.451,45.426 23.451,49.392 35.669,49.392 35.669,45.426 	"/>
	<path fill="#999999" d="M14.276,18.366v31.028h7.789V18.366H14.276z M16.187,45.064h-1.062v-2.355h1.062V45.064z M16.187,41.702
		h-1.062v-2.354h1.062V41.702z M16.187,38.335h-1.062v-2.358h1.062V38.335z M16.187,34.973h-1.062v-2.36h1.062V34.973z
		 M16.187,31.609h-1.062V29.25h1.062V31.609z M16.187,28.245h-1.062v-2.361h1.062V28.245z M16.187,24.88h-1.062v-2.356h1.062V24.88z
		 M16.187,21.517h-1.062V19.16h1.062V21.517z M17.861,45.064h-1.058v-2.355h1.058V45.064z M17.861,41.702h-1.058v-2.354h1.058
		V41.702z M17.861,38.335h-1.058v-2.358h1.058V38.335z M17.861,34.973h-1.058v-2.36h1.058V34.973z M17.861,31.609h-1.058V29.25
		h1.058V31.609z M17.861,28.245h-1.058v-2.361h1.058V28.245z M17.861,24.88h-1.058v-2.356h1.058V24.88z M17.861,21.517h-1.058V19.16
		h1.058V21.517z M19.539,45.064h-1.056v-2.355h1.056V45.064z M19.539,41.702h-1.056v-2.354h1.056V41.702z M19.539,38.335h-1.056
		v-2.358h1.056V38.335z M19.539,34.973h-1.056v-2.36h1.056V34.973z M19.539,31.609h-1.056V29.25h1.056V31.609z M19.539,28.245
		h-1.056v-2.361h1.056V28.245z M19.539,24.88h-1.056v-2.356h1.056V24.88z M19.539,21.517h-1.056V19.16h1.056V21.517z M21.217,45.064
		h-1.059v-2.355h1.059V45.064z M21.217,41.702h-1.059v-2.354h1.059V41.702z M21.217,38.335h-1.059v-2.358h1.059V38.335z
		 M21.217,34.973h-1.059v-2.36h1.059V34.973z M21.217,31.609h-1.059V29.25h1.059V31.609z M21.217,28.245h-1.059v-2.361h1.059V28.245
		z M21.217,24.88h-1.059v-2.356h1.059V24.88z M21.217,21.517h-1.059V19.16h1.059V21.517z"/>
	<polygon fill="#999999" points="11.537,25.88 11.537,20.928 7.27,20.928 7.27,19.141 4.225,19.141 4.225,20.928 3.069,20.928 
		3.069,49.392 3.15,49.392 11.537,49.392 12.892,49.392 12.892,25.88 	"/>
</g>
<g>
	<path fill="#333333" d="M42.443,80.926v-2.486h-4.711v2.486h-1.198V100h10.934V80.926H42.443z M38.75,96.405h-1.234v-2.831h1.234
		V96.405z M38.75,92.531h-1.234v-2.838h1.234V92.531z M38.75,88.652h-1.234V85.82h1.234V88.652z M38.75,84.78h-1.234v-2.835h1.234
		V84.78z M40.686,96.405h-1.238v-2.831h1.238V96.405z M40.686,92.531h-1.238v-2.838h1.238V92.531z M40.686,88.652h-1.238V85.82
		h1.238V88.652z M40.686,84.78h-1.238v-2.835h1.238V84.78z M42.619,96.405h-1.232v-2.831h1.232V96.405z M42.619,92.531h-1.232
		v-2.838h1.232V92.531z M42.619,88.652h-1.232V85.82h1.232V88.652z M42.619,84.78h-1.232v-2.835h1.232V84.78z M44.549,96.405H43.32
		v-2.831h1.229V96.405z M44.549,92.531H43.32v-2.838h1.229V92.531z M44.549,88.652H43.32V85.82h1.229V88.652z M44.549,84.78H43.32
		v-2.835h1.229V84.78z M46.486,96.405h-1.234v-2.831h1.234V96.405z M46.486,92.531h-1.234v-2.838h1.234V92.531z M46.486,88.652
		h-1.234V85.82h1.234V88.652z M46.486,84.78h-1.234v-2.835h1.234V84.78z"/>
	<polygon fill="#333333" points="34.289,96.032 34.289,91.395 33.126,91.395 33.126,66.184 32.232,66.184 32.232,63.49 
		31.174,63.49 31.174,61.77 30.298,61.77 29.645,56.904 29.645,56.904 29.645,56.4 29.16,56.4 29.1,51.741 28.986,51.741 
		28.93,56.4 28.445,56.4 28.445,56.904 27.792,61.77 26.915,61.77 26.915,63.49 25.859,63.49 25.859,66.184 24.961,66.184 
		24.961,91.395 23.805,91.395 23.805,96.032 22.938,96.032 22.938,99.998 35.154,99.998 35.154,96.032 	"/>
	<path fill="#333333" d="M13.761,68.973V100h7.79V68.973H13.761z M15.672,95.671H14.61v-2.356h1.062V95.671z M15.672,92.309H14.61
		v-2.354h1.062V92.309z M15.672,88.941H14.61v-2.358h1.062V88.941z M15.672,85.58H14.61v-2.361h1.062V85.58z M15.672,82.216H14.61
		v-2.36h1.062V82.216z M15.672,78.852H14.61V76.49h1.062V78.852z M15.672,75.486H14.61v-2.355h1.062V75.486z M15.672,72.123H14.61
		v-2.355h1.062V72.123z M17.347,95.671H16.29v-2.356h1.058L17.347,95.671L17.347,95.671z M17.347,92.309H16.29v-2.354h1.058
		L17.347,92.309L17.347,92.309z M17.347,88.941H16.29v-2.358h1.058L17.347,88.941L17.347,88.941z M17.347,85.58H16.29v-2.361h1.058
		L17.347,85.58L17.347,85.58z M17.347,82.216H16.29v-2.36h1.058L17.347,82.216L17.347,82.216z M17.347,78.852H16.29V76.49h1.058
		L17.347,78.852L17.347,78.852z M17.347,75.486H16.29v-2.355h1.058L17.347,75.486L17.347,75.486z M17.347,72.123H16.29v-2.355h1.058
		L17.347,72.123L17.347,72.123z M19.024,95.671h-1.056v-2.356h1.056V95.671z M19.024,92.309h-1.056v-2.354h1.056V92.309z
		 M19.024,88.941h-1.056v-2.358h1.056V88.941z M19.024,85.58h-1.056v-2.361h1.056V85.58z M19.024,82.216h-1.056v-2.36h1.056V82.216z
		 M19.024,78.852h-1.056V76.49h1.056V78.852z M19.024,75.486h-1.056v-2.355h1.056V75.486z M19.024,72.123h-1.056v-2.355h1.056
		V72.123z M20.703,95.671h-1.058v-2.356h1.058V95.671z M20.703,92.309h-1.058v-2.354h1.058V92.309z M20.703,88.941h-1.058v-2.358
		h1.058V88.941z M20.703,85.58h-1.058v-2.361h1.058V85.58z M20.703,82.216h-1.058v-2.36h1.058V82.216z M20.703,78.852h-1.058V76.49
		h1.058V78.852z M20.703,75.486h-1.058v-2.355h1.058V75.486z M20.703,72.123h-1.058v-2.355h1.058V72.123z"/>
	<polygon fill="#333333" points="11.023,76.484 11.023,71.534 6.756,71.534 6.756,69.748 3.71,69.748 3.71,71.534 2.556,71.534 
		2.556,99.998 2.636,99.998 11.023,99.998 12.377,99.998 12.377,76.484 	"/>
</g>
</svg>
