<?xml version="1.0" encoding="utf-8"?>
<!-- Generator: Adobe Illustrator 16.0.3, SVG Export Plug-In . SVG Version: 6.00 Build 0)  -->
<!DOCTYPE svg PUBLIC "-//W3C//DTD SVG 1.1//EN" "http://www.w3.org/Graphics/SVG/1.1/DTD/svg11.dtd">
<svg version="1.1" id="Layer_1" xmlns="http://www.w3.org/2000/svg" xmlns:xlink="http://www.w3.org/1999/xlink" x="0px" y="0px"
  width="50px" height="100px" viewBox="0 0 50 100" enable-background="new 0 0 50 100" xml:space="preserve">
<g>
 <path fill="#BDA770" d="M38.841,77.924l-0.008-0.07l-3.73-6.46c-0.191,0.229-0.453,0.42-0.77,0.574l0.368,0.005l3.188,5.521
  l0.521,0.3l0.355,0.863C38.84,78.455,38.874,78.214,38.841,77.924z"/>
 <path fill="#BDA770" d="M15.183,71.128l-3.664,7.033l-0.025,0.065c-0.004,0.016-0.023,0.096-0.022,0.208l1.13-0.978l2.988-5.735
  l0.606,0.008C15.706,71.544,15.386,71.332,15.183,71.128z"/>
 <path fill="#BDA770" d="M37.208,77.082H13.327c-1.039,0-1.887,0.804-1.887,1.793v3.72c0,0.82,0.582,1.511,1.373,1.724v1.352h3.266
  v-1.282h18.464v1.282h3.302v-1.389c0.728-0.251,1.25-0.909,1.25-1.687v-3.72C39.095,77.886,38.249,77.082,37.208,77.082z
   M15.45,85.072h-2.008v-0.667h2.008V85.072z M37.216,85.072h-2.043v-0.667h2.043V85.072z M38.466,82.595
  c0,0.66-0.563,1.195-1.258,1.195H13.327c-0.693,0-1.257-0.535-1.257-1.195v-3.72c0-0.659,0.563-1.195,1.257-1.195h23.881
  c0.694,0,1.258,0.536,1.258,1.195V82.595z"/>
 <path fill="#BDA770" d="M33.831,64.431H16.563c-1.04,0-1.887,0.906-1.887,2.021v3.882c0,1.115,0.847,2.021,1.887,2.021h0.131
  c-0.079-0.22-0.014-0.142,0.187-0.41c-0.054-0.374-0.19-1.248-0.19-1.801s0.139-1.066,0.191-1.438
  c-0.252-0.34-0.294-0.708-0.097-0.928c0.189-0.212,0.547-0.195,0.853,0.047c0.598-0.122,1.035-0.537,2.957-0.562
  c1.956-0.023,2.386,0.44,2.985,0.563c0.306-0.241,0.663-0.257,0.852-0.047c0.198,0.22,0.156,0.59-0.097,0.929
  c0.054,0.375,0.229,0.89,0.229,1.439c-0.001,0.553-0.176,1.138-0.229,1.513c0.199,0.271,0.263,0.48,0.188,0.694h1.131
  c-0.078-0.22-0.012-0.36,0.188-0.627c-0.053-0.374-0.227-1.031-0.227-1.584s0.175-1.066,0.228-1.438
  c-0.251-0.34-0.294-0.708-0.097-0.928c0.189-0.212,0.547-0.195,0.854,0.047c0.597-0.122,0.719-0.642,2.957-0.562
  c2.32,0.084,2.493,0.44,3.093,0.563c0.308-0.241,0.663-0.257,0.853-0.047c0.199,0.22,0.156,0.59-0.098,0.929
  c0.055,0.375,0.229,0.89,0.229,1.439c-0.001,0.553-0.176,1.428-0.229,1.803c0.199,0.271,0.264,0.19,0.188,0.404h0.35
  c1.04,0,1.777-0.906,1.777-2.021v-3.882C35.718,65.337,34.872,64.431,33.831,64.431z"/>
 <path fill="#BDA770" d="M38.801,82.918c0,0.52-0.783,0.941-2.029,0.941H12.101c0.205,0-0.217-0.422-0.217-0.941v-4.785
  c0-0.521,0.422-0.942,0.941-0.942h24.672c0.521,0,1.304,0.422,1.304,0.942V82.918z"/>
 <rect x="15.03" y="71.649" fill="#BDA770" width="20.204" height="0.738"/>
</g>
<g>
 <path fill="#999999" d="M38.841,27.924l-0.008-0.07l-3.73-6.46c-0.191,0.229-0.453,0.42-0.77,0.574l0.368,0.005l3.188,5.521
  l0.521,0.3l0.355,0.863C38.84,28.455,38.874,28.214,38.841,27.924z"/>
 <path fill="#999999" d="M15.183,21.128l-3.664,7.033l-0.025,0.065c-0.004,0.016-0.023,0.096-0.022,0.208l1.13-0.978l2.988-5.735
  l0.606,0.008C15.706,21.544,15.386,21.332,15.183,21.128z"/>
 <path fill="#999999" d="M37.208,27.082H13.327c-1.039,0-1.887,0.804-1.887,1.793v3.72c0,0.82,0.582,1.511,1.373,1.724v1.352h3.266
  v-1.282h18.464v1.282h3.302v-1.389c0.728-0.251,1.25-0.909,1.25-1.687v-3.72C39.095,27.886,38.249,27.082,37.208,27.082z
   M15.45,35.072h-2.008v-0.667h2.008V35.072z M37.216,35.072h-2.043v-0.667h2.043V35.072z M38.466,32.595
  c0,0.66-0.563,1.195-1.258,1.195H13.327c-0.693,0-1.257-0.535-1.257-1.195v-3.72c0-0.659,0.563-1.195,1.257-1.195h23.881
  c0.694,0,1.258,0.536,1.258,1.195V32.595z"/>
 <path fill="#999999" d="M33.831,14.431H16.563c-1.04,0-1.887,0.906-1.887,2.021v3.882c0,1.115,0.847,2.021,1.887,2.021h0.131
  c-0.079-0.22-0.014-0.142,0.187-0.41c-0.054-0.374-0.19-1.248-0.19-1.801s0.139-1.066,0.191-1.438
  c-0.252-0.34-0.294-0.708-0.097-0.928c0.189-0.212,0.547-0.195,0.853,0.047c0.598-0.122,1.035-0.537,2.957-0.562
  c1.956-0.023,2.386,0.44,2.985,0.563c0.306-0.241,0.663-0.257,0.852-0.047c0.198,0.22,0.156,0.59-0.097,0.929
  c0.054,0.375,0.229,0.89,0.229,1.439c-0.001,0.553-0.176,1.138-0.229,1.513c0.199,0.271,0.263,0.48,0.188,0.694h1.131
  c-0.078-0.22-0.012-0.36,0.188-0.627c-0.053-0.374-0.227-1.031-0.227-1.584s0.175-1.066,0.228-1.438
  c-0.251-0.34-0.294-0.708-0.097-0.928c0.189-0.212,0.547-0.195,0.854,0.047c0.597-0.122,0.719-0.642,2.957-0.562
  c2.32,0.084,2.493,0.44,3.093,0.563c0.308-0.241,0.663-0.257,0.853-0.047c0.199,0.22,0.156,0.59-0.098,0.929
  c0.055,0.375,0.229,0.89,0.229,1.439c-0.001,0.553-0.176,1.428-0.229,1.803c0.199,0.271,0.264,0.19,0.188,0.404h0.35
  c1.04,0,1.777-0.906,1.777-2.021v-3.882C35.718,15.337,34.872,14.431,33.831,14.431z"/>
 <path fill="#999999" d="M38.801,32.918c0,0.52-0.783,0.941-2.029,0.941H12.101c0.205,0-0.217-0.422-0.217-0.941v-4.785
  c0-0.521,0.422-0.942,0.941-0.942h24.672c0.521,0,1.304,0.422,1.304,0.942V32.918z"/>
 <rect x="15.03" y="21.649" fill="#999999" width="20.204" height="0.738"/>
</g>
</svg>
