<?xml version="1.0" encoding="utf-8"?>
<!-- Generator: Adobe Illustrator 18.1.1, SVG Export Plug-In . SVG Version: 6.00 Build 0)  -->
<svg version="1.1" id="Layer_1" xmlns:sketch="http://www.bohemiancoding.com/sketch/ns"
	 xmlns="http://www.w3.org/2000/svg" xmlns:xlink="http://www.w3.org/1999/xlink" x="0px" y="0px" width="35px" height="35px"
	 viewBox="-288.5 379.5 35 35" enable-background="new -288.5 379.5 35 35" xml:space="preserve">
<title>rooms</title>
<desc>Created with Sketch.</desc>
<g id="Find" sketch:type="MSPage">
	<g id="Find---Browse" transform="translate(-297.000000, -525.000000)" sketch:type="MSArtboardGroup">
		<g id="Resort-Header-Block" transform="translate(15.000000, 459.000000)" sketch:type="MSLayerGroup">
			<g id="Venue-Actions-Copy" transform="translate(28.500000, 62.000000)" sketch:type="MSShapeGroup">
				<g id="_x2D_---icon---book-room" transform="translate(239.000000, 4.000000)">
					<g id="rooms" transform="translate(15.000000, 0.000000)">
						<path id="Fill-1" fill="#999999" d="M-255.3,400.5L-255.3,400.5l-4.5-7.8c-0.2,0.3-0.5,0.5-0.9,0.7l0.4,0l3.8,6.6l0.6,0.4
							l0.4,1C-255.3,401.2-255.2,400.9-255.3,400.5"/>
						<path id="Fill-2" fill="#999999" d="M-283.4,392.4l-4.4,8.4l0,0.1c0,0,0,0.1,0,0.2l1.3-1.2l3.6-6.8l0.7,0
							C-282.8,392.9-283.2,392.7-283.4,392.4"/>
						<path id="Fill-3" fill="#999999" d="M-257.2,399.5h-28.5c-1.2,0-2.2,1-2.2,2.1v4.4c0,1,0.7,1.8,1.6,2.1v1.6h3.9v-1.5h22v1.5
							h3.9v-1.7c0.9-0.3,1.5-1.1,1.5-2v-4.4C-255,400.5-256,399.5-257.2,399.5L-257.2,399.5z M-285.5,408.2h2.4v0.8h-2.4V408.2z
							 M-259.6,408.2h2.4v0.8h-2.4V408.2z M-255.7,406.1c0,0.8-0.7,1.4-1.5,1.4h-28.5c-0.8,0-1.5-0.6-1.5-1.4v-4.4
							c0-0.8,0.7-1.4,1.5-1.4h28.5c0.8,0,1.5,0.6,1.5,1.4V406.1L-255.7,406.1z"/>
						<path id="Fill-4" fill="#999999" d="M-261.2,384.4h-20.6c-1.2,0-2.2,1.1-2.2,2.4v4.6c0,1.3,1,2.4,2.2,2.4h0.2
							c-0.1-0.3,0-0.2,0.2-0.5c-0.1-0.4-0.2-1.5-0.2-2.1c0-0.7,0.2-1.3,0.2-1.7c-0.3-0.4-0.3-0.8-0.1-1.1c0.2-0.3,0.7-0.2,1,0.1
							c0.7-0.1,1.2-0.6,3.5-0.7c2.3,0,2.8,0.5,3.6,0.7c0.4-0.3,0.8-0.3,1-0.1c0.2,0.3,0.2,0.7-0.1,1.1c0.1,0.4,0.3,1.1,0.3,1.7
							c0,0.7-0.2,1.4-0.3,1.8c0.2,0.3,0.3,0.6,0.2,0.8h1.3c-0.1-0.3,0-0.4,0.2-0.7c-0.1-0.4-0.3-1.2-0.3-1.9c0-0.7,0.2-1.3,0.3-1.7
							c-0.3-0.4-0.3-0.8-0.1-1.1c0.2-0.3,0.7-0.2,1,0.1c0.7-0.1,0.9-0.8,3.5-0.7c2.8,0.1,3,0.5,3.7,0.7c0.4-0.3,0.8-0.3,1-0.1
							c0.2,0.3,0.2,0.7-0.1,1.1c0.1,0.4,0.3,1.1,0.3,1.7c0,0.7-0.2,1.7-0.3,2.1c0.2,0.3,0.3,0.2,0.2,0.5h0.4c1.2,0,2.1-1.1,2.1-2.4
							v-4.6C-259,385.5-260,384.4-261.2,384.4"/>
						<path id="Fill-5" fill="#999999" d="M-255.3,406.5c0,0.6-0.9,1.1-2.4,1.1h-29.4c0.2,0-0.3-0.5-0.3-1.1v-5.7
							c0-0.6,0.5-1.1,1.1-1.1h29.4c0.6,0,1.6,0.5,1.6,1.1V406.5"/>
						<path id="Fill-6" fill="#999999" d="M-283.6,394l0-0.9l24.1-0.1l0,0.9L-283.6,394"/>
					</g>
				</g>
			</g>
		</g>
	</g>
</g>
</svg>
