<?xml version="1.0" encoding="utf-8"?>
<!-- Generator: Adobe Illustrator 16.0.3, SVG Export Plug-In . SVG Version: 6.00 Build 0)  -->
<!DOCTYPE svg PUBLIC "-//W3C//DTD SVG 1.1//EN" "http://www.w3.org/Graphics/SVG/1.1/DTD/svg11.dtd">
<svg version="1.1" id="Layer_1" xmlns="http://www.w3.org/2000/svg" xmlns:xlink="http://www.w3.org/1999/xlink" x="0px" y="0px"
  width="50px" height="100px" viewBox="0 0 50 100" enable-background="new 0 0 50 100" xml:space="preserve">
<g>
 <g>
  <g>
   <path fill="#BDA770" d="M20.613,79.612c1.214,0.934,2.15,2.233,2.971,3.513c0.249,0.39,1.339-0.019,1.447-0.388
    c0.857-2.936,2.603-5.437,4.686-7.639c0.424-0.449-1.078-0.342-1.393-0.01c-2.133,2.256-3.913,4.845-4.791,7.848
    c0.482-0.129,0.965-0.258,1.447-0.388c-0.819-1.279-1.756-2.578-2.971-3.513C21.604,78.724,20.227,79.315,20.613,79.612
    L20.613,79.612z"/>
  </g>
 </g>
 <path fill="#BDA770" d="M19.603,68.124c-0.512,0-0.928-0.415-0.928-0.927v-3.552c0-0.512,0.416-0.927,0.928-0.927
  s0.927,0.415,0.927,0.927v3.552C20.529,67.709,20.114,68.124,19.603,68.124z"/>
 <path fill="#BDA770" d="M30.731,68.124c-0.512,0-0.927-0.415-0.927-0.927v-3.552c0-0.512,0.415-0.927,0.927-0.927
  s0.927,0.415,0.927,0.927v3.552C31.658,67.709,31.243,68.124,30.731,68.124z"/>
 <path fill="#BDA770" d="M34.238,65.422h-1.344v1.775c0,1.192-0.971,2.163-2.163,2.163s-2.163-0.971-2.163-2.163v-1.775h-6.803
  v1.775c0,1.192-0.971,2.163-2.163,2.163s-2.163-0.971-2.163-2.163v-1.775h-1.344c-1.022,0-1.854,0.831-1.854,1.854v18.144
  c0,1.022,0.832,1.854,1.854,1.854h18.143c1.022,0,1.854-0.832,1.854-1.854V67.275C36.093,66.253,35.261,65.422,34.238,65.422z
   M34.856,85.419c0,0.34-0.278,0.618-0.618,0.618H16.096c-0.342,0-0.618-0.278-0.618-0.618V72.031h19.379V85.419z"/>
</g>
<g>
 <g>
  <g>
   <path fill="#FFFFFF" d="M20.613,29.612c1.214,0.934,2.15,2.233,2.971,3.513c0.249,0.389,1.339-0.019,1.447-0.388
    c0.857-2.935,2.603-5.437,4.686-7.638c0.424-0.449-1.078-0.342-1.393-0.01c-2.133,2.256-3.913,4.845-4.791,7.848
    c0.482-0.129,0.965-0.259,1.447-0.388c-0.819-1.279-1.756-2.579-2.971-3.513C21.604,28.724,20.227,29.315,20.613,29.612
    L20.613,29.612z"/>
  </g>
 </g>
 <path fill="#FFFFFF" d="M19.603,18.124c-0.512,0-0.928-0.415-0.928-0.927v-3.552c0-0.512,0.416-0.927,0.928-0.927
  s0.927,0.415,0.927,0.927v3.552C20.529,17.709,20.114,18.124,19.603,18.124z"/>
 <path fill="#FFFFFF" d="M30.731,18.124c-0.512,0-0.927-0.415-0.927-0.927v-3.552c0-0.512,0.415-0.927,0.927-0.927
  s0.927,0.415,0.927,0.927v3.552C31.658,17.709,31.243,18.124,30.731,18.124z"/>
 <path fill="#FFFFFF" d="M34.238,15.422h-1.344v1.775c0,1.192-0.971,2.163-2.163,2.163s-2.163-0.971-2.163-2.163v-1.775h-6.803
  v1.775c0,1.192-0.971,2.163-2.163,2.163s-2.163-0.971-2.163-2.163v-1.775h-1.344c-1.022,0-1.854,0.831-1.854,1.854v18.144
  c0,1.022,0.832,1.854,1.854,1.854h18.143c1.022,0,1.854-0.832,1.854-1.854V17.275C36.093,16.253,35.261,15.422,34.238,15.422z
   M34.856,35.419c0,0.34-0.278,0.618-0.618,0.618H16.096c-0.342,0-0.618-0.278-0.618-0.618V22.031h19.379V35.419z"/>
</g>
</svg>
