<?xml version="1.0" encoding="utf-8"?>
<!-- Generator: Adobe Illustrator 16.0.3, SVG Export Plug-In . SVG Version: 6.00 Build 0)  -->
<!DOCTYPE svg PUBLIC "-//W3C//DTD SVG 1.1//EN" "http://www.w3.org/Graphics/SVG/1.1/DTD/svg11.dtd">
<svg version="1.1" id="Layer_1" xmlns="http://www.w3.org/2000/svg" xmlns:xlink="http://www.w3.org/1999/xlink" x="0px" y="0px"
	 width="50px" height="100px" viewBox="0 0 50 100" enable-background="new 0 0 50 100" xml:space="preserve">
<path fill="#FFFFFF" d="M9.87,26.067c0.126,0.147,0.234,0.338,0.318,0.529l-0.021,0.064c-0.382,0.254-0.764,0.636-0.912,1.039
	l0.021,0.021c0.934-1.144,2.249-1.674,3.708-1.61c1.041,0.17,1.825,0.954,2.503,1.76c1.355-0.064,2.478,0.782,3.157,1.886
	l0.275,0.36c-0.488-0.064-0.974-0.064-1.42,0.063c0.53,0.126,1.104,0.106,1.612,0.276c0.972,0.231,1.738,0.913,2.459,1.652
	c0.636,0.425,1.483,0.257,2.226,0.425c0.424,0.063,0.806,0.254,1.272,0.17c1.293-0.276,2.67-0.572,4.073-0.595
	c3.051-0.063,5.805,0.913,8.502,1.867c1.145,0.444,2.246,1.208,3.008,2.269c1.338,1.738,3.013,3.73,5.149,4.261
	c0.533,0.105,1.125,0,1.57-0.254c0.573-0.422,0.787-1.273,0.614-2.037c-0.17-0.508-0.442-0.996-0.868-1.334
	c-0.681-0.594-1.763-1.124-1.591-2.163c0.316-0.828,0.996-1.506,1.527-2.249l0.041,0.022c0,0.508,0.127,0.974,0.361,1.376
	c0.086-0.084,0.041-0.276,0.086-0.404c0.082-0.21,0.168-0.424,0.359-0.573c0.125,0.338,0.211,0.679,0.297,1.039
	c0.086,0.488,0.104,1.061-0.023,1.548c0,0.021,0,0.084,0.043,0.042c0.148-0.212,0.316-0.424,0.549-0.508
	c-0.721,1.526,0.463,3.033-0.021,4.623c-0.147,0.678-0.767,1.358-1.44,1.524c-0.423,0.17-0.935,0.212-1.378,0.128
	c-1.397-0.149-2.651-0.763-3.858-1.42c-0.147-0.04-0.233-0.19-0.362-0.21c0.297,0.527,0.742,0.976,1.209,1.418
	c1.082,0.932,2.308,1.676,3.774,1.866c0.719,0.15,1.567,0.084,2.076,0.637c0.276,0.529,0.125,1.208,0.211,1.782
	c0.086,0.998,0.574,1.822,0.996,2.693c0.105,0.318-0.127,0.552-0.359,0.764c-0.531,0.232-0.617,0.807-0.977,1.125
	c-0.359,0.022-0.828,0.022-1.188,0c0-0.168,0.108-0.359,0.172-0.508c0.127-0.19,0.358-0.234,0.483-0.403
	c-0.315,0.043-0.719,0.169-0.824,0.531l-0.147,0.36c-0.34,0.02-0.7,0.02-0.995,0c0-0.17,0.168-0.296,0.233-0.466
	c0.082-0.338,0.485-0.254,0.655-0.489c-0.127-0.042-0.211,0.063-0.34,0.042c-0.19,0.064-0.383,0.084-0.51,0.254
	c-0.084,0.235-0.275,0.424-0.381,0.659c-0.234,0.02-0.447,0.02-0.682,0c-0.104-0.022-0.081-0.148-0.04-0.212
	c0.192-0.276,0.296-0.592,0.53-0.849c0.34-0.147,0.785,0,1.125-0.189c0.295-0.17,0.655-0.318,0.805-0.678
	c0.043-0.721-0.316-1.357-0.635-1.951c-0.424-0.55-1.041-0.849-1.698-0.891c-1.546-0.212-3.22-0.191-4.661-0.678
	c-1.549-0.466-2.949-1.292-4.2-2.417c-0.848-0.848-1.651-1.842-2.776-2.184c-1.021-0.166-1.951,0.317-2.842,0.678
	c-1.613,0.785-3.158,1.718-4.896,2.142c-1.145,0.36-2.459,0.339-3.689,0.318c-0.403-0.976,0.396-2.417-0.686-3.117
	c-0.72-0.424-1.561-1.06-1.857-1.78c-0.021,0,0,0.042,0,0.062l-0.021-0.062l-0.022,0.02c0.128,0.912,0.954,1.674,1.696,2.185
	c0.871,0.741,0.15,2.162,0.806,2.988c-0.231,0.042-0.401-0.148-0.527-0.318l-0.042,0.042c-0.042,0.446-0.022,0.912,0.212,1.272
	c-0.168-0.063-0.34-0.233-0.447-0.382c-0.018,0.488,0.17,0.974,0.319,1.418c0.298,1.06,0.828,2.079,0.912,3.203
	c0,0.742-0.87,0.72-1.231,1.208c-0.106,0.104-0.168,0.231-0.338,0.212c-0.55,0-1.124,0.042-1.655-0.022
	c-0.084-0.105-0.02-0.233,0-0.359c0.064-0.361,0.466-0.424,0.699-0.573c-0.338,0-0.718,0.084-0.911,0.402
	c-0.084,0.192-0.105,0.404-0.234,0.552c-0.231,0-0.529,0.02-0.741-0.022c-0.044-0.126,0.063-0.254,0.126-0.38
	c0.149-0.34,0.508-0.51,0.826-0.659c0.021-0.02,0-0.042,0.044-0.063c-0.232,0-0.425,0.105-0.658,0.17
	c-0.234,0.19-0.446,0.466-0.616,0.701c-0.042,0.084,0,0.189-0.084,0.254h-0.55c-0.106-0.254,0.126-0.424,0.274-0.617
	c0.234-0.231,0.383-0.592,0.721-0.698c0.615,0,1.378,0.062,1.696-0.529c0.212-0.53-0.17-0.913-0.298-1.359
	c-0.804-1.781-2.543-2.966-3.984-4.369c-0.847-0.954-1.505-2.035-1.485-3.349c-0.042-0.742,0.17-1.546,0-2.269
	c-0.021-0.021-0.042-0.042-0.064-0.042c-0.02,0.255,0,0.489,0,0.721c-0.105,1.082-0.46,2.168-0.056,3.144
	c0.234,0.678,0.906,1.479,1.392,2.05c-0.826-0.275-1.61-0.438-2.098-1.306c-0.106-0.235-0.212-0.686-0.062-0.899
	c0.042-0.084,0.168-0.084,0.231-0.189c-0.636-0.446-0.806-1.229-0.871-1.951v-0.02c-0.084,0.189-0.021,0.403-0.063,0.634
	c0.02,0.508,0.147,1.018,0.529,1.378c-0.233,0.233-0.403,0.658-0.298,0.976c0.148,0.553,0.611,0.874,1.247,1.141
	c0.318,0.17,0.599,0.216,0.916,0.321c-0.678,0.106-1.483,0.276-2.14-0.042c-0.572-0.212-1.08-0.741-1.166-1.357
	c-0.106-0.55-0.126-1.104-0.594-1.483c0.338,0.084,0.574,0.422,0.829,0.634c0.02,0,0.02-0.063,0.02-0.084
	c-0.274-0.594-0.876-0.861-1.298-1.285c-0.53-0.815-0.292-1.619-0.227-2.468c0.064-0.424,0.19-0.806,0.274-1.208
	c-0.062-0.02-0.062,0.062-0.104,0.106c-0.404,0.932-0.652,1.787-0.589,2.888c0.042,0.528,0.44,1.247,0.906,1.584
	c0.531,0.51,0.318,1.315,0.659,1.909c0.38,0.678,1.124,1.04,1.716,1.487v0.042c-0.488-0.128-0.996-0.19-1.504-0.233
	c0.106,0.594,0.232,1.292-0.024,1.886c-0.422-0.998-1.376-1.695-2.224-2.376c-0.657-0.678-0.804-1.76-0.445-2.626
	c0.191,0.891,1.017,1.631,1.611,2.311c0.17,0.21,0.276,0.464,0.382,0.678c0.021-0.87-0.565-1.322-1.032-2
	c-0.319-0.468-0.708-1.096-0.728-1.647c-0.022-0.106-0.044-0.212-0.086-0.297l-0.021,0.062c-0.042,0.128-0.042,0.254-0.084,0.382
	c-0.466,0.72-1.023,1.145-0.189,2.628c-0.935-0.7-1.504-1.676-1.57-2.798c-0.02-0.296-0.02-0.531,0.042-0.804
	c0.15,0.063,0.254,0.212,0.404,0.275l0.02-0.042c-0.34-1.378-0.048-2.708,0.234-4.284L7.93,34.545
	c-0.168,0.276-0.231,0.594-0.357,0.89c-0.022,0.129-0.044,0.299-0.086,0.425h0.021c-0.042,0.084-0.042,0.212-0.062,0.296
	c-0.108,0.678-0.17,1.462-0.066,2.14c-0.486-0.656-0.634-1.504-0.508-2.352l0.064-0.467c-0.126,0.021-0.19,0.19-0.297,0.255
	c0.106-0.446,0.232-1.125-0.212-1.465c-0.273-0.021-0.424,0.318-0.573,0.53c-0.168,0.447-0.635,0.72-1.061,0.806
	c-0.189,0.106-0.296,0.297-0.338,0.509c-0.338-0.084-0.7-0.276-0.784-0.658c-0.084-0.212-0.189-0.446-0.338-0.636
	c0-0.084-0.042-0.192-0.105-0.276c0.062-0.106-0.022-0.298,0.126-0.318c0.401,0.021,0.699,0.276,1.038,0.446
	c0.233,0.02,0.424-0.126,0.53-0.318l0.042-0.17c-0.064,0-0.064-0.105-0.128-0.147c-0.446-0.422-1.102-0.148-1.632-0.212
	c-0.447-0.106-0.508-0.593-0.72-0.933c-0.106-0.147-0.296-0.254-0.276-0.466c0.106-0.105,0.34-0.021,0.51-0.042
	c0.126-0.042,0.277-0.084,0.422-0.126c-0.042,0.062,0,0.19-0.084,0.21v0.022c-0.105,0.042-0.234-0.064-0.318,0.02
	C2.59,32.592,2.612,32.762,2.59,32.89c0.042,0.021,0.108-0.021,0.128-0.063c0.106-0.148,0.338-0.148,0.466-0.298
	c0.084-0.19,0.192-0.36,0.084-0.572c-0.212,0.212-0.572,0.128-0.848,0.147c0.148-0.317,0.464-0.592,0.72-0.869
	c0.383-0.297,0.786-0.635,0.996-1.059l0.425-0.382c0.147-0.424,0.424-0.89,0.912-0.976c0.212-0.084,0.467-0.084,0.681-0.21
	c0.697-0.658,1.63-0.891,2.161-1.738c0.298-0.424,0.487-0.891,0.636-1.357C9.318,25.494,9.594,25.834,9.87,26.067 M12.052,26.873
	c-0.231,0.084-0.443,0.168-0.655,0.254c-0.807,0.382-1.25,1.25-1.208,2.14c0,0.51,0.212,0.912,0.298,1.378
	c-0.338-0.55-0.572-1.102-0.742-1.695c-0.044,0.317,0.062,0.55,0.126,0.848H9.848c-0.424-0.254-0.932-0.616-1.124-1.102
	c-0.021,0.106,0.021,0.19,0.043,0.276c0.255,0.55,0.607,0.982,1.137,1.236l0.58,0.736c0.424,0.807,0.21,1.78-0.298,2.459
	c-0.297,0.403-0.614,0.825-0.975,1.186c0.148-0.466,0.19-0.974,0.296-1.462c-0.044,0.042-0.086,0.105-0.107,0.168
	c-0.276,1.018-0.701,1.823-1.125,2.905c0-0.637,0.191-1.25,0.17-1.845c-0.402,0.997-0.614,2.311-0.276,3.413H8.19
	c0.021,0-0.021-0.063,0.042-0.084c-0.042-0.785,0.466-1.484,0.783-2.14c0.489-0.977,1.421-1.655,1.801-2.651
	c0.488-1.271-0.307-2.396-0.265-3.71c0.022-0.846,0.414-1.61,1.199-1.928l0.022,0.02c-0.106,0.276-0.261,0.622-0.284,0.918
	c-0.092,0.559,0.027,1.203-0.164,1.775c-0.021,0.148-0.126,0.276-0.126,0.424c0.404-0.658,0.656-1.336,0.654-2.188
	c0-0.469,0.193-0.884,0.321-1.311C12.138,26.892,12.075,26.892,12.052,26.873 M12.455,28.483c-0.19,0.254-0.36,0.508-0.402,0.806
	c-0.424,1.25,0.679,2.247,0.362,3.499c0,0.042-0.021,0.105-0.021,0.148h0.021c0.444-0.871,0.12-1.78-0.072-2.585
	c-0.126-0.658-0.204-1.294,0.135-1.844L12.455,28.483z M5.312,29.311c-0.126,0.126-0.17,0.318-0.17,0.488
	c0.063,0.064,0.105-0.042,0.17,0c0.02,0.021,0.063,0.064,0.042,0.106c-0.276,0.105-0.487,0.275-0.763,0.317
	c-0.042,0.021-0.105,0.021-0.105,0.084c0.17,0.021,0.359,0,0.508-0.042c0.53-0.189,0.976-0.466,1.546-0.508
	c-0.042-0.021,0.042-0.042,0-0.064c-0.042,0-0.02-0.063-0.084-0.086C6.075,29.523,5.587,29.629,5.312,29.311 M15.933,29.587
	c-0.063,0.552-0.529,0.932-0.932,1.292c-0.508,0.532-1.018,1.33-0.996,2.05c-0.042,1.25,0.954,2.065,0.742,3.357l-0.02,0.02
	c-0.383-1.102-1.427-1.764-1.385-3.014c0-0.935,0.473-1.754,1.044-2.435c0.084-0.168,0.234-0.38,0.17-0.572
	c-0.126,0.382-0.382,0.701-0.699,0.974c-0.488,0.424-0.927,1.172-0.949,1.811c-0.17,1.292,0.882,2.048,1.434,3.086
	c0.128,0.275,0.192,0.592,0.254,0.89c0.042,0.086-0.021,0.212,0.042,0.277c0.234-0.657,0.362-1.357,0.296-2.121
	c-0.17-0.847-0.55-1.611-0.466-2.543c0.022-0.318,0.064-0.637,0.232-0.849c-0.116,0.736-0.168,1.028,0.276,1.995
	c0.042,0.042-0.022,0.126,0.084,0.126c0.168-0.212,0.274-0.488,0.446-0.72c0.55-0.72,1.272-1.462,2.225-1.462
	c-1.231-0.338-2.077,0.742-2.693,1.613c-0.232-0.467-0.028-1.208,0.058-1.739c0.21-0.636,0.643-0.955,0.834-1.611
	C15.933,29.861,16.017,29.693,15.933,29.587 M8.667,30.137c-1.04-0.191-1.894,0.7-2.806,0.955c-0.126,0.064-0.316-0.02-0.38,0.064
	c0.976,0.212,1.632-0.637,2.544-0.743c0.296-0.042,0.594,0.042,0.762,0.275c0.254,0.511,0.022,0.963-0.192,1.427
	c-0.338,0.699-1.037,1.289-1.355,1.986c-0.128,0.338-0.296,0.742-0.148,1.083h0.021c-0.021-0.787,0.552-1.376,1.082-1.909
	c0.658-0.678,1.356-1.668,0.932-2.643C9.042,30.421,8.86,30.223,8.667,30.137 M11.567,30.603c-0.148,0.299-0.148,0.775-0.106,1.071
	c0.086,0.318,0.276,0.562,0.444,0.858c-0.064-0.656-0.318-1.272-0.318-1.909L11.567,30.603z M5.228,32.089
	c-0.106,0.064-0.299,0.02-0.254,0.19c0.815-0.074,1.502-0.339,2.162-0.784C6.499,31.641,5.861,31.897,5.228,32.089 M4.399,32.004
	c-0.042,0.298,0.063,0.594-0.021,0.89c-0.021,0.235-0.212,0.425-0.212,0.659c0.042-0.063,0.126-0.042,0.17-0.105
	C4.729,32.946,4.655,32.406,4.399,32.004 M5.058,32.595c-0.022,0.042-0.022,0.084-0.022,0.126l0.408,0.038
	c0.634,0.032,1.138-0.184,1.668-0.439C6.413,32.383,5.735,32.511,5.058,32.595 M5.289,33.042c-0.084,0-0.34-0.084-0.276,0.105
	l0.458,0.171c0.477,0.105,0.73,0.041,1.07,0.041C6.137,33.212,5.693,33.148,5.289,33.042 M30.044,33.318
	c-0.701-0.15-1.88-0.276-2.579-0.19c0.615,0.106,1.368,0.254,1.96,0.402c1.271,0.382,2.427,0.657,3.487,1.462
	c-1.803-0.34-3.569-0.193-5.201,0.233c-1.953,0.572-3.895,1.46-5.656,2.542c1.188-0.445,2.517-0.936,3.71-1.415
	c3.498-1.086,4.532-1.474,7.187-1.258c0.108,0,0.233,0.064,0.34,0.042c-0.021-0.084-0.146-0.224-0.209-0.289
	C32.023,34.09,31.251,33.636,30.044,33.318 M39.443,36.837c-0.086-0.042-0.147-0.168-0.256-0.15
	c0.722,0.575,1.166,1.422,1.377,2.313c0.191,0.678,0.453,1.426,0.856,2.022c0.595,0.761,1.031,1.413,1.097,2.367l-0.017,0.038
	c-1.248,0.108-2.343-0.214-3.403-0.701c-1.43-0.688-2.541-1.802-3.709-2.968c-0.38-0.276-0.845-0.568-1.267-0.672
	c0.021,0.02,0.062,0.042,0.104,0.064c1.398,0.807,2.099,2.458,3.521,3.285c1.375,0.957,3.244,1.42,4.958,1.125
	c0-0.72-0.146-1.314-0.422-1.928c-0.402-0.995-1.31-1.926-1.497-3.009C40.57,37.875,40.079,37.367,39.443,36.837 M32.404,37.303
	c-0.487,0.128-0.936,0.318-1.377,0.552c-2.27,1.23-4.156,3.413-6.636,4.091c0.171,0,0.383-0.021,0.553-0.063
	c1.185-0.402,2.423-0.876,3.439-1.638c1.379-1.082,2.604-2.327,4.192-2.918L32.404,37.303z M15.191,39.677
	c-0.106,0.254,0.021,0.55,0.084,0.762c-0.191-0.126-0.319-0.338-0.403-0.55c-0.042-0.023-0.022-0.105-0.063-0.105
	c0.021,0.485,0.375,0.995,0.758,1.271c0.783,0.615,1.764,0.701,2.59,1.25l-0.042-0.063c-0.38-0.637-1.271-0.7-1.441-1.483h-0.02
	c-0.022,0.234,0.105,0.422,0.189,0.615c-0.508-0.106-0.741-0.679-0.87-1.059c-0.062,0.104-0.02,0.212,0,0.318
	c0.022,0.126,0.087,0.254,0.064,0.36C15.549,40.715,15.295,40.185,15.191,39.677 M18.562,40.336c0.126,0.72,0.756,1.392,1.414,1.604
	c0.389,0.46,0.395,1.244,0.458,1.625c0.19,1.398,0.671,1.964,1.117,3.279c0.126,0.424,0.106,0.871,0.126,1.315l0.022,0.021
	c0.359-0.932-0.106-1.846-0.403-2.672c-0.298-0.762-0.364-1.588-0.468-2.396c-0.106-0.529-0.064-1.144-0.55-1.483
	C19.6,41.374,19.006,40.969,18.562,40.336 M43.961,43.598l0.041,0.106c0.318,0.233,0.762,0.212,1.164,0.296
	c1.098,0.2,1.71,0.042,2.723,1.118c0.385,0.74,0.647,1.32,1.049,2l0.063,0.021c-0.276-0.656-0.53-1.334-0.765-2.014
	c-0.168-0.572-0.719-1.04-1.291-1.145C45.954,43.852,44.912,43.812,43.961,43.598"/>
<path fill="#FFFFFF" d="M35.541,41.5v0.063c-1.143,1.059-2.477,2.121-3.35,3.415c-0.147,0.252-0.256,0.529-0.383,0.785
	c0.18-1.598,0.533-2.352,0.937-3.477c-0.722,1.039-1.188,2.247-1.229,3.604c0,0.572,0.086,1.122,0.17,1.655
	c0,0.488-0.508,0.656-0.824,0.806c-0.234,0.084-0.447,0.21-0.656,0.296c0.146-0.317,0.373-0.416,0.512-1.124
	c0.045-0.72-0.15-1.4,0.078-2.056c-0.02-0.064,0.025-0.086,0-0.128c-0.145,0.15-0.189,0.404-0.254,0.616
	c-0.23,0.996-0.041,2.205-0.889,2.924c-0.486,0.36-0.951,0.636-1.444,0.974l-0.379,0.108l-1.312-0.022
	c0.043-0.231,0.147-0.508,0.401-0.636c0.147-0.063,0.34-0.106,0.424-0.276c-0.061-0.063-0.17,0.084-0.254,0.106
	c-0.36,0.063-0.787,0.296-0.868,0.678c-0.023,0.252-0.363,0.106-0.533,0.148c-0.147-0.022-0.316,0.02-0.404-0.042
	c-0.019-0.276,0.342-0.488,0.47-0.723c0.124-0.147,0.36-0.168,0.442-0.338c-0.316,0.084-0.719,0.106-0.869,0.467
	c-0.084,0.234-0.38,0.362-0.402,0.616c-0.191,0.04-0.384,0.021-0.576,0.021c-0.084-0.064-0.084-0.17-0.042-0.254
	c0.084-0.192,0.232-0.363,0.36-0.511l-0.022-0.02c0.15-0.276,0.448-0.552,0.807-0.572c0.593,0.042,1.188-0.021,1.697-0.296
	c0.74-0.446,1.736-0.976,1.951-1.909c0.254-0.996-0.043-2.076-0.147-3.074c-0.062-0.487-0.106-0.975-0.062-1.502l0.041-0.064
	c1.312-0.701,2.584-1.527,4.111-1.697C34.123,39.996,34.844,40.822,35.541,41.5"/>
<path fill="#FFFFFF" d="M10.866,44.426c-0.168,0.148-0.402,0.19-0.572,0.338c-0.998,0.678-1.995,1.441-2.754,2.417
	c-0.53,0.659-1.188,1.25-1.886,1.674l-0.022-0.02c0.658-1.23,0.508-2.756,1.443-3.879c0.191-0.234,0.466-0.404,0.614-0.658
	c-0.656,0.38-1.349,0.946-1.563,1.667c-0.38,0.914-0.302,2.107-0.896,2.932c-0.254,0.254-0.511,0.469-0.849,0.553
	c-0.359,0.021-0.657,0.189-0.868,0.466l-0.191,0.062c-0.444,0-0.827,0.044-1.229-0.02v-0.022c0.106-0.212,0.212-0.488,0.444-0.617
	l-0.021-0.02c0.106-0.084,0.276-0.126,0.381-0.212c0-0.021-0.021-0.084-0.063-0.064c-0.063,0-0.105,0.084-0.147,0.021
	c-0.255,0.042-0.53,0.191-0.679,0.382v0.044l0.042-0.044c-0.064,0.17-0.19,0.36-0.318,0.53c-0.252,0.042-0.424,0.02-0.658,0.02
	l-0.021-0.042h0.021c-0.021-0.062,0.042-0.104,0.042-0.188c0.128-0.126,0.236-0.274,0.298-0.405c0.064,0,0.042-0.106,0.084-0.148
	c0.042-0.02,0.064-0.126,0.128-0.126c0.106-0.149,0.318-0.149,0.446-0.233c-0.106-0.042-0.19,0-0.296-0.022v0.022
	c-0.022-0.022-0.064,0.02-0.084,0c-0.084,0-0.17,0.062-0.232,0.042c-0.191,0.168-0.298,0.424-0.488,0.636
	c-0.147,0.106-0.254,0.318-0.318,0.466c-0.192,0.044-0.424,0-0.636,0c-0.064-0.168,0.063-0.296,0.126-0.444
	c0.317-0.34,0.594-0.87,1.102-1.04c0.678-0.022,1.42,0.126,1.951-0.276c0.592-0.404,0.828-1.167,1.313-1.634
	c0.022-0.126,0.126-0.19,0.21-0.294c0.511-0.658,1.041-1.401,1.549-2.121c0.552-0.849,1.083-1.697,1.4-2.628
	C8.62,42.646,9.87,43.386,10.866,44.426"/>
<path fill="#BCA670" d="M9.87,76.066c0.126,0.147,0.234,0.338,0.318,0.529l-0.021,0.064c-0.382,0.254-0.764,0.633-0.912,1.039
	l0.021,0.02c0.934-1.143,2.249-1.673,3.708-1.609c1.041,0.172,1.825,0.953,2.503,1.763c1.355-0.066,2.478,0.78,3.157,1.883
	l0.275,0.358c-0.488-0.062-0.974-0.062-1.42,0.064c0.53,0.127,1.104,0.107,1.612,0.275c0.972,0.232,1.738,0.914,2.459,1.652
	c0.636,0.426,1.483,0.258,2.226,0.426c0.424,0.062,0.806,0.255,1.272,0.173c1.293-0.277,2.67-0.574,4.073-0.599
	c3.051-0.062,5.805,0.912,8.502,1.867c1.145,0.445,2.246,1.21,3.008,2.271c1.338,1.738,3.013,3.728,5.149,4.261
	c0.533,0.104,1.125,0,1.57-0.254c0.573-0.422,0.787-1.274,0.614-2.038c-0.17-0.508-0.442-0.996-0.868-1.332
	c-0.681-0.594-1.763-1.125-1.591-2.164c0.316-0.829,0.996-1.505,1.527-2.247l0.041,0.021c0,0.509,0.127,0.976,0.361,1.377
	c0.086-0.086,0.041-0.276,0.086-0.401c0.082-0.211,0.168-0.426,0.359-0.574c0.125,0.341,0.211,0.681,0.297,1.041
	c0.086,0.486,0.104,1.062-0.023,1.546c0,0.021,0,0.086,0.043,0.043c0.148-0.211,0.316-0.424,0.549-0.51
	c-0.721,1.529,0.463,3.033-0.021,4.624c-0.147,0.681-0.767,1.356-1.44,1.525c-0.423,0.17-0.935,0.213-1.378,0.127
	c-1.397-0.148-2.651-0.763-3.858-1.423c-0.147-0.039-0.233-0.188-0.362-0.209c0.297,0.529,0.742,0.976,1.209,1.42
	c1.082,0.933,2.308,1.677,3.774,1.867c0.719,0.147,1.567,0.086,2.076,0.637c0.276,0.529,0.125,1.209,0.211,1.781
	c0.086,0.996,0.574,1.82,0.996,2.693c0.105,0.316-0.127,0.549-0.359,0.762c-0.531,0.234-0.617,0.806-0.977,1.123
	c-0.359,0.021-0.828,0.021-1.188,0c0-0.17,0.108-0.36,0.172-0.51c0.127-0.189,0.358-0.23,0.483-0.402
	c-0.315,0.043-0.719,0.172-0.824,0.531l-0.147,0.361c-0.34,0.021-0.7,0.021-0.995,0c0-0.17,0.168-0.295,0.233-0.467
	c0.082-0.34,0.485-0.254,0.655-0.488c-0.127-0.041-0.211,0.064-0.34,0.043c-0.19,0.062-0.383,0.086-0.51,0.254
	c-0.084,0.234-0.275,0.426-0.381,0.658c-0.234,0.021-0.447,0.021-0.682,0c-0.104-0.021-0.081-0.148-0.04-0.213
	c0.192-0.275,0.296-0.594,0.53-0.848c0.34-0.148,0.785,0,1.125-0.191c0.295-0.168,0.655-0.316,0.805-0.678
	c0.043-0.721-0.316-1.358-0.635-1.952c-0.424-0.552-1.041-0.851-1.698-0.892c-1.546-0.211-3.22-0.19-4.661-0.676
	c-1.549-0.469-2.949-1.293-4.2-2.419c-0.848-0.848-1.651-1.844-2.776-2.185c-1.021-0.168-1.951,0.316-2.842,0.681
	c-1.613,0.783-3.158,1.717-4.896,2.14c-1.145,0.361-2.459,0.34-3.689,0.318c-0.403-0.975,0.396-2.417-0.686-3.118
	c-0.72-0.426-1.561-1.057-1.857-1.782c-0.021,0,0,0.043,0,0.062l-0.021-0.062l-0.022,0.023c0.128,0.911,0.954,1.673,1.696,2.186
	c0.871,0.737,0.15,2.159,0.806,2.984c-0.231,0.043-0.401-0.146-0.527-0.316l-0.042,0.043c-0.042,0.445-0.022,0.91,0.212,1.273
	c-0.168-0.064-0.34-0.234-0.447-0.381c-0.018,0.486,0.17,0.971,0.319,1.418c0.298,1.061,0.828,2.079,0.912,3.206
	c0,0.741-0.87,0.717-1.231,1.207c-0.106,0.104-0.168,0.229-0.338,0.211c-0.55,0-1.124,0.041-1.655-0.021
	c-0.084-0.107-0.02-0.232,0-0.361c0.064-0.363,0.466-0.424,0.699-0.572c-0.338,0-0.718,0.086-0.911,0.402
	c-0.084,0.19-0.105,0.399-0.234,0.549c-0.231,0-0.529,0.023-0.741-0.02c-0.044-0.13,0.063-0.255,0.126-0.384
	c0.149-0.34,0.508-0.508,0.826-0.655c0.021-0.021,0-0.041,0.044-0.062c-0.232,0-0.425,0.107-0.658,0.17
	c-0.234,0.191-0.446,0.467-0.616,0.701c-0.042,0.086,0,0.191-0.084,0.254h-0.55c-0.106-0.254,0.126-0.426,0.274-0.615
	c0.234-0.234,0.383-0.594,0.721-0.701c0.615,0,1.378,0.062,1.696-0.531c0.212-0.526-0.17-0.909-0.298-1.355
	c-0.804-1.781-2.543-2.969-3.984-4.368c-0.847-0.954-1.505-2.036-1.485-3.348c-0.042-0.747,0.17-1.55,0-2.272
	c-0.021-0.021-0.042-0.041-0.064-0.041c-0.02,0.254,0,0.484,0,0.717c-0.105,1.082-0.46,2.172-0.056,3.146
	c0.234,0.678,0.906,1.479,1.392,2.049c-0.826-0.277-1.61-0.438-2.098-1.305c-0.106-0.234-0.212-0.688-0.062-0.898
	c0.042-0.086,0.168-0.086,0.231-0.19c-0.636-0.445-0.806-1.229-0.871-1.954v-0.02c-0.084,0.19-0.021,0.401-0.063,0.635
	c0.02,0.509,0.147,1.021,0.529,1.378c-0.233,0.233-0.403,0.655-0.298,0.975c0.148,0.554,0.611,0.873,1.247,1.14
	c0.318,0.172,0.599,0.215,0.916,0.323c-0.678,0.105-1.483,0.276-2.14-0.043c-0.572-0.211-1.08-0.741-1.166-1.356
	c-0.106-0.549-0.126-1.104-0.594-1.482c0.338,0.086,0.574,0.422,0.829,0.633c0.02,0,0.02-0.062,0.02-0.082
	c-0.274-0.594-0.876-0.865-1.298-1.287c-0.53-0.814-0.292-1.619-0.227-2.468c0.064-0.422,0.19-0.803,0.274-1.207
	c-0.062-0.021-0.062,0.062-0.104,0.109c-0.404,0.93-0.652,1.784-0.589,2.885c0.042,0.53,0.44,1.247,0.906,1.585
	c0.531,0.512,0.318,1.314,0.659,1.908c0.38,0.678,1.124,1.042,1.716,1.486v0.039c-0.488-0.125-0.996-0.188-1.504-0.229
	c0.106,0.594,0.232,1.293-0.024,1.887c-0.422-0.997-1.376-1.694-2.224-2.376c-0.657-0.68-0.804-1.762-0.445-2.629
	c0.191,0.891,1.017,1.633,1.611,2.309c0.17,0.211,0.276,0.466,0.382,0.682c0.021-0.868-0.565-1.321-1.032-1.999
	c-0.319-0.467-0.708-1.097-0.728-1.646c-0.022-0.105-0.044-0.211-0.086-0.297l-0.021,0.062c-0.042,0.129-0.042,0.254-0.084,0.383
	c-0.466,0.719-1.023,1.146-0.189,2.629c-0.935-0.703-1.504-1.676-1.57-2.801c-0.02-0.297-0.02-0.527,0.042-0.806
	c0.15,0.063,0.254,0.215,0.404,0.277l0.02-0.041c-0.34-1.378-0.048-2.71,0.234-4.285l-0.024-0.02
	c-0.168,0.273-0.231,0.595-0.357,0.888c-0.022,0.129-0.044,0.298-0.086,0.425h0.021c-0.042,0.086-0.042,0.213-0.062,0.295
	c-0.108,0.682-0.17,1.463-0.066,2.141c-0.486-0.656-0.634-1.504-0.508-2.352l0.064-0.466c-0.126,0.021-0.19,0.191-0.297,0.255
	c0.106-0.445,0.232-1.125-0.212-1.465c-0.273-0.021-0.424,0.318-0.573,0.534c-0.168,0.444-0.635,0.719-1.061,0.803
	c-0.189,0.107-0.296,0.296-0.338,0.511c-0.338-0.084-0.7-0.275-0.784-0.656c-0.084-0.211-0.189-0.447-0.338-0.637
	c0-0.082-0.042-0.192-0.105-0.274c0.062-0.109-0.022-0.299,0.126-0.32c0.401,0.021,0.699,0.277,1.038,0.448
	c0.233,0.02,0.424-0.128,0.53-0.318l0.042-0.171c-0.064,0-0.064-0.104-0.128-0.146c-0.446-0.424-1.102-0.148-1.632-0.215
	c-0.447-0.105-0.508-0.59-0.72-0.931c-0.106-0.147-0.296-0.254-0.276-0.465c0.106-0.108,0.34-0.022,0.51-0.043
	c0.126-0.041,0.277-0.082,0.422-0.125c-0.042,0.062,0,0.188-0.084,0.211v0.021c-0.105,0.041-0.234-0.062-0.318,0.021
	c-0.148,0.084-0.126,0.254-0.148,0.379c0.042,0.023,0.108-0.02,0.128-0.061c0.106-0.148,0.338-0.148,0.466-0.299
	c0.084-0.189,0.192-0.359,0.084-0.57c-0.212,0.211-0.572,0.127-0.848,0.146c0.148-0.314,0.464-0.593,0.72-0.869
	c0.383-0.295,0.786-0.635,0.996-1.061l0.425-0.379c0.147-0.426,0.424-0.891,0.912-0.977c0.212-0.084,0.467-0.084,0.681-0.211
	c0.697-0.656,1.63-0.892,2.161-1.738c0.298-0.422,0.487-0.889,0.636-1.356C9.318,75.49,9.594,75.831,9.87,76.066 M12.052,76.871
	c-0.231,0.086-0.443,0.172-0.655,0.254c-0.807,0.383-1.25,1.25-1.208,2.141c0,0.51,0.212,0.912,0.298,1.381
	c-0.338-0.553-0.572-1.104-0.742-1.697C9.7,79.264,9.806,79.498,9.87,79.797H9.848c-0.424-0.254-0.932-0.617-1.124-1.105
	c-0.021,0.109,0.021,0.191,0.043,0.277c0.255,0.551,0.607,0.98,1.137,1.234l0.58,0.736c0.424,0.806,0.21,1.779-0.298,2.459
	c-0.297,0.402-0.614,0.824-0.975,1.187c0.148-0.468,0.19-0.972,0.296-1.459C9.463,83.167,9.421,83.23,9.4,83.294
	c-0.276,1.017-0.701,1.821-1.125,2.903c0-0.633,0.191-1.25,0.17-1.846c-0.402,0.997-0.614,2.312-0.276,3.413H8.19
	c0.021,0-0.021-0.061,0.042-0.084c-0.042-0.784,0.466-1.483,0.783-2.141c0.489-0.978,1.421-1.653,1.801-2.649
	c0.488-1.273-0.307-2.396-0.265-3.71c0.022-0.848,0.414-1.608,1.199-1.928l0.022,0.021c-0.106,0.276-0.261,0.621-0.284,0.922
	c-0.092,0.555,0.027,1.199-0.164,1.772c-0.021,0.146-0.126,0.274-0.126,0.422c0.404-0.655,0.656-1.336,0.654-2.188
	c0-0.467,0.193-0.885,0.321-1.309C12.138,76.891,12.075,76.891,12.052,76.871 M12.455,78.482c-0.19,0.254-0.36,0.508-0.402,0.804
	c-0.424,1.251,0.679,2.247,0.362,3.501c0,0.041-0.021,0.104-0.021,0.146h0.021c0.444-0.868,0.12-1.78-0.072-2.587
	c-0.126-0.656-0.204-1.291,0.135-1.844L12.455,78.482z M5.312,79.309c-0.126,0.125-0.17,0.316-0.17,0.488
	c0.063,0.061,0.105-0.043,0.17,0c0.02,0.02,0.063,0.061,0.042,0.105c-0.276,0.106-0.487,0.274-0.763,0.315
	c-0.042,0.022-0.105,0.022-0.105,0.086c0.17,0.021,0.359,0,0.508-0.043c0.53-0.19,0.976-0.465,1.546-0.51
	c-0.042-0.021,0.042-0.041,0-0.062c-0.042,0-0.02-0.064-0.084-0.086C6.075,79.521,5.587,79.629,5.312,79.309 M15.933,79.584
	c-0.063,0.553-0.529,0.936-0.932,1.292c-0.508,0.532-1.018,1.328-0.996,2.049c-0.042,1.25,0.954,2.065,0.742,3.358l-0.02,0.02
	c-0.383-1.102-1.427-1.763-1.385-3.013c0-0.937,0.473-1.759,1.044-2.437c0.084-0.17,0.234-0.382,0.17-0.572
	c-0.126,0.384-0.382,0.701-0.699,0.976c-0.488,0.426-0.927,1.174-0.949,1.812c-0.17,1.291,0.882,2.047,1.434,3.086
	c0.128,0.275,0.192,0.595,0.254,0.892c0.042,0.086-0.021,0.211,0.042,0.274c0.234-0.655,0.362-1.356,0.296-2.119
	c-0.17-0.851-0.55-1.613-0.466-2.543c0.022-0.318,0.064-0.637,0.232-0.848c-0.116,0.733-0.168,1.026,0.276,1.991
	c0.042,0.041-0.022,0.125,0.084,0.125c0.168-0.211,0.274-0.487,0.446-0.719c0.55-0.722,1.272-1.463,2.225-1.463
	c-1.231-0.339-2.077,0.741-2.693,1.61c-0.232-0.465-0.028-1.207,0.058-1.738c0.21-0.635,0.643-0.952,0.834-1.609
	C15.933,79.859,16.017,79.691,15.933,79.584 M8.667,80.137c-1.04-0.195-1.894,0.7-2.806,0.954c-0.126,0.062-0.316-0.021-0.38,0.062
	c0.976,0.211,1.632-0.635,2.544-0.742c0.296-0.043,0.594,0.043,0.762,0.275c0.254,0.51,0.022,0.963-0.192,1.428
	C8.257,82.812,7.558,83.402,7.24,84.1c-0.128,0.338-0.296,0.743-0.148,1.081h0.021c-0.021-0.786,0.552-1.376,1.082-1.907
	c0.658-0.68,1.356-1.668,0.932-2.641C9.042,80.418,8.86,80.219,8.667,80.137 M11.567,80.604c-0.148,0.299-0.148,0.772-0.106,1.069
	c0.086,0.317,0.276,0.562,0.444,0.858c-0.064-0.655-0.318-1.272-0.318-1.905L11.567,80.604z M5.228,82.087
	c-0.106,0.063-0.299,0.021-0.254,0.188c0.815-0.071,1.502-0.338,2.162-0.783C6.499,81.642,5.861,81.896,5.228,82.087 M4.399,82.001
	c-0.042,0.297,0.063,0.594-0.021,0.891c-0.021,0.234-0.212,0.423-0.212,0.656c0.042-0.062,0.126-0.041,0.17-0.106
	C4.729,82.945,4.655,82.404,4.399,82.001 M5.058,82.595c-0.022,0.043-0.022,0.086-0.022,0.125l0.408,0.039
	c0.634,0.035,1.138-0.185,1.668-0.438C6.413,82.384,5.735,82.511,5.058,82.595 M5.289,83.04c-0.084,0-0.34-0.082-0.276,0.104
	l0.458,0.172c0.477,0.105,0.73,0.041,1.07,0.041C6.137,83.212,5.693,83.146,5.289,83.04 M30.044,83.314
	c-0.701-0.146-1.88-0.273-2.579-0.188c0.615,0.104,1.368,0.254,1.96,0.399c1.271,0.381,2.427,0.656,3.487,1.465
	c-1.803-0.34-3.569-0.191-5.201,0.229c-1.953,0.574-3.895,1.461-5.656,2.543c1.188-0.444,2.517-0.937,3.71-1.412
	c3.498-1.088,4.532-1.475,7.187-1.258c0.108,0,0.233,0.062,0.34,0.041c-0.021-0.086-0.146-0.224-0.209-0.287
	C32.023,84.089,31.251,83.634,30.044,83.314 M39.443,86.836c-0.086-0.041-0.147-0.17-0.256-0.15
	c0.722,0.574,1.166,1.422,1.377,2.313c0.191,0.678,0.453,1.426,0.856,2.021c0.595,0.76,1.031,1.412,1.097,2.366l-0.017,0.041
	c-1.248,0.106-2.343-0.213-3.403-0.702c-1.43-0.688-2.541-1.803-3.709-2.967c-0.38-0.275-0.845-0.566-1.267-0.672
	c0.021,0.02,0.062,0.041,0.104,0.061c1.398,0.805,2.099,2.459,3.521,3.287c1.375,0.956,3.244,1.42,4.958,1.124
	c0-0.72-0.146-1.312-0.422-1.931c-0.402-0.992-1.31-1.926-1.497-3.01C40.57,87.873,40.079,87.365,39.443,86.836 M32.404,87.299
	c-0.487,0.129-0.936,0.32-1.377,0.553c-2.27,1.231-4.156,3.413-6.636,4.092c0.171,0,0.383-0.021,0.553-0.062
	c1.185-0.401,2.423-0.877,3.439-1.642c1.379-1.079,2.604-2.324,4.192-2.918L32.404,87.299z M15.191,89.677
	c-0.106,0.256,0.021,0.549,0.084,0.765c-0.191-0.125-0.319-0.341-0.403-0.552c-0.042-0.022-0.022-0.104-0.063-0.104
	c0.021,0.484,0.375,0.996,0.758,1.27c0.783,0.615,1.764,0.701,2.59,1.25l-0.042-0.061c-0.38-0.637-1.271-0.701-1.441-1.482h-0.02
	c-0.022,0.232,0.105,0.422,0.189,0.613c-0.508-0.105-0.741-0.676-0.87-1.059c-0.062,0.104-0.02,0.215,0,0.319
	c0.022,0.125,0.087,0.254,0.064,0.359C15.549,90.714,15.295,90.186,15.191,89.677 M18.562,90.335
	c0.126,0.719,0.756,1.391,1.414,1.603c0.389,0.461,0.395,1.244,0.458,1.625c0.19,1.398,0.671,1.963,1.117,3.279
	c0.126,0.425,0.106,0.87,0.126,1.314l0.022,0.021c0.359-0.932-0.106-1.847-0.403-2.673c-0.298-0.765-0.364-1.588-0.468-2.396
	c-0.106-0.529-0.064-1.144-0.55-1.482C19.6,91.374,19.006,90.968,18.562,90.335 M43.961,93.598l0.041,0.109
	c0.318,0.23,0.762,0.211,1.164,0.293c1.098,0.199,1.71,0.043,2.723,1.117c0.385,0.742,0.647,1.32,1.049,2l0.063,0.023
	c-0.276-0.656-0.53-1.337-0.765-2.017c-0.168-0.57-0.719-1.039-1.291-1.146C45.954,93.852,44.912,93.812,43.961,93.598"/>
<path fill="#BCA670" d="M35.541,91.499v0.062c-1.143,1.06-2.477,2.122-3.35,3.415c-0.147,0.255-0.256,0.529-0.383,0.785
	c0.18-1.598,0.533-2.353,0.937-3.478c-0.722,1.039-1.188,2.246-1.229,3.605c0,0.57,0.086,1.123,0.17,1.653
	c0,0.485-0.508,0.655-0.824,0.805c-0.234,0.084-0.447,0.211-0.656,0.298c0.146-0.32,0.373-0.419,0.512-1.125
	c0.045-0.721-0.15-1.399,0.078-2.057c-0.02-0.062,0.025-0.086,0-0.127c-0.145,0.148-0.189,0.402-0.254,0.619
	c-0.23,0.996-0.041,2.203-0.889,2.923c-0.486,0.362-0.951,0.635-1.444,0.976l-0.379,0.106l-1.312-0.021
	c0.043-0.232,0.147-0.511,0.401-0.636c0.147-0.062,0.34-0.104,0.424-0.276c-0.061-0.062-0.17,0.084-0.254,0.104
	c-0.36,0.065-0.787,0.297-0.868,0.681c-0.023,0.254-0.363,0.106-0.533,0.147c-0.147-0.021-0.316,0.021-0.404-0.043
	c-0.019-0.277,0.342-0.488,0.47-0.72c0.124-0.147,0.36-0.172,0.442-0.342c-0.316,0.086-0.719,0.107-0.869,0.465
	c-0.084,0.232-0.38,0.363-0.402,0.617c-0.189,0.041-0.382,0.021-0.574,0.021c-0.084-0.062-0.084-0.168-0.042-0.254
	c0.084-0.193,0.232-0.361,0.36-0.508l-0.021-0.023c0.149-0.277,0.447-0.551,0.806-0.572c0.595,0.041,1.189-0.022,1.697-0.295
	c0.742-0.447,1.738-0.977,1.951-1.91c0.254-0.994-0.045-2.074-0.146-3.072c-0.065-0.487-0.108-0.977-0.065-1.504l0.043-0.065
	c1.312-0.699,2.584-1.526,4.113-1.694C34.123,89.995,34.844,90.82,35.541,91.499"/>
<path fill="#BCA670" d="M10.866,94.426c-0.168,0.148-0.402,0.191-0.572,0.34c-0.998,0.676-1.995,1.441-2.754,2.415
	c-0.53,0.66-1.188,1.252-1.886,1.677l-0.022-0.021c0.658-1.229,0.508-2.759,1.443-3.88c0.191-0.234,0.466-0.402,0.614-0.656
	c-0.656,0.379-1.349,0.947-1.563,1.664c-0.38,0.914-0.302,2.107-0.896,2.936c-0.254,0.256-0.511,0.469-0.849,0.551
	c-0.359,0.022-0.657,0.19-0.868,0.467l-0.191,0.061c-0.444,0-0.827,0.045-1.229-0.02v-0.021c0.106-0.213,0.212-0.488,0.444-0.619
	l-0.021-0.02c0.106-0.086,0.276-0.125,0.381-0.209c0-0.021-0.021-0.086-0.063-0.064c-0.063,0-0.105,0.084-0.147,0.023
	c-0.255,0.041-0.53,0.191-0.679,0.379v0.043l0.042-0.043c-0.063,0.17-0.189,0.363-0.317,0.531c-0.252,0.041-0.424,0.02-0.658,0.02
	l-0.021-0.041h0.021c-0.021-0.061,0.042-0.106,0.042-0.19c0.128-0.127,0.236-0.275,0.298-0.402c0.064,0,0.042-0.106,0.084-0.147
	c0.042-0.021,0.064-0.127,0.128-0.127c0.106-0.148,0.318-0.148,0.446-0.23c-0.106-0.043-0.19,0-0.296-0.023v0.023
	c-0.022-0.023-0.064,0.02-0.084,0c-0.084,0-0.17,0.062-0.232,0.043c-0.191,0.168-0.298,0.422-0.488,0.633
	c-0.147,0.109-0.254,0.318-0.318,0.465c-0.192,0.045-0.424,0-0.636,0c-0.064-0.168,0.063-0.293,0.126-0.44
	c0.317-0.343,0.594-0.873,1.102-1.041c0.678-0.025,1.42,0.123,1.951-0.279c0.592-0.401,0.828-1.164,1.313-1.632
	c0.022-0.123,0.126-0.189,0.21-0.295c0.511-0.656,1.041-1.398,1.549-2.119c0.552-0.85,1.083-1.698,1.4-2.628
	C8.62,92.645,9.87,93.387,10.866,94.426"/>
</svg>
