<?xml version="1.0" encoding="utf-8"?>
<!-- Generator: Adobe Illustrator 16.0.3, SVG Export Plug-In . SVG Version: 6.00 Build 0)  -->
<!DOCTYPE svg PUBLIC "-//W3C//DTD SVG 1.1//EN" "http://www.w3.org/Graphics/SVG/1.1/DTD/svg11.dtd">
<svg version="1.1" id="Layer_1" xmlns="http://www.w3.org/2000/svg" xmlns:xlink="http://www.w3.org/1999/xlink" x="0px" y="0px"
	 width="50px" height="100px" viewBox="0 0 50 100" enable-background="new 0 0 50 100" xml:space="preserve">
<path fill="#FFFFFF" d="M12.5,24.999c1.988,0,3.976,0,5.963,0c0.038,0.115,0.076,0.229,0.115,0.344
	c0.076,0.038,0.153,0.076,0.229,0.114c0.556,0.875,0.312,2.307,0.115,3.326c-0.197,0.075-0.36,0.109-0.688,0.115
	c0,0.039,0,0.077,0,0.115c-0.37,0.214-1.228-0.162-1.605,0.115c-0.038,0-0.076,0-0.115,0c0-0.038,0-0.076,0-0.115
	c-0.115,0-0.229,0-0.344,0c0.004-1.956-1.856-3.522-3.67-3.669C12.5,25.228,12.5,25.114,12.5,24.999z"/>
<path fill="#FFFFFF" d="M20.184,27.292c0.014-0.956-0.277-1.658-0.574-2.293c0.612,0,1.224,0,1.835,0c0,0.038,0,0.077,0,0.115
	c0.191,0.038,0.382,0.076,0.574,0.115c0.038,0.076,0.076,0.153,0.114,0.229c0.153,0.039,0.306,0.077,0.459,0.115
	c0.076,0.115,0.153,0.229,0.229,0.344c0.393,0.274,0.661,0.247,0.917,0.688c-0.153,0-0.306,0-0.459,0c0-0.038,0-0.076,0-0.115
	c-0.268,0-0.535,0-0.803,0c0,0.039,0,0.077,0,0.115c-0.344,0.038-0.688,0.077-1.032,0.115c0,0.038,0,0.076,0,0.115
	c-0.191,0.038-0.382,0.076-0.573,0.115c0,0.038,0,0.076,0,0.115c-0.077,0-0.153,0-0.229,0c0,0.038,0,0.076,0,0.114
	C20.482,27.283,20.441,27.252,20.184,27.292z"/>
<path fill="#FFFFFF" d="M37.5,24.999c0,8.333,0,16.667,0,25c-4.09-0.038-8.182-0.076-12.271-0.115c0-0.038,0-0.076,0-0.115
	c0.038,0,0.076,0,0.115,0c0.076-0.115,0.153-0.229,0.229-0.344c0.075,0,0.153,0,0.229,0c0.076-0.115,0.153-0.229,0.229-0.344
	c0.229-0.191,0.459-0.382,0.688-0.573c0.115-0.153,0.229-0.306,0.346-0.459c0.076-0.038,0.151-0.076,0.229-0.115
	c0-0.076,0-0.153,0-0.229c0.189-0.153,0.382-0.306,0.573-0.459c0-0.076,0-0.153,0-0.229c0.075-0.039,0.151-0.077,0.229-0.115
	c0-0.077,0-0.153,0-0.229c0.113-0.076,0.229-0.153,0.344-0.229c0-0.076,0-0.153,0-0.229c0.076-0.039,0.152-0.077,0.229-0.115
	c0-0.077,0-0.153,0-0.229c0.076-0.038,0.152-0.076,0.229-0.115c0.076-0.229,0.152-0.458,0.229-0.688
	c0.076-0.039,0.151-0.077,0.229-0.115c0-0.076,0-0.153,0-0.229c0.039,0,0.076,0,0.115,0c0-0.076,0-0.153,0-0.229
	c0.037,0,0.075,0,0.113,0c0-0.115,0-0.229,0-0.344c0.038,0,0.076,0,0.115,0c0-0.076,0-0.153,0-0.229c0.037,0,0.076,0,0.113,0
	c0.039-0.153,0.076-0.306,0.115-0.458c0.038,0,0.076,0,0.114,0c0.038-0.229,0.076-0.459,0.114-0.688c0.039,0,0.076,0,0.115,0
	c0-0.115,0-0.229,0-0.344c0.037,0,0.076,0,0.113,0c0-0.115,0-0.229,0-0.344c0.038,0,0.076,0,0.115,0c0-0.114,0-0.229,0-0.344
	c0.038,0,0.076,0,0.113,0c0.039-0.306,0.076-0.612,0.115-0.917c0.039,0,0.076,0,0.114,0c0.038-0.458,0.076-0.917,0.114-1.376
	c0.039,0,0.077,0,0.115,0c0.037-0.803,0.076-1.605,0.113-2.408c-0.037,0-0.076,0-0.113,0c-0.038-0.765-0.076-1.529-0.115-2.294
	c-0.038,0-0.076,0-0.114,0c0-0.191,0-0.382,0-0.573c-0.038,0-0.075,0-0.114,0c0-0.153,0-0.306,0-0.458c-0.039,0-0.076,0-0.115,0
	c0-0.153,0-0.306,0-0.459c-0.037,0-0.075,0-0.113,0c0-0.153,0-0.306,0-0.458c-0.039,0-0.077,0-0.115,0c0-0.077,0-0.153,0-0.229
	c-0.037,0-0.076,0-0.113,0c0-0.153,0-0.306,0-0.459c-0.039,0-0.076,0-0.115,0c0-0.076,0-0.153,0-0.229c-0.038,0-0.076,0-0.114,0
	c0-0.115,0-0.229,0-0.344c-0.038,0-0.076,0-0.114,0c-0.039-0.153-0.076-0.306-0.115-0.458c-0.037,0-0.076,0-0.113,0
	c0-0.077,0-0.153,0-0.229c-0.039,0-0.077,0-0.115,0c0-0.115,0-0.229,0-0.344c-0.076-0.038-0.152-0.076-0.229-0.114
	c0-0.115,0-0.229,0-0.344c-0.076-0.038-0.152-0.077-0.229-0.115c-0.039-0.153-0.077-0.306-0.114-0.458
	c-0.076-0.039-0.154-0.077-0.229-0.115c0-0.077,0-0.153,0-0.229c-0.038,0-0.076,0-0.114,0c0-0.076,0-0.153,0-0.229
	c-0.076-0.038-0.152-0.076-0.229-0.115c0-0.076,0-0.153,0-0.229c-0.114-0.077-0.229-0.153-0.344-0.229c0-0.077,0-0.153,0-0.229
	c-0.078-0.038-0.154-0.076-0.229-0.115c0-0.076,0-0.153,0-0.229c-0.191-0.153-0.384-0.306-0.573-0.459c0-0.076,0-0.153,0-0.229
	c-0.191-0.153-0.383-0.306-0.574-0.459c-0.344-0.382-0.688-0.765-1.031-1.147c-0.076,0-0.152,0-0.229,0
	c-0.114-0.153-0.229-0.306-0.344-0.458C29.242,24.999,33.372,24.999,37.5,24.999z"/>
<path fill="#FFFFFF" d="M12.5,29.815c0-1.261,0-2.523,0-3.784c0.038,0,0.077,0,0.115,0c0,0.038,0,0.076,0,0.115
	c0.229,0.038,0.458,0.076,0.688,0.114c0,0.039,0,0.077,0,0.115c0.077,0,0.153,0,0.229,0c0.038,0.077,0.076,0.153,0.115,0.229
	c0.076,0,0.153,0,0.229,0c0.039,0.077,0.077,0.153,0.115,0.229c0.077,0,0.153,0,0.229,0c0.038,0.076,0.076,0.153,0.115,0.229
	c0.115,0.076,0.229,0.153,0.344,0.229c0.401,0.574,0.384,1.381,0.229,2.179c-0.153,0.114-0.306,0.229-0.458,0.344
	c0,0.039,0,0.077,0,0.115c-0.192,0.133-0.263-0.002-0.459,0.229C13.494,30.045,12.997,29.93,12.5,29.815z"/>
<path fill="#FFFFFF" d="M26.376,28.669c0,0.076,0,0.153,0,0.229c0.076,0,0.153,0,0.229,0c0,0.077,0,0.153,0,0.229
	c0.229,0.191,0.459,0.382,0.688,0.573c0,0.077,0,0.153,0,0.229c0.076,0.038,0.152,0.077,0.229,0.115c0,0.076,0,0.153,0,0.229
	c0.115,0.076,0.229,0.153,0.346,0.229c0.037,0.153,0.076,0.306,0.113,0.459c0.076,0.038,0.153,0.076,0.229,0.115
	c0.038,0.153,0.076,0.306,0.115,0.458c0.038,0,0.075,0,0.114,0c0.037,0.153,0.076,0.306,0.113,0.459c0.039,0,0.077,0,0.115,0
	c0,0.114,0,0.229,0,0.344c0.038,0,0.076,0,0.114,0c0,0.077,0,0.153,0,0.229c0.038,0,0.075,0,0.114,0c0,0.115,0,0.229,0,0.344
	c0.039,0,0.076,0,0.115,0c0,0.076,0,0.153,0,0.229c0.037,0,0.075,0,0.114,0c0,0.153,0,0.306,0,0.459c0.038,0,0.076,0,0.114,0
	c0,0.153,0,0.306,0,0.458c0.037,0,0.076,0,0.113,0c0,0.229,0,0.459,0,0.688c0.625,2.169,0.213,6.007-0.457,7.684
	c0,0.115,0,0.229,0,0.344c-0.281,0.648-1.064,2.346-1.722,2.523c0.074-0.354,0.255-0.648,0.345-0.917c0-0.191,0-0.382,0-0.574
	c0.349-1.117,0.601-3.019,0.229-4.243c-0.038-0.344-0.076-0.688-0.114-1.032c-0.268-0.574-0.534-1.147-0.803-1.72
	c-0.076-0.039-0.153-0.077-0.229-0.115c0-0.077,0-0.153,0-0.229c-0.151-0.115-0.306-0.229-0.459-0.344
	c-0.5-0.78,0.303-1.925-1.032-2.064c-0.197,0.488-0.342,0.893-1.032,0.917c-0.232-0.358-1.06-0.639-1.605-0.688
	c0-0.077,0-0.153,0-0.229c0.388,0.151,1.555,0.199,1.95,0c0-0.038,0-0.076,0-0.115c0.115-0.038,0.229-0.076,0.344-0.115
	c0.039-0.153,0.077-0.306,0.115-0.458c-0.038,0-0.076,0-0.115,0c-0.195-0.914-0.495-0.306-1.032-0.688
	c-0.039-0.115-0.077-0.229-0.115-0.344c-0.242-0.314-0.72-0.442-1.262-0.458c0.093-0.481,0.091-0.666,0-1.147
	c-0.466-0.119-0.398-0.364-0.688-0.573c-0.077,0-0.153,0-0.229,0c-0.115-0.153-0.229-0.306-0.344-0.459c-0.077,0-0.153,0-0.229,0
	c-0.038-0.076-0.077-0.153-0.115-0.229c-0.076,0-0.153,0-0.229,0c-0.038-0.077-0.076-0.153-0.114-0.229c-0.077,0-0.153,0-0.229,0
	c-0.069-0.046-0.091-0.153-0.229-0.229c0.038-0.115,0.077-0.229,0.115-0.344c0.191-0.153,0.382-0.306,0.573-0.459
	c0-0.038,0-0.076,0-0.115c0.077,0,0.153,0,0.229,0c0.038-0.076,0.076-0.153,0.115-0.229c0.153-0.039,0.306-0.077,0.458-0.115
	c0.442-0.234,1.3-0.724,2.179-0.459c0,0.039,0,0.077,0,0.115c0.153,0,0.306,0,0.458,0c0,0.038,0,0.077,0,0.115
	c0.153,0,0.306,0,0.459,0c0,0.038,0,0.077,0,0.115c0.153,0.038,0.306,0.076,0.458,0.115c0,0.038,0,0.076,0,0.115
	c0.076,0,0.153,0,0.229,0c0.038,0.076,0.076,0.153,0.115,0.229c0.153,0.039,0.306,0.077,0.458,0.115c0,0.038,0,0.077,0,0.115
	C26.008,28.489,26.077,28.585,26.376,28.669z"/>
<path fill="#FFFFFF" d="M20.986,30.848c0.191,0.038,0.382,0.077,0.573,0.115c0.153,0.229,0.306,0.458,0.459,0.688
	c-0.077,0-0.153,0-0.229,0C21.481,31.309,21.135,31.411,20.986,30.848z"/>
<path fill="#FFFFFF" d="M19.725,33.371c-0.571-0.128-1.396-0.602-2.293-0.344c0,0.039,0,0.077,0,0.115c-0.268,0-0.535,0-0.803,0
	c0,0.039,0,0.077,0,0.115c-0.076,0-0.153,0-0.229,0c0,0.038,0,0.077,0,0.115c-0.076,0-0.153,0-0.229,0
	c-0.343,0.181-0.522,0.397-1.032,0.458c0.076-0.229,0.153-0.458,0.229-0.688c-0.115,0-0.229,0-0.344,0
	c-0.154,0.059-0.767,0.667-1.032,0.574c0-0.039,0-0.077,0-0.115c-0.13-0.097-0.017,0.014-0.115-0.115
	c0.496-0.085,0.847-0.294,1.147-0.573c0.038-0.077,0.077-0.153,0.115-0.229c0.076,0,0.153,0,0.229,0
	c0.076-0.115,0.153-0.229,0.229-0.344c0.195-0.133,0.264,0.004,0.459-0.229c1.217-0.033,1.584,0.503,2.408,0.803
	c0.354,0.128,0.904,0.004,1.146,0.229C19.741,33.272,19.656,33.142,19.725,33.371z"/>
<path fill="#FFFFFF" d="M13.761,35.32c0.518,0.229,1.142,0.515,1.72,0.688c0.688,0,1.376,0,2.064,0c0,0.038,0,0.076,0,0.115
	c-0.038,0-0.077,0-0.115,0c-0.194,0.239-0.43,0.273-0.688,0.458c-0.268,0.306-0.535,0.612-0.803,0.917
	c-0.115,0.077-0.229,0.153-0.344,0.229c-0.038,0.153-0.076,0.306-0.115,0.458c-0.076,0.039-0.153,0.077-0.229,0.115
	c0,0.115,0,0.229,0,0.344c-0.039,0-0.077,0-0.115,0c-0.038,0.382-0.077,0.764-0.115,1.146c0,0.306,0,0.612,0,0.917
	c-0.038,0-0.077,0-0.115,0c0-0.038,0-0.076,0-0.115C14.131,39.918,13.463,36.314,13.761,35.32z"/>
<path fill="#FFFFFF" d="M19.151,36.467c0.038,0,0.077,0,0.115,0c0.082,0.246-0.129,0.27-0.229,0.344c0,0.038,0,0.076,0,0.115
	c-0.038,0-0.076,0-0.115,0C18.988,36.645,19.042,36.673,19.151,36.467z"/>
<path fill="#FFFFFF" d="M18.693,37.041c0.047,0.066,0.187,0.017,0.114,0.229c-0.038,0-0.076,0-0.114,0
	c-0.102,0.178-0.168,0.241-0.344,0.344C18.429,37.289,18.553,37.283,18.693,37.041z"/>
<path fill="#FFFFFF" d="M22.936,37.614c-0.076,0-0.153,0-0.229,0c0-0.038,0-0.077,0-0.115c0.038,0,0.076,0,0.115,0
	c0-0.038,0-0.077,0-0.115C22.952,37.515,22.867,37.385,22.936,37.614z"/>
<path fill="#FFFFFF" d="M19.839,49.884c-1.222,0.223-2.596,0.006-3.899,0c0-0.038,0-0.076,0-0.115
	c0.386-0.33,0.366-0.631,0.573-1.146c0.423-1.052,0.576-2.151,0.573-3.67c0-0.306,0-0.612,0-0.917
	c-0.11-0.401-0.271-2.663-0.114-3.211c0.038,0,0.076,0,0.114,0c0-0.268,0-0.535,0-0.803c0.039,0,0.077,0,0.115,0
	c0-0.153,0-0.306,0-0.458c0.039,0,0.077,0,0.115,0c0-0.115,0-0.229,0-0.344c0.039,0,0.077,0,0.115,0c0-0.076,0-0.153,0-0.229
	c0.038,0,0.077,0,0.115,0c0-0.115,0-0.229,0-0.344c0.076-0.039,0.153-0.077,0.229-0.115c0.038-0.153,0.076-0.306,0.115-0.459
	c0.076-0.038,0.153-0.076,0.229-0.115c0.039-0.114,0.077-0.229,0.115-0.344c0.038,0,0.077,0,0.115,0c0,0.076,0,0.153,0,0.229
	c-0.706,0.604-1.145,2.528-0.688,3.669c0.038,0,0.076,0,0.115,0c0.076,0.229,0.153,0.459,0.229,0.688c0.039,0,0.077,0,0.115,0
	c0.039,0.153,0.077,0.306,0.115,0.459c0.077,0.038,0.153,0.076,0.229,0.115c0,0.076,0,0.153,0,0.229
	c0.076,0.039,0.153,0.077,0.229,0.115c0,0.077,0,0.153,0,0.229c0.114,0.076,0.229,0.153,0.344,0.229c0,0.076,0,0.153,0,0.229
	c0.115,0.077,0.229,0.153,0.344,0.229c0,0.077,0,0.153,0,0.229c0.115,0.076,0.229,0.153,0.344,0.229c0,0.076,0,0.153,0,0.229
	c0.077,0.039,0.153,0.077,0.229,0.115c0,0.077,0,0.153,0,0.229c0.115,0.076,0.229,0.153,0.344,0.229
	c0.115,0.344,0.229,0.688,0.344,1.032c0.039,0,0.077,0,0.115,0c0,0.077,0,0.153,0,0.229c0.038,0,0.077,0,0.115,0
	c0.23,0.65-0.156,2.102-0.344,2.408c-0.076,0.039-0.153,0.077-0.229,0.115c0,0.077,0,0.153,0,0.229c-0.039,0-0.077,0-0.115,0
	C20.02,49.512,19.919,49.586,19.839,49.884z"/>
<path fill="#FFFFFF" d="M22.477,37.614c0.077,0,0.153,0,0.229,0c0,0.038,0,0.076,0,0.115C22.476,37.663,22.607,37.742,22.477,37.614
	z"/>
<path fill="#FFFFFF" d="M12.5,40.137c0.077,0,0.153,0,0.229,0c0.038,0.115,0.076,0.229,0.115,0.344
	c0.076,0.039,0.153,0.077,0.229,0.115c0,0.077,0,0.153,0,0.229c0.191,0.153,0.382,0.306,0.574,0.458
	c0.038,0.153,0.076,0.306,0.114,0.459c0.191,0.153,0.382,0.306,0.574,0.458c0,0.077,0,0.153,0,0.229
	c0.115,0.077,0.229,0.153,0.344,0.229c0,0.076,0,0.153,0,0.229c0.039,0,0.077,0,0.115,0c0.039,0.114,0.077,0.229,0.115,0.344
	c0.115,0.077,0.229,0.153,0.344,0.229c0.038,0.153,0.076,0.306,0.115,0.458c0.076,0.039,0.153,0.077,0.229,0.115
	c0,0.077,0,0.153,0,0.229c0.039,0,0.077,0,0.115,0c0,0.076,0,0.153,0,0.229c0.038,0,0.077,0,0.115,0c0,0.114,0,0.229,0,0.344
	c0.038,0,0.077,0,0.115,0c0,0.077,0,0.153,0,0.229c0.038,0,0.076,0,0.115,0c0,0.153,0,0.306,0,0.458c0.038,0,0.076,0,0.115,0
	c0.038,0.459,0.076,0.917,0.114,1.376c-0.038,0-0.076,0-0.114,0c0,0.229,0,0.458,0,0.688c-0.039,0-0.077,0-0.115,0
	c0,0.115,0,0.229,0,0.344c-0.039,0-0.077,0-0.115,0c0,0.115,0,0.229,0,0.344c-0.038,0-0.077,0-0.115,0
	c-0.038,0.153-0.077,0.306-0.115,0.459c-0.038,0-0.076,0-0.115,0c0,0.076,0,0.153,0,0.229c-0.076,0.039-0.153,0.077-0.229,0.115
	c0,0.077,0,0.153,0,0.229c-0.268,0.229-0.536,0.458-0.803,0.688c-0.688-0.038-1.376-0.076-2.064-0.115
	C12.5,46.635,12.5,43.386,12.5,40.137z"/>
<path fill="#FFFFFF" d="M27.18,39.907c-0.039,0-0.076,0-0.115,0c0-0.229,0-0.458,0-0.688c-0.268-0.612-0.535-1.223-0.803-1.835
	c-0.076-0.038-0.152-0.076-0.229-0.115c-0.115-0.191-0.229-0.382-0.344-0.573c-0.383-0.038-0.766-0.077-1.147-0.115
	c0-0.038,0-0.076,0-0.115c-0.583,0.081-0.425,0.328-0.917,0.459c0,0.076,0,0.153,0,0.229c0.115-0.038,0.229-0.076,0.344-0.114
	c0-0.039,0-0.077,0-0.115c0.268,0,0.535,0,0.803,0c0.097,0.522,0.055,0.724,0,1.261c-0.076,0-0.153,0-0.229,0
	c-0.054-0.25-0.073-0.325-0.229-0.458c0-0.039,0-0.077,0-0.115c-0.199,0.104-0.334,0.025-0.573,0.115
	c-0.268,0.191-0.536,0.382-0.803,0.573c-0.076,0.344-0.153,0.688-0.229,1.032c-0.229-0.069-0.099,0.016-0.229-0.115
	c-0.307-0.212-0.25-0.738-0.229-1.262c-1.009,0.449-2.063,0.086-2.867-0.344c-0.191,0.268-0.382,0.535-0.574,0.803
	c-0.076,0.841-0.153,1.682-0.229,2.523c0.191,0.268,0.382,0.535,0.573,0.803c0.077,0,0.153,0,0.229,0
	c0.076,0.115,0.153,0.229,0.229,0.344c0.077,0,0.153,0,0.229,0c0.077,0.115,0.153,0.229,0.229,0.344c0.076,0,0.153,0,0.229,0
	c0.038,0.077,0.076,0.153,0.115,0.229c0.076,0,0.153,0,0.229,0c0.039,0.076,0.077,0.153,0.115,0.229
	c0.177,0.108,0.925,0.322,1.262,0.229c0-0.038,0-0.076,0-0.115c0.191,0,0.382,0,0.573,0c0-0.038,0-0.076,0-0.114
	c0.191,0,0.382,0,0.573,0c0-0.039,0-0.077,0-0.115c0.077,0,0.153,0,0.229,0c0-0.039,0-0.077,0-0.115c0.153,0,0.306,0,0.458,0
	c0-0.039,0-0.077,0-0.115c0.191-0.038,0.382-0.076,0.574-0.115c0-0.038,0-0.076,0-0.115c0.494,0.026,0.388,0.071,0.688,0.229
	c0,0.153,0,0.306,0,0.458c-0.191,0.153-0.382,0.306-0.573,0.459c-0.153,0.191-0.306,0.382-0.459,0.573c-0.076,0-0.153,0-0.229,0
	c0,0.039,0,0.077,0,0.115c-0.076,0-0.153,0-0.229,0c0,0.038,0,0.076,0,0.115c-0.153,0.038-0.306,0.076-0.459,0.115
	c0,0.038,0,0.076,0,0.115c-0.573,0.076-1.147,0.153-1.72,0.229c0.061,0.632,0.601,1.592,0.344,2.408c-0.038,0-0.077,0-0.115,0
	c0,0.115,0,0.229,0,0.344c-0.038,0-0.077,0-0.115,0c-0.076,0.382-0.153,0.765-0.229,1.147c-0.038,0-0.076,0-0.114,0
	c0,0.076,0,0.153,0,0.229c-0.039,0-0.077,0-0.115,0c0,0.115,0,0.229,0,0.344c-0.077,0.038-0.153,0.076-0.229,0.115
	c-0.038,0.191-0.077,0.382-0.115,0.573c1.004-0.002,1.226-0.246,1.835-0.573c0.153-0.039,0.306-0.077,0.458-0.115
	c0.039-0.076,0.077-0.153,0.115-0.229c0.153-0.038,0.306-0.076,0.459-0.115c0.038-0.076,0.076-0.153,0.115-0.229
	c0.076,0,0.153,0,0.229,0c0.077-0.115,0.153-0.229,0.229-0.344c0.076,0,0.153,0,0.229,0c0.153-0.191,0.306-0.382,0.458-0.573
	c0.077,0,0.153,0,0.229,0l0.229-0.229c0-0.076,0-0.153,0-0.229c0.153-0.115,0.306-0.229,0.458-0.344
	c0.038-0.115,0.076-0.229,0.114-0.344c0.077-0.038,0.153-0.076,0.229-0.115c0.039-0.153,0.076-0.306,0.114-0.458
	c0.038,0,0.076,0,0.114,0c0.076-0.229,0.152-0.459,0.229-0.688c0.039,0,0.076,0,0.114,0c0-0.115,0-0.229,0-0.344
	c0.039,0,0.077,0,0.115,0c0.038-0.306,0.076-0.612,0.114-0.917c0.039,0,0.076,0,0.115,0c0.037-0.803,0.076-1.605,0.113-2.408
	c0.038,0,0.076,0,0.115,0C27.255,41.054,27.217,40.48,27.18,39.907z M24.656,41.513c0,0.077,0,0.153,0,0.229
	c-0.038,0-0.076,0-0.114,0c-0.039,0.115-0.077,0.229-0.115,0.344c-0.688,0.229-1.376,0.459-2.064,0.688
	c-0.301-0.014-0.389-0.045-0.573-0.115c-0.029-0.604-0.162-1.011,0.344-1.147c0,0.077,0,0.153,0,0.229
	c0.621,0.043,0.394,0.132,0.917-0.115c0.077,0,0.153,0,0.229,0c0-0.038,0-0.076,0-0.115c0.077,0,0.153,0,0.229,0
	c0-0.038,0-0.076,0-0.115c0.229-0.038,0.458-0.076,0.688-0.115c0-0.038,0-0.076,0-0.114c0.238-0.207,0.073-0.232,0.458-0.344
	c0.039,0.229,0.077,0.458,0.115,0.688C24.732,41.513,24.694,41.513,24.656,41.513z"/>
<path fill="#BDA770" d="M12.5,74.999c1.988,0,3.976,0,5.963,0c0.038,0.115,0.076,0.229,0.115,0.344
	c0.076,0.039,0.153,0.076,0.229,0.115c0.556,0.874,0.312,2.307,0.115,3.325c-0.197,0.075-0.36,0.108-0.688,0.114
	c0,0.039,0,0.076,0,0.115c-0.37,0.215-1.228-0.162-1.605,0.114c-0.038,0-0.076,0-0.115,0c0-0.039,0-0.076,0-0.114
	c-0.115,0-0.229,0-0.344,0c0.004-1.957-1.856-3.521-3.67-3.671C12.5,75.228,12.5,75.114,12.5,74.999z"/>
<path fill="#BDA770" d="M20.184,77.292c0.014-0.955-0.277-1.658-0.574-2.293c0.612,0,1.224,0,1.835,0c0,0.038,0,0.076,0,0.115
	c0.191,0.037,0.382,0.076,0.574,0.113c0.038,0.076,0.076,0.153,0.114,0.229c0.153,0.038,0.306,0.076,0.459,0.114
	c0.076,0.113,0.153,0.229,0.229,0.345c0.393,0.272,0.661,0.246,0.917,0.688c-0.153,0-0.306,0-0.459,0c0-0.039,0-0.076,0-0.115
	c-0.268,0-0.535,0-0.803,0c0,0.039,0,0.076,0,0.115c-0.344,0.037-0.688,0.076-1.032,0.114c0,0.037,0,0.076,0,0.114
	c-0.191,0.038-0.382,0.076-0.573,0.114c0,0.038,0,0.075,0,0.114c-0.077,0-0.153,0-0.229,0c0,0.039,0,0.076,0,0.114
	C20.482,77.282,20.441,77.253,20.184,77.292z"/>
<path fill="#BDA770" d="M37.5,74.999c0,8.332,0,16.668,0,25c-4.09-0.038-8.182-0.076-12.271-0.115c0-0.037,0-0.076,0-0.113
	c0.038,0,0.076,0,0.115,0c0.076-0.114,0.153-0.229,0.229-0.345c0.075,0,0.153,0,0.229,0c0.076-0.114,0.153-0.229,0.229-0.345
	c0.229-0.189,0.459-0.382,0.688-0.572c0.115-0.152,0.229-0.307,0.346-0.459c0.076-0.039,0.151-0.076,0.229-0.115
	c0-0.076,0-0.151,0-0.229c0.189-0.152,0.382-0.307,0.573-0.459c0-0.076,0-0.152,0-0.229c0.075-0.039,0.151-0.078,0.229-0.114
	c0-0.077,0-0.154,0-0.23c0.113-0.075,0.229-0.151,0.344-0.229c0-0.076,0-0.153,0-0.229c0.076-0.037,0.152-0.076,0.229-0.113
	c0-0.078,0-0.154,0-0.23c0.076-0.037,0.152-0.076,0.229-0.114c0.076-0.229,0.152-0.458,0.229-0.688
	c0.076-0.038,0.151-0.076,0.229-0.114c0-0.076,0-0.152,0-0.229c0.039,0,0.076,0,0.115,0c0-0.076,0-0.152,0-0.229
	c0.037,0,0.075,0,0.113,0c0-0.115,0-0.229,0-0.345c0.038,0,0.076,0,0.115,0c0-0.076,0-0.153,0-0.229c0.037,0,0.076,0,0.113,0
	c0.039-0.151,0.076-0.306,0.115-0.459c0.038,0,0.076,0,0.114,0c0.038-0.229,0.076-0.459,0.114-0.688c0.039,0,0.076,0,0.115,0
	c0-0.114,0-0.229,0-0.344c0.037,0,0.076,0,0.113,0c0-0.115,0-0.229,0-0.345c0.038,0,0.076,0,0.115,0c0-0.114,0-0.229,0-0.344
	c0.038,0,0.076,0,0.113,0c0.039-0.306,0.076-0.612,0.115-0.917c0.039,0,0.076,0,0.114,0c0.038-0.459,0.076-0.918,0.114-1.377
	c0.039,0,0.077,0,0.115,0c0.037-0.803,0.076-1.605,0.113-2.408c-0.037,0-0.076,0-0.113,0c-0.038-0.764-0.076-1.529-0.115-2.293
	c-0.038,0-0.076,0-0.114,0c0-0.191,0-0.383,0-0.574c-0.038,0-0.075,0-0.114,0c0-0.152,0-0.305,0-0.458c-0.039,0-0.076,0-0.115,0
	c0-0.153,0-0.306,0-0.459c-0.037,0-0.075,0-0.113,0c0-0.153,0-0.306,0-0.458c-0.039,0-0.077,0-0.115,0c0-0.076,0-0.154,0-0.229
	c-0.037,0-0.076,0-0.113,0c0-0.152,0-0.306,0-0.46c-0.039,0-0.076,0-0.115,0c0-0.075,0-0.151,0-0.229c-0.038,0-0.076,0-0.114,0
	c0-0.115,0-0.229,0-0.344c-0.038,0-0.076,0-0.114,0c-0.039-0.152-0.076-0.307-0.115-0.459c-0.037,0-0.076,0-0.113,0
	c0-0.076,0-0.152,0-0.229c-0.039,0-0.077,0-0.115,0c0-0.114,0-0.229,0-0.346c-0.076-0.037-0.152-0.076-0.229-0.113
	c0-0.115,0-0.229,0-0.345c-0.076-0.038-0.152-0.077-0.229-0.114c-0.039-0.152-0.077-0.307-0.114-0.459
	c-0.076-0.039-0.154-0.076-0.229-0.115c0-0.075,0-0.151,0-0.229c-0.038,0-0.076,0-0.114,0c0-0.076,0-0.152,0-0.23
	c-0.076-0.036-0.152-0.075-0.229-0.113c0-0.076,0-0.153,0-0.229c-0.114-0.076-0.229-0.152-0.344-0.229c0-0.077,0-0.153,0-0.229
	c-0.078-0.037-0.154-0.076-0.229-0.115c0-0.075,0-0.152,0-0.229c-0.191-0.152-0.384-0.306-0.573-0.459c0-0.076,0-0.152,0-0.229
	c-0.191-0.153-0.383-0.307-0.574-0.459c-0.344-0.383-0.688-0.766-1.031-1.146c-0.076,0-0.152,0-0.229,0
	c-0.114-0.152-0.229-0.307-0.344-0.459C29.242,74.999,33.372,74.999,37.5,74.999z"/>
<path fill="#BDA770" d="M12.5,79.815c0-1.262,0-2.523,0-3.784c0.038,0,0.077,0,0.115,0c0,0.038,0,0.075,0,0.114
	c0.229,0.039,0.458,0.076,0.688,0.114c0,0.038,0,0.076,0,0.114c0.077,0,0.153,0,0.229,0c0.038,0.077,0.076,0.152,0.115,0.229
	c0.076,0,0.153,0,0.229,0c0.039,0.076,0.077,0.152,0.115,0.229c0.077,0,0.153,0,0.229,0c0.038,0.076,0.076,0.153,0.115,0.229
	c0.115,0.076,0.229,0.151,0.344,0.229c0.401,0.574,0.384,1.382,0.229,2.18c-0.153,0.114-0.306,0.229-0.458,0.344
	c0,0.039,0,0.076,0,0.115c-0.192,0.133-0.263-0.003-0.459,0.229C13.494,80.045,12.997,79.931,12.5,79.815z"/>
<path fill="#BDA770" d="M26.376,78.669c0,0.076,0,0.152,0,0.229c0.076,0,0.153,0,0.229,0c0,0.078,0,0.154,0,0.23
	c0.229,0.189,0.459,0.382,0.688,0.572c0,0.076,0,0.154,0,0.23c0.076,0.036,0.152,0.075,0.229,0.113c0,0.076,0,0.153,0,0.229
	c0.115,0.076,0.229,0.152,0.346,0.229c0.037,0.153,0.076,0.308,0.113,0.459c0.076,0.039,0.153,0.076,0.229,0.115
	c0.038,0.151,0.076,0.306,0.115,0.459c0.038,0,0.075,0,0.114,0c0.037,0.151,0.076,0.306,0.113,0.459c0.039,0,0.077,0,0.115,0
	c0,0.112,0,0.229,0,0.344c0.038,0,0.076,0,0.114,0c0,0.076,0,0.152,0,0.229c0.038,0,0.075,0,0.114,0c0,0.115,0,0.229,0,0.345
	c0.039,0,0.076,0,0.115,0c0,0.076,0,0.153,0,0.229c0.037,0,0.075,0,0.114,0c0,0.151,0,0.306,0,0.459c0.038,0,0.076,0,0.114,0
	c0,0.151,0,0.305,0,0.457c0.037,0,0.076,0,0.113,0c0,0.229,0,0.459,0,0.688c0.625,2.168,0.213,6.006-0.457,7.685
	c0,0.113,0,0.229,0,0.344c-0.281,0.647-1.064,2.346-1.722,2.522c0.074-0.354,0.255-0.647,0.345-0.918c0-0.19,0-0.383,0-0.573
	c0.349-1.117,0.601-3.02,0.229-4.242c-0.038-0.345-0.076-0.688-0.114-1.032c-0.268-0.573-0.534-1.147-0.803-1.72
	c-0.076-0.039-0.153-0.078-0.229-0.115c0-0.076,0-0.152,0-0.229c-0.151-0.114-0.306-0.229-0.459-0.344
	c-0.5-0.78,0.303-1.925-1.032-2.063c-0.197,0.486-0.342,0.894-1.032,0.916c-0.232-0.356-1.06-0.639-1.605-0.688
	c0-0.076,0-0.152,0-0.229c0.388,0.15,1.555,0.198,1.95,0c0-0.039,0-0.076,0-0.115c0.115-0.038,0.229-0.075,0.344-0.114
	c0.039-0.151,0.077-0.306,0.115-0.459c-0.038,0-0.076,0-0.115,0c-0.195-0.914-0.495-0.306-1.032-0.688
	c-0.039-0.115-0.077-0.229-0.115-0.344c-0.242-0.314-0.72-0.441-1.262-0.459c0.093-0.48,0.091-0.666,0-1.146
	c-0.466-0.118-0.398-0.363-0.688-0.573c-0.077,0-0.153,0-0.229,0c-0.115-0.152-0.229-0.306-0.344-0.459c-0.077,0-0.153,0-0.229,0
	c-0.038-0.076-0.077-0.152-0.115-0.229c-0.076,0-0.153,0-0.229,0c-0.038-0.076-0.076-0.152-0.114-0.229c-0.077,0-0.153,0-0.229,0
	c-0.069-0.046-0.091-0.153-0.229-0.229c0.038-0.115,0.077-0.229,0.115-0.345c0.191-0.151,0.382-0.307,0.573-0.459
	c0-0.038,0-0.076,0-0.114c0.077,0,0.153,0,0.229,0c0.038-0.076,0.076-0.152,0.115-0.229c0.153-0.039,0.306-0.076,0.458-0.115
	c0.442-0.233,1.3-0.723,2.179-0.459c0,0.039,0,0.077,0,0.115c0.153,0,0.306,0,0.458,0c0,0.038,0,0.075,0,0.114
	c0.153,0,0.306,0,0.459,0c0,0.037,0,0.076,0,0.115c0.153,0.037,0.306,0.075,0.458,0.113c0,0.039,0,0.076,0,0.115
	c0.076,0,0.153,0,0.229,0c0.038,0.076,0.076,0.152,0.115,0.229c0.153,0.039,0.306,0.077,0.458,0.115c0,0.038,0,0.076,0,0.115
	C26.008,78.489,26.077,78.585,26.376,78.669z"/>
<path fill="#BDA770" d="M20.986,80.849c0.191,0.037,0.382,0.076,0.573,0.113c0.153,0.23,0.306,0.459,0.459,0.688
	c-0.077,0-0.153,0-0.229,0C21.481,81.31,21.135,81.411,20.986,80.849z"/>
<path fill="#BDA770" d="M19.725,83.37c-0.571-0.127-1.396-0.602-2.293-0.344c0,0.039,0,0.076,0,0.115c-0.268,0-0.535,0-0.803,0
	c0,0.037,0,0.075,0,0.113c-0.076,0-0.153,0-0.229,0c0,0.038,0,0.077,0,0.114c-0.076,0-0.153,0-0.229,0
	c-0.343,0.182-0.522,0.397-1.032,0.459c0.076-0.229,0.153-0.459,0.229-0.688c-0.115,0-0.229,0-0.344,0
	c-0.154,0.06-0.767,0.668-1.032,0.573c0-0.038,0-0.077,0-0.114c-0.13-0.098-0.017,0.015-0.115-0.115
	c0.496-0.086,0.847-0.293,1.147-0.572c0.038-0.077,0.077-0.153,0.115-0.229c0.076,0,0.153,0,0.229,0
	c0.076-0.115,0.153-0.229,0.229-0.345c0.195-0.134,0.264,0.004,0.459-0.229c1.217-0.032,1.584,0.504,2.408,0.804
	c0.354,0.128,0.904,0.004,1.146,0.229C19.741,83.272,19.656,83.142,19.725,83.37z"/>
<path fill="#BDA770" d="M13.761,85.319c0.518,0.229,1.142,0.516,1.72,0.688c0.688,0,1.376,0,2.064,0c0,0.037,0,0.076,0,0.114
	c-0.038,0-0.077,0-0.115,0c-0.194,0.238-0.43,0.271-0.688,0.458c-0.268,0.308-0.535,0.612-0.803,0.918
	c-0.115,0.076-0.229,0.151-0.344,0.229c-0.038,0.152-0.076,0.306-0.115,0.457c-0.076,0.039-0.153,0.078-0.229,0.115
	c0,0.115,0,0.229,0,0.344c-0.039,0-0.077,0-0.115,0c-0.038,0.383-0.077,0.766-0.115,1.146c0,0.307,0,0.611,0,0.918
	c-0.038,0-0.077,0-0.115,0c0-0.038,0-0.076,0-0.115C14.131,89.919,13.463,86.313,13.761,85.319z"/>
<path fill="#BDA770" d="M19.151,86.467c0.038,0,0.077,0,0.115,0c0.082,0.246-0.129,0.271-0.229,0.345c0,0.037,0,0.076,0,0.114
	c-0.038,0-0.076,0-0.115,0C18.988,86.646,19.042,86.673,19.151,86.467z"/>
<path fill="#BDA770" d="M18.693,87.04c0.047,0.066,0.187,0.018,0.114,0.229c-0.038,0-0.076,0-0.114,0
	c-0.102,0.18-0.168,0.241-0.344,0.346C18.429,87.288,18.553,87.282,18.693,87.04z"/>
<path fill="#BDA770" d="M22.936,87.614c-0.076,0-0.153,0-0.229,0c0-0.039,0-0.077,0-0.115c0.038,0,0.076,0,0.115,0
	c0-0.038,0-0.076,0-0.115C22.952,87.515,22.867,87.385,22.936,87.614z"/>
<path fill="#BDA770" d="M19.839,99.884c-1.222,0.223-2.596,0.008-3.899,0c0-0.037,0-0.076,0-0.113
	c0.386-0.33,0.366-0.633,0.573-1.146c0.423-1.052,0.576-2.15,0.573-3.67c0-0.307,0-0.612,0-0.917
	c-0.11-0.401-0.271-2.664-0.114-3.211c0.038,0,0.076,0,0.114,0c0-0.269,0-0.535,0-0.804c0.039,0,0.077,0,0.115,0
	c0-0.152,0-0.307,0-0.459c0.039,0,0.077,0,0.115,0c0-0.114,0-0.229,0-0.344c0.039,0,0.077,0,0.115,0c0-0.076,0-0.152,0-0.229
	c0.038,0,0.077,0,0.115,0c0-0.114,0-0.229,0-0.345c0.076-0.037,0.153-0.076,0.229-0.113c0.038-0.153,0.076-0.307,0.115-0.459
	c0.076-0.038,0.153-0.076,0.229-0.114c0.039-0.115,0.077-0.229,0.115-0.344c0.038,0,0.077,0,0.115,0c0,0.075,0,0.151,0,0.229
	c-0.706,0.605-1.145,2.529-0.688,3.671c0.038,0,0.076,0,0.115,0c0.076,0.229,0.153,0.459,0.229,0.688c0.039,0,0.077,0,0.115,0
	c0.039,0.152,0.077,0.307,0.115,0.459c0.077,0.039,0.153,0.076,0.229,0.115c0,0.076,0,0.152,0,0.229
	c0.076,0.039,0.153,0.077,0.229,0.115c0,0.076,0,0.152,0,0.229c0.114,0.076,0.229,0.153,0.344,0.229c0,0.075,0,0.151,0,0.229
	c0.115,0.076,0.229,0.153,0.344,0.229c0,0.075,0,0.151,0,0.229c0.115,0.075,0.229,0.152,0.344,0.229c0,0.076,0,0.151,0,0.229
	c0.077,0.039,0.153,0.075,0.229,0.114c0,0.076,0,0.152,0,0.229c0.115,0.076,0.229,0.152,0.344,0.229
	c0.115,0.345,0.229,0.688,0.344,1.031c0.039,0,0.077,0,0.115,0c0,0.076,0,0.153,0,0.229c0.038,0,0.077,0,0.115,0
	c0.23,0.648-0.156,2.103-0.344,2.407c-0.076,0.038-0.153,0.077-0.229,0.114c0,0.077,0,0.152,0,0.23c-0.039,0-0.077,0-0.115,0
	C20.02,99.513,19.919,99.587,19.839,99.884z"/>
<path fill="#BDA770" d="M22.477,87.614c0.077,0,0.153,0,0.229,0c0,0.037,0,0.076,0,0.113C22.476,87.663,22.607,87.742,22.477,87.614
	z"/>
<path fill="#BDA770" d="M12.5,90.138c0.077,0,0.153,0,0.229,0c0.038,0.113,0.076,0.229,0.115,0.344
	c0.076,0.037,0.153,0.076,0.229,0.113c0,0.077,0,0.154,0,0.23c0.191,0.152,0.382,0.305,0.574,0.458
	c0.038,0.153,0.076,0.306,0.114,0.459c0.191,0.153,0.382,0.306,0.574,0.458c0,0.076,0,0.154,0,0.23
	c0.115,0.075,0.229,0.151,0.344,0.229c0,0.076,0,0.152,0,0.23c0.039,0,0.077,0,0.115,0c0.039,0.112,0.077,0.229,0.115,0.344
	c0.115,0.076,0.229,0.151,0.344,0.229c0.038,0.153,0.076,0.307,0.115,0.459c0.076,0.039,0.153,0.076,0.229,0.115
	c0,0.076,0,0.152,0,0.229c0.039,0,0.077,0,0.115,0c0,0.076,0,0.153,0,0.23c0.038,0,0.077,0,0.115,0c0,0.113,0,0.229,0,0.344
	c0.038,0,0.077,0,0.115,0c0,0.076,0,0.152,0,0.229c0.038,0,0.076,0,0.115,0c0,0.154,0,0.308,0,0.459c0.038,0,0.076,0,0.115,0
	c0.038,0.459,0.076,0.918,0.114,1.378c-0.038,0-0.076,0-0.114,0c0,0.229,0,0.458,0,0.688c-0.039,0-0.077,0-0.115,0
	c0,0.115,0,0.229,0,0.345c-0.039,0-0.077,0-0.115,0c0,0.114,0,0.229,0,0.344c-0.038,0-0.077,0-0.115,0
	c-0.038,0.152-0.077,0.307-0.115,0.459c-0.038,0-0.076,0-0.115,0c0,0.076,0,0.152,0,0.229c-0.076,0.038-0.153,0.077-0.229,0.114
	c0,0.077,0,0.153,0,0.229c-0.268,0.229-0.536,0.459-0.803,0.688c-0.688-0.038-1.376-0.076-2.064-0.115
	C12.5,96.636,12.5,93.386,12.5,90.138z"/>
<path fill="#BDA770" d="M27.18,89.907c-0.039,0-0.076,0-0.115,0c0-0.229,0-0.459,0-0.688c-0.268-0.612-0.535-1.224-0.803-1.836
	c-0.076-0.036-0.152-0.075-0.229-0.114c-0.115-0.189-0.229-0.381-0.344-0.572c-0.383-0.038-0.766-0.076-1.147-0.115
	c0-0.037,0-0.076,0-0.114c-0.583,0.081-0.425,0.327-0.917,0.459c0,0.076,0,0.153,0,0.229c0.115-0.039,0.229-0.076,0.344-0.115
	c0-0.038,0-0.076,0-0.114c0.268,0,0.535,0,0.803,0c0.097,0.522,0.055,0.724,0,1.261c-0.076,0-0.153,0-0.229,0
	c-0.054-0.248-0.073-0.323-0.229-0.457c0-0.039,0-0.078,0-0.114c-0.199,0.104-0.334,0.024-0.573,0.114
	c-0.268,0.189-0.536,0.381-0.803,0.572c-0.076,0.344-0.153,0.688-0.229,1.032c-0.229-0.069-0.099,0.017-0.229-0.114
	c-0.307-0.213-0.25-0.738-0.229-1.262c-1.009,0.448-2.063,0.086-2.867-0.344c-0.191,0.268-0.382,0.535-0.574,0.803
	c-0.076,0.84-0.153,1.682-0.229,2.521c0.191,0.269,0.382,0.535,0.573,0.804c0.077,0,0.153,0,0.229,0
	c0.076,0.114,0.153,0.229,0.229,0.344c0.077,0,0.153,0,0.229,0c0.077,0.114,0.153,0.229,0.229,0.345c0.076,0,0.153,0,0.229,0
	c0.038,0.076,0.076,0.152,0.115,0.229c0.076,0,0.153,0,0.229,0c0.039,0.075,0.077,0.153,0.115,0.229
	c0.177,0.107,0.925,0.321,1.262,0.229c0-0.038,0-0.076,0-0.115c0.191,0,0.382,0,0.573,0c0-0.037,0-0.075,0-0.112
	c0.191,0,0.382,0,0.573,0c0-0.039,0-0.078,0-0.115c0.077,0,0.153,0,0.229,0c0-0.039,0-0.076,0-0.115c0.153,0,0.306,0,0.458,0
	c0-0.038,0-0.076,0-0.114c0.191-0.038,0.382-0.075,0.574-0.114c0-0.039,0-0.076,0-0.115c0.494,0.027,0.388,0.07,0.688,0.229
	c0,0.153,0,0.306,0,0.458c-0.191,0.153-0.382,0.307-0.573,0.459c-0.153,0.191-0.306,0.383-0.459,0.574c-0.076,0-0.153,0-0.229,0
	c0,0.038,0,0.076,0,0.113c-0.076,0-0.153,0-0.229,0c0,0.039,0,0.076,0,0.115c-0.153,0.039-0.306,0.075-0.459,0.114
	c0,0.038,0,0.076,0,0.115c-0.573,0.076-1.147,0.151-1.72,0.229c0.061,0.631,0.601,1.592,0.344,2.407c-0.038,0-0.077,0-0.115,0
	c0,0.115,0,0.229,0,0.345c-0.038,0-0.077,0-0.115,0c-0.076,0.383-0.153,0.766-0.229,1.146c-0.038,0-0.076,0-0.114,0
	c0,0.076,0,0.152,0,0.229c-0.039,0-0.077,0-0.115,0c0,0.114,0,0.229,0,0.345c-0.077,0.038-0.153,0.075-0.229,0.114
	c-0.038,0.19-0.077,0.383-0.115,0.572c1.004-0.002,1.226-0.246,1.835-0.572c0.153-0.039,0.306-0.076,0.458-0.114
	c0.039-0.076,0.077-0.152,0.115-0.229c0.153-0.037,0.306-0.076,0.459-0.113c0.038-0.076,0.076-0.153,0.115-0.229
	c0.076,0,0.153,0,0.229,0c0.077-0.114,0.153-0.229,0.229-0.345c0.076,0,0.153,0,0.229,0c0.153-0.19,0.306-0.383,0.458-0.572
	c0.077,0,0.153,0,0.229,0l0.229-0.23c0-0.076,0-0.151,0-0.229c0.153-0.115,0.306-0.229,0.458-0.344
	c0.038-0.115,0.076-0.23,0.114-0.346c0.077-0.037,0.153-0.076,0.229-0.113c0.039-0.153,0.076-0.307,0.114-0.459
	c0.038,0,0.076,0,0.114,0c0.076-0.229,0.152-0.459,0.229-0.688c0.039,0,0.076,0,0.114,0c0-0.114,0-0.229,0-0.345
	c0.039,0,0.077,0,0.115,0c0.038-0.307,0.076-0.612,0.114-0.917c0.039,0,0.076,0,0.115,0c0.037-0.804,0.076-1.604,0.113-2.408
	c0.038,0,0.076,0,0.115,0C27.255,91.054,27.217,90.479,27.18,89.907z M24.656,91.513c0,0.076,0,0.152,0,0.229
	c-0.038,0-0.076,0-0.114,0c-0.039,0.114-0.077,0.229-0.115,0.344c-0.688,0.229-1.376,0.459-2.064,0.688
	c-0.301-0.015-0.389-0.045-0.573-0.115c-0.029-0.604-0.162-1.01,0.344-1.146c0,0.076,0,0.152,0,0.229
	c0.621,0.044,0.394,0.132,0.917-0.114c0.077,0,0.153,0,0.229,0c0-0.039,0-0.076,0-0.115c0.077,0,0.153,0,0.229,0
	c0-0.037,0-0.076,0-0.115c0.229-0.037,0.458-0.075,0.688-0.113c0-0.038,0-0.076,0-0.114c0.238-0.207,0.073-0.231,0.458-0.344
	c0.039,0.229,0.077,0.458,0.115,0.688C24.732,91.513,24.694,91.513,24.656,91.513z"/>
</svg>
