<?xml version="1.0" encoding="utf-8"?>
<!-- Generator: Adobe Illustrator 16.0.3, SVG Export Plug-In . SVG Version: 6.00 Build 0)  -->
<!DOCTYPE svg PUBLIC "-//W3C//DTD SVG 1.1//EN" "http://www.w3.org/Graphics/SVG/1.1/DTD/svg11.dtd">
<svg version="1.1" id="Layer_1" xmlns="http://www.w3.org/2000/svg" xmlns:xlink="http://www.w3.org/1999/xlink" x="0px" y="0px"
  width="26.5px" height="29.8px" viewBox="11.6 10.1 26.5 29.8" enable-background="new 11.6 10.1 26.5 29.8" xml:space="preserve">
<g>
 <path fill="#666666" d="M18.1,16.7c-0.6,0-1.1-0.5-1.1-1.1v-4.3c0-0.6,0.5-1.1,1.1-1.1s1.1,0.5,1.1,1.1v4.3
  C19.3,16.2,18.8,16.7,18.1,16.7z"/>
 <path fill="#666666" d="M31.7,16.7c-0.6,0-1.1-0.5-1.1-1.1v-4.3c0-0.6,0.5-1.1,1.1-1.1s1.1,0.5,1.1,1.1v4.3
  C32.8,16.2,32.3,16.7,31.7,16.7z"/>
 <path fill="#666666" d="M35.9,13.4h-1.6v2.2c0,1.4-1.2,2.6-2.6,2.6S29,17,29,15.5v-2.2h-8.3v2.2c0,1.4-1.2,2.6-2.6,2.6
  c-1.4,0-2.6-1.2-2.6-2.6v-2.2h-1.6c-1.2,0-2.2,1-2.2,2.2v22c0,1.2,1,2.2,2.2,2.2h22c1.2,0,2.2-1,2.2-2.2v-22
  C38.2,14.4,37.1,13.4,35.9,13.4z M36.7,37.6c0,0.4-0.3,0.8-0.8,0.8h-22c-0.4,0-0.8-0.3-0.8-0.8V21.4h23.5V37.6z"/>
 <line fill="none" stroke="#666666" stroke-miterlimit="10" x1="13.1" y1="27.1" x2="36.7" y2="27.1"/>
 <line fill="none" stroke="#666666" stroke-miterlimit="10" x1="13.1" y1="32.8" x2="36.7" y2="32.8"/>
 <line fill="none" stroke="#666666" stroke-miterlimit="10" x1="29" y1="21.4" x2="29" y2="38.4"/>
 <line fill="none" stroke="#666666" stroke-miterlimit="10" x1="20.4" y1="21.4" x2="20.4" y2="38.4"/>
</g>
</svg>
