<?xml version="1.0" encoding="utf-8"?>
<!-- Generator: Adobe Illustrator 18.1.1, SVG Export Plug-In . SVG Version: 6.00 Build 0)  -->
<svg version="1.1" id="Layer_1" xmlns:sketch="http://www.bohemiancoding.com/sketch/ns"
	 xmlns="http://www.w3.org/2000/svg" xmlns:xlink="http://www.w3.org/1999/xlink" x="0px" y="0px" width="35px" height="35px"
	 viewBox="-310 379 35 35" enable-background="new -310 379 35 35" xml:space="preserve">
<title>icon - call</title>
<desc>Created with Sketch.</desc>
<g id="Find" sketch:type="MSPage">
	<g id="Find---Browse" transform="translate(-50.000000, -522.000000)" sketch:type="MSArtboardGroup">
		<g id="Resort-Header-Block" transform="translate(15.000000, 459.000000)" sketch:type="MSLayerGroup">
			<g id="Venue-Actions-Copy" transform="translate(28.500000, 62.000000)" sketch:type="MSShapeGroup">
				<g id="_x2D_-icon---Save" transform="translate(0.000000, 1.000000)">
					<g id="icon---call" transform="translate(6.500000, 0.000000)">
						<path id="Fill-1" fill="#999999" d="M-289.8,382.4c-0.4,1.6-0.8,3.3-1.2,4.9c-0.2,0.8-0.4,1.7-0.6,2.5
							c-0.1,0.3-0.2,0.4-0.5,0.4c-0.5,0-0.9-0.1-1.4-0.1c-0.6,0-0.9,0.3-0.9,0.9c0,5.3,0,5.6,0,10.8c0,0.6,0.3,0.9,0.9,0.9
							c0.5,0,0.9-0.1,1.4-0.1c0.3,0,0.4,0.1,0.5,0.4c0.6,2.3,1.2,4.7,1.8,7c0.1,0.3,0,0.4-0.3,0.5c-0.6,0.3-1.2,0.3-1.7,0
							c-1.4-0.6-2.8-1.2-4.2-1.9c-0.2-0.1-0.5-0.4-0.5-0.7c-1-3.4-1.7-3.7-2.1-7.2c-0.7-5.9,0.4-9.7,1.8-15.4c0.3-1,0.7-1.6,1.6-2
							c1.1-0.4,2.2-0.9,3.3-1.4C-291.3,381.9-290.6,382-289.8,382.4"/>
						<path id="Fill-2" fill="#999999" d="M-290.1,390c0.6-2.5,1.3-4.9,1.9-7.4c0.1,0,0.2,0,0.2,0c2.1,0.7,1.7,0.5,1.3,2.3
							c-0.4,1.6-0.9,3.1-1.3,4.7c-0.1,0.4-0.3,0.6-0.8,0.6C-289.3,390.1-289.7,390-290.1,390"/>
						<path id="Fill-3" fill="#999999" d="M-288.2,409.7c-0.6-2.5-1.3-4.9-1.9-7.4c0.5-0.1,1-0.2,1.5-0.1c0.2,0,0.5,0.2,0.5,0.4
							c0.6,2,1.1,3.9,1.7,5.9c0.1,0.4,0,0.6-0.3,0.7C-287.3,409.3-287.7,409.5-288.2,409.7"/>
					</g>
				</g>
			</g>
		</g>
	</g>
</g>
</svg>
