<?xml version="1.0" encoding="utf-8"?>
<!-- Generator: Adobe Illustrator 16.0.3, SVG Export Plug-In . SVG Version: 6.00 Build 0)  -->
<!DOCTYPE svg PUBLIC "-//W3C//DTD SVG 1.1//EN" "http://www.w3.org/Graphics/SVG/1.1/DTD/svg11.dtd">
<svg version="1.1" id="Layer_1" xmlns="http://www.w3.org/2000/svg" xmlns:xlink="http://www.w3.org/1999/xlink" x="0px" y="0px"
	 width="50px" height="50px" viewBox="0 0 50 50" enable-background="new 0 0 50 50" xml:space="preserve">
<path fill="#BDA770" d="M36.139,50c-0.048-0.81-1.388-1.268-1.804-1.34c-0.638-0.107-0.837-0.196-1.418-0.329
	c-4.191-0.947-6.342-3.574-7.145-7.721c-0.192-0.996-0.268-2.835-0.262-3.604c0.008,0.014,0.016,0.025,0.022,0.039
	c0.98,1.864,2.023,3.42,4.018,4.277c3.888,1.673,8.097-0.44,8.907-4.537c0.404-2.046-0.064-3.968-1.2-5.727
	c-0.939-1.453-2.158-2.649-3.414-3.823c-1.646-1.539-3.326-3.05-4.845-4.707c-2.015-2.205-3.079-4.259-3.999-7.169
	c-0.92,2.91-1.984,4.964-4,7.169c-1.517,1.657-3.198,3.168-4.844,4.707c-1.256,1.173-2.475,2.37-3.414,3.823
	c-1.136,1.758-1.604,3.68-1.2,5.726c0.812,4.097,5.02,6.21,8.907,4.536c1.959-0.842,2.999-2.359,3.965-4.179
	c-0.005,0.835-0.082,2.516-0.263,3.455c-0.803,4.146-2.954,6.765-7.144,7.712c-0.583,0.132-0.781,0.19-1.418,0.298
	c-0.418,0.072-1.757,0.584-1.805,1.394H36.139z"/>
</svg>
