<?xml version="1.0" encoding="utf-8"?>
<!-- Generator: Adobe Illustrator 16.0.3, SVG Export Plug-In . SVG Version: 6.00 Build 0)  -->
<!DOCTYPE svg PUBLIC "-//W3C//DTD SVG 1.1//EN" "http://www.w3.org/Graphics/SVG/1.1/DTD/svg11.dtd">
<svg version="1.1" id="Layer_1" xmlns="http://www.w3.org/2000/svg" xmlns:xlink="http://www.w3.org/1999/xlink" x="0px" y="0px"
	 width="50px" height="50px" viewBox="0 0 50 50" enable-background="new 0 0 50 50" xml:space="preserve">
<path fill="#BDA770" d="M41.656,29.874c-0.44-2.33-1.35-4.491-2.637-6.379c-1.199-1.757-2.719-3.277-4.476-4.476
	c-1.888-1.287-4.051-2.196-6.381-2.636c-1.025-0.194-2.081-0.306-3.163-0.306s-2.138,0.112-3.163,0.306
	c-2.331,0.44-4.493,1.349-6.38,2.635c-1.757,1.2-3.277,2.719-4.477,4.476c-1.287,1.888-2.195,4.05-2.637,6.38
	c-0.192,1.026-0.305,2.083-0.305,3.165c0,1.081,0.112,2.138,0.305,3.163c0.441,2.33,1.35,4.492,2.637,6.38
	c1.199,1.758,2.72,3.277,4.477,4.476c1.887,1.288,4.049,2.197,6.38,2.637C22.862,49.888,23.918,50,25,50s2.138-0.112,3.163-0.306
	c2.33-0.439,4.493-1.349,6.381-2.637c1.756-1.198,3.276-2.718,4.476-4.476c1.287-1.887,2.196-4.05,2.637-6.38
	c0.192-1.025,0.305-2.082,0.305-3.163C41.961,31.957,41.849,30.9,41.656,29.874z M36.592,25.252l-2.427,1.757
	c-0.821-1.246-1.889-2.314-3.136-3.136l1.756-2.425C34.286,22.459,35.581,23.753,36.592,25.252z M30.293,33.037
	c0.083,0.496,0.033,0.939-0.097,1.331c-0.166,0.507-0.478,0.914-0.869,1.195c-0.309,0.224-0.657,0.377-1.024,0.428
	c-0.962,0.135-1.715-0.215-2.346-0.92c-0.062-0.07-0.115-0.135-0.165-0.197c-0.142-0.182-0.247-0.354-0.416-0.619
	c-0.033-0.049-0.063-0.13-0.126-0.228c-0.002,0.073,0.007,0.135,0.007,0.207c0.005,0.562,0.06,1.067,0.188,1.577
	c0.181,0.708,0.42,1.278,0.771,1.723c0.441,0.555,1.062,0.908,2.004,1.038c0.065,0.008,0.13,0.016,0.195,0.023
	c0.094,0.011,0.189,0.022,0.286,0.035c0.342,0.045,0.655,0.124,0.688,0.506c-0.194,0.003-0.388-0.001-0.581,0
	c-0.778,0.004-1.558,0.001-2.334-0.003c-0.981-0.003-1.966,0.002-2.947-0.002c-0.775-0.002-1.552-0.006-2.33-0.002
	c-0.164,0.001-0.328-0.001-0.49,0c0.018-0.089,0.043-0.139,0.102-0.209c0.153-0.177,0.436-0.217,0.597-0.245
	c0.055-0.008,0.098-0.016,0.139-0.025c0.147-0.028,0.236-0.049,0.413-0.09c0.778-0.177,1.371-0.507,1.817-0.977
	c0.482-0.508,0.789-1.181,0.953-2.018c0.079-0.416,0.107-1.195,0.099-1.449c0-0.05-0.004-0.087-0.008-0.088
	c-0.029,0.054-0.059,0.108-0.087,0.163c-0.05,0.094-0.104,0.18-0.154,0.271l-0.39,0.538l-0.193,0.266
	c-0.227,0.236-0.485,0.441-0.821,0.586c-0.902,0.388-1.843,0.241-2.524-0.27c-0.389-0.292-0.683-0.706-0.843-1.215
	c-0.028-0.091-0.067-0.178-0.087-0.276c-0.156-0.791,0.025-1.538,0.465-2.219c0.021-0.034,0.05-0.061,0.071-0.091
	c0.241-0.356,0.526-0.671,0.829-0.973c0.141-0.141,0.277-0.282,0.424-0.42c0.435-0.405,0.867-0.813,1.29-1.231
	c0.198-0.195,0.4-0.388,0.589-0.594c0.125-0.138,0.225-0.271,0.332-0.407c0.577-0.726,0.935-1.455,1.238-2.435
	c0.158,0.435,0.254,0.643,0.431,1.003c0.131,0.266,0.483,0.827,0.899,1.379c0.24,0.316,0.502,0.63,0.758,0.879
	c0.054,0.056,0.11,0.107,0.166,0.163c0.569,0.554,1.147,1.101,1.715,1.658c0.076,0.074,0.155,0.146,0.23,0.222
	c0.232,0.233,0.436,0.484,0.613,0.751C30.021,32.154,30.215,32.564,30.293,33.037z M25,19.07c0.92,0,1.82,0.095,2.691,0.266
	l-0.474,2.951c-0.716-0.146-1.458-0.224-2.218-0.224s-1.502,0.078-2.219,0.224l-0.473-2.951C23.18,19.166,24.08,19.07,25,19.07z
	 M17.215,21.448l1.756,2.425c-1.247,0.821-2.314,1.89-3.136,3.136l-2.427-1.757C14.42,23.753,15.714,22.459,17.215,21.448z
	 M11.031,33.039c0-0.921,0.096-1.819,0.267-2.691l2.95,0.473c-0.146,0.716-0.223,1.459-0.223,2.219c0,0.759,0.077,1.502,0.224,2.219
	l-2.951,0.472C11.127,34.857,11.031,33.96,11.031,33.039z M13.408,40.823l2.427-1.756c0.821,1.246,1.889,2.314,3.136,3.137
	l-1.756,2.425C15.714,43.619,14.42,42.325,13.408,40.823z M25,47.007c-0.92,0-1.82-0.095-2.691-0.266l0.473-2.952
	c0.717,0.147,1.459,0.225,2.219,0.225s1.502-0.077,2.218-0.225l0.474,2.952C26.818,46.912,25.92,47.007,25,47.007z M32.785,44.629
	l-1.756-2.425c1.246-0.822,2.313-1.891,3.136-3.137l2.427,1.756C35.581,42.325,34.286,43.619,32.785,44.629z M35.751,35.258
	c0.146-0.717,0.224-1.46,0.224-2.219c0-0.76-0.077-1.503-0.224-2.219l2.951-0.473c0.172,0.871,0.267,1.771,0.267,2.691
	s-0.095,1.819-0.267,2.69L35.751,35.258z"/>
</svg>
