<?xml version="1.0" encoding="utf-8"?>
<!-- Generator: Adobe Illustrator 15.1.0, SVG Export Plug-In . SVG Version: 6.00 Build 0)  -->
<!DOCTYPE svg PUBLIC "-//W3C//DTD SVG 1.1//EN" "http://www.w3.org/Graphics/SVG/1.1/DTD/svg11.dtd">
<svg version="1.1" id="Layer_1" xmlns="http://www.w3.org/2000/svg" xmlns:xlink="http://www.w3.org/1999/xlink" x="0px" y="0px"
	 width="50px" height="50px" viewBox="0 0 50 50" enable-background="new 0 0 50 50" xml:space="preserve">
<g>
	<line fill="none" x1="21.153" y1="41.501" x2="22.135" y2="41.551"/>
	<path fill="#020303" d="M9.825,48.154"/>
	<path fill="#BDA770" d="M13.676,14.81l0.098-0.245l-7.392,1.277c-0.137,0.025-0.256,0.084-0.36,0.167
		c-0.18,0.206-0.295,0.468-0.321,0.749c0,0.028,0,0.053,0.005,0.078L10.99,45.61c0.042,0.226,0.167,0.423,0.355,0.554
		c0.186,0.128,0.412,0.178,0.633,0.139l1.705-0.262c-0.886-0.159-1.029-0.906-1.01-1.524l0.923-29.239
		C13.6,15.116,13.63,14.96,13.676,14.81z"/>
	<g>
		<path fill="none" d="M42.925,18.88l-7.859-1.905l-11.382,8.421l-1.417,13.941l0.646,2.047l6.1,5.165l-2.714-0.116l9.394,2.279
			c0.451,0.105,0.916-0.181,1.021-0.624l6.833-28.187C43.655,19.448,43.377,18.991,42.925,18.88z"/>
		<path fill="#BDA770" d="M36.472,15.909c0.025-0.744-0.557-1.367-1.294-1.394l-6.432-0.202l7.676,1.897L36.472,15.909z"/>
		<path fill="#BDA770" d="M16.106,43.093l6.834-28.187c0.015-0.066,0.087-0.315,0.108-0.377l-6.748-0.011
			c-0.226-0.008-0.442,0.075-0.604,0.231c-0.167,0.156-0.262,0.37-0.269,0.598l-0.921,29.241c-0.016,0.473,0.353,0.963,0.818,0.98
			l2.025-0.059l-0.084-0.023C16.285,45.25,15.87,44.071,16.106,43.093z"/>
	</g>
	<path fill="#BDA76F" d="M43.649,19.15l-7.857-1.906l-10.146-2.462c-0.065-0.017-0.134-0.025-0.203-0.025
		c-0.391,0-0.728,0.268-0.819,0.646l-6.833,28.187c-0.11,0.452,0.17,0.911,0.624,1.022l8.614,2.087l9.39,2.278
		c0.45,0.109,0.914-0.178,1.022-0.623l6.834-28.188C44.383,19.716,44.104,19.257,43.649,19.15z M36.884,34.237
		c-0.17,1.909-1.703,2.888-3.091,2.727c-1.116-0.128-1.856-0.742-2.356-1.714c-0.192-0.37-0.265-0.618-0.415-1.082
		c-0.022-0.064-0.03-0.165-0.072-0.295c-0.206,0.731-0.298,1.371-0.301,2.057c-0.014,1.9,0.474,3.143,2.304,3.897
		c0.172,0.071,0.346,0.138,0.518,0.205c0.373,0.151,0.724,0.242,0.648,0.679c-3.241-0.813-6.482-1.626-9.744-2.442
		c0.048-0.095,0.088-0.145,0.175-0.205c0.224-0.154,0.552-0.116,0.741-0.102c0.291,0.026,0.384,0.022,0.653,0.031
		c1.926,0.06,3.156-0.838,3.971-2.546c0.254-0.53,0.576-1.684,0.551-1.697c-0.05,0.053-0.097,0.105-0.146,0.159
		c-0.635,0.698-1.265,1.257-2.228,1.404c-1.878,0.287-3.468-1.104-3.357-2.977c0.057-0.934,0.476-1.714,1.17-2.35
		c0.57-0.524,1.235-0.908,1.914-1.272c0.885-0.484,1.788-0.951,2.634-1.501c1.147-0.741,1.844-1.529,2.586-2.722
		c0.05,0.531,0.097,0.794,0.191,1.247c0.111,0.526,0.615,2.042,1.196,3.01c0.583,0.974,1.196,1.928,1.77,2.901
		C36.661,32.448,36.966,33.295,36.884,34.237z"/>
</g>
</svg>
