<?xml version="1.0" encoding="utf-8"?>
<!-- Generator: Adobe Illustrator 16.0.3, SVG Export Plug-In . SVG Version: 6.00 Build 0)  -->
<!DOCTYPE svg PUBLIC "-//W3C//DTD SVG 1.1//EN" "http://www.w3.org/Graphics/SVG/1.1/DTD/svg11.dtd">
<svg version="1.1" id="Layer_1" xmlns="http://www.w3.org/2000/svg" xmlns:xlink="http://www.w3.org/1999/xlink" x="0px" y="0px"
  width="50px" height="100px" viewBox="0 0 50 100" enable-background="new 0 0 50 100" xml:space="preserve">
<g>
 <line fill="#FFFFFF" x1="22.933" y1="82.416" x2="23.623" y2="82.451"/>
 <path fill="#020303" d="M14.981,87.087"/>
 <path fill="#BDA770" d="M17.684,63.678l0.069-0.172l-5.189,0.896c-0.096,0.018-0.18,0.06-0.253,0.117
  c-0.126,0.145-0.207,0.329-0.225,0.526c0,0.019,0,0.037,0.004,0.055l3.709,20.201c0.029,0.158,0.117,0.297,0.249,0.389
  c0.13,0.089,0.289,0.124,0.444,0.097l1.197-0.184c-0.622-0.112-0.722-0.636-0.709-1.07l0.648-20.527
  C17.631,63.893,17.652,63.783,17.684,63.678z"/>
 <g>
  <path fill="none" d="M38.218,66.535L32.7,65.197l-7.99,5.913l-0.995,9.787l0.454,1.437l4.282,3.626l-1.905-0.082l6.595,1.6
   c0.316,0.075,0.642-0.126,0.717-0.438l4.797-19.788C38.731,66.934,38.535,66.613,38.218,66.535z"/>
  <path fill="#BDA770" d="M33.688,64.449c0.017-0.522-0.391-0.96-0.909-0.978l-4.516-0.142l5.39,1.332L33.688,64.449z"/>
  <path fill="#BDA770" d="M19.39,83.533l4.798-19.788c0.01-0.047,0.061-0.222,0.076-0.265l-4.737-0.007
   c-0.159-0.006-0.31,0.053-0.424,0.162c-0.117,0.109-0.184,0.259-0.189,0.42l-0.647,20.528c-0.011,0.332,0.248,0.676,0.575,0.688
   l1.421-0.04l-0.059-0.017C19.516,85.048,19.224,84.221,19.39,83.533z"/>
 </g>
 <path fill="#BDA76F" d="M38.727,66.724l-5.517-1.337l-7.123-1.729c-0.046-0.011-0.094-0.017-0.142-0.017
  c-0.274,0-0.511,0.187-0.575,0.453l-4.797,19.788c-0.077,0.317,0.12,0.64,0.438,0.717l6.047,1.466l6.593,1.599
  c0.316,0.077,0.641-0.125,0.717-0.438l4.798-19.788C39.241,67.122,39.046,66.8,38.727,66.724z M33.977,77.317
  c-0.119,1.34-1.196,2.027-2.17,1.913c-0.784-0.09-1.303-0.52-1.654-1.203c-0.135-0.26-0.186-0.433-0.291-0.759
  c-0.016-0.045-0.022-0.115-0.052-0.207c-0.144,0.513-0.209,0.962-0.21,1.444c-0.01,1.334,0.331,2.206,1.617,2.736
  c0.12,0.05,0.242,0.097,0.363,0.144c0.262,0.106,0.508,0.169,0.455,0.477c-2.275-0.571-4.551-1.142-6.84-1.716
  c0.034-0.066,0.062-0.101,0.123-0.143c0.157-0.108,0.387-0.082,0.52-0.071c0.204,0.018,0.27,0.015,0.458,0.021
  c1.352,0.042,2.215-0.588,2.788-1.787c0.177-0.372,0.404-1.181,0.387-1.191c-0.035,0.037-0.068,0.074-0.103,0.111
  c-0.445,0.49-0.888,0.883-1.563,0.986c-1.319,0.202-2.435-0.775-2.357-2.089c0.04-0.656,0.334-1.204,0.821-1.65
  c0.401-0.368,0.868-0.637,1.344-0.894c0.622-0.34,1.255-0.668,1.849-1.053c0.805-0.521,1.295-1.073,1.816-1.912
  c0.034,0.374,0.067,0.558,0.134,0.876c0.078,0.37,0.432,1.433,0.84,2.113c0.409,0.683,0.84,1.354,1.242,2.037
  C33.82,76.06,34.034,76.655,33.977,77.317z"/>
</g>
<g>
 <line fill="#FFFFFF" x1="22.933" y1="32.416" x2="23.623" y2="32.451"/>
 <path fill="#020303" d="M14.981,37.087"/>
 <path fill="#FFFFFF" d="M17.684,13.678l0.069-0.172l-5.189,0.896c-0.096,0.018-0.18,0.06-0.253,0.117
  c-0.126,0.145-0.207,0.329-0.225,0.526c0,0.019,0,0.037,0.004,0.055l3.709,20.201c0.029,0.158,0.117,0.297,0.249,0.389
  c0.13,0.089,0.289,0.124,0.444,0.097l1.197-0.184c-0.622-0.112-0.722-0.636-0.709-1.07l0.648-20.527
  C17.631,13.893,17.652,13.783,17.684,13.678z"/>
 <g>
  <path fill="none" d="M38.218,16.535L32.7,15.197l-7.99,5.913l-0.995,9.787l0.454,1.437l4.282,3.626l-1.905-0.082l6.595,1.6
   c0.316,0.075,0.642-0.126,0.717-0.438l4.797-19.788C38.731,16.934,38.535,16.613,38.218,16.535z"/>
  <path fill="#FFFFFF" d="M33.688,14.449c0.017-0.522-0.391-0.96-0.909-0.978l-4.516-0.142l5.39,1.332L33.688,14.449z"/>
  <path fill="#FFFFFF" d="M19.39,33.533l4.798-19.788c0.01-0.047,0.061-0.222,0.076-0.265l-4.737-0.007
   c-0.159-0.006-0.31,0.053-0.424,0.162c-0.117,0.109-0.184,0.259-0.189,0.42l-0.647,20.528c-0.011,0.332,0.248,0.676,0.575,0.688
   l1.421-0.04l-0.059-0.017C19.516,35.048,19.224,34.221,19.39,33.533z"/>
 </g>
 <path fill="#FFFFFF" d="M38.727,16.724l-5.517-1.337l-7.123-1.729c-0.046-0.011-0.094-0.017-0.142-0.017
  c-0.274,0-0.511,0.187-0.575,0.453l-4.797,19.788c-0.077,0.317,0.12,0.64,0.438,0.717l6.047,1.466l6.593,1.599
  c0.316,0.077,0.641-0.125,0.717-0.438l4.798-19.788C39.241,17.122,39.046,16.8,38.727,16.724z M33.977,27.317
  c-0.119,1.34-1.196,2.027-2.17,1.913c-0.784-0.09-1.303-0.52-1.654-1.203c-0.135-0.26-0.186-0.433-0.291-0.759
  c-0.016-0.045-0.022-0.115-0.052-0.207c-0.144,0.513-0.209,0.962-0.21,1.444c-0.01,1.334,0.331,2.206,1.617,2.736
  c0.12,0.05,0.242,0.097,0.363,0.144c0.262,0.106,0.508,0.169,0.455,0.477c-2.275-0.571-4.551-1.142-6.84-1.716
  c0.034-0.066,0.062-0.101,0.123-0.143c0.157-0.108,0.387-0.082,0.52-0.071c0.204,0.018,0.27,0.015,0.458,0.021
  c1.352,0.042,2.215-0.588,2.788-1.787c0.177-0.372,0.404-1.181,0.387-1.191c-0.035,0.037-0.068,0.074-0.103,0.111
  c-0.445,0.49-0.888,0.883-1.563,0.986c-1.319,0.202-2.435-0.775-2.357-2.089c0.04-0.656,0.334-1.204,0.821-1.65
  c0.401-0.368,0.868-0.637,1.344-0.894c0.622-0.34,1.255-0.668,1.849-1.053c0.805-0.521,1.295-1.073,1.816-1.912
  c0.034,0.374,0.067,0.558,0.134,0.876c0.078,0.37,0.432,1.433,0.84,2.113c0.409,0.683,0.84,1.354,1.242,2.037
  C33.82,26.06,34.034,26.655,33.977,27.317z"/>
</g>
</svg>
