<?xml version="1.0" encoding="utf-8"?>
<!-- Generator: Adobe Illustrator 16.0.4, SVG Export Plug-In . SVG Version: 6.00 Build 0)  -->
<svg version="1.2" baseProfile="tiny" id="Layer_1" xmlns="http://www.w3.org/2000/svg" xmlns:xlink="http://www.w3.org/1999/xlink"
	 x="0px" y="0px" width="30px" height="75px" viewBox="0.5 100.5 30 75" overflow="visible" xml:space="preserve">
<g>
	<path fill="#989898" d="M20.083,125.657H4.417c-2.16,0-3.917-1.754-3.917-3.904v-15.616c0-2.153,1.757-3.906,3.917-3.906h15.667
		c2.159,0,3.916,1.753,3.916,3.906v15.616C23.999,123.903,22.242,125.657,20.083,125.657z M4.417,103.794
		c-1.296,0-2.35,1.052-2.35,2.343v15.616c0,1.293,1.054,2.344,2.35,2.344h15.667c1.296,0,2.35-1.051,2.35-2.344v-15.616
		c0-1.293-1.054-2.344-2.35-2.344L4.417,103.794L4.417,103.794z"/>
</g>
<polygon fill="#333333" points="13.995,118.5 12.444,120.046 5.797,113.42 7.348,111.874 "/>
<polygon fill="#333333" points="10.893,118.5 28.949,100.5 30.5,102.046 12.444,120.046 "/>
<g>
	<path fill="#989898" d="M20.083,175.5H4.417c-2.16,0-3.917-1.754-3.917-3.903v-15.617c0-2.153,1.757-3.905,3.917-3.905h15.667
		c2.159,0,3.916,1.752,3.916,3.905v15.617C23.999,173.746,22.242,175.5,20.083,175.5z M4.417,153.638
		c-1.296,0-2.35,1.051-2.35,2.342v15.617c0,1.292,1.054,2.342,2.35,2.342h15.667c1.296,0,2.35-1.05,2.35-2.342v-15.617
		c0-1.293-1.054-2.344-2.35-2.344H4.417V153.638z"/>
</g>
</svg>
