<?xml version="1.0" encoding="utf-8"?>
<!-- Generator: Adobe Illustrator 16.0.3, SVG Export Plug-In . SVG Version: 6.00 Build 0)  -->
<!DOCTYPE svg PUBLIC "-//W3C//DTD SVG 1.1//EN" "http://www.w3.org/Graphics/SVG/1.1/DTD/svg11.dtd">
<svg version="1.1" id="Layer_1" xmlns="http://www.w3.org/2000/svg" xmlns:xlink="http://www.w3.org/1999/xlink" x="0px" y="0px"
	 width="50px" height="50px" viewBox="0 0 50 50" enable-background="new 0 0 50 50" xml:space="preserve">
<path fill="#BDA770" d="M28.178,34.402c1.672-1.226,3.58-2.715,5.278-4.449c5.647-5.781,10.813-15.498,8.341-15.79
	c-1.637,1.645-6.723,6.76-12.412,12.479c-1.438,1.447-3.056,3.012-4.74,4.604c-1.259-1.162-2.94-2.767-4.33-4.12
	c0.826-0.914,2.395-2.84,1.679-3.559c-0.953-0.954-9.545-9.545-9.545-9.545s-0.479-0.475-1.096,0.143
	c-0.621,0.621-0.143,1.099-0.143,1.099l8.464,8.361l-1.242,1.239l-8.464-8.362c0,0-0.476-0.475-1.097,0.142
	c-0.62,0.621-0.143,1.1-0.143,1.1l8.464,8.362l-1.238,1.238l-8.463-8.363c0,0-0.479-0.479-1.1,0.143
	c-0.617,0.62-0.143,1.096-0.143,1.096s8.593,8.59,9.546,9.545c0.711,0.711,2.615-0.832,3.538-1.662
	c1.283,1.33,2.638,2.789,4.01,4.304C15.688,39.301,7.501,45.809,7.501,45.809s-0.475,1.229,1.193,2.899
	c1.67,1.67,2.619,1.192,2.619,1.192s6.279-7.995,12.685-14.961l1.241,1.315c0,0,0.412-0.021,1.095-0.491
	c6.223,7.073,11.96,14.156,11.96,14.156s1.12,0.132,2.554-1.301c1.43-1.432,1.521-2.119,1.441-2.535
	C42.223,45.727,35.168,40.477,28.178,34.402z"/>
</svg>
