<?xml version="1.0" encoding="utf-8"?>
<!-- Generator: Adobe Illustrator 16.0.3, SVG Export Plug-In . SVG Version: 6.00 Build 0)  -->
<!DOCTYPE svg PUBLIC "-//W3C//DTD SVG 1.1//EN" "http://www.w3.org/Graphics/SVG/1.1/DTD/svg11.dtd">
<svg version="1.1" id="Layer_1" xmlns="http://www.w3.org/2000/svg" xmlns:xlink="http://www.w3.org/1999/xlink" x="0px" y="0px"
	 width="50px" height="50px" viewBox="0 0 50 50" enable-background="new 0 0 50 50" xml:space="preserve">
<g>
	<path fill="#BDA770" d="M41.497,27.094c-2.517,0-5.054,0.383-6.394,1.124v-3.592c0.03-0.097,0.049-0.195,0.049-0.299
		c0-1.544-3.703-2.353-7.36-2.353c-1.248,0-2.502,0.095-3.611,0.279v0.784c0.973-0.171,2.176-0.286,3.611-0.286
		c4.081,0,6.324,0.914,6.562,1.479c0.015,0.034,0.022,0.066,0.022,0.096c0,0.552-2.263,1.578-6.585,1.578
		c-1.436,0-2.639-0.114-3.611-0.286v7.692c0.973-0.172,2.175-0.285,3.611-0.285c3.602,0,5.77,0.711,6.393,1.268
		c0,0,0.205,0.159,0.205,0.302c0,0.144-0.205,0.316-0.205,0.316c-0.621,0.556-2.787,1.269-6.393,1.269
		c-1.436,0-2.639-0.113-3.611-0.285v8.002c1.065,0.146,2.298,0.229,3.611,0.229c4.039,0,7.312-0.788,7.312-1.762v-4.301
		c1.248,0.541,3.642,0.908,6.393,0.908c4.038,0,7.312-0.791,7.312-1.763v-7.464c0.029-0.096,0.049-0.195,0.049-0.297
		C48.857,27.902,45.154,27.094,41.497,27.094z M41.497,27.87c4.081,0,6.323,0.915,6.562,1.479c0.015,0.033,0.022,0.065,0.022,0.099
		c0,0.551-2.263,1.577-6.584,1.577c-3.606,0-5.771-0.715-6.394-1.271v-0.615C35.729,28.582,37.895,27.87,41.497,27.87z"/>
	<g>
		<path fill="#BDA770" d="M2.897,37.061c0,3.741,6.664,7.168,17.042,7.168c0.438,0,0.873-0.01,1.304-0.021v-5.051
			c-0.356,0.003-0.719,0.006-1.087,0.006C5.255,39.162,2.897,37.061,2.897,37.061z"/>
		<path fill="#BDA770" d="M11.534,35.146l-9.282-5.223c0,0-1.39,2.457,0.557,4.678c2.899,3.31,17.958,2.856,18.435,2.849v-4.96
			c-0.17,0.003-0.341,0.006-0.513,0.007L11.534,35.146z"/>
		<path fill="#BDA770" d="M19.886,16.732c-16.795,0-17.423,10.3-17.423,10.3c0,2.099,7.815,3.799,17.455,3.799
			c0.446,0,0.887-0.004,1.325-0.013V16.757C20.803,16.742,20.352,16.732,19.886,16.732z"/>
	</g>
	<ellipse fill="#BDA770" cx="27.792" cy="24.328" rx="3.243" ry="0.914"/>
	<ellipse fill="#BDA770" cx="41.497" cy="29.448" rx="3.245" ry="0.915"/>
	<ellipse fill="#BDA770" cx="27.792" cy="34.603" rx="3.243" ry="0.915"/>
</g>
<line fill="none" stroke="#BDA770" stroke-miterlimit="10" x1="21.5" y1="10" x2="21.5" y2="50"/>
<line fill="none" stroke="#BDA770" stroke-miterlimit="10" x1="24.5" y1="10" x2="24.5" y2="50"/>
</svg>
