<?xml version="1.0" encoding="utf-8"?>
<!-- Generator: Adobe Illustrator 16.0.4, SVG Export Plug-In . SVG Version: 6.00 Build 0)  -->
<!DOCTYPE svg PUBLIC "-//W3C//DTD SVG 1.1//EN" "http://www.w3.org/Graphics/SVG/1.1/DTD/svg11.dtd">
<svg version="1.1" id="Layer_1" xmlns="http://www.w3.org/2000/svg" xmlns:xlink="http://www.w3.org/1999/xlink" x="0px" y="0px"
   width="50px" height="100px" viewBox="0 0 50 100" enable-background="new 0 0 50 100" xml:space="preserve">
<g>
  <path fill="#BDA770" d="M34.218,73.136l-0.271,0.001l2.355,4.08c0.421,0.105,0.773,0.367,0.985,0.717l-0.004-0.052l-0.007-0.061
    l-3.025-5.24l-0.035,0.044L34.218,73.136z"/>
  <path fill="#BDA770" d="M37.287,77.934c-0.212-0.35-0.564-0.611-0.985-0.717c-0.13-0.032-0.266-0.051-0.406-0.051h-10.46v0.092
    h10.706c0.442,0,1.109,0.359,1.109,0.802v4.068c0,0.442-0.667,0.802-1.726,0.802H25.435v0.449h8.194v1.09h2.808v-1.182
    c0.619-0.211,1.063-0.773,1.063-1.433V78.69C37.5,78.415,37.422,78.157,37.287,77.934z M35.902,83.961h-1.738v-0.568h1.738V83.961z
    "/>
  <path fill="#BDA770" d="M26.217,72.543c-0.054-0.325-0.182-0.84-0.182-1.277c0-0.47,0.149-0.906,0.194-1.225
    c-0.215-0.289-0.25-0.602-0.082-0.789c0.161-0.179,0.465-0.165,0.726,0.04c0.507-0.104,0.611-0.545,2.515-0.477
    c1.973,0.071,2.121,0.375,2.63,0.479c0.261-0.205,0.564-0.22,0.725-0.04c0.169,0.188,0.133,0.501-0.082,0.79
    c0.046,0.318,0.194,0.755,0.193,1.223c0,0.36-0.087,0.88-0.147,1.247l1.51-0.007v0.117l0.035-0.044
    c0.237-0.306,0.377-0.71,0.377-1.154v-3.147c0-0.947-0.72-1.718-1.604-1.718h-7.588v5.985L26.217,72.543z"/>
  <path fill="#BDA770" d="M32.819,73.145h0.297c0.032,0,0.063-0.003,0.096-0.005l-0.392,0.002L32.819,73.145z"/>
  <path fill="#BDA770" d="M25.435,82.93h10.089c1.059,0,1.726-0.359,1.726-0.802V78.06c0-0.442-0.667-0.802-1.109-0.802H25.435V82.93
    z"/>
  <polygon fill="#BDA770" points="33.212,73.14 33.946,73.137 34.218,73.136 34.216,72.625 34.216,72.508 32.706,72.515 
    26.217,72.543 25.435,72.547 25.435,73.174 32.82,73.142   "/>
  <polyline fill="#BDA770" points="25.39,63.384 25.39,86.616 25.649,86.616 25.649,63.384   "/>
  <polyline fill="#BDA770" points="24.435,63.384 24.435,86.616 24.694,86.616 24.694,63.384   "/>
  <polygon fill="#BDA770" points="23.883,72.606 23.931,72.605 23.884,72.605   "/>
  <path fill="#BDA770" d="M21.03,73.068h-5.253l-0.563,0.958l-0.746,1.27C17.613,75.224,20.805,74.519,21.03,73.068z"/>
  <path fill="#BDA770" d="M24.713,72.723l0.002-0.129l-0.017,0.001v-6.105h-7.722c-0.958,0-1.738,0.831-1.738,1.853v3.146
    c0,0.462,0.144,0.9,0.417,1.253l0.021,0.025l0.072-0.124l0.035,0.045l0-0.117l1.51,0.006h0.043
    c0.036,0.046,0.071,0.087,0.105,0.125l-0.807,0.012h7.812v0.355h-3.2c-0.195,1.426-2.906,2.387-6.911,2.448l-1.184,2.013
    c-0.134,0.094-0.253,0.206-0.351,0.333l-0.031,0.054c-0.019,0.027-0.042,0.051-0.06,0.079c-0.135,0.224-0.213,0.481-0.213,0.757
    v3.164c0,0.154,0.026,0.303,0.071,0.442v0.062c0,0.439,0.375,0.78,0.992,0.949v1.161h2.808v-1.043h8.344v-6.203h-0.001
    L24.713,72.723z M23.883,72.606L23.883,72.606l0.047-0.001L23.883,72.606z M24.431,72.475l-0.455-0.002
    c0.105-0.176,0.177-0.397,0.205-0.676c0,0,0-0.403,0-0.76c-0.001-0.611-0.117-0.864-0.117-0.864c0-0.072-0.022-0.145-0.054-0.218
    c0.044-0.1,0.071-0.197,0.079-0.292c0.016-0.047,0.026-0.097,0.026-0.15c0-0.253-0.19-0.458-0.424-0.458
    c-0.026,0-0.051,0.006-0.076,0.011c-0.158-0.015-0.333,0.027-0.491,0.129c-0.187-0.091-0.396-0.175-0.63-0.248
    c-0.138-0.053-0.308-0.103-0.531-0.14c-0.419-0.094-0.884-0.159-1.389-0.183c-1.097-0.048-2.007,0.195-2.627,0.549
    c-0.14-0.079-0.289-0.115-0.426-0.106c-0.027-0.006-0.054-0.012-0.083-0.012c-0.235,0-0.425,0.205-0.425,0.458l0.007,0.067
    c-0.006,0.132,0.025,0.274,0.097,0.418c-0.037,0.096-0.182,0.499-0.187,1.006c-0.006,0.538,0.107,0.982,0.165,1.177
    c0.014,0.089,0.028,0.178,0.042,0.262l-1.369-0.007c-0.169-0.27-0.262-0.6-0.262-0.947v-3.146c0-0.874,0.66-1.585,1.471-1.585
    h7.454V72.475z M24.184,82.957h-9.645c-0.98,0-1.437-0.319-1.437-0.536V78.66c0-0.362,0.297-0.844,0.521-0.844h10.56V82.957z"/>
  <path fill="#BDA770" d="M13.155,77.529l1.313-2.233l0.746-1.27l0.569-0.967l0.198-0.337l0.656-0.01l0.807-0.012
    c-0.035-0.038-0.07-0.079-0.105-0.125h-0.043l-1.51-0.006l0,0.117l-0.035-0.045l-0.072,0.124l-2.955,5.116l-0.007,0.061
    l-0.003,0.052c0.028-0.046,0.058-0.09,0.091-0.133C12.902,77.735,13.021,77.623,13.155,77.529z"/>
</g>
<g>
  <path fill="#FFFFFF" d="M34.218,23.136l-0.271,0.001l2.355,4.08c0.421,0.105,0.773,0.367,0.985,0.717l-0.004-0.052l-0.007-0.061
    l-3.025-5.24l-0.035,0.044L34.218,23.136z"/>
  <path fill="#FFFFFF" d="M37.287,27.934c-0.212-0.35-0.564-0.611-0.985-0.717c-0.13-0.032-0.266-0.051-0.406-0.051h-10.46v0.092
    h10.706c0.442,0,1.109,0.359,1.109,0.802v4.068c0,0.442-0.667,0.802-1.726,0.802H25.435v0.449h8.194v1.09h2.808v-1.182
    c0.619-0.211,1.063-0.773,1.063-1.433V28.69C37.5,28.415,37.422,28.157,37.287,27.934z M35.902,33.961h-1.738v-0.568h1.738V33.961z
    "/>
  <path fill="#FFFFFF" d="M26.217,22.543c-0.054-0.325-0.182-0.84-0.182-1.277c0-0.47,0.149-0.906,0.194-1.225
    c-0.215-0.289-0.25-0.602-0.082-0.789c0.161-0.179,0.465-0.165,0.726,0.04c0.507-0.104,0.611-0.545,2.515-0.477
    c1.973,0.071,2.121,0.375,2.63,0.479c0.261-0.205,0.564-0.22,0.725-0.04c0.169,0.188,0.133,0.501-0.082,0.79
    c0.046,0.318,0.194,0.755,0.193,1.223c0,0.36-0.087,0.88-0.147,1.247l1.51-0.007v0.117l0.035-0.044
    c0.237-0.306,0.377-0.71,0.377-1.154v-3.147c0-0.947-0.72-1.718-1.604-1.718h-7.588v5.985L26.217,22.543z"/>
  <path fill="#FFFFFF" d="M32.819,23.145h0.297c0.032,0,0.063-0.003,0.096-0.005l-0.392,0.002L32.819,23.145z"/>
  <path fill="#FFFFFF" d="M25.435,32.93h10.089c1.059,0,1.726-0.359,1.726-0.802V28.06c0-0.442-0.667-0.802-1.109-0.802H25.435V32.93
    z"/>
  <polygon fill="#FFFFFF" points="33.212,23.14 33.946,23.137 34.218,23.136 34.216,22.625 34.216,22.508 32.706,22.515 
    26.217,22.543 25.435,22.547 25.435,23.174 32.82,23.142   "/>
  <polyline fill="#FFFFFF" points="25.39,13.384 25.39,36.616 25.649,36.616 25.649,13.384   "/>
  <polyline fill="#FFFFFF" points="24.435,13.384 24.435,36.616 24.694,36.616 24.694,13.384   "/>
  <polygon fill="#FFFFFF" points="23.883,22.606 23.931,22.605 23.884,22.605   "/>
  <path fill="#FFFFFF" d="M21.03,23.068h-5.253l-0.563,0.958l-0.746,1.27C17.613,25.224,20.805,24.519,21.03,23.068z"/>
  <path fill="#FFFFFF" d="M24.713,22.723l0.002-0.129l-0.017,0.001v-6.105h-7.722c-0.958,0-1.738,0.831-1.738,1.853v3.146
    c0,0.462,0.144,0.9,0.417,1.253l0.021,0.025l0.072-0.124l0.035,0.045l0-0.117l1.51,0.006h0.043
    c0.036,0.046,0.071,0.087,0.105,0.125l-0.807,0.012h7.812v0.355h-3.2c-0.195,1.426-2.906,2.387-6.911,2.448l-1.184,2.013
    c-0.134,0.094-0.253,0.206-0.351,0.333l-0.031,0.054c-0.019,0.027-0.042,0.051-0.06,0.079c-0.135,0.224-0.213,0.481-0.213,0.757
    v3.164c0,0.154,0.026,0.303,0.071,0.442v0.062c0,0.439,0.375,0.78,0.992,0.949v1.161h2.808v-1.043h8.344v-6.203h-0.001
    L24.713,22.723z M23.883,22.606L23.883,22.606l0.047-0.001L23.883,22.606z M24.431,22.475l-0.455-0.002
    c0.105-0.176,0.177-0.397,0.205-0.676c0,0,0-0.403,0-0.76c-0.001-0.611-0.117-0.864-0.117-0.864c0-0.072-0.022-0.145-0.054-0.218
    c0.044-0.1,0.071-0.197,0.079-0.292c0.016-0.047,0.026-0.097,0.026-0.15c0-0.253-0.19-0.458-0.424-0.458
    c-0.026,0-0.051,0.006-0.076,0.011c-0.158-0.015-0.333,0.027-0.491,0.129c-0.187-0.091-0.396-0.175-0.63-0.248
    c-0.138-0.053-0.308-0.103-0.531-0.14c-0.419-0.094-0.884-0.159-1.389-0.183c-1.097-0.048-2.007,0.195-2.627,0.549
    c-0.14-0.079-0.289-0.115-0.426-0.106c-0.027-0.006-0.054-0.012-0.083-0.012c-0.235,0-0.425,0.205-0.425,0.458l0.007,0.067
    c-0.006,0.132,0.025,0.274,0.097,0.418c-0.037,0.096-0.182,0.499-0.187,1.006c-0.006,0.538,0.107,0.982,0.165,1.177
    c0.014,0.089,0.028,0.178,0.042,0.262l-1.369-0.007c-0.169-0.27-0.262-0.6-0.262-0.947v-3.146c0-0.874,0.66-1.585,1.471-1.585
    h7.454V22.475z M24.184,32.957h-9.645c-0.98,0-1.437-0.319-1.437-0.536V28.66c0-0.362,0.297-0.844,0.521-0.844h10.56V32.957z"/>
  <path fill="#FFFFFF" d="M13.155,27.529l1.313-2.233l0.746-1.27l0.569-0.967l0.198-0.337l0.656-0.01l0.807-0.012
    c-0.035-0.038-0.07-0.079-0.105-0.125h-0.043l-1.51-0.006l0,0.117l-0.035-0.045l-0.072,0.124l-2.955,5.116l-0.007,0.061
    l-0.003,0.052c0.028-0.046,0.058-0.09,0.091-0.133C12.902,27.735,13.021,27.623,13.155,27.529z"/>
</g>
</svg>
