<?xml version="1.0" encoding="utf-8"?>
<!-- Generator: Adobe Illustrator 16.0.3, SVG Export Plug-In . SVG Version: 6.00 Build 0)  -->
<!DOCTYPE svg PUBLIC "-//W3C//DTD SVG 1.1//EN" "http://www.w3.org/Graphics/SVG/1.1/DTD/svg11.dtd">
<svg version="1.1" id="Layer_1" xmlns="http://www.w3.org/2000/svg" xmlns:xlink="http://www.w3.org/1999/xlink" x="0px" y="0px"
	 width="50px" height="50px" viewBox="0 0 50 50" enable-background="new 0 0 50 50" xml:space="preserve">
<g>
	<defs>
		<rect id="SVGID_5_" x="1.28" y="11.111" width="22.022" height="39.866"/>
	</defs>
	<clipPath id="SVGID_2_">
		<use xlink:href="#SVGID_5_"  overflow="visible"/>
	</clipPath>
	<g clip-path="url(#SVGID_2_)">
		<polygon fill="#BDA770" points="29.906,30.608 9.908,30.608 7.408,20.254 32.404,20.254 		"/>
		<rect x="12.051" y="42.749" fill="#BDA770" width="16.427" height="2.857"/>
		
			<rect x="12.187" y="16.691" transform="matrix(0.9287 0.3708 -0.3708 0.9287 8.0905 -3.528)" fill="#BDA770" width="2.067" height="5.171"/>
		<circle fill="#BDA770" cx="14.373" cy="15.985" r="2.068"/>
		<rect x="14.628" y="31.68" fill="#BDA770" width="10.096" height="11.426"/>
	</g>
</g>
<g>
	<line fill="none" stroke="#BDA770" stroke-miterlimit="10" x1="23.238" y1="50" x2="23.238" y2="13.431"/>
	<line fill="none" stroke="#BDA770" stroke-miterlimit="10" x1="26.762" y1="50" x2="26.762" y2="13.431"/>
</g>
<g>
	<defs>
		<rect id="SVGID_7_" x="26.762" y="8.507" width="21.69" height="45.181"/>
	</defs>
	<clipPath id="SVGID_4_">
		<use xlink:href="#SVGID_7_"  overflow="visible"/>
	</clipPath>
	<g clip-path="url(#SVGID_4_)">
		<g>
			<path fill="#BDA770" d="M23.74,32.525c0.062,0.586,0.595,1.064,1.185,1.064h7.786v-0.01h1.526c0.589,0,1.122-0.479,1.186-1.064
				l0.987-9.13c0.064-0.586,0.154-1.299,0.201-1.586c0,0,0,0,0-0.271c0-2.805-3.15-5.081-7.036-5.081
				c-0.701,0-1.374,0.083-2.011,0.223c-0.039,0.01-0.08,0.018-0.117,0.027c-0.182,0.042-0.359,0.088-0.533,0.139
				c-0.049,0.014-0.097,0.03-0.145,0.046c-0.105,0.033-0.215,0.061-0.317,0.098v0.011c-2.31,0.834-3.901,2.554-3.901,4.544
				c0,0.27,0,0.27,0,0.27c0.049,0.289,0.139,1.003,0.202,1.589L23.74,32.525z M38.229,28.061h-0.175
				c-0.59,0-1.071,0.484-1.071,1.072c0,1.279,0.026,2.561,0,3.838c-0.022,1.203-1.372,1.867-2.428,1.867h-8.104v0.008h-1.846
				c-1.056,0-2.405-0.664-2.429-1.867c-0.023-1.277,0.002-2.559,0.002-3.838c0-0.59-0.483-1.072-1.073-1.072h-0.175
				c-0.59,0-1.071,0.482-1.071,1.072v4.027c0,0.777,0.297,1.537,0.671,2.209c1.092,1.955,3.649,2.727,5.756,2.727h2.04v1.728
				c-2.094,0.865-6.15,2.565-6.572,2.909c-0.569,0.463-0.357,1.08-0.357,1.08h2.162l4.768-1.47v1.47h0.077
				c-0.381,0.332-0.627,0.814-0.627,1.359c0,0.996,0.809,1.805,1.806,1.805c0.996,0,1.806-0.809,1.806-1.805
				c0-0.545-0.246-1.027-0.627-1.359h0.075v-1.47l4.768,1.47h0.114c-0.381,0.332-0.627,0.814-0.627,1.359
				c0,0.996,0.81,1.805,1.805,1.805c0.998,0,1.809-0.809,1.809-1.805c0-0.667-0.365-1.243-0.903-1.557
				c0.017-0.22-0.022-0.582-0.393-0.883c-0.421-0.344-4.479-2.044-6.572-2.91v-1.727h1.874v-0.01c0.104,0,0.164,0,0.164,0
				c2.107,0,4.662-0.77,5.755-2.727c0.374-0.67,0.671-1.43,0.671-2.207c0-0.004,0.002-0.008,0.002-0.01v-4.018
				C39.303,28.545,38.818,28.061,38.229,28.061z"/>
		</g>
	</g>
</g>
</svg>
