<?xml version="1.0" encoding="utf-8"?>
<!-- Generator: Adobe Illustrator 16.0.3, SVG Export Plug-In . SVG Version: 6.00 Build 0)  -->
<!DOCTYPE svg PUBLIC "-//W3C//DTD SVG 1.1//EN" "http://www.w3.org/Graphics/SVG/1.1/DTD/svg11.dtd">
<svg version="1.1" id="Layer_1" xmlns="http://www.w3.org/2000/svg" xmlns:xlink="http://www.w3.org/1999/xlink" x="0px" y="0px"
	 width="50px" height="50px" viewBox="0 0 50 50" enable-background="new 0 0 50 50" xml:space="preserve">
<g>
	<defs>
		<rect id="SVGID_1_" x="7.041" y="17.781" width="15.533" height="29.799"/>
	</defs>
	<clipPath id="SVGID_2_">
		<use xlink:href="#SVGID_1_"  overflow="visible"/>
	</clipPath>
	<path clip-path="url(#SVGID_2_)" fill="#BDA770" d="M32.027,28.715h-0.01c-0.328-2.63-1.322-5.466-3.012-7.599
		c-0.227-0.285-0.639-0.333-0.926-0.105c-0.287,0.227-0.332,0.642-0.105,0.929c1.461,1.829,2.396,4.406,2.715,6.777
		c0.006,0.404-0.031,0.812-0.129,1.225c-0.311,1.318-3.547,7.445-6.381,9.203h-3.211c-2.834-1.758-6.07-7.885-6.381-9.203
		c-0.098-0.412-0.135-0.82-0.129-1.225c0.318-2.371,1.254-4.948,2.715-6.777c0.227-0.287,0.18-0.702-0.105-0.929
		c-0.287-0.228-0.699-0.18-0.928,0.105c-1.689,2.133-2.684,4.969-3.01,7.599h-0.01c-2.877,2.559-4.264,5.459-4.264,8.359
		c0,2.924,1.988,5.262,1.988,5.262c1.129-0.375,5.973-1.602,9.879-2.111h3.699c3.904,0.51,8.75,1.736,9.877,2.111
		c0,0,1.988-2.338,1.988-5.262C36.289,34.174,34.904,31.273,32.027,28.715z"/>
</g>
<g>
	<defs>
		<rect id="SVGID_3_" x="26.076" y="17.781" width="16.883" height="30.141"/>
	</defs>
	<clipPath id="SVGID_4_">
		<use xlink:href="#SVGID_3_"  overflow="visible"/>
	</clipPath>
	<g clip-path="url(#SVGID_4_)">
		<path fill="#BDA770" d="M24.207,46.547c-0.389,0-1.041-0.133-1.041-1.027v-0.414h0.994c0.375-0.975,1.006-2.615,1.752-4.576
			c-2.73-4.123-4.385-8.805-4.916-13.921c-0.314-3.028,0.072-4.097,1.322-5.588c1.189-1.421,3.482-1.413,5.514-1.404l0.615,0.001
			l0.449-0.001c2.021-0.009,4.305-0.017,5.494,1.404c1.25,1.491,1.637,2.56,1.322,5.588c-0.688,6.61-3.199,12.411-7.463,17.239
			C27.254,44.975,25.234,46.547,24.207,46.547z M27.949,35.119l0.775,0.291c-1.564,4.199-3.143,8.309-3.818,10.064
			c0.781-0.408,1.926-1.271,2.723-2.176c4.148-4.695,6.59-10.34,7.26-16.775c0.289-2.775-0.014-3.635-1.131-4.971
			c-0.943-1.123-2.934-1.116-4.859-1.108l-0.617,0.001l-0.453-0.001c-1.936-0.009-3.934-0.015-4.875,1.108
			c-1.119,1.336-1.422,2.195-1.133,4.971c0.496,4.773,1.994,9.158,4.457,13.045C26.807,38.172,27.379,36.652,27.949,35.119z"/>
	</g>
	<g clip-path="url(#SVGID_4_)">
		<g>
			<path fill="#BDA770" d="M38.221,23.119c-1.068-0.241-3.217-0.439-3.217-0.439l0,0c0.416,0.909,0.496,1.975,0.297,3.887
				c-0.355,3.426-1.541,10.416-7.361,17.008c-0.611,0.691-1.504,1.438-2.299,1.945h13.395c0.424,0,0.768-0.344,0.768-0.768
				c0,0,0-16.438,0-18.654C39.803,23.88,39.287,23.359,38.221,23.119z"/>
		</g>
		<g>
			<path fill="#BDA770" d="M26.375,40.477c-3.748-5.574-4.668-11.025-4.967-13.91c-0.199-1.912-0.117-2.978,0.297-3.887l0,0
				c0,0-1.045,0.198-2.113,0.439c-1.066,0.24-1.582,0.761-1.582,2.979c0,2.217,0,18.654,0,18.654c0,0.424,0.344,0.768,0.77,0.768
				h0.938h3.863h0.865C24.797,44.607,25.51,42.754,26.375,40.477z"/>
		</g>
		<g>
			<path fill="#BDA770" d="M26.414,40.373c0.594-1.562,1.258-3.32,1.924-5.107L26.414,40.373z"/>
		</g>
	</g>
	<g clip-path="url(#SVGID_4_)">
		<path fill="#BDA770" d="M24.342,24.093c-0.119,0-0.229-0.079-0.264-0.2c-0.246-0.851-0.275-1.126-0.275-1.259
			c0-1.514,0.939-1.907,0.979-1.923c0.141-0.057,0.303,0.012,0.359,0.153c0.055,0.141-0.012,0.3-0.15,0.357
			c-0.033,0.015-0.635,0.298-0.635,1.412c0,0.087,0.033,0.346,0.252,1.105c0.043,0.146-0.041,0.3-0.188,0.342
			C24.395,24.089,24.367,24.093,24.342,24.093z"/>
	</g>
	<g clip-path="url(#SVGID_4_)">
		<path fill="#BDA770" d="M32.201,24.748c-0.037,0-0.076-0.005-0.113-0.016c-0.221-0.063-0.348-0.292-0.285-0.512
			c0.236-0.82,0.248-1.034,0.248-1.068c0-1.021-0.531-1.276-0.553-1.286c-0.205-0.094-0.301-0.336-0.213-0.542
			c0.09-0.207,0.32-0.307,0.529-0.223c0.043,0.017,1.064,0.444,1.064,2.051c0,0.139-0.029,0.424-0.279,1.296
			C32.547,24.63,32.383,24.748,32.201,24.748z"/>
	</g>
	<g clip-path="url(#SVGID_4_)">
		<path fill="#BDA770" d="M32.377,23.776c-0.627,2.19-4.021,11.442-4.021,11.442s-3.377-9.196-4.014-11.402v-0.001
			c0,0,0.977-0.378,4.014-0.378h-0.002c3.037,0,4.012,0.378,4.012,0.378"/>
		<path fill="#BDA770" d="M28.355,36.42l-0.389-1.059c-0.139-0.375-3.389-9.235-4.021-11.431l-0.016-0.056v-0.059
			c0-0.362,0.26-0.453,1.219-0.599c0.848-0.129,1.926-0.194,3.205-0.194l0,0l0,0l0,0c0,0,0,0,0.002,0c3.076,0,4.117,0.39,4.16,0.406
			l-0.135,0.348l0.395,0.113c-0.625,2.179-3.893,11.094-4.031,11.471L28.355,36.42z M24.863,24.108
			c0.666,2.124,2.646,7.587,3.492,9.905c0.842-2.312,2.814-7.758,3.488-9.905c-0.508-0.104-1.58-0.257-3.49-0.257
			C26.447,23.852,25.373,24.005,24.863,24.108z"/>
	</g>
</g>
<line fill="none" stroke="#BDA770" stroke-miterlimit="10" x1="22.574" y1="50" x2="22.574" y2="14.443"/>
<line fill="none" stroke="#BDA770" stroke-miterlimit="10" x1="26" y1="50" x2="26" y2="14.443"/>
</svg>
