<?xml version="1.0" encoding="utf-8"?>
<!-- Generator: Adobe Illustrator 16.0.3, SVG Export Plug-In . SVG Version: 6.00 Build 0)  -->
<!DOCTYPE svg PUBLIC "-//W3C//DTD SVG 1.1//EN" "http://www.w3.org/Graphics/SVG/1.1/DTD/svg11.dtd">
<svg version="1.1" id="Layer_1" xmlns="http://www.w3.org/2000/svg" xmlns:xlink="http://www.w3.org/1999/xlink" x="0px" y="0px"
	 width="50px" height="50px" viewBox="0 0 50 50" enable-background="new 0 0 50 50" xml:space="preserve">
<g>
	<g>
		<path fill="#BDA770" d="M29.694,34.998c0.109-0.283,0.158-0.428,0.185-0.768c-0.101,0.105-0.223,0.312-0.325,0.416
			c-0.83,0.846-1.834,1.069-2.792,0.826v1.796c0.006,0,0.014-0.001,0.021-0.002C28.313,37.141,29.155,36.389,29.694,34.998z"/>
		<path fill="#BDA770" d="M35.957,18.926c-0.011-0.626-0.521-1.125-1.143-1.117l-6.403,0.08l7.516,1.683L35.957,18.926z"/>
		<path fill="#BDA770" d="M41.274,21.91l-6.67-1.293l-7.843-1.521v11.25c0.179-0.021,0.364-0.025,0.558-0.005
			c0.469,0.047,0.915,0.289,1.338,0.432c-0.285-1.741,0.094-2.691,1.338-3.237c1.059-0.466,2.376-0.132,3.106,0.786
			c0.79,0.994,0.718,2.056-0.193,3.296c0.45,0.026,0.954-0.037,1.397,0.097c1.714,0.521,2.253,2.644,1.069,4.088
			c-1.068,1.307-2.968,1.31-4.229-0.261c-0.313-0.389-0.33-0.739-0.562-1.141c-0.465,1.557-0.023,3.218,1.531,3.993
			c0.298,0.149,0.606,0.278,0.897,0.439c0.143,0.079,0.205,0.175,0.226,0.223c0.018,0.047,0.033,0.144,0.017,0.2
			c-2.119-0.417-4.277-0.843-6.492-1.279v7.391l1.635,0.317l7.971,1.545c0.383,0.075,0.76-0.183,0.834-0.562l4.636-23.925
			C41.912,22.357,41.66,21.985,41.274,21.91z"/>
	</g>
	<path fill="#BDA770" d="M23.157,45.469v-0.821c-0.003,0-0.004,0-0.007,0l0.006-1.128h0.001v-0.03h-0.001l0.001-0.131v-0.298v-2.956
		c-4.284-0.014-7.767-3.503-7.767-7.792c0-4.287,3.482-7.777,7.767-7.792v-5.364c-7.242,0.014-13.131,5.91-13.131,13.156
		C10.026,39.56,15.915,45.455,23.157,45.469z M18.509,41.979l0.698-1.434l0,0l0.377-0.776c0.572,0.277,1.184,0.488,1.819,0.629
		l-0.307,1.357l-0.243,1.047c0.004,0,0.007,0.001,0.011,0.001l-0.104,0.45l-0.256,1.103c-0.942-0.21-1.846-0.527-2.695-0.941
		L18.509,41.979L18.509,41.979z M18.11,38.852l-0.691,0.871l-0.169,0.216l-0.656,0.831l-0.009,0.013
		c0.001,0.001,0.003,0.002,0.003,0.004L16.5,40.897l-0.197,0.25l-0.7,0.888c-0.775-0.604-1.476-1.301-2.087-2.071l0.893-0.704
		c0.001,0.001,0.001,0.002,0.002,0.003l0.023-0.022l0.337-0.265c0,0.001,0.001,0.002,0.002,0.003l0.024-0.022l0.817-0.646
		c0,0.001,0.001,0.002,0.002,0.003l0.021-0.021l1.062-0.838C17.112,37.976,17.586,38.444,18.11,38.852z M15.729,35.915l-1.214,0.572
		l0.002-0.005l-0.022,0.011c0,0.002,0.002,0.005,0.003,0.009l-0.948,0.446l0.002-0.004l-0.026,0.012
		c0.001,0.001,0.002,0.003,0.003,0.005l-0.394,0.186l0.003-0.006l-0.027,0.012c0.002,0.004,0.004,0.008,0.005,0.011l-1.048,0.494
		c-0.385-0.799-0.687-1.645-0.893-2.525l1.146-0.275c0.001,0.004,0.001,0.006,0.002,0.008l0.447-0.105c0,0.001,0,0.002,0,0.002
		l1.043-0.249c0.002,0.003,0.002,0.005,0.002,0.007l1.311-0.314C15.265,34.802,15.467,35.375,15.729,35.915z M22.962,19.981
		l0.03,1.18c-0.002,0-0.005,0-0.009,0l0.012,0.459c-0.001,0-0.001,0-0.001,0l0.026,1.074c-0.002,0-0.004,0-0.007,0l0.034,1.344
		c-0.654,0.011-1.291,0.095-1.898,0.25l-0.326-1.295c-0.001,0-0.001,0-0.001,0l-0.262-1.042c0,0-0.001,0-0.002,0l-0.112-0.445
		l-0.003,0l-0.289-1.151C21.056,20.127,21.995,19.999,22.962,19.981z M17.753,21.24l0.517,1.048c-0.002,0-0.002,0-0.002,0
		l0.678,1.378c-0.001,0.001-0.001,0.001-0.002,0.001l0.597,1.21c-0.565,0.279-1.096,0.619-1.579,1.014l-0.847-1.053
		c-0.001,0.001-0.002,0.002-0.003,0.003l-0.673-0.838c-0.001,0-0.001,0.001-0.001,0.001l-0.291-0.359
		c-0.001,0.001-0.002,0.003-0.004,0.004l-0.729-0.91C16.131,22.158,16.916,21.653,17.753,21.24z M13.539,24.632l0.916,0.727
		c-0.001,0.001-0.002,0.001-0.002,0.003l0.359,0.286l0,0l0.843,0.669c0,0-0.001,0.001-0.003,0.002l1.057,0.839
		c-0.398,0.5-0.741,1.047-1.017,1.633l-0.744-0.353l-0.023-0.013l-0.445-0.21c0,0-0.001,0-0.001,0.001l-0.97-0.461l-0.001,0.001
		l-0.417-0.197v0.001l-1.063-0.506C12.437,26.188,12.947,25.376,13.539,24.632z M12.291,29.896
		c-0.001,0.001-0.001,0.003-0.001,0.006L12.738,30c0,0,0,0.001,0,0.002l1.05,0.229c0,0.001-0.001,0.004-0.001,0.007l1.314,0.286
		c-0.127,0.576-0.195,1.174-0.195,1.789c0,0.06,0.002,0.119,0.004,0.178l-1.35,0.022c0,0,0,0.001,0,0.002l-1.072,0.016v0.001
		l-0.46,0.008c0,0,0,0.001,0,0.003l-1.177,0.019c-0.002-0.083-0.003-0.164-0.003-0.248c0-0.915,0.102-1.809,0.291-2.668
		L12.291,29.896z"/>
	<g>
		<line fill="none" stroke="#BDA770" stroke-miterlimit="10" x1="23.238" y1="50" x2="23.238" y2="13.431"/>
		<line fill="none" stroke="#BDA770" stroke-miterlimit="10" x1="26.762" y1="50" x2="26.762" y2="13.431"/>
	</g>
</g>
</svg>
