<?xml version="1.0" encoding="utf-8"?>
<!-- Generator: Adobe Illustrator 16.0.3, SVG Export Plug-In . SVG Version: 6.00 Build 0)  -->
<!DOCTYPE svg PUBLIC "-//W3C//DTD SVG 1.1//EN" "http://www.w3.org/Graphics/SVG/1.1/DTD/svg11.dtd">
<svg version="1.1" id="Layer_1" xmlns="http://www.w3.org/2000/svg" xmlns:xlink="http://www.w3.org/1999/xlink" x="0px" y="0px"
	 width="50px" height="100px" viewBox="0 0 50 100" enable-background="new 0 0 50 100" xml:space="preserve">
<g>
	<g>
		<path fill="#FFFFFF" d="M36.521,80.916L17.848,85.92l-6.611-7.873l2.065-9.162l18.637-4.994l6.571,6.85L36.521,80.916z
			 M18.261,84.605l17.258-4.625l1.734-8.873l-5.677-5.916L14.28,69.824l-1.782,7.916L18.261,84.605z"/>
	</g>
	<polygon fill="#FFFFFF" points="25.727,83.207 18.055,85.262 16.536,83.48 24.834,66.396 31.758,64.541 33.62,66.482 	"/>
	<polygon fill="#FFFFFF" points="45.854,64.375 48.412,73.918 37.414,71.049 	"/>
	<polygon fill="#FFFFFF" points="1.688,76.209 4.244,85.752 12.336,77.77 	"/>
</g>
<g>
	<g>
		<path fill="#999999" d="M36.521,31.105l-18.674,5.004l-6.611-7.872l2.065-9.163l18.637-4.993l6.571,6.85L36.521,31.105z
			 M18.261,34.795l17.258-4.625l1.734-8.873l-5.677-5.917L14.28,20.014l-1.782,7.916L18.261,34.795z"/>
	</g>
	<polygon fill="#999999" points="25.727,33.397 18.055,35.452 16.536,33.67 24.834,16.586 31.758,14.731 33.62,16.672 	"/>
	<polygon fill="#999999" points="45.854,14.565 48.412,24.108 37.414,21.239 	"/>
	<polygon fill="#999999" points="1.688,26.399 4.244,35.942 12.336,27.958 	"/>
</g>
</svg>
