<?xml version="1.0" encoding="utf-8"?>
<!-- Generator: Adobe Illustrator 16.0.3, SVG Export Plug-In . SVG Version: 6.00 Build 0)  -->
<!DOCTYPE svg PUBLIC "-//W3C//DTD SVG 1.1//EN" "http://www.w3.org/Graphics/SVG/1.1/DTD/svg11.dtd">
<svg version="1.1" id="Layer_1" xmlns="http://www.w3.org/2000/svg" xmlns:xlink="http://www.w3.org/1999/xlink" x="0px" y="0px"
	 width="50px" height="50px" viewBox="0 0 50 50" enable-background="new 0 0 50 50" xml:space="preserve">
<path fill="#BDA770" d="M33.548,33.984c1.795-2.394,2.825-5.269,2.825-8.307c0-6.386-5.178-11.562-11.562-11.562
	c-6.385,0-11.564,5.177-11.564,11.562c0,3.065,1.271,5.949,2.891,8.373l8.772,12.162L33.548,33.984z M20.878,25.678
	c0-2.172,1.76-3.933,3.933-3.933c2.171,0,3.932,1.761,3.932,3.933s-1.761,3.934-3.932,3.934
	C22.638,29.611,20.878,27.85,20.878,25.678z"/>
<circle fill="none" cx="24.81" cy="25.678" r="3.932"/>
<path fill="#BDA770" d="M31.613,41.984l-0.822,1.164c10.225,0.259,12.161,1.814,12.161,2.729c0,0.993-6.498,2.925-18.408,2.925
	c-11.911,0-18.408-1.932-18.408-2.925c0-0.937,2.339-2.524,12.992-2.723l-0.845-1.173c-6.995,0.211-13.345,1.048-13.345,3.896
	c0,3.261,12.824,4.121,19.605,4.121c6.781,0,19.604-0.86,19.604-4.121C44.148,43.119,38.55,42.238,31.613,41.984z"/>
</svg>
