<?xml version="1.0" encoding="utf-8"?>
<!-- Generator: Adobe Illustrator 16.0.3, SVG Export Plug-In . SVG Version: 6.00 Build 0)  -->
<!DOCTYPE svg PUBLIC "-//W3C//DTD SVG 1.1//EN" "http://www.w3.org/Graphics/SVG/1.1/DTD/svg11.dtd">
<svg version="1.1" id="Layer_1" xmlns="http://www.w3.org/2000/svg" xmlns:xlink="http://www.w3.org/1999/xlink" x="0px" y="0px"
	 width="50px" height="50px" viewBox="0 0 50 50" enable-background="new 0 0 50 50" xml:space="preserve">
<path fill="#BDA770" d="M41.499,24.045L26.51,32.979v17.021l15.198-8.934L41.499,24.045z M36.028,38.184
	c-0.716,1.175-1.943,1.73-2.742,1.244s-0.866-1.834-0.15-3.008c0.716-1.173,1.943-1.729,2.741-1.242
	C36.677,35.664,36.743,37.011,36.028,38.184z"/>
<path fill="#BDA770" d="M10.15,24.045v17.441l14.61,8.513V32.979L10.15,24.045z M12.144,28.771c0.724-0.592,2.017-0.209,2.885,0.855
	c0.87,1.064,0.988,2.407,0.264,2.999s-2.016,0.209-2.887-0.856C11.536,30.706,11.418,29.362,12.144,28.771z M14.955,41.819
	c-0.725,0.592-2.018,0.208-2.887-0.857c-0.869-1.063-0.986-2.406-0.263-2.999c0.725-0.591,2.017-0.207,2.887,0.857
	C15.562,39.884,15.68,41.228,14.955,41.819z M18.59,38.729c-0.726,0.592-2.018,0.209-2.888-0.855
	c-0.869-1.065-0.987-2.407-0.262-2.999c0.724-0.592,2.017-0.208,2.886,0.855C19.195,36.795,19.313,38.137,18.59,38.729z
	 M22.572,45.781c-0.725,0.591-2.017,0.208-2.887-0.856c-0.869-1.064-0.987-2.407-0.262-2.999c0.724-0.592,2.017-0.208,2.885,0.855
	C23.179,43.847,23.296,45.19,22.572,45.781z M22.836,36.547c-0.726,0.592-2.017,0.209-2.887-0.856
	c-0.869-1.064-0.987-2.407-0.263-2.999s2.017-0.209,2.886,0.856C23.442,34.612,23.56,35.955,22.836,36.547z"/>
<path fill="#BDA770" d="M25.708,15.078l-15.022,7.24l15.078,8.925l14.881-8.56L25.708,15.078z M18.425,24.435
	c-1.373-0.067-2.448-0.878-2.403-1.813c0.046-0.934,1.195-1.637,2.568-1.57c1.374,0.067,2.449,0.879,2.404,1.813
	C20.948,23.799,19.798,24.502,18.425,24.435z M25.715,28.215c-1.372-0.066-2.449-0.878-2.402-1.812
	c0.046-0.935,1.195-1.638,2.567-1.571c1.374,0.066,2.45,0.879,2.403,1.813C28.238,27.579,27.089,28.282,25.715,28.215z
	 M25.715,20.859c-1.372-0.067-2.449-0.879-2.402-1.813c0.046-0.935,1.195-1.638,2.567-1.57c1.374,0.067,2.45,0.879,2.403,1.813
	C28.238,20.224,27.089,20.926,25.715,20.859z M33.369,24.435c-1.372-0.067-2.448-0.878-2.403-1.813
	c0.046-0.934,1.196-1.637,2.569-1.57s2.448,0.879,2.403,1.813C35.893,23.799,34.743,24.502,33.369,24.435z"/>
</svg>
