<?xml version="1.0" encoding="utf-8"?>
<!-- Generator: Adobe Illustrator 16.0.3, SVG Export Plug-In . SVG Version: 6.00 Build 0)  -->
<!DOCTYPE svg PUBLIC "-//W3C//DTD SVG 1.1//EN" "http://www.w3.org/Graphics/SVG/1.1/DTD/svg11.dtd">
<svg version="1.1" id="Layer_1" xmlns="http://www.w3.org/2000/svg" xmlns:xlink="http://www.w3.org/1999/xlink" x="0px" y="0px"
  width="50px" height="100px" viewBox="0 0 50 100" enable-background="new 0 0 50 100" xml:space="preserve">
<g>

  <rect x="17.825" y="58.768" transform="matrix(0.7126 -0.7016 0.7016 0.7126 -41.6992 34.0758)" fill="#D1C19B" width="5.835" height="18.333"/>
 <rect x="21.163" y="72.217" fill="#BDA76F" width="5.833" height="18.082"/>

  <rect x="26.824" y="58.77" transform="matrix(0.7015 0.7127 -0.7127 0.7015 57.2959 -0.9159)" fill="#BDA76F" width="5.835" height="18.331"/>
 <polygon fill="#BDA76F" points="38.318,72.992 24.651,59.325 38.318,59.325  "/>
</g>
<g>

  <rect x="17.825" y="8.769" transform="matrix(0.7126 -0.7016 0.7016 0.7126 -6.6218 19.7065)" fill="#FFFFFF" width="5.835" height="18.333"/>
 <rect x="21.163" y="22.218" fill="#FFFFFF" width="5.833" height="18.082"/>

  <rect x="26.824" y="8.771" transform="matrix(0.7015 0.7127 -0.7127 0.7015 21.662 -15.8417)" fill="#FFFFFF" width="5.835" height="18.331"/>
 <polygon fill="#FFFFFF" points="38.318,22.993 24.651,9.326 38.318,9.326  "/>
</g>
</svg>
