<?xml version="1.0" encoding="utf-8"?>
<!-- Generator: Adobe Illustrator 15.1.0, SVG Export Plug-In . SVG Version: 6.00 Build 0)  -->
<!DOCTYPE svg PUBLIC "-//W3C//DTD SVG 1.1//EN" "http://www.w3.org/Graphics/SVG/1.1/DTD/svg11.dtd">
<svg version="1.1" id="Layer_1" xmlns="http://www.w3.org/2000/svg" xmlns:xlink="http://www.w3.org/1999/xlink" x="0px" y="0px"
	 width="50px" height="100px" viewBox="0 0 50 100" enable-background="new 0 0 50 100" xml:space="preserve">
<polygon fill="#FFFFFF" points="23.807,12.5 23.807,27.254 16.736,19.978 13.587,20 19.769,26.114 12.5,37.474 15.405,37.474 
	21.396,27.723 23.807,30.108 23.807,37.5 26.177,37.5 26.177,30.114 28.613,27.704 34.595,37.441 37.5,37.441 30.24,26.095 
	36.402,20 33.213,20 26.177,27.255 26.177,12.5 "/>
<polygon fill="#BDA770" points="23.807,62.5 23.807,77.254 16.736,69.979 13.587,70 19.769,76.113 12.5,87.475 15.405,87.475 
	21.396,77.723 23.807,80.107 23.807,87.5 26.177,87.5 26.177,80.113 28.613,77.704 34.595,87.441 37.5,87.441 30.24,76.095 
	36.402,70 33.213,70 26.177,77.255 26.177,62.5 "/>
</svg>
