<?xml version="1.0" encoding="utf-8"?>
<!-- Generator: Adobe Illustrator 16.0.3, SVG Export Plug-In . SVG Version: 6.00 Build 0)  -->
<!DOCTYPE svg PUBLIC "-//W3C//DTD SVG 1.1//EN" "http://www.w3.org/Graphics/SVG/1.1/DTD/svg11.dtd">
<svg version="1.1" id="Layer_1" xmlns="http://www.w3.org/2000/svg" xmlns:xlink="http://www.w3.org/1999/xlink" x="0px" y="0px"
width="50px" height="100px" viewBox="0 0 50 100" enable-background="new 0 0 50 100" xml:space="preserve">
  <g>
    <polygon fill="none" points="23.12,76.315 23.12,76.315 23.12,76.315  "/>
    <polygon fill="none" points="22.469,78.887 22.469,78.887 22.469,78.887  "/>
    <path fill="#BDA770" d="M38.128,70.412c-2.079,0.188-4.021-0.458-4.189-0.515v-0.001c0,0-0.003-0.001-0.007-0.003
    c-0.004-0.001-0.006-0.001-0.006-0.001l0,0c-0.172-0.05-2.128-0.649-3.714-2.008c0,0-1.957-1.278-2.827,0.414
    c-0.076,0.147-0.554,1.467-0.606,2.129c-0.062,0.22,0.121,1.119-1.457,3.446c-0.077,0.112-0.137,0.243-0.189,0.379
    c-0.335,0.722-0.884,2.242-0.614,4.053c0.013,0.169,0.024,0.338,0.027,0.508c0.011,0.671-0.125,1.334-0.119,2.005
    c0.007,0.854,0.181,1.705,0.5,2.498c0.241,0.6,0.634,1.12,0.981,1.661c0.324,0.505,0.631,1.029,1.035,1.477
    c0.356,0.396,0.792,0.737,1.312,0.886l0.1,0.027l0.099,0.036c0.51,0.18,1.064,0.154,1.585,0.039
    c0.586-0.131,1.142-0.382,1.697-0.605c0.598-0.239,1.218-0.434,1.763-0.785c0.719-0.461,1.354-1.054,1.854-1.747
    c0.394-0.542,0.667-1.162,1.064-1.701c0.102-0.137,0.209-0.269,0.318-0.398c1.268-1.32,1.702-2.878,1.847-3.659
    c0.036-0.141,0.062-0.283,0.065-0.42c0.063-2.811,0.734-3.436,0.811-3.651c0.34-0.57,0.715-1.923,0.738-2.087
    C40.465,70.505,38.128,70.412,38.128,70.412z M30.428,79.655c0.004,0.005,0.22,0.261,0.471,0.207
    c0.026-0.007,0.052-0.016,0.078-0.027c0.001-0.001,0.004-0.001,0.005-0.003c0.114-0.05,0.221-0.142,0.263-0.31l1.28-3.917
    c-0.137,0.488-0.856,3.646-0.856,3.646s1.134,0.431,0.459,1.35c0,0-0.186-0.434-0.66-0.326c0,0-0.324,0.196-0.698,0.212
    c-0.011,0.001-0.023,0.001-0.034,0.001c-0.002,0-0.006,0-0.009,0c-0.188-0.004-0.332-0.071-0.408-0.119
    c-0.336-0.228-0.509-0.621-0.509-0.621c-0.325-0.365-0.726-0.118-0.726-0.118c-0.017-1.14,1.156-0.834,1.156-0.834
    s1.243-2.992,1.416-3.466l-1.263,3.922C30.331,79.412,30.363,79.548,30.428,79.655z M27.032,74.615
    c-0.049-0.003,0.592-1.521,2.153-1.003c0.185,0.07,0.478,0.318,0.673,0.525c0.328,0.383,0.781,1.414,0.333,2.496
    C30.087,76.46,29.175,74.761,27.032,74.615z M29.7,72.104c0.378,0.102,0.804,0.3,1.208,0.68l0,0
    c0.445,0.423,0.823,1.179,0.62,1.896c0,0-1.067-3.148-4.542-1.77C26.986,72.91,27.812,71.747,29.7,72.104z M34.023,82.285
    c0,0-2.174,2.952-4.678,2.542c-0.279-0.054-0.506-0.153-0.646-0.225c-2.183-1.17-2.242-4.731-2.242-4.731
    c0.07-0.963,1.075-0.033,1.075-0.033c0.558,0.461,1.966,1.088,2.662,1.383c0.737,0.163,2.25,0.466,2.969,0.415
    C33.164,81.636,34.521,81.46,34.023,82.285z M36.624,77.678c-1.741-1.068-3.743-0.186-3.743-0.186
    c0.261-1.141,1.208-1.767,1.696-1.889c0.279-0.056,0.538-0.02,0.729,0.03C36.88,76.115,36.665,77.705,36.624,77.678z
     M32.934,75.128c0.248-0.7,0.973-1.084,1.582-1.172l0,0c0.548-0.076,1.011,0.008,1.376,0.146c1.745,0.802,1.767,2.216,1.767,2.216
    C35.626,73.18,32.934,75.128,32.934,75.128z"/>
    <path d="M27.066,74.729l0.001,0.065C27.069,74.756,27.069,74.734,27.066,74.729z"/>
    <path fill="#FFFFFF" d="M22.879,76.22c0.081,0.028,0.162,0.061,0.241,0.096C23.047,76.278,22.965,76.246,22.879,76.22z"/>
    <path fill="#FFFFFF" d="M22.469,78.887l1.048-0.281c0-0.011,0-0.021,0-0.031C23.156,78.669,22.781,78.785,22.469,78.887z"/>
    <path fill="#FFFFFF" d="M23.68,76.597c0.009-0.058,0.018-0.116,0.027-0.172l-0.587-0.109C23.315,76.398,23.503,76.495,23.68,76.597
    z"/>
    <g>
      <path fill="none" d="M22.977,67.712c0,0-0.877-0.942-2.711-0.37c-0.363,0.142-0.765,0.388-1.122,0.812l0,0
       c-0.393,0.473-0.759,1.149-0.475,1.836C18.668,69.989,19.366,66.739,22.977,67.712z"/>
      <path d="M23.68,76.597c0.009-0.058,0.018-0.116,0.027-0.172l-0.587-0.109C23.315,76.398,23.503,76.495,23.68,76.597z"/>
      <path d="M22.469,78.887l1.048-0.281c0-0.011,0-0.021,0-0.031C23.156,78.669,22.781,78.785,22.469,78.887z"/>
      <polygon fill="none" points="22.469,78.887 22.469,78.887 22.469,78.887   "/>
      <polygon fill="none" points="23.12,76.315 23.12,76.315 23.12,76.315   "/>
      <path fill="none" d="M22.879,76.22c0.081,0.028,0.162,0.061,0.241,0.096C23.047,76.278,22.965,76.246,22.879,76.22z"/>
      <path fill="none" d="M20.487,73.899c0,0-1.578-2.828-1.805-3.28l1.671,3.774c0.081,0.151,0.064,0.292,0.011,0.406
       c-0.001,0.001-0.002,0.003-0.003,0.004c-0.012,0.027-0.025,0.05-0.039,0.074c-0.15,0.208-0.484,0.161-0.489,0.16
       C19.714,75,19.6,74.922,19.539,74.76l-1.686-3.767c0.191,0.468,1.268,3.522,1.268,3.522s-1.077,0.559-0.302,1.394
       c0,0,0.134-0.453,0.619-0.399c0,0,0.392,0.18,0.794,0.123c0.089-0.015,0.241-0.06,0.383-0.185
       c0.002-0.002,0.005-0.004,0.008-0.006c0.008-0.007,0.014-0.015,0.024-0.022c0.266-0.263,0.376-0.625,0.376-0.625
       c0.28-0.397,0.708-0.199,0.708-0.199C21.617,73.461,20.487,73.899,20.487,73.899z"/>
      <path fill="none" d="M20.845,68.702c-0.176,0.091-0.581,0.396-0.751,0.623c-0.281,0.418-0.453,1.435,0.117,2.457
       c0,0,0.896-1.996,2.907-2.365C23.167,69.406,22.337,68.006,20.845,68.702z"/>
      <path fill="none" d="M17.323,70.597c-0.328-0.669-1.14-0.903-1.755-0.922l0,0c-0.553-0.012-0.938,0.189-1.287,0.367
       c-1.643,0.997-1.517,2.277-1.517,2.277C14.423,68.969,17.323,70.597,17.323,70.597z"/>
      <path fill="none" d="M15.763,71.309c-0.284-0.022-0.6-0.021-0.784,0.05c-1.508,0.658-1.079,2.229-1.039,2.198
       c1.607-1.262,3.697-0.613,3.697-0.613C17.192,71.686,16.147,71.359,15.763,71.309z"/>
      <path fill="none" d="M19.224,80.75c0.085,0.099,0.203,0.093,0.321,0.043C19.417,80.831,19.304,80.826,19.224,80.75z"/>
      <polygon fill="none" points="19.1,80.158 19.1,80.16 19.1,80.159   "/>
      <path fill="none" d="M21.408,76.024c-0.123,0.016-0.244,0.04-0.366,0.074c-0.227,0.072-0.407,0.176-0.515,0.249
       c-1.278,0.888-1.43,2.779-1.428,3.668C19.1,79.332,19.236,76.431,21.408,76.024z"/>
      <path fill="none" d="M21.409,76.024c0.001,0,0.874,0.006,1.47,0.195C22.415,76.05,21.914,75.959,21.409,76.024z"/>
      <path fill="#BDA770" d="M25.916,70.078c-0.193-0.487-0.406-0.88-0.57-1.148c-0.069-0.129-0.144-0.254-0.233-0.356
       c-1.835-2.131-1.754-3.045-1.842-3.255c-0.129-0.652-0.754-1.909-0.846-2.047c-1.059-1.58-2.856-0.085-2.856-0.085
       c-1.421,1.53-3.295,2.349-3.459,2.419l0,0c0,0-0.003,0.001-0.007,0.003s-0.006,0.002-0.006,0.002v0.001
       c-0.161,0.076-2.016,0.941-4.103,0.993c0,0-2.31,0.358-1.825,2.197c0.042,0.161,0.57,1.462,0.973,1.989
       c0.101,0.205,0.839,0.749,1.222,3.535c0.019,0.135,0.062,0.272,0.114,0.411c0.233,0.758,0.845,2.255,2.254,3.42
       c0.124,0.118,0.244,0.236,0.36,0.36c0.458,0.491,0.801,1.074,1.253,1.569c0.578,0.631,1.276,1.146,2.042,1.522
       c0.583,0.286,1.222,0.407,1.842,0.579c0.578,0.158,1.157,0.343,1.756,0.405c0.531,0.055,1.083,0.017,1.569-0.222l0.093-0.047
       l0.096-0.038c0.032-0.014,0.065-0.027,0.096-0.042c-0.256-1.342-0.341-2.562-0.321-3.64l-1.048,0.281l0,0l-1.873,1.074
       c-0.136,0.174-0.661,0.712-1.052,0.832c-0.118,0.05-0.235,0.056-0.321-0.043c-0.094-0.088-0.144-0.271-0.124-0.59
       c0-0.001,0-0.002,0-0.002c0-0.005-0.003-0.056-0.002-0.143c-0.002-0.889,0.15-2.78,1.428-3.668
       c0.108-0.073,0.288-0.177,0.515-0.249c0.123-0.034,0.244-0.059,0.366-0.074l0,0h0.001c0.505-0.065,1.006,0.025,1.47,0.195
       c0.086,0.026,0.168,0.059,0.241,0.096l0,0l0.587,0.109c0.331-2.068,0.972-3.231,0.972-3.231
       C25.376,72.25,25.734,71.016,25.916,70.078z M19.081,68.089l0.062-0.126c0.357-0.423,0.759-0.669,1.122-0.81
       c1.833-0.574,2.711,0.559,2.711,0.559c-3.611-0.973-4.308,2.277-4.308,2.277C18.385,69.303,18.688,68.563,19.081,68.089z
        M12.764,72.319c0,0-0.188-1.344,1.455-2.341c0.348-0.177,0.797-0.315,1.35-0.304l0,0c0.615,0.019,1.427,0.253,1.755,0.922
       C17.323,70.597,14.423,68.969,12.764,72.319z M13.94,73.557c-0.04,0.03-0.469-1.54,1.039-2.198c0.185-0.071,0.5-0.072,0.784-0.05
       c0.384,0.051,1.429,0.377,1.875,1.635C17.638,72.943,15.548,72.295,13.94,73.557z M21.022,74.795c0,0-0.111,0.362-0.376,0.625
       c-0.01,0.008-0.016,0.016-0.024,0.022c-0.003,0.002-0.006,0.004-0.008,0.006c-0.142,0.125-0.294,0.17-0.383,0.185
       c-0.402,0.057-0.794-0.123-0.794-0.123c-0.485-0.054-0.619,0.399-0.619,0.399c-0.775-0.835,0.302-1.394,0.302-1.394
       s-1.077-3.055-1.268-3.522l1.686,3.767c0.061,0.162,0.175,0.24,0.295,0.278c0.005,0.001,0.339,0.048,0.489-0.16
       c0.014-0.024,0.027-0.047,0.039-0.074c0.001-0.001,0.002-0.003,0.003-0.004c0.053-0.114,0.069-0.255-0.011-0.406l-1.671-3.774
       c0.227,0.452,1.805,3.28,1.805,3.28s1.13-0.438,1.243,0.696C21.73,74.596,21.302,74.397,21.022,74.795z M23.118,69.417
       c-2.011,0.369-2.907,2.365-2.907,2.365c-0.57-1.022-0.398-2.039-0.117-2.457c0.17-0.228,0.385-0.501,0.562-0.592
       C22.148,68.037,23.167,69.406,23.118,69.417z"/>
      <polygon fill="#FFFFFF" points="21.409,76.024 21.408,76.024 21.409,76.024   "/>
      <path d="M20.618,79.929c-0.005,0.008-0.013,0.02-0.022,0.032l1.873-1.074c-0.142,0.047-0.27,0.091-0.376,0.128
       C21.726,79.222,21.112,79.583,20.618,79.929z"/>
      <path d="M19.1,80.16c-0.02,0.319,0.03,0.502,0.124,0.59c-0.047-0.052-0.084-0.135-0.106-0.255
       C19.118,80.495,19.105,80.368,19.1,80.16z"/>
      <path d="M20.014,80.417c0,0-0.236,0.276-0.47,0.376c0.391-0.12,0.916-0.658,1.052-0.832l-0.108,0.062
       C20.296,80.163,20.129,80.299,20.014,80.417z"/>
    </g>
  </g>
  <g>
    <polygon fill="#FFFFFF" points="23.12,26.315 23.12,26.315 23.12,26.315  "/>
    <polygon fill="#FFFFFF" points="22.469,28.887 22.469,28.887 22.469,28.887  "/>
    <path fill="#FFFFFF" d="M38.128,20.412c-2.079,0.188-4.021-0.458-4.189-0.515v-0.001c0,0-0.003-0.001-0.007-0.003
    c-0.004-0.001-0.006-0.001-0.006-0.001l0,0c-0.172-0.05-2.128-0.649-3.714-2.008c0,0-1.957-1.278-2.827,0.414
    c-0.076,0.147-0.554,1.467-0.606,2.129c-0.062,0.22,0.121,1.119-1.457,3.446c-0.077,0.112-0.137,0.243-0.189,0.379
    c-0.335,0.722-0.884,2.242-0.614,4.053c0.013,0.169,0.024,0.338,0.027,0.508c0.011,0.671-0.125,1.334-0.119,2.005
    c0.007,0.854,0.181,1.705,0.5,2.498c0.241,0.6,0.634,1.12,0.981,1.661c0.324,0.505,0.631,1.029,1.035,1.477
    c0.356,0.396,0.792,0.737,1.312,0.886l0.1,0.027l0.099,0.036c0.51,0.18,1.064,0.154,1.585,0.039
    c0.586-0.131,1.142-0.382,1.697-0.605c0.598-0.239,1.218-0.434,1.763-0.785c0.719-0.461,1.354-1.054,1.854-1.747
    c0.394-0.542,0.667-1.162,1.064-1.701c0.102-0.137,0.209-0.269,0.318-0.398c1.268-1.32,1.702-2.878,1.847-3.659
    c0.036-0.141,0.062-0.283,0.065-0.42c0.063-2.811,0.734-3.436,0.811-3.651c0.34-0.57,0.715-1.923,0.738-2.087
    C40.465,20.505,38.128,20.412,38.128,20.412z M30.428,29.655c0.004,0.005,0.22,0.261,0.471,0.207
    c0.026-0.007,0.052-0.016,0.078-0.027c0.001-0.001,0.004-0.001,0.005-0.003c0.114-0.05,0.221-0.142,0.263-0.31l1.28-3.917
    c-0.137,0.488-0.856,3.646-0.856,3.646s1.134,0.431,0.459,1.35c0,0-0.186-0.434-0.66-0.326c0,0-0.324,0.196-0.698,0.212
    c-0.011,0.001-0.023,0.001-0.034,0.001c-0.002,0-0.006,0-0.009,0c-0.188-0.004-0.332-0.071-0.408-0.119
    c-0.336-0.228-0.509-0.621-0.509-0.621c-0.325-0.365-0.726-0.118-0.726-0.118c-0.017-1.14,1.156-0.834,1.156-0.834
    s1.243-2.992,1.416-3.466l-1.263,3.922C30.331,29.412,30.363,29.548,30.428,29.655z M27.032,24.615
    c-0.049-0.003,0.592-1.521,2.153-1.003c0.185,0.07,0.478,0.318,0.673,0.525c0.328,0.383,0.781,1.414,0.333,2.496
    C30.087,26.46,29.175,24.761,27.032,24.615z M29.7,22.104c0.378,0.102,0.804,0.3,1.208,0.68l0,0
    c0.445,0.423,0.823,1.179,0.62,1.896c0,0-1.067-3.148-4.542-1.77C26.986,22.91,27.812,21.747,29.7,22.104z M34.023,32.285
    c0,0-2.174,2.952-4.678,2.542c-0.279-0.054-0.506-0.153-0.646-0.225c-2.183-1.17-2.242-4.731-2.242-4.731
    c0.07-0.963,1.075-0.033,1.075-0.033c0.558,0.461,1.966,1.088,2.662,1.383c0.737,0.163,2.25,0.466,2.969,0.415
    C33.164,31.636,34.521,31.46,34.023,32.285z M36.624,27.678c-1.741-1.068-3.743-0.186-3.743-0.186
    c0.261-1.141,1.208-1.767,1.696-1.889c0.279-0.056,0.538-0.02,0.729,0.03C36.88,26.115,36.665,27.705,36.624,27.678z
     M32.934,25.128c0.248-0.7,0.973-1.084,1.582-1.172l0,0c0.548-0.076,1.011,0.008,1.376,0.146c1.745,0.802,1.767,2.216,1.767,2.216
    C35.626,23.18,32.934,25.128,32.934,25.128z"/>
    <path fill="#FFFFFF" d="M27.066,24.729l0.001,0.065C27.069,24.756,27.069,24.734,27.066,24.729z"/>
    <path fill="#FFFFFF" d="M22.879,26.22c0.081,0.028,0.162,0.061,0.241,0.096C23.047,26.278,22.965,26.246,22.879,26.22z"/>
    <path fill="#FFFFFF" d="M22.469,28.887l1.048-0.281c0-0.011,0-0.021,0-0.031C23.156,28.669,22.781,28.785,22.469,28.887z"/>
    <path fill="#FFFFFF" d="M23.68,26.597c0.009-0.058,0.018-0.116,0.027-0.172l-0.587-0.109C23.315,26.398,23.503,26.495,23.68,26.597
    z"/>
    <g>
      <path fill="none" d="M22.977,17.712c0,0-0.877-0.942-2.711-0.37c-0.363,0.142-0.765,0.388-1.122,0.812l0,0
       c-0.393,0.473-0.759,1.149-0.475,1.836C18.668,19.989,19.366,16.739,22.977,17.712z"/>
      <path fill="#FFFFFF" d="M23.68,26.597c0.009-0.058,0.018-0.116,0.027-0.172l-0.587-0.109
       C23.315,26.398,23.503,26.495,23.68,26.597z"/>
      <path fill="#FFFFFF" d="M22.469,28.887l1.048-0.281c0-0.011,0-0.021,0-0.031C23.156,28.669,22.781,28.785,22.469,28.887z"/>
      <polygon fill="#FFFFFF" points="22.469,28.887 22.469,28.887 22.469,28.887   "/>
      <polygon fill="#FFFFFF" points="23.12,26.315 23.12,26.315 23.12,26.315   "/>
      <path fill="#FFFFFF" d="M22.879,26.22c0.081,0.028,0.162,0.061,0.241,0.096C23.047,26.278,22.965,26.246,22.879,26.22z"/>
      <path fill="none" d="M17.323,20.597c-0.328-0.669-1.14-0.903-1.755-0.922l0,0c-0.553-0.012-0.938,0.189-1.287,0.367
       c-1.643,0.997-1.517,2.277-1.517,2.277C14.423,18.969,17.323,20.597,17.323,20.597z"/>
      <path fill="#FFFFFF" d="M19.224,30.75c0.085,0.099,0.203,0.093,0.321,0.043C19.417,30.831,19.304,30.826,19.224,30.75z"/>
      <polygon fill="#FFFFFF" points="19.1,30.158 19.1,30.16 19.1,30.159   "/>
      <path fill="#FFFFFF" d="M21.408,26.024c-0.123,0.016-0.244,0.04-0.366,0.074c-0.227,0.072-0.407,0.176-0.515,0.249
       c-1.278,0.888-1.43,2.779-1.428,3.668C19.1,29.332,19.236,26.431,21.408,26.024z"/>
      <path fill="#FFFFFF" d="M21.409,26.024c0.001,0,0.874,0.006,1.47,0.195C22.415,26.05,21.914,25.959,21.409,26.024z"/>
      <path fill="#FFFFFF" d="M25.916,20.078c-0.193-0.487-0.406-0.88-0.57-1.148c-0.069-0.129-0.144-0.254-0.233-0.356
       c-1.835-2.131-1.754-3.045-1.842-3.255c-0.129-0.652-0.754-1.909-0.846-2.047c-1.059-1.58-2.856-0.085-2.856-0.085
       c-1.421,1.53-3.295,2.349-3.459,2.419l0,0c0,0-0.003,0.001-0.007,0.003s-0.006,0.002-0.006,0.002v0.001
       c-0.161,0.076-2.016,0.941-4.103,0.993c0,0-2.31,0.358-1.825,2.197c0.042,0.161,0.57,1.462,0.973,1.989
       c0.101,0.205,0.839,0.749,1.222,3.535c0.019,0.135,0.062,0.272,0.114,0.411c0.233,0.758,0.845,2.255,2.254,3.42
       c0.124,0.118,0.244,0.236,0.36,0.36c0.458,0.491,0.801,1.074,1.253,1.569c0.578,0.631,1.276,1.146,2.042,1.522
       c0.583,0.286,1.222,0.407,1.842,0.579c0.578,0.158,1.157,0.343,1.756,0.405c0.531,0.055,1.083,0.017,1.569-0.222l0.093-0.047
       l0.096-0.038c0.032-0.014,0.065-0.027,0.096-0.042c-0.256-1.342-0.341-2.562-0.321-3.64l-1.048,0.281l0,0l-1.873,1.074
       c-0.136,0.174-0.661,0.712-1.052,0.832c-0.118,0.05-0.235,0.056-0.321-0.043c-0.094-0.088-0.144-0.271-0.124-0.59
       c0-0.001,0-0.002,0-0.002c0-0.005-0.003-0.056-0.002-0.143c-0.002-0.889,0.15-2.78,1.428-3.668
       c0.108-0.073,0.288-0.177,0.515-0.249c0.123-0.034,0.244-0.059,0.366-0.074l0,0h0.001c0.505-0.065,1.006,0.025,1.47,0.195
       c0.086,0.026,0.168,0.059,0.241,0.096l0,0l0.587,0.109c0.331-2.068,0.972-3.231,0.972-3.231
       C25.376,22.25,25.734,21.016,25.916,20.078z M19.081,18.089l0.062-0.126c0.357-0.423,0.759-0.669,1.122-0.81
       c1.833-0.574,2.711,0.559,2.711,0.559c-3.611-0.973-4.308,2.277-4.308,2.277C18.385,19.303,18.688,18.563,19.081,18.089z
        M12.764,22.319c0,0-0.188-1.344,1.455-2.341c0.348-0.177,0.797-0.315,1.35-0.304l0,0c0.615,0.019,1.427,0.253,1.755,0.922
       C17.323,20.597,14.423,18.969,12.764,22.319z M13.94,23.557c-0.04,0.03-0.469-1.54,1.039-2.198c0.185-0.071,0.5-0.072,0.784-0.05
       c0.384,0.051,1.429,0.377,1.875,1.635C17.638,22.943,15.548,22.295,13.94,23.557z M21.022,24.795c0,0-0.111,0.362-0.376,0.625
       c-0.01,0.008-0.016,0.016-0.024,0.022c-0.003,0.002-0.006,0.004-0.008,0.006c-0.142,0.125-0.294,0.17-0.383,0.185
       c-0.402,0.057-0.794-0.123-0.794-0.123c-0.485-0.054-0.619,0.399-0.619,0.399c-0.775-0.835,0.302-1.394,0.302-1.394
       s-1.077-3.055-1.268-3.522l1.686,3.767c0.061,0.162,0.175,0.24,0.295,0.278c0.005,0.001,0.339,0.048,0.489-0.16
       c0.014-0.024,0.027-0.047,0.039-0.074c0.001-0.001,0.002-0.003,0.003-0.004c0.053-0.114,0.069-0.255-0.011-0.406l-1.671-3.774
       c0.227,0.452,1.805,3.28,1.805,3.28s1.13-0.438,1.243,0.696C21.73,24.596,21.302,24.397,21.022,24.795z M23.118,19.417
       c-2.011,0.369-2.907,2.365-2.907,2.365c-0.57-1.022-0.398-2.039-0.117-2.457c0.17-0.228,0.385-0.501,0.562-0.592
       C22.148,18.037,23.167,19.406,23.118,19.417z"/>
      <polygon fill="#FFFFFF" points="21.409,26.024 21.408,26.024 21.409,26.024   "/>
      <path fill="#FFFFFF" d="M20.618,29.929c-0.005,0.008-0.013,0.02-0.022,0.032l1.873-1.074c-0.142,0.047-0.27,0.091-0.376,0.128
       C21.726,29.222,21.112,29.583,20.618,29.929z"/>
      <path fill="#FFFFFF" d="M19.1,30.16c-0.02,0.319,0.03,0.502,0.124,0.59c-0.047-0.052-0.084-0.135-0.106-0.255
       C19.118,30.495,19.105,30.368,19.1,30.16z"/>
      <path fill="#FFFFFF" d="M20.014,30.417c0,0-0.236,0.276-0.47,0.376c0.391-0.12,0.916-0.658,1.052-0.832l-0.108,0.062
       C20.296,30.163,20.129,30.299,20.014,30.417z"/>
    </g>
  </g>
</svg>
