<?xml version="1.0" encoding="UTF-8" standalone="no"?>
<svg width="29px" height="25px" viewBox="0 0 29 25" version="1.1" xmlns="http://www.w3.org/2000/svg" xmlns:xlink="http://www.w3.org/1999/xlink" xmlns:sketch="http://www.bohemiancoding.com/sketch/ns">
    <!-- Generator: Sketch 3.3.3 (12081) - http://www.bohemiancoding.com/sketch -->
    <title>icon-entertainment</title>
    <desc>Created with Sketch.</desc>
    <defs></defs>
    <g id="Find" stroke="none" stroke-width="1" fill="none" fill-rule="evenodd" sketch:type="MSPage">
        <g id="Find---Browse" sketch:type="MSArtboardGroup" transform="translate(-30.000000, -104.000000)" fill="#BDA770">
            <g id="Grouped-Cell" sketch:type="MSLayerGroup" transform="translate(0.000000, 95.000000)">
                <g id="entertainment" transform="translate(15.000000, 0.000000)" sketch:type="MSShapeGroup">
                    <g id="icon-entertainment" transform="translate(15.000000, 9.500000)">
                        <path d="M26.9706341,7.55810526 C24.9701837,7.73806316 23.1020933,7.11903158 22.9392959,7.06345263 L22.9393805,7.06311579 C22.9393805,7.06311579 22.9372668,7.06248421 22.9333776,7.06138947 C22.9295729,7.06 22.927586,7.05932632 22.927586,7.05932632 L22.9275015,7.05970526 C22.7622945,7.01103158 20.8796195,6.4376 19.3537799,5.13642105 C19.3537799,5.13642105 17.4716122,3.91145263 16.6345015,5.53246316 C16.5614096,5.67381053 16.1017216,6.9384 16.0503586,7.5728 C15.9902872,7.78286316 16.1672886,8.64421053 14.6495233,10.8737263 C14.5757551,10.9819368 14.5173324,11.1078316 14.4666458,11.2386947 C14.1443484,11.9283789 13.617656,13.3867789 13.8766691,15.1205895 C13.8885481,15.2827789 13.8992857,15.4449684 13.9021603,15.6076632 C13.9139971,16.2503158 13.782863,16.8856421 13.7878936,17.5286316 C13.7941924,18.3474105 13.9619781,19.1623158 14.2680423,19.9218105 C14.5003382,20.4979368 14.8788178,20.9948211 15.2129096,21.5135579 C15.5243426,21.9971368 15.8195423,22.5002947 16.2073644,22.9288421 C16.5507566,23.3084211 16.9712566,23.6349895 17.4711472,23.7768842 L17.5675321,23.8042526 L17.6620146,23.8375579 C18.1521399,24.0103579 18.6846662,23.9868211 19.1854446,23.8756632 C19.7507755,23.7501474 20.2840627,23.5104 20.8191676,23.2960421 C21.3932915,23.0659368 21.9908776,22.8794947 22.5153294,22.5437895 C23.2065102,22.1014316 23.817328,21.5341053 24.2987872,20.8703579 C24.6767595,20.3492211 24.9395773,19.7557053 25.3229606,19.2386947 C25.4199373,19.1077895 25.5230015,18.9816842 25.627207,18.8564632 C26.8468134,17.5928421 27.2657915,16.1 27.4043659,15.352 C27.4391997,15.2161684 27.4647332,15.0797474 27.4676924,14.9490105 C27.5274679,12.2559579 28.1727813,11.6559579 28.2459577,11.4501474 C28.5732012,10.9035368 28.9340525,9.60745263 28.9568382,9.45006316 C29.2173309,7.64581053 26.9706341,7.55810526 26.9706341,7.55810526 L26.9706341,7.55810526 Z M19.5617259,16.4138526 C19.5655306,16.4184421 19.7730117,16.6648421 20.014481,16.6125053 C20.0395918,16.6056 20.0648294,16.5971789 20.0896866,16.5866526 C20.0915466,16.5858526 20.0930685,16.5853895 20.0948017,16.5845474 C20.2057711,16.5362947 20.307398,16.4476632 20.3477697,16.2868632 L21.578156,12.5341053 C21.4480364,13.0010947 20.7557143,16.0264842 20.7557143,16.0264842 C20.7557143,16.0264842 21.846258,16.4392421 21.1972668,17.3197053 C21.1972668,17.3197053 21.0199271,16.9041263 20.5621414,17.0074526 C20.5621414,17.0074526 20.2518076,17.1950737 19.8911254,17.2104842 C19.8803878,17.2109053 19.8697347,17.2114105 19.8594198,17.2114105 C19.8563338,17.2114947 19.8532055,17.2113263 19.8502886,17.2114105 C19.6687216,17.2087579 19.5314577,17.1423579 19.4587041,17.0971368 C19.1335743,16.8797474 18.969551,16.5010947 18.969551,16.5010947 C18.6566385,16.1527579 18.2702959,16.3891368 18.2702959,16.3891368 C18.2534286,15.2970105 19.3823994,15.5898105 19.3823994,15.5898105 C19.3823994,15.5898105 20.5782478,12.7238316 20.743793,12.2686316 L19.5294708,16.0267368 C19.4691458,16.1803368 19.5000058,16.3108211 19.5617259,16.4138526 L19.5617259,16.4138526 Z M16.2954636,11.5862316 C16.2479898,11.5829474 16.8633309,10.1263158 18.3654548,10.6242105 C18.5434286,10.6912421 18.8263265,10.9289263 19.0142347,11.1277895 C19.32943,11.4938526 19.7650641,12.4832421 19.3341647,13.5195789 C19.2334679,13.3511158 18.35793,11.7244632 16.2954636,11.5862316 L16.2954636,11.5862316 Z M18.8626822,9.18037895 C19.2253513,9.27616842 19.6355787,9.46631579 20.0232741,9.82951579 L20.0232741,9.82943158 C20.4518907,10.2365895 20.8158703,10.9605053 20.6197609,11.6459789 C20.6197609,11.6459789 19.5938542,8.62926316 16.2511181,9.95128421 C16.2511181,9.95128421 17.0464198,8.83696842 18.8626822,9.18037895 L18.8626822,9.18037895 Z M23.0199125,18.9340211 C23.0199125,18.9340211 20.9295875,21.7627789 18.5217843,21.3700632 C18.253344,21.3181474 18.0341531,21.2233684 17.8998907,21.1546947 C15.7994621,20.0332211 15.7429417,16.6204211 15.7429417,16.6204211 C15.8112988,15.6988632 16.7778105,16.5898526 16.7778105,16.5898526 C17.3141837,17.0301053 18.6680525,17.6314105 19.3372507,17.9149053 C20.0475816,18.0700211 21.5009636,18.3612211 22.194258,18.3119158 C22.194258,18.3119158 23.5002726,18.1434105 23.0199125,18.9340211 L23.0199125,18.9340211 Z M25.5228324,14.5198737 C23.8473848,13.4950737 21.921379,14.3421895 21.921379,14.3421895 C22.1730364,13.2488 23.0843382,12.6489684 23.5542143,12.5324632 C23.8229504,12.4787789 24.0716487,12.5120421 24.2557099,12.5600842 C25.7696283,13.0210947 25.5632886,14.5445474 25.5228324,14.5198737 L25.5228324,14.5198737 Z M21.9726997,12.0761684 C22.2114636,11.4042947 22.9084781,11.0369684 23.4945233,10.9523368 L23.494481,10.9525053 C24.0218499,10.8801263 24.466742,10.9618526 24.8180394,11.0930947 C26.4980948,11.8612632 26.5191472,13.2157895 26.5191472,13.2157895 C24.5635918,10.2093474 21.9726997,12.0761684 21.9726997,12.0761684 L21.9726997,12.0761684 Z" id="Fill-1"></path>
                        <path id="Fill-2" d="M16.3283105,11.6945263 L16.3287105,11.7945263 C16.3320105,11.7365156 16.3322105,11.7014022 16.3283105,11.6945263"></path>
                        <path id="Fill-3" d="M12.2995087,13.1213895 C12.3779271,13.1523812 12.4552041,13.1858064 12.5312128,13.2213895 C12.4621793,13.1834648 12.3837187,13.1504069 12.2995087,13.1213895"></path>
                        <path id="Fill-4" d="M11.9054723,15.6784 L12.9132012,15.4081263 C12.9133703,15.3982316 12.9134125,15.3881263 12.9136239,15.3781895 C12.566723,15.4693474 12.205449,15.5807579 11.9054723,15.6784"></path>
                        <path id="Fill-5" d="M13.0705875,13.4845895 C13.0789577,13.4282526 13.0876662,13.3728842 13.0965437,13.3179368 L12.531551,13.2131789 C12.7199665,13.2940632 12.9006035,13.3864842 13.0705875,13.4845895"></path>
                        <path id="Fill-6" d="M13.0705875,13.4845895 C13.0789577,13.4282526 13.0876662,13.3728842 13.0965437,13.3179368 L12.531551,13.2131789 C12.7199665,13.2940632 12.9006035,13.3864842 13.0705875,13.4845895"></path>
                        <path id="Fill-7" d="M11.9054723,15.6784 L12.9132012,15.4081263 C12.9133703,15.3982316 12.9134125,15.3881263 12.9136239,15.3781895 C12.566723,15.4693474 12.205449,15.5807579 11.9054723,15.6784"></path>
                        <path d="M15.2215335,7.23785263 C15.0359082,6.76981053 14.8310904,6.39473684 14.672309,6.13701053 C14.6068265,6.01284211 14.5341997,5.89444211 14.4485525,5.79532632 C12.6841603,3.75372632 12.7607187,2.87793684 12.6769738,2.67616842 C12.5529417,2.05178947 11.9507055,0.848 11.8618878,0.715873684 C10.8436327,-0.798821053 9.11487755,0.633094737 9.11487755,0.633094737 C7.74887609,2.09987368 5.94461953,2.88450526 5.78609184,2.95162105 L5.78600729,2.95136842 C5.78600729,2.95136842 5.78410496,2.95225263 5.78051166,2.95402105 C5.77674927,2.95557895 5.77480466,2.95642105 5.77480466,2.95642105 L5.77497376,2.95671579 C5.6194898,3.03061053 3.83505977,3.85882105 1.827,3.90850526 C1.827,3.90850526 -0.394755102,4.25208421 0.071654519,6.01477895 C0.11244898,6.16863158 0.620118076,7.41482105 1.0081516,7.92046316 C1.10449417,8.11667368 1.81457143,8.63894737 2.18404665,11.3074105 C2.20201312,11.4368842 2.24301895,11.5694737 2.29315598,11.7006316 C2.51703936,12.4278316 3.10507143,13.8628632 4.46215306,14.9789053 C4.57992857,15.0914947 4.6968586,15.2048842 4.80833528,15.3239158 C5.24866181,15.7938105 5.5779344,16.3533474 6.01356851,16.8279158 C6.56824636,17.4322526 7.24027697,17.9261895 7.97783236,18.2866947 C8.53745627,18.5602105 9.15267055,18.6772211 9.7493688,18.8402526 C10.3056108,18.9920421 10.8630364,19.1693474 11.439105,19.2294737 C11.9493528,19.2827789 12.4810758,19.2452632 12.9480773,19.0177263 L13.038121,18.9737684 L13.1307012,18.9356211 C13.1613921,18.9229474 13.1916603,18.9095158 13.2216327,18.8954526 C12.9756399,17.6095158 12.8944738,16.4413053 12.9132012,15.4081263 L11.9054723,15.6784 C11.9053878,15.6784 11.9053032,15.6784421 11.9053032,15.6784421 L10.1032449,16.7066947 C9.97308309,16.8739368 9.46871137,17.3883789 9.09255685,17.5036632 C8.97900875,17.552 8.86609475,17.5569684 8.78344898,17.4632842 C8.6934898,17.3789053 8.64483236,17.2037053 8.66457434,16.8972632 C8.66453207,16.8968421 8.66453207,16.8963789 8.66453207,16.8959579 C8.6643207,16.8909474 8.66250292,16.8423158 8.66271429,16.7591158 C8.66000875,15.9079579 8.80771429,14.0949474 10.0367478,13.2448 C10.141672,13.1750316 10.3146152,13.0754105 10.532707,13.0064842 C10.6500598,12.9732211 10.7675394,12.9498947 10.8848076,12.9349474 L10.8848499,12.9349053 L10.885019,12.9349053 C11.3717624,12.8729263 11.8536443,12.9598737 12.2995087,13.1213895 C12.3837187,13.148 12.4621793,13.1783158 12.5312128,13.2130947 C12.5312128,13.2130947 12.5314665,13.2131368 12.531551,13.2131789 L13.0965437,13.3179368 C13.4154169,11.3371789 14.0321108,10.2217263 14.0321108,10.2217263 C14.7021122,9.31915789 15.0463921,8.13684211 15.2215335,7.23785263 L15.2215335,7.23785263 Z M8.64626968,5.33254737 L8.70727114,5.21136842 C9.05057872,4.80618947 9.43616035,4.57052632 9.78551312,4.43389474 C11.5502012,3.88543158 12.3941603,4.96997895 12.3941603,4.96997895 C8.92117784,4.03844211 8.24944315,7.15229474 8.24944315,7.15229474 C7.97550729,6.49389474 8.2674519,5.78593684 8.64626968,5.33254737 L8.64626968,5.33254737 Z M2.56962828,9.38538947 C2.56962828,9.38538947 2.38746939,8.09738947 3.96809621,7.14235789 C4.30206122,6.97191579 4.73456706,6.83991579 5.26688192,6.85149474 L5.26688192,6.85141053 C5.85871866,6.86854737 6.64023907,7.09410526 6.95484257,7.73418947 C6.95484257,7.73418947 4.16619242,6.17553684 2.56962828,9.38538947 L2.56962828,9.38538947 Z M3.70058601,10.5711579 C3.66321574,10.6002947 3.24918367,9.09486316 4.69998688,8.46408421 C4.8773688,8.39532632 5.18144606,8.39452632 5.45466327,8.41717895 C5.82473032,8.46501053 6.82962682,8.77852632 7.25794752,9.98341053 C7.25794752,9.98341053 5.24701312,9.36172632 3.70058601,10.5711579 L3.70058601,10.5711579 Z M10.5133032,11.7575158 C10.5133032,11.7575158 10.4085904,12.1037474 10.1508878,12.3555368 C10.1431939,12.3629474 10.1355845,12.3705684 10.1279752,12.3773895 C10.1256924,12.3794526 10.1232405,12.3814737 10.1210423,12.3834526 C9.98445481,12.5024421 9.83776385,12.5445895 9.75338484,12.5593684 C9.36577405,12.6144 8.98945044,12.4424 8.98945044,12.4424 C8.52278717,12.3919579 8.39448542,12.8250105 8.39448542,12.8250105 C7.64847522,12.0246316 8.68431633,11.4899368 8.68431633,11.4899368 C8.68431633,11.4899368 7.64796793,8.56294737 7.46525948,8.11427368 L9.08680758,11.7237053 C9.1451035,11.8780632 9.25565015,11.9544842 9.37080466,11.9899789 C9.37672303,11.9908632 9.69648397,12.0357053 9.84068076,11.8359579 C9.85471574,11.8140632 9.86790525,11.7909053 9.87931924,11.7664842 C9.88008017,11.7647579 9.88096793,11.7633263 9.88160204,11.7615158 C9.93173907,11.6518737 9.94776093,11.5181474 9.86984985,11.3717895 L8.26373178,7.75562105 C8.48085131,8.18938947 9.99827843,10.8994105 9.99827843,10.8994105 C9.99827843,10.8994105 11.0861166,10.4795789 11.1950991,11.5664 C11.1951414,11.5664 10.7841108,11.3757053 10.5133032,11.7575158 L10.5133032,11.7575158 Z M12.5295641,6.60315789 C10.595949,6.95772632 9.73326239,8.87090526 9.73326239,8.87090526 C9.18602478,7.89044211 9.35017493,6.91684211 9.6211516,6.51734737 C9.78492128,6.29818947 9.99193732,6.03604211 10.1610335,5.94905263 C11.5961108,5.28290526 12.5761501,6.59448421 12.5295641,6.60315789 L12.5295641,6.60315789 Z" id="Fill-8"></path>
                        <path id="Fill-9" d="M10.8850076,12.9349053 C10.8850076,12.9349053 10.8849076,12.9349053 10.8848076,12.9350053 C10.8849076,12.9349053 10.8850076,12.9349053 10.8853076,12.9349053 L10.8850076,12.9349053"></path>
                        <path d="M10.125312,16.6763368 C10.1200277,16.6845053 10.1125875,16.6946947 10.1032449,16.7066947 L11.9052187,15.6784842 C11.7695612,15.7226526 11.6464592,15.764 11.54293,15.7993684 C11.1907449,15.9989053 10.5998805,16.3445053 10.125312,16.6763368" id="Fill-10"></path>
                        <path id="Fill-11" d="M8.66457434,16.8972632 C8.64483236,17.2037053 8.6934898,17.3789053 8.78344898,17.4632842 C8.7391035,17.4130105 8.70338192,17.3344421 8.68114577,17.2183579 C8.68114577,17.2183579 8.66922449,17.0980211 8.66457434,16.8972632"></path>
                        <path d="M9.54391691,17.1448421 C9.54391691,17.1448421 9.3169898,17.4082105 9.09255685,17.5036632 C9.46871137,17.3883789 9.97308309,16.8739368 10.1032449,16.7066947 L10.0003076,16.7654737 C9.81485131,16.9004211 9.65437901,17.0306105 9.54391691,17.1448421" id="Fill-12"></path>
                    </g>
                </g>
            </g>
        </g>
    </g>
</svg>