<?xml version="1.0" encoding="utf-8"?>
<!-- Generator: Adobe Illustrator 16.0.3, SVG Export Plug-In . SVG Version: 6.00 Build 0)  -->
<!DOCTYPE svg PUBLIC "-//W3C//DTD SVG 1.1//EN" "http://www.w3.org/Graphics/SVG/1.1/DTD/svg11.dtd">
<svg version="1.1" xmlns="http://www.w3.org/2000/svg" xmlns:xlink="http://www.w3.org/1999/xlink" x="0px" y="0px" width="50px"
	 height="50px" viewBox="0 0 50 50" enable-background="new 0 0 50 50" xml:space="preserve">
<g id="Layer_1" display="none">
	<g display="inline">
		<g>
			<path fill="#BDA770" d="M25.609,17.39c-9.005,0-16.305,7.3-16.305,16.303c0,9.006,7.3,16.307,16.305,16.307
				c9.006,0,16.307-7.301,16.307-16.307C41.916,24.69,34.613,17.39,25.609,17.39z M25.609,44.927c-6.192,0-11.23-5.038-11.23-11.233
				c0-6.189,5.038-11.229,11.23-11.229c6.193,0,11.23,5.039,11.23,11.229C36.839,39.889,31.8,44.927,25.609,44.927z"/>
			<path fill="#BDA770" d="M25.609,23.928c-5.476,0-9.927,4.383-9.927,9.766c0,5.387,4.452,9.77,9.927,9.77
				c5.473,0,9.926-4.383,9.926-9.77C35.535,28.311,31.081,23.928,25.609,23.928z"/>
		</g>
		<path fill="#BDA770" d="M47.372,49.027L47.372,49.027h-0.045c-1.54-0.01-1.706-0.452-1.702-0.645
			c0.01-0.131,0.92-11.599,0.966-18.798l0.063-11.029l0.062-0.061c0.226-0.219,0.546-0.18,0.856,0.155
			c1.152,1.226,2.712,6.466,2.429,10.907c-0.188,2.998-0.551,6.156-0.554,6.188l-0.018,0.16l-1,0.13
			c0.217,5.883,0.604,12.29,0.61,12.354C49.038,48.592,48.873,49.027,47.372,49.027z"/>
		<path fill="#BDA770" d="M5.973,28.807c0-0.672-0.312-9.196-0.339-9.684c0.006-0.055-0.02-0.478-0.19-0.664
			c-0.084-0.088-0.261-0.1-0.39-0.1c-0.248,0-0.284,0.093-0.355,0.182c-0.162,0.202-0.117,0.573-0.114,0.573l0.083,7.222H3.769
			l-0.083-7.213c0-0.055,0.01-0.45-0.157-0.633c-0.086-0.09-0.198-0.138-0.326-0.138c-0.218,0-0.349,0.094-0.42,0.171
			c-0.175,0.199-0.148,0.582-0.145,0.582l-0.165,7.23H1.572l0.165-7.197c0.005-0.027,0.005-0.383-0.13-0.606
			c-0.11-0.184-0.17-0.18-0.399-0.18c-0.136,0-0.281,0.074-0.375,0.155c-0.128,0.116-0.231,0.567-0.227,0.59
			c-0.021,0.513-0.339,9.036-0.339,9.708c0,0.883,1.344,1.573,2.114,1.726c-0.046,7.481-0.962,17.45-0.974,17.564l-0.003,0.05
			l0.017,0.045c0.037,0.096,0.294,0.576,1.7,0.576c1.403,0,1.663-0.48,1.701-0.578l0.016-0.043l-0.004-0.047
			c-0.199-2.688-0.361-4.75-0.493-6.428c-0.434-5.509-0.455-5.482-0.482-11.14C4.564,30.389,5.973,29.764,5.973,28.807z"/>
	</g>
</g>
<g id="Layer_2">
	<g>
		<path fill="none" d="M21.917,33.979L21.917,33.979L21.917,33.979z"/>
		<path fill="none" d="M21.046,37.423L21.046,37.423L21.046,37.423z"/>
		<path fill="#BDA770" d="M42.013,26.074c-2.784,0.252-5.383-0.613-5.608-0.691l0,0c0,0-0.005-0.002-0.011-0.005
			c-0.005,0-0.008,0-0.008,0l0,0c-0.229-0.065-2.849-0.869-4.973-2.688c0,0-2.62-1.712-3.785,0.554
			c-0.102,0.197-0.742,1.966-0.81,2.853c-0.085,0.293,0.16,1.497-1.953,4.614c-0.102,0.147-0.182,0.324-0.254,0.506
			c-0.448,0.969-1.182,3.003-0.821,5.427c0.019,0.228,0.032,0.453,0.036,0.681c0.016,0.899-0.167,1.786-0.159,2.685
			c0.01,1.144,0.243,2.284,0.669,3.346c0.323,0.803,0.848,1.498,1.314,2.224c0.434,0.677,0.844,1.378,1.387,1.978
			c0.477,0.53,1.059,0.987,1.756,1.186l0.136,0.038l0.131,0.046c0.682,0.243,1.425,0.207,2.123,0.054
			c0.784-0.175,1.529-0.51,2.271-0.809c0.801-0.322,1.631-0.583,2.361-1.053c0.961-0.617,1.813-1.412,2.483-2.34
			c0.525-0.723,0.892-1.556,1.423-2.277c0.138-0.184,0.279-0.359,0.426-0.533c1.699-1.767,2.28-3.854,2.474-4.899
			c0.048-0.188,0.084-0.379,0.087-0.562c0.084-3.764,0.983-4.601,1.087-4.888c0.453-0.764,0.955-2.576,0.986-2.797
			C45.141,26.199,42.013,26.074,42.013,26.074z M31.702,38.45c0.005,0.008,0.296,0.35,0.631,0.277
			c0.034-0.008,0.07-0.021,0.104-0.035c0.003-0.002,0.005-0.002,0.008-0.005c0.152-0.066,0.296-0.19,0.352-0.415l1.715-5.245
			c-0.185,0.653-1.147,4.883-1.147,4.883s1.519,0.577,0.616,1.808c0,0-0.252-0.582-0.885-0.436c0,0-0.435,0.262-0.937,0.282
			c-0.014,0.003-0.028,0.003-0.044,0.003c-0.002,0-0.007,0-0.014,0c-0.25-0.006-0.443-0.097-0.546-0.161
			c-0.449-0.306-0.679-0.83-0.679-0.83c-0.438-0.489-0.975-0.159-0.975-0.159c-0.022-1.525,1.549-1.116,1.549-1.116
			s1.664-4.005,1.896-4.642l-1.69,5.252C31.572,38.126,31.617,38.308,31.702,38.45z M27.156,31.703
			c-0.067-0.006,0.792-2.037,2.883-1.345c0.247,0.095,0.64,0.426,0.9,0.704c0.438,0.512,1.045,1.894,0.446,3.342
			C31.245,34.174,30.023,31.898,27.156,31.703z M30.728,28.34c0.507,0.138,1.077,0.403,1.619,0.912l0,0
			c0.596,0.565,1.099,1.578,0.828,2.538c0,0-1.429-4.215-6.081-2.371C27.094,29.419,28.201,27.862,30.728,28.34z M36.516,41.973
			c0,0-2.909,3.952-6.262,3.403c-0.374-0.071-0.679-0.205-0.865-0.301c-2.924-1.567-3.003-6.335-3.003-6.335
			c0.094-1.289,1.439-0.044,1.439-0.044c0.746,0.617,2.633,1.457,3.563,1.852c0.988,0.218,3.013,0.624,3.977,0.557
			C35.366,41.104,37.185,40.867,36.516,41.973z M40,35.803c-2.332-1.43-5.013-0.248-5.013-0.248
			c0.351-1.528,1.616-2.366,2.271-2.529c0.373-0.076,0.72-0.026,0.977,0.041C40.342,33.711,40.055,35.841,40,35.803z M35.059,32.391
			c0.331-0.938,1.304-1.452,2.117-1.569l0,0c0.734-0.104,1.354,0.01,1.845,0.194c2.335,1.074,2.364,2.967,2.364,2.967
			C38.662,29.78,35.059,32.391,35.059,32.391z"/>
		<path d="M27.202,31.854v0.088C27.205,31.891,27.205,31.861,27.202,31.854z"/>
		<path fill="#FFFFFF" d="M21.595,33.852c0.108,0.038,0.216,0.082,0.322,0.129C21.819,33.928,21.709,33.887,21.595,33.852z"/>
		<path fill="#FFFFFF" d="M21.046,37.423l1.403-0.377c0-0.015,0-0.027,0-0.04C21.965,37.131,21.463,37.287,21.046,37.423z"/>
		<path fill="#FFFFFF" d="M22.668,34.357c0.011-0.079,0.023-0.158,0.035-0.232l-0.786-0.145C22.178,34.09,22.43,34.22,22.668,34.357
			z"/>
		<g>
			<path fill="none" d="M21.726,22.458c0,0-1.175-1.261-3.63-0.495c-0.486,0.191-1.024,0.52-1.502,1.088l0,0
				c-0.526,0.632-1.016,1.538-0.636,2.458C15.956,25.509,16.891,21.157,21.726,22.458z"/>
			<path d="M22.668,34.357c0.011-0.079,0.023-0.158,0.035-0.232l-0.786-0.145C22.178,34.09,22.43,34.22,22.668,34.357z"/>
			<path d="M21.046,37.423l1.403-0.377c0-0.015,0-0.027,0-0.04C21.965,37.131,21.463,37.287,21.046,37.423z"/>
			<path fill="none" d="M21.046,37.423L21.046,37.423L21.046,37.423z"/>
			<path fill="none" d="M21.917,33.979L21.917,33.979L21.917,33.979z"/>
			<path fill="none" d="M21.595,33.852c0.108,0.038,0.216,0.082,0.322,0.129C21.819,33.928,21.709,33.887,21.595,33.852z"/>
			<path fill="none" d="M18.391,30.743c0,0-2.112-3.787-2.416-4.392l2.238,5.053c0.108,0.203,0.085,0.393,0.014,0.544
				c-0.001,0.001-0.002,0.005-0.004,0.006c-0.015,0.036-0.033,0.067-0.052,0.099c-0.201,0.279-0.647,0.216-0.654,0.215
				c-0.161-0.05-0.313-0.155-0.394-0.371l-2.257-5.044c0.255,0.627,1.698,4.716,1.698,4.716s-1.442,0.749-0.405,1.867
				c0,0,0.18-0.607,0.829-0.535c0,0,0.525,0.24,1.064,0.166c0.119-0.021,0.322-0.08,0.513-0.248c0.002-0.004,0.006-0.007,0.01-0.01
				c0.011-0.007,0.02-0.019,0.033-0.027c0.356-0.354,0.502-0.838,0.502-0.838c0.376-0.531,0.948-0.268,0.948-0.268
				C19.905,30.157,18.391,30.743,18.391,30.743z"/>
			<path fill="none" d="M18.871,23.786c-0.236,0.12-0.777,0.528-1.005,0.833c-0.376,0.561-0.607,1.921,0.157,3.29
				c0,0,1.199-2.672,3.892-3.166C21.98,24.728,20.869,22.852,18.871,23.786z"/>
			<path fill="none" d="M14.155,26.323c-0.439-0.897-1.527-1.21-2.35-1.236l0,0c-0.74-0.015-1.256,0.254-1.724,0.491
				c-2.199,1.336-2.03,3.048-2.03,3.048C10.272,24.142,14.155,26.323,14.155,26.323z"/>
			<path fill="none" d="M12.067,27.275c-0.381-0.028-0.804-0.027-1.051,0.066c-2.019,0.882-1.444,2.986-1.391,2.943
				c2.152-1.688,4.951-0.821,4.951-0.821C13.979,27.78,12.581,27.342,12.067,27.275z"/>
			<path fill="none" d="M16.701,39.917c0.114,0.134,0.271,0.124,0.43,0.058C16.959,40.026,16.808,40.019,16.701,39.917z"/>
			<polygon fill="none" points="16.535,39.124 16.535,39.126 16.535,39.125 			"/>
			<path fill="none" d="M19.625,33.589c-0.165,0.022-0.327,0.054-0.49,0.099c-0.305,0.098-0.546,0.235-0.69,0.335
				c-1.711,1.188-1.914,3.72-1.912,4.911C16.535,38.019,16.716,34.134,19.625,33.589z"/>
			<path fill="none" d="M19.627,33.589c0.001,0,1.17,0.009,1.968,0.262C20.974,33.623,20.302,33.502,19.627,33.589z"/>
			<path fill="#BDA770" d="M25.662,25.628c-0.261-0.653-0.545-1.178-0.764-1.539c-0.094-0.172-0.193-0.34-0.312-0.476
				c-2.457-2.853-2.349-4.077-2.466-4.359c-0.173-0.872-1.009-2.555-1.133-2.74c-1.417-2.116-3.824-0.112-3.824-0.112
				c-1.902,2.047-4.412,3.145-4.631,3.237l0,0c0,0-0.004,0.003-0.009,0.005c-0.004,0.003-0.007,0.003-0.007,0.003l0,0
				c-0.216,0.102-2.7,1.26-5.495,1.331c0,0-3.093,0.479-2.444,2.94c0.057,0.217,0.763,1.958,1.303,2.665
				c0.135,0.274,1.123,1.003,1.636,4.732c0.026,0.182,0.083,0.363,0.153,0.55c0.311,1.016,1.131,3.021,3.018,4.58
				c0.166,0.159,0.327,0.315,0.482,0.483c0.613,0.656,1.073,1.438,1.678,2.099c0.773,0.846,1.708,1.535,2.734,2.037
				c0.782,0.386,1.636,0.548,2.466,0.778c0.774,0.21,1.55,0.459,2.352,0.542c0.711,0.071,1.45,0.023,2.102-0.298l0.124-0.063
				l0.128-0.051c0.043-0.019,0.087-0.037,0.129-0.056c-0.343-1.797-0.457-3.43-0.43-4.874l-1.403,0.376l0,0l-2.507,1.438
				c-0.183,0.232-0.886,0.952-1.41,1.114c-0.157,0.065-0.314,0.074-0.43-0.059c-0.126-0.117-0.193-0.362-0.166-0.79
				c0-0.002,0-0.002,0-0.002c0-0.007-0.003-0.074-0.002-0.193c-0.003-1.189,0.201-3.721,1.911-4.911
				c0.145-0.097,0.386-0.235,0.69-0.331c0.165-0.049,0.327-0.079,0.491-0.099l0,0h0.001c0.676-0.088,1.346,0.031,1.968,0.26
				c0.115,0.035,0.225,0.079,0.323,0.13l0,0l0.785,0.144c0.443-2.768,1.303-4.327,1.303-4.327
				C24.938,28.535,25.419,26.883,25.662,25.628z M16.509,22.964l0.083-0.168c0.479-0.566,1.017-0.896,1.502-1.086
				c2.455-0.768,3.63,0.749,3.63,0.749c-4.834-1.302-5.768,3.05-5.768,3.05C15.577,24.589,15.982,23.598,16.509,22.964z
				 M8.051,28.626c0,0-0.251-1.798,1.948-3.132c0.466-0.238,1.067-0.421,1.807-0.408l0,0c0.824,0.027,1.911,0.339,2.351,1.235
				C14.155,26.323,10.272,24.142,8.051,28.626z M9.625,30.285c-0.054,0.04-0.628-2.062,1.391-2.943
				c0.249-0.094,0.67-0.095,1.051-0.066c0.514,0.066,1.913,0.505,2.51,2.188C14.577,29.464,11.778,28.597,9.625,30.285z
				 M19.108,31.943c0,0-0.148,0.484-0.503,0.838c-0.013,0.01-0.021,0.021-0.032,0.027c-0.004,0.003-0.008,0.006-0.011,0.01
				c-0.19,0.168-0.394,0.227-0.512,0.248c-0.539,0.074-1.064-0.166-1.064-0.166c-0.649-0.072-0.829,0.535-0.829,0.535
				c-1.038-1.118,0.404-1.867,0.404-1.867s-1.442-4.09-1.698-4.716l2.258,5.044c0.081,0.216,0.233,0.321,0.395,0.372
				c0.006,0.001,0.453,0.064,0.654-0.215c0.019-0.032,0.037-0.062,0.052-0.098c0.002-0.002,0.002-0.004,0.004-0.007
				c0.072-0.152,0.093-0.341-0.014-0.541l-2.238-5.055c0.304,0.604,2.416,4.393,2.416,4.393s1.514-0.588,1.665,0.93
				C20.056,31.676,19.483,31.411,19.108,31.943z M21.915,24.743c-2.693,0.494-3.892,3.166-3.892,3.166
				c-0.764-1.368-0.533-2.729-0.157-3.29c0.228-0.305,0.515-0.669,0.752-0.793C20.616,22.895,21.98,24.728,21.915,24.743z"/>
			<path fill="#FFFFFF" d="M19.627,33.589h-0.001H19.627z"/>
			<path d="M18.567,38.818c-0.007,0.011-0.018,0.027-0.03,0.042l2.508-1.438c-0.19,0.063-0.362,0.122-0.504,0.173
				C20.051,37.872,19.229,38.354,18.567,38.818z"/>
			<path d="M16.535,39.126c-0.027,0.429,0.04,0.673,0.166,0.791c-0.063-0.068-0.112-0.181-0.142-0.34
				C16.559,39.577,16.542,39.405,16.535,39.126z"/>
			<path d="M17.759,39.471c0,0-0.317,0.37-0.629,0.504c0.523-0.16,1.227-0.881,1.408-1.114l-0.145,0.085
				C18.136,39.131,17.912,39.313,17.759,39.471z"/>
		</g>
	</g>
</g>
</svg>
