<?xml version="1.0" encoding="utf-8"?>
<!-- Generator: Adobe Illustrator 16.0.3, SVG Export Plug-In . SVG Version: 6.00 Build 0)  -->
<!DOCTYPE svg PUBLIC "-//W3C//DTD SVG 1.1//EN" "http://www.w3.org/Graphics/SVG/1.1/DTD/svg11.dtd">
<svg version="1.1" id="Layer_1" xmlns="http://www.w3.org/2000/svg" xmlns:xlink="http://www.w3.org/1999/xlink" x="0px" y="0px"
	 width="50px" height="100px" viewBox="0 0 50 100" enable-background="new 0 0 50 100" xml:space="preserve">
<g>
	<path fill="#FFFFFF" d="M42.799,71.367v-4.932c0-0.067-0.062-0.124-0.141-0.124h-5.896c-0.078,0-0.143,0.057-0.143,0.124v4.932
		H42.799z"/>
	<path fill="#FFFFFF" d="M27.787,67.988h-0.199v-1.625c0-0.721-0.523-1.323-1.207-1.453v-0.751h-0.932v-2.858h0.334v-0.705
		c2.025-0.109,4.053-0.22,6.078-0.328c0.314-0.389,0.629-0.756,0.941-1.099c-3.803-0.205-7.604-0.41-11.406-0.615
		c0.314,0.764,0.627,1.508,0.941,2.229c0.373-0.02,0.746-0.04,1.119-0.061v0.579h0.336v2.858h-0.93v0.751
		c-0.686,0.13-1.209,0.732-1.209,1.453v1.625h-0.201c-2.508,0-4.545,2.224-4.545,4.969v2.139c0,0.094,0.008,0.188,0.014,0.28
		c-0.004,0.047-0.014,0.092-0.014,0.14v14.371c0,0.818,0.613,1.489,1.363,1.489h12.697c0.748,0,1.363-0.671,1.363-1.489V75.516
		c0-0.048-0.01-0.093-0.014-0.14c0.006-0.094,0.014-0.187,0.014-0.281v-2.138l0,0C32.332,70.212,30.297,67.988,27.787,67.988z"/>
	<polygon fill="#FFFFFF" points="11.605,68.028 8.266,68.028 8.533,64.958 11.336,64.958 	"/>
	<polygon fill="#FFFFFF" points="13.271,71.367 6.598,71.367 8.266,68.863 11.605,68.863 	"/>
	<rect x="5.764" y="89.716" fill="#FFFFFF" width="8.344" height="1.67"/>
	<path fill="#FFFFFF" d="M13.271,72.199H6.598L5.764,88.883h8.344L13.271,72.199z"/>
	<g>
		<path fill="#FFFFFF" d="M44.236,77.762v-2.078c0-1.518-0.863-2.829-2.121-3.484h-4.811c-1.26,0.655-2.121,1.967-2.121,3.484v2.078
			H44.236z"/>
		<path fill="#FFFFFF" d="M35.184,84.564v5.903h0.006c0.002,0.01,0.006,0.022,0.01,0.031c0.002,0.007,0.004,0.014,0.006,0.021
			c0.004,0.009,0.012,0.02,0.016,0.027c0.006,0.009,0.008,0.015,0.014,0.023c0.006,0.008,0.014,0.019,0.02,0.026
			c0.008,0.008,0.012,0.016,0.018,0.022c0.008,0.008,0.018,0.019,0.027,0.026c0.008,0.008,0.014,0.015,0.023,0.023
			c0.008,0.008,0.02,0.017,0.029,0.025c0.01,0.008,0.02,0.015,0.029,0.021c0.01,0.009,0.023,0.018,0.035,0.025
			c0.012,0.009,0.021,0.016,0.033,0.023c0.014,0.008,0.027,0.017,0.041,0.022c0.014,0.008,0.025,0.018,0.039,0.023
			c0.014,0.008,0.029,0.016,0.043,0.023c0.016,0.007,0.029,0.015,0.045,0.021c0.016,0.008,0.031,0.014,0.047,0.022
			c0.018,0.006,0.033,0.015,0.051,0.021c0.016,0.009,0.033,0.016,0.051,0.021c0.018,0.007,0.035,0.016,0.055,0.021
			c0.018,0.006,0.037,0.013,0.057,0.021c0.02,0.006,0.037,0.013,0.059,0.02c0.018,0.007,0.039,0.014,0.059,0.019
			c0.021,0.008,0.041,0.016,0.064,0.021c0.02,0.006,0.041,0.013,0.062,0.02c0.021,0.006,0.045,0.013,0.068,0.02
			c0.021,0.008,0.043,0.012,0.064,0.019c0.025,0.006,0.049,0.014,0.074,0.02c0.021,0.006,0.045,0.012,0.068,0.017
			c0.025,0.007,0.051,0.013,0.078,0.018c0.023,0.008,0.047,0.012,0.072,0.017c0.025,0.006,0.053,0.012,0.08,0.019
			c0.025,0.005,0.051,0.01,0.076,0.015c0.027,0.007,0.055,0.012,0.084,0.019c0.025,0.005,0.053,0.009,0.08,0.015
			c0.027,0.005,0.057,0.009,0.088,0.015c0.027,0.005,0.053,0.01,0.08,0.015c0.031,0.005,0.062,0.01,0.094,0.015
			c0.027,0.003,0.055,0.008,0.082,0.013c0.033,0.006,0.064,0.008,0.098,0.015c0.027,0.004,0.055,0.007,0.084,0.011
			c0.033,0.005,0.066,0.01,0.1,0.013c0.029,0.005,0.059,0.009,0.088,0.012c0.035,0.005,0.07,0.008,0.104,0.013
			c0.029,0.002,0.061,0.008,0.09,0.011c0.035,0.003,0.072,0.006,0.107,0.01c0.031,0.003,0.061,0.006,0.09,0.009
			c0.037,0.006,0.074,0.007,0.111,0.011c0.031,0.002,0.061,0.005,0.094,0.009c0.037,0.001,0.074,0.004,0.113,0.008
			c0.029,0.002,0.062,0.005,0.094,0.007c0.039,0.003,0.078,0.005,0.117,0.008c0.031,0.002,0.062,0.003,0.094,0.006
			c0.041,0.003,0.082,0.005,0.123,0.007c0.031,0.001,0.062,0.001,0.094,0.004c0.043,0.002,0.084,0.004,0.127,0.005
			c0.031,0.003,0.061,0.004,0.092,0.006c0.047,0,0.092,0.001,0.137,0.002c0.029,0,0.059,0.002,0.088,0.002
			c0.049,0.002,0.1,0.004,0.15,0.004c0.025,0,0.051,0.001,0.076,0.001c0.076,0,0.152,0.002,0.229,0.002
			c0.078,0,0.154-0.002,0.23-0.002c0.023,0,0.049-0.001,0.074-0.001c0.051,0,0.102-0.002,0.152-0.004
			c0.029,0,0.057-0.002,0.086-0.002c0.047-0.001,0.092-0.002,0.137-0.002c0.031-0.002,0.062-0.003,0.094-0.006
			c0.041-0.001,0.084-0.003,0.127-0.005c0.031-0.003,0.062-0.003,0.094-0.004c0.041-0.002,0.082-0.004,0.121-0.007
			c0.033-0.003,0.062-0.004,0.094-0.006c0.041-0.003,0.08-0.005,0.119-0.008c0.031-0.002,0.062-0.005,0.094-0.007
			c0.039-0.004,0.076-0.007,0.113-0.008c0.031-0.004,0.062-0.007,0.092-0.009c0.039-0.004,0.074-0.005,0.111-0.011
			c0.031-0.003,0.061-0.006,0.092-0.009c0.035-0.004,0.07-0.007,0.107-0.01c0.029-0.003,0.059-0.009,0.09-0.011
			c0.033-0.005,0.068-0.008,0.102-0.013c0.029-0.003,0.059-0.007,0.088-0.012c0.035-0.003,0.068-0.008,0.102-0.013
			c0.027-0.004,0.055-0.007,0.084-0.011c0.033-0.007,0.064-0.009,0.098-0.015c0.027-0.005,0.055-0.01,0.082-0.013
			c0.031-0.005,0.062-0.01,0.094-0.015c0.027-0.005,0.053-0.01,0.078-0.015c0.031-0.006,0.061-0.01,0.092-0.015
			c0.025-0.006,0.051-0.01,0.076-0.015c0.029-0.007,0.059-0.012,0.086-0.019c0.025-0.005,0.051-0.01,0.074-0.015
			c0.029-0.007,0.055-0.013,0.082-0.019c0.023-0.005,0.049-0.009,0.072-0.017c0.025-0.005,0.053-0.011,0.078-0.018
			c0.023-0.005,0.045-0.011,0.068-0.017s0.049-0.014,0.072-0.02c0.023-0.007,0.043-0.011,0.066-0.019
			c0.023-0.007,0.047-0.014,0.068-0.02c0.021-0.007,0.041-0.014,0.062-0.02s0.043-0.014,0.064-0.021
			c0.02-0.005,0.039-0.012,0.059-0.019s0.039-0.014,0.059-0.021c0.02-0.007,0.037-0.014,0.057-0.02
			c0.018-0.006,0.037-0.015,0.055-0.021c0.016-0.006,0.033-0.013,0.051-0.021c0.018-0.007,0.033-0.016,0.049-0.021
			c0.018-0.009,0.033-0.015,0.049-0.021c0.016-0.008,0.029-0.016,0.045-0.022c0.014-0.008,0.029-0.016,0.043-0.023
			s0.027-0.016,0.039-0.023c0.014-0.008,0.027-0.015,0.039-0.022c0.014-0.008,0.023-0.015,0.037-0.023
			c0.01-0.008,0.021-0.017,0.031-0.025c0.012-0.007,0.021-0.014,0.031-0.021c0.01-0.009,0.02-0.018,0.029-0.025
			c0.008-0.009,0.016-0.016,0.025-0.025c0.008-0.008,0.016-0.017,0.023-0.024c0.006-0.008,0.014-0.016,0.02-0.024
			c0.006-0.008,0.014-0.017,0.02-0.024c0.004-0.009,0.008-0.017,0.014-0.025c0.004-0.007,0.01-0.019,0.014-0.025
			c0.004-0.01,0.006-0.017,0.01-0.025c0.002-0.009,0.006-0.018,0.008-0.026h0.006v-5.903H35.184z"/>
		<rect x="35.184" y="78.596" fill="#FFFFFF" width="9.053" height="5.135"/>
	</g>
</g>
<g>
	<path fill="#999999" d="M42.799,21.367v-4.932c0-0.067-0.062-0.124-0.141-0.124h-5.896c-0.078,0-0.143,0.057-0.143,0.124v4.932
		H42.799z"/>
	<path fill="#999999" d="M27.787,17.988h-0.199v-1.625c0-0.721-0.523-1.323-1.207-1.453v-0.751h-0.932v-2.858h0.334v-0.705
		c2.025-0.109,4.053-0.22,6.078-0.328c0.314-0.389,0.629-0.756,0.941-1.099C29,8.964,25.199,8.759,21.396,8.554
		c0.314,0.764,0.627,1.508,0.941,2.229c0.373-0.02,0.746-0.04,1.119-0.061v0.579h0.336v2.858h-0.93v0.751
		c-0.686,0.13-1.209,0.732-1.209,1.453v1.625h-0.201c-2.508,0-4.545,2.224-4.545,4.969v2.139c0,0.094,0.008,0.188,0.014,0.28
		c-0.004,0.047-0.014,0.092-0.014,0.14v14.371c0,0.818,0.613,1.489,1.363,1.489h12.697c0.748,0,1.363-0.671,1.363-1.489V25.516
		c0-0.048-0.01-0.093-0.014-0.14c0.006-0.094,0.014-0.187,0.014-0.281v-2.138l0,0C32.332,20.212,30.297,17.988,27.787,17.988z"/>
	<polygon fill="#999999" points="11.605,18.028 8.266,18.028 8.533,14.958 11.336,14.958 	"/>
	<polygon fill="#999999" points="13.271,21.367 6.598,21.367 8.266,18.863 11.605,18.863 	"/>
	<rect x="5.764" y="39.716" fill="#999999" width="8.344" height="1.67"/>
	<path fill="#999999" d="M13.271,22.199H6.598L5.764,38.883h8.344L13.271,22.199z"/>
	<g>
		<path fill="#999999" d="M44.236,27.762v-2.078c0-1.518-0.863-2.829-2.121-3.484h-4.811c-1.26,0.655-2.121,1.967-2.121,3.484v2.078
			H44.236z"/>
		<path fill="#999999" d="M35.184,34.564v5.903h0.006c0.002,0.01,0.006,0.022,0.01,0.031c0.002,0.007,0.004,0.014,0.006,0.021
			c0.004,0.009,0.012,0.02,0.016,0.027c0.006,0.009,0.008,0.015,0.014,0.023c0.006,0.008,0.014,0.019,0.02,0.026
			c0.008,0.008,0.012,0.016,0.018,0.022c0.008,0.008,0.018,0.019,0.027,0.026c0.008,0.008,0.014,0.015,0.023,0.023
			c0.008,0.008,0.02,0.017,0.029,0.025c0.01,0.008,0.02,0.015,0.029,0.021c0.01,0.009,0.023,0.018,0.035,0.025
			c0.012,0.009,0.021,0.016,0.033,0.023c0.014,0.008,0.027,0.017,0.041,0.022c0.014,0.008,0.025,0.018,0.039,0.023
			c0.014,0.008,0.029,0.016,0.043,0.023c0.016,0.007,0.029,0.015,0.045,0.021c0.016,0.008,0.031,0.014,0.047,0.022
			c0.018,0.006,0.033,0.015,0.051,0.021c0.016,0.009,0.033,0.016,0.051,0.021c0.018,0.007,0.035,0.016,0.055,0.021
			c0.018,0.006,0.037,0.013,0.057,0.021c0.02,0.006,0.037,0.013,0.059,0.02c0.018,0.007,0.039,0.014,0.059,0.019
			c0.021,0.008,0.041,0.016,0.064,0.021c0.02,0.006,0.041,0.013,0.062,0.02c0.021,0.006,0.045,0.013,0.068,0.02
			c0.021,0.008,0.043,0.012,0.064,0.019c0.025,0.006,0.049,0.014,0.074,0.02c0.021,0.006,0.045,0.012,0.068,0.017
			c0.025,0.007,0.051,0.013,0.078,0.018c0.023,0.008,0.047,0.012,0.072,0.017c0.025,0.006,0.053,0.012,0.08,0.019
			c0.025,0.005,0.051,0.01,0.076,0.015c0.027,0.007,0.055,0.012,0.084,0.019c0.025,0.005,0.053,0.009,0.08,0.015
			c0.027,0.005,0.057,0.009,0.088,0.015c0.027,0.005,0.053,0.01,0.08,0.015c0.031,0.005,0.062,0.01,0.094,0.015
			c0.027,0.003,0.055,0.008,0.082,0.013c0.033,0.006,0.064,0.008,0.098,0.015c0.027,0.004,0.055,0.007,0.084,0.011
			c0.033,0.005,0.066,0.01,0.1,0.013c0.029,0.005,0.059,0.009,0.088,0.012c0.035,0.005,0.07,0.008,0.104,0.013
			c0.029,0.002,0.061,0.008,0.09,0.011c0.035,0.003,0.072,0.006,0.107,0.01c0.031,0.003,0.061,0.006,0.09,0.009
			c0.037,0.006,0.074,0.007,0.111,0.011c0.031,0.002,0.061,0.005,0.094,0.009c0.037,0.001,0.074,0.004,0.113,0.008
			c0.029,0.002,0.062,0.005,0.094,0.007c0.039,0.003,0.078,0.005,0.117,0.008c0.031,0.002,0.062,0.003,0.094,0.006
			c0.041,0.003,0.082,0.005,0.123,0.007c0.031,0.001,0.062,0.001,0.094,0.004c0.043,0.002,0.084,0.004,0.127,0.005
			c0.031,0.003,0.061,0.004,0.092,0.006c0.047,0,0.092,0.001,0.137,0.002c0.029,0,0.059,0.002,0.088,0.002
			c0.049,0.002,0.1,0.004,0.15,0.004c0.025,0,0.051,0.001,0.076,0.001c0.076,0,0.152,0.002,0.229,0.002
			c0.078,0,0.154-0.002,0.23-0.002c0.023,0,0.049-0.001,0.074-0.001c0.051,0,0.102-0.002,0.152-0.004
			c0.029,0,0.057-0.002,0.086-0.002c0.047-0.001,0.092-0.002,0.137-0.002c0.031-0.002,0.062-0.003,0.094-0.006
			c0.041-0.001,0.084-0.003,0.127-0.005c0.031-0.003,0.062-0.003,0.094-0.004c0.041-0.002,0.082-0.004,0.121-0.007
			c0.033-0.003,0.062-0.004,0.094-0.006c0.041-0.003,0.08-0.005,0.119-0.008c0.031-0.002,0.062-0.005,0.094-0.007
			c0.039-0.004,0.076-0.007,0.113-0.008c0.031-0.004,0.062-0.007,0.092-0.009c0.039-0.004,0.074-0.005,0.111-0.011
			c0.031-0.003,0.061-0.006,0.092-0.009c0.035-0.004,0.07-0.007,0.107-0.01c0.029-0.003,0.059-0.009,0.09-0.011
			c0.033-0.005,0.068-0.008,0.102-0.013c0.029-0.003,0.059-0.007,0.088-0.012c0.035-0.003,0.068-0.008,0.102-0.013
			c0.027-0.004,0.055-0.007,0.084-0.011c0.033-0.007,0.064-0.009,0.098-0.015c0.027-0.005,0.055-0.01,0.082-0.013
			c0.031-0.005,0.062-0.01,0.094-0.015c0.027-0.005,0.053-0.01,0.078-0.015c0.031-0.006,0.061-0.01,0.092-0.015
			c0.025-0.006,0.051-0.01,0.076-0.015c0.029-0.007,0.059-0.012,0.086-0.019c0.025-0.005,0.051-0.01,0.074-0.015
			c0.029-0.007,0.055-0.013,0.082-0.019c0.023-0.005,0.049-0.009,0.072-0.017c0.025-0.005,0.053-0.011,0.078-0.018
			c0.023-0.005,0.045-0.011,0.068-0.017s0.049-0.014,0.072-0.02c0.023-0.007,0.043-0.011,0.066-0.019
			c0.023-0.007,0.047-0.014,0.068-0.02c0.021-0.007,0.041-0.014,0.062-0.02s0.043-0.014,0.064-0.021
			c0.02-0.005,0.039-0.012,0.059-0.019s0.039-0.014,0.059-0.021c0.02-0.007,0.037-0.014,0.057-0.02
			c0.018-0.006,0.037-0.015,0.055-0.021c0.016-0.006,0.033-0.013,0.051-0.021c0.018-0.007,0.033-0.016,0.049-0.021
			c0.018-0.009,0.033-0.015,0.049-0.021c0.016-0.008,0.029-0.016,0.045-0.022c0.014-0.008,0.029-0.016,0.043-0.023
			s0.027-0.016,0.039-0.023c0.014-0.008,0.027-0.015,0.039-0.022c0.014-0.008,0.023-0.015,0.037-0.023
			c0.01-0.008,0.021-0.017,0.031-0.025c0.012-0.007,0.021-0.014,0.031-0.021c0.01-0.009,0.02-0.018,0.029-0.025
			c0.008-0.009,0.016-0.016,0.025-0.025c0.008-0.008,0.016-0.017,0.023-0.024c0.006-0.008,0.014-0.016,0.02-0.024
			c0.006-0.008,0.014-0.017,0.02-0.024c0.004-0.009,0.008-0.017,0.014-0.025c0.004-0.007,0.01-0.019,0.014-0.025
			c0.004-0.01,0.006-0.017,0.01-0.025c0.002-0.009,0.006-0.018,0.008-0.026h0.006v-5.903H35.184z"/>
		<rect x="35.184" y="28.596" fill="#999999" width="9.053" height="5.135"/>
	</g>
</g>
</svg>
