<?xml version="1.0" encoding="utf-8"?>
<!-- Generator: Adobe Illustrator 15.1.0, SVG Export Plug-In . SVG Version: 6.00 Build 0)  -->
<!DOCTYPE svg PUBLIC "-//W3C//DTD SVG 1.1//EN" "http://www.w3.org/Graphics/SVG/1.1/DTD/svg11.dtd">
<svg version="1.1" xmlns="http://www.w3.org/2000/svg" xmlns:xlink="http://www.w3.org/1999/xlink" x="0px" y="0px" width="50px"
	 height="100px" viewBox="0 0 50 100" enable-background="new 0 0 50 100" xml:space="preserve">
<g id="Layer_2">
</g>
<g id="Layer_1">
	<g>
		<defs>
			<rect id="SVGID_1_" width="50" height="50"/>
		</defs>
		<clipPath id="SVGID_2_">
			<use xlink:href="#SVGID_1_"  overflow="visible"/>
		</clipPath>
		<path clip-path="url(#SVGID_2_)" fill="#FFFFFF" d="M48.092,10.582V34.19c0,3.783-2.004,6.204-3.525,7.57
			c-1.137,1.022-2.418,1.613-3.029,1.885c0.104,0.543-0.205,1.103-0.732,1.327l-7.488,3.176c-0.605,0.258-1.313-0.027-1.57-0.638
			l-0.563-1.325c-0.258-0.609,0.02-1.313,0.629-1.57l7.461-3.177c0.484-0.205,0.955-0.064,1.285,0.312
			c1.113-0.487,4.898-2.545,4.898-7.56V10.688c-0.66-0.319-1.98-1.259-2.244-2.517c-0.373-1.793,0.857-3.553,2.643-3.928
			c1.785-0.377,3.695,0.772,4.07,2.566C50.262,8.424,49.41,10.006,48.092,10.582"/>
		<path clip-path="url(#SVGID_2_)" fill="#FFFFFF" d="M20.97,19.091c-0.91,0-1.648,0.741-1.648,1.655
			c0,0.915,0.737,1.656,1.648,1.656c0.91,0,1.648-0.741,1.648-1.656C22.618,19.832,21.88,19.091,20.97,19.091"/>
		<path clip-path="url(#SVGID_2_)" fill="#FFFFFF" d="M20.97,0C9.563,0,0.318,9.289,0.318,20.747
			c0,11.457,9.245,20.746,20.651,20.746c11.405,0,20.651-9.289,20.651-20.746C41.621,9.289,32.375,0,20.97,0 M20.97,27.768
			c-3.859,0-6.988-3.143-6.988-7.021s3.129-7.021,6.988-7.021s6.987,3.143,6.987,7.021S24.829,27.768,20.97,27.768"/>
		<rect y="45.367" clip-path="url(#SVGID_2_)" fill="#FFFFFF" width="8.564" height="4.633"/>
		<rect x="12.517" y="45.367" clip-path="url(#SVGID_2_)" fill="#FFFFFF" width="8.564" height="4.633"/>
	</g>
	<g>
		<path fill="none" d="M20.969,77.768c3.859,0,6.988-3.143,6.988-7.021c0-3.877-3.129-7.02-6.988-7.02s-6.988,3.143-6.988,7.02
			C13.98,74.625,17.109,77.768,20.969,77.768z M20.969,69.09c0.91,0,1.648,0.742,1.648,1.656s-0.738,1.656-1.648,1.656
			s-1.648-0.742-1.648-1.656S20.059,69.09,20.969,69.09z"/>
		<path fill="#BDA770" d="M49.927,56.811c-0.375-1.795-2.285-2.943-4.07-2.566c-1.786,0.375-3.017,2.135-2.644,3.928
			c0.264,1.258,1.585,2.197,2.245,2.516v23.504c0,5.014-3.786,7.07-4.899,7.559c-0.33-0.375-0.801-0.516-1.285-0.313l-7.461,3.178
			c-0.609,0.258-0.887,0.961-0.629,1.57l0.563,1.326c0.258,0.609,0.965,0.895,1.57,0.637l7.488-3.176
			c0.527-0.225,0.836-0.785,0.732-1.328c0.611-0.27,1.893-0.861,3.029-1.883c1.522-1.367,3.526-3.789,3.526-7.57V60.582
			C49.411,60.006,50.263,58.424,49.927,56.811z"/>
		<ellipse fill="#BDA770" cx="20.969" cy="70.746" rx="1.648" ry="1.656"/>
		<path fill="#BDA770" d="M20.969,91.492c11.406,0,20.652-9.289,20.652-20.746S32.375,50,20.969,50s-20.65,9.289-20.65,20.746
			S9.563,91.492,20.969,91.492z M20.969,63.727c3.859,0,6.988,3.143,6.988,7.02c0,3.879-3.129,7.021-6.988,7.021
			s-6.988-3.143-6.988-7.021C13.98,66.869,17.109,63.727,20.969,63.727z"/>
		<rect y="95.367" fill="#BDA770" width="8.564" height="4.633"/>
		<rect x="12.516" y="95.367" fill="#BDA770" width="8.566" height="4.633"/>
	</g>
</g>
</svg>
