<?xml version="1.0" encoding="utf-8"?>
<!-- Generator: Adobe Illustrator 16.0.3, SVG Export Plug-In . SVG Version: 6.00 Build 0)  -->
<!DOCTYPE svg PUBLIC "-//W3C//DTD SVG 1.1//EN" "http://www.w3.org/Graphics/SVG/1.1/DTD/svg11.dtd">
<svg version="1.1" id="Layer_1" xmlns="http://www.w3.org/2000/svg" xmlns:xlink="http://www.w3.org/1999/xlink" x="0px" y="0px"
	 width="50px" height="50px" viewBox="0 0 50 50" enable-background="new 0 0 50 50" xml:space="preserve">
<g>
	<g>
		<path fill="#BDA770" d="M43.717,25c-1.656,0-3,1.343-3,3c0,0.655,0.217,1.256,0.572,1.75c-0.484,4.688-2.882,8.812-6.396,11.587
			c-0.156,0.123-0.318,0.24-0.479,0.358c-0.081,0.061-0.16,0.123-0.242,0.183c-0.3,0.212-0.608,0.408-0.923,0.601
			c-0.13,0.08-0.26,0.162-0.393,0.239c-0.291,0.167-0.586,0.324-0.888,0.476c-0.172,0.087-0.346,0.171-0.521,0.252
			c-0.28,0.128-0.562,0.25-0.85,0.363c-0.216,0.084-0.433,0.161-0.65,0.237c-0.266,0.093-0.531,0.185-0.803,0.263
			c-0.262,0.077-0.526,0.142-0.793,0.205c-0.244,0.06-0.484,0.121-0.732,0.17c-0.326,0.062-0.659,0.106-0.992,0.15
			c-0.199,0.027-0.396,0.062-0.598,0.083C25.488,44.969,24.941,45,24.388,45c-0.002,0-0.003,0-0.004,0c0,0,0,0-0.001,0
			c0,0-0.001,0-0.002,0c-0.46,0-0.913-0.023-1.364-0.062c-0.211-0.017-0.418-0.043-0.627-0.067
			c-0.213-0.026-0.426-0.054-0.636-0.088c-0.278-0.043-0.555-0.093-0.829-0.15c-0.09-0.019-0.179-0.041-0.269-0.062
			c-0.322-0.073-0.644-0.146-0.959-0.235c-2.14-0.617-4.101-1.653-5.807-3c-0.297-0.021-0.507,0.201-0.507,0.604V49
			c0,0.55,0.45,1,1,1h20c0.551,0,1-0.45,1-1v-5.537c4.073-2.906,6.955-7.372,7.764-12.521C43.331,30.979,43.521,31,43.717,31
			c1.657,0,3-1.343,3-3S45.374,25,43.717,25z"/>
		<path fill="#BDA770" d="M16.467,11.868V10.76c-4.093,1.899-7.392,5.215-9.265,9.323h1.109
			C10.047,16.523,12.921,13.628,16.467,11.868z"/>
		<path fill="#BDA770" d="M16.467,7.917V6.83C10.382,9.125,5.546,13.982,3.282,20.083h1.091C6.542,14.54,10.938,10.117,16.467,7.917
			z"/>
	</g>
	<path fill="#BDA770" d="M24.384,13c-8.284,0-15,6.716-15,15s6.716,15,15,15c8.284,0,15-6.716,15-15S32.668,13,24.384,13z
		 M24.384,29.906c-1.053,0-1.906-0.854-1.906-1.906s0.854-1.906,1.906-1.906c1.052,0,1.906,0.854,1.906,1.906
		S25.437,29.906,24.384,29.906z"/>
</g>
</svg>
