<?xml version="1.0" encoding="utf-8"?>
<!-- Generator: Adobe Illustrator 16.0.3, SVG Export Plug-In . SVG Version: 6.00 Build 0)  -->
<!DOCTYPE svg PUBLIC "-//W3C//DTD SVG 1.1//EN" "http://www.w3.org/Graphics/SVG/1.1/DTD/svg11.dtd">
<svg version="1.1" id="Layer_1" xmlns="http://www.w3.org/2000/svg" xmlns:xlink="http://www.w3.org/1999/xlink" x="0px" y="0px"
  width="50px" height="100px" viewBox="0 0 50 100" enable-background="new 0 0 50 100" xml:space="preserve">
<g>
 <path fill="#999999" d="M35.699,23.291l-9.166-9.144h-1.405l9.863,9.852c0.472,0.471,0.732,1.099,0.732,1.767
  s-0.26,1.295-0.731,1.768l-7.479,7.479c0.871-0.015,1.738-0.324,2.403-0.988l5.783-5.783
  C37.063,26.875,37.063,24.655,35.699,23.291z"/>
 <path fill="#999999" d="M34.284,24.706L23.727,14.147H13.523V24.35l10.558,10.559c0.586,0.585,1.535,0.586,2.121,0l8.082-8.082
  C34.87,26.24,34.87,25.291,34.284,24.706z M15.813,16.436c0.66-0.66,1.731-0.66,2.393,0.001c0.66,0.661,0.661,1.732,0,2.393
  c-0.66,0.661-1.731,0.66-2.393-0.001C15.153,18.168,15.152,17.097,15.813,16.436z M28.942,24.934
  c0.145,0.38,0.205,0.758,0.176,1.136c-0.029,0.376-0.133,0.747-0.312,1.11c-0.182,0.365-0.424,0.711-0.728,1.041l0.741,0.741
  l-0.409,0.409l-0.741-0.741c-0.348,0.335-0.715,0.595-1.102,0.778s-0.774,0.284-1.164,0.299c-0.39,0.017-0.775-0.057-1.159-0.219
  c-0.383-0.16-0.748-0.422-1.097-0.783l1.082-1.083c0.413,0.425,0.834,0.662,1.264,0.713c0.432,0.05,0.872-0.137,1.321-0.561
  l-2.3-2.299c-0.33,0.189-0.671,0.362-1.025,0.521c-0.354,0.158-0.712,0.263-1.073,0.313s-0.723,0.022-1.083-0.085
  c-0.361-0.108-0.717-0.336-1.064-0.685c-0.305-0.304-0.514-0.63-0.627-0.979c-0.115-0.349-0.148-0.699-0.104-1.055
  s0.155-0.703,0.332-1.045c0.178-0.342,0.409-0.656,0.693-0.94l-0.741-0.741l0.409-0.408l0.741,0.74
  c0.285-0.285,0.592-0.516,0.922-0.693c0.328-0.177,0.662-0.283,1.002-0.318c0.338-0.035,0.681,0.01,1.025,0.134
  c0.346,0.123,0.674,0.341,0.984,0.65l-1.084,1.083c-0.336-0.311-0.666-0.474-0.992-0.489c-0.327-0.016-0.662,0.147-1.003,0.489
  l2.005,2.004c0.361-0.209,0.729-0.398,1.103-0.569c0.372-0.171,0.744-0.281,1.11-0.332c0.368-0.051,0.732-0.022,1.094,0.085
  c0.36,0.107,0.713,0.333,1.055,0.675C28.547,24.186,28.797,24.553,28.942,24.934z"/>
 <path fill="#999999" d="M21.276,24.382c0.151,0.152,0.312,0.25,0.483,0.295c0.171,0.044,0.344,0.056,0.519,0.033
  c0.174-0.022,0.349-0.074,0.525-0.156c0.179-0.083,0.35-0.175,0.514-0.276l-1.9-1.9c-0.342,0.342-0.535,0.678-0.578,1.008
  C20.794,23.714,20.938,24.046,21.276,24.382z"/>
 <path fill="#999999" d="M26.145,24.682c-0.193,0.028-0.384,0.087-0.575,0.176c-0.189,0.089-0.376,0.187-0.56,0.295l2.214,2.213
  c0.316-0.367,0.496-0.746,0.541-1.141c0.044-0.392-0.123-0.777-0.504-1.158c-0.178-0.178-0.359-0.293-0.546-0.348
  C26.528,24.666,26.337,24.653,26.145,24.682z"/>
</g>
<g>
 <path fill="#BDA770" d="M35.699,73.291l-9.166-9.145h-1.405l9.863,9.852c0.472,0.471,0.732,1.1,0.732,1.768
  s-0.26,1.295-0.731,1.768l-7.479,7.479c0.871-0.014,1.738-0.324,2.403-0.988l5.783-5.783
  C37.063,76.875,37.063,74.654,35.699,73.291z"/>
 <path fill="#BDA770" d="M34.284,74.705L23.727,64.146H13.523V74.35l10.558,10.559c0.586,0.586,1.535,0.586,2.121,0l8.082-8.082
  C34.87,76.24,34.87,75.291,34.284,74.705z M15.813,66.436c0.66-0.66,1.731-0.66,2.393,0.002c0.66,0.66,0.661,1.732,0,2.393
  c-0.66,0.66-1.731,0.66-2.393-0.002C15.153,68.168,15.152,67.098,15.813,66.436z M28.942,74.934
  c0.145,0.381,0.205,0.758,0.176,1.137c-0.029,0.375-0.133,0.746-0.312,1.109c-0.182,0.365-0.424,0.711-0.728,1.041l0.741,0.742
  l-0.409,0.408l-0.741-0.74c-0.348,0.334-0.715,0.594-1.102,0.777s-0.774,0.285-1.164,0.299c-0.39,0.018-0.775-0.057-1.159-0.219
  c-0.383-0.16-0.748-0.422-1.097-0.783l1.082-1.082c0.413,0.424,0.834,0.662,1.264,0.713c0.432,0.049,0.872-0.137,1.321-0.561
  l-2.3-2.299c-0.33,0.189-0.671,0.361-1.025,0.521c-0.354,0.158-0.712,0.262-1.073,0.312s-0.723,0.023-1.083-0.084
  c-0.361-0.109-0.717-0.336-1.064-0.686c-0.305-0.303-0.514-0.629-0.627-0.979c-0.115-0.348-0.148-0.699-0.104-1.055
  s0.155-0.703,0.332-1.045c0.178-0.342,0.409-0.656,0.693-0.939l-0.741-0.742l0.409-0.408l0.741,0.74
  c0.285-0.285,0.592-0.516,0.922-0.693c0.328-0.176,0.662-0.283,1.002-0.318c0.338-0.035,0.681,0.01,1.025,0.135
  c0.346,0.123,0.674,0.34,0.984,0.65l-1.084,1.082c-0.336-0.311-0.666-0.473-0.992-0.488c-0.327-0.016-0.662,0.146-1.003,0.488
  l2.005,2.004c0.361-0.209,0.729-0.398,1.103-0.568c0.372-0.172,0.744-0.281,1.11-0.332c0.368-0.051,0.732-0.023,1.094,0.084
  c0.36,0.107,0.713,0.334,1.055,0.676C28.547,74.186,28.797,74.553,28.942,74.934z"/>
 <path fill="#BDA770" d="M21.276,74.383c0.151,0.152,0.312,0.25,0.483,0.295c0.171,0.043,0.344,0.055,0.519,0.033
  c0.174-0.023,0.349-0.074,0.525-0.156c0.179-0.084,0.35-0.176,0.514-0.277l-1.9-1.9c-0.342,0.342-0.535,0.678-0.578,1.008
  C20.794,73.715,20.938,74.047,21.276,74.383z"/>
 <path fill="#BDA770" d="M26.145,74.682c-0.193,0.029-0.384,0.088-0.575,0.176c-0.189,0.09-0.376,0.188-0.56,0.295l2.214,2.213
  c0.316-0.367,0.496-0.746,0.541-1.141c0.044-0.391-0.123-0.777-0.504-1.158c-0.178-0.178-0.359-0.293-0.546-0.348
  C26.528,74.666,26.337,74.652,26.145,74.682z"/>
</g>
<rect fill="none" width="50" height="100"/>
</svg>
