<?xml version="1.0" encoding="utf-8"?>
<!-- Generator: Adobe Illustrator 16.0.3, SVG Export Plug-In . SVG Version: 6.00 Build 0)  -->
<!DOCTYPE svg PUBLIC "-//W3C//DTD SVG 1.1//EN" "http://www.w3.org/Graphics/SVG/1.1/DTD/svg11.dtd">
<svg version="1.1" id="Layer_1" xmlns="http://www.w3.org/2000/svg" xmlns:xlink="http://www.w3.org/1999/xlink" x="0px" y="0px"
  width="50px" height="100px" viewBox="0 0 50 100" enable-background="new 0 0 50 100" xml:space="preserve">
<g>
 <path fill="#999999" d="M34.157,29.627H15.854c-1.58,0-2.861,1.281-2.861,2.861c0,1.579,1.281,2.86,2.861,2.86h18.303
  c1.578,0,2.859-1.281,2.859-2.86C37.017,30.908,35.735,29.627,34.157,29.627z M33.909,34.593h-2.863
  c-1.162,0-2.105-0.942-2.105-2.104c0-1.163,0.943-2.105,2.105-2.105h2.863c1.162,0,2.104,0.942,2.104,2.105
  C36.013,33.65,35.071,34.593,33.909,34.593z"/>
 <path fill="#999999" d="M12.993,24.748c0,1.58,1.281,2.86,2.86,2.86h18.302c1.58,0,2.861-1.28,2.861-2.86
  c0-1.579-1.281-2.86-2.861-2.86H15.853C14.274,21.887,12.993,23.168,12.993,24.748z M13.996,24.748
  c0-1.163,0.943-2.105,2.105-2.105h2.863c1.162,0,2.105,0.942,2.105,2.105c0,1.162-0.943,2.105-2.105,2.105h-2.863
   C14.939,26.853,13.996,25.91,13.996,24.748z"/>
 <path fill="#999999" d="M15.854,19.867h18.303c1.578,0,2.859-1.28,2.859-2.86c0-1.579-1.281-2.86-2.859-2.86H15.854
  c-1.58,0-2.861,1.281-2.861,2.86C12.993,18.587,14.274,19.867,15.854,19.867z M31.046,14.902h2.863
  c1.162,0,2.104,0.942,2.104,2.105s-0.941,2.105-2.104,2.105h-2.863c-1.162,0-2.105-0.943-2.105-2.105S29.884,14.902,31.046,14.902z
  "/>
</g>
<g>
 <path fill="#BDA770" d="M34.157,79.627H15.854c-1.58,0-2.861,1.281-2.861,2.861c0,1.578,1.281,2.859,2.861,2.859h18.303
  c1.578,0,2.859-1.281,2.859-2.859C37.017,80.908,35.735,79.627,34.157,79.627z M33.909,84.593h-2.863
  c-1.162,0-2.105-0.942-2.105-2.104c0-1.163,0.943-2.105,2.105-2.105h2.863c1.162,0,2.104,0.942,2.104,2.105
  C36.013,83.65,35.071,84.593,33.909,84.593z"/>
 <path fill="#BDA770" d="M12.993,74.748c0,1.58,1.281,2.859,2.86,2.859h18.302c1.58,0,2.861-1.279,2.861-2.859
  s-1.281-2.861-2.861-2.861H15.853C14.274,71.887,12.993,73.168,12.993,74.748z M13.996,74.748c0-1.164,0.943-2.105,2.105-2.105
  h2.863c1.162,0,2.105,0.941,2.105,2.105c0,1.162-0.943,2.105-2.105,2.105h-2.863C14.939,76.854,13.996,75.91,13.996,74.748z"/>
 <path fill="#BDA770" d="M15.854,69.867h18.303c1.578,0,2.859-1.28,2.859-2.859c0-1.58-1.281-2.861-2.859-2.861H15.854
  c-1.58,0-2.861,1.281-2.861,2.861C12.993,68.587,14.274,69.867,15.854,69.867z M31.046,64.902h2.863
  c1.162,0,2.104,0.942,2.104,2.105c0,1.162-0.941,2.105-2.104,2.105h-2.863c-1.162,0-2.105-0.943-2.105-2.105
  C28.94,65.845,29.884,64.902,31.046,64.902z"/>
</g>
<rect fill="none" width="50" height="100"/>
</svg>
