<?xml version="1.0" encoding="UTF-8" standalone="no"?>
<svg width="21px" height="20px" viewBox="0 0 21 20" version="1.1" xmlns="http://www.w3.org/2000/svg" xmlns:xlink="http://www.w3.org/1999/xlink" xmlns:sketch="http://www.bohemiancoding.com/sketch/ns">
    <!-- Generator: Sketch 3.3.3 (12081) - http://www.bohemiancoding.com/sketch -->
    <title>filter</title>
    <desc>Created with Sketch.</desc>
    <defs></defs>
    <g id="Search" stroke="none" stroke-width="1" fill="none" fill-rule="evenodd" sketch:type="MSPage">
        <g id="Search---Offer-Category-Filter" sketch:type="MSArtboardGroup" transform="translate(-280.000000, -858.000000)" fill="#FFFFFF">
            <g id="Search-Active---Header" sketch:type="MSLayerGroup" transform="translate(0.000000, 851.000000)">
                <g id="filter" transform="translate(280.000000, 7.000000)" sketch:type="MSShapeGroup">
                    <path d="M3.1625,11.25 C3.4125,12.2375 3.95,13.2375 4.65,14.125 L4.4875,14.3 L2.7625,16.0125 L4.4875,17.7375 L6.2,16.0125 L6.3625,15.85 C7.2625,16.55 8.2625,17.0875 9.25,17.3375 L9.25,17.5 L9.25,20 L11.75,20 L11.75,17.5 L11.75,17.3375 C12.7375,17.0875 13.7375,16.5625 14.6375,15.85 L15.65,16.875 L16.5125,17.7375 L18.2375,16.0125 L17.375,15.15 L16.35,14.1375 C17.0625,13.2375 17.5875,12.2375 17.8375,11.25 L19.25,11.25 L20.5,11.25 L20.5,8.75 L19.25,8.75 L17.8375,8.75 C17.5875,7.7625 17.05,6.7625 16.35,5.8625 L16.5125,5.7 L18.2375,3.9875 L16.5125,2.2625 L14.8,3.9875 L14.625,4.15 C13.7375,3.45 12.7375,2.9125 11.75,2.6625 L11.75,2.5 L11.75,0 L9.25,0 L9.25,2.5 L9.25,2.6625 C8.2625,2.9125 7.2625,3.45 6.3625,4.15 L4.4875,2.2625 L2.7625,3.9875 L4.65,5.8625 C3.95,6.7625 3.4125,7.7625 3.1625,8.75 L0.5,8.75 L0.5,11.25 L3.1625,11.25 L3.1625,11.25 Z M8,10.9375 L8,9.0625 L9.5625,7.5 L11.4375,7.5 L13,9.0625 L13,10.9375 L11.4375,12.5 L9.5625,12.5 L8,10.9375 L8,10.9375 Z" id="Shape-3"></path>
                </g>
            </g>
        </g>
    </g>
</svg>