<?xml version="1.0" encoding="utf-8"?>
<!-- Generator: Adobe Illustrator 18.1.1, SVG Export Plug-In . SVG Version: 6.00 Build 0)  -->
<svg version="1.1" id="Layer_1" xmlns:sketch="http://www.bohemiancoding.com/sketch/ns"
	 xmlns="http://www.w3.org/2000/svg" xmlns:xlink="http://www.w3.org/1999/xlink" x="0px" y="0px" width="35px" height="35px"
	 viewBox="-290.5 379 35 35" enable-background="new -290.5 379 35 35" xml:space="preserve">
<title>Find</title>
<desc>Created with Sketch.</desc>
<g id="Detail-Page" sketch:type="MSPage">
	
		<g id="Detail-Page-Layout-_x28_Entertainment_x29_" transform="translate(-299.000000, -340.000000)" sketch:type="MSArtboardGroup">
		<g id="Venue-Info" transform="translate(0.000000, 64.000000)" sketch:type="MSLayerGroup">
			<g id="Venue-Actions" transform="translate(30.000000, 274.000000)" sketch:type="MSShapeGroup">
				<g id="Find" transform="translate(269.000000, 2.000000)">
					<g id="icon---directions">
						<path id="Fill-1" fill="#CCCCCC" d="M-270.7,405.2l-1.8,2.6l-1.9-2.6"/>
						<path id="Fill-2" fill="#999999" d="M-270.1,404.3l4.5-6.3c1.5-1.9,2.3-4.2,2.3-6.6c0-5.1-4.2-9.2-9.4-9.2
							c-5.2,0-9.4,4.1-9.4,9.2c0,2.4,1,4.8,2.3,6.7l7.1,9.7L-270.1,404.3L-270.1,404.3z M-275.9,391.4c0-1.7,1.4-3.1,3.2-3.1
							s3.2,1.4,3.2,3.1c0,1.7-1.4,3.1-3.2,3.1S-275.9,393.1-275.9,391.4L-275.9,391.4z"/>
						<path id="Fill-3" fill="#999999" d="M-267.2,404.4l-0.7,0.9c8.3,0.2,9.9,1.5,9.9,2.2c0,0.8-5.3,2.3-14.9,2.3
							c-9.7,0-14.9-1.5-14.9-2.3c0-0.7,1.9-2,10.5-2.2l-0.7-0.9c-5.7,0.2-10.8,0.8-10.8,3.1c0,2.6,10.4,3.3,15.9,3.3
							c5.5,0,15.9-0.7,15.9-3.3C-257,405.3-261.5,404.6-267.2,404.4"/>
					</g>
				</g>
			</g>
		</g>
	</g>
</g>
</svg>
