<?xml version="1.0" encoding="utf-8"?>
<!-- Generator: Adobe Illustrator 16.0.4, SVG Export Plug-In . SVG Version: 6.00 Build 0)  -->
<!DOCTYPE svg PUBLIC "-//W3C//DTD SVG 1.1//EN" "http://www.w3.org/Graphics/SVG/1.1/DTD/svg11.dtd">
<svg version="1.1" id="Layer_1" xmlns="http://www.w3.org/2000/svg" xmlns:xlink="http://www.w3.org/1999/xlink" x="0px" y="0px"
   width="50px" height="100px" viewBox="0 0 50 100" enable-background="new 0 0 50 100" xml:space="preserve">
<g>
  <g>
    <rect x="20.522" y="37.077" fill="#FFFFFF" width="9.42" height="0.786"/>
  </g>
  <g>
    <polygon fill="#FFFFFF" points="45,38.452 29.208,38.452 29.208,36.488 43.038,36.488 43.038,24.371 45,24.371     "/>
  </g>
  <g>
    <polygon fill="#FFFFFF" points="21.144,38.452 11.481,38.452 5,31.947 5,11.548 45,11.548 45,19.088 43.038,19.088 43.038,13.512 
      6.963,13.512 6.963,31.136 12.296,36.488 21.144,36.488     "/>
  </g>
  <g>
    <g>
      <path fill="#FFFFFF" d="M32.306,24.5c-2.134,0-4.462-0.848-5.896-2.171c-0.777-0.717-1.255-1.545-1.409-2.419h-7.515v11.77
        c0,1.032,0.847,1.867,1.89,1.867h11.332c1.047,0,1.889-0.837,1.889-1.867v-7.186C32.5,24.495,32.406,24.5,32.306,24.5z"/>
      <path fill="#FFFFFF" d="M26.844,21.983c1.411,1.298,3.665,2.081,5.753,2.001v-4.078h-7.025
        C25.724,20.672,26.156,21.344,26.844,21.983z"/>
      <path fill="#FFFFFF" d="M32.597,19.122v-6.15c0-1.034-0.84-0.626-1.887-0.626H19.375c-1.043,0-1.889-0.408-1.889,0.626v6.15
        H32.597z M25.675,15.142c0-0.537,0.435-0.973,0.973-0.973h3.951c0.535,0,0.967,0.436,0.967,0.973v1.675
        c0,0.539-0.433,0.972-0.967,0.972h-3.951c-0.538,0-0.973-0.434-0.973-0.972V15.142z M18.461,15.142
        c0-0.537,0.434-0.973,0.969-0.973h3.952c0.536,0,0.972,0.436,0.972,0.973v1.675c0,0.539-0.436,0.972-0.972,0.972H19.43
        c-0.537,0-0.969-0.434-0.969-0.972V15.142z"/>
    </g>
  </g>
  <g>
    <g>
      
        <rect x="37.854" y="22.49" transform="matrix(-0.8728 -0.488 0.488 -0.8728 66.5257 63.39)" fill="#FFFFFF" width="7.338" height="1.074"/>
    </g>
    <g>
      <path fill="#FFFFFF" d="M38.419,21.717l-0.396-0.021c0.048-0.856,0.54-1.689,1.35-2.291c1.043-0.776,2.422-1.035,3.77-0.709
        l-0.092,0.381c-1.236-0.299-2.496-0.065-3.445,0.644C38.891,20.251,38.456,20.979,38.419,21.717z"/>
    </g>
  </g>
</g>
<rect x="6.661" y="16.259" fill="#FFFFFF" width="3.845" height="12.431"/>
<g>
  <g>
    <rect x="20.522" y="87.076" fill="#BDA770" width="9.42" height="0.786"/>
  </g>
  <g>
    <polygon fill="#BDA770" points="45,88.45 29.208,88.45 29.208,86.487 43.037,86.487 43.037,74.372 45,74.372     "/>
  </g>
  <g>
    <polygon fill="#BDA770" points="21.144,88.45 11.481,88.45 5,81.947 5,61.55 45,61.55 45,69.088 43.037,69.088 43.037,63.513 
      6.963,63.513 6.963,81.136 12.296,86.487 21.144,86.487     "/>
  </g>
  <g>
    <g>
      <path fill="#BDA770" d="M32.307,74.5c-2.135,0-4.463-0.847-5.897-2.172c-0.777-0.717-1.255-1.547-1.409-2.419h-7.515v11.768
        c0,1.032,0.846,1.867,1.889,1.867h11.335c1.044,0,1.888-0.835,1.888-1.867V74.49C32.5,74.497,32.406,74.5,32.307,74.5z"/>
      <path fill="#BDA770" d="M26.844,71.982c1.411,1.299,3.666,2.083,5.753,2.002v-4.078h-7.027
        C25.724,70.672,26.156,71.346,26.844,71.982z"/>
      <path fill="#BDA770" d="M32.597,69.122v-6.15c0-1.034-0.841-0.626-1.888-0.626H19.374c-1.041,0-1.889-0.408-1.889,0.626v6.15
        H32.597z M25.675,65.143c0-0.538,0.435-0.971,0.972-0.971h3.952c0.536,0,0.967,0.433,0.967,0.971v1.676
        c0,0.538-0.433,0.973-0.967,0.973h-3.952c-0.537,0-0.972-0.435-0.972-0.973V65.143z M18.459,65.143
        c0-0.538,0.434-0.971,0.969-0.971h3.952c0.539,0,0.972,0.433,0.972,0.971v1.676c0,0.538-0.434,0.973-0.972,0.973h-3.952
        c-0.537,0-0.969-0.435-0.969-0.973V65.143z"/>
    </g>
  </g>
  <g>
    <g>
      
        <rect x="37.857" y="72.487" transform="matrix(-0.8729 -0.4879 0.4879 -0.8729 42.1405 157.0288)" fill="#BDA770" width="7.337" height="1.075"/>
    </g>
    <g>
      <path fill="#BDA770" d="M38.419,71.717l-0.397-0.02c0.049-0.856,0.541-1.692,1.351-2.294c1.044-0.775,2.422-1.034,3.771-0.706
        l-0.093,0.379c-1.235-0.301-2.497-0.065-3.445,0.645C38.891,70.252,38.456,70.979,38.419,71.717z"/>
    </g>
  </g>
</g>
<rect x="6.661" y="66.26" fill="#BDA770" width="3.843" height="12.428"/>
</svg>
