<?xml version="1.0" encoding="utf-8"?>
<!-- Generator: Adobe Illustrator 16.0.4, SVG Export Plug-In . SVG Version: 6.00 Build 0)  -->
<svg version="1.2" baseProfile="tiny" id="Layer_2" xmlns="http://www.w3.org/2000/svg" xmlns:xlink="http://www.w3.org/1999/xlink"
	 x="0px" y="0px" width="50px" height="50px" viewBox="0 0 50 50" xml:space="preserve">
<g>
	<g>
		<rect x="20.006" y="48.469" fill="#BDA770" width="10.505" height="0.876"/>
	</g>
	<g>
		<polygon fill="#BDA770" points="47.304,50 29.692,50 29.692,47.81 45.116,47.81 45.116,34.3 47.304,34.3 		"/>
	</g>
	<g>
		<polygon fill="#BDA770" points="20.699,50 9.923,50 2.695,42.746 2.695,20 47.304,20 47.304,28.407 45.116,28.407 45.116,22.191 
			4.885,22.191 4.885,41.844 10.833,47.81 20.699,47.81 		"/>
	</g>
	<g>
		<g>
			<path fill="#BDA770" d="M33.148,34.442c-2.38,0-4.978-0.944-6.575-2.423c-0.868-0.799-1.4-1.726-1.572-2.697H16.62v13.123
				c0,1.15,0.943,2.082,2.107,2.082h12.64c1.165,0,2.105-0.932,2.105-2.082v-8.013C33.362,34.439,33.26,34.442,33.148,34.442z"/>
			<path fill="#BDA770" d="M27.056,31.635c1.574,1.449,4.09,2.32,6.417,2.231v-4.547h-7.836
				C25.81,30.173,26.289,30.925,27.056,31.635z"/>
			<path fill="#BDA770" d="M33.473,28.444v-6.858c0-1.153-0.938-0.698-2.106-0.698h-12.64c-1.162,0-2.107-0.455-2.107,0.698v6.858
				H33.473z M25.754,24.008c0-0.599,0.482-1.083,1.083-1.083h4.407c0.599,0,1.079,0.484,1.079,1.083v1.869
				c0,0.6-0.485,1.086-1.079,1.086h-4.407c-0.601,0-1.083-0.486-1.083-1.086V24.008z M17.705,24.008
				c0-0.599,0.484-1.083,1.082-1.083h4.407c0.601,0,1.084,0.484,1.084,1.083v1.869c0,0.6-0.484,1.086-1.084,1.086h-4.407
				c-0.599,0-1.082-0.486-1.082-1.086V24.008z"/>
		</g>
	</g>
	<g>
		<g>
			
				<rect x="39.335" y="32.199" transform="matrix(0.873 0.4878 -0.4878 0.873 21.5163 -17.0162)" fill="#BDA770" width="8.182" height="1.201"/>
		</g>
		<g>
			<path fill="#BDA770" d="M39.966,31.339l-0.443-0.023c0.056-0.953,0.602-1.886,1.506-2.558c1.165-0.865,2.701-1.151,4.208-0.787
				l-0.106,0.425c-1.376-0.338-2.783-0.075-3.842,0.717C40.492,29.704,40.006,30.516,39.966,31.339z"/>
		</g>
	</g>
</g>
<rect x="4.548" y="25.252" fill="#BDA770" width="4.285" height="13.859"/>
</svg>
