<?xml version="1.0" encoding="utf-8"?>
<!-- Generator: Adobe Illustrator 16.0.3, SVG Export Plug-In . SVG Version: 6.00 Build 0)  -->
<!DOCTYPE svg PUBLIC "-//W3C//DTD SVG 1.1//EN" "http://www.w3.org/Graphics/SVG/1.1/DTD/svg11.dtd">
<svg version="1.1" id="Layer_1" xmlns="http://www.w3.org/2000/svg" xmlns:xlink="http://www.w3.org/1999/xlink" x="0px" y="0px"
   width="50px" height="50px" viewBox="0 0 50 50" enable-background="new 0 0 50 50" xml:space="preserve">
<circle fill="#A3A3A3" cx="24.938" cy="24.938" r="25"/>
<g>
  <path fill="#FFFFFF" d="M19,18.151c0.937,0,1.696-0.758,1.696-1.696v-1.697c0-0.937-0.76-1.696-1.696-1.696
    s-1.696,0.759-1.696,1.696v1.697C17.304,17.393,18.063,18.151,19,18.151z M30.875,18.151c0.938,0,1.697-0.758,1.697-1.696v-1.697
    c0-0.937-0.76-1.696-1.697-1.696s-1.697,0.759-1.697,1.696v1.697C29.178,17.393,29.938,18.151,30.875,18.151z M21.505,27.14v4.61
    h1.746v-6.82h-1.509c-0.198,0.42-0.471,0.64-0.82,0.926c-0.349,0.284-0.468,0.37-1.101,0.732v1.521
    c0.482-0.289,0.697-0.41,0.697-0.41S21.202,27.369,21.505,27.14z M35.115,15.607H33.42v0.849c0,0-0.027,2.571-2.545,2.571
    c0,0-2.545-0.027-2.545-2.545l-0.025-0.875h-6.786v0.849c0,0,0.026,2.571-2.519,2.571c0,0-2.571,0.026-2.571-2.545v-0.875h-1.67
    c-0.937,0-1.696,0.76-1.696,1.697v17.812c0,0.938,0.759,1.697,1.696,1.697h20.356c0.938,0,1.697-0.759,1.697-1.697V17.304
    C36.812,16.367,36.053,15.607,35.115,15.607z M35.115,35.115H14.759V21.544h20.356V35.115z M26.451,28.85
    c-0.313,0.736-0.543,1.811-0.688,2.9h1.85c0.061-0.784,0.18-1.622,0.355-2.196c0.222-0.737,0.285-1.143,0.668-1.744
    c0.315-0.494,0.947-0.874,1.42-1.3v-1.599h-5.153v1.701h3.033C27.259,27.452,26.764,28.109,26.451,28.85z"/>
</g>
</svg>
