<?xml version="1.0" encoding="utf-8"?>
<!-- Generator: Adobe Illustrator 18.1.1, SVG Export Plug-In . SVG Version: 6.00 Build 0)  -->
<svg version="1.1" id="Layer_1" xmlns:sketch="http://www.bohemiancoding.com/sketch/ns"
	 xmlns="http://www.w3.org/2000/svg" xmlns:xlink="http://www.w3.org/1999/xlink" x="0px" y="0px" width="42px" height="50px"
	 viewBox="-284 372 42 50" enable-background="new -284 372 42 50" xml:space="preserve">
<g>
	<path fill="none" d="M-244.7,408.6c-0.5-0.7-1.1-1-2.1-1c-0.9,0-1.6,0.3-2.1,1c-0.5,0.6-0.7,1.4-0.8,2.2h5.6
		C-244.1,409.9-244.3,409.2-244.7,408.6z"/>
	<path fill="none" d="M-244.7,383.6c-0.5-0.7-1.1-1-2.1-1c-0.9,0-1.6,0.3-2.1,1c-0.5,0.6-0.7,1.4-0.8,2.2h5.6
		C-244.1,384.9-244.3,384.2-244.7,383.6z"/>
	<polygon fill="#999999" points="-275.9,385.3 -280.4,377.7 -283.6,377.7 -283.6,392.3 -280.4,392.3 -280.4,383.5 -276.8,389.6 
		-275,389.6 -271.4,383.5 -271.4,392.3 -268.2,392.3 -268.2,377.7 -271.4,377.7 	"/>
	<path fill="#999999" d="M-262,391.1c-0.1,0-0.1,0-0.2,0c-0.4,0-0.6-0.1-0.8-0.2c-0.1-0.1-0.2-0.4-0.2-0.8v-13.4h-1.6l-0.1,13.7
		c0,0.7,0.1,1.2,0.4,1.5s0.7,0.5,1.2,0.5c0.1,0,0.2,0,0.4,0s0.3-0.1,0.5-0.1s0.4,0,0.5-0.1c0.1-0.1,0.3-0.1,0.4-0.2l-0.2-0.9
		C-261.8,391.1-261.9,391.1-262,391.1z"/>
	<rect x="-260" y="381.5" fill="#999999" width="1.6" height="10.7"/>
	<path fill="#999999" d="M-259.1,377.1c-0.3,0-0.5,0.1-0.7,0.3c-0.2,0.2-0.3,0.5-0.3,0.7s0,0.5,0.4,0.7c0.2,0.2,0.4,0.3,0.7,0.3
		c0.2,0,0.4-0.1,0.6-0.3s0.3-0.4,0.3-0.7s-0.1-0.5-0.3-0.7C-258.6,377.2-258.8,377.1-259.1,377.1z"/>
	<path fill="#999999" d="M-255.3,392.3h1.6v-9.4h2.4l0.1-1.3h-2.5c0-0.8,0.1-1.5,0.1-2s0.1-0.9,0.3-1.1c0.3-0.4,0.9-0.6,1.6-0.6
		c0.3,0,0.6,0.1,0.9,0.2c0.3,0.1,0.5,0.2,0.6,0.3l0.7-1.4c-0.2-0.1-0.5-0.2-0.9-0.3c-0.4,0-0.8-0.1-1.2-0.1c-1.2,0-2,0.3-2.7,1
		s-1,1.7-1,3.1v0.8v0.1h-1.5v1.3h1.5V392.3z"/>
	<path fill="#999999" d="M-251.4,386.7c0,1.8,0.4,3.2,1.3,4.2c0.9,1,2,1.5,3.4,1.5c1,0,1.9-0.2,2.6-0.6c0.7-0.4,1.2-0.9,1.7-1.5
		l-1.2-0.9c-0.4,0.6-0.9,1-1.4,1.3s-1.1,0.4-1.8,0.4c-0.9,0-1.7-0.4-2.2-1.3c-0.5-0.9-0.8-1.9-0.8-3.1h7.2c0-0.5,0-1,0-1.5
		c-0.1-1.2-0.5-2.2-1.2-2.9s-1.7-1-3-1c-1.5,0-2.6,0.5-3.4,1.5C-251,383.8-251.4,385.1-251.4,386.7z M-248.9,383.6
		c0.5-0.7,1.2-1,2.1-1c1,0,1.6,0.3,2.1,1c0.4,0.6,0.6,1.3,0.6,2.2h-5.6C-249.6,385-249.4,384.2-248.9,383.6z"/>
	<polygon fill="#BDA770" points="-275.9,410.3 -280.4,402.7 -283.6,402.7 -283.6,417.3 -280.4,417.3 -280.4,408.5 -276.8,414.6 
		-275,414.6 -271.4,408.5 -271.4,417.3 -268.2,417.3 -268.2,402.7 -271.4,402.7 	"/>
	<path fill="#BDA770" d="M-262,416.1c-0.1,0-0.1,0-0.2,0c-0.4,0-0.6-0.1-0.8-0.2c-0.1-0.1-0.2-0.4-0.2-0.8v-13.4h-1.6l-0.1,13.7
		c0,0.7,0.1,1.2,0.4,1.5s0.7,0.5,1.2,0.5c0.1,0,0.2,0,0.4,0s0.3-0.1,0.5-0.1s0.4,0,0.5-0.1c0.1-0.1,0.3-0.1,0.4-0.2l-0.2-0.9
		C-261.8,416.1-261.9,416.1-262,416.1z"/>
	<rect x="-260" y="406.5" fill="#BDA770" width="1.6" height="10.7"/>
	<path fill="#BDA770" d="M-259.1,402.1c-0.3,0-0.5,0.1-0.7,0.3c-0.2,0.2-0.3,0.5-0.3,0.7s0,0.5,0.4,0.7c0.2,0.2,0.4,0.3,0.7,0.3
		c0.2,0,0.4-0.1,0.6-0.3s0.3-0.4,0.3-0.7s-0.1-0.5-0.3-0.7C-258.6,402.2-258.8,402.1-259.1,402.1z"/>
	<path fill="#BDA770" d="M-251.2,406.6h-2.5c0-0.8,0.1-1.5,0.1-2s0.1-0.9,0.3-1.1c0.3-0.4,0.9-0.6,1.6-0.6c0.3,0,0.6,0.1,0.9,0.2
		c0.3,0.1,0.5,0.2,0.6,0.3l0.7-1.4c-0.2-0.1-0.5-0.2-0.9-0.3c-0.4,0-0.8-0.1-1.2-0.1c-1.2,0-2,0.3-2.7,1s-1,1.7-1,3.1v0.8v0.1h-1.5
		v1.3h1.5v9.4h1.6v-9.4h2.4L-251.2,406.6z"/>
	<path fill="#BDA770" d="M-245,415.7c-0.5,0.3-1.1,0.4-1.8,0.4c-0.9,0-1.7-0.4-2.2-1.3c-0.5-0.9-0.8-1.9-0.8-3.1h7.2
		c0-0.5,0-1,0-1.5c-0.1-1.2-0.5-2.2-1.2-2.9s-1.7-1-3-1c-1.5,0-2.6,0.5-3.4,1.5c-0.8,1-1.2,2.3-1.2,3.9c0,1.8,0.4,3.2,1.3,4.2
		c0.9,1,2,1.5,3.4,1.5c1,0,1.9-0.2,2.6-0.6c0.7-0.4,1.2-0.9,1.7-1.5l-1.2-0.9C-244,415-244.5,415.4-245,415.7z M-248.9,408.6
		c0.5-0.7,1.2-1,2.1-1c1,0,1.6,0.3,2.1,1c0.4,0.6,0.6,1.3,0.6,2.2h-5.6C-249.6,410-249.4,409.2-248.9,408.6z"/>
</g>
</svg>
