<?xml version="1.0" encoding="utf-8"?>
<!-- Generator: Adobe Illustrator 18.1.1, SVG Export Plug-In . SVG Version: 6.00 Build 0)  -->
<svg version="1.1" id="Layer_1" xmlns:sketch="http://www.bohemiancoding.com/sketch/ns"
	 xmlns="http://www.w3.org/2000/svg" xmlns:xlink="http://www.w3.org/1999/xlink" x="0px" y="0px" width="25px" height="50px"
	 viewBox="-297 387 25 50" enable-background="new -297 387 25 50" xml:space="preserve">
<title>Loupe</title>
<desc>Created with Sketch.</desc>
<g id="Find_1_" sketch:type="MSPage">
	<g id="Find---Browse" transform="translate(-31.000000, -958.000000)" sketch:type="MSArtboardGroup">
		<g id="_x2D_--Tab-Bar-_x28_Find_x29_" transform="translate(0.000000, 951.000000)" sketch:type="MSLayerGroup">
			<g id="Find" transform="translate(29.000000, 7.000000)" sketch:type="MSShapeGroup">
				<g id="Loupe" transform="translate(2.000000, 0.000000)">
					<path fill="#999999" d="M-281.4,403.7c-1.4,1.1-3.1,1.8-5.1,1.8c-4.4,0-8-3.6-8-8s3.6-8,8-8s8,3.6,8,8c0,1.9-0.7,3.7-1.8,5.1
						l5.8,5.8l-1.1,1.1L-281.4,403.7z M-286.5,403.9c3.5,0,6.4-2.9,6.4-6.4s-2.9-6.4-6.4-6.4s-6.4,2.9-6.4,6.4
						S-290,403.9-286.5,403.9z"/>
				</g>
			</g>
		</g>
	</g>
</g>
<g id="Find_2_" sketch:type="MSPage">
	<g id="Find---Browse_1_" transform="translate(-31.000000, -958.000000)" sketch:type="MSArtboardGroup">
		<g id="_x2D_--Tab-Bar-_x28_Find_x29__1_" transform="translate(0.000000, 951.000000)" sketch:type="MSLayerGroup">
			<g id="Find_3_" transform="translate(29.000000, 7.000000)" sketch:type="MSShapeGroup">
				<g id="Loupe_1_" transform="translate(2.000000, 0.000000)">
					<path fill="#BDA770" d="M-281.4,428.7c-1.4,1.1-3.1,1.8-5.1,1.8c-4.4,0-8-3.6-8-8s3.6-8,8-8s8,3.6,8,8c0,1.9-0.7,3.7-1.8,5.1
						l5.8,5.8l-1.1,1.1L-281.4,428.7z M-286.5,428.9c3.5,0,6.4-2.9,6.4-6.4s-2.9-6.4-6.4-6.4s-6.4,2.9-6.4,6.4
						S-290,428.9-286.5,428.9z"/>
				</g>
			</g>
		</g>
	</g>
</g>
</svg>
