<?xml version="1.0" encoding="utf-8"?>
<!-- Generator: Adobe Illustrator 18.1.1, SVG Export Plug-In . SVG Version: 6.00 Build 0)  -->
<svg version="1.1" id="Layer_1" xmlns:sketch="http://www.bohemiancoding.com/sketch/ns"
	 xmlns="http://www.w3.org/2000/svg" xmlns:xlink="http://www.w3.org/1999/xlink" x="0px" y="0px" width="25px" height="50px"
	 viewBox="-293 372 25 50" enable-background="new -293 372 25 50" xml:space="preserve">
<g>
	<path id="Fill-1" fill="#999999" d="M-284.9,379.5c-0.4,0-0.8-0.3-0.8-0.7V376c0-0.4,0.3-0.7,0.8-0.7c0.4,0,0.8,0.3,0.8,0.7v2.8
		C-284.2,379.2-284.5,379.5-284.9,379.5L-284.9,379.5z"/>
	<path id="Stroke-2" fill="none" stroke="#FFFFFF" d="M-284.9,379.5c-0.4,0-0.8-0.3-0.8-0.7V376c0-0.4,0.3-0.7,0.8-0.7
		c0.4,0,0.8,0.3,0.8,0.7v2.8C-284.2,379.2-284.5,379.5-284.9,379.5L-284.9,379.5z"/>
	<path id="Fill-3" fill="#999999" d="M-275.9,379.5c-0.4,0-0.7-0.3-0.7-0.7V376c0-0.4,0.3-0.7,0.7-0.7c0.4,0,0.8,0.3,0.8,0.7v2.8
		C-275.1,379.2-275.5,379.5-275.9,379.5L-275.9,379.5z"/>
	<path id="Stroke-4" fill="none" stroke="#FFFFFF" d="M-275.9,379.5c-0.4,0-0.7-0.3-0.7-0.7V376c0-0.4,0.3-0.7,0.7-0.7
		c0.4,0,0.8,0.3,0.8,0.7v2.8C-275.1,379.2-275.5,379.5-275.9,379.5L-275.9,379.5z"/>
	<path id="Fill-5" fill="#999999" d="M-273.1,377.4h-1.1v1.4c0,0.9-0.8,1.7-1.8,1.7s-1.7-0.8-1.7-1.7v-1.4h-5.5v1.4
		c0,0.9-0.8,1.7-1.8,1.7s-1.8-0.8-1.8-1.7v-1.4h-1.1c-0.8,0-1.5,0.7-1.5,1.5v14.4c0,0.8,0.7,1.5,1.5,1.5h14.7c0.8,0,1.5-0.7,1.5-1.5
		v-14.4C-271.6,378-272.2,377.4-273.1,377.4L-273.1,377.4z M-272.6,393.2c0,0.3-0.2,0.5-0.5,0.5h-14.7c-0.3,0-0.5-0.2-0.5-0.5v-10.7
		h15.7V393.2L-272.6,393.2z"/>
	<path id="Stroke-6" fill="none" stroke="#999999" d="M-288.2,386.4h15.7 M-288.2,390.1h15.7 M-277.6,382.6v11.2 M-283.4,382.6v11.2
		"/>
	<path id="Fill-1_1_" fill="#BDA770" d="M-284.9,404.5c-0.4,0-0.8-0.3-0.8-0.7V401c0-0.4,0.3-0.7,0.8-0.7c0.4,0,0.8,0.3,0.8,0.7v2.8
		C-284.2,404.2-284.5,404.5-284.9,404.5L-284.9,404.5z"/>
	<path id="Stroke-2_1_" fill="#BDA770" stroke="#FFFFFF" stroke-miterlimit="10" d="M-284.9,404.5c-0.4,0-0.8-0.3-0.8-0.7V401
		c0-0.4,0.3-0.7,0.8-0.7c0.4,0,0.8,0.3,0.8,0.7v2.8C-284.2,404.2-284.5,404.5-284.9,404.5L-284.9,404.5z"/>
	<path id="Fill-3_1_" fill="#BDA770" stroke="#FFFFFF" stroke-miterlimit="10" d="M-275.9,404.5c-0.4,0-0.7-0.3-0.7-0.7V401
		c0-0.4,0.3-0.7,0.7-0.7c0.4,0,0.8,0.3,0.8,0.7v2.8C-275.1,404.2-275.5,404.5-275.9,404.5L-275.9,404.5z"/>
	<path id="Fill-5_1_" fill="#BDA770" d="M-273.1,402.4h-1.1v1.4c0,0.9-0.8,1.7-1.8,1.7s-1.7-0.8-1.7-1.7v-1.4h-5.5v1.4
		c0,0.9-0.8,1.7-1.8,1.7s-1.8-0.8-1.8-1.7v-1.4h-1.1c-0.8,0-1.5,0.7-1.5,1.5v14.4c0,0.8,0.7,1.5,1.5,1.5h14.7c0.8,0,1.5-0.7,1.5-1.5
		v-14.4C-271.6,403-272.2,402.4-273.1,402.4L-273.1,402.4z M-272.6,418.2c0,0.3-0.2,0.5-0.5,0.5h-14.7c-0.3,0-0.5-0.2-0.5-0.5v-10.7
		h15.7V418.2L-272.6,418.2z"/>
	<path id="Stroke-6_1_" fill="#BDA770" stroke="#BDA770" stroke-miterlimit="10" d="M-288.2,411.4h15.7 M-288.2,415.1h15.7
		 M-277.6,407.6v11.2 M-283.4,407.6v11.2"/>
</g>
</svg>
