<?xml version="1.0" encoding="utf-8"?>
<!-- Generator: Adobe Illustrator 18.1.1, SVG Export Plug-In . SVG Version: 6.00 Build 0)  -->
<svg version="1.1" id="Layer_1" xmlns:sketch="http://www.bohemiancoding.com/sketch/ns"
	 xmlns="http://www.w3.org/2000/svg" xmlns:xlink="http://www.w3.org/1999/xlink" x="0px" y="0px" width="25px" height="50px"
	 viewBox="-293 372 25 50" enable-background="new -293 372 25 50" xml:space="preserve">
<g>
	<path fill="none" d="M-278,377.6c0.5,0,0.8-0.4,0.8-0.8c0-0.5-0.4-0.8-0.8-0.8c-0.5,0-0.8,0.3-0.8,0.8S-278.5,377.6-278,377.6z"/>
	<path fill="none" d="M-278,401c-0.5,0-0.8,0.3-0.8,0.8s0.4,0.8,0.8,0.8c0.5,0,0.8-0.4,0.8-0.8C-277.2,401.3-277.7,401-278,401z"/>
	<path fill="#999999" d="M-280.5,385.2c2.5,0,4.4-2.4,4.4-5.4v-0.1c-1.3-0.4-2.9-0.7-4.4-0.7c-1.4-0.1-3,0.3-4.4,0.7
		C-285,382.8-283,385.2-280.5,385.2z"/>
	<path fill="#999999" d="M-285,379.6C-285,379.7-285,379.7-285,379.6L-285,379.6z"/>
	<path fill="#999999" d="M-284,378.2c0.9-0.1,1.7-0.3,2.6-0.4c1.3-0.1,2.7,0,4,0.3l1.2,0.2c0-0.2,0-0.5,0-0.7v-1.8
		c-1.1-0.3-2.9-0.6-4.2-0.6c-2,0.1-3.6,0.4-4.6,0.6c0,0.9,0,1.7,0,2.6L-284,378.2L-284,378.2z M-278,376c0.4,0,0.8,0.3,0.8,0.8
		c0,0.4-0.3,0.8-0.8,0.8c-0.4,0-0.8-0.3-0.8-0.8S-278.5,376-278,376z"/>
	<path fill="#999999" d="M-277.6,375.3c0.6,0.1,1.1,0.2,1.5,0.3v-0.4c0-0.9-0.1-1.1-1.1-1.4c-0.1,0-0.2-0.1-0.2-0.1
		c-1.7-0.4-3.5-0.4-5.2-0.2c-0.6,0.1-1.2,0.3-1.9,0.5c-0.3,0.1-0.4,0.4-0.4,0.7c0,0.3,0,0.5,0,0.8c1-0.2,2.6-0.5,4.6-0.5
		C-279.8,375-278.2,375.1-277.6,375.3z"/>
	<path fill="#999999" d="M-272.6,390.3c0.2-2.6-1.4-4.1-3.4-4.7l-0.2-0.1l-0.3-1c0,0-1.3,1.7-4,1.7s-3.9-1.7-3.9-1.7l-0.3,1
		l-0.3,0.1c-2.3,0.7-3.5,2.1-3.5,4.7v5.3h15.9V390.3z M-282.8,394.8c-0.4,0-0.8-0.4-0.8-0.8c0-0.4,0.3-0.8,0.8-0.8s0.8,0.4,0.8,0.8
		C-282,394.4-282.2,394.8-282.8,394.8z M-282.8,392.2c-0.4,0-0.8-0.4-0.8-0.8c0-0.4,0.3-0.8,0.8-0.8s0.8,0.4,0.8,0.8
		C-282,391.8-282.2,392.2-282.8,392.2z M-282.8,389.6c-0.4,0-0.8-0.4-0.8-0.8c0-0.4,0.3-0.8,0.8-0.8s0.8,0.3,0.8,0.8
		C-282,389.2-282.2,389.6-282.8,389.6z M-278.2,394.8c-0.4,0-0.8-0.4-0.8-0.8c0-0.4,0.3-0.8,0.8-0.8s0.8,0.4,0.8,0.8
		C-277.5,394.4-277.8,394.8-278.2,394.8z M-278.2,392.2c-0.4,0-0.8-0.4-0.8-0.8c0-0.4,0.3-0.8,0.8-0.8s0.8,0.4,0.8,0.8
		C-277.5,391.8-277.8,392.2-278.2,392.2z M-278.2,389.6c-0.4,0-0.8-0.4-0.8-0.8c0-0.4,0.3-0.8,0.8-0.8s0.8,0.3,0.8,0.8
		C-277.5,389.2-277.8,389.6-278.2,389.6z"/>
	<path fill="#FFFFFF" d="M-282.8,388c-0.5,0-0.8,0.4-0.8,0.8c0,0.4,0.4,0.8,0.8,0.8c0.5,0,0.8-0.4,0.8-0.8
		C-282,388.3-282.2,388-282.8,388z"/>
	<path fill="#FFFFFF" d="M-278.2,388c-0.5,0-0.8,0.4-0.8,0.8c0,0.4,0.4,0.8,0.8,0.8c0.5,0,0.8-0.4,0.8-0.8
		C-277.5,388.3-277.8,388-278.2,388z"/>
	<path fill="#FFFFFF" d="M-282.8,390.6c-0.5,0-0.8,0.4-0.8,0.8c0,0.4,0.4,0.8,0.8,0.8c0.5,0,0.8-0.4,0.8-0.8
		C-282,391-282.2,390.6-282.8,390.6z"/>
	<path fill="#FFFFFF" d="M-278.2,390.6c-0.5,0-0.8,0.4-0.8,0.8c0,0.4,0.4,0.8,0.8,0.8c0.5,0,0.8-0.4,0.8-0.8
		C-277.5,391-277.8,390.6-278.2,390.6z"/>
	<path fill="#FFFFFF" d="M-282.8,393.2c-0.5,0-0.8,0.4-0.8,0.8c0,0.4,0.4,0.8,0.8,0.8c0.5,0,0.8-0.4,0.8-0.8
		C-282,393.6-282.2,393.2-282.8,393.2z"/>
	<path fill="#FFFFFF" d="M-278.2,393.2c-0.5,0-0.8,0.4-0.8,0.8c0,0.4,0.4,0.8,0.8,0.8c0.5,0,0.8-0.4,0.8-0.8
		C-277.5,393.6-277.8,393.2-278.2,393.2z"/>
	<path fill="#BDA770" d="M-285,404.7L-285,404.7C-285,404.7-285,404.7-285,404.7z"/>
	<path fill="#BDA770" d="M-280.5,410.2c2.5,0,4.4-2.4,4.4-5.4v-0.1c-1.3-0.4-2.9-0.7-4.4-0.7c-1.4-0.1-3,0.3-4.4,0.7
		C-285,407.8-283,410.2-280.5,410.2z"/>
	<path fill="#BDA770" d="M-276.2,402.6v-1.8c-1.1-0.3-2.9-0.6-4.2-0.6c-2,0.1-3.6,0.4-4.6,0.6c0,0.9,0,1.7,0,2.6l0.9-0.2h0.1
		c0.9-0.1,1.7-0.3,2.6-0.4c1.3-0.1,2.7,0,4,0.3l1.2,0.2C-276.2,403.1-276.2,402.8-276.2,402.6z M-278,402.6c-0.4,0-0.8-0.3-0.8-0.8
		s0.3-0.8,0.8-0.8c0.4,0,0.8,0.3,0.8,0.8C-277.2,402.2-277.5,402.6-278,402.6z"/>
	<path fill="#BDA770" d="M-276.2,400.2c0-0.9-0.1-1.1-1.1-1.4c-0.1,0-0.2-0.1-0.2-0.1c-1.7-0.4-3.5-0.4-5.2-0.2
		c-0.6,0.1-1.2,0.3-1.9,0.5c-0.3,0.1-0.4,0.4-0.4,0.7c0,0.3,0,0.5,0,0.8c1-0.2,2.6-0.5,4.6-0.5c0.6,0,2.1,0.1,2.7,0.3
		c0.6,0.1,1.1,0.2,1.5,0.3V400.2z"/>
	<path fill="#BDA770" d="M-276,410.6l-0.2-0.1l-0.3-1c0,0-1.3,1.7-4,1.7s-3.9-1.7-3.9-1.7l-0.3,1l-0.3,0.1c-2.3,0.7-3.5,2.1-3.5,4.7
		v5.3h16.1v-5.3C-272.5,412.7-274,411.2-276,410.6z M-282.8,419.8c-0.4,0-0.8-0.4-0.8-0.8c0-0.4,0.3-0.8,0.8-0.8s0.8,0.4,0.8,0.8
		C-282,419.4-282.2,419.8-282.8,419.8z M-282.8,417.2c-0.4,0-0.8-0.4-0.8-0.8c0-0.4,0.3-0.8,0.8-0.8s0.8,0.4,0.8,0.8
		C-282,416.8-282.2,417.2-282.8,417.2z M-282.8,414.6c-0.4,0-0.8-0.4-0.8-0.8c0-0.4,0.3-0.8,0.8-0.8s0.8,0.3,0.8,0.8
		C-282,414.2-282.2,414.6-282.8,414.6z M-278.2,419.8c-0.4,0-0.8-0.4-0.8-0.8c0-0.4,0.3-0.8,0.8-0.8s0.8,0.4,0.8,0.8
		C-277.5,419.4-277.8,419.8-278.2,419.8z M-278.2,417.2c-0.4,0-0.8-0.4-0.8-0.8c0-0.4,0.3-0.8,0.8-0.8s0.8,0.4,0.8,0.8
		C-277.5,416.8-277.8,417.2-278.2,417.2z M-278.2,414.6c-0.4,0-0.8-0.4-0.8-0.8c0-0.4,0.3-0.8,0.8-0.8s0.8,0.3,0.8,0.8
		C-277.5,414.2-277.8,414.6-278.2,414.6z"/>
	<path fill="#FFFFFF" d="M-282.8,413c-0.5,0-0.8,0.4-0.8,0.8c0,0.4,0.4,0.8,0.8,0.8c0.5,0,0.8-0.4,0.8-0.8
		C-282,413.3-282.2,413-282.8,413z"/>
	<path fill="#FFFFFF" d="M-278.2,413c-0.5,0-0.8,0.4-0.8,0.8c0,0.4,0.4,0.8,0.8,0.8c0.5,0,0.8-0.4,0.8-0.8
		C-277.5,413.3-277.8,413-278.2,413z"/>
	<path fill="#FFFFFF" d="M-282.8,415.6c-0.5,0-0.8,0.4-0.8,0.8c0,0.4,0.4,0.8,0.8,0.8c0.5,0,0.8-0.4,0.8-0.8
		C-282,416-282.2,415.6-282.8,415.6z"/>
	<path fill="#FFFFFF" d="M-278.2,415.6c-0.5,0-0.8,0.4-0.8,0.8c0,0.4,0.4,0.8,0.8,0.8c0.5,0,0.8-0.4,0.8-0.8
		C-277.5,416-277.8,415.6-278.2,415.6z"/>
	<path fill="#FFFFFF" d="M-282.8,418.2c-0.5,0-0.8,0.4-0.8,0.8c0,0.4,0.4,0.8,0.8,0.8c0.5,0,0.8-0.4,0.8-0.8
		C-282,418.6-282.2,418.2-282.8,418.2z"/>
	<path fill="#FFFFFF" d="M-278.2,418.2c-0.5,0-0.8,0.4-0.8,0.8c0,0.4,0.4,0.8,0.8,0.8c0.5,0,0.8-0.4,0.8-0.8
		C-277.5,418.6-277.8,418.2-278.2,418.2z"/>
</g>
</svg>
