<?xml version="1.0" encoding="utf-8"?>
<!-- Generator: Adobe Illustrator 16.0.4, SVG Export Plug-In . SVG Version: 6.00 Build 0)  -->
<svg version="1.2" baseProfile="tiny" id="Layer_1" xmlns="http://www.w3.org/2000/svg" xmlns:xlink="http://www.w3.org/1999/xlink"
	 x="0px" y="0px" width="50px" height="100px" viewBox="0 0 50 100" xml:space="preserve">
<path fill="#FFFFFF" d="M34.375,12.5h-18.75c-0.573,0-1.042,0.469-1.042,1.042v22.917c0,0.573,0.469,1.042,1.042,1.042h18.75
	c0.572,0,1.042-0.469,1.042-1.042V13.542C35.417,12.969,34.947,12.5,34.375,12.5z M32.292,28.125H17.708v-6.25h14.583V28.125z
	 M32.292,18.75H17.708v-3.125h14.583V18.75z"/>
<path fill="#BDA770" d="M34.375,62.5h-18.75c-0.573,0-1.042,0.469-1.042,1.041v22.917c0,0.573,0.469,1.042,1.042,1.042h18.75
	c0.572,0,1.042-0.469,1.042-1.042V63.541C35.417,62.969,34.947,62.5,34.375,62.5z M32.292,78.125H17.708v-6.25h14.584V78.125z
	 M32.292,68.75H17.708v-3.125h14.584V68.75z"/>
</svg>
