<?xml version="1.0" encoding="utf-8"?>
<!-- Generator: Adobe Illustrator 16.0.4, SVG Export Plug-In . SVG Version: 6.00 Build 0)  -->
<!DOCTYPE svg PUBLIC "-//W3C//DTD SVG 1.1//EN" "http://www.w3.org/Graphics/SVG/1.1/DTD/svg11.dtd">
<svg version="1.1" id="Layer_1" xmlns="http://www.w3.org/2000/svg" xmlns:xlink="http://www.w3.org/1999/xlink" x="0px" y="0px"
	 width="50px" height="100px" viewBox="0 0 50 100" enable-background="new 0 0 50 100" xml:space="preserve">
<g>
	<path fill="#FFFFFF" d="M19.346,17.992c0,0.637-0.516,1.153-1.153,1.153H14.73c-0.637,0-1.153-0.517-1.153-1.153l0,0
		c0-0.638,0.516-1.154,1.153-1.154h3.462C18.83,16.837,19.346,17.354,19.346,17.992L19.346,17.992z"/>
	<g>
		<path fill="#FFFFFF" d="M34.65,26.701c0,3.982-3.229,7.212-7.212,7.212c-3.981,0-7.211-3.229-7.211-7.212
			c0-1.559,0.496-3.001,1.338-4.181H11v11.618c0,0.741,0.602,1.342,1.342,1.342h25.314c0.741,0,1.343-0.6,1.343-1.342V22.52h-5.687
			C34.154,23.699,34.65,25.142,34.65,26.701z"/>
		<path fill="#FFFFFF" d="M37.657,17.782H12.343c-0.741,0-1.342,0.601-1.342,1.342v2.858h10.988c1.322-1.526,3.272-2.493,5.45-2.493
			s4.128,0.967,5.452,2.493h6.108v-2.858C39,18.383,38.398,17.782,37.657,17.782z"/>
	</g>
	<path fill="#FFFFFF" d="M30.89,14.521h-6.915l-1.441,2.764h9.798L30.89,14.521z M29.452,16.584h-4.037v-1.387h4.037V16.584z"/>
	<circle fill="#FFFFFF" cx="27.478" cy="26.701" r="4.875"/>
	<rect x="15.194" y="16.19" fill="#FFFFFF" width="2.505" height="1.211"/>
	<g>
		<path fill="#FFFFFF" d="M27.479,32.729c-3.325,0-6.029-2.705-6.029-6.029c0-3.324,2.705-6.028,6.029-6.028
			c3.323,0,6.027,2.705,6.027,6.028C33.506,30.025,30.802,32.729,27.479,32.729z M27.479,21.21c-3.029,0-5.493,2.463-5.493,5.491
			c0,3.028,2.463,5.492,5.493,5.492c3.026,0,5.491-2.463,5.491-5.492C32.97,23.673,30.505,21.21,27.479,21.21z"/>
	</g>
</g>
<g>
	<path fill="#BDA770" d="M19.346,67.992c0,0.637-0.516,1.154-1.154,1.154H14.73c-0.638,0-1.154-0.518-1.154-1.154l0,0
		c0-0.639,0.516-1.154,1.154-1.154h3.462C18.83,66.838,19.346,67.354,19.346,67.992L19.346,67.992z"/>
	<g>
		<path fill="#BDA770" d="M34.65,76.701c0,3.982-3.229,7.212-7.212,7.212c-3.982,0-7.211-3.229-7.211-7.212
			c0-1.56,0.496-3.002,1.338-4.182H11.001v11.617c0,0.741,0.601,1.342,1.342,1.342h25.313c0.742,0,1.344-0.601,1.344-1.342V72.52
			h-5.687C34.154,73.699,34.65,75.142,34.65,76.701z"/>
		<path fill="#BDA770" d="M37.656,67.782H12.342c-0.741,0-1.342,0.602-1.342,1.343v2.857h10.987c1.322-1.526,3.272-2.494,5.45-2.494
			c2.179,0,4.129,0.968,5.453,2.494h6.107v-2.858C38.999,68.384,38.398,67.782,37.656,67.782z"/>
	</g>
	<path fill="#BDA770" d="M30.89,64.521h-6.915l-1.442,2.764h9.798L30.89,64.521z M29.452,66.585h-4.037v-1.388h4.037V66.585z"/>
	<circle fill="#BDA770" cx="27.478" cy="76.701" r="4.875"/>
	<rect x="15.194" y="66.189" fill="#BDA770" width="2.505" height="1.212"/>
	<g>
		<path fill="#BDA770" d="M27.479,82.729c-3.325,0-6.029-2.704-6.029-6.028c0-3.322,2.705-6.027,6.029-6.027
			c3.323,0,6.027,2.705,6.027,6.027C33.506,80.025,30.802,82.729,27.479,82.729z M27.479,71.21c-3.029,0-5.493,2.464-5.493,5.491
			c0,3.029,2.463,5.492,5.493,5.492c3.026,0,5.491-2.463,5.491-5.492C32.97,73.674,30.505,71.21,27.479,71.21z"/>
	</g>
</g>
</svg>
