<?xml version="1.0" encoding="utf-8"?>
<!-- Generator: Adobe Illustrator 16.0.3, SVG Export Plug-In . SVG Version: 6.00 Build 0)  -->
<!DOCTYPE svg PUBLIC "-//W3C//DTD SVG 1.1//EN" "http://www.w3.org/Graphics/SVG/1.1/DTD/svg11.dtd">
<svg version="1.1" id="Layer_1" xmlns="http://www.w3.org/2000/svg" xmlns:xlink="http://www.w3.org/1999/xlink" x="0px" y="0px"
	 width="50px" height="50px" viewBox="0 0 50 50" enable-background="new 0 0 50 50" xml:space="preserve">
<path fill="#BDA770" d="M39.702,36.402c0,6.168-5.001,11.171-11.17,11.171c-6.17,0-11.173-5.003-11.173-11.171
	c0-2.416,0.771-4.651,2.073-6.479H3.066v17.997C3.066,49.07,3.998,50,5.147,50h39.21c1.149,0,2.082-0.93,2.082-2.079V29.924h-8.811
	C38.934,31.751,39.702,33.986,39.702,36.402z"/>
<path fill="#BDA770" d="M33.877,17.534H23.166l-2.232,4.282h15.175L33.877,17.534z M31.648,20.731h-6.253v-2.149h6.253V20.731z"/>
<circle fill="#BDA770" cx="28.591" cy="36.403" r="7.552"/>
<g>
	<g>
		<path fill="#BDA770" d="M44.357,22.587h-28.39c-0.121-0.881-0.859-1.621-1.761-1.621H13.6v-1.247H9.44v1.247H8.843
			c-0.9,0-1.64,0.74-1.761,1.621H5.147c-1.149,0-2.081,0.931-2.081,2.078v4.427h17.021c2.049-2.363,5.071-3.862,8.445-3.862
			s6.395,1.499,8.442,3.862h9.465v-4.427C46.439,23.518,45.508,22.587,44.357,22.587z"/>
	</g>
</g>
<g>
	<path fill="#BDA770" d="M28.591,45.74c-5.149,0-9.338-4.189-9.338-9.338c0-5.149,4.188-9.34,9.338-9.34
		c5.15,0,9.341,4.189,9.341,9.34C37.932,41.551,33.741,45.74,28.591,45.74z M28.591,27.896c-4.691,0-8.507,3.815-8.507,8.508
		c0,4.689,3.815,8.506,8.507,8.506c4.692,0,8.509-3.815,8.509-8.506C37.1,31.712,33.282,27.896,28.591,27.896z"/>
</g>
</svg>
