<?xml version="1.0" encoding="utf-8"?>
<!-- Generator: Adobe Illustrator 16.0.3, SVG Export Plug-In . SVG Version: 6.00 Build 0)  -->
<!DOCTYPE svg PUBLIC "-//W3C//DTD SVG 1.1//EN" "http://www.w3.org/Graphics/SVG/1.1/DTD/svg11.dtd">
<svg version="1.1" id="Layer_1" xmlns="http://www.w3.org/2000/svg" xmlns:xlink="http://www.w3.org/1999/xlink" x="0px" y="0px"
	 width="50px" height="100px" viewBox="0 0 50 100" enable-background="new 0 0 50 100" xml:space="preserve">
<g>
	<g>
		<rect x="27.049" y="18.806" fill="#999999" width="13.223" height="6.086"/>
		<rect x="10.405" y="18.806" fill="#999999" width="13.223" height="6.086"/>
		<rect x="27.049" y="26.436" fill="#999999" width="11.578" height="17.631"/>
		<rect x="12.05" y="26.436" fill="#999999" width="11.578" height="17.631"/>
	</g>
	<g>
		<path fill="#999999" d="M24.815,18.782c0.062,0.003,0.124,0.005,0.187,0.007c-0.065-0.009-0.131-0.018-0.196-0.027
			C24.809,18.77,24.811,18.782,24.815,18.782z"/>
		<path fill="#999999" d="M37.774,12.04c0,0-1.314-5.23-5.985-4.901c-3.522,0.248-5.851,6.732-6.667,9.915
			c0.073,1.016,0.061,1.687,0.002,1.742c3.92,0.128,7.98-0.933,7.98-0.933C38.827,16.479,37.774,12.04,37.774,12.04z M33.894,11.94
			c-0.986,2.631-3.486,4.145-4.868,5c-1.381,0.855-3.486,1.316-3.486,1.316l3.421-3.289C28.96,14.967,34.881,9.309,33.894,11.94z"/>
		<path fill="#999999" d="M25.115,18.806c0.004,0,0.007-0.008,0.009-0.011c-0.041-0.001-0.082-0.003-0.122-0.005
			C25.04,18.795,25.078,18.801,25.115,18.806z"/>
		<path fill="#999999" d="M25.122,17.053c-0.238-3.275-1.377-10.074-4.801-10.944c-4.538-1.153-6.761,3.76-6.761,3.76
			s-1.824,4.183,3.562,6.559c0,0,3.803,1.764,7.683,2.335C24.769,18.664,24.876,18.011,25.122,17.053z M21.448,16.245
			c-1.208-1.087-3.399-3.02-3.903-5.785c-0.504-2.764,4.318,3.854,4.318,3.854l2.782,3.844
			C24.646,18.159,22.656,17.332,21.448,16.245z"/>
		<path fill="#999999" d="M25.122,17.053c-0.246,0.958-0.354,1.611-0.316,1.709c0.065,0.009,0.131,0.019,0.196,0.027
			c0.04,0.001,0.081,0.003,0.122,0.005C25.183,18.739,25.195,18.068,25.122,17.053z"/>
	</g>
</g>
<g>
	<g>
		<rect x="27.049" y="68.807" fill="#FFFFFF" width="13.223" height="6.086"/>
		<rect x="10.405" y="68.807" fill="#FFFFFF" width="13.223" height="6.086"/>
		<rect x="27.049" y="76.437" fill="#FFFFFF" width="11.578" height="17.631"/>
		<rect x="12.05" y="76.437" fill="#FFFFFF" width="11.578" height="17.631"/>
	</g>
	<g>
		<path fill="#FFFFFF" d="M24.815,68.783c0.062,0.003,0.124,0.005,0.187,0.007c-0.065-0.009-0.131-0.019-0.196-0.027
			C24.809,68.771,24.811,68.783,24.815,68.783z"/>
		<path fill="#FFFFFF" d="M37.774,62.04c0,0-1.314-5.229-5.985-4.901c-3.522,0.249-5.851,6.732-6.667,9.915
			c0.073,1.016,0.061,1.687,0.002,1.741c3.92,0.129,7.98-0.933,7.98-0.933C38.827,66.48,37.774,62.04,37.774,62.04z M33.894,61.941
			c-0.986,2.631-3.486,4.145-4.868,5c-1.381,0.855-3.486,1.315-3.486,1.315l3.421-3.289C28.96,64.968,34.881,59.311,33.894,61.941z"
			/>
		<path fill="#FFFFFF" d="M25.115,68.807c0.004,0.001,0.007-0.009,0.009-0.012c-0.041-0.001-0.082-0.003-0.122-0.005
			C25.04,68.796,25.078,68.802,25.115,68.807z"/>
		<path fill="#FFFFFF" d="M25.122,67.054c-0.238-3.275-1.377-10.074-4.801-10.944c-4.538-1.154-6.761,3.761-6.761,3.761
			s-1.824,4.183,3.562,6.558c0,0,3.803,1.765,7.683,2.335C24.769,68.665,24.876,68.012,25.122,67.054z M21.448,66.246
			c-1.208-1.087-3.399-3.021-3.903-5.784c-0.504-2.766,4.318,3.854,4.318,3.854l2.782,3.844
			C24.646,68.159,22.656,67.333,21.448,66.246z"/>
		<path fill="#FFFFFF" d="M25.122,67.054c-0.246,0.958-0.354,1.611-0.316,1.709c0.065,0.009,0.131,0.019,0.196,0.027
			c0.04,0.002,0.081,0.004,0.122,0.005C25.183,68.74,25.195,68.069,25.122,67.054z"/>
	</g>
</g>
</svg>
