<?xml version="1.0" encoding="utf-8"?>
<!-- Generator: Adobe Illustrator 16.0.3, SVG Export Plug-In . SVG Version: 6.00 Build 0)  -->
<!DOCTYPE svg PUBLIC "-//W3C//DTD SVG 1.1//EN" "http://www.w3.org/Graphics/SVG/1.1/DTD/svg11.dtd">
<svg version="1.1" id="Layer_1" xmlns="http://www.w3.org/2000/svg" xmlns:xlink="http://www.w3.org/1999/xlink" x="0px" y="0px"
	 width="50px" height="50px" viewBox="0 0 50 50" enable-background="new 0 0 50 50" xml:space="preserve">
<g>
	<g>
		<path fill="#BDA770" d="M24.635,36.615c0-0.309,0.248-0.557,0.557-0.557c1.965,0,3.481-0.416,4.497-0.822
			c0.171-0.184,0.235-0.314,0.235-0.314v-1.74c0,0-1.949,1.182-4.732,1.182c-2.784,0-5.15-1.182-5.15-1.182v1.74
			c0,0,0.104,0.145,0.354,0.348h-0.005c0,0,2.991,3.896,2.991,5.289c0,0.188,0,0.262,0,0.252c0,1.338,0,3.395,0,6.475
			c0,0,0.487,1.879,1.461,2.715h0.279c0.974-0.836,1.461-2.715,1.461-2.715c0-3.08,0-5.137,0-6.475c0-0.086,0-0.172,0-0.252
			c0-0.824,1.046-2.523,1.901-3.773c-0.922,0.225-2.022,0.385-3.293,0.385C24.883,37.17,24.635,36.924,24.635,36.615z"/>
	</g>
	<g>
		<path fill="#BDA770" d="M25,11.748c-5.611,0-10.16,4.55-10.16,10.16c0,5.612,4.549,10.161,10.16,10.161
			c5.61,0,10.16-4.549,10.16-10.161C35.16,16.297,30.61,11.748,25,11.748z M25.418,20.585c-0.924,0-1.671-0.748-1.671-1.671
			c0-0.922,0.747-1.67,1.671-1.67c0.923,0,1.67,0.748,1.67,1.67C27.088,19.837,26.341,20.585,25.418,20.585z M25.695,15.853
			c-0.922,0-1.67-0.747-1.67-1.67c0-0.922,0.748-1.67,1.67-1.67c0.924,0,1.671,0.748,1.671,1.67
			C27.366,15.106,26.619,15.853,25.695,15.853z M29.314,24.205c-0.923,0-1.67-0.749-1.67-1.671s0.747-1.67,1.67-1.67
			s1.67,0.748,1.67,1.67S30.237,24.205,29.314,24.205z M29.871,18.915c-0.922,0-1.67-0.747-1.67-1.67c0-0.922,0.748-1.67,1.67-1.67
			c0.923,0,1.67,0.748,1.67,1.67C31.541,18.167,30.794,18.915,29.871,18.915z"/>
	</g>
</g>
</svg>
