<?xml version="1.0" encoding="utf-8"?>
<!-- Generator: Adobe Illustrator 16.0.3, SVG Export Plug-In . SVG Version: 6.00 Build 0)  -->
<!DOCTYPE svg PUBLIC "-//W3C//DTD SVG 1.1//EN" "http://www.w3.org/Graphics/SVG/1.1/DTD/svg11.dtd">
<svg version="1.1" id="Layer_1" xmlns="http://www.w3.org/2000/svg" xmlns:xlink="http://www.w3.org/1999/xlink" x="0px" y="0px"
   width="50px" height="100px" viewBox="0 0 50 100" enable-background="new 0 0 50 100" xml:space="preserve">
<path fill="#ffffff" d="M30.436,23.452c0-3.242,7.131-4.182,7.131-11.8c0-4.571-0.422-7.327-4.021-8.948
  c0-1.134,6.354-0.389,6.354-2.507c-1.103,0-13.918,0-13.918,0S11.89,0.542,11.89,12.473c0,11.93,12.319,10.547,12.319,10.547
  s0,1.805,0,3.026c0,1.221,1.654,0.811,1.857,3.284c-0.831,0-17.116-0.432-17.116,10.374c0,10.805,14.351,10.288,14.351,10.288
  s16.598,0.757,16.598-12.665C39.898,29.287,30.436,26.694,30.436,23.452z M18.41,13.165c-1.303-4.792,0.414-9.429,3.836-10.359
  c3.421-0.931,7.25,2.199,8.554,6.989c1.304,4.792-0.413,9.431-3.835,10.362C23.542,21.086,19.713,17.956,18.41,13.165z
   M25.537,46.541c-5.745,0.39-10.632-2.691-10.915-6.882c-0.285-4.189,4.142-7.901,9.887-8.291c5.746-0.389,10.636,2.69,10.919,6.881
  S31.282,46.152,25.537,46.541z"/>
<path fill="#BDA770" d="M30.436,73.452c0-3.242,7.131-4.183,7.131-11.8c0-4.571-0.422-7.327-4.021-8.948
  c0-1.134,6.354-0.39,6.354-2.507c-1.103,0-13.918,0-13.918,0S11.89,50.542,11.89,62.473c0,11.93,12.319,10.547,12.319,10.547
  s0,1.806,0,3.026c0,1.222,1.654,0.812,1.857,3.284c-0.831,0-17.116-0.432-17.116,10.374c0,10.805,14.351,10.288,14.351,10.288
  s16.598,0.757,16.598-12.665C39.898,79.287,30.436,76.693,30.436,73.452z M18.41,63.165c-1.303-4.792,0.414-9.429,3.836-10.358
  c3.421-0.932,7.25,2.198,8.554,6.988c1.304,4.792-0.413,9.432-3.835,10.362C23.542,71.086,19.713,67.956,18.41,63.165z
   M25.537,96.541c-5.745,0.391-10.632-2.691-10.915-6.882c-0.285-4.189,4.142-7.901,9.887-8.291c5.746-0.39,10.636,2.69,10.919,6.881
  S31.282,96.152,25.537,96.541z"/>
</svg>
