<?xml version="1.0" encoding="utf-8"?>
<!-- Generator: Adobe Illustrator 16.0.3, SVG Export Plug-In . SVG Version: 6.00 Build 0)  -->
<!DOCTYPE svg PUBLIC "-//W3C//DTD SVG 1.1//EN" "http://www.w3.org/Graphics/SVG/1.1/DTD/svg11.dtd">
<svg version="1.1" id="Layer_1" xmlns="http://www.w3.org/2000/svg" xmlns:xlink="http://www.w3.org/1999/xlink" x="0px" y="0px"
  width="50px" height="100px" viewBox="0 0 50 100" enable-background="new 0 0 50 100" xml:space="preserve">
<g>
 <g>
  <rect x="16.477" y="62.539" fill="#FFFFFF" width="5.998" height="18.284"/>
  <rect x="16.477" y="83.188" fill="#FFFFFF" width="18.283" height="4.844"/>
  <rect x="25.131" y="62.539" fill="#FFFFFF" width="9.592" height="5.992"/>
  <rect x="25.131" y="71.127" fill="#FFFFFF" width="9.592" height="9.583"/>
 </g>
 <path fill="#FFFFFF" d="M25,99.797C11.327,99.797,0.202,88.673,0.202,75c0-13.672,11.125-24.794,24.798-24.794
  S49.797,61.328,49.797,75C49.797,88.673,38.673,99.797,25,99.797z M25,52.226C12.44,52.226,2.223,62.441,2.223,75
  S12.44,97.777,25,97.777S47.776,87.559,47.776,75S37.56,52.226,25,52.226z"/>
</g>
<path fill="#FFFFFF" d="M25,0.206C11.327,0.206,0.202,11.328,0.202,25c0,13.673,11.125,24.798,24.798,24.798
 S49.797,38.673,49.797,25C49.797,11.328,38.673,0.206,25,0.206z M25.131,12.54h9.592v5.992h-9.592V12.54z M25.131,21.127h9.592
 v9.583h-9.592V21.127z M16.477,12.54h5.998v18.284h-5.998V12.54z M34.76,38.032H16.477v-4.843H34.76V38.032z"/>
</svg>
