<?xml version="1.0" encoding="utf-8"?>
<!-- Generator: Adobe Illustrator 16.0.3, SVG Export Plug-In . SVG Version: 6.00 Build 0)  -->
<!DOCTYPE svg PUBLIC "-//W3C//DTD SVG 1.1//EN" "http://www.w3.org/Graphics/SVG/1.1/DTD/svg11.dtd">
<svg version="1.1" id="Layer_1" xmlns="http://www.w3.org/2000/svg" xmlns:xlink="http://www.w3.org/1999/xlink" x="0px" y="0px"
  width="50px" height="100px" viewBox="0 0 50 100" enable-background="new 0 0 50 100" xml:space="preserve">
<g>
 <g>
  <path fill-rule="evenodd" clip-rule="evenodd" fill="#BDA770" d="M29.58,80.038c-3.023-0.451-2.19-2.016-2.21-2.111
   c0.005-0.24,0.11-1.258,0.11-1.258s1.171-0.82,1.634-2.154c0.729-0.468,1.008-0.53,1.128-1.068c0,0,0.245-2.028-0.538-2.028
   c0,0-0.325,0.054-0.221-0.422s0.069-2.01,0.017-2.538c-0.052-0.526,0.1-2.037-0.996-2.248c-0.747-0.143-0.835,0.072-1.2,0.019
   c-0.366-0.052-0.802-1.009-1.48-1.009l-1.408,0.229c-0.678,0-0.573,0.21-0.939,0.264c-0.367,0.052,0.074-0.054-1.022,0.159
   c-1.095,0.211-1.483,1.636-1.536,2.164c-0.052,0.529-0.183,2.063-0.148,2.855c0.106,0.474-0.603,0.474-0.603,0.474
   c-0.656-0.042-0.36,2.029-0.36,2.029c0.094,0.511-0.036,0.764,0.938,1.161c0.463,1.333,2.3,2.007,2.3,2.007
   s0.059,0.857,0.077,1.468c-0.099-0.052,0.367,1.558-2.656,2.009c-3.02,0.449-3.047,1.439-3.616,1.992
   c-0.569,0.55-0.526,4.252-0.526,4.252h17.653c0,0-0.056-3.702-0.626-4.252C32.779,81.478,32.6,80.487,29.58,80.038z M40.05,82.906
   c-0.436-0.423-0.889-0.93-3.152-1.526c-1.556-0.411-0.856-1.545-0.871-1.619c0.004-0.185,0.084-0.962,0.084-0.962
   s0.947-0.631,1.301-1.652c0.561-0.356,0.773-0.406,0.865-0.819c0,0-0.369-1.553-0.971-1.553c0,0-0.249,0.041-0.169-0.324
   c0.079-0.365,0.054-1.54,0.013-1.945s0.076-1.561-0.764-1.724c-0.573-0.107-0.081,0.057-0.36,0.016
   c-0.28-0.039-0.614-0.566-1.134-0.566l-1.08,0.176c-0.521,0-0.439,0.162-0.72,0.202s0.057-0.04-0.784,0.122
   c-0.84,0.161-0.646,1.046-0.685,1.452c-0.041,0.402,0.049,1.441,0.075,2.048c0.079,0.365-0.828,0.503-0.828,0.503
   c-0.504-0.031-0.276,1.555-0.276,1.555c0.07,0.391-0.027,0.586,0.718,0.89c0.356,1.022,1.448,1.539,1.448,1.539
   s-0.298,0.705-0.282,1.173c0.897,0.533,1.538,1.153,1.991,1.835c0.626,1.782,0.619,4.552,0.619,4.552
   c3.019,0,6.587-0.093,6.587-0.093S41.398,83.696,40.05,82.906z M17.859,79.89c0.015-0.468-0.283-1.173-0.283-1.173
   s1.092-0.517,1.446-1.539c0.745-0.304,0.648-0.499,0.721-0.89c0,0,0.226-1.586-0.277-1.555c0,0-0.906-0.138-0.827-0.503
   c0.025-0.606,0.115-1.646,0.075-2.048c-0.041-0.406,0.153-1.291-0.687-1.452c-0.84-0.162-0.503-0.082-0.782-0.122
   c-0.281-0.04-0.2-0.202-0.721-0.202l-1.08-0.176c-0.519,0-0.854,0.527-1.133,0.566c-0.281,0.041,0.211-0.123-0.362-0.016
   c-0.84,0.163-0.723,1.318-0.763,1.724c-0.041,0.405-0.066,1.58,0.012,1.945c0.082,0.365-0.168,0.324-0.168,0.324
   c-0.602,0-0.971,1.553-0.971,1.553c0.092,0.413,0.303,0.463,0.863,0.819c0.354,1.021,1.302,1.652,1.302,1.652
   s0.08,0.777,0.085,0.962c-0.016,0.074,0.27,1.172-0.871,1.619c-2.181,0.853-2.716,1.104-3.152,1.526
   c-1.714,0.978-1.626,3.37-1.626,3.37s3.568,0,6.588,0c0,0-0.007-2.77,0.62-4.552C16.321,81.043,16.96,80.423,17.859,79.89z"/>
 </g>
</g>
<g>
 <g>
  <path fill-rule="evenodd" clip-rule="evenodd" fill="#FFFFFF" d="M29.58,30.038c-3.023-0.451-2.19-2.016-2.21-2.111
   c0.005-0.24,0.11-1.258,0.11-1.258s1.171-0.82,1.634-2.154c0.729-0.468,1.008-0.53,1.128-1.068c0,0,0.245-2.028-0.538-2.028
   c0,0-0.325,0.054-0.221-0.422s0.069-2.01,0.017-2.538c-0.052-0.526,0.1-2.037-0.996-2.248c-0.747-0.143-0.835,0.072-1.2,0.019
   c-0.366-0.052-0.802-1.009-1.48-1.009l-1.408,0.229c-0.678,0-0.573,0.21-0.939,0.264c-0.367,0.052,0.074-0.054-1.022,0.159
   c-1.095,0.211-1.483,1.636-1.536,2.164c-0.052,0.529-0.183,2.063-0.148,2.855c0.106,0.474-0.603,0.474-0.603,0.474
   c-0.656-0.042-0.36,2.029-0.36,2.029c0.094,0.511-0.036,0.764,0.938,1.161c0.463,1.333,2.3,2.007,2.3,2.007
   s0.059,0.857,0.077,1.468c-0.099-0.052,0.367,1.558-2.656,2.009c-3.02,0.449-3.047,1.439-3.616,1.992
   c-0.569,0.55-0.526,4.252-0.526,4.252h17.653c0,0-0.056-3.702-0.626-4.252C32.779,31.478,32.6,30.487,29.58,30.038z M40.05,32.906
   c-0.436-0.423-0.889-0.93-3.152-1.526c-1.556-0.411-0.856-1.545-0.871-1.619c0.004-0.185,0.084-0.962,0.084-0.962
   s0.947-0.631,1.301-1.652c0.561-0.356,0.773-0.406,0.865-0.819c0,0-0.369-1.553-0.971-1.553c0,0-0.249,0.041-0.169-0.324
   c0.079-0.365,0.054-1.54,0.013-1.945s0.076-1.561-0.764-1.724c-0.573-0.107-0.081,0.057-0.36,0.016
   c-0.28-0.039-0.614-0.566-1.134-0.566l-1.08,0.176c-0.521,0-0.439,0.162-0.72,0.202s0.057-0.04-0.784,0.122
   c-0.84,0.161-0.646,1.046-0.685,1.452c-0.041,0.402,0.049,1.441,0.075,2.048c0.079,0.365-0.828,0.503-0.828,0.503
   c-0.504-0.031-0.276,1.555-0.276,1.555c0.07,0.391-0.027,0.586,0.718,0.89c0.356,1.022,1.448,1.539,1.448,1.539
   s-0.298,0.705-0.282,1.173c0.897,0.533,1.538,1.153,1.991,1.835c0.626,1.782,0.619,4.552,0.619,4.552
   c3.019,0,6.587-0.093,6.587-0.093S41.398,33.696,40.05,32.906z M17.859,29.89c0.015-0.468-0.283-1.173-0.283-1.173
   s1.092-0.517,1.446-1.539c0.745-0.304,0.648-0.499,0.721-0.89c0,0,0.226-1.586-0.277-1.555c0,0-0.906-0.138-0.827-0.503
   c0.025-0.606,0.115-1.646,0.075-2.048c-0.041-0.406,0.153-1.291-0.687-1.452c-0.84-0.162-0.503-0.082-0.782-0.122
   c-0.281-0.04-0.2-0.202-0.721-0.202l-1.08-0.176c-0.519,0-0.854,0.527-1.133,0.566c-0.281,0.041,0.211-0.123-0.362-0.016
   c-0.84,0.163-0.723,1.318-0.763,1.724c-0.041,0.405-0.066,1.58,0.012,1.945c0.082,0.365-0.168,0.324-0.168,0.324
   c-0.602,0-0.971,1.553-0.971,1.553c0.092,0.413,0.303,0.463,0.863,0.819c0.354,1.021,1.302,1.652,1.302,1.652
   s0.08,0.777,0.085,0.962c-0.016,0.074,0.27,1.172-0.871,1.619c-2.181,0.853-2.716,1.104-3.152,1.526
   c-1.714,0.978-1.626,3.37-1.626,3.37s3.568,0,6.588,0c0,0-0.007-2.77,0.62-4.552C16.321,31.043,16.96,30.423,17.859,29.89z"/>
 </g>
</g>
</svg>
