<?xml version="1.0" encoding="utf-8"?>
<!-- Generator: Adobe Illustrator 16.0.3, SVG Export Plug-In . SVG Version: 6.00 Build 0)  -->
<!DOCTYPE svg PUBLIC "-//W3C//DTD SVG 1.1//EN" "http://www.w3.org/Graphics/SVG/1.1/DTD/svg11.dtd">
<svg version="1.1" id="Layer_1" xmlns="http://www.w3.org/2000/svg" xmlns:xlink="http://www.w3.org/1999/xlink" x="0px" y="0px"
  width="50px" height="100px" viewBox="0 0 50 100" enable-background="new 0 0 50 100" xml:space="preserve">
<g>
 <path fill="#BDA770" d="M38.724,77.924l-0.008-0.07l-3.73-6.46c-0.192,0.229-0.454,0.42-0.771,0.574l0.369,0.005l3.189,5.521
  l0.521,0.3l0.355,0.863C38.723,78.455,38.757,78.214,38.724,77.924z"/>
 <path fill="#BDA770" d="M15.065,71.128l-3.664,7.033l-0.025,0.065c-0.004,0.016-0.024,0.096-0.023,0.208l1.13-0.978l2.988-5.735
  l0.606,0.008C15.59,71.544,15.27,71.332,15.065,71.128z"/>
 <path fill="#BDA770" d="M37.092,77.082H13.211c-1.04,0-1.887,0.804-1.887,1.793v3.72c0,0.82,0.581,1.511,1.373,1.724v1.352h3.265
  v-1.282h18.464v1.282h3.302v-1.389c0.728-0.251,1.25-0.909,1.25-1.687v-3.72C38.979,77.886,38.132,77.082,37.092,77.082z
   M15.333,85.072h-2.008v-0.667h2.008V85.072z M37.099,85.072h-2.043v-0.667h2.043V85.072z M38.349,82.595
  c0,0.66-0.563,1.195-1.257,1.195H13.211c-0.694,0-1.257-0.535-1.257-1.195v-3.72c0-0.659,0.563-1.195,1.257-1.195h23.881
  c0.694,0,1.257,0.536,1.257,1.195V82.595z"/>
 <path fill="#BDA770" d="M33.715,64.431H16.446c-1.04,0-1.886,0.906-1.886,2.021v3.882c0,1.115,0.847,2.021,1.886,2.021h0.131
  c-0.079-0.22-0.013-0.142,0.187-0.41c-0.053-0.374-0.191-1.248-0.191-1.801s0.139-1.066,0.192-1.438
  c-0.252-0.34-0.294-0.708-0.097-0.928c0.189-0.212,0.547-0.195,0.853,0.047c0.597-0.122,1.035-0.537,2.957-0.562
  c1.956-0.023,2.385,0.44,2.985,0.563c0.306-0.241,0.663-0.257,0.852-0.047c0.199,0.22,0.156,0.59-0.096,0.929
  c0.053,0.375,0.228,0.89,0.228,1.439c-0.001,0.553-0.176,1.138-0.229,1.513c0.2,0.271,0.263,0.48,0.188,0.694h1.13
  c-0.078-0.22-0.012-0.36,0.188-0.627c-0.053-0.374-0.227-1.031-0.227-1.584s0.175-1.066,0.228-1.438
  c-0.251-0.34-0.293-0.708-0.096-0.928c0.189-0.212,0.547-0.195,0.853,0.047c0.597-0.122,0.72-0.642,2.958-0.562
  c2.319,0.084,2.493,0.44,3.092,0.563c0.307-0.241,0.663-0.257,0.852-0.047c0.2,0.22,0.157,0.59-0.097,0.929
  c0.054,0.375,0.228,0.89,0.228,1.439c-0.001,0.553-0.175,1.428-0.229,1.803c0.199,0.271,0.264,0.19,0.188,0.404h0.349
  c1.041,0,1.778-0.906,1.778-2.021v-3.882C35.602,65.337,34.755,64.431,33.715,64.431z"/>
 <path fill="#BDA770" d="M38.684,82.918c0,0.52-0.783,0.941-2.029,0.941H11.984c0.205,0-0.217-0.422-0.217-0.941v-4.785
  c0-0.521,0.422-0.942,0.942-0.942H37.38c0.521,0,1.304,0.422,1.304,0.942V82.918z"/>
 <rect x="14.913" y="71.649" fill="#BDA770" width="20.204" height="0.738"/>
</g>
<g>
 <path fill="#FFFFFF" d="M38.724,27.924l-0.008-0.07l-3.73-6.46c-0.192,0.229-0.454,0.42-0.771,0.574l0.369,0.005l3.189,5.521
  l0.521,0.3l0.355,0.863C38.723,28.455,38.757,28.214,38.724,27.924z"/>
 <path fill="#FFFFFF" d="M15.065,21.128l-3.664,7.033l-0.025,0.065c-0.004,0.016-0.024,0.096-0.023,0.208l1.13-0.978l2.988-5.735
  l0.606,0.008C15.59,21.544,15.27,21.332,15.065,21.128z"/>
 <path fill="#FFFFFF" d="M37.092,27.082H13.211c-1.04,0-1.887,0.804-1.887,1.793v3.72c0,0.82,0.581,1.511,1.373,1.724v1.352h3.265
  v-1.282h18.464v1.282h3.302v-1.389c0.728-0.251,1.25-0.909,1.25-1.687v-3.72C38.979,27.886,38.132,27.082,37.092,27.082z
   M15.333,35.072h-2.008v-0.667h2.008V35.072z M37.099,35.072h-2.043v-0.667h2.043V35.072z M38.349,32.595
  c0,0.66-0.563,1.195-1.257,1.195H13.211c-0.694,0-1.257-0.535-1.257-1.195v-3.72c0-0.659,0.563-1.195,1.257-1.195h23.881
  c0.694,0,1.257,0.536,1.257,1.195V32.595z"/>
 <path fill="#FFFFFF" d="M33.715,14.431H16.446c-1.04,0-1.886,0.906-1.886,2.021v3.882c0,1.115,0.847,2.021,1.886,2.021h0.131
  c-0.079-0.22-0.013-0.142,0.187-0.41c-0.053-0.374-0.191-1.248-0.191-1.801s0.139-1.066,0.192-1.438
  c-0.252-0.34-0.294-0.708-0.097-0.928c0.189-0.212,0.547-0.195,0.853,0.047c0.597-0.122,1.035-0.537,2.957-0.562
  c1.956-0.023,2.385,0.44,2.985,0.563c0.306-0.241,0.663-0.257,0.852-0.047c0.199,0.22,0.156,0.59-0.096,0.929
  c0.053,0.375,0.228,0.89,0.228,1.439c-0.001,0.553-0.176,1.138-0.229,1.513c0.2,0.271,0.263,0.48,0.188,0.694h1.13
  c-0.078-0.22-0.012-0.36,0.188-0.627c-0.053-0.374-0.227-1.031-0.227-1.584s0.175-1.066,0.228-1.438
  c-0.251-0.34-0.293-0.708-0.096-0.928c0.189-0.212,0.547-0.195,0.853,0.047c0.597-0.122,0.72-0.642,2.958-0.562
  c2.319,0.084,2.493,0.44,3.092,0.563c0.307-0.241,0.663-0.257,0.852-0.047c0.2,0.22,0.157,0.59-0.097,0.929
  c0.054,0.375,0.228,0.89,0.228,1.439c-0.001,0.553-0.175,1.428-0.229,1.803c0.199,0.271,0.264,0.19,0.188,0.404h0.349
  c1.041,0,1.778-0.906,1.778-2.021v-3.882C35.602,15.337,34.755,14.431,33.715,14.431z"/>
 <path fill="#FFFFFF" d="M38.684,32.918c0,0.52-0.783,0.941-2.029,0.941H11.984c0.205,0-0.217-0.422-0.217-0.941v-4.785
  c0-0.521,0.422-0.942,0.942-0.942H37.38c0.521,0,1.304,0.422,1.304,0.942V32.918z"/>
 <rect x="14.913" y="21.649" fill="#FFFFFF" width="20.204" height="0.738"/>
</g>
</svg>
