<?xml version="1.0" encoding="utf-8"?>
<!-- Generator: Adobe Illustrator 16.0.3, SVG Export Plug-In . SVG Version: 6.00 Build 0)  -->
<!DOCTYPE svg PUBLIC "-//W3C//DTD SVG 1.1//EN" "http://www.w3.org/Graphics/SVG/1.1/DTD/svg11.dtd">
<svg version="1.1" id="Layer_1" xmlns="http://www.w3.org/2000/svg" xmlns:xlink="http://www.w3.org/1999/xlink" x="0px" y="0px"
   width="50px" height="100px" viewBox="0 0 50 100" enable-background="new 0 0 50 100" xml:space="preserve">
<g>
  <path fill="#ffffff" d="M29.93,19.28c-6.303,0-8.217,5.313-8.217,10.826c0,5.479,1.848,10.825,8.217,10.825c6.469,0,8.219-5.182,8.219-10.825
    C38.148,24.462,36.367,19.28,29.93,19.28z"/>
  <path fill="#ffffff" d="M38.244,0h-26c-6.627,0-12,5.373-12,12v26c0,6.628,5.373,12,12,12h26c6.627,0,12-5.372,12-12V12
    C50.244,5.373,44.871,0,38.244,0z M28.414,8.893h0.641v0.656h0.016c0.287-0.512,0.752-0.751,1.344-0.751
    c1.087,0,1.423,0.624,1.423,1.511v2.718h-0.68v-2.798c0-0.504-0.319-0.832-0.839-0.832c-0.824,0-1.225,0.552-1.225,1.295v2.334
    h-0.68V8.893z M25.605,8.797c1.312,0,2.006,0.951,2.006,2.167c0,1.208-0.694,2.159-2.006,2.159c-1.312,0-2.007-0.952-2.007-2.159
    C23.599,9.748,24.294,8.797,25.605,8.797z M16.83,41.724h-1.518V21.096c-2.046,1.881-4.885,2.772-7.327,3.003v-1.32
    c2.442-0.099,6.436-1.815,7.525-4.291h1.32V41.724z M19.501,13.026l-1.783-4.75h-0.016v4.75h-0.72V7.317h1.04l1.799,4.797
    l1.807-4.797h1.04v5.709h-0.72v-4.75h-0.016l-1.783,4.75H19.501z M29.93,42.252c-7.26,0-9.736-5.71-9.736-12.146
    c0-6.437,2.509-12.146,9.736-12.146c7.328,0,9.736,5.677,9.736,12.146C39.666,36.641,37.291,42.252,29.93,42.252z"/>
  <path fill="#ffffff" d="M25.605,12.522c0.711,0,1.287-0.56,1.287-1.559c0-1.007-0.576-1.567-1.287-1.567c-0.712,0-1.289,0.56-1.289,1.567
    C24.318,11.963,24.894,12.522,25.605,12.522z"/>
</g>
<g>
  <path fill="#BDA770" d="M29.93,69.28c-6.303,0-8.217,5.313-8.217,10.825c0,5.479,1.848,10.826,8.217,10.826c6.469,0,8.219-5.183,8.219-10.826
    S36.367,69.28,29.93,69.28z"/>
  <path fill="#BDA770" d="M38.244,50h-26c-6.627,0-12,5.373-12,12v26c0,6.628,5.373,12,12,12h26c6.627,0,12-5.372,12-12V62
    C50.244,55.373,44.871,50,38.244,50z M28.414,58.893h0.641v0.656h0.016c0.287-0.512,0.752-0.751,1.344-0.751
    c1.087,0,1.423,0.624,1.423,1.511v2.719h-0.68v-2.799c0-0.504-0.319-0.832-0.839-0.832c-0.824,0-1.225,0.553-1.225,1.295v2.334
    h-0.68V58.893z M25.605,58.797c1.312,0,2.006,0.951,2.006,2.167c0,1.208-0.694,2.159-2.006,2.159c-1.312,0-2.007-0.952-2.007-2.159
    C23.599,59.748,24.294,58.797,25.605,58.797z M16.83,91.725h-1.518V71.096c-2.046,1.881-4.885,2.772-7.327,3.004v-1.32
    c2.442-0.1,6.436-1.815,7.525-4.291h1.32V91.725z M19.501,63.025l-1.783-4.75h-0.016v4.75h-0.72v-5.709h1.04l1.799,4.798
    l1.807-4.798h1.04v5.709h-0.72v-4.75h-0.016l-1.783,4.75H19.501z M29.93,92.252c-7.26,0-9.736-5.71-9.736-12.146
    S22.703,67.96,29.93,67.96c7.328,0,9.736,5.677,9.736,12.146C39.666,86.641,37.291,92.252,29.93,92.252z"/>
  <path fill="#BDA770" d="M25.605,62.521c0.711,0,1.287-0.56,1.287-1.559c0-1.007-0.576-1.566-1.287-1.566c-0.712,0-1.289,0.56-1.289,1.566
    C24.318,61.963,24.894,62.521,25.605,62.521z"/>
</g>
</svg>
