<?xml version="1.0" encoding="utf-8"?>
<!-- Generator: Adobe Illustrator 16.0.4, SVG Export Plug-In . SVG Version: 6.00 Build 0)  -->
<!DOCTYPE svg PUBLIC "-//W3C//DTD SVG 1.1//EN" "http://www.w3.org/Graphics/SVG/1.1/DTD/svg11.dtd">
<svg version="1.1" id="Layer_1" xmlns="http://www.w3.org/2000/svg" xmlns:xlink="http://www.w3.org/1999/xlink" x="0px" y="0px"
   width="50px" height="100px" viewBox="0 0 50 100" enable-background="new 0 0 50 100" xml:space="preserve">
<path fill="#FFFFFF" d="M16.283,36.05c-0.031-0.023-0.059-0.05-0.083-0.082c-0.112-0.15,0.022-2.493-0.012-2.49
  c0.268-0.019,0.536-0.039,0.804-0.056c1.094-0.07,2.207-0.087,3.291-0.231c1.703-0.227,2.625-0.647,4.375-0.563
  c0.945,0.046,2.537,0.113,3.451,0.327c0.32,0.074,0.636,0.182,0.926,0.315c0.339,0.155,0.328,0.488-0.02,0.637
  c-0.188,0.08-0.467,0.09-0.683,0.117c-0.33,0.041-1.876,0.083-2.071,0.315c-0.533,0.637,1.588,0.463,1.74,0.457
  c0.941-0.038,1.68-0.432,2.426-0.9c0.562-0.353,1.079-0.752,1.633-1.113c0.356-0.232,1.006-0.513,0.924,0.073
  c-0.041,0.302-0.242,0.717-0.452,0.969c-0.88,1.059-2.315,2.073-3.603,2.775c-1.746,0.954-4.137,0.709-6.037,0.292
  c-1.276-0.279-2.563-0.652-3.876-0.784c-0.499-0.05-1.033-0.07-1.534-0.037C17.145,36.095,16.571,36.26,16.283,36.05z"/>
<path fill="#FFFFFF" d="M37.5,30.124c0,0.226-0.124,0.408-0.275,0.408h-24.45c-0.152,0-0.275-0.182-0.275-0.408V29.88
  c0-0.225,0.123-0.408,0.275-0.408h24.448c0.152,0,0.276,0.183,0.276,0.408L37.5,30.124L37.5,30.124z"/>
<g>
  <path fill="#FFFFFF" d="M23.992,21.14c0.246,0.295,0.449,0.504,0.5,0.846c0.062,0.413,0.126,0.831,0.13,1.248
    c0.017,1.849,0.034,2.459,0.006,4.308c-0.001,0.038-0.002,0.071-0.003,0.107h0.806c0-0.026-0.003-0.052-0.004-0.078
    c-0.029-1.935-0.03-2.226-0.007-4.161c0.006-0.575,0.116-1.15,0.202-1.722c0.021-0.133,0.122-0.266,0.215-0.374
    c0.306-0.354,0.685-0.661,0.927-1.053c0.609-0.99,0.868-2.108,0.899-3.255c0.032-1.211-0.05-0.858-0.069-2.07
    c-0.012-0.711-0.146-0.909-0.285-1.732c-0.043-0.258-0.172-0.338-0.399-0.363c-1.224-0.133-2.443-0.128-3.667-0.016
    c-0.354,0.033-0.484,0.177-0.542,0.522c-0.171,1.01-0.151,0.693-0.328,1.988c-0.171,1.251-0.06,2.176,0.276,3.403
    C22.895,19.647,23.202,20.193,23.992,21.14z"/>
  <ellipse fill="#FFFFFF" cx="25" cy="27.554" rx="2.674" ry="0.391"/>
</g>
<path fill="#999999" d="M16.283,86.051c-0.031-0.023-0.059-0.05-0.083-0.082c-0.112-0.15,0.022-2.492-0.012-2.49
  c0.268-0.019,0.536-0.039,0.804-0.056c1.094-0.069,2.207-0.087,3.291-0.231c1.703-0.227,2.625-0.646,4.375-0.562
  c0.945,0.046,2.537,0.113,3.451,0.327c0.318,0.073,0.635,0.183,0.925,0.315c0.339,0.153,0.329,0.487-0.021,0.637
  c-0.188,0.08-0.466,0.091-0.682,0.117c-0.33,0.041-1.876,0.082-2.07,0.314c-0.533,0.637,1.588,0.463,1.739,0.457
  c0.94-0.038,1.681-0.432,2.426-0.9c0.562-0.353,1.079-0.752,1.634-1.112c0.355-0.231,1.006-0.513,0.924,0.073
  c-0.041,0.303-0.243,0.718-0.453,0.969c-0.879,1.059-2.315,2.072-3.602,2.775c-1.746,0.953-4.138,0.709-6.038,0.293
  c-1.276-0.279-2.563-0.652-3.876-0.785c-0.499-0.051-1.033-0.069-1.534-0.036C17.145,86.096,16.571,86.261,16.283,86.051z"/>
<path fill="#999999" d="M37.5,80.124c0,0.226-0.124,0.407-0.275,0.407h-24.45c-0.152,0-0.275-0.182-0.275-0.407V79.88
  c0-0.226,0.123-0.407,0.275-0.407h24.448c0.152,0,0.276,0.182,0.276,0.407L37.5,80.124L37.5,80.124z"/>
<g>
  <path fill="#999999" d="M23.992,71.141c0.246,0.295,0.449,0.504,0.5,0.846c0.062,0.412,0.125,0.83,0.129,1.248
    c0.018,1.849,0.035,2.459,0.006,4.308c0,0.038-0.002,0.071-0.002,0.106h0.805c0-0.026-0.003-0.053-0.004-0.078
    c-0.028-1.936-0.029-2.227-0.006-4.161c0.006-0.575,0.115-1.15,0.201-1.722c0.02-0.135,0.122-0.267,0.215-0.375
    c0.307-0.354,0.686-0.66,0.928-1.053c0.608-0.99,0.867-2.107,0.898-3.255c0.031-1.211-0.051-0.858-0.069-2.069
    c-0.012-0.713-0.146-0.91-0.284-1.732c-0.045-0.258-0.172-0.338-0.4-0.363c-1.223-0.133-2.443-0.128-3.667-0.016
    c-0.354,0.033-0.484,0.178-0.542,0.521c-0.171,1.01-0.151,0.693-0.328,1.988c-0.171,1.251-0.06,2.176,0.276,3.402
    C22.895,69.646,23.202,70.193,23.992,71.141z"/>
  <ellipse fill="#999999" cx="25" cy="77.555" rx="2.674" ry="0.391"/>
</g>
</svg>
