<?xml version="1.0" encoding="utf-8"?>
<!-- Generator: Adobe Illustrator 18.1.1, SVG Export Plug-In . SVG Version: 6.00 Build 0)  -->
<svg version="1.1" id="Layer_1" xmlns:sketch="http://www.bohemiancoding.com/sketch/ns"
	 xmlns="http://www.w3.org/2000/svg" xmlns:xlink="http://www.w3.org/1999/xlink" x="0px" y="0px" width="35px" height="35px"
	 viewBox="-292 379 35 35" enable-background="new -292 379 35 35" xml:space="preserve">
<title>icon - instagram</title>
<desc>Created with Sketch.</desc>
<g id="Components" sketch:type="MSPage">
	<g id="Details---_x28_entertainment_x29_" transform="translate(-114.000000, -881.000000)" sketch:type="MSArtboardGroup">
		<g id="icon---instagram" transform="translate(114.086426, 881.000000)" sketch:type="MSLayerGroup">
			<path id="Fill-1" sketch:type="MSShapeGroup" fill="#BDA770" d="M-264.5,381.5H-284c-3,0-5.4,2.1-5.4,4.6v20.4
				c0,2.6,2.4,4.6,5.4,4.6h19.5c3,0,5.4-2.1,5.4-4.6v-20.4C-259.1,383.5-261.5,381.5-264.5,381.5"/>
			<path id="Fill-2" sketch:type="MSShapeGroup" fill="#F4F2EE" d="M-265.6,394.5H-283c-2.4,0-4.3,1.7-4.3,3.7v7.4
				c0,2.1,1.9,3.7,4.3,3.7h17.4c2.4,0,4.3-1.7,4.3-3.7v-7.4C-261.3,396.1-263.2,394.5-265.6,394.5"/>
			<path id="Fill-3" sketch:type="MSShapeGroup" fill="#BDA770" d="M-287.3,393.5h2.2v3.7h-2.2V393.5z"/>
			<path id="Fill-4" sketch:type="MSShapeGroup" fill="#BDA770" d="M-263.4,393.5h2.2v3.7h-2.2V393.5z"/>
			<path id="Fill-5" sketch:type="MSShapeGroup" fill="#BDA770" d="M-274.3,386.1c-6,0-10.8,4.4-10.8,9.8c0,5.4,4.9,9.8,10.8,9.8
				c6,0,10.8-4.4,10.8-9.8C-263.4,390.5-268.3,386.1-274.3,386.1"/>
			<path id="Fill-6" sketch:type="MSShapeGroup" fill="#F4F2EE" d="M-274.3,389.8c-4.2,0-7.6,2.9-7.6,6.5c0,3.6,3.4,6.5,7.6,6.5
				c4.2,0,7.6-2.9,7.6-6.5C-266.7,392.7-270.1,389.8-274.3,389.8"/>
			<path id="Fill-7" sketch:type="MSShapeGroup" fill="#F4F2EE" d="M-267.8,384.3h5.4v4.6h-5.4V384.3z"/>
		</g>
	</g>
</g>
</svg>
