<?xml version="1.0" encoding="utf-8"?>
<!-- Generator: Adobe Illustrator 16.0.3, SVG Export Plug-In . SVG Version: 6.00 Build 0)  -->
<!DOCTYPE svg PUBLIC "-//W3C//DTD SVG 1.1//EN" "http://www.w3.org/Graphics/SVG/1.1/DTD/svg11.dtd">
<svg version="1.1" id="Layer_1" xmlns="http://www.w3.org/2000/svg" xmlns:xlink="http://www.w3.org/1999/xlink" x="0px" y="0px"
	 width="50px" height="100px" viewBox="0 0 50 100" enable-background="new 0 0 50 100" xml:space="preserve">
<g>
	<polygon fill="#999999" points="36.529,6.753 25.735,6.753 34.521,18.551 	"/>
	<polygon fill="#999999" points="47.128,20.078 37.574,7.296 35.398,20.078 	"/>
	<polygon fill="#999999" points="25.026,7.68 15.397,20.078 34.259,20.078 	"/>
	<polygon fill="#999999" points="24.325,6.753 13.4,6.753 15.158,18.557 	"/>
	<polygon fill="#999999" points="12.349,7.311 2.872,20.078 14.25,20.078 	"/>
	<polygon fill="#999999" points="37.168,6.753 37.098,6.753 37.179,6.767 	"/>
	<polygon fill="#999999" points="12.763,6.753 12.754,6.764 12.833,6.753 	"/>
	<polygon fill="#999999" points="24.957,42.119 34.102,21.2 15.524,21.2 	"/>
	<polygon fill="#999999" points="3.413,21.2 23.282,43.501 24.35,43.501 14.294,21.2 	"/>
	<polygon fill="#999999" points="25.578,43.501 26.929,43.501 47.041,21.2 35.326,21.2 	"/>
</g>
<g>
	<polygon fill="#FFFFFF" points="36.529,56.499 25.735,56.499 34.521,68.297 	"/>
	<polygon fill="#FFFFFF" points="47.128,69.824 37.574,57.043 35.398,69.824 	"/>
	<polygon fill="#FFFFFF" points="25.026,57.426 15.397,69.824 34.259,69.824 	"/>
	<polygon fill="#FFFFFF" points="24.325,56.499 13.4,56.499 15.158,68.303 	"/>
	<polygon fill="#FFFFFF" points="12.349,57.057 2.872,69.824 14.25,69.824 	"/>
	<polygon fill="#FFFFFF" points="37.168,56.499 37.098,56.499 37.179,56.513 	"/>
	<polygon fill="#FFFFFF" points="12.763,56.499 12.754,56.51 12.833,56.499 	"/>
	<polygon fill="#FFFFFF" points="24.957,91.865 34.102,70.945 15.524,70.945 	"/>
	<polygon fill="#FFFFFF" points="3.413,70.945 23.282,93.247 24.35,93.247 14.294,70.945 	"/>
	<polygon fill="#FFFFFF" points="25.578,93.247 26.929,93.247 47.041,70.945 35.326,70.945 	"/>
</g>
</svg>
