<?xml version="1.0" encoding="utf-8"?>
<!-- Generator: Adobe Illustrator 16.0.3, SVG Export Plug-In . SVG Version: 6.00 Build 0)  -->
<!DOCTYPE svg PUBLIC "-//W3C//DTD SVG 1.1//EN" "http://www.w3.org/Graphics/SVG/1.1/DTD/svg11.dtd">
<svg version="1.1" id="Layer_1" xmlns="http://www.w3.org/2000/svg" xmlns:xlink="http://www.w3.org/1999/xlink" x="0px" y="0px"
	 width="50px" height="50px" viewBox="0 0 50 50" enable-background="new 0 0 50 50" xml:space="preserve">
<path fill="#BDA770" d="M42.871,26.976L41.5,27.524v5.814l-16.499,6.6L8.5,33.339v-5.814l-1.371-0.549
	c-0.38-0.152-0.629-0.52-0.629-0.929V42c0,0.409,0.249,0.776,0.629,0.929l17.5,7C24.749,49.977,24.875,50,25.001,50
	s0.253-0.023,0.372-0.071l17.498-7c0.38-0.152,0.629-0.52,0.629-0.929V26.047C43.5,26.456,43.251,26.823,42.871,26.976z
	 M43.48,17.949c-0.009-0.069-0.018-0.137-0.04-0.202c-0.026-0.083-0.064-0.157-0.11-0.229c-0.002-0.003-0.004-0.005-0.005-0.008
	c-0.137-0.211-0.343-0.359-0.594-0.42l-17.358-6.944c-0.24-0.096-0.504-0.096-0.744,0L7.268,17.09
	c-0.251,0.061-0.457,0.21-0.594,0.421c-0.001,0.002-0.002,0.003-0.004,0.005c-0.046,0.073-0.084,0.147-0.111,0.232
	c-0.021,0.061-0.029,0.126-0.038,0.191C6.517,17.975,6.5,18.006,6.5,18.043v8c0,0.001,0,0.002,0,0.004
	c0.002,0.407,0.25,0.773,0.628,0.925l17.501,7c0.119,0.048,0.246,0.071,0.371,0.071c0.127,0,0.253-0.023,0.372-0.071l17.499-7
	c0.378-0.152,0.628-0.519,0.629-0.927v-8.002C43.5,18.01,43.484,17.981,43.48,17.949z M25.001,12.151l14.807,5.923l-14.807,5.923
	l-14.808-5.923L25.001,12.151z M41.5,25.366l-16.5,6.6l-16.5-6.6v-5.815l16.129,6.452c0.12,0.048,0.246,0.071,0.372,0.071
	s0.253-0.023,0.372-0.071L41.5,19.551V25.366z"/>
</svg>
