<?xml version="1.0" encoding="utf-8"?>
<!-- Generator: Adobe Illustrator 16.0.3, SVG Export Plug-In . SVG Version: 6.00 Build 0)  -->
<!DOCTYPE svg PUBLIC "-//W3C//DTD SVG 1.1//EN" "http://www.w3.org/Graphics/SVG/1.1/DTD/svg11.dtd">
<svg version="1.1" id="Layer_1" xmlns="http://www.w3.org/2000/svg" xmlns:xlink="http://www.w3.org/1999/xlink" x="0px" y="0px"
	 width="50px" height="50px" viewBox="0 0 50 50" enable-background="new 0 0 50 50" xml:space="preserve">
<path fill="#BDA770" d="M43.48,17.949c-0.009-0.069-0.018-0.137-0.04-0.201c-0.026-0.083-0.064-0.157-0.11-0.229
	c-0.002-0.002-0.004-0.006-0.005-0.008c-0.137-0.211-0.343-0.359-0.594-0.42l-17.359-6.945c-0.238-0.095-0.504-0.095-0.742,0
	L7.269,17.091C7.018,17.151,6.812,17.3,6.676,17.51c-0.002,0.003-0.004,0.007-0.006,0.01c-0.046,0.071-0.084,0.146-0.11,0.228
	c-0.022,0.064-0.031,0.133-0.041,0.202C6.516,17.981,6.5,18.011,6.5,18.044V42c0,0.409,0.249,0.776,0.629,0.929l17.501,7
	C24.749,49.977,24.875,50,25.001,50s0.252-0.023,0.371-0.071l17.499-7c0.38-0.152,0.629-0.52,0.629-0.929V18.044
	C43.5,18.01,43.484,17.981,43.48,17.949z M9.101,18.715c0.103-0.257,0.395-0.383,0.649-0.278l15.251,6.1l15.251-6.1
	c0.256-0.105,0.547,0.021,0.649,0.278s-0.021,0.548-0.278,0.649l-15.437,6.174c-0.061,0.025-0.124,0.036-0.186,0.036
	s-0.125-0.011-0.186-0.036L9.379,19.364C9.122,19.263,8.998,18.972,9.101,18.715z M8.5,27.523l16.13,6.452
	c0.119,0.048,0.245,0.071,0.371,0.071s0.252-0.023,0.371-0.071L41.5,27.522v5.816l-16.499,6.6L8.5,33.339V27.523z M41.5,41.323
	l-16.499,6.6L8.5,41.323v-5.814l-0.016-0.006v-0.017l16.146,6.458c0.119,0.048,0.245,0.071,0.371,0.071s0.252-0.023,0.371-0.071
	L41.5,35.493V41.323z"/>
</svg>
