<?xml version="1.0" encoding="utf-8"?>
<!-- Generator: Adobe Illustrator 16.0.3, SVG Export Plug-In . SVG Version: 6.00 Build 0)  -->
<!DOCTYPE svg PUBLIC "-//W3C//DTD SVG 1.1//EN" "http://www.w3.org/Graphics/SVG/1.1/DTD/svg11.dtd">
<svg version="1.1" id="Layer_1" xmlns="http://www.w3.org/2000/svg" xmlns:xlink="http://www.w3.org/1999/xlink" x="0px" y="0px"
	 width="50px" height="50px" viewBox="0 0 50 50" enable-background="new 0 0 50 50" xml:space="preserve">
<path fill="#BDA770" d="M43.48,17.949c-0.009-0.069-0.018-0.137-0.04-0.201c-0.028-0.081-0.063-0.159-0.11-0.229
	c-0.002-0.002-0.004-0.005-0.005-0.008c-0.059-0.085-0.131-0.159-0.213-0.223c-0.056-0.045-0.119-0.076-0.184-0.108
	c-0.021-0.01-0.036-0.025-0.058-0.034l-0.14-0.056l-17.359-6.944c-0.238-0.095-0.504-0.095-0.742,0L7.269,17.09l-0.14,0.056
	c-0.021,0.008-0.037,0.024-0.058,0.034c-0.064,0.032-0.128,0.062-0.183,0.107c-0.082,0.063-0.154,0.138-0.213,0.223
	c-0.002,0.003-0.004,0.006-0.006,0.01c-0.048,0.07-0.082,0.147-0.11,0.228c-0.022,0.064-0.031,0.133-0.041,0.202
	C6.516,17.981,6.5,18.01,6.5,18.043V42c0,0.408,0.249,0.775,0.629,0.928l17.501,7C24.749,49.977,24.875,50,25.001,50
	s0.252-0.023,0.371-0.072l17.499-7c0.38-0.152,0.629-0.52,0.629-0.928V18.043C43.5,18.009,43.484,17.981,43.48,17.949z
	 M25.001,12.151l14.807,5.923l-14.807,5.922l-14.809-5.922L25.001,12.151z M8.5,19.551l16.13,6.451
	c0.119,0.048,0.245,0.072,0.371,0.072s0.252-0.024,0.371-0.072L41.5,19.551v5.814l-16.499,6.6L8.5,25.365V19.551z M41.5,41.322
	l-16.499,6.6L8.5,41.322v-5.814L8.479,35.5v-0.018l16.151,6.461c0.119,0.049,0.245,0.072,0.371,0.072s0.252-0.023,0.371-0.072
	L41.5,35.492v0.016V41.322z"/>
</svg>
