<?xml version="1.0" encoding="utf-8"?>
<!-- Generator: Adobe Illustrator 18.1.1, SVG Export Plug-In . SVG Version: 6.00 Build 0)  -->
<svg version="1.1" id="Layer_1" xmlns:sketch="http://www.bohemiancoding.com/sketch/ns"
	 xmlns="http://www.w3.org/2000/svg" xmlns:xlink="http://www.w3.org/1999/xlink" x="0px" y="0px" width="23px" height="20px"
	 viewBox="-294 387 23 20" enable-background="new -294 387 23 20" xml:space="preserve">
<g id="Search" sketch:type="MSPage">
	<g id="Map---Null-Selected" transform="translate(-337.000000, -626.000000)" sketch:type="MSArtboardGroup">
		<g id="Search-Active---Header" transform="translate(0.000000, 619.000000)" sketch:type="MSLayerGroup">
			<g id="list" transform="translate(337.000000, 7.000000)" sketch:type="MSShapeGroup">
				<g id="list-icon-2" transform="translate(0.750000, 0.000000)">
					<path id="Shape" fill="#FFFFFF" d="M-294,388.4c0.6,0,1.1-0.6,1.1-1.4h19.8c0,0.8,0.5,1.4,1.1,1.4v1.2c-0.6,0-1.1,0.6-1.1,1.4
						h-19.8c0-0.8-0.5-1.4-1.1-1.4V388.4L-294,388.4z"/>
					<path id="Shape_1_" fill="#FFFFFF" d="M-294,396.4c0.6,0,1.1-0.6,1.1-1.4h19.8c0,0.8,0.5,1.4,1.1,1.4v1.2
						c-0.6,0-1.1,0.6-1.1,1.4h-19.8c0-0.8-0.5-1.4-1.1-1.4V396.4L-294,396.4z"/>
					<path id="Shape_2_" fill="#FFFFFF" d="M-294,404.4c0.6,0,1.1-0.6,1.1-1.4h19.8c0,0.8,0.5,1.4,1.1,1.4v1.2
						c-0.6,0-1.1,0.6-1.1,1.4h-19.8c0-0.8-0.5-1.4-1.1-1.4V404.4L-294,404.4z"/>
				</g>
			</g>
		</g>
	</g>
</g>
</svg>
