<?xml version="1.0" encoding="utf-8"?>
<!-- Generator: Adobe Illustrator 16.0.3, SVG Export Plug-In . SVG Version: 6.00 Build 0)  -->
<!DOCTYPE svg PUBLIC "-//W3C//DTD SVG 1.1//EN" "http://www.w3.org/Graphics/SVG/1.1/DTD/svg11.dtd">
<svg version="1.1" id="Layer_1" xmlns="http://www.w3.org/2000/svg" xmlns:xlink="http://www.w3.org/1999/xlink" x="0px" y="0px"
  width="50px" height="100px" viewBox="0 0 50 100" enable-background="new 0 0 50 100" xml:space="preserve">
<g>
 <rect x="13.449" y="66.243" fill="#FFFFFF" width="3.525" height="3.655"/>
 <rect x="13.449" y="73.426" fill="#FFFFFF" width="3.525" height="3.657"/>
 <rect x="13.449" y="80.479" fill="#FFFFFF" width="3.525" height="3.658"/>
 <rect x="19.326" y="66.243" fill="#FFFFFF" width="18.026" height="3.655"/>
 <rect x="19.326" y="73.426" fill="#FFFFFF" width="18.026" height="3.657"/>
 <rect x="19.326" y="80.479" fill="#FFFFFF" width="18.026" height="3.658"/>
 <path fill="#FFFFFF" d="M25.035,99.797C11.362,99.797,0.237,88.673,0.237,75c0-13.672,11.125-24.794,24.798-24.794
  c13.674,0,24.797,11.123,24.797,24.794C49.832,88.673,38.709,99.797,25.035,99.797z M25.035,52.226
  C12.477,52.226,2.256,62.441,2.256,75s10.221,22.777,22.779,22.777c12.56,0,22.776-10.219,22.776-22.777
  S37.595,52.226,25.035,52.226z"/>
</g>
<path fill="#FFFFFF" d="M25.035,0.206C11.362,0.206,0.237,11.328,0.237,25c0,13.673,11.125,24.798,24.798,24.798
 c13.674,0,24.797-11.125,24.797-24.798C49.832,11.328,38.709,0.206,25.035,0.206z M16.975,34.136h-3.525v-3.658h3.525V34.136z
  M16.975,27.083h-3.525v-3.657h3.525V27.083z M16.975,19.899h-3.525v-3.656h3.525V19.899z M37.353,34.136H19.326v-3.658h18.026
 V34.136z M37.353,27.083H19.326v-3.657h18.026V27.083z M37.353,19.899H19.326v-3.656h18.026V19.899z"/>
</svg>
