<?xml version="1.0" encoding="utf-8"?>
<!-- Generator: Adobe Illustrator 16.0.3, SVG Export Plug-In . SVG Version: 6.00 Build 0)  -->
<!DOCTYPE svg PUBLIC "-//W3C//DTD SVG 1.1//EN" "http://www.w3.org/Graphics/SVG/1.1/DTD/svg11.dtd">
<svg version="1.1" id="Layer_1" xmlns="http://www.w3.org/2000/svg" xmlns:xlink="http://www.w3.org/1999/xlink" x="0px" y="0px"
	 width="50px" height="50px" viewBox="0 0 50 50" enable-background="new 0 0 50 50" xml:space="preserve">
<g>
	<g id="P6fjiC_1_">
		<g>
			<path fill-rule="evenodd" clip-rule="evenodd" fill="#BDA770" d="M8.231,50c0.014-0.301,0.04-0.602,0.04-0.902
				c0.003-6.219,0.002-9.557,0.002-15.774c0-0.3,0-0.601,0-0.942c2.308-0.718,4.583-1.428,6.86-2.133
				c3.095-0.959,6.188-1.924,9.29-2.863c0.312-0.095,0.7-0.127,1.005-0.033c5.264,1.604,10.52,3.23,15.776,4.855
				c0.165,0.051,0.321,0.131,0.522,0.213c0,0.303,0,0.604,0,0.903c0,6.218-0.001,9.556,0.002,15.774c0,0.301,0.025,0.602,0.04,0.902
				c-4.633,0-9.267,0-13.898,0c0.003-2.818,0.024-4.193,0.003-7.01c-0.01-1.094-0.404-2.072-1.213-2.836
				c-0.989-0.934-2.332-0.934-3.322,0c-0.809,0.764-1.203,1.742-1.212,2.836c-0.022,2.816-0.001,4.191,0.003,7.01
				C17.497,50,12.864,50,8.231,50z M16.942,43.434c0-1.131,0-2.262,0-3.393c0-0.049,0.002-0.1,0-0.15
				c-0.043-1.291-0.713-2.153-1.867-2.398c-1.602-0.341-2.828,0.744-2.856,2.604c-0.034,2.285,0.001,3.133-0.017,5.418
				c-0.004,0.471,0.115,0.682,0.63,0.668c1.155-0.031,2.312-0.029,3.466-0.002c0.488,0.012,0.666-0.146,0.654-0.645
				C16.923,44.355,16.942,44.613,16.942,43.434z M33.06,43.387c0,0,0,0-0.002,0c0,1.205,0.008,0.973-0.004,2.178
				c-0.004,0.377,0.059,0.621,0.525,0.613c1.231-0.021,2.463,0.012,3.693-0.027c0.176-0.006,0.492-0.285,0.494-0.439
				c0.01-2.586,0.023-3.734-0.076-6.318c-0.02-0.494-0.428-1.074-0.822-1.436c-0.705-0.646-1.595-0.689-2.467-0.29
				c-0.889,0.407-1.315,1.147-1.336,2.103C33.042,40.975,33.06,42.182,33.06,43.387z"/>
		</g>
	</g>
	<g>
		<path fill="#BDA770" d="M29.28,26.088v-6.746h1.562l-5.841-6.406l-5.742,6.406h1.41v6.746L6.267,30.771l0.354,1.058l18.381-5.489
			l18.43,5.489l0.303-1.058L29.28,26.088z M26.587,24.905h-3.173v-5.765c0-0.876,0.71-1.586,1.587-1.586
			c0.875,0,1.586,0.71,1.586,1.586V24.905z"/>
	</g>
	<g id="soc85D_1_">
		<g>
			<path fill="#BDA770" d="M23.272,7.143c0.13,0,0.261,0,0.391,0c0.047,0.011,0.094,0.024,0.141,0.034
				c0.484,0.1,0.865,0.338,1.078,0.8c0.047,0.1,0.073,0.209,0.113,0.326c0.016-0.024,0.027-0.035,0.03-0.048
				c0.118-0.541,0.466-0.865,0.978-1.029c0.108-0.035,0.221-0.055,0.33-0.082c0.131,0,0.26,0,0.391,0
				c0.024,0.01,0.048,0.023,0.073,0.028c0.593,0.117,1.003,0.46,1.192,1.03c0.188,0.571,0.072,1.099-0.346,1.536
				c-0.841,0.883-1.693,1.756-2.541,2.632c-0.033,0.034-0.069,0.063-0.107,0.097c-0.028-0.026-0.049-0.043-0.067-0.062
				c-0.863-0.893-1.731-1.78-2.587-2.68c-0.756-0.796-0.438-2.105,0.594-2.483C23.044,7.202,23.159,7.175,23.272,7.143z"/>
		</g>
	</g>
</g>
</svg>
