<?xml version="1.0" encoding="utf-8"?>
<!-- Generator: Adobe Illustrator 18.1.1, SVG Export Plug-In . SVG Version: 6.00 Build 0)  -->
<svg version="1.1" id="Layer_1" xmlns:sketch="http://www.bohemiancoding.com/sketch/ns"
	 xmlns="http://www.w3.org/2000/svg" xmlns:xlink="http://www.w3.org/1999/xlink" x="0px" y="0px" width="35px" height="35px"
	 viewBox="-290.5 379 35 35" enable-background="new -290.5 379 35 35" xml:space="preserve">
<title>icon-interior</title>
<desc>Created with Sketch.</desc>
<g id="Find" sketch:type="MSPage">
	<g id="Find---Browse" transform="translate(-114.000000, -527.000000)" sketch:type="MSArtboardGroup">
		<g id="Resort-Header-Block" transform="translate(15.000000, 459.000000)" sketch:type="MSLayerGroup">
			<g id="Venue-Actions-Copy" transform="translate(28.500000, 62.000000)" sketch:type="MSShapeGroup">
				<g id="icon-interior" transform="translate(70.500000, 6.000000)">
					<path id="Fill-1" fill="#999999" d="M-277,394.1c0,0,0.1,0,0.1,0c0,0,2,0.5,5.3-0.9c0.1,0,0.1,0,0.2,0c0.1,0,0.1,0.1,0.1,0.2
						v4.7l3.6-1.8v-10.2l0,0l-9,2.8c0,0,0,0,0,0.1L-277,394.1"/>
					<path id="Fill-2" fill="#999999" d="M-271.8,393.8c-3.2,1.3-5.2,0.8-5.3,0.8c0,0,0,0,0,0l-0.3,6.6l5.7-2.8c0,0-0.1-0.1-0.1-0.1
						V393.8"/>
					<path id="Fill-3" fill="#999999" d="M-260.5,392.8c0.3-0.1,0.6-0.1,0.8-0.2l-0.7-3.8l-7-2.5v2.6L-260.5,392.8"/>
					<path id="Fill-4" fill="#999999" d="M-281.3,387.6c0,0-0.8,1.9,0.1,3.7c0.6,1.2,1.9,2.2,3.7,2.7l0.3-5c0,0,0,0,0-0.1l-4.2-1.6
						C-281.3,387.4-281.3,387.5-281.3,387.6"/>
					<path id="Fill-5" fill="#999999" d="M-277.5,394.4c-2-0.6-3.4-1.6-4.1-3c-1-2-0.2-4-0.1-4c0-0.1,0.1-0.1,0.1-0.1l-3-1.1
						l-2.8,11c0.5,0,6.1,0.6,9.6,3.9L-277.5,394.4"/>
					<path id="Fill-6" fill="#999999" d="M-262,393.4c0.3-0.2,0.7-0.3,1-0.4l-6.3-3.6v7c0.2,0.2,0.9,0.8,1.9,1.5
						C-264.8,395.3-263.2,394-262,393.4"/>
					<path id="Fill-7" fill="#999999" d="M-258,401.8C-258,401.8-258.1,401.8-258,401.8c-0.2,0-0.3,0-0.4,0c-2.7,0-7.6-3.8-9-4.9v6
						c0,0,0,0,0,0.1l10.1,3.3L-258,401.8"/>
					<path id="Fill-8" fill="#999999" d="M-265.1,398.1c0.4,0.3,0.8,0.6,1.3,0.9c2.6,1.7,4.5,2.5,5.7,2.4c0,0,0,0,0.1,0l-1.5-8.3
						c-0.4,0.1-1.3,0.2-2.3,0.7C-263.5,394.6-264.6,396.1-265.1,398.1"/>
					<path id="Fill-9" fill="#999999" d="M-287.5,397.5C-287.5,397.5-287.5,397.5-287.5,397.5l-1.3,4.9l10.7,4.2l0.3-5
						C-281.3,398.1-287.4,397.5-287.5,397.5"/>
					<path id="Fill-10" fill="#999999" d="M-267.8,396.8l-9.7,4.8l-0.3,5l9.9-3.6c0,0,0,0,0-0.1V396.8"/>
				</g>
			</g>
		</g>
	</g>
</g>
</svg>
