<?xml version="1.0" encoding="UTF-8" standalone="no"?>
<svg width="20px" height="20px" viewBox="0 0 20 20" version="1.1" xmlns="http://www.w3.org/2000/svg" xmlns:xlink="http://www.w3.org/1999/xlink" xmlns:sketch="http://www.bohemiancoding.com/sketch/ns">
    <!-- Generator: Sketch 3.3.3 (12081) - http://www.bohemiancoding.com/sketch -->
    <title>Shape 2</title>
    <desc>Created with Sketch.</desc>
    <defs></defs>
    <g id="Search" stroke="none" stroke-width="1" fill="none" fill-rule="evenodd" sketch:type="MSPage">
        <g id="Search---Filter-Applied" sketch:type="MSArtboardGroup" transform="translate(-339.000000, -658.000000)" fill="#FFFFFF">
            <g id="Search-Active---Header" sketch:type="MSLayerGroup" transform="translate(0.000000, 651.000000)">
                <g id="map" transform="translate(339.000000, 7.000000)" sketch:type="MSShapeGroup">
                    <path d="M0,10 C0,15.525 4.475,20 10,20 C15.525,20 20,15.525 20,10 C20,4.475 15.525,0 10,0 C4.475,0 0,4.475 0,10 L0,10 Z M3.3625,4.1875 C2.5,4.65 2.8125,3.8625 3.1625,3.525 L3.1125,3.2625 C4.1625,2.35 6.6125,1.5875 7.9125,1.7125 C7.7875,1.2125 7.575,1.3875 7.1875,1.175 C7.75,1.1875 8.3375,1.2125 8.9,1.125 C9.025,1.125 9.575,2.05 10.1,1.9375 L10.7125,1.525 C11.1,1.525 11.475,1.6375 11.8625,1.7125 C11.85,2.3125 11.2,2.3625 10.8625,2.8875 L10.8625,3.0375 L11.9375,3.775 C12.5375,3.5125 12.3625,4.35 12.45,4.4625 C12.8375,4.8875 13.2,3.7625 13.2875,3.5 L12.8375,2.775 L13.675,2.9625 L14.2375,3.575 C14.425,3.5875 14.6625,3.575 14.825,3.475 C14.9875,3.8625 15.35,4.2375 15.7125,4.4375 C15.825,5.2 16.8375,5.7125 15.6375,5.4875 L15.6125,5 L14.6375,5 C14.9375,5.05 15.1125,6 15.25,6.25 L14.3625,6.25 C14.45,6.7875 13.3875,6.7875 13.3125,7.25 C13.3125,7.825 12.9875,7.475 12.625,7.8375 L12.8,8.75 L11.1,7.9625 C9.975,8.2625 10.075,8.9375 10.6125,9.8 L10.975,9.5875 C10.95,9.55 11.225,9.3375 11.25,9.5375 L11.25,10.25 L12.5,10.4875 L12.5,11.25 L13.1625,11.475 L12.25,11.325 C11.8125,10.1625 8.85,10.3375 9.05,9.3125 C8.85,9.1 7.6375,7.725 7.4,7.8375 C5.25,6.65 7.7125,4.6875 5.225,3.75 L3.55,3.75 L3.5,3.9 L3.3625,4.1875 L3.3625,4.1875 Z M14.8,17.1125 C14.8,17.2 14.8,17.525 14.6875,17.5875 C14.5,17.675 14.2625,17.525 14.075,17.6375 C13.9625,17.7125 13.9125,17.8375 13.825,17.9375 C13.5625,18.2375 13.275,18.5 13.0125,18.8 C12.975,18.85 12.9375,18.9375 12.95,19.0125 C12.95,19.0125 12.9875,19.075 12.9625,19.075 C12.7625,19.125 12.5,18.8125 12.475,18.625 C12.4375,18.3875 12.65,18.2375 12.725,18.025 C12.9375,17.425 13.225,16.2875 13.125,15.65 C12.975,14.7375 12.2375,15.25 12.1,14.15 C12.0625,13.9375 12.025,13.675 12.125,13.4625 C12.225,13.25 12.4625,13.1625 12.55,12.95 C12.75,12.4875 12.2875,11.8625 13.05,11.7875 L13.125,11.775 L13.1875,11.775 L13.225,11.775 L13.275,11.775 L13.375,11.75 C13.475,11.7125 13.525,11.7 13.625,11.7 C13.7375,11.7 13.85,11.7375 13.9625,11.75 C14.225,11.7875 14.4875,11.75 14.7125,11.9 C15.15,12.1625 15.6125,12.425 16,12.7875 L15.775,13.15 C15.8,13.1 15.85,13.0875 15.9125,13.1 C16.4,13.15 17.225,13.2125 17.55,13.7 C17.675,14.1875 16.725,14.725 16.7,15.3125 C16.7,15.3875 16.7875,15.5 16.7125,15.5625 C16.525,15.7125 16.25,15.7125 16.0625,15.8625 C15.5875,16.25 15.4875,17.025 14.8,17.1125 L14.8,17.1125 Z" id="Shape-2"></path>
                </g>
            </g>
        </g>
    </g>
</svg>