<?xml version="1.0" encoding="utf-8"?>
<!-- Generator: Adobe Illustrator 15.1.0, SVG Export Plug-In . SVG Version: 6.00 Build 0)  -->
<!DOCTYPE svg PUBLIC "-//W3C//DTD SVG 1.1//EN" "http://www.w3.org/Graphics/SVG/1.1/DTD/svg11.dtd">
<svg version="1.1" id="Layer_1" xmlns="http://www.w3.org/2000/svg" xmlns:xlink="http://www.w3.org/1999/xlink" x="0px" y="0px"
	 width="50px" height="50px" viewBox="0 0 50 50" enable-background="new 0 0 50 50" xml:space="preserve">
<g>
	<g>
		<path fill="#BDA770" d="M31.158,41.282c-4.218-0.63-3.054-2.813-3.084-2.946c0.007-0.331,0.152-1.756,0.152-1.756
			s1.633-1.142,2.279-3.004c1.018-0.654,1.409-0.74,1.577-1.489c0,0,0.339-2.833-0.751-2.833c0,0-0.454,0.078-0.312-0.588
			c0.146-0.663,0.097-2.805,0.026-3.542c-0.072-0.732,0.141-2.842-1.391-3.136c-1.042-0.2-1.165,0.1-1.672,0.027
			c-0.513-0.074-1.122-1.409-2.066-1.409l-1.965,0.319c-0.946,0-0.8,0.294-1.311,0.368c-0.512,0.074,0.104-0.074-1.425,0.224
			c-1.529,0.294-2.068,2.281-2.144,3.02c-0.072,0.739-0.256,2.879-0.205,3.985c0.146,0.66-0.843,0.66-0.843,0.66
			c-0.915-0.058-0.5,2.832-0.5,2.832c0.131,0.714-0.052,1.065,1.309,1.622c0.646,1.858,3.209,2.799,3.209,2.799
			s0.084,1.197,0.107,2.05c-0.14-0.073,0.513,2.173-3.706,2.803c-4.215,0.627-4.253,2.009-5.046,2.78C12.6,44.834,12.66,50,12.66,50
			h24.636c0,0-0.079-5.166-0.875-5.935C35.622,43.294,35.374,41.909,31.158,41.282z M45.771,45.287
			c-0.61-0.592-1.24-1.298-4.396-2.132c-2.174-0.572-1.195-2.156-1.216-2.26c0.005-0.256,0.117-1.341,0.117-1.341
			s1.322-0.881,1.815-2.305c0.782-0.497,1.079-0.567,1.208-1.143c0,0-0.516-2.167-1.355-2.167c0,0-0.349,0.057-0.237-0.453
			c0.109-0.508,0.077-2.15,0.02-2.713c-0.058-0.564,0.106-2.18-1.065-2.408c-0.802-0.149-0.115,0.08-0.505,0.022
			c-0.39-0.055-0.855-0.787-1.581-0.787l-1.507,0.245c-0.729,0-0.613,0.226-1.008,0.28c-0.391,0.058,0.08-0.055-1.092,0.172
			c-1.175,0.224-0.902,1.459-0.958,2.025c-0.058,0.562,0.068,2.011,0.105,2.859c0.108,0.51-1.156,0.701-1.156,0.701
			c-0.703-0.044-0.386,2.17-0.386,2.17c0.099,0.548-0.037,0.817,1.005,1.242c0.494,1.426,2.019,2.148,2.019,2.148
			s-0.416,0.984-0.392,1.639c1.25,0.741,2.146,1.607,2.776,2.56c0.876,2.485,0.864,6.355,0.864,6.355
			c4.216,0,9.193-0.131,9.193-0.131S47.651,46.388,45.771,45.287z M14.8,41.078c0.021-0.654-0.395-1.639-0.395-1.639
			s1.523-0.724,2.016-2.147c1.042-0.427,0.904-0.695,1.008-1.245c0,0,0.314-2.213-0.387-2.169c0,0-1.263-0.195-1.154-0.702
			c0.035-0.847,0.16-2.297,0.104-2.859c-0.057-0.565,0.214-1.802-0.958-2.025c-1.172-0.226-0.704-0.113-1.091-0.171
			c-0.393-0.055-0.279-0.28-1.008-0.28l-1.507-0.247c-0.725,0-1.192,0.733-1.581,0.788c-0.393,0.057,0.294-0.172-0.504-0.021
			c-1.172,0.229-1.009,1.84-1.066,2.406c-0.057,0.564-0.09,2.205,0.018,2.715c0.113,0.51-0.236,0.453-0.236,0.453
			c-0.84,0-1.355,2.167-1.355,2.167c0.128,0.575,0.422,0.646,1.204,1.142c0.494,1.425,1.819,2.306,1.819,2.306
			s0.112,1.085,0.117,1.342c-0.022,0.103,0.378,1.639-1.216,2.259c-3.044,1.192-3.789,1.541-4.397,2.132
			c-2.393,1.362-2.269,4.7-2.269,4.7s4.979,0,9.194,0c0,0-0.01-3.865,0.866-6.351C12.652,42.687,13.545,41.819,14.8,41.078z"/>
	</g>
</g>
</svg>
