<?xml version="1.0" encoding="utf-8"?>
<!-- Generator: Adobe Illustrator 16.0.3, SVG Export Plug-In . SVG Version: 6.00 Build 0)  -->
<!DOCTYPE svg PUBLIC "-//W3C//DTD SVG 1.1//EN" "http://www.w3.org/Graphics/SVG/1.1/DTD/svg11.dtd">
<svg version="1.1" id="Layer_1" xmlns="http://www.w3.org/2000/svg" xmlns:xlink="http://www.w3.org/1999/xlink" x="0px" y="0px"
	 width="50px" height="50px" viewBox="0 0 50 50" enable-background="new 0 0 50 50" xml:space="preserve">
<g>
	<path fill="#BDA770" d="M25.984,24.978v25.004l15.992-5.221V19.757L25.984,24.978z M39.611,36.5l-10.727,3.6
		c-0.056,0.02-0.113,0.027-0.169,0.027c-0.223,0-0.432-0.141-0.506-0.363c-0.094-0.279,0.058-0.58,0.336-0.675l10.726-3.601
		c0.28-0.092,0.582,0.057,0.676,0.336S39.891,36.406,39.611,36.5z M39.611,31.91l-10.727,3.6c-0.056,0.021-0.113,0.027-0.169,0.027
		c-0.223,0-0.432-0.141-0.506-0.363c-0.094-0.277,0.058-0.581,0.336-0.675l10.726-3.601c0.28-0.092,0.582,0.058,0.676,0.336
		C40.041,31.514,39.891,31.816,39.611,31.91z M39.611,27.826l-10.727,3.601c-0.056,0.019-0.113,0.027-0.169,0.027
		c-0.223,0-0.432-0.142-0.506-0.363c-0.094-0.278,0.058-0.581,0.336-0.675l10.726-3.6c0.28-0.094,0.582,0.057,0.676,0.334
		C40.041,27.432,39.891,27.732,39.611,27.826z"/>
</g>
<g>
	<path fill="#BDA770" d="M8.025,19.757v25.007l15.99,5.221V24.978L8.025,19.757z"/>
</g>
<path fill="#BDA770" d="M11.911,18.915l11.955,3.903l-11.955-7.191V18.915z"/>
<path fill="#BDA770" d="M37.939,15.626l-11.955,7.191l11.955-3.903V15.626z"/>
</svg>
