<?xml version="1.0" encoding="utf-8"?>
<!-- Generator: Adobe Illustrator 16.0.3, SVG Export Plug-In . SVG Version: 6.00 Build 0)  -->
<!DOCTYPE svg PUBLIC "-//W3C//DTD SVG 1.1//EN" "http://www.w3.org/Graphics/SVG/1.1/DTD/svg11.dtd">
<svg version="1.1" id="Layer_1" xmlns="http://www.w3.org/2000/svg" xmlns:xlink="http://www.w3.org/1999/xlink" x="0px" y="0px"
	 width="50px" height="50px" viewBox="0 0 50 50" enable-background="new 0 0 50 50" xml:space="preserve">
<g>
	<path fill="#BDA770" d="M35.098,26.721c-0.69-0.737-1.452-1.381-2.265-1.941l-1.829,1.828c0.813,0.514,1.572,1.122,2.246,1.842
		c2.062,2.202,3.143,5.078,3.042,8.094c-0.202,6.133-5.356,11.033-11.488,10.925l-0.176-0.004
		c-6.228-0.207-11.127-5.44-10.92-11.666c0.132-4.051,2.433-7.552,5.741-9.438l-1.85-1.848c-3.725,2.38-6.266,6.492-6.422,11.2
		c-0.252,7.622,5.744,14.029,13.365,14.28l0.215,0.005c7.507,0.134,13.817-5.863,14.064-13.37
		C38.944,32.935,37.623,29.416,35.098,26.721z"/>
	<g id="rgLjoJ_1_">
		<g>
			<path fill-rule="evenodd" clip-rule="evenodd" fill="#BDA770" d="M36.405,20.021c-0.066,0.051-0.142,0.094-0.198,0.152
				c-3.308,3.332-6.612,6.664-9.916,9.997c-0.026,0.026-0.046,0.056-0.104,0.062c0.166-0.426,0.329-0.853,0.496-1.278
				c1.143-2.915,2.287-5.832,3.426-8.751c0.066-0.173,0.145-0.239,0.343-0.239c1.982,0.012,3.969,0.011,5.953,0.014
				C36.405,19.992,36.405,20.006,36.405,20.021z"/>
			<path fill-rule="evenodd" clip-rule="evenodd" fill="#BDA770" d="M36.406,19.22c-2.05-0.002-4.099-0.005-6.188-0.007
				c0.857-1.903,1.701-3.773,2.562-5.684c0.293,0.46,0.564,0.882,0.832,1.302c0.903,1.417,1.806,2.834,2.71,4.251
				c0.022,0.034,0.056,0.062,0.082,0.095C36.405,19.192,36.405,19.207,36.406,19.22z"/>
			<path fill-rule="evenodd" clip-rule="evenodd" fill="#BDA770" d="M25.343,30.243c-1.261-3.416-2.525-6.834-3.798-10.274
				c2.566,0.003,5.102,0.006,7.676,0.009c-1.278,3.434-2.553,6.852-3.824,10.268C25.379,30.245,25.361,30.244,25.343,30.243z"/>
			<path fill-rule="evenodd" clip-rule="evenodd" fill="#BDA770" d="M13.904,19.945c0.633,0.001,1.258,0.002,1.884,0.003
				c1.415,0.002,2.833,0.009,4.249,0c0.215-0.001,0.321,0.052,0.401,0.254c1.341,3.309,2.688,6.612,4.034,9.917
				c0.013,0.031,0.025,0.062,0.035,0.085C20.982,26.796,17.454,23.379,13.904,19.945z"/>
			<path fill-rule="evenodd" clip-rule="evenodd" fill="#BDA770" d="M28.617,19.2c-2.365-0.004-4.685-0.006-7.061-0.01
				c1.188-1.743,2.354-3.46,3.537-5.197C26.271,15.732,27.432,17.447,28.617,19.2z"/>
			<path fill-rule="evenodd" clip-rule="evenodd" fill="#BDA770" d="M13.842,19.174c1.312-1.89,2.604-3.757,3.926-5.665
				c0.723,1.909,1.433,3.778,2.149,5.672C17.889,19.178,15.889,19.176,13.842,19.174z"/>
			<path fill-rule="evenodd" clip-rule="evenodd" fill="#BDA770" d="M24.664,13.43c-1.353,1.907-2.68,3.769-4.029,5.672
				c-0.691-1.913-1.367-3.785-2.052-5.68C20.615,13.424,22.614,13.427,24.664,13.43z"/>
			<path fill-rule="evenodd" clip-rule="evenodd" fill="#BDA770" d="M29.543,19.113c-1.28-1.904-2.536-3.773-3.816-5.677
				c2.047,0.003,4.046,0.004,6.077,0.007C31.049,15.337,30.301,17.209,29.543,19.113z"/>
		</g>
	</g>
</g>
</svg>
