<?xml version="1.0" encoding="utf-8"?>
<!-- Generator: Adobe Illustrator 16.0.3, SVG Export Plug-In . SVG Version: 6.00 Build 0)  -->
<!DOCTYPE svg PUBLIC "-//W3C//DTD SVG 1.1//EN" "http://www.w3.org/Graphics/SVG/1.1/DTD/svg11.dtd">
<svg version="1.1" id="Layer_1" xmlns="http://www.w3.org/2000/svg" xmlns:xlink="http://www.w3.org/1999/xlink" x="0px" y="0px"
	 width="347.275px" height="136.178px" viewBox="0 0 347.275 136.178" enable-background="new 0 0 347.275 136.178"
	 xml:space="preserve">
<g>
	<g>
		<path fill="#999999" d="M131.123,132.353h-26.25V59.199l-30.101,50.709H59.993L30.062,59.006v73.347H3.792V10.841h26.27
			l37.396,63.491l37.414-63.491h26.25L131.123,132.353L131.123,132.353z"/>
	</g>
	<g>
		<path fill="#999999" d="M159.952,2.389h13.043v111.146c0,3.354,0.669,5.639,1.988,6.854c1.32,1.207,3.638,1.812,6.939,1.812
			c0.439,0,1.092-0.025,1.939-0.084c0.854-0.053,1.717-0.137,2.597-0.242l1.899,7.596c-0.984,0.439-2.086,0.883-3.301,1.32
			c-1.209,0.441-2.477,0.842-3.806,1.199c-1.312,0.357-2.633,0.633-3.963,0.83c-1.32,0.188-2.558,0.285-3.712,0.285
			c-4.287,0-7.639-1.381-10.03-4.127c-2.396-2.756-3.597-6.861-3.597-12.31V2.389H159.952z"/>
		<path fill="#999999" d="M198.612,13.695c0-1.981,0.711-3.797,2.139-5.45c1.445-1.651,3.341-2.474,5.71-2.474
			c2.308,0,4.162,0.823,5.577,2.474c1.393,1.653,2.098,3.469,2.098,5.45c0,2.262-0.771,4.145-2.32,5.661
			c-1.539,1.516-3.313,2.267-5.354,2.267c-2.104,0-3.931-0.751-5.496-2.267C199.399,17.839,198.612,15.957,198.612,13.695z
			 M199.933,42.601h13.043v89.186h-13.043V42.601L199.933,42.601z"/>
		<path fill="#999999" d="M238.991,42.601v-6.937c0-11.397,2.722-19.983,8.134-25.766c5.42-5.778,12.813-8.673,22.179-8.673
			c3.403,0,6.746,0.417,9.993,1.245c3.24,0.825,5.638,1.757,7.179,2.812l-5.608,11.229c-0.823-0.611-2.525-1.501-5.084-2.686
			c-2.562-1.183-5.021-1.776-7.39-1.776c-6.226,0-10.597,1.647-13.131,4.953c-1.433,1.762-2.33,4.707-2.689,8.838
			c-0.354,4.127-0.535,9.715-0.535,16.762h20.977l-1.229,10.985h-19.748v78.201h-13.046V53.585h-12.06V42.601H238.991z"/>
		<path fill="#999999" d="M346.525,115.845c-3.911,5.172-8.654,9.373-14.244,12.596c-5.586,3.222-12.899,4.826-21.919,4.826
			c-11.674,0-21.063-4.141-28.176-12.424c-7.094-8.285-10.646-19.975-10.646-35.055c0-13.162,3.228-23.877,9.67-32.161
			c6.438-8.287,15.882-12.433,28.322-12.433c10.507,0,18.823,2.894,24.93,8.67c6.115,5.786,9.559,13.843,10.333,24.197
			c0.325,3.901,0.41,8.004,0.24,12.303h-59.782c0,9.854,2.259,18.322,6.767,25.395c4.521,7.076,10.688,10.609,18.507,10.609
			c5.66,0,10.623-1.184,14.857-3.551c4.236-2.367,8.146-5.892,11.729-10.566L346.525,115.845z M309.369,51.436
			c-7.769,0-13.625,2.663-17.599,7.975c-3.955,5.306-6.076,11.32-6.355,18.031h46.331c-0.223-7.096-1.981-13.211-5.287-18.318
			C323.163,53.997,317.461,51.436,309.369,51.436z"/>
	</g>
</g>
</svg>
