<?xml version="1.0" encoding="UTF-8" standalone="no"?>
<svg width="42px" height="16px" viewBox="0 0 42 16" version="1.1" xmlns="http://www.w3.org/2000/svg" xmlns:xlink="http://www.w3.org/1999/xlink" xmlns:sketch="http://www.bohemiancoding.com/sketch/ns">
    <!-- Generator: Sketch 3.3.3 (12081) - http://www.bohemiancoding.com/sketch -->
    <title>navbar - M life</title>
    <desc>Created with Sketch.</desc>
    <defs></defs>
    <g id="Icons" stroke="none" stroke-width="1" fill="none" fill-rule="evenodd" sketch:type="MSPage">
        <g id="Icon-List---Vector" sketch:type="MSArtboardGroup" transform="translate(-15.000000, -95.000000)" fill="#999999">
            <g id="navbar" sketch:type="MSLayerGroup" transform="translate(15.000000, 20.000000)">
                <g id="navbar---M-life" transform="translate(0.000000, 75.000000)" sketch:type="MSShapeGroup">
                    <path d="M15.4132932,15.8018647 L12.2553985,15.8018647 L12.2553985,7.00138346 L8.63422556,13.1017143 L6.85630075,13.1017143 L3.25557895,6.97816541 L3.25557895,15.8018647 L0.0952781955,15.8018647 L0.0952781955,1.1838797 L3.25557895,1.1838797 L7.75434586,8.82189474 L12.2552782,1.1838797 L15.4131729,1.1838797 L15.4132932,15.8018647 L15.4132932,15.8018647 Z" id="Shape"></path>
                    <path d="M18.8814436,0.167097744 L20.4505263,0.167097744 L20.4505263,13.5380451 C20.4505263,13.9415338 20.5310075,14.2164211 20.6896842,14.3625865 C20.8484812,14.5077895 21.1273383,14.5805714 21.5244511,14.5805714 C21.5772632,14.5805714 21.6558195,14.5775639 21.7577143,14.5704662 C21.8604511,14.5640902 21.9642707,14.553985 22.0701353,14.5413534 L22.2985865,15.4551579 C22.1802105,15.5079699 22.0476391,15.5613835 21.9014737,15.6139549 C21.7560301,15.6670075 21.6034887,15.7152481 21.443609,15.7581955 C21.2857744,15.8011429 21.1268571,15.8343459 20.9668571,15.8580451 C20.8080602,15.8806617 20.6591278,15.8923308 20.5203008,15.8923308 C20.0045714,15.8923308 19.6013233,15.7261955 19.3136842,15.3958496 C19.0254436,15.0643008 18.8809624,14.5704662 18.8809624,13.9149474 L18.8809624,0.167097744 L18.8814436,0.167097744 L18.8814436,0.167097744 Z" id="Shape"></path>
                    <path d="M23.5322707,1.52721805 C23.5322707,1.28890226 23.6178045,1.07043609 23.789594,0.871578947 C23.9634286,0.672962406 24.1915188,0.573954887 24.4765113,0.573954887 C24.7541654,0.573954887 24.977203,0.672962406 25.1474286,0.871578947 C25.3150075,1.07043609 25.3998195,1.28890226 25.3998195,1.52721805 C25.3998195,1.79933835 25.3070677,2.02586466 25.1207218,2.2082406 C24.9355789,2.39061654 24.7221654,2.48096241 24.4766316,2.48096241 C24.2235188,2.48096241 24.0037293,2.39061654 23.8154586,2.2082406 C23.6269474,2.02574436 23.5322707,1.79933835 23.5322707,1.52721805 L23.5322707,1.52721805 Z M23.691188,5.00463158 L25.2602707,5.00463158 L25.2602707,15.7337744 L23.691188,15.7337744 L23.691188,5.00463158 L23.691188,5.00463158 Z" id="Shape"></path>
                    <path d="M28.3898947,5.00463158 L28.3898947,4.17010526 C28.3898947,2.79903759 28.7173534,1.76613534 29.3684211,1.07043609 C30.0204511,0.375338346 30.9098346,0.0270676692 32.0365714,0.0270676692 C32.4459549,0.0270676692 32.8481203,0.0772330827 33.2387368,0.176842105 C33.6285113,0.276090226 33.9169925,0.388210526 34.1023759,0.51512782 L33.4277293,1.86598496 C33.3287218,1.7924812 33.1239699,1.68541353 32.8161203,1.54285714 C32.5079098,1.40054135 32.2120902,1.32920301 31.9270977,1.32920301 C31.1781053,1.32920301 30.6522707,1.52733835 30.3474286,1.92505263 C30.1750376,2.13702256 30.0671278,2.49130827 30.0239398,2.98827068 C29.9813534,3.48475188 29.9595789,4.15699248 29.9595789,5.00475188 L32.4831278,5.00475188 L32.3352782,6.32625564 L29.9595789,6.32625564 L29.9595789,15.7338947 L28.3901353,15.7338947 L28.3901353,6.32601504 L26.9393083,6.32601504 L26.9393083,5.00463158 L28.3898947,5.00463158 L28.3898947,5.00463158 Z" id="Shape"></path>
                    <path d="M41.3263158,13.8159398 C40.8558195,14.4381353 40.2852331,14.9435188 39.6127519,15.3312481 C38.9407519,15.7188571 38.0609925,15.9118195 36.9758797,15.9118195 C35.5714887,15.9118195 34.441985,15.4136541 33.5862857,14.417203 C32.7328722,13.4205113 32.3055639,12.0141955 32.3055639,10.2000602 C32.3055639,8.61666165 32.6938947,7.3276391 33.4688722,6.33106767 C34.2433684,5.33413534 35.3794887,4.83536842 36.8760301,4.83536842 C38.1400301,4.83536842 39.1404511,5.1835188 39.8751278,5.87837594 C40.6107669,6.57443609 41.0250827,7.54369925 41.1181955,8.78929323 C41.1572932,9.25858647 41.1675188,9.75218045 41.1470677,10.2693534 L33.9552481,10.2693534 C33.9552481,11.454797 34.2270075,12.4735038 34.7693233,13.324391 C35.313203,14.1756391 36.0550977,14.6006617 36.9957293,14.6006617 C37.6766316,14.6006617 38.2736842,14.4582256 38.7830376,14.1734737 C39.2926316,13.8887218 39.7630075,13.4646617 40.1940451,12.9023759 L41.3263158,13.8159398 L41.3263158,13.8159398 Z M36.8564211,6.06748872 C35.9218045,6.06748872 35.2173233,6.38784962 34.7392481,7.02688722 C34.2634586,7.66520301 34.0083008,8.38869173 33.9747368,9.19603008 L39.548391,9.19603008 C39.5215639,8.34237594 39.3100752,7.60673684 38.9123609,6.9923609 C38.5158496,6.37557895 37.8298947,6.06748872 36.8564211,6.06748872 L36.8564211,6.06748872 Z" id="Shape"></path>
                </g>
            </g>
        </g>
    </g>
</svg>