<?xml version="1.0" encoding="UTF-8" standalone="no"?>
<svg width="32px" height="32px" viewBox="0 0 32 32" version="1.1" xmlns="http://www.w3.org/2000/svg" xmlns:xlink="http://www.w3.org/1999/xlink" xmlns:sketch="http://www.bohemiancoding.com/sketch/ns">
    <!-- Generator: Sketch 3.3.3 (12081) - http://www.bohemiancoding.com/sketch -->
    <title>Location Re-center</title>
    <desc>Created with Sketch.</desc>
    <defs></defs>
    <g id="Search" stroke="none" stroke-width="1" fill="none" fill-rule="evenodd" sketch:type="MSPage">
        <g id="Map---Selected-CTA" sketch:type="MSArtboardGroup" transform="translate(-332.000000, -435.000000)">
            <g id="Location-Re-center" sketch:type="MSLayerGroup" transform="translate(333.000000, 436.000000)">
                <circle id="Oval-32" stroke="#979797" opacity="0.9" fill="#FFFFFF" sketch:type="MSShapeGroup" cx="15" cy="15" r="15"></circle>
                <path d="M14.5836735,15.004898 C14.5836735,15.004898 11.5359184,14.9881633 11.5371429,15.004898 C11.6404082,16.6408163 12.9481633,17.9497959 14.5836735,18.0546939 C14.6089796,18.0563265 14.5836735,14.5881633 14.5836735,14.5881633 L15.0371429,14.5881633 C15.0371429,14.5881633 15.0212245,18.0538776 15.0387755,18.0526531 C16.6620408,17.9334694 17.955102,16.6273469 18.055102,14.9987755 C18.0555102,14.9914286 15.0371429,14.9987755 15.0371429,14.9987755 L15.0371429,14.5881633 C15.0371429,14.5881633 18.0559184,14.6085714 18.0546939,14.5914286 C17.9538776,12.9632653 16.6604082,11.6583673 15.0371429,11.5395918 C15.0085714,11.537551 15.0371429,14.5881633 15.0371429,14.5881633 L14.5836735,14.5881633 C14.5836735,14.5881633 14.5959184,11.5367347 14.5836735,11.537551 C12.9477551,11.642449 11.64,12.9518367 11.5371429,14.5881633 C11.5363265,14.5987755 14.5836735,14.5881633 14.5836735,14.5881633 L14.5836735,15.004898 L14.5836735,15.004898 Z M14.7959184,24.5918367 C20.2057143,24.5918367 24.5918367,20.2061224 24.5918367,14.7959184 C24.5918367,9.38612245 20.2057143,5 14.7959184,5 C9.38571429,5 5,9.38612245 5,14.7959184 C5,20.2061224 9.38571429,24.5918367 14.7959184,24.5918367 L14.7959184,24.5918367 Z M8.67428571,14.6812245 C8.67387755,14.7195918 8.67346939,14.7579592 8.67346939,14.7959184 C8.67346939,14.837551 8.67387755,14.8783673 8.67469388,14.9195918 C8.67469388,14.8497959 8.67428571,14.7530612 8.67428571,14.6812245 L8.67428571,14.6812245 Z M14.5857143,8.67714286 C11.3718367,8.78571429 8.78612245,11.3710204 8.67714286,14.5844898 C8.76,14.5783673 11.1277551,14.5967347 11.1281633,14.584898 C11.2338776,12.7240816 12.7244898,11.2334694 14.5853061,11.1285714 C14.5930612,11.1281633 14.5861224,8.89877551 14.5857143,8.67714286 L14.5857143,8.67714286 Z M20.915102,14.5983673 C20.8130612,11.3861224 18.2367347,8.79836735 15.0289796,8.67795918 C15.0289796,8.90408163 15.0269388,11.1297959 15.0289796,11.1297959 C16.8840816,11.2461224 18.3653061,12.7387755 18.4640816,14.5983673 C18.4644898,14.6069388 20.6644898,14.5991837 20.915102,14.5983673 L20.915102,14.5983673 Z M20.9146939,15.0085714 C20.802449,18.2914286 18.1061224,20.9183673 14.7959184,20.9183673 C11.4857143,20.9183673 8.78897959,18.2914286 8.67714286,15.0089796 C8.76081633,15.0081633 11.1273469,14.9918367 11.1281633,15.0065306 C11.2330612,16.8653061 12.72,18.3546939 14.5779592,18.4632653 C14.6106122,18.4653061 14.5853061,20.9114286 14.5853061,20.9114286 L15.0289796,20.9114286 C15.0289796,20.9114286 15.0061224,18.4636735 15.0330612,18.4620408 C16.8812245,18.3440816 18.357551,16.86 18.4632653,15.0089796 C18.4640816,14.9955102 20.6616327,15.0073469 20.9146939,15.0085714 L20.9146939,15.0085714 Z" id="Imported-Layers" fill="#666666" sketch:type="MSShapeGroup"></path>
            </g>
        </g>
    </g>
</svg>