<?xml version="1.0" encoding="utf-8"?>
<!-- Generator: Adobe Illustrator 16.0.3, SVG Export Plug-In . SVG Version: 6.00 Build 0)  -->
<!DOCTYPE svg PUBLIC "-//W3C//DTD SVG 1.1//EN" "http://www.w3.org/Graphics/SVG/1.1/DTD/svg11.dtd">
<svg version="1.1" id="Layer_1" xmlns="http://www.w3.org/2000/svg" xmlns:xlink="http://www.w3.org/1999/xlink" x="0px" y="0px"
	 width="50px" height="50px" viewBox="0 0 50 50" enable-background="new 0 0 50 50" xml:space="preserve">
<path fill="#BDA770" d="M42.7,16.25c-0.383-1.553-1.348-1.991-1.888-2.112c-1.582-0.36-3.378,0.993-3.679,2.311
	c-0.105,0.455-0.313,0.571-0.38,0.609c-0.21,0.119-0.497,0.266-0.733,0.24C36.271,15.214,36.359,14,36.359,14H13.655
	c0,0,0.088,1.213,0.341,3.295c-0.241,0.028-0.535-0.047-0.75-0.168c-0.066-0.039-0.274-0.189-0.38-0.644
	c-0.302-1.318-2.095-2.689-3.679-2.331c-0.54,0.123-1.505,0.552-1.888,2.105c-0.291,1.171-0.202,2.808,0.261,4.873
	c0.809,3.615,3.287,7.214,7.167,10.407c1.388,1.143,2.714,2.392,3.731,3.021C20.071,37.602,22.198,40,24.995,40H21v2h2.303
	c-0.336,1.521-1.143,3.897-4.428,3.897L16,47.404V50h18v-2.647l-2.471-1.455c-3.285,0-4.092-2.376-4.428-3.897H29v-2h-3.98
	c2.803,0,4.933-2.408,6.545-5.457c1.014-0.629,2.33-1.699,3.708-2.832c3.88-3.192,6.358-6.881,7.167-10.497
	C42.902,19.15,42.991,17.421,42.7,16.25z M9.1,20.783c-0.786-3.518-0.256-4.95,0.437-5.106c0.66-0.15,1.663,0.563,1.792,1.125
	c0.216,0.945,0.75,1.413,1.156,1.639c0.592,0.328,1.24,0.34,1.715,0.283c0.503,3.623,1.424,8.591,3.025,12.74
	C14.138,29.213,10.156,25.499,9.1,20.783z M22.443,34.067c-0.15,0.136-0.34,0.202-0.527,0.202c-0.217,0-0.431-0.088-0.588-0.262
	c-2.594-2.897-3.746-7.174-4.258-10.253c-0.291-1.748-0.407-3.284-0.453-4.265c-0.091-1.898-0.006-2.033,0.098-2.202
	c0.187-0.297,0.546-0.438,0.887-0.343c0.213,0.061,0.573,0.25,0.578,0.848c0.002,0.054-0.003,0.106-0.013,0.157
	c-0.009,1.291,0.116,10.292,4.337,15.004C22.793,33.278,22.768,33.778,22.443,34.067z M40.9,20.783
	c-1.053,4.705-5.021,8.412-8.103,10.664c1.596-4.144,2.515-9.103,3.019-12.721c0.475,0.055,1.114,0.039,1.699-0.285
	c0.406-0.226,0.94-0.694,1.156-1.639c0.129-0.562,1.128-1.275,1.792-1.125C41.156,15.833,41.687,17.265,40.9,20.783z"/>
</svg>
