<?xml version="1.0" encoding="utf-8"?>
<!-- Generator: Adobe Illustrator 16.0.3, SVG Export Plug-In . SVG Version: 6.00 Build 0)  -->
<!DOCTYPE svg PUBLIC "-//W3C//DTD SVG 1.1//EN" "http://www.w3.org/Graphics/SVG/1.1/DTD/svg11.dtd">
<svg version="1.1" id="Layer_1" xmlns="http://www.w3.org/2000/svg" xmlns:xlink="http://www.w3.org/1999/xlink" x="0px" y="0px"
	 width="50px" height="50px" viewBox="0 0 50 50" enable-background="new 0 0 50 50" xml:space="preserve">
<path fill="#BDA770" d="M33.746,14.181c-1.248,0-2.263,1.015-2.263,2.263c0,1.248,1.015,2.264,2.263,2.264s2.264-1.016,2.264-2.264
	C36.01,15.196,34.994,14.181,33.746,14.181z M33.746,17.731c-0.709,0-1.286-0.578-1.286-1.287c0-0.709,0.577-1.286,1.286-1.286
	c0.71,0,1.287,0.577,1.287,1.286C35.033,17.153,34.456,17.731,33.746,17.731z M39.891,19.974v-6.835
	c0-0.942-0.767-1.709-1.709-1.709H11.818c-0.942,0-1.709,0.767-1.709,1.709v6.835c0,0.942,0.767,1.709,1.709,1.709h-0.244
	c-0.809,0-1.465,0.657-1.465,1.464v24.411c0,0.808,0.656,1.465,1.465,1.465h1.465V50h4.394v-0.977h14.646V50h4.394v-0.977h1.465
	c0.809,0,1.465-0.657,1.465-1.465V23.147c0-0.808-0.656-1.464-1.465-1.464h0.244C39.124,21.683,39.891,20.916,39.891,19.974z
	 M13.58,46.631c-0.308,0-0.557-0.25-0.557-0.558c0-0.307,0.249-0.557,0.557-0.557c0.307,0,0.556,0.25,0.556,0.557
	C14.136,46.381,13.887,46.631,13.58,46.631z M13.58,42.922c-0.308,0-0.557-0.25-0.557-0.558c0-0.307,0.249-0.557,0.557-0.557
	c0.307,0,0.556,0.25,0.556,0.557C14.136,42.672,13.887,42.922,13.58,42.922z M13.58,39.212c-0.308,0-0.557-0.248-0.557-0.556
	s0.249-0.558,0.557-0.558c0.307,0,0.556,0.25,0.556,0.558S13.887,39.212,13.58,39.212z M13.58,35.504
	c-0.308,0-0.557-0.25-0.557-0.557c0-0.308,0.249-0.557,0.557-0.557c0.307,0,0.556,0.249,0.556,0.557
	C14.136,35.254,13.887,35.504,13.58,35.504z M13.58,31.795c-0.308,0-0.557-0.25-0.557-0.558c0-0.306,0.249-0.556,0.557-0.556
	c0.307,0,0.556,0.25,0.556,0.556C14.136,31.545,13.887,31.795,13.58,31.795z M13.58,28.085c-0.308,0-0.557-0.249-0.557-0.555
	c0-0.309,0.249-0.557,0.557-0.557c0.307,0,0.556,0.248,0.556,0.557C14.136,27.836,13.887,28.085,13.58,28.085z M13.58,24.376
	c-0.308,0-0.557-0.249-0.557-0.556c0-0.308,0.249-0.556,0.557-0.556c0.307,0,0.556,0.248,0.556,0.556
	C14.136,24.128,13.887,24.376,13.58,24.376z M15.435,44.775c-0.308,0-0.556-0.248-0.556-0.557c0-0.307,0.248-0.556,0.556-0.556
	s0.556,0.249,0.556,0.556C15.99,44.527,15.742,44.775,15.435,44.775z M15.435,41.066c-0.308,0-0.556-0.248-0.556-0.557
	c0-0.307,0.248-0.557,0.556-0.557s0.556,0.25,0.556,0.557C15.99,40.818,15.742,41.066,15.435,41.066z M17.289,46.631
	c-0.309,0-0.557-0.25-0.557-0.558c0-0.307,0.248-0.557,0.557-0.557c0.307,0,0.556,0.25,0.556,0.557
	C17.845,46.381,17.596,46.631,17.289,46.631z M17.289,42.922c-0.309,0-0.557-0.25-0.557-0.558c0-0.307,0.248-0.557,0.557-0.557
	c0.307,0,0.556,0.25,0.556,0.557C17.845,42.672,17.596,42.922,17.289,42.922z M19.144,44.775c-0.308,0-0.556-0.248-0.556-0.557
	c0-0.307,0.248-0.556,0.556-0.556s0.556,0.249,0.556,0.556C19.699,44.527,19.451,44.775,19.144,44.775z M20.998,46.631
	c-0.309,0-0.557-0.25-0.557-0.558c0-0.307,0.248-0.557,0.557-0.557c0.308,0,0.557,0.25,0.557,0.557
	C21.555,46.381,21.306,46.631,20.998,46.631z M24.707,46.631c-0.309,0-0.557-0.25-0.557-0.558c0-0.307,0.248-0.557,0.557-0.557
	c0.307,0,0.557,0.25,0.557,0.557C25.264,46.381,25.014,46.631,24.707,46.631z M28.416,46.631c-0.309,0-0.557-0.25-0.557-0.558
	c0-0.307,0.248-0.557,0.557-0.557c0.307,0,0.557,0.25,0.557,0.557C28.973,46.381,28.723,46.631,28.416,46.631z M30.27,44.775
	c-0.307,0-0.556-0.248-0.556-0.557c0-0.307,0.249-0.556,0.556-0.556c0.308,0,0.557,0.249,0.557,0.556
	C30.826,44.527,30.577,44.775,30.27,44.775z M32.125,46.631c-0.309,0-0.557-0.25-0.557-0.558c0-0.307,0.248-0.557,0.557-0.557
	c0.308,0,0.556,0.25,0.556,0.557C32.681,46.381,32.433,46.631,32.125,46.631z M32.125,42.922c-0.309,0-0.557-0.25-0.557-0.558
	c0-0.307,0.248-0.557,0.557-0.557c0.308,0,0.556,0.25,0.556,0.557C32.681,42.672,32.433,42.922,32.125,42.922z M33.979,44.775
	c-0.308,0-0.556-0.248-0.556-0.557c0-0.307,0.248-0.556,0.556-0.556s0.557,0.249,0.557,0.556
	C34.535,44.527,34.286,44.775,33.979,44.775z M33.979,41.066c-0.308,0-0.556-0.248-0.556-0.557c0-0.307,0.248-0.557,0.556-0.557
	s0.557,0.25,0.557,0.557C34.535,40.818,34.286,41.066,33.979,41.066z M34.395,34.947c0,0.477-0.047,0.941-0.113,1.399
	c0.149,0.1,0.254,0.262,0.254,0.455c0,0.271-0.197,0.485-0.453,0.536c-0.875,3.408-3.564,6.087-6.979,6.946
	c-0.033,0.275-0.258,0.491-0.542,0.491c-0.21,0-0.386-0.12-0.48-0.292c-0.435,0.061-0.874,0.103-1.325,0.103
	c-0.481,0-0.951-0.048-1.414-0.116c-0.092,0.18-0.273,0.306-0.49,0.306c-0.293,0-0.527-0.229-0.548-0.518
	c-3.357-0.886-5.997-3.536-6.869-6.899c-0.308,0-0.556-0.25-0.556-0.557c0-0.231,0.141-0.43,0.343-0.514
	c-0.062-0.44-0.104-0.886-0.104-1.341c0-0.456,0.043-0.901,0.104-1.341c-0.202-0.084-0.343-0.282-0.343-0.514
	c0-0.308,0.248-0.557,0.556-0.557c0.871-3.364,3.511-6.014,6.869-6.9c0.021-0.288,0.254-0.518,0.548-0.518
	c0.217,0,0.398,0.126,0.49,0.306c0.463-0.068,0.933-0.116,1.414-0.116c0.451,0,0.891,0.042,1.325,0.102
	c0.095-0.172,0.271-0.292,0.48-0.292c0.284,0,0.509,0.216,0.543,0.492c3.413,0.86,6.104,3.539,6.978,6.947
	c0.256,0.051,0.453,0.265,0.453,0.536c0,0.193-0.104,0.355-0.254,0.455C34.348,34.006,34.395,34.471,34.395,34.947z M15.435,28.827
	c0.308,0,0.556,0.249,0.556,0.557s-0.248,0.557-0.556,0.557s-0.556-0.249-0.556-0.557S15.127,28.827,15.435,28.827z M14.879,25.675
	c0-0.307,0.248-0.557,0.556-0.557s0.556,0.25,0.556,0.557c0,0.307-0.248,0.557-0.556,0.557S14.879,25.981,14.879,25.675z
	 M17.289,26.974c0.307,0,0.556,0.248,0.556,0.557c0,0.306-0.249,0.555-0.556,0.555c-0.309,0-0.557-0.249-0.557-0.555
	C16.732,27.222,16.98,26.974,17.289,26.974z M16.732,23.821c0-0.308,0.248-0.556,0.557-0.556c0.307,0,0.556,0.248,0.556,0.556
	c0,0.307-0.249,0.556-0.556,0.556C16.98,24.376,16.732,24.128,16.732,23.821z M18.588,25.675c0-0.307,0.248-0.557,0.556-0.557
	s0.556,0.25,0.556,0.557c0,0.307-0.248,0.557-0.556,0.557S18.588,25.981,18.588,25.675z M20.441,23.821
	c0-0.308,0.248-0.556,0.557-0.556c0.308,0,0.557,0.248,0.557,0.556c0,0.307-0.249,0.556-0.557,0.556
	C20.689,24.376,20.441,24.128,20.441,23.821z M24.15,23.821c0-0.308,0.248-0.556,0.557-0.556c0.307,0,0.557,0.248,0.557,0.556
	c0,0.307-0.25,0.556-0.557,0.556C24.398,24.376,24.15,24.128,24.15,23.821z M27.859,23.821c0-0.308,0.248-0.556,0.557-0.556
	c0.307,0,0.557,0.248,0.557,0.556c0,0.307-0.25,0.556-0.557,0.556C28.107,24.376,27.859,24.128,27.859,23.821z M29.714,25.675
	c0-0.307,0.249-0.557,0.556-0.557c0.308,0,0.557,0.25,0.557,0.557c0,0.307-0.249,0.557-0.557,0.557
	C29.963,26.231,29.714,25.981,29.714,25.675z M32.125,26.974c0.308,0,0.556,0.248,0.556,0.557c0,0.306-0.248,0.555-0.556,0.555
	c-0.309,0-0.557-0.249-0.557-0.555C31.568,27.222,31.816,26.974,32.125,26.974z M31.568,23.821c0-0.308,0.248-0.556,0.557-0.556
	c0.308,0,0.556,0.248,0.556,0.556c0,0.307-0.248,0.556-0.556,0.556C31.816,24.376,31.568,24.128,31.568,23.821z M33.979,29.94
	c-0.308,0-0.556-0.249-0.556-0.557s0.248-0.557,0.556-0.557s0.557,0.249,0.557,0.557S34.286,29.94,33.979,29.94z M33.979,26.231
	c-0.308,0-0.556-0.25-0.556-0.557c0-0.307,0.248-0.557,0.556-0.557s0.557,0.25,0.557,0.557
	C34.535,25.981,34.286,26.231,33.979,26.231z M35.834,46.631c-0.309,0-0.557-0.25-0.557-0.558c0-0.307,0.248-0.557,0.557-0.557
	c0.308,0,0.555,0.25,0.555,0.557C36.389,46.381,36.142,46.631,35.834,46.631z M35.834,42.922c-0.309,0-0.557-0.25-0.557-0.558
	c0-0.307,0.248-0.557,0.557-0.557c0.308,0,0.555,0.25,0.555,0.557C36.389,42.672,36.142,42.922,35.834,42.922z M35.834,39.212
	c-0.309,0-0.557-0.248-0.557-0.556s0.248-0.558,0.557-0.558c0.308,0,0.555,0.25,0.555,0.558S36.142,39.212,35.834,39.212z
	 M35.834,35.504c-0.309,0-0.557-0.25-0.557-0.557c0-0.308,0.248-0.557,0.557-0.557c0.308,0,0.555,0.249,0.555,0.557
	C36.389,35.254,36.142,35.504,35.834,35.504z M35.834,31.795c-0.309,0-0.557-0.25-0.557-0.558c0-0.306,0.248-0.556,0.557-0.556
	c0.308,0,0.555,0.25,0.555,0.556C36.389,31.545,36.142,31.795,35.834,31.795z M35.834,28.085c-0.309,0-0.557-0.249-0.557-0.555
	c0-0.309,0.248-0.557,0.557-0.557c0.308,0,0.555,0.248,0.555,0.557C36.389,27.836,36.142,28.085,35.834,28.085z M35.834,24.376
	c-0.309,0-0.557-0.249-0.557-0.556c0-0.308,0.248-0.556,0.557-0.556c0.308,0,0.555,0.248,0.555,0.556
	C36.389,24.128,36.142,24.376,35.834,24.376z M11.818,20.218c-0.135,0-0.244-0.109-0.244-0.244v-6.835
	c0-0.135,0.109-0.244,0.244-0.244h26.363c0.135,0,0.244,0.109,0.244,0.244v6.835c0,0.135-0.109,0.244-0.244,0.244H11.818z
	 M16.54,14.181c-1.248,0-2.264,1.015-2.264,2.263c0,1.248,1.016,2.264,2.264,2.264s2.263-1.016,2.263-2.264
	C18.803,15.196,17.788,14.181,16.54,14.181z M28.011,14.181c-1.247,0-2.263,1.015-2.263,2.263c0,1.248,1.016,2.264,2.263,2.264
	c1.248,0,2.264-1.016,2.264-2.264C30.274,15.196,29.259,14.181,28.011,14.181z M22.275,14.181c-1.248,0-2.264,1.015-2.264,2.263
	c0,1.248,1.016,2.264,2.264,2.264s2.264-1.016,2.264-2.264C24.539,15.196,23.523,14.181,22.275,14.181z M24.756,33.062
	c-1.039,0-1.885,0.845-1.885,1.885c0,1.039,0.846,1.885,1.885,1.885s1.885-0.846,1.885-1.885
	C26.641,33.907,25.795,33.062,24.756,33.062z M24.707,35.504c-0.309,0-0.557-0.25-0.557-0.557c0-0.308,0.248-0.557,0.557-0.557
	c0.307,0,0.557,0.249,0.557,0.557C25.264,35.254,25.014,35.504,24.707,35.504z M33.423,33.093c0-0.033,0.013-0.061,0.019-0.092
	c-0.761-3.393-3.456-6.062-6.867-6.772c-0.005,0.001-0.009,0.003-0.013,0.003c-0.052,0-0.099-0.017-0.146-0.029
	c-0.538-0.103-1.092-0.161-1.659-0.161c-4.911,0-8.906,3.995-8.906,8.906c0,4.91,3.995,8.906,8.906,8.906
	c0.565,0,1.117-0.059,1.652-0.16c0.051-0.015,0.099-0.03,0.153-0.03c0.005,0,0.009,0.002,0.013,0.002
	c3.411-0.711,6.106-3.379,6.867-6.771c-0.006-0.031-0.019-0.059-0.019-0.092c0-0.108,0.039-0.204,0.093-0.29
	c0.091-0.509,0.146-1.029,0.146-1.564s-0.056-1.056-0.146-1.564C33.462,33.297,33.423,33.201,33.423,33.093z M17.289,39.212
	c-0.309,0-0.557-0.248-0.557-0.556s0.248-0.558,0.557-0.558c0.307,0,0.556,0.25,0.556,0.558S17.596,39.212,17.289,39.212z
	 M17.289,35.504c-0.309,0-0.557-0.25-0.557-0.557c0-0.308,0.248-0.557,0.557-0.557c0.307,0,0.556,0.249,0.556,0.557
	C17.845,35.254,17.596,35.504,17.289,35.504z M17.289,31.795c-0.309,0-0.557-0.25-0.557-0.558c0-0.306,0.248-0.556,0.557-0.556
	c0.307,0,0.556,0.25,0.556,0.556C17.845,31.545,17.596,31.795,17.289,31.795z M26.562,28.827c0.307,0,0.556,0.249,0.556,0.557
	s-0.249,0.557-0.556,0.557c-0.308,0-0.556-0.249-0.556-0.557S26.254,28.827,26.562,28.827z M24.707,26.974
	c0.307,0,0.557,0.248,0.557,0.557c0,0.306-0.25,0.555-0.557,0.555c-0.309,0-0.557-0.249-0.557-0.555
	C24.15,27.222,24.398,26.974,24.707,26.974z M24.707,30.682c0.307,0,0.557,0.25,0.557,0.556c0,0.308-0.25,0.558-0.557,0.558
	c-0.309,0-0.557-0.25-0.557-0.558C24.15,30.932,24.398,30.682,24.707,30.682z M22.852,28.827c0.309,0,0.557,0.249,0.557,0.557
	s-0.248,0.557-0.557,0.557c-0.307,0-0.556-0.249-0.556-0.557S22.545,28.827,22.852,28.827z M19.144,41.066
	c-0.308,0-0.556-0.248-0.556-0.557c0-0.307,0.248-0.557,0.556-0.557s0.556,0.25,0.556,0.557
	C19.699,40.818,19.451,41.066,19.144,41.066z M19.144,37.358c-0.308,0-0.556-0.25-0.556-0.557c0-0.308,0.248-0.557,0.556-0.557
	s0.556,0.249,0.556,0.557C19.699,37.108,19.451,37.358,19.144,37.358z M19.144,33.649c-0.308,0-0.556-0.25-0.556-0.557
	c0-0.308,0.248-0.557,0.556-0.557s0.556,0.249,0.556,0.557C19.699,33.399,19.451,33.649,19.144,33.649z M19.144,29.94
	c-0.308,0-0.556-0.249-0.556-0.557s0.248-0.557,0.556-0.557s0.556,0.249,0.556,0.557S19.451,29.94,19.144,29.94z M20.998,42.922
	c-0.309,0-0.557-0.25-0.557-0.558c0-0.307,0.248-0.557,0.557-0.557c0.308,0,0.557,0.25,0.557,0.557
	C21.555,42.672,21.306,42.922,20.998,42.922z M20.998,39.212c-0.309,0-0.557-0.248-0.557-0.556s0.248-0.558,0.557-0.558
	c0.308,0,0.557,0.25,0.557,0.558S21.306,39.212,20.998,39.212z M20.998,35.504c-0.309,0-0.557-0.25-0.557-0.557
	c0-0.308,0.248-0.557,0.557-0.557c0.308,0,0.557,0.249,0.557,0.557C21.555,35.254,21.306,35.504,20.998,35.504z M20.998,31.795
	c-0.309,0-0.557-0.25-0.557-0.558c0-0.306,0.248-0.556,0.557-0.556c0.308,0,0.557,0.25,0.557,0.556
	C21.555,31.545,21.306,31.795,20.998,31.795z M20.998,28.085c-0.309,0-0.557-0.249-0.557-0.555c0-0.309,0.248-0.557,0.557-0.557
	c0.308,0,0.557,0.248,0.557,0.557C21.555,27.836,21.306,28.085,20.998,28.085z M22.852,41.066c-0.307,0-0.556-0.248-0.556-0.557
	c0-0.307,0.249-0.557,0.556-0.557c0.309,0,0.557,0.25,0.557,0.557C23.408,40.818,23.16,41.066,22.852,41.066z M24.707,42.922
	c-0.309,0-0.557-0.25-0.557-0.558c0-0.307,0.248-0.557,0.557-0.557c0.307,0,0.557,0.25,0.557,0.557
	C25.264,42.672,25.014,42.922,24.707,42.922z M24.707,39.212c-0.309,0-0.557-0.248-0.557-0.556s0.248-0.558,0.557-0.558
	c0.307,0,0.557,0.25,0.557,0.558S25.014,39.212,24.707,39.212z M26.562,41.066c-0.308,0-0.556-0.248-0.556-0.557
	c0-0.307,0.248-0.557,0.556-0.557c0.307,0,0.556,0.25,0.556,0.557C27.117,40.818,26.868,41.066,26.562,41.066z M27.117,36.802
	c0,0.307-0.249,0.557-0.556,0.557c-0.171,0-0.317-0.081-0.419-0.201c-0.403,0.254-0.876,0.407-1.387,0.407
	c-0.54,0-1.041-0.165-1.459-0.446c-0.1,0.143-0.257,0.24-0.445,0.24c-0.307,0-0.556-0.25-0.556-0.557
	c0-0.194,0.104-0.356,0.256-0.457c-0.259-0.405-0.413-0.883-0.413-1.397c0-0.516,0.154-0.993,0.413-1.398
	c-0.151-0.1-0.256-0.262-0.256-0.456c0-0.308,0.249-0.557,0.556-0.557c0.188,0,0.346,0.098,0.445,0.239
	c0.418-0.281,0.919-0.445,1.459-0.445c0.511,0,0.983,0.153,1.387,0.406c0.102-0.12,0.248-0.2,0.419-0.2
	c0.307,0,0.556,0.249,0.556,0.557c0,0.163-0.072,0.306-0.184,0.407c0.277,0.415,0.439,0.912,0.439,1.447s-0.162,1.031-0.439,1.447
	C27.045,36.496,27.117,36.639,27.117,36.802z M28.416,42.922c-0.309,0-0.557-0.25-0.557-0.558c0-0.307,0.248-0.557,0.557-0.557
	c0.307,0,0.557,0.25,0.557,0.557C28.973,42.672,28.723,42.922,28.416,42.922z M28.416,39.212c-0.309,0-0.557-0.248-0.557-0.556
	s0.248-0.558,0.557-0.558c0.307,0,0.557,0.25,0.557,0.558S28.723,39.212,28.416,39.212z M28.416,35.504
	c-0.309,0-0.557-0.25-0.557-0.557c0-0.308,0.248-0.557,0.557-0.557c0.307,0,0.557,0.249,0.557,0.557
	C28.973,35.254,28.723,35.504,28.416,35.504z M28.416,31.795c-0.309,0-0.557-0.25-0.557-0.558c0-0.306,0.248-0.556,0.557-0.556
	c0.307,0,0.557,0.25,0.557,0.556C28.973,31.545,28.723,31.795,28.416,31.795z M28.416,28.085c-0.309,0-0.557-0.249-0.557-0.555
	c0-0.309,0.248-0.557,0.557-0.557c0.307,0,0.557,0.248,0.557,0.557C28.973,27.836,28.723,28.085,28.416,28.085z M30.27,41.066
	c-0.307,0-0.556-0.248-0.556-0.557c0-0.307,0.249-0.557,0.556-0.557c0.308,0,0.557,0.25,0.557,0.557
	C30.826,40.818,30.577,41.066,30.27,41.066z M30.27,37.358c-0.307,0-0.556-0.25-0.556-0.557c0-0.308,0.249-0.557,0.556-0.557
	c0.308,0,0.557,0.249,0.557,0.557C30.826,37.108,30.577,37.358,30.27,37.358z M30.27,33.649c-0.307,0-0.556-0.25-0.556-0.557
	c0-0.308,0.249-0.557,0.556-0.557c0.308,0,0.557,0.249,0.557,0.557C30.826,33.399,30.577,33.649,30.27,33.649z M30.27,29.94
	c-0.307,0-0.556-0.249-0.556-0.557s0.249-0.557,0.556-0.557c0.308,0,0.557,0.249,0.557,0.557S30.577,29.94,30.27,29.94z
	 M32.125,39.212c-0.309,0-0.557-0.248-0.557-0.556s0.248-0.558,0.557-0.558c0.308,0,0.556,0.25,0.556,0.558
	S32.433,39.212,32.125,39.212z M32.125,35.504c-0.309,0-0.557-0.25-0.557-0.557c0-0.308,0.248-0.557,0.557-0.557
	c0.308,0,0.556,0.249,0.556,0.557C32.681,35.254,32.433,35.504,32.125,35.504z M32.125,31.795c-0.309,0-0.557-0.25-0.557-0.558
	c0-0.306,0.248-0.556,0.557-0.556c0.308,0,0.556,0.25,0.556,0.556C32.681,31.545,32.433,31.795,32.125,31.795z"/>
</svg>
