<?xml version="1.0" encoding="utf-8"?>
<!-- Generator: Adobe Illustrator 16.0.3, SVG Export Plug-In . SVG Version: 6.00 Build 0)  -->
<!DOCTYPE svg PUBLIC "-//W3C//DTD SVG 1.1//EN" "http://www.w3.org/Graphics/SVG/1.1/DTD/svg11.dtd">
<svg version="1.1" id="Layer_1" xmlns="http://www.w3.org/2000/svg" xmlns:xlink="http://www.w3.org/1999/xlink" x="0px" y="0px"
  width="50px" height="100px" viewBox="0 0 50 100" enable-background="new 0 0 50 100" xml:space="preserve">
<g>
 <rect x="23.8" y="75.068" fill="#BDA770" width="2.444" height="12.579"/>
 <g>
  <path fill="#BDA770" d="M33.595,87.518c0,0.091-0.301,0.164-0.67,0.164H17.12c-0.369,0-0.67-0.073-0.67-0.164
   c0-0.09,0.291-0.241,0.647-0.336l7.278-1.944c0.356-0.095,0.938-0.095,1.294,0l7.279,1.944
   C33.304,87.276,33.595,87.428,33.595,87.518z"/>
 </g>
 <path fill="#BDA770" d="M21.843,65.197l1.271,1.27c0.551-0.335,1.352-0.196,1.914,0.364c0.563,0.562,0.7,1.365,0.365,1.914
  l0.885,0.886c0.107,0.106,0.107,0.281,0,0.389c-0.053,0.052-0.123,0.079-0.193,0.079c-0.071,0-0.14-0.027-0.194-0.079l-0.885-0.887
  c-0.551,0.333-1.352,0.199-1.916-0.364c-0.562-0.562-0.699-1.365-0.365-1.913l-1.658-1.658H16.25l8.77,7.182l8.773-7.182H21.843z"
  />
 <path fill="#BDA770" d="M25.023,73.815l-11.211-8.971c-0.822-0.731-1.497-1.329-2.123-1.329c-0.344,0,0.011,0.637,0.791,1.416
  L25.022,77.04l12.542-12.108c0.78-0.779,1.136-1.416,0.792-1.416c-0.66,0-1.3,0.598-2.123,1.329L25.023,73.815z"/>
 <path fill="#BDA770" d="M21.977,65.333l-3.82-3.605c-0.099-0.098-0.259-0.098-0.354,0c-0.097,0.098-0.097,0.258,0,0.355l3.468,3.25
  H21.977z"/>
</g>
<g>
 <rect x="23.8" y="25.068" fill="#FFFFFF" width="2.444" height="12.579"/>
 <g>
  <path fill="#FFFFFF" d="M33.595,37.518c0,0.09-0.301,0.164-0.67,0.164H17.12c-0.369,0-0.67-0.074-0.67-0.164
   s0.291-0.241,0.647-0.336l7.278-1.944c0.356-0.095,0.938-0.095,1.294,0l7.279,1.944C33.304,37.277,33.595,37.428,33.595,37.518z"
   />
 </g>
 <path fill="#FFFFFF" d="M21.843,15.197l1.271,1.27c0.551-0.335,1.352-0.196,1.914,0.364c0.563,0.562,0.7,1.365,0.365,1.914
  l0.885,0.886c0.107,0.106,0.107,0.281,0,0.389c-0.053,0.052-0.123,0.079-0.193,0.079c-0.071,0-0.14-0.027-0.194-0.079l-0.885-0.887
  c-0.551,0.333-1.352,0.199-1.916-0.364c-0.562-0.562-0.699-1.365-0.365-1.913l-1.658-1.658H16.25l8.77,7.182l8.773-7.182H21.843z"
  />
 <path fill="#FFFFFF" d="M25.023,23.815l-11.211-8.971c-0.822-0.731-1.497-1.329-2.123-1.329c-0.344,0,0.011,0.637,0.791,1.416
  L25.022,27.04l12.542-12.108c0.78-0.779,1.136-1.416,0.792-1.416c-0.66,0-1.3,0.598-2.123,1.329L25.023,23.815z"/>
 <path fill="#FFFFFF" d="M21.977,15.333l-3.82-3.605c-0.099-0.098-0.259-0.098-0.354,0c-0.097,0.098-0.097,0.258,0,0.355l3.468,3.25
  H21.977z"/>
</g>
</svg>
