<?xml version="1.0" encoding="utf-8"?>
<!-- Generator: Adobe Illustrator 16.0.3, SVG Export Plug-In . SVG Version: 6.00 Build 0)  -->
<!DOCTYPE svg PUBLIC "-//W3C//DTD SVG 1.1//EN" "http://www.w3.org/Graphics/SVG/1.1/DTD/svg11.dtd">
<svg version="1.1" id="Layer_1" xmlns="http://www.w3.org/2000/svg" xmlns:xlink="http://www.w3.org/1999/xlink" x="0px" y="0px"
	 width="50px" height="50px" viewBox="0 0 50 50" enable-background="new 0 0 50 50" xml:space="preserve">
<g>
	<g>
		<polygon fill="#BDA770" points="14.619,34.498 14.619,34.465 9.161,33.973 9.161,38.243 11.234,38.298 11.234,34.89 		"/>
		<polygon fill="#BDA770" points="17.719,30.38 17.72,28.454 13.668,28.918 9.161,29.434 9.161,33.249 14.619,33.74 14.612,30.739 
					"/>
	</g>
	<g>
		<polygon fill="#BDA770" points="47.23,38.32 48.545,38.32 49.896,38.186 49.895,34.489 48.553,34.409 47.248,34.409 
			27.555,35.486 27.555,38.674 		"/>
		<polygon fill="#BDA770" points="27.555,30.794 47.221,29.057 48.595,29.057 49.895,29.285 49.894,25.21 48.573,24.786 
			47.236,24.786 27.552,27.193 27.555,27.193 		"/>
		<polygon fill="#BDA770" points="19.49,30.538 18.208,30.343 18.224,34.066 25.81,34.75 25.81,31.506 		"/>
		<polygon fill="#BDA770" points="27.562,42.609 47.244,42.951 48.522,42.951 49.896,42.644 49.896,38.911 48.562,39.041 
			47.236,39.041 27.562,39.396 		"/>
		<polygon fill="#BDA770" points="1.924,44.547 0.104,44.414 0.104,49.418 1.93,50 25.81,46.93 25.81,43.331 		"/>
		<polygon fill="#BDA770" points="25.868,27.193 21.289,26.203 21.289,30.084 25.81,30.776 25.81,27.193 		"/>
		<polygon fill="#BDA770" points="25.805,39.396 14.781,39.11 14.781,39.111 11.242,39.02 1.951,38.729 0.107,38.947 0.107,43.689 
			1.941,43.825 25.801,42.609 		"/>
		<polygon fill="#BDA770" points="47.228,33.688 48.583,33.688 49.895,33.767 49.895,30.019 48.531,29.778 47.253,29.778 
			27.555,31.52 27.555,34.765 		"/>
		<polygon fill="#BDA770" points="17.456,34.721 14.777,34.481 14.777,38.389 25.81,38.674 25.81,35.477 		"/>
		<polygon fill="#BDA770" points="49.896,43.383 48.604,43.673 47.236,43.673 27.555,43.331 27.555,46.93 47.236,47.88 
			48.562,47.88 49.896,47.474 		"/>
	</g>
	<g>
		<polygon fill="#BDA770" points="14.692,35.125 15.253,35.06 15.25,34.496 15.244,31.302 17.792,31.007 18.351,30.943 
			18.351,30.382 18.352,27.173 21.285,26.828 21.285,26.203 21.285,26.202 17.723,26.608 17.719,30.38 14.612,30.739 14.619,34.498 
			11.234,34.89 11.234,39.02 11.866,39.114 11.866,35.452 		"/>
		<polygon fill="#BDA770" points="21.285,26.828 21.285,26.848 21.289,26.827 		"/>
	</g>
</g>
</svg>
