<?xml version="1.0" encoding="utf-8"?>
<!-- Generator: Adobe Illustrator 16.0.3, SVG Export Plug-In . SVG Version: 6.00 Build 0)  -->
<!DOCTYPE svg PUBLIC "-//W3C//DTD SVG 1.1//EN" "http://www.w3.org/Graphics/SVG/1.1/DTD/svg11.dtd">
<svg version="1.1" id="Layer_2" xmlns="http://www.w3.org/2000/svg" xmlns:xlink="http://www.w3.org/1999/xlink" x="0px" y="0px"
	 width="50px" height="50px" viewBox="0 0 50 50" enable-background="new 0 0 50 50" xml:space="preserve">
<g>
	<rect x="23.563" y="33.51" fill="#BDA770" width="3.196" height="16.444"/>
	<g>
		<path fill="#BDA770" d="M36.369,49.785c0,0.12-0.394,0.215-0.877,0.215H14.83c-0.482,0-0.875-0.095-0.875-0.215
			c0-0.117,0.38-0.313,0.846-0.439l9.515-2.54c0.465-0.125,1.226-0.125,1.692,0l9.516,2.54
			C35.989,49.469,36.369,49.668,36.369,49.785z"/>
	</g>
	<path fill="#BDA770" d="M21.004,20.604l1.662,1.66c0.721-0.438,1.768-0.255,2.502,0.476c0.736,0.734,0.916,1.784,0.478,2.503
		l1.156,1.157c0.141,0.138,0.141,0.368,0,0.508c-0.069,0.069-0.161,0.105-0.252,0.105c-0.093,0-0.183-0.036-0.253-0.105L25.14,25.75
		c-0.72,0.435-1.768,0.261-2.505-0.476c-0.735-0.735-0.914-1.785-0.477-2.502l-2.168-2.167h-6.297l11.465,9.389l11.47-9.389H21.004
		V20.604z"/>
	<path fill="#BDA770" d="M25.162,31.87L10.505,20.143c-1.074-0.955-1.957-1.737-2.776-1.737c-0.449,0,0.015,0.833,1.034,1.852
		l16.398,15.831l16.397-15.831c1.019-1.019,1.485-1.852,1.033-1.852c-0.862,0-1.698,0.783-2.775,1.738L25.162,31.87z"/>
	<path fill="#BDA770" d="M21.18,20.782l-4.994-4.712c-0.129-0.129-0.339-0.129-0.462,0c-0.127,0.127-0.127,0.337,0,0.463
		l4.534,4.249H21.18z"/>
</g>
</svg>
