<?xml version="1.0" encoding="utf-8"?>
<!-- Generator: Adobe Illustrator 16.0.3, SVG Export Plug-In . SVG Version: 6.00 Build 0)  -->
<!DOCTYPE svg PUBLIC "-//W3C//DTD SVG 1.1//EN" "http://www.w3.org/Graphics/SVG/1.1/DTD/svg11.dtd">
<svg version="1.1" id="Layer_1" xmlns="http://www.w3.org/2000/svg" xmlns:xlink="http://www.w3.org/1999/xlink" x="0px" y="0px"
	 width="50px" height="50px" viewBox="0 0 50 50" enable-background="new 0 0 50 50" xml:space="preserve">
<g>
	<path fill="none" d="M23.12,26.274L23.12,26.274L23.12,26.274z"/>
	<path fill="none" d="M22.469,28.847L22.469,28.847L22.469,28.847z"/>
	<path fill="#666666" d="M38.128,20.372c-2.079,0.188-4.021-0.458-4.188-0.516l0,0c0,0-0.004-0.002-0.008-0.004
		c-0.004,0-0.006,0-0.006,0l0,0c-0.172-0.051-2.128-0.649-3.714-2.009c0,0-1.957-1.278-2.827,0.414
		c-0.076,0.147-0.554,1.468-0.605,2.129c-0.062,0.22,0.121,1.119-1.458,3.446c-0.077,0.111-0.137,0.243-0.189,0.379
		c-0.335,0.723-0.884,2.242-0.614,4.053c0.013,0.17,0.024,0.338,0.027,0.508c0.011,0.672-0.125,1.334-0.119,2.006
		c0.007,0.854,0.181,1.705,0.5,2.498c0.241,0.6,0.634,1.119,0.981,1.66c0.324,0.506,0.631,1.029,1.035,1.478
		c0.355,0.396,0.791,0.737,1.312,0.886l0.101,0.027l0.099,0.035c0.51,0.181,1.063,0.154,1.585,0.039
		c0.586-0.131,1.143-0.381,1.697-0.604c0.598-0.239,1.218-0.435,1.763-0.785c0.719-0.461,1.354-1.054,1.854-1.747
		c0.394-0.541,0.666-1.162,1.063-1.701c0.103-0.137,0.209-0.269,0.317-0.397c1.269-1.32,1.703-2.878,1.848-3.659
		c0.036-0.141,0.062-0.283,0.064-0.42c0.063-2.811,0.734-3.436,0.812-3.65c0.34-0.57,0.715-1.924,0.737-2.088
		C40.465,20.465,38.128,20.372,38.128,20.372z M30.428,29.615c0.004,0.005,0.221,0.261,0.471,0.206
		c0.026-0.006,0.053-0.016,0.078-0.026c0.002-0.001,0.004-0.001,0.006-0.003c0.113-0.05,0.221-0.143,0.263-0.311l1.28-3.916
		c-0.137,0.487-0.856,3.646-0.856,3.646s1.134,0.431,0.459,1.351c0,0-0.187-0.435-0.66-0.326c0,0-0.323,0.195-0.698,0.211
		c-0.011,0.002-0.022,0.002-0.033,0.002c-0.002,0-0.006,0-0.01,0c-0.188-0.004-0.332-0.071-0.408-0.119
		c-0.336-0.229-0.508-0.621-0.508-0.621c-0.326-0.365-0.727-0.118-0.727-0.118c-0.018-1.14,1.156-0.834,1.156-0.834
		s1.242-2.991,1.416-3.466l-1.264,3.922C30.331,29.372,30.363,29.508,30.428,29.615z M27.032,24.575
		c-0.05-0.004,0.592-1.521,2.153-1.004c0.185,0.07,0.478,0.318,0.672,0.525c0.328,0.383,0.781,1.414,0.334,2.496
		C30.087,26.42,29.175,24.721,27.032,24.575z M29.7,22.063c0.378,0.103,0.804,0.301,1.208,0.681l0,0
		c0.445,0.423,0.822,1.179,0.619,1.896c0,0-1.066-3.147-4.541-1.77C26.986,22.87,27.812,21.707,29.7,22.063z M34.023,32.245
		c0,0-2.174,2.951-4.678,2.542c-0.279-0.054-0.507-0.153-0.646-0.226c-2.184-1.17-2.242-4.73-2.242-4.73
		c0.07-0.963,1.075-0.033,1.075-0.033c0.558,0.461,1.966,1.088,2.661,1.383c0.738,0.163,2.25,0.467,2.97,0.415
		C33.164,31.596,34.521,31.42,34.023,32.245z M36.624,27.638c-1.741-1.068-3.743-0.186-3.743-0.186
		c0.262-1.141,1.208-1.768,1.696-1.889c0.278-0.057,0.538-0.021,0.729,0.029C36.88,26.075,36.665,27.665,36.624,27.638z
		 M32.934,25.088c0.248-0.7,0.974-1.084,1.582-1.172l0,0c0.549-0.076,1.012,0.008,1.377,0.146c1.744,0.803,1.767,2.217,1.767,2.217
		C35.626,23.14,32.934,25.088,32.934,25.088z"/>
	<path d="M27.066,24.688v0.065C27.068,24.716,27.068,24.694,27.066,24.688z"/>
	<path fill="#666666" d="M22.879,26.18c0.081,0.028,0.162,0.062,0.241,0.097C23.047,26.237,22.965,26.206,22.879,26.18z"/>
	<path fill="#666666" d="M22.469,28.847l1.048-0.281c0-0.011,0-0.021,0-0.03C23.156,28.629,22.781,28.745,22.469,28.847z"/>
	<path fill="#666666" d="M23.68,26.558c0.009-0.059,0.018-0.117,0.027-0.173l-0.587-0.108C23.315,26.358,23.503,26.455,23.68,26.558
		z"/>
	<g>
		<path fill="none" d="M22.977,17.672c0,0-0.877-0.942-2.711-0.37c-0.363,0.143-0.765,0.389-1.122,0.812l0,0
			c-0.393,0.473-0.759,1.148-0.475,1.836C18.668,19.949,19.366,16.699,22.977,17.672z"/>
		<path d="M23.68,26.558c0.009-0.059,0.018-0.117,0.027-0.173l-0.587-0.108C23.315,26.358,23.503,26.455,23.68,26.558z"/>
		<path d="M22.469,28.847l1.048-0.281c0-0.011,0-0.021,0-0.03C23.156,28.629,22.781,28.745,22.469,28.847z"/>
		<path fill="none" d="M22.469,28.847L22.469,28.847L22.469,28.847z"/>
		<path fill="none" d="M23.12,26.274L23.12,26.274L23.12,26.274z"/>
		<path fill="none" d="M22.879,26.18c0.081,0.028,0.162,0.062,0.241,0.097C23.047,26.237,22.965,26.206,22.879,26.18z"/>
		<path fill="none" d="M20.487,23.858c0,0-1.578-2.828-1.805-3.279l1.671,3.773c0.081,0.151,0.064,0.293,0.011,0.406
			c-0.001,0.001-0.002,0.003-0.003,0.004c-0.012,0.027-0.025,0.051-0.039,0.074c-0.15,0.208-0.484,0.161-0.489,0.16
			c-0.119-0.037-0.233-0.115-0.294-0.277l-1.686-3.767c0.191,0.468,1.268,3.522,1.268,3.522s-1.077,0.559-0.302,1.394
			c0,0,0.134-0.453,0.619-0.399c0,0,0.392,0.18,0.794,0.123c0.089-0.015,0.241-0.06,0.383-0.185
			c0.002-0.003,0.005-0.005,0.008-0.007c0.008-0.006,0.014-0.015,0.024-0.021c0.266-0.263,0.376-0.625,0.376-0.625
			c0.28-0.396,0.708-0.199,0.708-0.199C21.617,23.421,20.487,23.858,20.487,23.858z"/>
		<path fill="none" d="M20.845,18.662c-0.176,0.091-0.581,0.396-0.751,0.623c-0.281,0.418-0.453,1.435,0.117,2.457
			c0,0,0.896-1.996,2.907-2.365C23.167,19.366,22.337,17.966,20.845,18.662z"/>
		<path fill="none" d="M17.323,20.558c-0.328-0.67-1.14-0.904-1.755-0.923l0,0c-0.553-0.012-0.938,0.189-1.287,0.367
			c-1.643,0.997-1.517,2.276-1.517,2.276C14.423,18.929,17.323,20.558,17.323,20.558z"/>
		<path fill="none" d="M15.763,21.269c-0.284-0.021-0.6-0.021-0.784,0.051c-1.508,0.658-1.079,2.229-1.039,2.197
			c1.607-1.262,3.697-0.613,3.697-0.613C17.192,21.646,16.147,21.319,15.763,21.269z"/>
		<path fill="none" d="M19.224,30.71c0.085,0.1,0.203,0.093,0.321,0.043C19.417,30.791,19.304,30.786,19.224,30.71z"/>
		<polygon fill="none" points="19.1,30.118 19.1,30.12 19.1,30.119 		"/>
		<path fill="none" d="M21.408,25.983c-0.123,0.017-0.244,0.041-0.366,0.074c-0.227,0.072-0.407,0.176-0.515,0.25
			c-1.278,0.887-1.43,2.778-1.428,3.668C19.1,29.292,19.236,26.392,21.408,25.983z"/>
		<path fill="none" d="M21.409,25.983c0.001,0,0.874,0.007,1.47,0.195C22.415,26.01,21.914,25.919,21.409,25.983z"/>
		<path fill="#666666" d="M25.916,20.038c-0.193-0.487-0.406-0.88-0.57-1.148c-0.069-0.129-0.144-0.254-0.233-0.355
			c-1.835-2.131-1.754-3.045-1.842-3.256c-0.129-0.651-0.754-1.908-0.846-2.047c-1.059-1.58-2.856-0.084-2.856-0.084
			c-1.421,1.529-3.295,2.349-3.459,2.418l0,0c0,0-0.003,0.002-0.007,0.004s-0.006,0.002-0.006,0.002l0,0
			c-0.161,0.076-2.016,0.941-4.103,0.994c0,0-2.31,0.357-1.825,2.196c0.042,0.161,0.57,1.462,0.973,1.989
			c0.101,0.205,0.839,0.749,1.222,3.535c0.019,0.135,0.062,0.271,0.114,0.41c0.233,0.759,0.845,2.256,2.254,3.421
			c0.124,0.118,0.244,0.235,0.36,0.36c0.458,0.49,0.801,1.073,1.253,1.568c0.578,0.631,1.276,1.146,2.042,1.521
			c0.583,0.287,1.222,0.408,1.842,0.58c0.578,0.157,1.157,0.343,1.756,0.404c0.531,0.055,1.083,0.018,1.569-0.222l0.093-0.047
			l0.096-0.038c0.032-0.014,0.065-0.027,0.096-0.042c-0.256-1.343-0.341-2.562-0.321-3.64l-1.048,0.28l0,0l-1.873,1.074
			c-0.136,0.174-0.661,0.712-1.052,0.832c-0.118,0.05-0.235,0.056-0.321-0.043c-0.094-0.088-0.144-0.271-0.124-0.59
			c0-0.001,0-0.002,0-0.002c0-0.005-0.003-0.056-0.002-0.144c-0.002-0.889,0.15-2.779,1.428-3.668
			c0.108-0.072,0.288-0.177,0.515-0.248c0.123-0.035,0.244-0.06,0.366-0.074l0,0h0.001c0.505-0.065,1.006,0.024,1.47,0.194
			c0.086,0.026,0.168,0.06,0.241,0.097l0,0l0.587,0.108c0.331-2.067,0.972-3.231,0.972-3.231
			C25.376,22.21,25.734,20.976,25.916,20.038z M19.081,18.049l0.062-0.126c0.357-0.423,0.759-0.669,1.122-0.811
			c1.833-0.573,2.711,0.56,2.711,0.56c-3.611-0.973-4.308,2.277-4.308,2.277C18.385,19.263,18.688,18.522,19.081,18.049z
			 M12.764,22.278c0,0-0.188-1.344,1.455-2.34c0.348-0.178,0.797-0.315,1.35-0.305l0,0c0.615,0.02,1.427,0.253,1.755,0.922
			C17.323,20.558,14.423,18.929,12.764,22.278z M13.94,23.517c-0.04,0.03-0.469-1.539,1.039-2.197
			c0.185-0.071,0.5-0.072,0.784-0.051c0.384,0.051,1.429,0.377,1.875,1.635C17.638,22.903,15.548,22.255,13.94,23.517z
			 M21.022,24.755c0,0-0.111,0.362-0.376,0.625c-0.01,0.008-0.016,0.016-0.024,0.021c-0.003,0.002-0.006,0.004-0.008,0.007
			c-0.142,0.125-0.294,0.17-0.383,0.185c-0.402,0.057-0.794-0.123-0.794-0.123c-0.485-0.054-0.619,0.399-0.619,0.399
			c-0.775-0.835,0.302-1.394,0.302-1.394s-1.077-3.056-1.268-3.522l1.686,3.767c0.061,0.162,0.175,0.24,0.295,0.278
			c0.005,0.001,0.339,0.048,0.489-0.16c0.014-0.024,0.027-0.047,0.039-0.073c0.001-0.002,0.002-0.004,0.003-0.005
			c0.053-0.114,0.069-0.255-0.011-0.405l-1.671-3.774c0.227,0.452,1.805,3.28,1.805,3.28s1.13-0.438,1.243,0.695
			C21.73,24.556,21.302,24.356,21.022,24.755z M23.118,19.377c-2.011,0.369-2.907,2.365-2.907,2.365
			c-0.57-1.022-0.398-2.039-0.117-2.457c0.17-0.228,0.385-0.501,0.562-0.593C22.148,17.997,23.167,19.366,23.118,19.377z"/>
		<path fill="#666666" d="M21.409,25.983L21.409,25.983L21.409,25.983z"/>
		<path d="M20.618,29.89c-0.005,0.008-0.013,0.02-0.022,0.031l1.873-1.074c-0.142,0.047-0.27,0.092-0.376,0.129
			C21.726,29.183,21.112,29.543,20.618,29.89z"/>
		<path d="M19.1,30.12c-0.02,0.318,0.03,0.502,0.124,0.59c-0.047-0.052-0.084-0.135-0.106-0.255
			C19.118,30.455,19.105,30.328,19.1,30.12z"/>
		<path d="M20.014,30.377c0,0-0.236,0.276-0.47,0.376c0.391-0.12,0.916-0.658,1.052-0.832l-0.108,0.062
			C20.296,30.123,20.129,30.259,20.014,30.377z"/>
	</g>
</g>
</svg>
