<?xml version="1.0" encoding="utf-8"?>
<!-- Generator: Adobe Illustrator 16.0.3, SVG Export Plug-In . SVG Version: 6.00 Build 0)  -->
<!DOCTYPE svg PUBLIC "-//W3C//DTD SVG 1.1//EN" "http://www.w3.org/Graphics/SVG/1.1/DTD/svg11.dtd">
<svg version="1.1" id="Layer_1" xmlns="http://www.w3.org/2000/svg" xmlns:xlink="http://www.w3.org/1999/xlink" x="0px" y="0px"
  width="50px" height="100px" viewBox="0 0 50 100" enable-background="new 0 0 50 100" xml:space="preserve">
<g>
 <path fill="#BDA770" d="M36.54,73.85l-9.753-9.753l-1.496,0.01l10.496,10.497c0.501,0.5,0.779,1.168,0.779,1.879
  c0,0.71-0.276,1.378-0.779,1.881l-7.958,7.957c0.928-0.016,1.851-0.344,2.558-1.05l6.153-6.154
  C37.993,77.663,37.993,75.301,36.54,73.85z"/>
 <path fill="#BDA770" d="M35.035,75.354L23.801,64.119l-10.856,0.069v10.787l11.234,11.235c0.623,0.623,1.634,0.624,2.257,0l8.6-8.6
  C35.658,76.986,35.658,75.978,35.035,75.354z M15.38,66.556c0.703-0.702,1.844-0.702,2.547,0c0.702,0.705,0.704,1.845,0,2.547
  c-0.702,0.703-1.842,0.703-2.547-0.002C14.679,68.399,14.678,67.26,15.38,66.556z M29.351,75.598
  c0.154,0.404,0.219,0.807,0.188,1.209c-0.031,0.4-0.142,0.795-0.332,1.182c-0.193,0.389-0.451,0.755-0.775,1.107l0.789,0.789
  l-0.436,0.435l-0.788-0.789c-0.37,0.357-0.761,0.633-1.172,0.829c-0.413,0.194-0.825,0.302-1.239,0.317
  c-0.413,0.018-0.824-0.061-1.233-0.232c-0.408-0.17-0.796-0.448-1.167-0.833l1.151-1.152c0.44,0.452,0.888,0.704,1.345,0.758
  c0.458,0.054,0.929-0.145,1.406-0.596l-2.448-2.446c-0.352,0.201-0.713,0.385-1.09,0.555c-0.378,0.168-0.757,0.278-1.143,0.333
  c-0.385,0.055-0.77,0.024-1.152-0.09c-0.384-0.116-0.764-0.358-1.133-0.729c-0.323-0.323-0.546-0.671-0.667-1.042
  c-0.123-0.369-0.157-0.743-0.109-1.121c0.045-0.379,0.163-0.748,0.353-1.112c0.188-0.364,0.436-0.698,0.737-1.001l-0.789-0.788
  l0.436-0.434l0.789,0.786c0.303-0.303,0.629-0.548,0.981-0.737c0.348-0.188,0.704-0.301,1.065-0.339
  c0.359-0.037,0.724,0.011,1.091,0.143c0.368,0.132,0.717,0.362,1.048,0.692l-1.153,1.152c-0.358-0.33-0.709-0.505-1.057-0.521
  c-0.349-0.016-0.703,0.157-1.065,0.521l2.132,2.132c0.384-0.222,0.775-0.423,1.173-0.605c0.396-0.183,0.792-0.299,1.183-0.354
  s0.777-0.023,1.163,0.09c0.385,0.114,0.758,0.354,1.122,0.719C28.93,74.802,29.195,75.192,29.351,75.598z"/>
 <path fill="#BDA770" d="M21.193,75.011c0.161,0.162,0.333,0.266,0.515,0.314c0.182,0.046,0.365,0.059,0.551,0.034
  c0.187-0.023,0.372-0.079,0.56-0.166c0.191-0.088,0.373-0.187,0.547-0.293l-2.021-2.023c-0.364,0.364-0.57,0.722-0.616,1.073
  C20.682,74.3,20.834,74.653,21.193,75.011z"/>
</g>
<path fill="#BDA770" d="M26.375,75.473c-0.207,0.03-0.41,0.094-0.613,0.188c-0.202,0.095-0.4,0.198-0.595,0.313l2.355,2.355
 c0.337-0.391,0.526-0.795,0.575-1.214c0.047-0.417-0.131-0.827-0.537-1.232c-0.188-0.189-0.382-0.312-0.579-0.37
 C26.783,75.456,26.578,75.442,26.375,75.473z"/>
<g>
 <path fill="#FFFFFF" d="M36.54,23.85l-9.753-9.753l-1.496,0.01l10.496,10.497c0.501,0.5,0.779,1.168,0.779,1.879
  c0,0.71-0.276,1.378-0.779,1.881l-7.958,7.957c0.928-0.016,1.851-0.344,2.558-1.05l6.153-6.154
  C37.993,27.663,37.993,25.301,36.54,23.85z"/>
 <path fill="#FFFFFF" d="M35.035,25.354L23.801,14.119l-10.856,0.069v10.787l11.234,11.235c0.623,0.623,1.634,0.624,2.257,0l8.6-8.6
  C35.658,26.986,35.658,25.978,35.035,25.354z M15.38,16.556c0.703-0.702,1.844-0.702,2.547,0c0.702,0.705,0.704,1.845,0,2.547
  c-0.702,0.703-1.842,0.703-2.547-0.002C14.679,18.399,14.678,17.26,15.38,16.556z M29.351,25.598
  c0.154,0.404,0.219,0.807,0.188,1.209c-0.031,0.4-0.142,0.795-0.332,1.182c-0.193,0.389-0.451,0.755-0.775,1.107l0.789,0.789
  l-0.436,0.435l-0.788-0.789c-0.37,0.357-0.761,0.633-1.172,0.829c-0.413,0.194-0.825,0.302-1.239,0.317
  c-0.413,0.018-0.824-0.061-1.233-0.232c-0.408-0.17-0.796-0.448-1.167-0.833l1.151-1.152c0.44,0.452,0.888,0.704,1.345,0.758
  c0.458,0.054,0.929-0.145,1.406-0.596l-2.448-2.446c-0.352,0.201-0.713,0.385-1.09,0.555c-0.378,0.168-0.757,0.278-1.143,0.333
  c-0.385,0.055-0.77,0.024-1.152-0.09c-0.384-0.116-0.764-0.358-1.133-0.729c-0.323-0.323-0.546-0.671-0.667-1.042
  c-0.123-0.369-0.157-0.743-0.109-1.121c0.045-0.379,0.163-0.748,0.353-1.112c0.188-0.364,0.436-0.698,0.737-1.001l-0.789-0.788
  l0.436-0.434l0.789,0.786c0.303-0.303,0.629-0.548,0.981-0.737c0.348-0.188,0.704-0.301,1.065-0.339
  c0.359-0.037,0.724,0.011,1.091,0.143c0.368,0.132,0.717,0.362,1.048,0.692l-1.153,1.152c-0.358-0.33-0.709-0.505-1.057-0.521
  c-0.349-0.016-0.703,0.157-1.065,0.521l2.132,2.132c0.384-0.222,0.775-0.423,1.173-0.605c0.396-0.183,0.792-0.299,1.183-0.354
  s0.777-0.023,1.163,0.09c0.385,0.114,0.758,0.354,1.122,0.719C28.93,24.802,29.195,25.192,29.351,25.598z"/>
 <path fill="#FFFFFF" d="M21.193,25.011c0.161,0.162,0.333,0.266,0.515,0.314c0.182,0.046,0.365,0.059,0.551,0.034
  c0.187-0.023,0.372-0.079,0.56-0.166c0.191-0.088,0.373-0.187,0.547-0.293l-2.021-2.023c-0.364,0.364-0.57,0.722-0.616,1.073
  C20.682,24.3,20.834,24.653,21.193,25.011z"/>
</g>
<path fill="#FFFFFF" d="M26.375,25.473c-0.207,0.03-0.41,0.094-0.613,0.188c-0.202,0.095-0.4,0.198-0.595,0.313l2.355,2.355
 c0.337-0.391,0.526-0.795,0.575-1.214c0.047-0.417-0.131-0.827-0.537-1.232c-0.188-0.189-0.382-0.312-0.579-0.37
 C26.783,25.456,26.578,25.442,26.375,25.473z"/>
</svg>
