<?xml version="1.0" encoding="utf-8"?>
<!-- Generator: Adobe Illustrator 16.0.3, SVG Export Plug-In . SVG Version: 6.00 Build 0)  -->
<!DOCTYPE svg PUBLIC "-//W3C//DTD SVG 1.1//EN" "http://www.w3.org/Graphics/SVG/1.1/DTD/svg11.dtd">
<svg version="1.1" id="Layer_1" xmlns="http://www.w3.org/2000/svg" xmlns:xlink="http://www.w3.org/1999/xlink" x="0px" y="0px"
	 width="50px" height="50px" viewBox="0 0 50 50" enable-background="new 0 0 50 50" xml:space="preserve">
<g>
	<path fill="#BDA770" d="M43.113,29.811L27.768,14.465l-2.354,0.015L41.93,30.997c0.789,0.788,1.228,1.839,1.228,2.958
		s-0.437,2.169-1.228,2.96L29.407,49.438c1.459-0.023,2.909-0.543,4.024-1.653l9.682-9.685
		C45.398,35.814,45.398,32.095,43.113,29.811z"/>
	<path fill="#BDA770" d="M40.746,32.182l-17.67-17.681L6,14.607v16.979l17.669,17.68c0.981,0.979,2.567,0.98,3.548,0l13.53-13.533
		C41.729,34.75,41.727,33.159,40.746,32.182z M13.823,22.341c-1.104,1.107-2.898,1.106-4.007-0.001
		c-1.104-1.105-1.105-2.899,0-4.006c1.107-1.106,2.9-1.106,4.007,0.001C14.929,19.442,14.931,21.236,13.823,22.341z M31.596,39.309
		l-0.686,0.686l-1.241-1.241c-0.582,0.562-1.196,0.996-1.844,1.304c-0.648,0.307-1.298,0.477-1.951,0.5
		c-0.65,0.028-1.298-0.094-1.939-0.365c-0.642-0.269-1.252-0.707-1.836-1.312l1.812-1.813c0.691,0.711,1.396,1.108,2.114,1.193
		c0.725,0.082,1.461-0.229,2.213-0.939l-3.85-3.848c-0.554,0.315-1.123,0.605-1.718,0.872c-0.593,0.267-1.191,0.44-1.798,0.524
		c-0.604,0.085-1.209,0.037-1.812-0.143c-0.605-0.182-1.2-0.562-1.781-1.146c-0.511-0.509-0.86-1.056-1.052-1.64
		s-0.248-1.17-0.174-1.767c0.074-0.595,0.26-1.177,0.556-1.749c0.298-0.572,0.686-1.1,1.162-1.572l-1.242-1.242l0.686-0.685
		l1.24,1.24c0.479-0.478,0.991-0.862,1.545-1.161c0.548-0.295,1.106-0.474,1.676-0.532c0.565-0.06,1.141,0.015,1.717,0.223
		c0.58,0.205,1.13,0.572,1.65,1.09L23.228,27.6c-0.562-0.521-1.116-0.793-1.662-0.817c-0.548-0.027-1.108,0.245-1.678,0.817
		l3.355,3.355c0.605-0.352,1.221-0.667,1.848-0.953c0.621-0.287,1.244-0.471,1.857-0.557c0.616-0.086,1.228-0.037,1.833,0.143
		c0.602,0.182,1.191,0.559,1.765,1.13c0.595,0.595,1.013,1.209,1.256,1.847c0.242,0.636,0.345,1.271,0.296,1.901
		c-0.05,0.63-0.224,1.25-0.523,1.859c-0.305,0.61-0.709,1.188-1.219,1.743L31.596,39.309z"/>
	<path fill="#BDA770" d="M18.232,29.969c-0.074,0.553,0.167,1.108,0.731,1.67c0.254,0.256,0.524,0.42,0.81,0.494
		c0.287,0.073,0.576,0.094,0.869,0.057c0.291-0.037,0.584-0.125,0.881-0.263c0.297-0.139,0.584-0.292,0.859-0.462L19.2,28.282
		C18.629,28.854,18.305,29.417,18.232,29.969z"/>
	<path fill="#BDA770" d="M28.07,32.203c-0.312-0.09-0.633-0.11-0.955-0.062c-0.323,0.047-0.643,0.146-0.961,0.295
		c-0.318,0.147-0.631,0.312-0.938,0.492l3.706,3.705c0.529-0.615,0.831-1.248,0.906-1.91c0.072-0.654-0.206-1.301-0.844-1.938
		C28.688,32.488,28.384,32.295,28.07,32.203z"/>
</g>
</svg>
