<?xml version="1.0" encoding="utf-8"?>
<!-- Generator: Adobe Illustrator 16.0.3, SVG Export Plug-In . SVG Version: 6.00 Build 0)  -->
<!DOCTYPE svg PUBLIC "-//W3C//DTD SVG 1.1//EN" "http://www.w3.org/Graphics/SVG/1.1/DTD/svg11.dtd">
<svg version="1.1" id="Layer_1" xmlns="http://www.w3.org/2000/svg" xmlns:xlink="http://www.w3.org/1999/xlink" x="0px" y="0px"
	 width="50px" height="50px" viewBox="0 0 50 50" enable-background="new 0 0 50 50" xml:space="preserve">
<g>
	<path fill-rule="evenodd" clip-rule="evenodd" fill="#BDA770" d="M48.984,40.513c-0.047-0.115-0.153-0.265-0.261-0.291
		c-1.163-0.293-2.358-0.621-3.516-0.098c-1.589,0.718-3.455-0.384-5.12-0.461c-0.403-0.021-0.576-0.423-0.301-0.707
		c1.069-1.097,1.252-2.945,2.746-3.42c1.348-0.429,2.131-1.398,2.888-2.455c0.073-0.104,0.146-0.274,0.111-0.376
		c-0.233-0.668-0.465-2.17-0.77-2.963c-0.185,0.381-0.29,0.607-0.405,0.83c-0.46,0.879-0.944,1.807-1.927,2.132
		c-1.226,0.405-1.104,1.966-1.825,2.934c-0.184,0.246-0.359,0.497-0.537,0.747c-0.003-0.001-0.006,0.011-0.007,0.019
		c-0.005,0.06-0.011,0.119-0.015,0.179c-0.009,0.14-0.034,0.279-0.061,0.418c-0.013,0.113-0.025,0.198-0.035,0.195
		c0.01-0.065,0.023-0.131,0.035-0.195c0.025-0.216,0.055-0.532,0.075-0.597c0.076-1.109,0.228-2.226,0.158-3.327
		c-0.124-1.921-2.099-3.804-4.451-2.943c-0.476,0.176-0.952,0.357-1.423,0.55c-1.304,0.523-1.91,1.586-2.012,2.685L19.812,21.073
		l0.011,0.116c2.163,2.431,3.907,7.432,4.384,13.314c0.436,5.345-0.28,10.139-1.721,13.033l14.553-1.465
		c0.018,0.194,0.037,0.388,0.068,0.584c0.33,2.04,2.156,3.364,4.027,2.895c0.66-0.166,1.309-0.417,1.926-0.71
		c1.812-0.86,2.459-2.819,1.551-4.604c-0.621-1.221-1.415-1.057-2.47-1.886c-0.172-0.136-0.345-0.271-0.519-0.409
		c0.538-0.006,1.228,0.418,1.707,0.441c0.756,0.037,1.603,0.204,2.254-0.064c1.335-0.551,2.526-0.3,3.754,0.196
		c0.162,0.064,0.33,0.118,0.62,0.223C49.67,41.986,49.228,41.109,48.984,40.513z M34.394,34.569
		c-0.721-0.938-0.583-1.949-0.052-2.927c0.44-0.804,1.174-1.096,2.04-0.809c0.808,0.266,1.464,0.735,1.873,1.68
		c0.073,0.508,0.212,1.141,0.249,1.782c0.077,1.307,0.111,2.617,0.125,3.927c0.002,0.169-0.176,0.43-0.332,0.487
		c-0.141,0.055-0.379,0.053-0.529-0.008L37.5,38.441C36.444,37.167,35.401,35.882,34.394,34.569z M42.909,44.972
		c0.743,0.973,0.62,2.025,0.035,3.032c-0.44,0.757-1.13,1.021-1.963,0.763c-0.833-0.258-1.51-0.729-1.889-1.633
		c-0.065-0.325-0.188-0.705-0.209-1.092c-0.089-1.563-0.16-3.127-0.196-4.692c-0.003-0.173,0.218-0.427,0.395-0.507
		c0.155-0.069,0.481-0.011,0.585,0.112C40.768,42.278,41.865,43.605,42.909,44.972z"/>
	<path fill-rule="evenodd" clip-rule="evenodd" fill="#BDA770" d="M10.047,27.672c0.127,0.072,0.259,0.1,0.403,0.097
		c0.364-0.009,0.726-0.056,1.084-0.117c0.601-0.104,1.198-0.22,1.8-0.329c0.113-0.021,0.226-0.047,0.354-0.072
		c-0.023-0.051-0.036-0.1-0.065-0.133c-0.073-0.092-0.147-0.182-0.232-0.26c-0.247-0.229-0.526-0.412-0.81-0.591
		c-0.12-0.076-0.245-0.149-0.367-0.224c0.022-0.002,0.04,0.004,0.06,0.01c0.373,0.139,0.75,0.266,1.14,0.354
		c0.173,0.04,0.348,0.072,0.524,0.061c0.052-0.004,0.1-0.02,0.155-0.033c-0.013-0.025-0.02-0.039-0.027-0.055
		c-0.275-0.511-0.548-1.025-0.83-1.535c-0.222-0.399-0.458-0.792-0.721-1.166c-0.139-0.198-0.311-0.331-0.541-0.403
		c-0.284-0.091-0.568-0.158-0.868-0.122c-0.248,0.03-0.457,0.133-0.613,0.333c-0.146,0.189-0.206,0.41-0.233,0.642
		c-0.039,0.321-0.006,0.641,0.051,0.957c0.009,0.045-0.005,0.063-0.042,0.084c-0.112,0.066-0.227,0.134-0.335,0.208
		c-0.238,0.16-0.455,0.341-0.618,0.58c-0.126,0.188-0.202,0.39-0.185,0.621c0.02,0.233,0.128,0.429,0.277,0.603
		C9.587,27.387,9.81,27.539,10.047,27.672z"/>
	<path fill-rule="evenodd" clip-rule="evenodd" fill="#BDA770" d="M13.408,28.607c0.109-0.123,0.205-0.257,0.299-0.392
		c0.033-0.048,0.044-0.112,0.07-0.18c-0.031-0.001-0.044-0.004-0.057-0.005c-0.833-0.035-1.668-0.066-2.504-0.041
		c-0.255,0.007-0.508,0.035-0.762,0.057c-0.133,0.012-0.251,0.059-0.353,0.148c-0.067,0.059-0.14,0.109-0.204,0.17
		c-0.203,0.188-0.377,0.397-0.476,0.66c-0.119,0.322-0.077,0.623,0.14,0.891c0.089,0.109,0.197,0.209,0.312,0.295
		c0.249,0.192,0.535,0.317,0.829,0.424c0.046,0.016,0.066,0.035,0.063,0.087c-0.005,0.101-0.001,0.204,0.005,0.306
		c0.016,0.301,0.059,0.594,0.183,0.87c0.189,0.435,0.53,0.634,0.999,0.587c0.306-0.029,0.574-0.158,0.839-0.305
		c0.148-0.086,0.259-0.201,0.331-0.354c0.082-0.172,0.169-0.339,0.242-0.512c0.342-0.812,0.621-1.647,0.897-2.481
		c0.004-0.012,0.004-0.021,0.009-0.044c-0.06-0.002-0.115-0.009-0.167-0.004c-0.173,0.014-0.332,0.069-0.491,0.131
		c-0.375,0.144-0.727,0.332-1.076,0.531c-0.015,0.006-0.029,0.014-0.043,0.021c0.009-0.02,0.021-0.032,0.036-0.043
		C12.837,29.169,13.141,28.908,13.408,28.607z"/>
	<path fill-rule="evenodd" clip-rule="evenodd" fill="#BDA770" d="M13.061,23.99c0.517,0.674,1.078,1.312,1.643,1.946
		c0.006,0.007,0.014,0.015,0.029,0.027c0.024-0.036,0.053-0.064,0.069-0.099c0.031-0.065,0.059-0.13,0.079-0.197
		c0.076-0.251,0.107-0.509,0.124-0.768c0.018-0.277,0.024-0.552,0.037-0.829c0.006,0.027,0.012,0.053,0.018,0.081
		c0.066,0.39,0.14,0.778,0.263,1.154c0.052,0.158,0.123,0.308,0.192,0.458c0.025,0.053,0.077,0.095,0.12,0.148
		c0.016-0.022,0.02-0.027,0.024-0.032c0.437-0.688,0.87-1.378,1.257-2.094c0.139-0.256,0.258-0.523,0.381-0.786
		c0.051-0.112,0.061-0.23,0.038-0.352c-0.019-0.096-0.031-0.193-0.053-0.286c-0.059-0.258-0.151-0.5-0.32-0.708
		c-0.208-0.256-0.476-0.373-0.806-0.341c-0.197,0.021-0.381,0.088-0.558,0.176c-0.251,0.127-0.479,0.293-0.692,0.475
		c-0.028,0.024-0.047,0.025-0.076,0.005c-0.056-0.034-0.113-0.067-0.17-0.098c-0.297-0.159-0.604-0.292-0.94-0.334
		c-0.252-0.03-0.492,0.003-0.702,0.156c-0.186,0.134-0.295,0.32-0.367,0.531c-0.087,0.25-0.106,0.51-0.107,0.773
		c-0.002,0.169,0.044,0.317,0.137,0.454C12.805,23.632,12.928,23.816,13.061,23.99z"/>
	<path fill-rule="evenodd" clip-rule="evenodd" fill="#BDA770" d="M16.371,26.197c-0.002,0.008-0.002,0.015-0.006,0.031
		c0.047,0.005,0.09,0.02,0.13,0.01c0.137-0.024,0.277-0.047,0.409-0.09c0.419-0.14,0.805-0.352,1.189-0.569
		c0.016-0.008,0.031-0.016,0.047-0.024c-0.01,0.021-0.023,0.034-0.039,0.047c-0.304,0.253-0.601,0.513-0.869,0.804
		c-0.118,0.128-0.232,0.26-0.312,0.416c-0.024,0.048-0.037,0.104-0.06,0.166c0.11,0.006,0.199,0.011,0.291,0.014
		c0.589,0.012,1.178,0.033,1.766,0.035c0.379,0.002,0.758-0.025,1.138-0.043c0.22-0.012,0.415-0.086,0.575-0.244
		c0.012-0.011,0.026-0.021,0.04-0.031c0.225-0.195,0.419-0.414,0.533-0.695c0.078-0.194,0.101-0.393,0.041-0.595
		c-0.063-0.218-0.2-0.388-0.371-0.534c-0.266-0.224-0.576-0.37-0.899-0.493c-0.104-0.039-0.102-0.038-0.102-0.15
		c0-0.325-0.025-0.647-0.126-0.96c-0.071-0.223-0.178-0.425-0.366-0.575c-0.233-0.186-0.504-0.216-0.788-0.167
		c-0.292,0.05-0.553,0.175-0.802,0.33c-0.099,0.061-0.181,0.136-0.232,0.238c-0.099,0.199-0.203,0.396-0.289,0.599
		C16.928,24.527,16.647,25.362,16.371,26.197z"/>
	<path fill-rule="evenodd" clip-rule="evenodd" fill="#BDA770" d="M20.555,27.332c-0.102-0.056-0.209-0.078-0.322-0.078
		c-0.078,0.002-0.154,0.003-0.229,0.008c-0.433,0.029-0.86,0.098-1.288,0.172c-0.448,0.078-0.896,0.167-1.342,0.252
		c-0.137,0.026-0.271,0.057-0.428,0.088c0.033,0.062,0.052,0.119,0.09,0.16c0.106,0.118,0.215,0.236,0.336,0.339
		c0.312,0.261,0.658,0.474,1.008,0.679c0.016,0.01,0.029,0.019,0.051,0.029c-0.012,0.003-0.016,0.005-0.019,0.005
		c-0.028-0.011-0.056-0.02-0.083-0.029c-0.355-0.13-0.711-0.256-1.082-0.334c-0.162-0.035-0.328-0.05-0.492-0.069
		c-0.071-0.006-0.139,0.006-0.204,0.043c0.007,0.02,0.014,0.029,0.019,0.039c0.323,0.596,0.645,1.193,0.974,1.783
		c0.189,0.342,0.396,0.672,0.628,0.986c0.113,0.153,0.253,0.264,0.436,0.319c0.023,0.009,0.045,0.017,0.067,0.024
		c0.28,0.097,0.563,0.16,0.862,0.12c0.328-0.042,0.574-0.205,0.718-0.508c0.113-0.235,0.15-0.491,0.14-0.749
		c-0.01-0.227-0.039-0.451-0.065-0.676c-0.005-0.043,0.005-0.062,0.04-0.082c0.068-0.034,0.133-0.074,0.198-0.113
		c0.256-0.162,0.497-0.342,0.688-0.582c0.146-0.182,0.25-0.383,0.255-0.622c0.007-0.257-0.096-0.472-0.254-0.664
		C21.062,27.639,20.817,27.473,20.555,27.332z"/>
	<path fill-rule="evenodd" clip-rule="evenodd" fill="#BDA770" d="M13.362,31.957c-0.059,0.145-0.092,0.291-0.056,0.447
		c0.012,0.047,0.015,0.095,0.023,0.144c0.053,0.273,0.139,0.536,0.303,0.767c0.178,0.246,0.413,0.392,0.723,0.4
		c0.176,0.003,0.344-0.039,0.505-0.103c0.317-0.126,0.591-0.319,0.849-0.536c0.046-0.039,0.073-0.038,0.123-0.009
		c0.307,0.183,0.626,0.336,0.98,0.401c0.207,0.041,0.411,0.043,0.609-0.034c0.285-0.104,0.449-0.325,0.553-0.599
		c0.108-0.285,0.127-0.583,0.118-0.887c-0.005-0.107-0.03-0.205-0.089-0.294c-0.113-0.177-0.226-0.354-0.351-0.522
		c-0.448-0.601-0.942-1.166-1.437-1.729c-0.1-0.115-0.201-0.228-0.308-0.349c-0.028,0.042-0.062,0.071-0.077,0.11
		c-0.041,0.102-0.083,0.205-0.108,0.312c-0.087,0.378-0.106,0.764-0.117,1.15c-0.003,0.106-0.003,0.215-0.006,0.321
		c-0.01-0.011-0.012-0.021-0.015-0.033c-0.069-0.408-0.145-0.817-0.275-1.21c-0.051-0.156-0.122-0.305-0.191-0.453
		c-0.025-0.052-0.074-0.092-0.116-0.143c-0.018,0.023-0.026,0.033-0.032,0.045c-0.373,0.614-0.752,1.226-1.119,1.844
		C13.667,31.308,13.5,31.625,13.362,31.957z"/>
	<path fill-rule="evenodd" clip-rule="evenodd" fill="#BDA770" d="M16.119,27.467c-0.031-0.497-0.463-0.874-0.961-0.842
		c-0.495,0.031-0.872,0.464-0.839,0.963c0.032,0.491,0.464,0.871,0.953,0.838C15.773,28.395,16.152,27.967,16.119,27.467z"/>
	<path fill-rule="evenodd" clip-rule="evenodd" fill="#BDA770" d="M0.896,33.848c0.098,0.055,0.201,0.076,0.312,0.074
		c0.285-0.006,0.564-0.043,0.844-0.091c0.468-0.081,0.934-0.171,1.401-0.257c0.088-0.016,0.175-0.036,0.275-0.057
		c-0.018-0.039-0.028-0.076-0.051-0.104c-0.058-0.07-0.115-0.14-0.181-0.201c-0.193-0.178-0.41-0.32-0.631-0.46
		c-0.094-0.06-0.191-0.115-0.285-0.173c0.016-0.002,0.032,0.002,0.045,0.007c0.291,0.108,0.584,0.207,0.889,0.274
		c0.135,0.031,0.27,0.057,0.407,0.049c0.039-0.004,0.077-0.016,0.12-0.026c-0.01-0.021-0.014-0.031-0.021-0.042
		c-0.214-0.398-0.426-0.799-0.646-1.195c-0.173-0.311-0.356-0.615-0.562-0.908c-0.106-0.154-0.242-0.257-0.421-0.313
		c-0.221-0.071-0.442-0.124-0.676-0.095c-0.192,0.023-0.355,0.104-0.477,0.26c-0.113,0.146-0.161,0.318-0.182,0.498
		c-0.03,0.25-0.006,0.499,0.039,0.745c0.006,0.035-0.004,0.05-0.031,0.066c-0.09,0.051-0.178,0.104-0.263,0.161
		c-0.184,0.125-0.354,0.266-0.48,0.451c-0.099,0.146-0.158,0.303-0.144,0.483c0.014,0.182,0.1,0.333,0.216,0.468
		C0.538,33.625,0.711,33.742,0.896,33.848z"/>
	<path fill-rule="evenodd" clip-rule="evenodd" fill="#BDA770" d="M4.178,34.75c0.003-0.009,0.003-0.015,0.008-0.032
		c-0.048-0.003-0.091-0.009-0.133-0.005c-0.133,0.011-0.258,0.056-0.381,0.102c-0.292,0.112-0.566,0.26-0.837,0.415
		c-0.013,0.004-0.024,0.01-0.034,0.016c0.006-0.015,0.017-0.024,0.027-0.034c0.238-0.199,0.477-0.402,0.684-0.637
		c0.086-0.094,0.16-0.199,0.232-0.305c0.025-0.037,0.035-0.087,0.056-0.14c-0.024-0.001-0.034-0.003-0.044-0.003
		c-0.648-0.028-1.3-0.052-1.949-0.032c-0.198,0.006-0.396,0.027-0.594,0.044c-0.103,0.01-0.195,0.046-0.273,0.117
		c-0.053,0.044-0.107,0.084-0.16,0.131c-0.157,0.146-0.294,0.31-0.369,0.514c-0.094,0.25-0.061,0.484,0.108,0.692
		c0.069,0.086,0.154,0.163,0.242,0.23c0.194,0.149,0.417,0.247,0.646,0.33c0.035,0.012,0.051,0.026,0.048,0.067
		c-0.003,0.079,0,0.159,0.005,0.237c0.013,0.234,0.046,0.463,0.142,0.677c0.147,0.339,0.413,0.494,0.779,0.458
		c0.236-0.023,0.445-0.123,0.65-0.237c0.117-0.066,0.202-0.156,0.259-0.275c0.063-0.133,0.131-0.264,0.187-0.397
		C3.744,36.049,3.962,35.399,4.178,34.75z"/>
	<path fill-rule="evenodd" clip-rule="evenodd" fill="#BDA770" d="M3.242,30.981c0.4,0.524,0.838,1.021,1.277,1.515
		c0.006,0.006,0.011,0.01,0.022,0.021c0.02-0.026,0.042-0.05,0.056-0.076c0.022-0.05,0.044-0.103,0.061-0.153
		c0.06-0.195,0.083-0.396,0.096-0.598c0.015-0.215,0.02-0.429,0.03-0.646c0.004,0.021,0.009,0.042,0.013,0.062
		c0.052,0.304,0.108,0.606,0.205,0.898c0.039,0.124,0.095,0.239,0.149,0.356c0.021,0.043,0.06,0.074,0.093,0.115
		c0.013-0.018,0.017-0.021,0.02-0.024c0.339-0.536,0.678-1.072,0.979-1.63c0.106-0.199,0.198-0.406,0.294-0.611
		c0.041-0.087,0.049-0.18,0.03-0.273c-0.014-0.074-0.023-0.15-0.04-0.223c-0.046-0.201-0.118-0.391-0.25-0.552
		c-0.161-0.2-0.37-0.29-0.626-0.265c-0.154,0.016-0.296,0.068-0.435,0.136c-0.195,0.1-0.372,0.228-0.539,0.37
		c-0.021,0.018-0.036,0.02-0.06,0.004c-0.042-0.027-0.088-0.053-0.133-0.076c-0.23-0.123-0.468-0.228-0.731-0.26
		c-0.195-0.023-0.382,0.002-0.546,0.121c-0.146,0.105-0.23,0.248-0.286,0.412c-0.068,0.195-0.082,0.397-0.083,0.602
		c-0.002,0.133,0.034,0.248,0.106,0.354C3.042,30.703,3.138,30.846,3.242,30.981z"/>
	<path fill-rule="evenodd" clip-rule="evenodd" fill="#BDA770" d="M5.818,32.699c-0.002,0.006-0.002,0.012-0.005,0.024
		c0.035,0.004,0.07,0.015,0.102,0.009c0.106-0.021,0.216-0.038,0.317-0.072c0.326-0.108,0.628-0.272,0.926-0.442
		c0.012-0.006,0.024-0.013,0.037-0.019c-0.007,0.017-0.019,0.027-0.03,0.037c-0.237,0.196-0.468,0.4-0.676,0.626
		c-0.092,0.099-0.181,0.201-0.243,0.323c-0.02,0.037-0.029,0.081-0.047,0.129c0.087,0.004,0.156,0.009,0.226,0.011
		c0.46,0.011,0.918,0.026,1.375,0.027c0.296,0.001,0.591-0.019,0.886-0.034c0.172-0.008,0.323-0.065,0.448-0.188
		c0.009-0.009,0.02-0.017,0.03-0.025c0.175-0.151,0.326-0.323,0.416-0.54c0.061-0.152,0.078-0.307,0.031-0.463
		c-0.049-0.17-0.155-0.303-0.289-0.416c-0.207-0.176-0.447-0.288-0.698-0.383c-0.082-0.033-0.08-0.031-0.08-0.117
		c0-0.254-0.021-0.506-0.099-0.748c-0.055-0.174-0.138-0.332-0.284-0.447c-0.183-0.145-0.393-0.169-0.614-0.131
		c-0.227,0.039-0.43,0.137-0.624,0.257c-0.077,0.047-0.142,0.106-0.181,0.187c-0.076,0.154-0.158,0.307-0.225,0.465
		C6.25,31.4,6.033,32.049,5.818,32.699z"/>
	<path fill-rule="evenodd" clip-rule="evenodd" fill="#BDA770" d="M8.84,36.718c0.087-0.185,0.117-0.381,0.107-0.582
		c-0.007-0.177-0.03-0.351-0.05-0.526c-0.004-0.033,0.003-0.05,0.03-0.064c0.053-0.027,0.104-0.058,0.154-0.089
		c0.2-0.126,0.387-0.266,0.537-0.451c0.112-0.143,0.194-0.298,0.197-0.485c0.006-0.2-0.074-0.367-0.197-0.517
		c-0.15-0.181-0.34-0.311-0.545-0.421c-0.078-0.043-0.163-0.061-0.252-0.061c-0.06,0.002-0.119,0.003-0.177,0.006
		c-0.337,0.023-0.671,0.076-1.003,0.134c-0.35,0.062-0.697,0.131-1.045,0.196c-0.106,0.021-0.212,0.045-0.332,0.068
		c0.025,0.049,0.039,0.094,0.069,0.125c0.083,0.091,0.168,0.185,0.261,0.264c0.243,0.203,0.514,0.368,0.785,0.527
		c0.013,0.008,0.023,0.016,0.039,0.024c-0.009,0.001-0.012,0.003-0.014,0.003c-0.021-0.008-0.043-0.015-0.064-0.022
		c-0.276-0.102-0.554-0.199-0.842-0.26c-0.127-0.027-0.257-0.039-0.384-0.054c-0.055-0.006-0.108,0.005-0.159,0.032
		c0.005,0.016,0.01,0.024,0.014,0.03c0.252,0.464,0.502,0.93,0.758,1.389c0.149,0.266,0.309,0.522,0.489,0.768
		c0.088,0.119,0.197,0.205,0.339,0.249c0.019,0.006,0.035,0.013,0.055,0.019c0.217,0.075,0.438,0.124,0.669,0.094
		C8.537,37.08,8.728,36.953,8.84,36.718z"/>
	<path fill-rule="evenodd" clip-rule="evenodd" fill="#BDA770" d="M6.815,36.541c-0.349-0.469-0.733-0.908-1.118-1.346
		c-0.076-0.09-0.155-0.177-0.238-0.271c-0.023,0.032-0.049,0.056-0.061,0.085c-0.031,0.08-0.064,0.16-0.084,0.244
		c-0.068,0.295-0.084,0.595-0.092,0.896c-0.002,0.083-0.002,0.167-0.005,0.25c-0.007-0.009-0.009-0.017-0.011-0.026
		c-0.054-0.317-0.112-0.635-0.214-0.941c-0.039-0.121-0.097-0.237-0.149-0.353c-0.021-0.04-0.059-0.072-0.09-0.111
		c-0.014,0.019-0.021,0.027-0.026,0.036c-0.29,0.478-0.584,0.953-0.87,1.434c-0.145,0.24-0.273,0.487-0.381,0.745
		c-0.046,0.113-0.07,0.228-0.044,0.349c0.01,0.036,0.013,0.073,0.019,0.111c0.041,0.214,0.107,0.418,0.236,0.596
		c0.139,0.193,0.321,0.307,0.562,0.312c0.137,0.003,0.268-0.029,0.394-0.078c0.246-0.099,0.459-0.249,0.66-0.419
		c0.035-0.03,0.058-0.029,0.096-0.006c0.239,0.142,0.487,0.262,0.764,0.312c0.159,0.031,0.319,0.032,0.475-0.027
		c0.222-0.082,0.35-0.252,0.43-0.466c0.084-0.223,0.099-0.454,0.092-0.689c-0.004-0.085-0.024-0.161-0.068-0.23
		C7.001,36.811,6.914,36.672,6.815,36.541z"/>
	<path fill-rule="evenodd" clip-rule="evenodd" fill="#BDA770" d="M4.221,33.781c0.025,0.383,0.361,0.679,0.742,0.652
		c0.391-0.023,0.686-0.357,0.66-0.746c-0.025-0.387-0.361-0.68-0.75-0.655C4.488,33.057,4.195,33.393,4.221,33.781z"/>
	<path fill-rule="evenodd" clip-rule="evenodd" fill="#BDA770" d="M9.646,41.975c0.148,0.085,0.3,0.115,0.467,0.111
		c0.424-0.009,0.841-0.064,1.256-0.136c0.695-0.12,1.389-0.253,2.082-0.38c0.134-0.024,0.264-0.055,0.41-0.085
		c-0.026-0.058-0.041-0.114-0.076-0.154c-0.084-0.104-0.17-0.207-0.268-0.299c-0.285-0.264-0.608-0.478-0.937-0.684
		c-0.141-0.089-0.283-0.173-0.427-0.26c0.025-0.002,0.049,0.004,0.069,0.013c0.433,0.159,0.868,0.308,1.319,0.409
		c0.202,0.045,0.402,0.082,0.609,0.068c0.057-0.004,0.114-0.023,0.178-0.037c-0.016-0.031-0.022-0.047-0.03-0.062
		c-0.32-0.593-0.636-1.188-0.962-1.777c-0.258-0.465-0.53-0.917-0.834-1.351c-0.16-0.229-0.362-0.383-0.628-0.468
		c-0.329-0.104-0.657-0.183-1.005-0.141c-0.285,0.037-0.529,0.154-0.709,0.386c-0.168,0.219-0.24,0.474-0.271,0.742
		c-0.044,0.373-0.007,0.743,0.06,1.107c0.01,0.053-0.008,0.075-0.049,0.1c-0.131,0.076-0.264,0.153-0.389,0.239
		c-0.274,0.185-0.525,0.396-0.715,0.673c-0.148,0.216-0.234,0.449-0.213,0.717c0.021,0.272,0.146,0.496,0.321,0.699
		C9.114,41.646,9.373,41.819,9.646,41.975z"/>
	<path fill-rule="evenodd" clip-rule="evenodd" fill="#BDA770" d="M14.528,43.317c0.005-0.012,0.006-0.022,0.009-0.049
		c-0.068-0.003-0.133-0.011-0.193-0.005c-0.198,0.017-0.384,0.082-0.567,0.151c-0.435,0.166-0.843,0.385-1.246,0.613
		c-0.017,0.01-0.034,0.017-0.051,0.026c0.011-0.021,0.026-0.037,0.043-0.052c0.356-0.297,0.708-0.598,1.018-0.944
		c0.127-0.142,0.235-0.298,0.344-0.453c0.039-0.058,0.054-0.132,0.083-0.209c-0.038-0.002-0.052-0.005-0.066-0.005
		c-0.965-0.041-1.931-0.078-2.899-0.049c-0.294,0.01-0.587,0.04-0.881,0.065c-0.153,0.015-0.292,0.069-0.409,0.172
		c-0.078,0.067-0.16,0.128-0.234,0.198c-0.237,0.217-0.438,0.46-0.551,0.764c-0.14,0.373-0.091,0.722,0.161,1.03
		c0.104,0.127,0.229,0.242,0.359,0.343c0.288,0.222,0.621,0.366,0.961,0.489c0.054,0.019,0.075,0.041,0.073,0.1
		c-0.006,0.119-0.002,0.237,0.006,0.356c0.018,0.346,0.068,0.687,0.21,1.008c0.221,0.5,0.615,0.734,1.158,0.68
		c0.354-0.036,0.664-0.184,0.97-0.355c0.174-0.099,0.3-0.232,0.385-0.408c0.095-0.197,0.194-0.392,0.278-0.594
		C13.884,45.251,14.209,44.285,14.528,43.317z"/>
	<path fill-rule="evenodd" clip-rule="evenodd" fill="#BDA770" d="M18.04,36.566c0.061-0.13,0.071-0.267,0.046-0.405
		c-0.022-0.111-0.037-0.223-0.062-0.333c-0.069-0.299-0.177-0.58-0.371-0.82c-0.241-0.297-0.552-0.432-0.933-0.394
		c-0.229,0.021-0.441,0.101-0.645,0.203c-0.294,0.146-0.556,0.339-0.804,0.548c-0.032,0.028-0.054,0.029-0.088,0.008
		c-0.063-0.041-0.131-0.077-0.197-0.114c-0.343-0.184-0.696-0.339-1.088-0.387c-0.292-0.034-0.569,0.003-0.815,0.182
		c-0.212,0.154-0.34,0.37-0.424,0.613c-0.101,0.29-0.122,0.59-0.123,0.895c-0.002,0.197,0.051,0.369,0.158,0.526
		c0.145,0.209,0.284,0.424,0.44,0.625c0.598,0.78,1.247,1.518,1.901,2.253c0.008,0.01,0.018,0.016,0.033,0.031
		c0.029-0.042,0.062-0.076,0.082-0.115c0.035-0.075,0.068-0.149,0.092-0.229c0.087-0.289,0.125-0.589,0.143-0.889
		c0.021-0.318,0.03-0.637,0.043-0.958c0.008,0.031,0.014,0.062,0.02,0.092c0.077,0.451,0.163,0.902,0.307,1.336
		c0.059,0.183,0.141,0.357,0.223,0.531c0.03,0.062,0.088,0.11,0.138,0.173c0.019-0.025,0.024-0.032,0.028-0.039
		c0.506-0.797,1.008-1.593,1.456-2.424C17.76,37.18,17.896,36.871,18.04,36.566z"/>
	<path fill-rule="evenodd" clip-rule="evenodd" fill="#BDA770" d="M17.966,40.51c-0.136,0.148-0.269,0.298-0.36,0.48
		c-0.028,0.057-0.043,0.121-0.068,0.192c0.128,0.007,0.232,0.013,0.336,0.017c0.682,0.016,1.363,0.039,2.044,0.042
		c0.439,0,0.878-0.03,1.318-0.051c0.254-0.013,0.481-0.098,0.664-0.282c0.015-0.013,0.032-0.025,0.046-0.038
		c0.261-0.226,0.486-0.479,0.618-0.804c0.092-0.224,0.117-0.454,0.05-0.688c-0.074-0.255-0.234-0.45-0.431-0.618
		c-0.309-0.261-0.667-0.43-1.04-0.57c-0.123-0.046-0.121-0.045-0.121-0.174c0.001-0.378-0.026-0.751-0.143-1.112
		c-0.084-0.257-0.207-0.493-0.426-0.665c-0.27-0.214-0.582-0.249-0.911-0.192c-0.337,0.057-0.641,0.201-0.93,0.381
		c-0.114,0.07-0.208,0.156-0.269,0.276c-0.114,0.229-0.234,0.457-0.334,0.692c-0.396,0.939-0.722,1.906-1.041,2.873
		c-0.002,0.008-0.002,0.015-0.006,0.035c0.052,0.005,0.102,0.021,0.148,0.014c0.16-0.03,0.322-0.055,0.475-0.105
		c0.485-0.163,0.932-0.407,1.377-0.658c0.018-0.012,0.037-0.021,0.056-0.03c-0.011,0.024-0.028,0.04-0.047,0.056
		C18.621,39.872,18.275,40.173,17.966,40.51z"/>
	<path fill-rule="evenodd" clip-rule="evenodd" fill="#BDA770" d="M21.596,44.501c0.078-0.041,0.154-0.087,0.229-0.133
		c0.295-0.187,0.575-0.396,0.796-0.672c0.171-0.21,0.287-0.444,0.295-0.722c0.01-0.297-0.109-0.546-0.295-0.768
		c-0.222-0.269-0.504-0.461-0.809-0.626c-0.118-0.064-0.242-0.091-0.376-0.089c-0.088,0.001-0.176,0.003-0.263,0.009
		c-0.502,0.032-0.997,0.111-1.491,0.198c-0.519,0.093-1.036,0.192-1.556,0.292c-0.156,0.03-0.312,0.064-0.493,0.103
		c0.038,0.07,0.061,0.138,0.104,0.186c0.123,0.135,0.25,0.272,0.389,0.39c0.359,0.304,0.763,0.549,1.167,0.786
		c0.017,0.012,0.034,0.023,0.059,0.035c-0.015,0.003-0.018,0.007-0.021,0.005c-0.032-0.011-0.063-0.022-0.098-0.033
		c-0.409-0.15-0.823-0.296-1.25-0.386c-0.188-0.04-0.38-0.059-0.572-0.08c-0.081-0.01-0.161,0.007-0.235,0.049
		c0.01,0.021,0.016,0.033,0.021,0.045c0.375,0.689,0.745,1.38,1.127,2.065c0.22,0.395,0.458,0.776,0.727,1.141
		c0.133,0.179,0.293,0.306,0.504,0.369c0.028,0.009,0.053,0.021,0.08,0.029c0.322,0.113,0.651,0.184,0.996,0.139
		c0.381-0.049,0.664-0.238,0.832-0.587c0.132-0.274,0.174-0.569,0.162-0.867c-0.012-0.262-0.047-0.523-0.077-0.784
		C21.543,44.548,21.554,44.522,21.596,44.501z"/>
	<path fill-rule="evenodd" clip-rule="evenodd" fill="#BDA770" d="M18.454,45.982c-0.521-0.696-1.092-1.353-1.665-2.004
		c-0.115-0.13-0.23-0.261-0.355-0.4c-0.034,0.045-0.071,0.081-0.089,0.125c-0.047,0.118-0.097,0.239-0.124,0.362
		c-0.104,0.438-0.125,0.885-0.137,1.333c-0.004,0.123-0.005,0.246-0.008,0.371c-0.01-0.012-0.013-0.025-0.015-0.038
		c-0.082-0.473-0.168-0.945-0.32-1.4c-0.06-0.181-0.142-0.353-0.223-0.523c-0.028-0.062-0.085-0.108-0.132-0.166
		c-0.021,0.026-0.031,0.039-0.04,0.052c-0.432,0.712-0.87,1.42-1.296,2.135c-0.213,0.355-0.404,0.725-0.563,1.108
		c-0.069,0.167-0.108,0.336-0.065,0.516c0.014,0.056,0.017,0.11,0.026,0.167c0.061,0.317,0.16,0.621,0.351,0.887
		c0.206,0.286,0.479,0.455,0.837,0.464c0.205,0.007,0.397-0.043,0.584-0.117c0.366-0.146,0.686-0.37,0.982-0.622
		c0.055-0.045,0.087-0.043,0.144-0.01c0.355,0.212,0.725,0.389,1.135,0.466c0.238,0.046,0.475,0.048,0.704-0.04
		c0.33-0.125,0.521-0.376,0.64-0.694c0.125-0.329,0.146-0.675,0.138-1.025c-0.004-0.124-0.036-0.238-0.103-0.34
		C18.728,46.382,18.599,46.178,18.454,45.982z"/>
	<path fill-rule="evenodd" clip-rule="evenodd" fill="#BDA770" d="M14.594,41.878c0.037,0.567,0.537,1.009,1.104,0.972
		c0.581-0.038,1.018-0.533,0.98-1.112c-0.037-0.575-0.536-1.011-1.112-0.974C14.991,40.801,14.556,41.301,14.594,41.878z"/>
</g>
</svg>
