<?xml version="1.0" encoding="utf-8"?>
<!-- Generator: Adobe Illustrator 16.0.4, SVG Export Plug-In . SVG Version: 6.00 Build 0)  -->
<!DOCTYPE svg PUBLIC "-//W3C//DTD SVG 1.1//EN" "http://www.w3.org/Graphics/SVG/1.1/DTD/svg11.dtd">
<svg version="1.1" id="Layer_1" xmlns="http://www.w3.org/2000/svg" xmlns:xlink="http://www.w3.org/1999/xlink" x="0px" y="0px"
	 width="50px" height="100px" viewBox="0 0 50 100" enable-background="new 0 0 50 100" xml:space="preserve">
<path fill="#FFFFFF" d="M31.002,10.533v9.797l3.424,2.156c0.09,0.026,0.286,0.028,0.377,0l14.735-9.935
	c0-1.176-1.097-2.019-1.716-2.019L31.002,10.533L31.002,10.533z"/>
<path fill="#FFFFFF" d="M31.002,23.986l3.125,2.146c0.439,0.324,0.971,0,0.971,0c-0.527,0.324,14.442-9.621,14.442-9.621v18.007
	c0,1.96-1.256,2.782-2.666,2.782H31V23.986H31.002z"/>
<path fill="#FFFFFF" d="M14.825,19.468c-1.065,0-1.912,0.501-2.539,1.5c-0.627,1-0.94,2.324-0.94,3.969
	c0,1.669,0.313,2.989,0.94,3.961c0.626,0.972,1.449,1.457,2.464,1.457c1.046,0,1.88-0.474,2.492-1.414
	c0.615-0.944,0.92-2.257,0.92-3.934c0-1.748-0.297-3.107-0.893-4.079C16.674,19.954,15.859,19.468,14.825,19.468z"/>
<path fill="#FFFFFF" d="M0,5.556v38.333L29.16,50V-0.086L0,5.556z M19.511,31.202c-1.234,1.622-2.841,2.433-4.823,2.433
	c-1.932,0-3.506-0.787-4.721-2.354c-1.215-1.571-1.826-3.62-1.826-6.143c0-2.665,0.619-4.823,1.854-6.468
	c1.234-1.646,2.872-2.469,4.909-2.469c1.923,0,3.483,0.788,4.67,2.363c1.187,1.575,1.783,3.651,1.783,6.233
	C21.36,27.445,20.745,29.58,19.511,31.202z"/>
<path fill="#BDA770" d="M31.002,60.533v9.797l3.424,2.156c0.09,0.023,0.286,0.027,0.377,0l14.735-9.938
	c0-1.176-1.097-2.019-1.716-2.019L31.002,60.533L31.002,60.533z"/>
<path fill="#BDA770" d="M31.002,73.986l3.125,2.146c0.439,0.324,0.971,0,0.971,0c-0.527,0.324,14.442-9.621,14.442-9.621v18.007
	c0,1.961-1.256,2.782-2.666,2.782H31V73.986H31.002z"/>
<path fill="#BDA770" d="M14.825,69.468c-1.065,0-1.912,0.501-2.539,1.501c-0.627,0.998-0.94,2.322-0.94,3.969
	c0,1.668,0.313,2.988,0.94,3.961c0.626,0.971,1.449,1.457,2.464,1.457c1.046,0,1.88-0.475,2.492-1.414
	c0.615-0.944,0.92-2.257,0.92-3.934c0-1.748-0.297-3.107-0.893-4.078C16.674,69.953,15.859,69.468,14.825,69.468z"/>
<path fill="#BDA770" d="M0,55.556v38.332L29.16,100V49.914L0,55.556z M19.511,81.201c-1.234,1.623-2.841,2.434-4.823,2.434
	c-1.932,0-3.506-0.787-4.721-2.354c-1.215-1.571-1.826-3.62-1.826-6.144c0-2.664,0.619-4.822,1.854-6.469
	c1.234-1.645,2.872-2.468,4.909-2.468c1.923,0,3.483,0.788,4.67,2.362c1.187,1.575,1.783,3.652,1.783,6.233
	C21.36,77.444,20.745,79.58,19.511,81.201z"/>
</svg>
