<?xml version="1.0" encoding="utf-8"?>
<!-- Generator: Adobe Illustrator 16.0.4, SVG Export Plug-In . SVG Version: 6.00 Build 0)  -->
<svg version="1.2" baseProfile="tiny" id="Layer_1" xmlns="http://www.w3.org/2000/svg" xmlns:xlink="http://www.w3.org/1999/xlink"
	 x="0px" y="0px" width="50px" height="100px" viewBox="0 0 50 100" xml:space="preserve">
<g>
	<path fill="#999999" d="M25,12.948c-14.109,0-25,11.985-25,26.094h50C50,24.933,39.108,12.948,25,12.948z M44.758,34.721
		c-0.061,0.014-0.388,0.117-0.451,0.122c-0.988,0.121-1.712-0.799-1.782-1.302c-1.316-8.523-7.725-14.955-16.367-14.955
		c-0.565,0-1.02-0.453-1.02-1.016c0-0.567,0.454-1.02,1.02-1.02c9.636,0,18.015,7.172,19.484,16.681
		C45.72,33.79,45.311,34.635,44.758,34.721z"/>
	<path fill="#999999" d="M44.973,45.314H5.03c-0.383,0-0.69-0.718-0.69-1.607c0-0.885,0.308-1.6,0.69-1.6h39.943
		c0.381,0,0.686,0.717,0.686,1.6C45.659,44.596,45.352,45.314,44.973,45.314z"/>
	<path fill="#999999" d="M30.19,6.256c0-0.869-2.319-1.57-5.19-1.57c-2.872,0-5.196,0.703-5.196,1.57
		c0,0.745,1.419,1.359,3.701,1.533v2.753h2.998V7.789C28.771,7.616,30.19,7.001,30.19,6.256z"/>
</g>
<g>
	<path fill="#333333" d="M25,62.948c-14.109,0-25,11.984-25,26.094h50C50,74.933,39.108,62.948,25,62.948z M44.758,84.721
		c-0.061,0.014-0.388,0.117-0.451,0.121c-0.988,0.121-1.712-0.799-1.782-1.302c-1.316-8.523-7.725-14.955-16.367-14.955
		c-0.565,0-1.02-0.453-1.02-1.016c0-0.567,0.454-1.021,1.02-1.021c9.636,0,18.015,7.173,19.484,16.682
		C45.72,83.79,45.311,84.635,44.758,84.721z"/>
	<path fill="#333333" d="M44.973,95.314H5.03c-0.383,0-0.69-0.719-0.69-1.607c0-0.885,0.308-1.6,0.69-1.6h39.943
		c0.381,0,0.686,0.717,0.686,1.6C45.659,94.596,45.352,95.314,44.973,95.314z"/>
	<path fill="#333333" d="M30.19,56.256c0-0.869-2.319-1.57-5.19-1.57c-2.872,0-5.196,0.703-5.196,1.57
		c0,0.745,1.419,1.359,3.701,1.533v2.753h2.998v-2.753C28.771,57.615,30.19,57.001,30.19,56.256z"/>
</g>
</svg>
