<?xml version="1.0" encoding="utf-8"?>
<!-- Generator: Adobe Illustrator 16.0.4, SVG Export Plug-In . SVG Version: 6.00 Build 0)  -->
<!DOCTYPE svg PUBLIC "-//W3C//DTD SVG 1.1//EN" "http://www.w3.org/Graphics/SVG/1.1/DTD/svg11.dtd">
<svg version="1.1" id="Layer_1" xmlns="http://www.w3.org/2000/svg" xmlns:xlink="http://www.w3.org/1999/xlink" x="0px" y="0px"
	 width="50px" height="100px" viewBox="0 0 50 100" enable-background="new 0 0 50 100" xml:space="preserve">
<g>
	<g>
		<path fill="#999999" d="M14.106,0.563c-1.446,0-2.621,1.175-2.621,2.62v6.953c0,1.445,1.173,2.622,2.621,2.622
			c1.447,0,2.623-1.175,2.623-2.622V3.183C16.729,1.738,15.553,0.563,14.106,0.563z M35.893,0.563c-1.443,0-2.619,1.175-2.619,2.62
			v6.953c0,1.445,1.172,2.622,2.619,2.622c1.446,0,2.623-1.175,2.623-2.622V3.183C38.516,1.738,37.339,0.563,35.893,0.563z"/>
	</g>
	<path fill="#999999" d="M42.76,6.66h-2.63v3.476c0,2.334-1.901,4.236-4.237,4.236c-2.332,0-4.233-1.901-4.233-4.236V6.66H18.341
		v3.476c0,2.334-1.9,4.236-4.235,4.236c-2.334,0-4.236-1.901-4.236-4.236V6.66H7.241c-2,0-3.628,1.63-3.628,3.631v35.517
		c0,2.001,1.629,3.629,3.628,3.629H42.76c1.998,0,3.629-1.628,3.629-3.629V10.291C46.389,8.29,44.758,6.66,42.76,6.66z
		 M43.971,45.808c0,0.668-0.549,1.21-1.211,1.21H7.241c-0.668,0-1.21-0.542-1.21-1.21V19.6h37.939V45.808z"/>
	<line fill="none" stroke="#999999" stroke-width="2" stroke-miterlimit="10" x1="16.16" y1="24.161" x2="33.838" y2="41.839"/>
	<line fill="none" stroke="#999999" stroke-width="2" stroke-miterlimit="10" x1="16.16" y1="41.839" x2="33.838" y2="24.161"/>
</g>
<g>
	<g>
		<path fill="#333333" d="M14.106,50.562c-1.446,0-2.621,1.174-2.621,2.621v6.952c0,1.444,1.173,2.621,2.621,2.621
			c1.447,0,2.623-1.174,2.623-2.621v-6.952C16.729,51.736,15.553,50.562,14.106,50.562z M35.893,50.562
			c-1.443,0-2.619,1.174-2.619,2.621v6.952c0,1.444,1.172,2.621,2.619,2.621c1.446,0,2.623-1.174,2.623-2.621v-6.952
			C38.516,51.736,37.339,50.562,35.893,50.562z"/>
	</g>
	<path fill="#333333" d="M42.76,56.66h-2.63v3.477c0,2.334-1.901,4.234-4.237,4.234c-2.332,0-4.233-1.9-4.233-4.234V56.66H18.341
		v3.477c0,2.334-1.9,4.234-4.235,4.234c-2.334,0-4.236-1.9-4.236-4.234V56.66H7.241c-2,0-3.628,1.63-3.628,3.631v35.518
		c0,2,1.629,3.629,3.628,3.629H42.76c1.998,0,3.629-1.629,3.629-3.629V60.291C46.389,58.29,44.758,56.66,42.76,56.66z
		 M43.971,95.809c0,0.668-0.549,1.211-1.211,1.211H7.241c-0.668,0-1.21-0.543-1.21-1.211V69.6h37.939V95.809z"/>
	<line fill="none" stroke="#333333" stroke-width="2" stroke-miterlimit="10" x1="16.16" y1="74.161" x2="33.838" y2="91.839"/>
	<line fill="none" stroke="#333333" stroke-width="2" stroke-miterlimit="10" x1="16.16" y1="91.839" x2="33.838" y2="74.161"/>
</g>
</svg>
