<?xml version="1.0" encoding="utf-8"?>
<!-- Generator: Adobe Illustrator 16.0.4, SVG Export Plug-In . SVG Version: 6.00 Build 0)  -->
<!DOCTYPE svg PUBLIC "-//W3C//DTD SVG 1.1//EN" "http://www.w3.org/Graphics/SVG/1.1/DTD/svg11.dtd">
<svg version="1.1" id="Layer_1" xmlns="http://www.w3.org/2000/svg" xmlns:xlink="http://www.w3.org/1999/xlink" x="0px" y="0px"
	 width="50px" height="100px" viewBox="0 0 50 100" enable-background="new 0 0 50 100" xml:space="preserve">
<g>
	<g>
		<path fill="#333333" d="M25.001,80.81c-13.779,0-24.947,3.066-24.947,6.852c0,3.783,11.168,6.849,24.947,6.849
			c13.778,0,24.946-3.065,24.946-6.849C49.947,83.876,38.779,80.81,25.001,80.81z M9.312,87.853c-1.991,0-3.608-0.636-3.608-1.42
			c0-0.786,1.617-1.424,3.608-1.424c1.991,0,3.607,0.638,3.607,1.424C12.919,87.215,11.303,87.853,9.312,87.853z"/>
	</g>
	<path fill="#333333" d="M8.681,86.189c0,0.347,0.282,0.629,0.63,0.629l0,0c0.347,0,0.629-0.282,0.629-0.629V58.066
		c0-0.349-0.282-0.63-0.629-0.63l0,0c-0.349,0-0.63,0.282-0.63,0.63V86.189z"/>
	<path fill="#333333" d="M11.105,57.674v9.092c0,0,1.164-2.909,5.817-2.412c4.653,0.492,7.465,0.182,8.725-2.134
		c0,0-3.975,0.418-5.914-1.543C17.978,58.903,14.79,56.703,11.105,57.674z"/>
	<g>
		<path fill="#999999" d="M25.001,28.863c-13.779,0-24.947,3.067-24.947,6.85c0,3.784,11.168,6.851,24.947,6.851
			c13.778,0,24.946-3.067,24.946-6.851C49.947,31.93,38.779,28.863,25.001,28.863z M9.312,35.907c-1.991,0-3.608-0.636-3.608-1.422
			c0-0.786,1.617-1.422,3.608-1.422c1.991,0,3.607,0.636,3.607,1.422C12.919,35.27,11.303,35.907,9.312,35.907z"/>
	</g>
	<path fill="#999999" d="M8.681,34.242c0,0.348,0.282,0.631,0.63,0.631l0,0c0.347,0,0.629-0.282,0.629-0.631V6.12
		c0-0.347-0.282-0.63-0.629-0.63l0,0c-0.349,0-0.63,0.282-0.63,0.63V34.242z"/>
	<path fill="#999999" d="M11.105,5.726v9.094c0,0,1.164-2.909,5.817-2.414c4.653,0.495,7.465,0.184,8.725-2.133
		c0,0-3.975,0.419-5.914-1.541C17.978,6.958,14.79,4.757,11.105,5.726z"/>
</g>
</svg>
