<?xml version="1.0" encoding="utf-8"?>
<!-- Generator: Adobe Illustrator 16.0.4, SVG Export Plug-In . SVG Version: 6.00 Build 0)  -->
<!DOCTYPE svg PUBLIC "-//W3C//DTD SVG 1.1//EN" "http://www.w3.org/Graphics/SVG/1.1/DTD/svg11.dtd">
<svg version="1.1" id="Layer_1" xmlns="http://www.w3.org/2000/svg" xmlns:xlink="http://www.w3.org/1999/xlink" x="0px" y="0px"
	 width="50px" height="100px" viewBox="0 0 50 100" enable-background="new 0 0 50 100" xml:space="preserve">
<g>
	<g>
		<path fill="#ffffff" d="M24.999,49.852c-13.702,0-24.85-11.149-24.85-24.852c0-13.703,11.147-24.85,24.85-24.85
			c13.705,0,24.852,11.147,24.852,24.85C49.851,38.702,38.703,49.852,24.999,49.852z M24.999,2.968
			C12.852,2.968,2.967,12.853,2.967,25c0,12.148,9.885,22.033,22.032,22.033c12.149,0,22.033-9.885,22.033-22.033
			C47.031,12.853,37.147,2.968,24.999,2.968z"/>
	</g>
	<g>
		<path fill="#ffffff" d="M41.632,23.897h3.79C44.875,13.637,36.897,5.383,26.697,4.609v0.02H26.7v3.945h-2.819V4.629h0.007V4.574
			C13.442,5.084,5.149,13.437,4.581,23.87h4.044v2.845H4.678v-0.002H4.622c0.84,10.128,9.055,18.16,19.26,18.709v-3.658H26.7v3.618
			c9.935-0.82,17.856-8.734,18.679-18.667h-3.747V23.897z M33.91,19.94l-5.846,4.413c0.092,0.278,0.139,0.576,0.139,0.883
			c0,1.609-1.303,2.912-2.91,2.912c-1.582,0-2.864-1.259-2.907-2.828l-7.444-4.333c-0.673-0.392-0.901-1.255-0.51-1.927
			c0.394-0.672,1.255-0.899,1.928-0.509l7.323,4.261c0.461-0.309,1.015-0.488,1.612-0.488c0.684,0,1.313,0.24,1.812,0.635
			l5.791-4.37c0.37-0.282,0.899-0.208,1.181,0.165C34.356,19.129,34.285,19.661,33.91,19.94z"/>
	</g>
</g>
<g>
	<g>
		<path fill="#999999" d="M24.999,99.9c-13.702,0-24.85-11.148-24.85-24.85c0-13.703,11.147-24.849,24.85-24.849
			c13.705,0,24.852,11.146,24.852,24.849C49.851,88.752,38.703,99.9,24.999,99.9z M24.999,53.018
			c-12.146,0-22.032,9.886-22.032,22.033c0,12.148,9.885,22.031,22.032,22.031c12.149,0,22.033-9.883,22.033-22.031
			C47.031,62.903,37.147,53.018,24.999,53.018z"/>
	</g>
	<g>
		<path fill="#999999" d="M41.632,73.945h3.79c-0.547-10.261-8.524-18.514-18.725-19.287v0.018H26.7v3.946h-2.819v-3.946h0.007
			v-0.054c-10.447,0.511-18.74,8.862-19.308,19.297h4.044v2.844H4.678V76.76H4.622c0.84,10.128,9.055,18.162,19.26,18.709v-3.656
			H26.7v3.619c9.935-0.822,17.856-8.737,18.679-18.669h-3.747V73.945z M33.91,69.989l-5.846,4.414
			c0.092,0.28,0.139,0.575,0.139,0.883c0,1.611-1.303,2.913-2.91,2.913c-1.582,0-2.864-1.258-2.907-2.83l-7.444-4.331
			c-0.673-0.391-0.901-1.253-0.51-1.925c0.394-0.672,1.255-0.9,1.928-0.51l7.323,4.26c0.461-0.309,1.015-0.488,1.612-0.488
			c0.684,0,1.313,0.239,1.812,0.635l5.791-4.369c0.37-0.282,0.899-0.209,1.181,0.166C34.356,69.179,34.285,69.707,33.91,69.989z"/>
	</g>
</g>
</svg>
