<?xml version="1.0" encoding="utf-8"?>
<!-- Generator: Adobe Illustrator 16.0.4, SVG Export Plug-In . SVG Version: 6.00 Build 0)  -->
<!DOCTYPE svg PUBLIC "-//W3C//DTD SVG 1.1//EN" "http://www.w3.org/Graphics/SVG/1.1/DTD/svg11.dtd">
<svg version="1.1" id="Layer_1" xmlns="http://www.w3.org/2000/svg" xmlns:xlink="http://www.w3.org/1999/xlink" x="0px" y="0px"
	 width="50px" height="100px" viewBox="0 0 50 100" enable-background="new 0 0 50 100" xml:space="preserve">
<g>
	<path fill="#999999" d="M28.55,27.81c-0.385-0.28-0.812-0.511-1.294-0.687c-0.479-0.174-0.971-0.328-1.472-0.456v7.615
		c1.176-0.088,2.139-0.428,2.892-1.03c0.752-0.602,1.127-1.554,1.127-2.864c0-0.605-0.112-1.118-0.344-1.534
		C29.232,28.444,28.929,28.092,28.55,27.81z"/>
	<path fill="#999999" d="M25,0.054c-13.779,0-24.945,11.17-24.945,24.944c0,13.778,11.166,24.946,24.945,24.946
		s24.946-11.17,24.946-24.946C49.945,11.224,38.778,0.054,25,0.054z M32.927,33.057c-0.402,0.903-0.952,1.656-1.65,2.254
		c-0.694,0.602-1.512,1.061-2.448,1.373c-0.941,0.316-1.949,0.495-3.042,0.541v2.55h-1.402v-2.55
		c-1.179-0.026-2.257-0.208-3.238-0.557c-0.982-0.349-1.821-0.845-2.517-1.487c-0.696-0.643-1.237-1.434-1.62-2.371
		c-0.384-0.936-0.558-2.017-0.54-3.234h3.729c-0.025,1.435,0.294,2.571,0.947,3.398c0.654,0.827,1.73,1.261,3.238,1.306v-7.907
		c-0.895-0.243-1.783-0.53-2.666-0.867c-0.881-0.342-1.678-0.772-2.388-1.307c-0.707-0.532-1.279-1.204-1.714-2.012
		c-0.436-0.804-0.655-1.81-0.655-3.004c0-1.048,0.202-1.969,0.605-2.761c0.402-0.797,0.949-1.459,1.635-1.995
		c0.686-0.532,1.475-0.942,2.371-1.226c0.892-0.282,1.829-0.424,2.812-0.424v-2.55h1.402v2.55c0.982,0,1.907,0.128,2.777,0.392
		c0.872,0.26,1.632,0.652,2.271,1.179c0.646,0.522,1.156,1.188,1.539,1.992c0.381,0.807,0.574,1.743,0.574,2.81h-3.73
		c-0.042-1.11-0.332-1.961-0.864-2.549c-0.534-0.588-1.391-0.881-2.568-0.881v6.895c0.982,0.261,1.939,0.569,2.876,0.915
		c0.938,0.351,1.768,0.798,2.483,1.341c0.723,0.545,1.298,1.221,1.73,2.028c0.439,0.806,0.656,1.797,0.656,2.972
		C33.53,31.089,33.327,32.151,32.927,33.057z"/>
	<path fill="#999999" d="M20.687,18.921c0,0.521,0.109,0.969,0.327,1.341c0.218,0.369,0.495,0.686,0.833,0.945
		c0.337,0.26,0.731,0.473,1.177,0.638c0.444,0.162,0.898,0.298,1.358,0.407v-6.535c-1.179,0-2.089,0.245-2.729,0.734
		C21.007,16.941,20.687,17.768,20.687,18.921z"/>
</g>
<g>
	<path fill="#333333" d="M28.55,77.811c-0.385-0.28-0.812-0.512-1.294-0.685c-0.481-0.176-0.971-0.332-1.472-0.457v7.616
		c1.176-0.09,2.139-0.429,2.892-1.031c0.752-0.601,1.127-1.553,1.127-2.863c0-0.603-0.112-1.119-0.344-1.535
		C29.232,78.445,28.929,78.093,28.55,77.811z"/>
	<path fill="#333333" d="M25,50.056C11.221,50.056,0.055,61.222,0.055,75S11.221,99.944,25,99.944S49.945,88.778,49.945,75
		S38.778,50.056,25,50.056z M32.927,83.056c-0.402,0.904-0.952,1.658-1.65,2.257c-0.694,0.603-1.512,1.059-2.448,1.369
		c-0.941,0.318-1.949,0.496-3.042,0.543v2.551h-1.402v-2.551c-1.179-0.026-2.257-0.208-3.238-0.558
		c-0.982-0.347-1.821-0.844-2.517-1.484c-0.696-0.644-1.237-1.435-1.62-2.373c-0.384-0.936-0.558-2.015-0.54-3.235h3.729
		c-0.025,1.437,0.294,2.569,0.947,3.397c0.654,0.83,1.73,1.263,3.238,1.31v-7.906c-0.895-0.244-1.783-0.531-2.666-0.871
		c-0.881-0.337-1.678-0.772-2.388-1.306c-0.707-0.531-1.279-1.202-1.714-2.015c-0.436-0.801-0.655-1.808-0.655-3.001
		c0-1.05,0.202-1.973,0.605-2.764c0.402-0.796,0.949-1.459,1.635-1.992c0.686-0.531,1.475-0.942,2.371-1.228
		c0.892-0.281,1.829-0.422,2.812-0.422v-2.55h1.402v2.55c0.982,0,1.907,0.128,2.777,0.392c0.872,0.259,1.632,0.652,2.271,1.176
		c0.646,0.521,1.156,1.188,1.539,1.994c0.381,0.802,0.574,1.742,0.574,2.812h-3.73c-0.042-1.112-0.332-1.964-0.864-2.55
		c-0.534-0.589-1.391-0.883-2.568-0.883v6.896c0.982,0.261,1.939,0.571,2.876,0.916c0.938,0.352,1.768,0.799,2.483,1.342
		c0.723,0.543,1.298,1.22,1.73,2.026c0.439,0.807,0.656,1.798,0.656,2.972C33.53,81.091,33.327,82.152,32.927,83.056z"/>
	<path fill="#333333" d="M20.687,68.92c0,0.523,0.109,0.97,0.327,1.344c0.218,0.368,0.495,0.685,0.833,0.946
		c0.337,0.257,0.731,0.473,1.177,0.637c0.444,0.161,0.898,0.298,1.358,0.405v-6.535c-1.179,0-2.089,0.245-2.729,0.732
		C21.007,66.94,20.687,67.767,20.687,68.92z"/>
</g>
</svg>
