<?xml version="1.0" encoding="utf-8"?>
<!-- Generator: Adobe Illustrator 15.1.0, SVG Export Plug-In . SVG Version: 6.00 Build 0)  -->
<!DOCTYPE svg PUBLIC "-//W3C//DTD SVG 1.1//EN" "http://www.w3.org/Graphics/SVG/1.1/DTD/svg11.dtd">
<svg version="1.1" id="Layer_1" xmlns="http://www.w3.org/2000/svg" xmlns:xlink="http://www.w3.org/1999/xlink" x="0px" y="0px"
	 width="50px" height="100px" viewBox="0 0 50 100" enable-background="new 0 0 50 100" xml:space="preserve">
<g>
	<g>
		<polygon fill="#999999" points="21.677,49.347 24.144,28.063 25.969,28.063 28.435,49.347 		"/>
		<polygon fill="#999999" points="24.168,27.658 22.936,24.767 24.168,23.558 25.946,23.558 27.175,24.767 25.946,27.658 		"/>
	</g>
	<path fill="#999999" d="M39.418,49.696c0.378,0,0.688-0.308,0.688-0.686V29.667c0-1.597-0.468-3.147-2.491-3.806l-6.244-1.667
		l-6.315,19.429l-6.319-19.429l-6.241,1.667c-2.023,0.658-2.49,2.209-2.49,3.806V49.01c0,0.377,0.308,0.686,0.686,0.686"/>
	<path fill="#999999" d="M32.479,11.22c-0.166-0.023-0.3-0.003-0.412,0.04c0.266-1.861,0.424-3.639,0.424-4.877
		c0-2.368-1.392-2.58-1.392-2.58c0-0.371-0.168-1.133-1.917-2.145c-1.752-1.01-3.381-0.931-4.681-0.931
		c-1.3,0-1.976-0.573-1.976-0.573s0.128,0.573,0.87,1.04c0,0-0.685,0.011-1.392-0.388c0,0,0.228,0.307,0.58,0.492
		c0,0-1.628,0.116-2.895,1.212c-1.621,1.401-2.284,3.242-1.965,5.969c0.073,0.861,0.183,1.809,0.321,2.78
		c-0.11-0.042-0.246-0.061-0.411-0.04c-1.169,0.163,0.128,3.236,0.571,4.154c0.182,0.378,0.465,0.577,0.735,0.68
		c0.011,0.053,0.026,0.109,0.04,0.162c0.775,3.132,2.567,5.847,6.075,5.847c3.509,0,5.304-2.715,6.079-5.847
		c0.014-0.053,0.027-0.107,0.04-0.162c0.271-0.103,0.552-0.299,0.734-0.68C32.35,14.456,33.646,11.383,32.479,11.22z"/>
</g>
<path fill="#999999" d="M46.787,49.01c0,0.377-0.307,0.686-0.685,0.686H4.005c-0.376,0-0.685-0.308-0.685-0.686v-2.461
	c0-0.38,0.307-0.686,0.685-0.686h42.098c0.378,0,0.685,0.306,0.685,0.686V49.01z"/>
<g>
	<g>
		<polygon fill="#333333" points="21.558,100.112 24.058,78.544 25.906,78.544 28.404,100.112 		"/>
		<polygon fill="#333333" points="24.081,78.137 22.834,75.207 24.081,73.983 25.883,73.983 27.128,75.207 25.883,78.137 		"/>
	</g>
	<path fill="#333333" d="M39.533,100.466c0.383,0,0.696-0.311,0.696-0.694v-19.6c0-1.624-0.475-3.188-2.523-3.854l-6.327-1.694
		l-6.399,19.689l-6.4-19.686l-6.325,1.69c-2.051,0.666-2.521,2.234-2.521,3.854v19.6c0,0.384,0.31,0.698,0.694,0.698"/>
	<path fill="#333333" d="M32.502,61.482c-0.168-0.023-0.304-0.004-0.417,0.039c0.269-1.883,0.429-3.687,0.429-4.941
		c0-2.396-1.409-2.615-1.409-2.615c0-0.373-0.171-1.146-1.943-2.169c-1.774-1.023-3.425-0.945-4.743-0.945c-1.317,0-2-0.58-2-0.58
		s0.13,0.58,0.881,1.055c0,0-0.692,0.008-1.41-0.396c0,0,0.231,0.313,0.589,0.498c0,0-1.651,0.121-2.934,1.227
		c-1.644,1.42-2.314,3.287-1.992,6.048c0.075,0.874,0.185,1.835,0.325,2.819c-0.111-0.043-0.249-0.063-0.416-0.043
		c-1.184,0.164,0.129,3.278,0.579,4.211c0.187,0.381,0.473,0.581,0.745,0.69c0.012,0.047,0.025,0.11,0.041,0.161
		c0.784,3.172,2.6,5.925,6.155,5.925c3.555,0,5.372-2.753,6.158-5.925c0.014-0.051,0.027-0.11,0.041-0.161
		c0.272-0.109,0.559-0.306,0.743-0.69C32.371,64.761,33.685,61.646,32.502,61.482z"/>
</g>
<path fill="#333333" d="M47,99.771c0,0.38-0.312,0.694-0.694,0.694H3.652c-0.383,0-0.694-0.311-0.694-0.694v-2.494
	c0-0.385,0.312-0.694,0.694-0.694h42.653c0.383,0,0.694,0.306,0.694,0.694V99.771z"/>
</svg>
