<?xml version="1.0" encoding="utf-8"?>
<!-- Generator: Adobe Illustrator 16.0.4, SVG Export Plug-In . SVG Version: 6.00 Build 0)  -->
<!DOCTYPE svg PUBLIC "-//W3C//DTD SVG 1.1//EN" "http://www.w3.org/Graphics/SVG/1.1/DTD/svg11.dtd">
<svg version="1.1" id="Layer_1" xmlns="http://www.w3.org/2000/svg" xmlns:xlink="http://www.w3.org/1999/xlink" x="0px" y="0px"
	 width="50px" height="100px" viewBox="0 0 50 100" enable-background="new 0 0 50 100" xml:space="preserve">
<g>
	<path fill="#999999" d="M33.844,35.574c-0.599,0.765-1.15,1.464-1.428,1.746c-0.653,0.667-1.192,0.998-1.611,0.998
		c-0.21,0-0.474-0.058-0.789-0.175c-0.315-0.116-3.598-1.804-10.414-7.793c-6.815-5.988-7.707-9.897-7.753-10.988
		c0-0.42,0.333-0.959,0.998-1.613c0.524-0.512,1.089-0.996,1.684-1.466L5.141,2.643c-4.575,3.645-4.998,7.756-4.899,9.568
		c0.121,2.205,1.513,13.806,12.887,24.597c14.133,13.407,23.967,12.885,24.596,12.885c1.808,0,6.741-0.834,9.938-5.092
		L33.844,35.574z"/>
	<path fill="#999999" d="M48.283,43.69c0.359-0.58,0.689-1.211,0.979-1.904c0.401-0.963,0.775-2.664,0.246-3.21
		c-0.197-0.201-10.443-6.195-10.783-6.359c-0.339-0.164-0.673-0.247-1-0.247c-0.467,0-1.053,0.334-1.752,1
		c-0.296,0.279-0.852,0.972-1.45,1.732L48.283,43.69z"/>
	<path fill="#999999" d="M15.391,15.592c0.64-0.506,1.248-1.043,1.804-1.629c0.666-0.701,0.999-1.286,0.999-1.754
		c0-0.327-0.082-0.66-0.245-0.999c-0.162-0.338-6.382-10.574-6.59-10.782C10.89-0.041,9.068,0.178,8.15,0.674
		C7.368,1.098,6.664,1.537,6.026,1.986L15.391,15.592z"/>
</g>
<g>
	<path fill="#333333" d="M33.844,85.709c-0.599,0.766-1.15,1.464-1.428,1.745c-0.653,0.664-1.192,0.999-1.611,0.999
		c-0.21,0-0.474-0.057-0.789-0.176c-0.315-0.115-3.598-1.802-10.414-7.791c-6.815-5.986-7.707-9.896-7.753-10.987
		c0-0.421,0.333-0.959,0.998-1.613c0.524-0.513,1.089-0.997,1.684-1.466l-9.39-13.639c-4.575,3.641-4.998,7.757-4.899,9.563
		c0.121,2.206,1.513,13.809,12.887,24.599c14.133,13.404,23.967,12.884,24.596,12.884c1.808,0,6.741-0.831,9.938-5.092
		L33.844,85.709z"/>
	<path fill="#333333" d="M48.283,93.826c0.359-0.581,0.689-1.212,0.979-1.903c0.401-0.963,0.775-2.663,0.246-3.211
		c-0.197-0.199-10.443-6.195-10.783-6.358c-0.339-0.163-0.673-0.244-1-0.244c-0.467,0-1.053,0.334-1.752,0.998
		c-0.296,0.279-0.852,0.974-1.45,1.733L48.283,93.826z"/>
	<path fill="#333333" d="M15.391,65.726c0.64-0.505,1.248-1.04,1.804-1.629c0.666-0.7,0.999-1.285,0.999-1.754
		c0-0.328-0.082-0.659-0.245-0.997c-0.162-0.341-6.382-10.574-6.59-10.785c-0.469-0.467-2.291-0.247-3.209,0.246
		c-0.782,0.426-1.486,0.864-2.124,1.313L15.391,65.726z"/>
</g>
</svg>
