<?xml version="1.0" encoding="utf-8"?>
<!-- Generator: Adobe Illustrator 16.0.4, SVG Export Plug-In . SVG Version: 6.00 Build 0)  -->
<!DOCTYPE svg PUBLIC "-//W3C//DTD SVG 1.1//EN" "http://www.w3.org/Graphics/SVG/1.1/DTD/svg11.dtd">
<svg version="1.1" id="Layer_1" xmlns="http://www.w3.org/2000/svg" xmlns:xlink="http://www.w3.org/1999/xlink" x="0px" y="0px"
	 width="50px" height="100px" viewBox="0 0 50 100" enable-background="new 0 0 50 100" xml:space="preserve">
<g>
	<g>
		<g>
			<path fill="#333333" d="M13.482,50.129c-1.475,0-2.674,1.195-2.674,2.671v7.094c0,1.475,1.197,2.676,2.674,2.676
				c1.476,0,2.676-1.197,2.676-2.676v-7.094C16.158,51.324,14.958,50.129,13.482,50.129z M35.712,50.129
				c-1.473,0-2.674,1.195-2.674,2.671v7.094c0,1.475,1.198,2.676,2.674,2.676c1.477,0,2.678-1.197,2.678-2.676v-7.094
				C38.39,51.324,37.188,50.129,35.712,50.129z"/>
		</g>
		<path fill="#333333" d="M42.721,56.348h-2.684v3.547c0,2.383-1.941,4.322-4.325,4.322c-2.38,0-4.319-1.939-4.319-4.322v-3.547
			H17.804v3.547c0,2.383-1.939,4.322-4.322,4.322S9.16,62.277,9.16,59.895v-3.547H6.476c-2.041,0-3.702,1.664-3.702,3.707v36.24
			c0,2.041,1.662,3.705,3.702,3.705h36.245c2.039,0,3.702-1.664,3.702-3.705v-36.24C46.423,58.012,44.76,56.348,42.721,56.348z
			 M43.955,96.295c0,0.682-0.559,1.236-1.234,1.236H6.476c-0.681,0-1.235-0.555-1.235-1.236V69.553h38.714V96.295z"/>
	</g>
	
		<polyline fill="none" stroke="#333333" stroke-width="2" stroke-linecap="round" stroke-linejoin="round" stroke-miterlimit="10" points="
		16.99,84.316 22.072,90.252 32.207,75.334 	"/>
</g>
<g>
	<g>
		<g>
			<path fill="#999999" d="M13.482,0.119c-1.475,0-2.674,1.195-2.674,2.671v7.095c0,1.475,1.197,2.676,2.674,2.676
				c1.476,0,2.676-1.198,2.676-2.676V2.79C16.158,1.314,14.958,0.119,13.482,0.119z M35.712,0.119c-1.473,0-2.674,1.195-2.674,2.671
				v7.095c0,1.475,1.198,2.676,2.674,2.676c1.477,0,2.678-1.198,2.678-2.676V2.79C38.39,1.314,37.188,0.119,35.712,0.119z"/>
		</g>
		<path fill="#999999" d="M42.721,6.338h-2.684v3.547c0,2.382-1.941,4.322-4.325,4.322c-2.38,0-4.319-1.94-4.319-4.322V6.338H17.804
			v3.547c0,2.382-1.939,4.322-4.322,4.322S9.16,12.267,9.16,9.885V6.338H6.476c-2.041,0-3.702,1.664-3.702,3.706v36.241
			c0,2.041,1.662,3.704,3.702,3.704h36.245c2.039,0,3.702-1.663,3.702-3.704V10.044C46.423,8.002,44.76,6.338,42.721,6.338z
			 M43.955,46.285c0,0.681-0.559,1.235-1.234,1.235H6.476c-0.681,0-1.235-0.555-1.235-1.235V19.542h38.714V46.285z"/>
	</g>
	
		<polyline fill="none" stroke="#999999" stroke-width="2" stroke-linecap="round" stroke-linejoin="round" stroke-miterlimit="10" points="
		16.99,34.307 22.072,40.241 32.207,25.323 	"/>
</g>
</svg>
