<?xml version="1.0" encoding="utf-8"?>
<!-- Generator: Adobe Illustrator 16.0.4, SVG Export Plug-In . SVG Version: 6.00 Build 0)  -->
<!DOCTYPE svg PUBLIC "-//W3C//DTD SVG 1.1//EN" "http://www.w3.org/Graphics/SVG/1.1/DTD/svg11.dtd">
<svg version="1.1" id="Layer_1" xmlns="http://www.w3.org/2000/svg" xmlns:xlink="http://www.w3.org/1999/xlink" x="0px" y="0px"
	 width="50px" height="100px" viewBox="0 0 50 100" enable-background="new 0 0 50 100" xml:space="preserve">
<g>
	<path fill="#333333" d="M21.757,71.364c0,0.313,0.065,0.58,0.197,0.805c0.13,0.222,0.296,0.408,0.497,0.564
		c0.205,0.156,0.438,0.281,0.706,0.379c0.267,0.095,0.541,0.176,0.815,0.237l0.012-3.929c-0.704,0.004-1.252,0.155-1.637,0.454
		C21.958,70.175,21.761,70.67,21.757,71.364z"/>
	<path fill="#333333" d="M26.462,76.671c-0.228-0.168-0.487-0.304-0.773-0.406c-0.288-0.103-0.584-0.191-0.889-0.269l-0.014,4.578
		c0.708-0.06,1.287-0.269,1.74-0.633c0.455-0.365,0.683-0.939,0.687-1.726c0.002-0.365-0.066-0.673-0.205-0.922
		C26.872,77.048,26.692,76.837,26.462,76.671z"/>
	<path fill="#333333" d="M43.29,63.719H6.712c-0.718,1.366-1.85,2.499-3.22,3.217v16.131c1.369,0.718,2.502,1.848,3.22,3.216H43.29
		c0.719-1.368,1.851-2.497,3.219-3.216V66.934C45.141,66.218,44.009,65.085,43.29,63.719z M29.079,79.804
		c-0.242,0.544-0.573,1-0.996,1.362c-0.418,0.365-0.909,0.645-1.476,0.839c-0.563,0.195-1.169,0.307-1.826,0.339l-0.007,1.535
		l-0.842,0.007l0.006-1.536c-0.708-0.01-1.357-0.113-1.945-0.317c-0.588-0.205-1.089-0.5-1.509-0.881
		c-0.412-0.383-0.739-0.856-0.964-1.417c-0.228-0.562-0.333-1.209-0.315-1.943l2.239-0.018c-0.021,0.864,0.171,1.543,0.559,2.04
		c0.395,0.494,1.035,0.75,1.941,0.77l0.02-4.755c-0.535-0.14-1.07-0.31-1.6-0.507c-0.528-0.201-1.004-0.457-1.428-0.776
		c-0.424-0.318-0.766-0.717-1.026-1.2c-0.26-0.482-0.389-1.084-0.387-1.804c0.004-0.63,0.124-1.185,0.368-1.663
		c0.245-0.483,0.574-0.884,0.987-1.208c0.415-0.321,0.89-0.572,1.428-0.748c0.534-0.176,1.101-0.264,1.689-0.268l0.006-1.534
		l0.846-0.008l-0.008,1.532c0.59-0.004,1.145,0.069,1.664,0.225c0.529,0.15,0.981,0.383,1.364,0.695
		c0.39,0.312,0.695,0.708,0.919,1.192c0.229,0.483,0.34,1.043,0.34,1.687l-2.241,0.019c-0.023-0.669-0.195-1.18-0.514-1.529
		c-0.318-0.352-0.83-0.524-1.542-0.519l-0.014,4.146c0.588,0.151,1.164,0.331,1.726,0.534c0.564,0.207,1.058,0.472,1.49,0.795
		c0.435,0.324,0.778,0.726,1.032,1.209c0.264,0.483,0.39,1.077,0.385,1.785C29.448,78.618,29.322,79.257,29.079,79.804z"/>
	<path fill="#333333" d="M50.012,66.092V64.29c-2.251,0-4.076-1.825-4.076-4.077H4.065c0,2.252-1.827,4.077-4.077,4.077v0.326v1.402
		v0.073c0.58,0,1.055,0.473,1.055,1.055s-0.474,1.056-1.055,1.056v1.113v0.701c0.58,0,1.055,0.473,1.055,1.056
		c0,0.582-0.475,1.054-1.055,1.054v0.485v1.33c0.58,0,1.055,0.473,1.055,1.055c0,0.583-0.475,1.056-1.055,1.056v1.337v0.478
		c0.58,0,1.055,0.474,1.055,1.056s-0.475,1.055-1.055,1.055v0.709v1.106c0.58,0,1.055,0.474,1.055,1.056
		c0,0.581-0.475,1.055-1.055,1.055v0.079v1.295v0.434c2.252,0.002,4.077,1.827,4.077,4.077h41.87c0-2.251,1.825-4.075,4.076-4.077
		v-1.808c-0.584,0-1.057-0.474-1.057-1.055c0-0.582,0.473-1.056,1.057-1.056v-1.815c-0.584,0-1.057-0.473-1.057-1.055
		s0.473-1.056,1.057-1.056v-1.814c-0.584,0-1.057-0.473-1.057-1.056c0-0.582,0.473-1.055,1.057-1.055v-1.815
		c-0.584,0-1.057-0.472-1.057-1.056c0-0.582,0.473-1.054,1.057-1.054v-1.814c-0.584,0-1.057-0.474-1.057-1.056
		S49.428,66.092,50.012,66.092z M47.504,83.697c-1.617,0.669-2.911,1.963-3.58,3.58H6.079c-0.668-1.617-1.962-2.911-3.582-3.58
		V66.303c1.62-0.669,2.916-1.963,3.584-3.58h37.843c0.669,1.617,1.963,2.911,3.581,3.58L47.504,83.697L47.504,83.697z"/>
</g>
<g>
	<path fill="#999999" d="M21.757,21.364c0,0.314,0.065,0.581,0.197,0.806c0.13,0.221,0.296,0.409,0.497,0.564
		c0.205,0.156,0.438,0.281,0.706,0.379c0.267,0.095,0.541,0.176,0.815,0.237l0.012-3.929c-0.704,0.005-1.252,0.155-1.637,0.454
		C21.958,20.174,21.761,20.67,21.757,21.364z"/>
	<path fill="#999999" d="M26.462,26.67c-0.228-0.168-0.487-0.303-0.773-0.406c-0.288-0.104-0.584-0.192-0.889-0.269l-0.014,4.579
		c0.708-0.06,1.287-0.269,1.74-0.633c0.455-0.364,0.683-0.939,0.687-1.726c0.002-0.364-0.066-0.673-0.205-0.921
		C26.872,27.047,26.692,26.837,26.462,26.67z"/>
	<path fill="#999999" d="M43.29,13.718H6.712c-0.718,1.368-1.85,2.5-3.22,3.218v16.13c1.369,0.717,2.502,1.848,3.22,3.216H43.29
		c0.719-1.368,1.851-2.498,3.219-3.216V16.934C45.141,16.218,44.009,15.086,43.29,13.718z M29.079,29.803
		c-0.242,0.544-0.573,1-0.996,1.364c-0.418,0.364-0.909,0.644-1.476,0.837c-0.563,0.196-1.169,0.307-1.826,0.339l-0.007,1.535
		l-0.842,0.007l0.006-1.535c-0.708-0.01-1.357-0.114-1.945-0.318c-0.588-0.206-1.089-0.5-1.509-0.881
		c-0.412-0.383-0.739-0.857-0.964-1.417c-0.228-0.562-0.333-1.21-0.315-1.944l2.239-0.018c-0.021,0.865,0.171,1.543,0.559,2.04
		c0.395,0.495,1.035,0.751,1.941,0.77l0.02-4.754c-0.535-0.141-1.07-0.311-1.6-0.508c-0.528-0.201-1.004-0.458-1.428-0.776
		c-0.424-0.318-0.766-0.717-1.026-1.201c-0.26-0.481-0.389-1.083-0.387-1.803c0.004-0.63,0.124-1.185,0.368-1.663
		c0.245-0.484,0.574-0.884,0.987-1.209c0.415-0.321,0.89-0.572,1.428-0.748c0.534-0.176,1.101-0.265,1.689-0.269l0.006-1.533
		l0.846-0.008l-0.008,1.533c0.59-0.004,1.145,0.069,1.664,0.223c0.529,0.151,0.981,0.383,1.364,0.696
		c0.39,0.312,0.695,0.708,0.919,1.192c0.229,0.483,0.34,1.044,0.34,1.687l-2.241,0.019c-0.023-0.668-0.195-1.18-0.514-1.53
		s-0.83-0.523-1.542-0.517l-0.014,4.146c0.588,0.15,1.164,0.331,1.726,0.534c0.564,0.206,1.058,0.471,1.49,0.795
		c0.435,0.324,0.778,0.726,1.032,1.208c0.264,0.484,0.39,1.078,0.385,1.786C29.448,28.618,29.322,29.257,29.079,29.803z"/>
	<path fill="#999999" d="M50.012,16.092v-1.801c-2.251,0-4.076-1.826-4.076-4.078H4.065c0,2.251-1.827,4.078-4.077,4.078v0.325
		v1.403v0.073c0.58,0,1.055,0.474,1.055,1.056c0,0.582-0.474,1.055-1.055,1.055v1.113v0.702c0.58,0,1.055,0.472,1.055,1.054
		c0,0.583-0.475,1.055-1.055,1.055v0.484v1.33c0.58,0,1.055,0.473,1.055,1.055c0,0.583-0.475,1.055-1.055,1.055v1.337v0.478
		c0.58,0,1.055,0.474,1.055,1.056s-0.475,1.055-1.055,1.055v0.708v1.107c0.58,0,1.055,0.472,1.055,1.055
		c0,0.582-0.475,1.055-1.055,1.055v0.08v1.294v0.434c2.252,0.002,4.077,1.827,4.077,4.078h41.87c0-2.251,1.825-4.076,4.076-4.078
		v-1.808c-0.584,0-1.057-0.473-1.057-1.055c0-0.583,0.473-1.055,1.057-1.055v-1.815c-0.584,0-1.057-0.474-1.057-1.055
		s0.473-1.056,1.057-1.056v-1.815c-0.584,0-1.057-0.472-1.057-1.055c0-0.582,0.473-1.055,1.057-1.055v-1.816
		c-0.584,0-1.057-0.472-1.057-1.055c0-0.583,0.473-1.054,1.057-1.054v-1.814c-0.584,0-1.057-0.474-1.057-1.055
		C48.955,16.565,49.428,16.092,50.012,16.092z M47.504,33.698c-1.617,0.669-2.911,1.963-3.58,3.58H6.079
		c-0.668-1.617-1.962-2.912-3.582-3.581V16.303c1.62-0.669,2.916-1.963,3.584-3.581h37.843c0.669,1.617,1.963,2.912,3.581,3.581
		L47.504,33.698L47.504,33.698z"/>
</g>
</svg>
