<?xml version="1.0" encoding="utf-8"?>
<!-- Generator: Adobe Illustrator 16.0.4, SVG Export Plug-In . SVG Version: 6.00 Build 0)  -->
<!DOCTYPE svg PUBLIC "-//W3C//DTD SVG 1.1//EN" "http://www.w3.org/Graphics/SVG/1.1/DTD/svg11.dtd">
<svg version="1.1" id="Layer_1" xmlns="http://www.w3.org/2000/svg" xmlns:xlink="http://www.w3.org/1999/xlink" x="0px" y="0px"
	 width="50px" height="100px" viewBox="0 0 50 100" enable-background="new 0 0 50 100" xml:space="preserve">
<g>
	<g>
		<path fill="#333333" d="M14.106,50.562c-1.446,0-2.621,1.175-2.621,2.621v6.953c0,1.444,1.173,2.621,2.621,2.621
			c1.447,0,2.623-1.174,2.623-2.621v-6.953C16.729,51.737,15.553,50.562,14.106,50.562z M35.892,50.562
			c-1.443,0-2.619,1.175-2.619,2.621v6.953c0,1.444,1.173,2.621,2.619,2.621c1.447,0,2.624-1.174,2.624-2.621v-6.953
			C38.516,51.737,37.339,50.562,35.892,50.562z"/>
	</g>
	<path fill="#333333" d="M42.76,56.66h-2.63v3.477c0,2.333-1.902,4.234-4.238,4.234c-2.332,0-4.233-1.901-4.233-4.234V56.66H18.341
		v3.477c0,2.333-1.9,4.234-4.235,4.234c-2.334,0-4.236-1.901-4.236-4.234V56.66H7.241c-2,0-3.628,1.63-3.628,3.631v35.517
		c0,2.001,1.629,3.63,3.628,3.63H42.76c1.998,0,3.628-1.629,3.628-3.63V60.291C46.388,58.29,44.758,56.66,42.76,56.66z
		 M43.97,95.808c0,0.668-0.548,1.211-1.21,1.211H7.241c-0.668,0-1.21-0.543-1.21-1.211V69.6H43.97V95.808z"/>
	<g>
		<path fill="#333333" d="M43.97,79.656v-1.613H32.503v-8.477h-1.615v8.477H18.522v-8.477H16.91v8.477H6.006v1.613H16.91v7.506
			H6.006v1.611H16.91v8.304h1.612v-8.304h12.365v8.304h1.615v-8.304H43.97v-1.611H32.503v-7.506H43.97z M30.888,87.162H18.521
			v-7.506h12.367V87.162z"/>
	</g>
</g>
<g>
	<g>
		<path fill="#999999" d="M14.106,0.563c-1.446,0-2.621,1.175-2.621,2.62v6.953c0,1.445,1.173,2.622,2.621,2.622
			c1.447,0,2.623-1.175,2.623-2.622V3.183C16.729,1.738,15.553,0.563,14.106,0.563z M35.892,0.563c-1.443,0-2.619,1.175-2.619,2.62
			v6.953c0,1.445,1.173,2.622,2.619,2.622c1.447,0,2.624-1.175,2.624-2.622V3.183C38.516,1.738,37.339,0.563,35.892,0.563z"/>
	</g>
	<path fill="#999999" d="M42.76,6.66h-2.63v3.476c0,2.334-1.902,4.236-4.238,4.236c-2.332,0-4.233-1.901-4.233-4.236V6.66H18.341
		v3.476c0,2.334-1.9,4.236-4.235,4.236c-2.334,0-4.236-1.901-4.236-4.236V6.66H7.241c-2,0-3.628,1.63-3.628,3.631v35.517
		c0,2.001,1.629,3.629,3.628,3.629H42.76c1.998,0,3.628-1.628,3.628-3.629V10.291C46.388,8.29,44.758,6.66,42.76,6.66z
		 M43.97,45.808c0,0.668-0.548,1.21-1.21,1.21H7.241c-0.668,0-1.21-0.542-1.21-1.21V19.6H43.97V45.808z"/>
	<g>
		<path fill="#999999" d="M43.97,29.657v-1.614H32.503v-8.477h-1.615v8.477H18.522v-8.477H16.91v8.477H6.006v1.614H16.91v7.505
			H6.006v1.611H16.91v8.304h1.612v-8.304h12.365v8.304h1.615v-8.304H43.97v-1.611H32.503v-7.505H43.97z M30.888,37.162H18.521
			v-7.505h12.367V37.162z"/>
	</g>
</g>
</svg>
