<?xml version="1.0" encoding="utf-8"?>
<!-- Generator: Adobe Illustrator 16.0.4, SVG Export Plug-In . SVG Version: 6.00 Build 0)  -->
<!DOCTYPE svg PUBLIC "-//W3C//DTD SVG 1.1//EN" "http://www.w3.org/Graphics/SVG/1.1/DTD/svg11.dtd">
<svg version="1.1" id="Layer_1" xmlns="http://www.w3.org/2000/svg" xmlns:xlink="http://www.w3.org/1999/xlink" x="0px" y="0px"
	 width="50px" height="100px" viewBox="0 0 50 100" enable-background="new 0 0 50 100" xml:space="preserve">
<g>
	<polyline fill="#999999" points="28.351,38.854 25.464,42.938 22.505,38.836 	"/>
	<path fill="#999999" d="M29.393,37.379l7.021-9.937c2.272-3.032,3.579-6.675,3.579-10.526c0-8.094-6.561-14.655-14.654-14.655
		c-8.091,0-14.653,6.562-14.653,14.655c0,3.883,1.611,7.539,3.664,10.611l7.084,9.824l1.071,1.484l2.959,4.104L29.393,37.379z
		 M20.355,16.916c0-2.753,2.231-4.984,4.983-4.984c2.753,0,4.986,2.231,4.986,4.984c0,2.751-2.231,4.984-4.986,4.984
		C22.586,21.9,20.355,19.667,20.355,16.916z"/>
	<path fill="#999999" d="M33.96,37.58l-1.042,1.476c12.955,0.328,15.412,2.299,15.412,3.461c0,1.258-8.235,3.707-23.329,3.707
		c-15.095,0-23.33-2.448-23.33-3.707c0-1.187,2.963-3.201,16.465-3.453l-1.071-1.484c-8.865,0.268-16.911,1.328-16.911,4.936
		c0,4.131,16.251,5.223,24.845,5.223c8.593,0,24.844-1.093,24.844-5.223C49.845,39.018,42.749,37.903,33.96,37.58z"/>
</g>
<g>
	<polyline fill="#333333" points="28.351,88.855 25.464,92.94 22.505,88.838 	"/>
	<path fill="#333333" d="M29.393,87.379l7.021-9.937c2.272-3.031,3.579-6.675,3.579-10.527c0-8.093-6.561-14.652-14.654-14.652
		c-8.091,0-14.653,6.56-14.653,14.652c0,3.883,1.611,7.54,3.664,10.61l7.084,9.824l1.071,1.485l2.959,4.103L29.393,87.379z
		 M20.355,66.915c0-2.751,2.231-4.983,4.983-4.983c2.753,0,4.986,2.23,4.986,4.983c0,2.754-2.231,4.986-4.986,4.986
		C22.586,71.9,20.355,69.669,20.355,66.915z"/>
	<path fill="#333333" d="M33.96,87.58l-1.042,1.478c12.955,0.325,15.412,2.298,15.412,3.457c0,1.259-8.235,3.708-23.329,3.708
		c-15.095,0-23.33-2.447-23.33-3.708c0-1.185,2.963-3.199,16.465-3.449l-1.071-1.485c-8.865,0.268-16.911,1.327-16.911,4.935
		c0,4.132,16.251,5.223,24.845,5.223c8.593,0,24.844-1.093,24.844-5.223C49.845,89.018,42.749,87.902,33.96,87.58z"/>
</g>
</svg>
