<?xml version="1.0" encoding="utf-8"?>
<!-- Generator: Adobe Illustrator 16.0.4, SVG Export Plug-In . SVG Version: 6.00 Build 0)  -->
<!DOCTYPE svg PUBLIC "-//W3C//DTD SVG 1.1//EN" "http://www.w3.org/Graphics/SVG/1.1/DTD/svg11.dtd">
<svg version="1.1" id="Layer_1" xmlns="http://www.w3.org/2000/svg" xmlns:xlink="http://www.w3.org/1999/xlink" x="0px" y="0px"
	 width="50px" height="100px" viewBox="0 0 50 100" enable-background="new 0 0 50 100" xml:space="preserve">
<g>
	<path fill="#999999" d="M9.896,13.318c0.126,0.147,0.235,0.339,0.318,0.529l-0.022,0.063c-0.38,0.255-0.762,0.636-0.908,1.038
		l0.021,0.023c0.933-1.145,2.246-1.676,3.707-1.611c1.038,0.171,1.819,0.953,2.5,1.759c1.356-0.064,2.477,0.783,3.156,1.885
		l0.276,0.359c-0.491-0.063-0.976-0.063-1.421,0.065c0.528,0.127,1.103,0.106,1.611,0.275c0.973,0.232,1.737,0.912,2.456,1.651
		c0.634,0.423,1.483,0.255,2.225,0.423c0.424,0.064,0.805,0.255,1.271,0.17c1.293-0.275,2.668-0.571,4.067-0.593
		c3.05-0.064,5.804,0.912,8.494,1.864c1.145,0.446,2.247,1.208,3.007,2.267c1.337,1.738,3.009,3.727,5.149,4.257
		c0.528,0.106,1.121,0,1.568-0.254c0.57-0.422,0.783-1.271,0.614-2.034c-0.173-0.507-0.447-0.995-0.868-1.333
		c-0.681-0.594-1.762-1.125-1.592-2.162c0.317-0.825,0.997-1.505,1.524-2.247l0.045,0.021c0,0.508,0.126,0.975,0.359,1.377
		c0.084-0.084,0.041-0.274,0.084-0.402c0.085-0.211,0.171-0.423,0.36-0.572c0.128,0.339,0.211,0.677,0.297,1.038
		c0.085,0.487,0.105,1.06-0.021,1.547c0,0.02,0,0.085,0.041,0.043c0.15-0.213,0.315-0.425,0.55-0.509
		c-0.72,1.525,0.466,3.03-0.021,4.618c-0.147,0.679-0.762,1.356-1.44,1.523c-0.422,0.171-0.931,0.214-1.374,0.129
		c-1.401-0.149-2.651-0.764-3.859-1.42c-0.148-0.041-0.232-0.189-0.361-0.209c0.298,0.527,0.742,0.974,1.209,1.419
		c1.08,0.93,2.307,1.674,3.771,1.863c0.721,0.148,1.567,0.084,2.075,0.636c0.276,0.529,0.128,1.208,0.215,1.779
		c0.084,0.996,0.571,1.821,0.994,2.689c0.104,0.318-0.129,0.552-0.363,0.766c-0.526,0.232-0.613,0.804-0.973,1.121
		c-0.359,0.022-0.826,0.022-1.186,0c0-0.169,0.107-0.361,0.169-0.508c0.128-0.191,0.361-0.233,0.486-0.403
		c-0.318,0.042-0.718,0.171-0.825,0.53l-0.148,0.36c-0.339,0.021-0.7,0.021-0.997,0c0-0.169,0.171-0.296,0.235-0.465
		c0.085-0.339,0.488-0.254,0.655-0.488c-0.126-0.042-0.209,0.063-0.338,0.043c-0.19,0.062-0.381,0.085-0.508,0.254
		c-0.084,0.234-0.275,0.423-0.38,0.656c-0.233,0.021-0.447,0.021-0.68,0c-0.104-0.022-0.082-0.148-0.042-0.212
		c0.189-0.275,0.296-0.593,0.53-0.848c0.336-0.148,0.785,0,1.12-0.19c0.297-0.17,0.659-0.316,0.807-0.679
		c0.044-0.72-0.318-1.354-0.634-1.948c-0.425-0.55-1.039-0.848-1.694-0.89c-1.548-0.212-3.22-0.191-4.661-0.678
		c-1.548-0.466-2.946-1.293-4.194-2.416c-0.849-0.847-1.651-1.841-2.778-2.183c-1.016-0.169-1.946,0.317-2.836,0.678
		c-1.608,0.785-3.157,1.717-4.895,2.14c-1.142,0.361-2.458,0.338-3.686,0.318c-0.405-0.976,0.396-2.415-0.686-3.114
		c-0.719-0.423-1.56-1.058-1.855-1.779c-0.022,0,0,0.042,0,0.062l-0.022-0.062l-0.021,0.022c0.128,0.91,0.953,1.673,1.695,2.182
		c0.869,0.742,0.148,2.161,0.804,2.986c-0.231,0.042-0.402-0.149-0.529-0.317l-0.04,0.042c-0.045,0.447-0.022,0.912,0.209,1.271
		c-0.169-0.063-0.337-0.232-0.444-0.381c-0.021,0.488,0.169,0.974,0.317,1.418c0.298,1.059,0.826,2.078,0.912,3.199
		c0,0.744-0.871,0.722-1.229,1.208c-0.108,0.105-0.17,0.232-0.339,0.212c-0.549,0-1.122,0.043-1.651-0.022
		c-0.086-0.106-0.022-0.233,0-0.361c0.063-0.358,0.465-0.422,0.699-0.57c-0.339,0-0.722,0.085-0.911,0.401
		c-0.084,0.192-0.107,0.404-0.233,0.551c-0.233,0-0.53,0.021-0.743-0.022c-0.045-0.126,0.064-0.254,0.128-0.381
		c0.149-0.338,0.507-0.508,0.826-0.657c0.021-0.021,0-0.042,0.042-0.063c-0.234,0-0.423,0.106-0.656,0.169
		c-0.234,0.191-0.446,0.465-0.616,0.7c-0.042,0.085,0,0.19-0.084,0.254h-0.549c-0.108-0.254,0.127-0.424,0.275-0.615
		c0.232-0.232,0.379-0.591,0.719-0.697c0.616,0,1.378,0.062,1.696-0.53c0.21-0.529-0.169-0.912-0.297-1.356
		c-0.806-1.779-2.541-2.967-3.983-4.364c-0.845-0.953-1.504-2.035-1.482-3.348c-0.041-0.741,0.17-1.544,0-2.267
		c-0.022-0.021-0.041-0.042-0.062-0.042c-0.022,0.254,0,0.486,0,0.719c-0.109,1.082-0.46,2.169-0.058,3.143
		c0.233,0.678,0.905,1.476,1.391,2.048c-0.827-0.276-1.61-0.438-2.097-1.306c-0.106-0.234-0.213-0.685-0.062-0.898
		c0.042-0.085,0.168-0.085,0.232-0.19c-0.634-0.445-0.805-1.229-0.87-1.948v-0.021c-0.083,0.19-0.019,0.402-0.062,0.634
		c0.021,0.509,0.147,1.019,0.529,1.378c-0.231,0.233-0.402,0.657-0.296,0.973c0.147,0.553,0.609,0.875,1.245,1.14
		c0.318,0.17,0.6,0.216,0.916,0.323c-0.677,0.107-1.481,0.276-2.138-0.042c-0.573-0.211-1.083-0.742-1.167-1.356
		c-0.105-0.551-0.127-1.101-0.591-1.482c0.338,0.085,0.572,0.424,0.826,0.634c0.022,0,0.022-0.062,0.022-0.084
		c-0.275-0.593-0.875-0.86-1.299-1.286c-0.531-0.811-0.29-1.615-0.227-2.464c0.064-0.422,0.192-0.805,0.274-1.207
		c-0.063-0.021-0.063,0.063-0.106,0.105c-0.401,0.933-0.65,1.784-0.585,2.888c0.04,0.529,0.439,1.245,0.903,1.583
		c0.531,0.508,0.319,1.312,0.657,1.906c0.382,0.678,1.123,1.038,1.716,1.484v0.042c-0.487-0.127-0.995-0.191-1.505-0.232
		c0.109,0.594,0.232,1.292-0.021,1.886c-0.423-0.997-1.377-1.696-2.225-2.374c-0.655-0.677-0.802-1.758-0.444-2.625
		c0.19,0.89,1.017,1.63,1.609,2.308c0.172,0.21,0.278,0.465,0.382,0.677c0.021-0.868-0.567-1.32-1.03-1.997
		c-0.32-0.467-0.706-1.095-0.726-1.646c-0.024-0.105-0.045-0.211-0.086-0.295L9.133,26.45c-0.043,0.128-0.043,0.257-0.084,0.384
		c-0.467,0.721-1.025,1.144-0.192,2.626c-0.933-0.7-1.503-1.675-1.567-2.797c-0.021-0.297-0.021-0.528,0.043-0.805
		c0.149,0.064,0.254,0.214,0.403,0.275l0.024-0.041c-0.34-1.377-0.05-2.705,0.233-4.28l-0.023-0.02
		c-0.168,0.275-0.231,0.593-0.358,0.89c-0.022,0.127-0.043,0.297-0.086,0.422h0.022c-0.043,0.086-0.043,0.213-0.063,0.297
		c-0.108,0.678-0.169,1.462-0.065,2.14c-0.488-0.656-0.635-1.504-0.51-2.351l0.065-0.466c-0.126,0.02-0.189,0.19-0.295,0.254
		c0.107-0.445,0.231-1.123-0.213-1.463c-0.273-0.021-0.423,0.318-0.57,0.53c-0.17,0.444-0.635,0.722-1.062,0.805
		c-0.189,0.107-0.293,0.298-0.337,0.509c-0.338-0.085-0.701-0.275-0.784-0.658c-0.084-0.212-0.188-0.444-0.338-0.634
		c0-0.085-0.044-0.192-0.107-0.275c0.063-0.107-0.021-0.297,0.128-0.318c0.4,0.021,0.698,0.275,1.036,0.445
		c0.235,0.021,0.424-0.126,0.53-0.316l0.044-0.17c-0.065,0-0.065-0.108-0.127-0.148c-0.447-0.424-1.103-0.148-1.632-0.212
		c-0.445-0.106-0.507-0.593-0.722-0.933c-0.106-0.148-0.296-0.254-0.274-0.467c0.105-0.106,0.337-0.02,0.508-0.043
		c0.125-0.043,0.275-0.083,0.42-0.125c-0.04,0.062,0,0.19-0.083,0.21v0.021c-0.107,0.042-0.235-0.064-0.319,0.022
		c-0.146,0.084-0.126,0.254-0.146,0.381c0.043,0.021,0.106-0.022,0.127-0.064c0.104-0.147,0.337-0.147,0.463-0.297
		c0.085-0.191,0.193-0.36,0.085-0.571c-0.211,0.212-0.57,0.128-0.848,0.148c0.148-0.317,0.465-0.592,0.719-0.869
		c0.384-0.296,0.787-0.634,0.999-1.059L4.6,17.045c0.148-0.423,0.423-0.89,0.909-0.975c0.212-0.084,0.467-0.084,0.68-0.211
		c0.697-0.657,1.629-0.889,2.16-1.737c0.298-0.423,0.487-0.89,0.636-1.356C9.347,12.745,9.62,13.085,9.896,13.318 M12.08,14.124
		c-0.233,0.085-0.444,0.169-0.657,0.255c-0.808,0.382-1.249,1.249-1.208,2.139c0,0.508,0.211,0.911,0.295,1.378
		c-0.336-0.551-0.57-1.101-0.739-1.695c-0.044,0.317,0.064,0.55,0.125,0.847H9.875c-0.424-0.253-0.933-0.615-1.122-1.102
		c-0.022,0.105,0.021,0.189,0.042,0.277c0.255,0.55,0.605,0.981,1.136,1.234l0.579,0.735c0.425,0.806,0.211,1.78-0.295,2.458
		c-0.297,0.403-0.614,0.826-0.973,1.186c0.148-0.466,0.189-0.974,0.296-1.461c-0.046,0.042-0.087,0.107-0.108,0.168
		c-0.276,1.019-0.699,1.823-1.124,2.904c0-0.636,0.192-1.251,0.17-1.843c-0.403,0.996-0.615,2.309-0.275,3.411h0.021
		c0.022,0-0.021-0.064,0.043-0.084c-0.043-0.785,0.466-1.483,0.785-2.141c0.488-0.975,1.419-1.651,1.8-2.647
		c0.49-1.271-0.305-2.394-0.265-3.708c0.022-0.846,0.413-1.607,1.197-1.926l0.023,0.022c-0.109,0.274-0.262,0.62-0.284,0.917
		c-0.093,0.559,0.027,1.201-0.163,1.772c-0.02,0.148-0.128,0.277-0.128,0.425c0.404-0.656,0.656-1.334,0.653-2.187
		c0-0.468,0.195-0.884,0.322-1.308C12.164,14.146,12.103,14.146,12.08,14.124 M12.48,15.733c-0.191,0.255-0.359,0.509-0.401,0.806
		c-0.424,1.248,0.678,2.245,0.361,3.496c0,0.043-0.021,0.106-0.021,0.148h0.021c0.443-0.869,0.12-1.779-0.07-2.583
		c-0.128-0.656-0.206-1.293,0.133-1.843L12.48,15.733z M5.343,16.56c-0.128,0.126-0.171,0.317-0.171,0.486
		c0.065,0.064,0.107-0.042,0.171,0c0.021,0.021,0.064,0.064,0.04,0.106c-0.274,0.106-0.483,0.275-0.761,0.318
		c-0.043,0.021-0.107,0.021-0.107,0.085c0.169,0.02,0.36,0,0.509-0.043c0.529-0.189,0.975-0.466,1.546-0.508
		c-0.042-0.021,0.042-0.043,0-0.063c-0.042,0-0.022-0.065-0.084-0.086C6.105,16.772,5.618,16.877,5.343,16.56 M15.957,16.835
		c-0.064,0.551-0.529,0.932-0.933,1.292c-0.507,0.529-1.018,1.328-0.995,2.048c-0.042,1.249,0.953,2.062,0.743,3.354L14.75,23.55
		c-0.382-1.102-1.425-1.762-1.382-3.013c0-0.933,0.47-1.753,1.042-2.432c0.085-0.169,0.233-0.379,0.169-0.57
		c-0.128,0.382-0.379,0.7-0.697,0.973c-0.488,0.425-0.929,1.172-0.947,1.809c-0.17,1.293,0.882,2.048,1.433,3.086
		c0.128,0.275,0.19,0.591,0.255,0.89c0.04,0.085-0.021,0.213,0.04,0.275c0.236-0.656,0.361-1.356,0.298-2.119
		c-0.17-0.846-0.55-1.609-0.465-2.541c0.021-0.318,0.062-0.634,0.232-0.846c-0.117,0.736-0.17,1.026,0.277,1.991
		c0.042,0.042-0.021,0.126,0.084,0.126c0.169-0.211,0.274-0.488,0.446-0.722c0.549-0.719,1.27-1.46,2.223-1.46
		c-1.23-0.339-2.076,0.742-2.691,1.609c-0.235-0.465-0.028-1.207,0.059-1.736c0.21-0.635,0.641-0.953,0.832-1.611
		C15.957,17.111,16.042,16.943,15.957,16.835 M8.696,17.386c-1.038-0.191-1.893,0.7-2.802,0.954
		c-0.127,0.062-0.319-0.022-0.382,0.062c0.975,0.213,1.632-0.635,2.544-0.742c0.294-0.042,0.593,0.044,0.762,0.276
		c0.253,0.508,0.021,0.962-0.191,1.426c-0.338,0.7-1.038,1.286-1.355,1.985c-0.128,0.338-0.298,0.742-0.149,1.08h0.021
		c-0.021-0.785,0.55-1.377,1.08-1.907c0.656-0.679,1.355-1.666,0.933-2.64C9.071,17.668,8.887,17.471,8.696,17.386 M11.593,17.852
		c-0.149,0.296-0.149,0.773-0.108,1.07c0.084,0.316,0.276,0.561,0.443,0.857c-0.061-0.656-0.316-1.271-0.316-1.906L11.593,17.852z
		 M5.259,19.335c-0.107,0.064-0.298,0.021-0.254,0.19c0.815-0.075,1.503-0.339,2.16-0.785C6.53,18.889,5.894,19.144,5.259,19.335
		 M4.431,19.249c-0.042,0.297,0.065,0.592-0.02,0.891c-0.022,0.233-0.214,0.423-0.214,0.658c0.042-0.065,0.128-0.044,0.17-0.108
		C4.76,20.192,4.686,19.653,4.431,19.249 M5.089,19.842c-0.022,0.043-0.022,0.087-0.022,0.128l0.409,0.037
		c0.635,0.031,1.138-0.187,1.668-0.44C6.444,19.63,5.767,19.758,5.089,19.842 M5.322,20.288c-0.084,0-0.339-0.084-0.277,0.106
		l0.458,0.169c0.476,0.105,0.73,0.042,1.07,0.042C6.168,20.456,5.723,20.395,5.322,20.288 M30.059,20.563
		c-0.7-0.149-1.882-0.276-2.577-0.191c0.613,0.107,1.365,0.254,1.96,0.403c1.268,0.381,2.424,0.658,3.481,1.462
		c-1.801-0.34-3.566-0.191-5.194,0.233c-1.949,0.571-3.893,1.461-5.651,2.542c1.186-0.444,2.516-0.936,3.708-1.412
		c3.493-1.086,4.528-1.475,7.18-1.258c0.107,0,0.236,0.064,0.34,0.044c-0.021-0.084-0.147-0.222-0.212-0.287
		C32.035,21.336,31.265,20.882,30.059,20.563 M39.45,24.08c-0.085-0.042-0.149-0.169-0.254-0.149c0.721,0.572,1.164,1.42,1.378,2.31
		c0.189,0.678,0.45,1.425,0.852,2.021c0.594,0.761,1.03,1.411,1.097,2.364l-0.015,0.04c-1.247,0.106-2.343-0.215-3.401-0.701
		c-1.433-0.689-2.543-1.801-3.708-2.966c-0.381-0.275-0.841-0.567-1.266-0.672c0.021,0.021,0.064,0.04,0.107,0.062
		c1.396,0.805,2.095,2.457,3.516,3.284c1.378,0.953,3.243,1.418,4.958,1.122c0-0.72-0.149-1.313-0.423-1.927
		c-0.403-0.995-1.306-1.928-1.498-3.008C40.578,25.116,40.085,24.609,39.45,24.08 M32.416,24.546
		c-0.486,0.126-0.935,0.317-1.378,0.55c-2.267,1.229-4.153,3.41-6.632,4.088c0.171,0,0.382-0.022,0.553-0.063
		c1.185-0.405,2.421-0.875,3.435-1.64c1.379-1.081,2.601-2.323,4.189-2.916L32.416,24.546z M15.216,26.918
		c-0.107,0.255,0.021,0.55,0.085,0.762c-0.192-0.125-0.319-0.336-0.402-0.549c-0.042-0.021-0.022-0.106-0.066-0.106
		c0.023,0.487,0.378,0.994,0.759,1.271c0.785,0.612,1.765,0.698,2.589,1.249l-0.042-0.064c-0.38-0.635-1.269-0.699-1.44-1.482
		h-0.021c-0.022,0.233,0.106,0.422,0.191,0.613c-0.51-0.107-0.743-0.679-0.87-1.059c-0.063,0.106-0.022,0.211,0,0.318
		c0.021,0.126,0.085,0.252,0.063,0.36C15.574,27.956,15.319,27.425,15.216,26.918 M18.583,27.575
		c0.129,0.722,0.757,1.391,1.413,1.603c0.39,0.459,0.397,1.243,0.46,1.624c0.19,1.399,0.671,1.963,1.115,3.276
		c0.127,0.424,0.106,0.871,0.127,1.315l0.021,0.021c0.36-0.932-0.105-1.844-0.401-2.67c-0.299-0.762-0.362-1.588-0.469-2.394
		c-0.105-0.529-0.062-1.144-0.549-1.483C19.622,28.613,19.027,28.21,18.583,27.575 M43.962,30.837l0.044,0.108
		c0.317,0.232,0.76,0.211,1.162,0.296c1.097,0.197,1.705,0.04,2.72,1.115c0.389,0.741,0.646,1.32,1.052,1.999l0.062,0.02
		c-0.274-0.656-0.528-1.335-0.762-2.013c-0.171-0.572-0.721-1.038-1.294-1.144C45.951,31.091,44.915,31.05,43.962,30.837"/>
	<path fill="#999999" d="M35.552,28.741v0.064c-1.146,1.058-2.478,2.118-3.348,3.412c-0.147,0.252-0.257,0.528-0.383,0.783
		c0.179-1.596,0.53-2.351,0.935-3.474c-0.721,1.038-1.187,2.244-1.23,3.602c0,0.571,0.085,1.121,0.171,1.652
		c0,0.486-0.509,0.656-0.828,0.806c-0.231,0.083-0.442,0.21-0.654,0.296c0.148-0.319,0.372-0.417,0.515-1.124
		c0.043-0.721-0.155-1.398,0.077-2.055c-0.022-0.065,0.021-0.086,0-0.129c-0.148,0.149-0.189,0.403-0.255,0.616
		c-0.229,0.996-0.041,2.204-0.891,2.922c-0.486,0.361-0.951,0.636-1.439,0.974l-0.38,0.107l-1.315-0.022
		c0.045-0.232,0.15-0.508,0.405-0.635c0.149-0.063,0.339-0.106,0.423-0.275c-0.064-0.064-0.169,0.084-0.255,0.105
		c-0.358,0.065-0.784,0.298-0.869,0.68c-0.02,0.252-0.358,0.105-0.53,0.148c-0.146-0.022-0.316,0.021-0.401-0.043
		c-0.02-0.275,0.341-0.487,0.469-0.72c0.125-0.148,0.358-0.171,0.443-0.339c-0.318,0.085-0.724,0.105-0.871,0.465
		c-0.083,0.233-0.378,0.36-0.402,0.615c-0.188,0.042-0.382,0.022-0.572,0.022c-0.085-0.064-0.085-0.17-0.042-0.253
		c0.084-0.191,0.232-0.362,0.36-0.509l-0.022-0.022c0.148-0.275,0.446-0.55,0.806-0.57c0.593,0.043,1.187-0.022,1.697-0.296
		c0.738-0.446,1.733-0.976,1.947-1.909c0.255-0.995-0.045-2.074-0.15-3.071c-0.064-0.486-0.105-0.975-0.064-1.504l0.044-0.064
		c1.312-0.699,2.583-1.526,4.108-1.694C34.133,27.236,34.854,28.062,35.552,28.741"/>
	<path fill="#999999" d="M10.894,31.664c-0.169,0.149-0.402,0.19-0.572,0.338c-0.998,0.679-1.993,1.44-2.755,2.415
		c-0.53,0.658-1.185,1.25-1.884,1.675L5.661,36.07c0.655-1.229,0.508-2.754,1.441-3.876c0.19-0.233,0.465-0.403,0.613-0.658
		c-0.654,0.381-1.347,0.946-1.56,1.667c-0.381,0.911-0.304,2.104-0.897,2.931c-0.252,0.255-0.507,0.467-0.847,0.551
		c-0.36,0.021-0.657,0.19-0.869,0.465l-0.191,0.063c-0.443,0-0.826,0.044-1.228-0.021V37.17c0.106-0.213,0.212-0.486,0.443-0.615
		l-0.019-0.021c0.105-0.084,0.276-0.128,0.38-0.212c0-0.021-0.021-0.085-0.062-0.064c-0.065,0-0.106,0.084-0.149,0.023
		c-0.254,0.042-0.529,0.191-0.679,0.381v0.042l0.044-0.042c-0.064,0.17-0.191,0.36-0.32,0.529c-0.252,0.043-0.423,0.021-0.657,0.021
		L1.085,37.17h0.019c-0.019-0.062,0.041-0.106,0.041-0.19c0.128-0.127,0.236-0.275,0.302-0.403c0.062,0,0.04-0.105,0.082-0.147
		c0.041-0.022,0.062-0.127,0.126-0.127c0.106-0.149,0.319-0.149,0.447-0.233c-0.108-0.043-0.191,0-0.298-0.02v0.02
		c-0.02-0.02-0.064,0.021-0.085,0c-0.084,0-0.169,0.063-0.232,0.042c-0.19,0.17-0.297,0.424-0.487,0.636
		c-0.15,0.105-0.256,0.316-0.319,0.464c-0.191,0.044-0.421,0-0.635,0c-0.064-0.168,0.065-0.296,0.127-0.444
		C0.49,36.43,0.765,35.9,1.273,35.73c0.678-0.022,1.421,0.126,1.948-0.275c0.594-0.404,0.828-1.167,1.315-1.634
		c0.021-0.126,0.126-0.191,0.211-0.295c0.507-0.656,1.039-1.399,1.547-2.119c0.552-0.848,1.08-1.694,1.399-2.627
		C8.65,29.884,9.896,30.625,10.894,31.664"/>
</g>
<g>
	<path fill="#333333" d="M9.896,63.319c0.126,0.146,0.235,0.337,0.318,0.528l-0.022,0.064c-0.38,0.254-0.762,0.634-0.908,1.037
		l0.021,0.021c0.933-1.146,2.246-1.675,3.707-1.61c1.038,0.171,1.819,0.953,2.5,1.76c1.356-0.065,2.477,0.782,3.156,1.885
		l0.276,0.359c-0.491-0.063-0.976-0.063-1.421,0.065c0.528,0.128,1.103,0.104,1.611,0.275c0.973,0.231,1.737,0.91,2.456,1.651
		c0.634,0.424,1.483,0.254,2.225,0.424c0.424,0.062,0.805,0.253,1.271,0.169c1.293-0.277,2.668-0.57,4.067-0.593
		c3.05-0.063,5.804,0.912,8.494,1.863c1.145,0.446,2.247,1.208,3.007,2.267c1.337,1.737,3.009,3.727,5.149,4.259
		c0.528,0.106,1.121,0,1.568-0.254c0.57-0.423,0.783-1.271,0.614-2.035c-0.173-0.507-0.447-0.993-0.868-1.333
		c-0.681-0.594-1.762-1.124-1.592-2.163c0.317-0.825,0.997-1.504,1.524-2.247l0.045,0.023c0,0.507,0.126,0.974,0.359,1.376
		c0.084-0.083,0.041-0.275,0.084-0.402c0.085-0.211,0.171-0.423,0.36-0.57c0.128,0.339,0.211,0.678,0.297,1.036
		c0.085,0.488,0.105,1.059-0.021,1.547c0,0.021,0,0.086,0.041,0.042c0.15-0.212,0.315-0.424,0.55-0.508
		c-0.72,1.525,0.466,3.03-0.021,4.618c-0.147,0.68-0.762,1.356-1.44,1.522c-0.422,0.172-0.931,0.214-1.374,0.13
		c-1.401-0.149-2.651-0.764-3.859-1.422c-0.148-0.04-0.232-0.189-0.361-0.21c0.298,0.53,0.742,0.975,1.209,1.42
		c1.08,0.932,2.307,1.675,3.771,1.865c0.721,0.147,1.567,0.081,2.075,0.634c0.276,0.529,0.128,1.208,0.215,1.78
		c0.084,0.995,0.571,1.819,0.994,2.689c0.104,0.319-0.129,0.553-0.363,0.766c-0.526,0.232-0.613,0.805-0.973,1.121
		c-0.359,0.022-0.826,0.022-1.186,0c0-0.169,0.107-0.36,0.169-0.508c0.128-0.192,0.361-0.233,0.486-0.403
		c-0.318,0.042-0.718,0.17-0.825,0.531l-0.148,0.36c-0.339,0.021-0.7,0.021-0.997,0c0-0.169,0.171-0.297,0.235-0.466
		c0.085-0.341,0.488-0.255,0.655-0.487c-0.126-0.043-0.209,0.062-0.338,0.04c-0.19,0.064-0.381,0.087-0.508,0.255
		c-0.084,0.234-0.275,0.425-0.38,0.658c-0.233,0.021-0.447,0.021-0.68,0c-0.104-0.022-0.082-0.149-0.042-0.213
		c0.189-0.275,0.296-0.594,0.53-0.848c0.336-0.149,0.785,0,1.12-0.19c0.297-0.169,0.659-0.317,0.807-0.679
		c0.044-0.721-0.318-1.354-0.634-1.948c-0.425-0.552-1.039-0.849-1.694-0.89c-1.548-0.211-3.22-0.19-4.661-0.678
		c-1.548-0.468-2.946-1.292-4.194-2.417c-0.849-0.847-1.651-1.841-2.778-2.183c-1.016-0.167-1.946,0.319-2.836,0.68
		c-1.608,0.783-3.157,1.717-4.895,2.138c-1.142,0.362-2.458,0.338-3.686,0.32c-0.405-0.978,0.396-2.415-0.686-3.114
		c-0.719-0.424-1.56-1.059-1.855-1.779c-0.022,0,0,0.04,0,0.063l-0.022-0.063l-0.021,0.021c0.128,0.908,0.953,1.672,1.695,2.181
		c0.869,0.741,0.148,2.162,0.804,2.986c-0.231,0.042-0.402-0.149-0.529-0.318l-0.04,0.041c-0.045,0.448-0.022,0.913,0.209,1.272
		c-0.169-0.063-0.337-0.232-0.444-0.38c-0.021,0.486,0.169,0.974,0.317,1.418c0.298,1.061,0.826,2.078,0.912,3.2
		c0,0.743-0.871,0.721-1.229,1.208c-0.108,0.105-0.17,0.232-0.339,0.21c-0.549,0-1.122,0.045-1.651-0.021
		c-0.086-0.107-0.022-0.233,0-0.36c0.063-0.359,0.465-0.425,0.699-0.573c-0.339,0-0.722,0.087-0.911,0.403
		c-0.084,0.191-0.107,0.404-0.233,0.551c-0.233,0-0.53,0.021-0.743-0.021c-0.045-0.126,0.064-0.253,0.128-0.38
		c0.149-0.339,0.507-0.509,0.826-0.659c0.021-0.021,0-0.042,0.042-0.062c-0.234,0-0.423,0.105-0.656,0.167
		c-0.234,0.193-0.446,0.468-0.616,0.699c-0.042,0.087,0,0.192-0.084,0.255h-0.549c-0.108-0.255,0.127-0.423,0.275-0.614
		c0.232-0.233,0.379-0.592,0.719-0.697c0.616,0,1.378,0.062,1.696-0.53c0.21-0.529-0.169-0.911-0.297-1.354
		c-0.806-1.781-2.541-2.969-3.983-4.366c-0.845-0.953-1.504-2.035-1.482-3.348c-0.041-0.741,0.17-1.545,0-2.265
		c-0.022-0.022-0.041-0.043-0.062-0.043c-0.022,0.254,0,0.488,0,0.72c-0.109,1.081-0.46,2.169-0.058,3.144
		c0.233,0.677,0.905,1.475,1.391,2.047c-0.827-0.275-1.61-0.438-2.097-1.308c-0.106-0.231-0.213-0.684-0.062-0.896
		c0.042-0.085,0.168-0.085,0.232-0.189c-0.634-0.445-0.805-1.229-0.87-1.948v-0.022c-0.083,0.192-0.019,0.402-0.062,0.635
		c0.021,0.509,0.147,1.018,0.529,1.379c-0.231,0.232-0.402,0.655-0.296,0.975c0.147,0.551,0.609,0.873,1.245,1.139
		c0.318,0.169,0.6,0.216,0.916,0.321c-0.677,0.108-1.481,0.278-2.138-0.041c-0.573-0.211-1.083-0.741-1.167-1.356
		c-0.105-0.55-0.127-1.102-0.591-1.481c0.338,0.085,0.572,0.423,0.826,0.635c0.022,0,0.022-0.063,0.022-0.084
		c-0.275-0.593-0.875-0.862-1.299-1.285c-0.531-0.812-0.29-1.616-0.227-2.465c0.064-0.424,0.192-0.806,0.274-1.207
		c-0.063-0.022-0.063,0.062-0.106,0.107c-0.401,0.931-0.65,1.782-0.585,2.886c0.04,0.529,0.439,1.244,0.903,1.582
		c0.531,0.509,0.319,1.314,0.657,1.906c0.382,0.679,1.123,1.039,1.716,1.483v0.043c-0.487-0.129-0.995-0.191-1.505-0.234
		c0.109,0.594,0.232,1.292-0.021,1.885c-0.423-0.995-1.377-1.693-2.225-2.373c-0.655-0.679-0.802-1.758-0.444-2.626
		c0.19,0.892,1.017,1.631,1.609,2.309c0.172,0.212,0.278,0.466,0.382,0.679c0.021-0.867-0.567-1.321-1.03-1.997
		c-0.32-0.467-0.706-1.095-0.726-1.646c-0.024-0.104-0.045-0.212-0.086-0.296l-0.021,0.064c-0.043,0.128-0.043,0.255-0.084,0.383
		c-0.467,0.721-1.025,1.144-0.192,2.626c-0.933-0.699-1.503-1.674-1.567-2.797c-0.021-0.298-0.021-0.528,0.043-0.805
		c0.149,0.062,0.254,0.213,0.403,0.276l0.024-0.042c-0.34-1.378-0.05-2.706,0.233-4.28l-0.023-0.021
		c-0.168,0.276-0.231,0.594-0.358,0.892c-0.022,0.127-0.043,0.297-0.086,0.422h0.022c-0.043,0.087-0.043,0.211-0.063,0.296
		c-0.108,0.679-0.169,1.464-0.065,2.141c-0.488-0.655-0.635-1.504-0.51-2.35l0.065-0.468c-0.126,0.02-0.189,0.192-0.295,0.256
		c0.107-0.447,0.231-1.124-0.213-1.465c-0.273-0.021-0.423,0.32-0.57,0.531c-0.17,0.445-0.635,0.72-1.062,0.805
		c-0.189,0.105-0.293,0.297-0.337,0.508c-0.338-0.083-0.701-0.275-0.784-0.656c-0.084-0.211-0.188-0.445-0.338-0.635
		c0-0.085-0.044-0.192-0.107-0.276c0.063-0.106-0.021-0.297,0.128-0.317c0.4,0.021,0.698,0.274,1.036,0.445
		c0.235,0.021,0.424-0.128,0.53-0.317l0.044-0.169c-0.065,0-0.065-0.107-0.127-0.15c-0.447-0.422-1.103-0.147-1.632-0.212
		c-0.445-0.104-0.507-0.592-0.722-0.931c-0.106-0.149-0.296-0.255-0.274-0.469c0.105-0.104,0.337-0.021,0.508-0.039
		c0.125-0.044,0.275-0.085,0.42-0.128c-0.04,0.063,0,0.191-0.083,0.209v0.023c-0.107,0.04-0.235-0.066-0.319,0.021
		c-0.146,0.083-0.126,0.254-0.146,0.382c0.043,0.021,0.106-0.021,0.127-0.065c0.104-0.147,0.337-0.147,0.463-0.298
		c0.085-0.19,0.193-0.359,0.085-0.57c-0.211,0.211-0.57,0.128-0.848,0.148c0.148-0.316,0.465-0.593,0.719-0.869
		c0.384-0.297,0.787-0.635,0.999-1.058L4.6,67.045c0.148-0.424,0.423-0.89,0.909-0.975c0.212-0.083,0.467-0.083,0.68-0.211
		c0.697-0.656,1.629-0.89,2.16-1.736c0.298-0.424,0.487-0.89,0.636-1.356C9.347,62.745,9.62,63.084,9.896,63.319 M12.08,64.125
		c-0.233,0.084-0.444,0.168-0.657,0.252c-0.808,0.383-1.249,1.25-1.208,2.139c0,0.51,0.211,0.913,0.295,1.378
		c-0.336-0.55-0.57-1.1-0.739-1.693c-0.044,0.316,0.064,0.55,0.125,0.848H9.875c-0.424-0.252-0.933-0.615-1.122-1.103
		c-0.022,0.107,0.021,0.189,0.042,0.278c0.255,0.549,0.605,0.98,1.136,1.233l0.579,0.734c0.425,0.807,0.211,1.78-0.295,2.459
		c-0.297,0.401-0.614,0.825-0.973,1.187c0.148-0.467,0.189-0.975,0.296-1.463c-0.046,0.041-0.087,0.107-0.108,0.168
		c-0.276,1.02-0.699,1.822-1.124,2.905c0-0.636,0.192-1.251,0.17-1.844c-0.403,0.995-0.615,2.309-0.275,3.411h0.021
		c0.022,0-0.021-0.065,0.043-0.087c-0.043-0.783,0.466-1.48,0.785-2.139c0.488-0.976,1.419-1.651,1.8-2.647
		c0.49-1.271-0.305-2.394-0.265-3.709c0.022-0.846,0.413-1.608,1.197-1.927l0.023,0.021c-0.109,0.275-0.262,0.621-0.284,0.919
		c-0.093,0.558,0.027,1.199-0.163,1.771c-0.02,0.148-0.128,0.275-0.128,0.423c0.404-0.654,0.656-1.333,0.653-2.187
		c0-0.466,0.195-0.885,0.322-1.308C12.164,64.145,12.103,64.145,12.08,64.125 M12.48,65.733c-0.191,0.255-0.359,0.508-0.401,0.806
		c-0.424,1.248,0.678,2.245,0.361,3.494c0,0.043-0.021,0.108-0.021,0.149h0.021c0.443-0.87,0.12-1.779-0.07-2.585
		c-0.128-0.655-0.206-1.29,0.133-1.842L12.48,65.733z M5.343,66.56c-0.128,0.126-0.171,0.318-0.171,0.486
		c0.065,0.063,0.107-0.041,0.171,0c0.021,0.023,0.064,0.063,0.04,0.106c-0.274,0.108-0.483,0.277-0.761,0.32
		c-0.043,0.021-0.107,0.021-0.107,0.085c0.169,0.019,0.36,0,0.509-0.045c0.529-0.188,0.975-0.465,1.546-0.508
		c-0.042-0.02,0.042-0.042,0-0.062c-0.042,0-0.022-0.064-0.084-0.085C6.105,66.771,5.618,66.878,5.343,66.56 M15.957,66.835
		c-0.064,0.55-0.529,0.933-0.933,1.291c-0.507,0.531-1.018,1.329-0.995,2.049c-0.042,1.249,0.953,2.061,0.743,3.354L14.75,73.55
		c-0.382-1.104-1.425-1.765-1.382-3.014c0-0.932,0.47-1.753,1.042-2.432c0.085-0.168,0.233-0.379,0.169-0.57
		c-0.128,0.382-0.379,0.697-0.697,0.975c-0.488,0.423-0.929,1.172-0.947,1.809c-0.17,1.292,0.882,2.047,1.433,3.085
		c0.128,0.277,0.19,0.593,0.255,0.89c0.04,0.086-0.021,0.214,0.04,0.277c0.236-0.656,0.361-1.356,0.298-2.121
		c-0.17-0.845-0.55-1.608-0.465-2.54c0.021-0.318,0.062-0.635,0.232-0.849c-0.117,0.735-0.17,1.028,0.277,1.992
		c0.042,0.043-0.021,0.128,0.084,0.128c0.169-0.211,0.274-0.488,0.446-0.722c0.549-0.72,1.27-1.461,2.223-1.461
		c-1.23-0.339-2.076,0.741-2.691,1.608c-0.235-0.464-0.028-1.205,0.059-1.735c0.21-0.637,0.641-0.953,0.832-1.609
		C15.957,67.107,16.042,66.941,15.957,66.835 M8.696,67.385c-1.038-0.19-1.893,0.7-2.802,0.953c-0.127,0.064-0.319-0.02-0.382,0.064
		c0.975,0.212,1.632-0.635,2.544-0.74c0.294-0.044,0.593,0.043,0.762,0.274c0.253,0.509,0.021,0.96-0.191,1.426
		c-0.338,0.7-1.038,1.286-1.355,1.984c-0.128,0.339-0.298,0.743-0.149,1.081h0.021c-0.021-0.784,0.55-1.378,1.08-1.906
		c0.656-0.679,1.355-1.666,0.933-2.641C9.071,67.668,8.887,67.471,8.696,67.385 M11.593,67.853
		c-0.149,0.296-0.149,0.771-0.108,1.068c0.084,0.318,0.276,0.562,0.443,0.857c-0.061-0.658-0.316-1.271-0.316-1.905L11.593,67.853z
		 M5.259,69.334c-0.107,0.065-0.298,0.021-0.254,0.192c0.815-0.075,1.503-0.341,2.16-0.785C6.53,68.889,5.894,69.145,5.259,69.334
		 M4.431,69.248c-0.042,0.299,0.065,0.593-0.02,0.893c-0.022,0.232-0.214,0.422-0.214,0.656c0.042-0.063,0.128-0.044,0.17-0.107
		C4.76,70.192,4.686,69.652,4.431,69.248 M5.089,69.842c-0.022,0.044-0.022,0.087-0.022,0.129l0.409,0.036
		c0.635,0.031,1.138-0.187,1.668-0.439C6.444,69.632,5.767,69.759,5.089,69.842 M5.322,70.287c-0.084,0-0.339-0.084-0.277,0.106
		l0.458,0.171c0.476,0.104,0.73,0.041,1.07,0.041C6.168,70.457,5.723,70.393,5.322,70.287 M30.059,70.562
		c-0.7-0.15-1.882-0.275-2.577-0.19c0.613,0.106,1.365,0.255,1.96,0.401c1.268,0.381,2.424,0.659,3.481,1.462
		c-1.801-0.337-3.566-0.189-5.194,0.234c-1.949,0.572-3.893,1.461-5.651,2.543c1.186-0.445,2.516-0.937,3.708-1.413
		c3.493-1.086,4.528-1.474,7.18-1.258c0.107,0,0.236,0.065,0.34,0.045c-0.021-0.086-0.147-0.225-0.212-0.287
		C32.035,71.336,31.265,70.881,30.059,70.562 M39.45,74.08c-0.085-0.042-0.149-0.169-0.254-0.149
		c0.721,0.573,1.164,1.421,1.378,2.309c0.189,0.679,0.45,1.426,0.852,2.021c0.594,0.762,1.03,1.411,1.097,2.365l-0.015,0.039
		c-1.247,0.108-2.343-0.215-3.401-0.699c-1.433-0.689-2.543-1.803-3.708-2.967c-0.381-0.275-0.841-0.567-1.266-0.674
		c0.021,0.023,0.064,0.041,0.107,0.062c1.396,0.808,2.095,2.458,3.516,3.284c1.378,0.954,3.243,1.421,4.958,1.123
		c0-0.72-0.149-1.313-0.423-1.929c-0.403-0.993-1.306-1.926-1.498-3.005C40.578,75.117,40.085,74.609,39.45,74.08 M32.416,74.546
		c-0.486,0.126-0.935,0.318-1.378,0.549c-2.267,1.229-4.153,3.412-6.632,4.09c0.171,0,0.382-0.022,0.553-0.062
		c1.185-0.404,2.421-0.876,3.435-1.64c1.379-1.081,2.601-2.324,4.189-2.916L32.416,74.546z M15.216,76.918
		c-0.107,0.255,0.021,0.55,0.085,0.763c-0.192-0.126-0.319-0.338-0.402-0.549c-0.042-0.023-0.022-0.106-0.066-0.106
		c0.023,0.485,0.378,0.994,0.759,1.271c0.785,0.611,1.765,0.698,2.589,1.248l-0.042-0.064c-0.38-0.636-1.269-0.699-1.44-1.481
		h-0.021c-0.022,0.233,0.106,0.421,0.191,0.614c-0.51-0.106-0.743-0.68-0.87-1.059c-0.063,0.104-0.022,0.21,0,0.317
		c0.021,0.127,0.085,0.253,0.063,0.36C15.574,77.954,15.319,77.428,15.216,76.918 M18.583,77.573
		c0.129,0.724,0.757,1.393,1.413,1.604c0.39,0.46,0.397,1.243,0.46,1.625c0.19,1.397,0.671,1.964,1.115,3.276
		c0.127,0.423,0.106,0.869,0.127,1.314l0.021,0.021c0.36-0.934-0.105-1.845-0.401-2.669c-0.299-0.764-0.362-1.591-0.469-2.395
		c-0.105-0.529-0.062-1.145-0.549-1.483C19.622,78.613,19.027,78.211,18.583,77.573 M43.962,80.837l0.044,0.107
		c0.317,0.233,0.76,0.212,1.162,0.296c1.097,0.197,1.705,0.04,2.72,1.116c0.389,0.74,0.646,1.318,1.052,1.999l0.062,0.02
		c-0.274-0.656-0.528-1.334-0.762-2.013c-0.171-0.571-0.721-1.037-1.294-1.143C45.951,81.092,44.915,81.05,43.962,80.837"/>
	<path fill="#333333" d="M35.552,78.74v0.064c-1.146,1.059-2.478,2.118-3.348,3.41c-0.147,0.253-0.257,0.531-0.383,0.784
		c0.179-1.597,0.53-2.352,0.935-3.473c-0.721,1.034-1.187,2.242-1.23,3.6c0,0.571,0.085,1.123,0.171,1.653
		c0,0.486-0.509,0.655-0.828,0.806c-0.231,0.084-0.442,0.21-0.654,0.294c0.148-0.317,0.372-0.415,0.515-1.121
		c0.043-0.721-0.155-1.398,0.077-2.055c-0.022-0.065,0.021-0.085,0-0.129c-0.148,0.149-0.189,0.403-0.255,0.615
		c-0.229,0.996-0.041,2.205-0.891,2.924c-0.486,0.361-0.951,0.636-1.439,0.975l-0.38,0.107l-1.315-0.022
		c0.045-0.231,0.15-0.508,0.405-0.635c0.149-0.063,0.339-0.106,0.423-0.275c-0.064-0.063-0.169,0.081-0.255,0.105
		c-0.358,0.064-0.784,0.297-0.869,0.679c-0.02,0.252-0.358,0.106-0.53,0.148c-0.146-0.022-0.316,0.021-0.401-0.042
		c-0.02-0.277,0.341-0.488,0.469-0.722c0.125-0.148,0.358-0.169,0.443-0.338c-0.318,0.083-0.724,0.106-0.871,0.465
		c-0.083,0.234-0.378,0.361-0.402,0.614c-0.188,0.042-0.382,0.022-0.572,0.022c-0.085-0.065-0.085-0.17-0.042-0.253
		c0.084-0.193,0.232-0.363,0.36-0.51l-0.022-0.021c0.148-0.277,0.446-0.551,0.806-0.572c0.593,0.042,1.187-0.021,1.697-0.296
		c0.738-0.447,1.733-0.977,1.947-1.907c0.255-0.996-0.045-2.074-0.15-3.073c-0.064-0.484-0.105-0.973-0.064-1.503l0.044-0.064
		c1.312-0.698,2.583-1.525,4.108-1.693C34.133,77.236,34.854,78.062,35.552,78.74"/>
	<path fill="#333333" d="M10.894,81.664c-0.169,0.149-0.402,0.189-0.572,0.337c-0.998,0.681-1.993,1.441-2.755,2.415
		c-0.53,0.658-1.185,1.252-1.884,1.675L5.661,86.07c0.655-1.229,0.508-2.755,1.441-3.877c0.19-0.231,0.465-0.401,0.613-0.657
		c-0.654,0.381-1.347,0.947-1.56,1.668c-0.381,0.909-0.304,2.105-0.897,2.93c-0.252,0.253-0.507,0.466-0.847,0.552
		c-0.36,0.021-0.657,0.19-0.869,0.466l-0.191,0.062c-0.443,0-0.826,0.043-1.228-0.021v-0.022c0.106-0.213,0.212-0.485,0.443-0.614
		l-0.019-0.022c0.105-0.084,0.276-0.127,0.38-0.21c0-0.022-0.021-0.087-0.062-0.065c-0.065,0-0.106,0.082-0.149,0.022
		c-0.254,0.043-0.529,0.19-0.679,0.38v0.043l0.044-0.043c-0.064,0.17-0.191,0.361-0.32,0.529c-0.252,0.045-0.423,0.022-0.657,0.022
		l-0.019-0.042h0.019c-0.019-0.062,0.041-0.108,0.041-0.19c0.128-0.127,0.236-0.276,0.302-0.403c0.062,0,0.04-0.106,0.082-0.148
		c0.041-0.021,0.062-0.127,0.126-0.127c0.106-0.148,0.319-0.148,0.447-0.233c-0.108-0.042-0.191,0-0.298-0.021v0.021
		c-0.02-0.021-0.064,0.02-0.085,0c-0.084,0-0.169,0.063-0.232,0.042C1.296,86.28,1.189,86.534,1,86.745
		c-0.15,0.107-0.256,0.317-0.319,0.466c-0.191,0.043-0.421,0-0.635,0c-0.064-0.168,0.065-0.295,0.127-0.445
		c0.318-0.338,0.592-0.867,1.101-1.037c0.678-0.021,1.421,0.126,1.948-0.275c0.596-0.4,0.83-1.162,1.316-1.63
		c0.021-0.127,0.126-0.19,0.211-0.296c0.507-0.655,1.039-1.398,1.547-2.118c0.552-0.85,1.08-1.693,1.399-2.628
		C8.65,79.886,9.896,80.625,10.894,81.664"/>
</g>
</svg>
