<?xml version="1.0" encoding="utf-8"?>
<!-- Generator: Adobe Illustrator 16.0.4, SVG Export Plug-In . SVG Version: 6.00 Build 0)  -->
<!DOCTYPE svg PUBLIC "-//W3C//DTD SVG 1.1//EN" "http://www.w3.org/Graphics/SVG/1.1/DTD/svg11.dtd">
<svg version="1.1" id="Layer_1" xmlns="http://www.w3.org/2000/svg" xmlns:xlink="http://www.w3.org/1999/xlink" x="0px" y="0px"
	 width="50px" height="100px" viewBox="0 0 50 100" enable-background="new 0 0 50 100" xml:space="preserve">
<g>
	<path fill="#333333" d="M49.829,65.854c0-3.245-2.934-3.405-3.521-3.405s-1.836,0.12-3.302,0.833
		c-1.155,0.561-8.072,4.929-11.507,6.759c0.34,0.605,0.438,1.264,0.438,1.809v2.269c2.692-0.666,6.242-1.159,6.242,0.88
		c0,2.042-3.548,1.551-6.242,0.882v2.269c0,0.548-0.098,1.201-0.438,1.809c3.435,1.829,10.352,6.198,11.507,6.759
		c1.466,0.711,2.715,0.83,3.302,0.83s3.521-0.157,3.521-3.402c0-3.248-0.588-3.286-0.588-9.147
		C49.241,69.141,49.829,69.101,49.829,65.854z"/>
	<path fill="#333333" d="M18.062,75.88c-2.694,0.666-6.244,1.16-6.244-0.882c0-2.038,3.549-1.546,6.244-0.88V71.85
		c0-0.545,0.097-1.203,0.437-1.809c-3.435-1.83-10.352-6.198-11.506-6.759c-1.467-0.713-2.714-0.833-3.3-0.833
		s-3.521,0.16-3.521,3.405c0,3.246,0.587,3.286,0.587,9.144c0,5.862-0.587,5.899-0.587,9.146c0,3.245,2.935,3.405,3.521,3.405
		c0.587,0,1.833-0.12,3.3-0.832c1.155-0.561,8.072-4.93,11.506-6.757c-0.34-0.608-0.437-1.262-0.437-1.812V75.88z"/>
	<path fill="#333333" d="M30.38,71.853c0-0.979-0.463-1.344-0.913-1.577c-1.267-0.652-2.804-1.04-4.467-1.04
		c-1.661,0-3.202,0.388-4.468,1.04c-0.451,0.233-0.914,0.598-0.914,1.577c0,0.319,0,5.976,0,6.296c0,0.979,0.463,1.347,0.914,1.577
		c1.266,0.653,2.806,1.039,4.468,1.039c1.663,0,3.2-0.384,4.467-1.039c0.45-0.23,0.913-0.599,0.913-1.577
		C30.38,77.826,30.38,72.172,30.38,71.853z"/>
</g>
<g>
	<path fill="#999999" d="M49.829,16.851c0-3.247-2.934-3.404-3.521-3.404s-1.836,0.12-3.302,0.832
		c-1.155,0.561-8.072,4.929-11.507,6.758c0.34,0.606,0.438,1.263,0.438,1.81v2.269c2.692-0.668,6.242-1.16,6.242,0.878
		c0,2.043-3.548,1.55-6.242,0.883v2.267c0,0.549-0.098,1.202-0.438,1.81c3.435,1.828,10.352,6.198,11.507,6.757
		c1.466,0.711,2.715,0.832,3.302,0.832s3.521-0.158,3.521-3.405c0-3.246-0.588-3.284-0.588-9.145
		C49.241,20.138,49.829,20.096,49.829,16.851z"/>
	<path fill="#999999" d="M18.062,26.876c-2.694,0.666-6.244,1.16-6.244-0.883c0-2.037,3.549-1.546,6.244-0.878v-2.269
		c0-0.547,0.097-1.204,0.437-1.81c-3.435-1.83-10.352-6.198-11.506-6.758c-1.467-0.712-2.714-0.832-3.3-0.832
		s-3.521,0.157-3.521,3.404c0,3.246,0.587,3.287,0.587,9.143c0,5.862-0.587,5.9-0.587,9.146c0,3.247,2.935,3.405,3.521,3.405
		c0.587,0,1.833-0.12,3.3-0.832c1.155-0.56,8.072-4.93,11.506-6.757c-0.34-0.608-0.437-1.261-0.437-1.811V26.876z"/>
	<path fill="#999999" d="M30.38,22.847c0-0.979-0.463-1.344-0.913-1.578c-1.267-0.651-2.804-1.04-4.467-1.04
		c-1.661,0-3.202,0.388-4.468,1.04c-0.451,0.234-0.914,0.598-0.914,1.578c0,0.319,0,5.976,0,6.297c0,0.978,0.463,1.346,0.914,1.576
		c1.266,0.655,2.806,1.04,4.468,1.04c1.663,0,3.2-0.383,4.467-1.04c0.45-0.23,0.913-0.598,0.913-1.576
		C30.38,28.821,30.38,23.166,30.38,22.847z"/>
</g>
</svg>
