<?xml version="1.0" encoding="utf-8"?>
<!-- Generator: Adobe Illustrator 16.0.4, SVG Export Plug-In . SVG Version: 6.00 Build 0)  -->
<!DOCTYPE svg PUBLIC "-//W3C//DTD SVG 1.1//EN" "http://www.w3.org/Graphics/SVG/1.1/DTD/svg11.dtd">
<svg version="1.1" id="Layer_1" xmlns="http://www.w3.org/2000/svg" xmlns:xlink="http://www.w3.org/1999/xlink" x="0px" y="0px"
	 width="50px" height="100px" viewBox="0 0 50 100" enable-background="new 0 0 50 100" xml:space="preserve">
<g>
	<path fill="#999999" d="M30.621,0.844c-0.65,0-1.289,0.111-1.898,0.33c-2.021-1.581-5.001-1.565-7.013,0.045
		c-0.595-0.203-1.213-0.305-1.847-0.305c-3.259,0-5.904,2.733-5.904,6.092c-0.001,2.148,1.11,4.138,2.875,5.229l-0.004,6.282
		c2.606-0.779,5.543-1.428,8.148-1.428c2.909,0,5.801,0.615,8.268,1.367v-0.175c0-0.015,0.006-0.022,0.006-0.041l-0.014-5.534
		c2.011-0.896,3.23-3.014,3.23-5.7C36.469,3.61,33.841,0.844,30.621,0.844z"/>
	<path fill="#999999" d="M24.754,33.363l-6.878-3.943l-1.11,1.956h0.03c-4.248,1.368-6.51,3.826-6.51,8.543v9.741h7.647v-11.9
		L24.754,33.363z"/>
	<path fill="#999999" d="M33.205,31.378h0.089L32.4,29.43l-13.681,8.786v11.447h20.995v-9.741
		C39.714,35.204,36.73,32.475,33.205,31.378z"/>
	<g>
		<path fill="#999999" d="M16.828,20.586c0,0-0.017,0.027-0.017,0.162c0,5.476,3.667,9.913,8.192,9.913
			c4.522,0,8.188-4.437,8.188-9.913c0-0.08-0.008-0.158-0.01-0.239c-2.455-0.745-5.322-1.349-8.208-1.349
			C22.372,19.158,19.436,19.807,16.828,20.586z"/>
	</g>
</g>
<g>
	<path fill="#333333" d="M30.621,50.912c-0.65,0-1.289,0.111-1.898,0.33c-2.021-1.582-5.001-1.565-7.013,0.043
		c-0.595-0.201-1.213-0.303-1.847-0.303c-3.259,0-5.904,2.729-5.904,6.09c-0.001,2.147,1.11,4.137,2.875,5.229l-0.004,6.281
		c2.606-0.781,5.543-1.426,8.148-1.426c2.909,0,5.801,0.612,8.268,1.366v-0.178c0-0.016,0.006-0.021,0.006-0.041l-0.014-5.535
		c2.011-0.895,3.23-3.014,3.23-5.699C36.469,53.678,33.841,50.912,30.621,50.912z"/>
	<path fill="#333333" d="M24.754,83.432l-6.878-3.942l-1.11,1.954h0.03c-4.248,1.367-6.51,3.826-6.51,8.543v9.742h7.647V87.826
		L24.754,83.432z"/>
	<path fill="#333333" d="M33.205,81.443h0.089L32.4,79.496l-13.681,8.787v11.445h20.995v-9.742
		C39.714,85.27,36.73,82.543,33.205,81.443z"/>
	<g>
		<path fill="#333333" d="M16.828,70.652V70.41c-0.004,0.137-0.017,0.268-0.017,0.402c0,5.477,3.667,9.912,8.192,9.912
			c4.522,0,8.188-4.439,8.188-9.912c0-0.08-0.008-0.158-0.01-0.238c-2.455-0.746-5.322-1.35-8.208-1.35
			C22.372,69.225,19.436,69.873,16.828,70.652z"/>
	</g>
</g>
</svg>
