<?xml version="1.0" encoding="utf-8"?>
<!-- Generator: Adobe Illustrator 16.0.4, SVG Export Plug-In . SVG Version: 6.00 Build 0)  -->
<!DOCTYPE svg PUBLIC "-//W3C//DTD SVG 1.1//EN" "http://www.w3.org/Graphics/SVG/1.1/DTD/svg11.dtd">
<svg version="1.1" id="Layer_1" xmlns="http://www.w3.org/2000/svg" xmlns:xlink="http://www.w3.org/1999/xlink" x="0px" y="0px"
	 width="50px" height="100px" viewBox="0 0 50 100" enable-background="new 0 0 50 100" xml:space="preserve">
<g>
	<polygon fill="#999999" points="47.386,9.952 2.613,9.952 24.66,30.931 	"/>
	<polygon fill="#999999" points="49.838,10.208 34.439,24.472 49.838,38.977 	"/>
	<polygon fill="#999999" points="0.162,10.209 0.162,38.943 15.334,24.653 	"/>
	<polygon fill="#999999" points="33.749,25.113 24.66,33.532 16.016,25.303 0.357,40.048 49.605,40.048 	"/>
</g>
<g>
	<polygon fill="#333333" points="47.386,59.949 2.613,59.949 24.66,80.93 	"/>
	<polygon fill="#333333" points="49.838,60.208 34.439,74.473 49.838,88.978 	"/>
	<polygon fill="#333333" points="0.162,60.208 0.162,88.943 15.334,74.652 	"/>
	<polygon fill="#333333" points="33.749,75.112 24.66,83.532 16.016,75.303 0.357,90.051 49.605,90.051 	"/>
</g>
</svg>
