<?xml version="1.0" encoding="utf-8"?>
<!-- Generator: Adobe Illustrator 16.0.4, SVG Export Plug-In . SVG Version: 6.00 Build 0)  -->
<!DOCTYPE svg PUBLIC "-//W3C//DTD SVG 1.1//EN" "http://www.w3.org/Graphics/SVG/1.1/DTD/svg11.dtd">
<svg version="1.1" id="Layer_1" xmlns="http://www.w3.org/2000/svg" xmlns:xlink="http://www.w3.org/1999/xlink" x="0px" y="0px"
	 width="50px" height="100px" viewBox="0 0 50 100" enable-background="new 0 0 50 100" xml:space="preserve">
<g>
	<g>
		<path fill="#333333" d="M13.938,50.187c-1.468,0-2.661,1.192-2.661,2.661v7.06c0,1.468,1.192,2.662,2.661,2.662
			c1.469,0,2.663-1.192,2.663-2.662v-7.06C16.601,51.379,15.407,50.187,13.938,50.187z M36.059,50.187
			c-1.466,0-2.659,1.192-2.659,2.661v7.06c0,1.468,1.191,2.662,2.659,2.662c1.47,0,2.665-1.192,2.665-2.662v-7.06
			C38.724,51.379,37.528,50.187,36.059,50.187z"/>
	</g>
	<path fill="#333333" d="M43.032,56.378h-2.669v3.529c0,2.37-1.933,4.301-4.305,4.301c-2.368,0-4.298-1.931-4.298-4.301v-3.529
		H18.239v3.529c0,2.37-1.93,4.301-4.3,4.301s-4.301-1.931-4.301-4.301v-3.529h-2.67c-2.03,0-3.684,1.655-3.684,3.687v36.063
		c0,2.031,1.654,3.686,3.684,3.686h36.065c2.029,0,3.685-1.654,3.685-3.686V60.064C46.717,58.033,45.062,56.378,43.032,56.378z
		 M44.261,96.128c0,0.678-0.555,1.229-1.229,1.229H6.967c-0.678,0-1.229-0.552-1.229-1.229V69.517h38.522V96.128z"/>
	
		<line fill="none" stroke="#333333" stroke-width="2" stroke-linecap="round" stroke-miterlimit="10" x1="33.673" y1="74.231" x2="16" y2="91.907"/>
	
		<line fill="none" stroke="#333333" stroke-width="2" stroke-linecap="round" stroke-miterlimit="10" x1="33.676" y1="91.907" x2="16" y2="74.231"/>
</g>
<g>
	<g>
		<path fill="#999999" d="M13.938,0.187c-1.468,0-2.661,1.193-2.661,2.661v7.06c0,1.467,1.192,2.662,2.661,2.662
			c1.469,0,2.663-1.193,2.663-2.662v-7.06C16.601,1.38,15.407,0.187,13.938,0.187z M36.059,0.187c-1.466,0-2.659,1.193-2.659,2.661
			v7.06c0,1.467,1.191,2.662,2.659,2.662c1.47,0,2.665-1.193,2.665-2.662v-7.06C38.724,1.38,37.528,0.187,36.059,0.187z"/>
	</g>
	<path fill="#999999" d="M43.032,6.377h-2.669v3.53c0,2.37-1.933,4.301-4.305,4.301c-2.368,0-4.298-1.931-4.298-4.301v-3.53H18.239
		v3.53c0,2.37-1.93,4.301-4.3,4.301s-4.301-1.931-4.301-4.301v-3.53h-2.67c-2.03,0-3.684,1.655-3.684,3.687v36.063
		c0,2.031,1.654,3.685,3.684,3.685h36.065c2.029,0,3.685-1.654,3.685-3.685V10.064C46.717,8.033,45.062,6.377,43.032,6.377z
		 M44.261,46.128c0,0.679-0.555,1.229-1.229,1.229H6.967c-0.678,0-1.229-0.55-1.229-1.229V19.517h38.522V46.128z"/>
	
		<line fill="none" stroke="#999999" stroke-width="2" stroke-linecap="round" stroke-miterlimit="10" x1="33.673" y1="24.231" x2="16" y2="41.907"/>
	
		<line fill="none" stroke="#999999" stroke-width="2" stroke-linecap="round" stroke-miterlimit="10" x1="33.676" y1="41.907" x2="16" y2="24.231"/>
</g>
</svg>
