<?xml version="1.0" encoding="utf-8"?>
<!-- Generator: Adobe Illustrator 16.0.3, SVG Export Plug-In . SVG Version: 6.00 Build 0)  -->
<!DOCTYPE svg PUBLIC "-//W3C//DTD SVG 1.1//EN" "http://www.w3.org/Graphics/SVG/1.1/DTD/svg11.dtd">
<svg version="1.1" id="Layer_1" xmlns="http://www.w3.org/2000/svg" xmlns:xlink="http://www.w3.org/1999/xlink" x="0px" y="0px"
	 width="50px" height="50px" viewBox="0 0 50 50" enable-background="new 0 0 50 50" xml:space="preserve">
<g>
	<path fill="#BDA770" d="M38.957,28.594c-0.471-0.92-0.986-1.208-1.871-0.678c-1.213,0.725-2.322,0.559-3.533-0.156
		c-1.521-0.896-3.15-1.596-4.74-2.37c-0.337-0.164-0.697-0.279-1.281-0.508c-1.248,0.495-2.581,0.952-3.903,1.476
		c-0.077-0.124-0.433-0.283-0.603-0.518c-0.076-0.104-1.4-0.805-1.538-0.805c-0.288,0-0.833,0.01-1.065,0.056
		c-0.977,0.195-2.022,0.349-3.06,0.675c-0.708,0.222-1.459,0.393-2.152,0.393c-0.629,0-1.163-0.19-1.678-0.559
		c-0.684-0.49-2.685-0.558-2.704-0.558c-0.176,0-0.533-0.003-0.883,0.157c-1.725-1.115-1.029-0.58-2.877-1.807
		c-0.738-0.489-1.153-0.383-1.609,0.388c-1.672,2.823-3.379,5.63-5.118,8.412c-0.479,0.767-0.355,1.194,0.383,1.646
		c1.871,1.145,0.993,0.528,2.823,1.736c0.216,0.145,0.406,0.244,0.584,0.296c0.08,0.11,0.176,0.21,0.29,0.288
		c0.899,0.622,2.192,1.408,3.444,2.171c1.146,0.698,2.331,1.422,3.067,1.931c0.135,0.092,0.28,0.149,0.431,0.184
		c0,0.004-0.002,0.008-0.003,0.014c-0.15,0.948,0.312,1.585,1.188,1.816c0.6,0.162,1.297-0.308,1.713-1.04
		c-0.245,0.504-0.427,1.046-0.521,1.582c-0.111,0.629,0.392,1.555,0.882,1.866c0.204,0.133,0.482,0.16,0.679,0.16
		c0.441,0,1-0.136,1.25-0.439c0.071-0.088,0.135-0.185,0.2-0.276c-0.071,0.212-0.138,0.422-0.198,0.636
		c-0.14,0.511-0.234,1.461,0.719,2.123c0.262,0.182,0.574,0.277,0.908,0.277c0.521,0,1.07-0.248,1.305-0.586
		c0.134-0.191,0.261-0.396,0.384-0.598c-0.159,0.388-0.304,0.786-0.423,1.19c-0.185,0.626,0.061,1.56,1.029,2.134
		c0.288,0.172,0.589,0.258,0.894,0.258c0.634,0,1.188-0.376,1.523-1.03c0.036-0.069,0.069-0.136,0.104-0.201
		c-0.03,0.26,0.016,0.563,0.163,0.744C23.654,49.688,24.193,50,24.761,50c0.359,0,0.718-0.13,1.07-0.382
		c0.906-0.656,1.321-1.354,1.219-2.013c0.616,0.576,1.344,0.893,2.072,0.893c0.519,0,1.294-0.16,2.047-0.916
		c0.339-0.341,0.542-0.692,0.658-1.019c0.459,0.242,0.932,0.368,1.397,0.368c0.719,0,1.391-0.307,1.888-0.86
		c0.254-0.28,0.442-0.588,0.564-0.914c0.43,0.244,0.872,0.368,1.321,0.368c0.518,0,1.282-0.172,1.981-0.988
		c1.041-1.212,0.938-2.763-0.263-3.951c-0.012-0.012-0.027-0.027-0.04-0.04c0.234-0.048,0.475-0.184,0.743-0.407
		c1.009-0.839,2.069-1.619,3.151-2.356c0.721-0.488,0.905-0.902,0.41-1.757C41.574,33.589,40.24,31.104,38.957,28.594z
		 M14.378,41.007c0.06-0.131,0.108-0.267,0.148-0.408c0.025,0.01,0.05,0.018,0.076,0.027C14.524,40.748,14.448,40.876,14.378,41.007
		z M21.312,43.154c0.024-0.052,0.048-0.104,0.073-0.151c0.015,0.016,0.029,0.038,0.046,0.056
		C21.388,43.089,21.347,43.117,21.312,43.154z M38.033,43.685c-0.327,0.383-0.678,0.551-1.035,0.551
		c-0.392,0-0.791-0.202-1.175-0.551c-0.662-0.594-1.312-1.204-1.965-1.808c-2.178-2.019-4.351-4.043-6.539-6.052
		c-0.268-0.244-0.617-0.397-0.928-0.594c-0.079,0.1-0.157,0.204-0.235,0.302c0.327,0.356,0.634,0.732,0.984,1.061
		c2.2,2.059,4.415,4.101,6.613,6.159c0.938,0.876,1.074,1.73,0.431,2.444c-0.264,0.294-0.595,0.444-0.96,0.444
		c-0.459,0-0.973-0.234-1.479-0.702c-2.275-2.103-4.617-4.109-6.893-6.212c-0.279-0.26-0.595-0.476-0.894-0.71
		c-0.104,0.103-0.208,0.208-0.312,0.309c0.256,0.322,0.481,0.674,0.775,0.954c1.758,1.662,3.612,3.2,5.379,4.849
		c1.003,0.938,1.192,1.818,0.483,2.532c-0.381,0.383-0.778,0.546-1.164,0.546c-0.494,0-0.968-0.268-1.361-0.689
		c-1.784-1.57-2.484-1.889-3.503-3.281c-0.225-0.306-0.573-0.691-0.967-0.712c-1.073-0.046-0.915-0.446-1.505-1.226
		c-0.556-0.734-1.404-1.242-2.196-1.242c-0.318,0-0.628,0.082-0.904,0.266c-0.842-1.026-1.348-1.477-2.015-1.477
		c-0.44,0-0.952,0.198-1.681,0.555c-0.79-0.683-1.248-1.215-1.806-1.215c-0.406,0-0.867,0.286-1.548,1.003
		c-1.508-1.041-4.568-2.789-6.314-3.967c0.013-0.021,0.023-0.036,0.037-0.059c1.609-2.763,3.304-5.475,4.959-8.209
		c0.108-0.183,0.204-0.374,0.33-0.622c0.053-0.004,0.113-0.006,0.18-0.006c0.639,0,1.812,0.193,1.981,0.313
		c0.793,0.566,1.593,0.772,2.4,0.772c0.829,0,1.669-0.216,2.522-0.484c0.959-0.3,1.954-0.474,2.932-0.712
		c0.986-0.242,1.398,0.592,1.771,1.116c-0.426,0.19-0.848,0.15-1.261,0.362c-1.59,0.826-2.979,1.958-4.382,3.116
		c-0.42,0.348-0.918,1.086-0.785,1.452c0.207,0.574,0.854,1.12,1.439,1.332c0.301,0.108,0.674,0.068,1.042-0.012
		c0.182,0.08,0.383,0.116,0.608,0.116c0.191,0,0.398-0.034,0.626-0.098c1.894-0.543,3.792-1.553,5.628-2.271
		c0.378-0.148,0.711-0.229,1.02-0.229c0.031,0,0.062,0.004,0.092,0.006c0.092,0.062,0.185,0.13,0.28,0.208
		c1.274,1.061,2.559,2.11,3.844,3.155c2.222,2.196,4.466,4.438,6.706,6.511c0.187,0.174,0.367,0.354,0.549,0.534
		C38.517,42.183,38.659,42.955,38.033,43.685z M49.598,33.275c-1.584-2.979-3.193-5.943-4.756-8.934
		c-0.373-0.716-0.779-0.762-1.414-0.4c-1.978,1.127-1.236,0.851-3.248,1.914c-0.81,0.429-0.855,0.887-0.449,1.641
		c1.567,2.891,3.117,5.791,4.635,8.707c0.381,0.732,0.785,0.895,1.498,0.484c2.011-1.154,1.328-0.856,3.346-1.996
		c0.269-0.154,0.49-0.395,0.735-0.594C49.797,33.739,49.719,33.495,49.598,33.275z"/>
</g>
</svg>
