<?xml version="1.0" encoding="utf-8"?>
<!-- Generator: Adobe Illustrator 16.0.3, SVG Export Plug-In . SVG Version: 6.00 Build 0)  -->
<!DOCTYPE svg PUBLIC "-//W3C//DTD SVG 1.1//EN" "http://www.w3.org/Graphics/SVG/1.1/DTD/svg11.dtd">
<svg version="1.1" id="Layer_1" xmlns="http://www.w3.org/2000/svg" xmlns:xlink="http://www.w3.org/1999/xlink" x="0px" y="0px"
	 width="50px" height="50px" viewBox="0 0 50 50" enable-background="new 0 0 50 50" xml:space="preserve">
<g>
	<polygon fill-rule="evenodd" clip-rule="evenodd" fill="#BDA770" points="11.44,32.18 5.777,26.519 17.103,26.519 	"/>
	<path fill="#BDA770" d="M26.763,15.081c-8.619,0-15.779,6.283-17.19,14.507l1.938-0.189c1.456-7.085,7.742-12.43,15.252-12.43
		c8.587,0,15.572,6.985,15.572,15.572c0,8.586-6.985,15.571-15.572,15.571c-7.321,0-13.452-5.088-15.106-11.907H9.729
		C11.42,44.073,18.396,50,26.763,50c9.628,0,17.46-7.832,17.46-17.459C44.223,22.913,36.391,15.081,26.763,15.081z"/>
</g>
<path fill="#BDA770" d="M32.71,40c-0.055,0-0.082-0.412-0.297-0.45c-0.33-0.055-1.188-0.072-1.488-0.142
	c-2.177-0.492-3.21-1.531-3.626-3.685c-0.1-0.517-0.139-1.411-0.137-1.81c0.005,0.008,0.01,0.043,0.013,0.05
	c0.509,0.968,1.05,1.79,2.085,2.234c2.018,0.869,4.203-0.219,4.623-2.347c0.21-1.061-0.033-2.057-0.623-2.97
	c-0.486-0.753-1.12-1.374-1.771-1.983c-0.854-0.799-1.728-1.58-2.515-2.44c-1.046-1.146-1.599-2.21-2.076-3.72
	c-0.478,1.51-1.029,2.576-2.076,3.721c-0.787,0.859-1.66,1.645-2.515,2.442c-0.651,0.609-1.285,1.231-1.771,1.985
	c-0.59,0.913-0.833,1.91-0.623,2.972c0.421,2.128,2.604,3.224,4.623,2.354c1.018-0.438,1.557-1.225,2.059-2.168
	c-0.003,0.433-0.043,1.305-0.137,1.793c-0.417,2.151-1.572,3.154-3.748,3.646c-0.302,0.069-1.019,0.055-1.35,0.11
	C21.144,39.63,21.102,40,21.108,40H32.71z"/>
</svg>
