<?xml version="1.0" encoding="utf-8"?>
<!-- Generator: Adobe Illustrator 16.0.3, SVG Export Plug-In . SVG Version: 6.00 Build 0)  -->
<!DOCTYPE svg PUBLIC "-//W3C//DTD SVG 1.1//EN" "http://www.w3.org/Graphics/SVG/1.1/DTD/svg11.dtd">
<svg version="1.1" id="Layer_1" xmlns="http://www.w3.org/2000/svg" xmlns:xlink="http://www.w3.org/1999/xlink" x="0px" y="0px"
	 width="50px" height="50px" viewBox="0 0 50 50" enable-background="new 0 0 50 50" xml:space="preserve">
<g>
	<rect x="42.539" y="24.979" fill="#BDA770" width="4.75" height="25.021"/>
	<polygon fill="#BDA770" points="2.711,24.068 2.711,19.685 25,12.172 47.289,19.685 47.289,24.068 	"/>
	<rect x="2.711" y="24.979" fill="#BDA770" width="4.75" height="25.021"/>
	<g>
		<polygon fill="#BDA770" points="9.008,50 9.184,50 13.805,24.979 11.318,24.979 		"/>
		<polygon fill="#BDA770" points="14.109,24.979 9.49,50 9.814,50 16.748,24.979 		"/>
		<polygon fill="#BDA770" points="11.012,24.979 8.373,24.979 8.373,50 8.701,50 		"/>
	</g>
	<g>
		<polygon fill="#BDA770" points="40.992,50 40.816,50 36.195,24.979 38.682,24.979 		"/>
		<polygon fill="#BDA770" points="35.891,24.979 40.512,50 40.186,50 33.252,24.979 		"/>
		<polygon fill="#BDA770" points="38.988,24.979 41.629,24.979 41.629,50 41.299,50 		"/>
	</g>
</g>
</svg>
