<?xml version="1.0" encoding="utf-8"?>
<!-- Generator: Adobe Illustrator 16.0.3, SVG Export Plug-In . SVG Version: 6.00 Build 0)  -->
<!DOCTYPE svg PUBLIC "-//W3C//DTD SVG 1.1//EN" "http://www.w3.org/Graphics/SVG/1.1/DTD/svg11.dtd">
<svg version="1.1" id="Layer_1" xmlns="http://www.w3.org/2000/svg" xmlns:xlink="http://www.w3.org/1999/xlink" x="0px" y="0px"
	 width="50px" height="50px" viewBox="0 0 50 50" enable-background="new 0 0 50 50" xml:space="preserve">
<g>
	<path fill="none" d="M39.694,21.609c-2.349-1.093-6.418-1.944-13.116-0.696c-0.029-0.469-0.132-0.934-0.32-1.38
		c-0.57-1.35-1.779-2.267-3.239-2.634c0.848-1.577,1.615-2.637,2.259-3.33c-0.094-0.002-0.184-0.015-0.277-0.015
		c-4.048,0-7.77,1.396-10.734,3.716c0.643,0.273,1.465,0.724,2.487,1.443c-1.499,1.502-2.095,3.588-1.331,5.395
		c0.026,0.064,0.065,0.121,0.096,0.183c-4.371,1.987-6.707,4.204-7.95,5.942c-0.012,0.266-0.04,0.526-0.04,0.794
		c0,7.207,4.387,13.406,10.629,16.074c-1.857-4.281-0.871-12.959,1.092-20.248c0.289,0.042,0.584,0.069,0.887,0.069
		c0.86,0,1.758-0.174,2.631-0.543c0.526-0.222,1.006-0.502,1.438-0.824c5.402,5.574,11.711,12.761,13.695,17.218
		c2.831-3.106,4.574-7.222,4.574-11.746C42.473,27.559,41.444,24.331,39.694,21.609z M25.065,22.834
		c-0.548,1.073-1.526,1.95-2.756,2.469c-0.731,0.31-1.485,0.466-2.242,0.466c-1.71,0-3.108-0.797-3.65-2.08
		c-0.811-1.92,0.515-4.32,2.952-5.35c0.731-0.309,1.486-0.466,2.242-0.466c1.71,0,3.108,0.797,3.65,2.081
		C25.634,20.833,25.564,21.856,25.065,22.834z"/>
	<path fill="#BDA770" d="M39.694,21.609c1.75,2.722,2.778,5.949,2.778,9.418c0,4.524-1.743,8.64-4.574,11.746
		c0.26,0.586,0.467,1.137,0.565,1.617c3.403-3.431,5.509-8.15,5.509-13.363c0-2.583-0.521-5.042-1.455-7.286
		C42.418,23.591,41.653,22.521,39.694,21.609z"/>
	<path fill="#BDA770" d="M14.266,17.271c2.965-2.319,6.687-3.716,10.734-3.716c0.094,0,0.184,0.013,0.277,0.015
		c1.058-1.14,1.784-1.336,1.986-1.367c-0.744-0.089-1.496-0.147-2.264-0.147c-4.836,0-9.235,1.824-12.586,4.803
		C12.561,16.833,13.141,16.791,14.266,17.271z"/>
	<path fill="#BDA770" d="M18.156,47.102c-6.242-2.668-10.629-8.867-10.629-16.074c0-0.268,0.028-0.528,0.04-0.794
		c-1.138,1.591-1.362,2.778-1.397,3.021c0.904,7.718,6.436,14.007,13.75,16.036C19.165,48.844,18.586,48.09,18.156,47.102z"/>
	<path fill="#BDA770" d="M37.898,42.773c-1.984-4.457-8.293-11.644-13.695-17.218c-0.432,0.322-0.911,0.603-1.438,0.824
		c-0.873,0.369-1.771,0.543-2.631,0.543c-0.303,0-0.598-0.027-0.887-0.069c-1.963,7.289-2.949,15.967-1.092,20.248
		c0.43,0.988,1.009,1.742,1.764,2.189c0.016,0.01,0.03,0.023,0.047,0.033c0.368,0.102,0.742,0.188,1.119,0.268
		c0.051,0.01,0.1,0.021,0.15,0.033c0.525,0.105,1.062,0.182,1.603,0.244c0.147,0.016,0.294,0.031,0.441,0.045
		C23.848,49.965,24.42,50,25,50c0.656,0,1.305-0.033,1.944-0.098c0.192-0.02,0.376-0.062,0.565-0.086
		c0.444-0.061,0.891-0.115,1.324-0.203c0.201-0.043,0.395-0.105,0.594-0.154c0.413-0.098,0.828-0.191,1.229-0.316
		c0.196-0.062,0.384-0.145,0.578-0.213c0.393-0.137,0.789-0.268,1.17-0.43c0.187-0.08,0.362-0.178,0.546-0.264
		c0.376-0.174,0.754-0.344,1.116-0.541c0.18-0.098,0.347-0.213,0.522-0.316c0.353-0.207,0.707-0.41,1.045-0.639
		c0.176-0.119,0.338-0.256,0.51-0.383c0.321-0.232,0.646-0.461,0.951-0.715c0.18-0.148,0.345-0.316,0.52-0.473
		c0.278-0.248,0.562-0.49,0.827-0.756c0.007-0.008,0.016-0.014,0.022-0.021l-0.001-0.002C38.365,43.91,38.158,43.359,37.898,42.773z
		"/>
	<path fill="#BDA770" d="M25.277,13.569c-0.644,0.693-1.411,1.753-2.259,3.33c1.46,0.367,2.669,1.284,3.239,2.634
		c0.188,0.446,0.291,0.911,0.32,1.38c6.698-1.248,10.768-0.396,13.116,0.696c1.959,0.912,2.724,1.981,2.823,2.132
		c0.005,0.006,0.011,0.016,0.013,0.019c-0.009-0.021-0.021-0.042-0.029-0.063c-0.032-0.078-0.07-0.152-0.104-0.229
		c-0.188-0.431-0.392-0.852-0.609-1.266c-0.069-0.131-0.138-0.261-0.21-0.39c-0.26-0.467-0.532-0.925-0.83-1.366
		c-0.03-0.045-0.064-0.088-0.095-0.133c-0.276-0.402-0.57-0.791-0.876-1.172c-0.094-0.115-0.188-0.23-0.284-0.345
		c-0.331-0.391-0.672-0.772-1.032-1.136c-0.02-0.019-0.036-0.039-0.056-0.059c-0.376-0.376-0.773-0.729-1.18-1.072
		c-0.114-0.097-0.23-0.191-0.347-0.285c-0.369-0.297-0.747-0.582-1.139-0.852c-0.058-0.039-0.111-0.082-0.17-0.121
		c-0.439-0.295-0.896-0.568-1.36-0.826c-0.13-0.072-0.262-0.142-0.394-0.211c-0.402-0.211-0.811-0.409-1.229-0.592
		c-0.091-0.04-0.18-0.084-0.271-0.123c-0.492-0.205-0.996-0.387-1.509-0.552c-0.141-0.046-0.283-0.086-0.425-0.128
		c-0.43-0.127-0.864-0.238-1.305-0.336c-0.119-0.025-0.236-0.057-0.356-0.08c-0.463-0.092-0.931-0.172-1.404-0.229
		c-0.007,0-0.025,0.002-0.054,0.006C27.062,12.233,26.335,12.43,25.277,13.569z"/>
	<path fill="#BDA770" d="M15.518,24.291c-0.03-0.062-0.069-0.118-0.096-0.183c-0.764-1.807-0.168-3.893,1.331-5.395
		c-1.022-0.72-1.845-1.17-2.487-1.443c-1.125-0.479-1.705-0.438-1.852-0.413c-0.02,0.003-0.033,0.007-0.038,0.008l-0.001,0.001
		c-0.256,0.229-0.506,0.466-0.75,0.709c-0.045,0.043-0.086,0.09-0.131,0.135c-0.375,0.381-0.736,0.776-1.079,1.188
		c-0.023,0.029-0.049,0.056-0.072,0.084c-0.348,0.423-0.674,0.864-0.984,1.316c-0.042,0.062-0.087,0.121-0.128,0.182
		c-0.295,0.44-0.568,0.896-0.826,1.361c-0.045,0.08-0.091,0.159-0.134,0.24c-0.248,0.463-0.476,0.937-0.685,1.42
		c-0.039,0.09-0.077,0.18-0.114,0.27c-0.202,0.488-0.385,0.985-0.547,1.493c-0.028,0.089-0.056,0.18-0.083,0.271
		c-0.156,0.518-0.293,1.043-0.406,1.579c-0.016,0.079-0.029,0.159-0.045,0.238c-0.109,0.555-0.198,1.116-0.258,1.688
		c-0.006,0.052-0.008,0.105-0.014,0.157c-0.057,0.604-0.092,1.213-0.092,1.831c0,0.582,0.035,1.156,0.087,1.726
		c0.011,0.116,0.019,0.233,0.032,0.35c0.007,0.064,0.01,0.131,0.018,0.195c0-0.007,0.002-0.022,0.006-0.043
		c0.035-0.243,0.26-1.431,1.397-3.021C8.811,28.495,11.146,26.278,15.518,24.291z"/>
	<path fill="#BDA770" d="M21.611,17.873c-0.756,0-1.511,0.157-2.242,0.466c-2.438,1.029-3.763,3.43-2.952,5.35
		c0.542,1.283,1.94,2.08,3.65,2.08c0.757,0,1.511-0.156,2.242-0.466c1.229-0.519,2.208-1.396,2.756-2.469
		c0.499-0.978,0.568-2.001,0.196-2.88C24.72,18.67,23.321,17.873,21.611,17.873z"/>
</g>
</svg>
