<?xml version="1.0" encoding="utf-8"?>
<!-- Generator: Adobe Illustrator 16.0.3, SVG Export Plug-In . SVG Version: 6.00 Build 0)  -->
<!DOCTYPE svg PUBLIC "-//W3C//DTD SVG 1.1//EN" "http://www.w3.org/Graphics/SVG/1.1/DTD/svg11.dtd">
<svg version="1.1" id="Layer_1" xmlns="http://www.w3.org/2000/svg" xmlns:xlink="http://www.w3.org/1999/xlink" x="0px" y="0px"
   width="50px" height="50px" viewBox="0 0 50 50" enable-background="new 0 0 50 50" xml:space="preserve">
<g>
  <path fill="#BDA770" d="M47.381,0.987c0.827,0,1.5,0.673,1.5,1.5v45c0,0.827-0.673,1.5-1.5,1.5h-45c-0.827,0-1.5-0.673-1.5-1.5v-45
    c0-0.827,0.673-1.5,1.5-1.5H47.381 M47.381-0.013h-45c-1.38,0-2.5,1.12-2.5,2.5v45c0,1.381,1.12,2.5,2.5,2.5h45
    c1.381,0,2.5-1.119,2.5-2.5v-45C49.881,1.107,48.762-0.013,47.381-0.013L47.381-0.013z"/>
</g>
<path fill="#BDA770" d="M40.566,20.294h-5.522v-10.2H14.718v10.2H9.197c-0.693,0-1.255,0.471-1.255,1.053v14.834
  c0,0.582,0.562,1.053,1.255,1.053h5.521v2.646h20.326v-2.646h5.522c0.693,0,1.255-0.473,1.255-1.053V21.348
  C41.821,20.766,41.26,20.294,40.566,20.294z M33.35,38.186H16.411v-4.404H33.35V38.186z M33.35,25.35H16.411V11.788H33.35V25.35z"/>
</svg>
