<?xml version="1.0" encoding="utf-8"?>
<!-- Generator: Adobe Illustrator 16.0.3, SVG Export Plug-In . SVG Version: 6.00 Build 0)  -->
<!DOCTYPE svg PUBLIC "-//W3C//DTD SVG 1.1//EN" "http://www.w3.org/Graphics/SVG/1.1/DTD/svg11.dtd">
<svg version="1.1" id="Layer_1" xmlns="http://www.w3.org/2000/svg" xmlns:xlink="http://www.w3.org/1999/xlink" x="0px" y="0px"
	 width="50px" height="50px" viewBox="0 0 50 50" enable-background="new 0 0 50 50" xml:space="preserve">
<path fill="#BDA770" d="M16.625,34.355H5.324c0.317-4.188,0.559-8.812,0.559-13.199H2.432v27.859h1.362c0,0,0.705-5.039,1.297-11.8
	h7.947c0.591,6.759,1.295,11.8,1.295,11.8h1.364V37.219h0.682c0.337,0,0.609-0.281,0.609-0.628v-1.606
	C16.988,34.637,16.962,34.355,16.625,34.355z"/>
<path fill="#BDA770" d="M33.62,34.355h11.055c-0.317-4.188-0.559-8.812-0.559-13.199h3.45v27.859h-1.361c0,0-0.705-5.039-1.297-11.8
	h-7.947c-0.591,6.759-1.295,11.8-1.295,11.8h-1.364V37.219H33.62c-0.337,0-0.608-0.281-0.608-0.628v-1.606
	C33.012,34.637,33.283,34.355,33.62,34.355z"/>
<path fill="#BDA770" d="M28.497,28.72h10.161v-3.437h-27.18v3.437h10.278c1.275,0.041,2.298,1.087,2.298,2.371V43.93
	c0,0.936-0.54,1.736-1.324,2.125c-2.541,0.234-4.347,0.832-4.347,1.532v0.649c0,0.906,3.022,1.641,6.753,1.641
	c3.729,0,6.752-0.734,6.752-1.641v-0.649c0-0.703-1.816-1.301-4.369-1.536c-0.781-0.388-1.319-1.189-1.319-2.121V31.091
	C26.199,29.807,27.221,28.761,28.497,28.72z"/>
</svg>
