<?xml version="1.0" encoding="utf-8"?>
<!-- Generator: Adobe Illustrator 16.0.3, SVG Export Plug-In . SVG Version: 6.00 Build 0)  -->
<!DOCTYPE svg PUBLIC "-//W3C//DTD SVG 1.1//EN" "http://www.w3.org/Graphics/SVG/1.1/DTD/svg11.dtd">
<svg version="1.1" id="Layer_1" xmlns="http://www.w3.org/2000/svg" xmlns:xlink="http://www.w3.org/1999/xlink" x="0px" y="0px"
  width="50px" height="100px" viewBox="0 0 50 100" enable-background="new 0 0 50 100" xml:space="preserve">
<path fill="#BDA770" d="M31.981,72.671l-3.05-5.784l-3.112,0.011c0.101-0.198,0.208-0.403,0.276-0.505
 c0.128-0.193,0.435-0.454,0.683-0.666l0.095-0.081c0.143-0.122,0.263-0.206,0.463-0.347c0.186-0.129,0.438-0.305,0.832-0.599
 c1.428-1.061,1.911-2.427,1.93-2.483l0.003-0.008c0.4-1.308-0.066-2.012-0.136-2.104c-0.662-1.008-2.297-1.233-2.372-1.243
 l-0.156-0.001c-1.021-0.041-1.669,0.331-1.755,0.383c-0.959,0.503-1.441,1.353-1.613,2.838c-0.146,1.277,0.361,3.264,0.977,4.82
 l-3.322,0.012l-3.053,5.758h-0.03c0,0,0,13.822,0,14.109c0,0.282,0.321,0.979,1.103,0.962c0.736-0.017,10.577,0.012,11.11,0.017
 c0.753,0.01,1.133-0.468,1.129-1.111C31.978,86.146,31.981,72.671,31.981,72.671z M24.638,62.13c0.156-1.349,0.417-1.931,1.25-2.367
 l0.017-0.009c0.004-0.003,0.515-0.323,1.376-0.323c0.043,0,0.086,0,0.129,0.002c0.126,0.017,1.524,0.237,2.058,1.053l0.011,0.017
 c0.004,0.007,0.418,0.433,0.07,1.577c-0.023,0.069-0.344,1.174-1.636,2.134c-0.388,0.288-0.639,0.465-0.821,0.593
 c-0.204,0.141-1.008,0.758-1.354,1.205c-0.091,0.118-0.202,0.496-0.305,0.703C24.843,65.216,24.501,63.327,24.638,62.13z
  M25.311,73.671c-1.422,0-2.574-1.154-2.574-2.576s1.152-2.573,2.574-2.573c1.421,0,2.574,1.151,2.574,2.573
 S26.731,73.671,25.311,73.671z"/>
<path fill="#FFFFFF" d="M31.981,22.671l-3.05-5.784l-3.112,0.011c0.101-0.198,0.208-0.403,0.276-0.505
 c0.128-0.193,0.435-0.454,0.683-0.666l0.095-0.081c0.143-0.122,0.263-0.206,0.463-0.347c0.186-0.129,0.438-0.305,0.832-0.599
 c1.428-1.061,1.911-2.427,1.93-2.483l0.003-0.008c0.4-1.308-0.066-2.012-0.136-2.104c-0.662-1.008-2.297-1.233-2.372-1.243
 L27.437,8.86c-1.021-0.041-1.669,0.331-1.755,0.383c-0.959,0.503-1.441,1.353-1.613,2.838c-0.146,1.277,0.361,3.264,0.977,4.82
 l-3.322,0.012l-3.053,5.758h-0.03c0,0,0,13.822,0,14.109c0,0.282,0.321,0.979,1.103,0.962c0.736-0.017,10.577,0.012,11.11,0.017
 c0.753,0.01,1.133-0.468,1.129-1.111C31.978,36.146,31.981,22.671,31.981,22.671z M24.638,12.13c0.156-1.349,0.417-1.931,1.25-2.367
 l0.017-0.009c0.004-0.003,0.515-0.323,1.376-0.323c0.043,0,0.086,0,0.129,0.002c0.126,0.017,1.524,0.237,2.058,1.053l0.011,0.017
 c0.004,0.007,0.418,0.433,0.07,1.577c-0.023,0.069-0.344,1.174-1.636,2.134c-0.388,0.288-0.639,0.465-0.821,0.593
 c-0.204,0.141-1.008,0.758-1.354,1.205c-0.091,0.118-0.202,0.496-0.305,0.703C24.843,15.216,24.501,13.327,24.638,12.13z
  M25.311,23.671c-1.422,0-2.574-1.154-2.574-2.576s1.152-2.573,2.574-2.573c1.421,0,2.574,1.151,2.574,2.573
 S26.731,23.671,25.311,23.671z"/>
</svg>
