<?xml version="1.0" encoding="utf-8"?>
<!-- Generator: Adobe Illustrator 16.0.4, SVG Export Plug-In . SVG Version: 6.00 Build 0)  -->
<!DOCTYPE svg PUBLIC "-//W3C//DTD SVG 1.1//EN" "http://www.w3.org/Graphics/SVG/1.1/DTD/svg11.dtd">
<svg version="1.1" id="Layer_1" xmlns="http://www.w3.org/2000/svg" xmlns:xlink="http://www.w3.org/1999/xlink" x="0px" y="0px"
	 width="50px" height="50px" viewBox="0 0 50 50" enable-background="new 0 0 50 50" xml:space="preserve">
<g>
	<path fill="#BDA770" d="M19.881,33.802c0.046,0.019,0.092,0.028,0.138,0.039c0.022,0.012,2.58,0.643,6.686-1.137
		c0.082-0.035,0.173-0.021,0.25,0.025c0.075,0.048,0.119,0.131,0.119,0.226v6.056l4.559-2.316V23.439l-0.022-0.005l-11.408,3.621
		c0.011,0.024,0.016,0.059,0.015,0.092L19.881,33.802z"/>
	<path fill="#BDA770" d="M26.538,33.355c-4.063,1.655-6.551,1.03-6.657,1.008c-0.011-0.004-0.018-0.013-0.03-0.015l-0.426,8.542
		l7.188-3.647c-0.044-0.053-0.067-0.114-0.067-0.185v-5.703H26.538z"/>
	<path fill="#BDA770" d="M40.89,32.096c0.438-0.117,0.805-0.183,1.06-0.218l-0.857-4.997l-8.931-3.247v3.35L40.89,32.096z"/>
	<path fill="#BDA770" d="M14.441,25.262c-0.013,0.039-0.988,2.486,0.167,4.827c0.794,1.605,2.389,2.801,4.748,3.555l0.33-6.524
		c0.001-0.023,0.007-0.054,0.018-0.08l-5.283-2.025C14.467,25.086,14.476,25.18,14.441,25.262z"/>
	<path fill="#BDA770" d="M19.329,34.194C16.75,33.399,15,32.1,14.125,30.32c-1.262-2.57-0.221-5.156-0.177-5.266
		c0.034-0.078,0.099-0.13,0.176-0.148l-3.835-1.471L6.724,37.686c0.678,0.059,7.708,0.804,12.175,5.043L19.329,34.194z"/>
	<path fill="#BDA770" d="M38.956,32.849c0.431-0.229,0.853-0.402,1.241-0.541l-8.036-4.705v9.132
		c0.285,0.243,1.19,0.996,2.399,1.907C35.393,35.341,37.394,33.668,38.956,32.849z"/>
	<path fill="#BDA770" d="M43.988,43.754c-0.032,0.022-0.068,0.033-0.107,0.037c-0.123,0.013-0.248,0.025-0.377,0.025
		c-3.411,0.002-9.624-4.954-11.343-6.385v7.841c0,0.031-0.006,0.056-0.014,0.083L45,49.642L43.988,43.754z"/>
	<path fill="#BDA770" d="M35.028,38.991c0.507,0.378,1.054,0.77,1.62,1.158c3.25,2.219,5.732,3.291,7.172,3.116
		c0.031-0.011,0.056-0.009,0.086,0.004l-1.867-10.861c-0.52,0.064-1.646,0.281-2.854,0.919
		C37.026,34.478,35.627,36.378,35.028,38.991z"/>
	<path fill="#BDA770" d="M6.638,38.209c-0.016,0-0.03-0.004-0.042-0.006L5,44.581l13.533,5.415l0.33-6.557
		C14.435,38.916,6.716,38.215,6.638,38.209z"/>
	<path fill="#BDA770" d="M31.633,37.296l-12.24,6.212L19.065,50l12.582-4.638c-0.01-0.023-0.016-0.056-0.016-0.09v-7.977H31.633z"/>
</g>
</svg>
