<?xml version="1.0" encoding="utf-8"?>
<!-- Generator: Adobe Illustrator 16.0.3, SVG Export Plug-In . SVG Version: 6.00 Build 0)  -->
<!DOCTYPE svg PUBLIC "-//W3C//DTD SVG 1.1//EN" "http://www.w3.org/Graphics/SVG/1.1/DTD/svg11.dtd">
<svg version="1.1" id="Layer_1" xmlns="http://www.w3.org/2000/svg" xmlns:xlink="http://www.w3.org/1999/xlink" x="0px" y="0px"
	 width="50px" height="50px" viewBox="0 0 50 50" enable-background="new 0 0 50 50" xml:space="preserve">
<g>
	<g>
		<path fill="#BDA770" d="M25.61,17.39c-9.006,0-16.306,7.3-16.306,16.303C9.304,42.699,16.604,50,25.61,50
			c9.005,0,16.306-7.301,16.306-16.307C41.916,24.69,34.614,17.39,25.61,17.39z M25.61,44.927c-6.193,0-11.231-5.039-11.231-11.233
			c0-6.19,5.038-11.229,11.231-11.229s11.23,5.039,11.23,11.229C36.839,39.888,31.8,44.927,25.61,44.927z"/>
		<path fill="#BDA770" d="M25.61,23.928c-5.476,0-9.928,4.382-9.928,9.766c0,5.386,4.452,9.769,9.928,9.769
			c5.472,0,9.925-4.383,9.925-9.769C35.535,28.31,31.081,23.928,25.61,23.928z"/>
	</g>
	<path fill="#BDA770" d="M47.372,49.028L47.372,49.028h-0.045c-1.54-0.01-1.706-0.453-1.702-0.645
		c0.01-0.131,0.92-11.599,0.966-18.798l0.063-11.029l0.062-0.061c0.225-0.219,0.545-0.18,0.856,0.155
		c1.153,1.226,2.712,6.466,2.429,10.907c-0.188,2.998-0.551,6.156-0.554,6.188l-0.017,0.16l-1,0.13
		c0.216,5.883,0.604,12.29,0.61,12.354C49.038,48.592,48.873,49.028,47.372,49.028z"/>
	<path fill="#BDA770" d="M5.973,28.806c0-0.671-0.312-9.195-0.339-9.683c0.006-0.055-0.02-0.478-0.19-0.664
		c-0.084-0.088-0.261-0.1-0.39-0.1c-0.248,0-0.284,0.093-0.355,0.182c-0.162,0.202-0.117,0.573-0.114,0.573l0.083,7.222H3.769
		l-0.083-7.213c0-0.055,0.01-0.45-0.157-0.633c-0.086-0.09-0.198-0.138-0.326-0.138c-0.218,0-0.349,0.094-0.42,0.171
		c-0.175,0.199-0.148,0.582-0.145,0.582l-0.165,7.23H1.572l0.165-7.197c0.005-0.027,0.005-0.383-0.13-0.606
		c-0.11-0.184-0.17-0.18-0.399-0.18c-0.136,0-0.281,0.074-0.375,0.155c-0.128,0.116-0.231,0.567-0.227,0.59
		c-0.021,0.513-0.339,9.036-0.339,9.707c0,0.884,1.344,1.574,2.114,1.726c-0.046,7.482-0.962,17.451-0.974,17.565l-0.003,0.05
		l0.017,0.045c0.037,0.095,0.294,0.576,1.7,0.576c1.403,0,1.663-0.481,1.701-0.578l0.016-0.043l-0.004-0.047
		c-0.199-2.688-0.361-4.75-0.493-6.428c-0.434-5.509-0.455-5.482-0.482-11.14C4.564,30.388,5.973,29.763,5.973,28.806z"/>
</g>
</svg>
