<?xml version="1.0" encoding="utf-8"?>
<!-- Generator: Adobe Illustrator 16.0.3, SVG Export Plug-In . SVG Version: 6.00 Build 0)  -->
<!DOCTYPE svg PUBLIC "-//W3C//DTD SVG 1.1//EN" "http://www.w3.org/Graphics/SVG/1.1/DTD/svg11.dtd">
<svg version="1.1" id="Layer_1" xmlns="http://www.w3.org/2000/svg" xmlns:xlink="http://www.w3.org/1999/xlink" x="0px" y="0px"
	 width="50px" height="100px" viewBox="0 0 50 100" enable-background="new 0 0 50 100" xml:space="preserve">
<g>
	<g>
		<path fill="#BDA770" d="M25.188,64.195c-6.06,0-10.972,4.912-10.972,10.971c0,6.061,4.912,10.972,10.972,10.972
			c6.06,0,10.972-4.911,10.972-10.972C36.16,69.107,31.247,64.195,25.188,64.195z M25.188,82.724c-4.167,0-7.557-3.39-7.557-7.558
			c0-4.166,3.39-7.556,7.557-7.556c4.167,0,7.557,3.39,7.557,7.556C32.744,79.334,29.354,82.724,25.188,82.724z"/>
		<path fill="#BDA770" d="M25.188,68.595c-3.684,0-6.68,2.948-6.68,6.571c0,3.624,2.996,6.573,6.68,6.573
			c3.682,0,6.679-2.949,6.679-6.573C31.867,71.543,28.869,68.595,25.188,68.595z"/>
	</g>
	<path fill="#BDA770" d="M39.832,85.485L39.832,85.485h-0.03c-1.036-0.006-1.147-0.305-1.146-0.434
		c0.007-0.088,0.619-7.805,0.65-12.648l0.043-7.423l0.042-0.04c0.15-0.148,0.366-0.121,0.576,0.104
		c0.776,0.824,1.825,4.35,1.635,7.339c-0.128,2.017-0.371,4.142-0.373,4.163l-0.012,0.108l-0.672,0.087
		c0.145,3.959,0.406,8.271,0.41,8.314C40.953,85.191,40.842,85.485,39.832,85.485z"/>
	<path fill="#BDA770" d="M11.974,71.877c0-0.451-0.21-6.187-0.228-6.516c0.004-0.037-0.013-0.321-0.128-0.446
		c-0.056-0.06-0.175-0.067-0.262-0.067c-0.167,0-0.191,0.062-0.239,0.122c-0.109,0.136-0.079,0.386-0.077,0.386l0.056,4.859h-0.605
		l-0.055-4.854c0-0.037,0.007-0.303-0.106-0.426c-0.058-0.06-0.133-0.092-0.219-0.092c-0.147,0-0.235,0.063-0.283,0.115
		C9.71,65.092,9.729,65.35,9.731,65.35L9.62,70.215H9.013l0.111-4.843c0.003-0.019,0.003-0.258-0.088-0.408
		c-0.074-0.124-0.114-0.121-0.269-0.121c-0.091,0-0.189,0.049-0.252,0.104c-0.086,0.078-0.155,0.382-0.152,0.398
		c-0.015,0.345-0.228,6.08-0.228,6.531c0,0.595,0.904,1.06,1.422,1.161C9.526,78.072,8.91,84.78,8.902,84.857L8.9,84.89l0.011,0.031
		c0.025,0.063,0.198,0.387,1.144,0.387c0.944,0,1.119-0.323,1.144-0.388l0.011-0.029l-0.003-0.031
		c-0.134-1.809-0.243-3.197-0.332-4.326c-0.292-3.707-0.306-3.689-0.324-7.496C11.027,72.941,11.974,72.521,11.974,71.877z"/>
</g>
<g>
	<g>
		<path fill="#FFFFFF" d="M25.188,14.195c-6.06,0-10.972,4.912-10.972,10.971c0,6.061,4.912,10.972,10.972,10.972
			c6.06,0,10.972-4.911,10.972-10.972C36.16,19.107,31.247,14.195,25.188,14.195z M25.188,32.724c-4.167,0-7.557-3.39-7.557-7.558
			c0-4.166,3.39-7.556,7.557-7.556c4.167,0,7.557,3.39,7.557,7.556C32.744,29.334,29.354,32.724,25.188,32.724z"/>
		<path fill="#FFFFFF" d="M25.188,18.595c-3.684,0-6.68,2.948-6.68,6.571c0,3.624,2.996,6.573,6.68,6.573
			c3.682,0,6.679-2.949,6.679-6.573C31.867,21.543,28.869,18.595,25.188,18.595z"/>
	</g>
	<path fill="#FFFFFF" d="M39.832,35.485L39.832,35.485h-0.03c-1.036-0.006-1.147-0.305-1.146-0.434
		c0.007-0.088,0.619-7.805,0.65-12.648l0.043-7.423l0.042-0.04c0.15-0.148,0.366-0.121,0.576,0.104
		c0.776,0.824,1.825,4.35,1.635,7.339c-0.128,2.017-0.371,4.142-0.373,4.163l-0.012,0.108l-0.672,0.087
		c0.145,3.959,0.406,8.271,0.41,8.314C40.953,35.191,40.842,35.485,39.832,35.485z"/>
	<path fill="#FFFFFF" d="M11.974,21.877c0-0.451-0.21-6.187-0.228-6.516c0.004-0.037-0.013-0.321-0.128-0.446
		c-0.056-0.06-0.175-0.067-0.262-0.067c-0.167,0-0.191,0.062-0.239,0.122c-0.109,0.136-0.079,0.386-0.077,0.386l0.056,4.859h-0.605
		l-0.055-4.854c0-0.037,0.007-0.303-0.106-0.426c-0.058-0.06-0.133-0.092-0.219-0.092c-0.147,0-0.235,0.063-0.283,0.115
		C9.71,15.092,9.729,15.35,9.731,15.35L9.62,20.215H9.013l0.111-4.843c0.003-0.019,0.003-0.258-0.088-0.408
		c-0.074-0.124-0.114-0.121-0.269-0.121c-0.091,0-0.189,0.049-0.252,0.104c-0.086,0.078-0.155,0.382-0.152,0.398
		c-0.015,0.345-0.228,6.08-0.228,6.531c0,0.595,0.904,1.06,1.422,1.161C9.526,28.072,8.91,34.78,8.902,34.857L8.9,34.89l0.011,0.031
		c0.025,0.063,0.198,0.387,1.144,0.387c0.944,0,1.119-0.323,1.144-0.388l0.011-0.029l-0.003-0.031
		c-0.134-1.809-0.243-3.197-0.332-4.326c-0.292-3.707-0.306-3.689-0.324-7.496C11.027,22.941,11.974,22.521,11.974,21.877z"/>
</g>
</svg>
