<?xml version="1.0" encoding="UTF-8" standalone="no"?>
<svg width="29px" height="20px" viewBox="0 0 29 20" version="1.1" xmlns="http://www.w3.org/2000/svg" xmlns:xlink="http://www.w3.org/1999/xlink" xmlns:sketch="http://www.bohemiancoding.com/sketch/ns">
    <!-- Generator: Sketch 3.3.3 (12081) - http://www.bohemiancoding.com/sketch -->
    <title>icon-restaurants</title>
    <desc>Created with Sketch.</desc>
    <defs></defs>
    <g id="Find" stroke="none" stroke-width="1" fill="none" fill-rule="evenodd" sketch:type="MSPage">
        <g id="Find---Browse" sketch:type="MSArtboardGroup" transform="translate(-30.000000, -149.000000)" fill="#BDA770">
            <g id="Grouped-Cell" sketch:type="MSLayerGroup" transform="translate(0.000000, 95.000000)">
                <g id="restaurants" transform="translate(15.000000, 42.000000)" sketch:type="MSShapeGroup">
                    <g id="icon-restaurants" transform="translate(15.000000, 12.000000)">
                        <path d="M14.79725,0.162933333 C9.59558824,0.162933333 5.3795,4.4473 5.3795,9.73223333 C5.3795,15.0167333 9.59558824,19.3011 14.79725,19.3011 C19.9984853,19.3011 24.2145735,15.0167333 24.2145735,9.73223333 C24.2145735,4.4473 19.9984853,0.162933333 14.79725,0.162933333 L14.79725,0.162933333 Z M14.79725,16.3228 C11.2208676,16.3228 8.31020588,13.3661667 8.31020588,9.73223333 C8.31020588,6.0983 11.2208676,3.14166667 14.79725,3.14166667 C18.3736324,3.14166667 21.2834412,6.0983 21.2834412,9.73223333 C21.2834412,13.3661667 18.3736324,16.3228 14.79725,16.3228 L14.79725,16.3228 Z" id="Fill-1"></path>
                        <path d="M14.79725,4.0001 C11.6358235,4.0001 9.06420588,6.57193333 9.06420588,9.73223333 C9.06420588,12.8925333 11.6358235,15.4643667 14.79725,15.4643667 C17.9578235,15.4643667 20.5298676,12.8925333 20.5298676,9.73223333 C20.5298676,6.57193333 17.9578235,4.0001 14.79725,4.0001" id="Fill-2"></path>
                        <path d="M27.3678971,18.7325667 L27.3410294,18.7325667 C26.4518382,18.7269333 26.3571618,18.4656333 26.3580147,18.3542667 C26.3631324,18.2771333 26.8893971,11.5470333 26.9162647,7.32246667 L26.9529412,0.848466667 L26.9883382,0.812933333 C27.1179853,0.683366667 27.3035,0.7085 27.4834706,0.903933333 C28.1483382,1.62326667 29.0494706,4.69646667 28.8861324,7.3047 C28.7761029,9.06273333 28.5679853,10.9165333 28.5658529,10.9347333 L28.5556176,11.0296333 L27.9790294,11.1050333 C28.1027059,14.5587 28.3278824,18.3183 28.3304412,18.3564333 C28.3295882,18.4751667 28.2336324,18.7325667 27.3678971,18.7325667" id="Fill-3"></path>
                        <path d="M3.45654412,6.8627 C3.45654412,6.4688 3.27529412,1.46683333 3.26036765,1.18126667 C3.2625,1.1479 3.24842647,0.899166667 3.15033824,0.7917 C3.10172059,0.7384 2.99936765,0.731466667 2.92430882,0.731466667 C2.78186765,0.731466667 2.76097059,0.7878 2.72002941,0.8398 C2.62620588,0.956366667 2.65264706,1.17433333 2.65477941,1.17433333 L2.70211765,5.41233333 L2.18267647,5.41233333 L2.13491176,1.17996667 C2.13661765,1.1466 2.14216176,0.914766667 2.04322059,0.808166667 C1.99502941,0.755733333 1.93020588,0.728 1.85685294,0.728 C1.72976471,0.728 1.65427941,0.783466667 1.61333824,0.8294 C1.51311765,0.944666667 1.52889706,1.16913333 1.53017647,1.17 L1.43464706,5.41276667 L0.914352941,5.41233333 L1.00945588,1.1908 C1.01201471,1.1726 1.01201471,0.965033333 0.933970588,0.833733333 C0.87,0.7254 0.836308824,0.727566667 0.70325,0.727566667 C0.625205882,0.727566667 0.540764706,0.769166667 0.486602941,0.819433333 C0.413676471,0.887033333 0.353544118,1.15223333 0.356529412,1.16653333 C0.342882353,1.46683333 0.159926471,6.4688 0.159926471,6.8627 C0.159926471,7.3814 0.936102941,7.787 1.38091176,7.87626667 C1.35447059,12.2676667 0.825647059,18.1172333 0.819676471,18.1839667 L0.817117647,18.2121333 L0.826926471,18.239 C0.848676471,18.2953333 0.997088235,18.5765667 1.80823529,18.577 C2.62023529,18.577 2.76779412,18.2949 2.78911765,18.2381333 L2.7985,18.2125667 L2.79679412,18.1857 C2.68164706,16.6079333 2.58782353,15.3976333 2.51191176,14.4126667 C2.262,11.1795667 2.24963235,11.1947333 2.23427941,7.87583333 C2.64369118,7.79176667 3.45654412,7.4243 3.45654412,6.8627" id="Fill-4"></path>
                    </g>
                </g>
            </g>
        </g>
    </g>
</svg>