<?xml version="1.0" encoding="utf-8"?>
<!-- Generator: Adobe Illustrator 16.0.3, SVG Export Plug-In . SVG Version: 6.00 Build 0)  -->
<!DOCTYPE svg PUBLIC "-//W3C//DTD SVG 1.1//EN" "http://www.w3.org/Graphics/SVG/1.1/DTD/svg11.dtd">
<svg version="1.1" id="Layer_1" xmlns="http://www.w3.org/2000/svg" xmlns:xlink="http://www.w3.org/1999/xlink" x="0px" y="0px"
	 width="50px" height="50px" viewBox="0 0 50 50" enable-background="new 0 0 50 50" xml:space="preserve">
<g>
	<path fill="#BDA770" d="M19.329,50c-1.013,0-1.835-0.488-1.835-1.093l0,0c0-0.603,0.822-1.091,1.835-1.091h11.779
		c1.015,0,1.837,0.488,1.837,1.091l0,0c0,0.604-0.822,1.093-1.837,1.093H19.329z"/>
	<path fill="#BDA770" d="M34.499,16.141v-0.063h-19.03v0.064c-3.963,0.072-7.163,2.981-7.163,6.549c0,3.613,3.28,6.552,7.313,6.552
		c0.1,0,0.197-0.002,0.296-0.006c1.089,3.428,4.063,6.013,7.709,6.535c0.015,2.233-0.009,6.356-0.341,7.732
		c-0.242,1-2.193,3.409-2.193,3.409h8.015c0,0-1.908-2.269-2.226-3.467c-0.314-1.186-0.344-5.439-0.336-7.706
		c3.591-0.592,6.502-3.192,7.542-6.609l-0.003,0.105c0.1,0.004,0.199,0.006,0.299,0.006c4.033,0,7.313-2.939,7.313-6.552
		C41.694,19.113,38.479,16.198,34.499,16.141z M9.866,22.691c0-2.709,2.5-4.919,5.603-4.988v8.637h0.001
		c0,0.005-0.001,0.011-0.001,0.016c0,0.449,0.032,0.893,0.092,1.325C12.415,27.652,9.866,25.426,9.866,22.691z M34.408,27.682
		c0.06-0.434,0.091-0.876,0.091-1.326c0-0.005,0-0.011,0-0.016l0,0v-8.638c3.116,0.055,5.635,2.271,5.635,4.989
		C40.134,25.435,37.566,27.669,34.408,27.682z"/>
</g>
</svg>
