<?xml version="1.0" encoding="utf-8"?>
<!-- Generator: Adobe Illustrator 16.0.3, SVG Export Plug-In . SVG Version: 6.00 Build 0)  -->
<!DOCTYPE svg PUBLIC "-//W3C//DTD SVG 1.1//EN" "http://www.w3.org/Graphics/SVG/1.1/DTD/svg11.dtd">
<svg version="1.1" id="Layer_1" xmlns="http://www.w3.org/2000/svg" xmlns:xlink="http://www.w3.org/1999/xlink" x="0px" y="0px"
	 width="50px" height="50px" viewBox="0 0 50 50" enable-background="new 0 0 50 50" xml:space="preserve">
<g>
	<path fill-rule="evenodd" clip-rule="evenodd" fill="#BDA770" d="M21.797,29.696c0.369-0.261,0.662-0.118,0.945-0.095
		c0.579,0.046,1.149,0.056,1.681-0.227c0.312-0.164,0.513-0.405,0.454-0.779c-0.053-0.348-0.229-0.634-0.597-0.679
		c-0.489-0.062-0.819-0.311-1.083-0.708c-0.179-0.267-0.492-0.328-0.783-0.396c-0.38-0.09-0.644-0.236-0.547-0.71
		c0.089-0.437-0.138-0.759-0.454-1.043c-0.726-0.651-1.514-1.22-2.307-1.783c-0.54-0.382-0.542-0.483-0.085-0.984
		c1.443-1.578,3.58-2.041,5.619-1.223c1.608,0.645,2.797,1.792,3.798,3.165c1.786,2.454,2.651,5.206,2.822,8.226
		c0.164,2.922-0.055,5.777-1.048,8.548c-0.382,1.063-0.911,2.05-1.625,2.931c-0.131,0.162-0.214,0.407-0.537,0.388
		c-0.061-0.367,0.128-0.678,0.222-1.001c0.717-2.482,0.972-4.988,0.368-7.532c-0.274-1.157-0.699-2.386-1.471-3.293
		c-0.443-0.522-0.656-1.105-0.69-1.773c-0.015-0.248-0.096-0.333-0.216-0.562c-0.131-0.25-0.294-0.485-0.589-0.529
		c-0.318-0.048-0.394,0.251-0.528,0.449c-0.501,0.742-0.64,0.77-1.472,0.393C23.078,30.206,22.464,29.972,21.797,29.696z"/>
	<path fill-rule="evenodd" clip-rule="evenodd" fill="#BDA770" d="M10.222,31.854c0.001-0.594,0.129-0.694,0.762-0.43
		c1.294,0.542,2.628,0.755,4.022,0.594c0.117-0.015,0.296-0.091,0.345,0.033c0.073,0.179-0.139,0.232-0.25,0.315
		c-0.237,0.182-0.49,0.343-0.73,0.521c-1.52,1.129-2.339,2.616-2.333,4.535c0.001,0.232,0.124,0.601-0.141,0.668
		c-0.275,0.072-0.329-0.312-0.433-0.52C10.571,35.793,10.367,33.859,10.222,31.854z"/>
	<path fill-rule="evenodd" clip-rule="evenodd" fill="#BDA770" d="M18.178,28.542c-0.209,0.169-0.357,0.008-0.51-0.039
		c-1.494-0.471-2.939-0.383-4.337,0.351c-0.198,0.104-0.396,0.219-0.609,0.281c-0.338,0.1-0.711,0.183-0.456-0.406
		c0.04-0.093,0.089-0.192-0.01-0.268c-0.115-0.088-0.242-0.033-0.348,0.03c-0.275,0.166-0.531,0.366-0.816,0.513
		c-0.149,0.077-0.387,0.091-0.453-0.106c-0.062-0.18,0.164-0.214,0.288-0.268c0.515-0.218,0.925-0.58,1.346-0.933
		c0.901-0.755,1.841-1.021,2.944-0.358c0.705,0.424,1.5,0.669,2.317,0.815C17.795,28.201,18.08,28.219,18.178,28.542z"/>
	<path fill="#BDA770" d="M25.608,17.715c0.927,0.798,1.782,1.899,2.581,2.83c6.438,7.514,6.408,19.199-0.067,26.664
		c-0.688,0.795-1.411,1.555-2.208,2.237c-0.18,0.153-0.43,0.341-0.46,0.554H41V17H25.381C25.42,17,25.528,17.646,25.608,17.715z"/>
	<path fill-rule="evenodd" clip-rule="evenodd" fill="#BDA770" d="M27.75,36.627c-0.229-1.191-0.715-2.28-1.489-3.229
		c-0.189-0.23-0.381-0.39-0.691-0.477C24.396,32.594,23.41,33,22.645,34c0.001,0,0.004,0,0.005,0c-0.004,0-0.007-0.062-0.01-0.06
		c0.465-0.173,0.877-0.519,1.385-0.583c0.572-0.072,0.85,0.166,0.829,0.741c-0.009,0.228-0.023,0.482-0.244,0.583
		c-0.209,0.096-0.264-0.18-0.378-0.293c-0.196-0.194-0.414-0.151-0.628-0.074c-0.708,0.253-1.312,0.609-1.486,1.428
		c-0.042,0.195-0.041,0.523-0.36,0.454c-0.25-0.056-0.246-0.342-0.268-0.566c-0.047-0.509,0.093-0.867,0.534-1.173
		C22.243,34.304,22.435,34,22.64,34c-0.001,0-0.001,0-0.002,0c0.002,0,0.005-0.069,0.007-0.073
		c-0.451,0.016-0.806,0.222-1.116,0.511c-0.599,0.561-1.28,0.586-2.019,0.367c-0.405-0.122-0.81-0.258-1.214-0.384
		c-0.726-0.228-0.907-0.167-1.195,0.529c-0.359,0.866-0.374,1.796-0.461,2.713c-0.065,0.706,0.202,1.252,0.678,1.743
		c0.527,0.545,1.206,0.882,1.785,1.349c0.749,0.603,1.556,0.682,2.462,0.495c0.908-0.188,1.775-0.492,2.641-0.81
		c0.312-0.114,0.594-0.092,0.795,0.203c0.193,0.282,0.047,0.521-0.127,0.746c-0.09,0.118-0.191,0.229-0.294,0.338
		c-0.98,1.019-2.173,1.555-3.593,1.582c-0.356,0.006-0.772,0.009-0.584,0.569c0.66,1.989,0.206,3.784-0.717,5.569
		c-0.102,0.193-0.224,0.339-0.232,0.552h1.525c0.66-0.213,1.324-0.679,1.967-1.075c2.095-1.292,3.811-2.923,4.485-5.362
		C28.062,41.283,28.198,38.968,27.75,36.627z M24.04,40.029c-0.816,0.464-1.744,0.593-2.645,0.771
		c-0.492,0.097-0.495-0.371-0.544-0.688c0.01-0.434,0.091-0.752,0.614-0.535c0.295,0.122,0.61,0.146,0.865-0.029
		c0.592-0.405,1.427-0.284,1.912-0.938c0.159-0.213,0.303,0.003,0.327,0.195C24.635,39.314,24.512,39.761,24.04,40.029z"/>
	<path fill-rule="evenodd" clip-rule="evenodd" fill="#BDA770" d="M18.336,50c0.15,0,0.302-0.342,0.449-0.54
		c1.079-1.459,1.246-2.975,0.4-4.603c-0.24-0.466-0.508-0.9-0.81-1.331c-0.802-1.139-1.7-2.2-2.384-3.428
		c-0.918-1.647-0.906-3.27-0.062-4.921c0.343-0.668,0.807-1.254,1.248-1.857c0.114-0.155,0.326-0.272,0.312-0.568
		c-0.394,0.222-0.621,0.521-0.859,0.803c-1.706,2.016-2.271,4.401-2.167,6.967c0.064,1.569,0.135,3.138,0.096,4.706
		c-0.037,1.528-0.261,2.98-1.058,4.335C13.408,49.723,13.311,50,13.343,50H18.336z"/>
	<path fill-rule="evenodd" clip-rule="evenodd" fill="#BDA770" d="M12.455,42.087c-0.954-1.582-2.125-2.945-3.229-4.419
		C9.151,37.568,9,37.449,9,37.441V50h2.791C14.428,47.229,13.91,44.498,12.455,42.087z"/>
	<path fill-rule="evenodd" clip-rule="evenodd" fill="#BDA770" d="M11.939,22.127c-0.149-1.327-0.97-2.04-2.024-2.617
		C9.602,19.338,9,19.125,9,19.116v4.881C9,24,8.92,24.001,8.925,24.002c0.673,0.215,1.312,0.629,2.028,0.204
		C11.727,23.746,12.043,23.051,11.939,22.127z"/>
	<path fill-rule="evenodd" clip-rule="evenodd" fill="#BDA770" d="M23.054,18.908C22.365,18.404,21.712,19,20.918,17h-2.772
		c0.005,0,0.026,0.623,0.069,0.719c0.285,0.647,0.39,1.578,0.479,2.271c0.053,0.422,0.201,0.734,0.627,0.488
		c1.109-0.644,2.289-0.91,3.581-0.765c0.089,0.01,0.228-0.224,0.271-0.286C23.26,19.301,23.15,18.979,23.054,18.908z"/>
	<path fill-rule="evenodd" clip-rule="evenodd" fill="#BDA770" d="M16.625,17H8.812c-0.004,2,0.506,0.803,0.792,0.894
		c2.04,0.643,3.382,2.183,3.843,4.301c0.1,0.455,0.322,0.776,0.761,0.749c0.744-0.048,1.489-0.045,2.232-0.111
		c0.339-0.03,0.635-0.125,0.734-0.498c0.36-1.349,0.538-3.142-0.219-4.439C16.855,17.723,16.748,17,16.625,17z"/>
</g>
</svg>
