<?xml version="1.0" encoding="utf-8"?>
<!-- Generator: Adobe Illustrator 16.0.3, SVG Export Plug-In . SVG Version: 6.00 Build 0)  -->
<!DOCTYPE svg PUBLIC "-//W3C//DTD SVG 1.1//EN" "http://www.w3.org/Graphics/SVG/1.1/DTD/svg11.dtd">
<svg version="1.1" id="Layer_1" xmlns="http://www.w3.org/2000/svg" xmlns:xlink="http://www.w3.org/1999/xlink" x="0px" y="0px"
	 width="50px" height="50px" viewBox="0 0 50 50" enable-background="new 0 0 50 50" xml:space="preserve">
<g>
	<path fill="#BDA770" d="M26.919,15.241c-9.555-1.058-18.188,5.854-19.246,15.408s5.854,18.187,15.407,19.244
		c9.555,1.059,18.188-5.854,19.246-15.407C43.384,24.932,36.473,16.299,26.919,15.241z M11.079,37.62L9.64,38.145
		c-0.426-1.171-0.724-2.398-0.873-3.666l1.518-0.189c0,0.004,0,0.006,0,0.008l1.979-0.246c0.115,0.998,0.346,1.967,0.681,2.889
		l-1.865,0.678C11.079,37.619,11.079,37.62,11.079,37.62z M20.22,19.356L20.22,19.356l0.417,1.152
		c-0.915,0.332-1.783,0.764-2.592,1.287l-1.085-1.711c-0.004,0.001-0.008,0.004-0.012,0.006l-0.795-1.254
		c1.025-0.663,2.128-1.212,3.287-1.634L20.22,19.356z M14.478,22.093c0,0-0.001,0.001-0.002,0.001l1.439,1.425
		c-0.697,0.699-1.316,1.478-1.839,2.327l-1.032-0.638l-0.035-0.022l-0.646-0.398c-0.001,0.002-0.002,0.004-0.003,0.004l-1.278-0.789
		c0.665-1.079,1.452-2.071,2.338-2.959L14.478,22.093z M13,31.238c0.732-6.617,6.712-11.403,13.327-10.67
		C32.945,21.301,37.731,27.279,37,33.896c-0.733,6.616-6.712,11.403-13.329,10.67C17.054,43.834,12.267,37.855,13,31.238z
		 M29.784,18.515l0.497-1.414c1.213,0.414,2.355,0.963,3.414,1.63l-1.231,1.95l0,0l-0.645,1.022
		c-0.836-0.524-1.738-0.955-2.696-1.279L29.784,18.515z M17.433,45.268l0.986-1.694c0.828,0.496,1.718,0.905,2.661,1.206
		l-0.595,1.865l-0.475,1.486c-1.193-0.382-2.324-0.896-3.374-1.523l0.784-1.346C17.425,45.264,17.428,45.267,17.433,45.268z
		 M23.625,47.281c0.004,0.001,0.007,0.002,0.011,0.002l0.166-1.951c1.008,0.095,2,0.072,2.963-0.061l0.264,1.927
		c0.001,0,0.003-0.001,0.003-0.001l0.214,1.559c-1.219,0.17-2.476,0.202-3.752,0.084L23.625,47.281z M30.01,46.484
		c0.001,0,0.002,0,0.003,0l-0.67-1.85c0.919-0.332,1.791-0.766,2.604-1.29l1.055,1.661c0.002-0.002,0.005-0.003,0.006-0.006
		l0.829,1.306c-1.03,0.664-2.138,1.215-3.3,1.636L30.01,46.484z M35.48,42.998c0.001-0.002,0.002-0.003,0.004-0.004l-1.396-1.383
		c0.7-0.703,1.321-1.486,1.844-2.34l0.985,0.607l0.035,0.021l0.645,0.398c0,0,0-0.001,0.001-0.002l1.327,0.82
		c-0.667,1.084-1.455,2.079-2.344,2.971L35.48,42.998z M37.096,28.299l1.843-0.632l-0.004,0.007l0.038-0.012
		c-0.002-0.005-0.004-0.01-0.006-0.014l1.451-0.498c0.391,1.107,0.664,2.266,0.809,3.457l-1.549,0.193
		c-0.001-0.004-0.001-0.007-0.002-0.01l-1.944,0.242C37.617,30.091,37.404,29.174,37.096,28.299z M38.848,23.901l-1.277,0.798
		c-0.002-0.001-0.003-0.003-0.003-0.004l-0.036,0.026l-1.666,1.04c-0.548-0.872-1.197-1.674-1.934-2.392l1.122-1.131l0.295-0.299
		l1.053-1.069C37.334,21.779,38.155,22.797,38.848,23.901z M26.841,16.329l-0.171,1.485h-0.002l-0.005,0.039h0.002l-0.021,0.174
		l-0.198,1.799c-0.012-0.001-0.024-0.004-0.035-0.005c-1.026-0.113-2.039-0.099-3.021,0.024l-0.233-2.011
		c-0.006,0-0.01,0.001-0.015,0.001l-0.172-1.486c1.244-0.156,2.526-0.17,3.828-0.026C26.813,16.325,26.827,16.327,26.841,16.329z
		 M9.538,27.27l1.43,0.482c-0.001,0.002-0.002,0.004-0.002,0.004l1.906,0.644c-0.301,0.876-0.513,1.798-0.619,2.756
		c-0.008,0.075-0.012,0.15-0.019,0.226l-1.997-0.188c0,0.002-0.001,0.005-0.002,0.007l-1.508-0.144
		c0.009-0.095,0.018-0.191,0.028-0.287C8.89,29.553,9.157,28.383,9.538,27.27z M11.278,41.43l1.277-0.846
		c0.004,0.005,0.006,0.01,0.008,0.014l1.652-1.094c0.549,0.854,1.198,1.639,1.932,2.34l-0.807,0.852l0,0l-1.61,1.697
		C12.8,43.504,11.976,42.51,11.278,41.43z M40.471,37.838l-1.479-0.499c0-0.003,0.002-0.005,0.002-0.008l-1.856-0.626
		c0.294-0.867,0.504-1.779,0.607-2.727c0.011-0.09,0.015-0.179,0.023-0.268l1.955,0.186c0-0.002,0-0.003,0-0.004l1.552,0.146
		c-0.01,0.109-0.02,0.218-0.031,0.326C41.109,35.572,40.847,36.733,40.471,37.838z"/>
	<path fill="#BDA770" d="M30.381,36.033c-0.386-0.387-0.963-0.465-1.428-0.238l-2.083-2.083c0.558-0.776,0.559-1.825,0.007-2.603
		l2.049-2.049c0.469,0.243,1.062,0.169,1.455-0.225c0.486-0.487,0.486-1.276,0-1.762c-0.487-0.487-1.275-0.487-1.763-0.001
		c-0.394,0.394-0.469,0.986-0.225,1.455l-2.049,2.05c-0.777-0.555-1.827-0.552-2.603,0.006l-2.033-2.033
		c0.228-0.465,0.148-1.041-0.237-1.428c-0.487-0.485-1.276-0.485-1.762,0.001c-0.486,0.486-0.486,1.274,0,1.762
		c0.4,0.401,1.008,0.471,1.481,0.21l2.021,2.021c-0.545,0.774-0.542,1.814,0.006,2.586l-2.163,2.164
		c-0.461-0.215-1.027-0.134-1.406,0.246c-0.487,0.487-0.487,1.275,0,1.763c0.486,0.487,1.274,0.487,1.762,0
		c0.406-0.406,0.472-1.024,0.198-1.5l2.142-2.142c0.771,0.549,1.812,0.551,2.585,0.007l2.072,2.072
		c-0.261,0.474-0.191,1.08,0.211,1.481c0.486,0.486,1.274,0.486,1.762,0C30.867,37.309,30.867,36.52,30.381,36.033z"/>
</g>
</svg>
