<?xml version="1.0" encoding="utf-8"?>
<!-- Generator: Adobe Illustrator 16.0.4, SVG Export Plug-In . SVG Version: 6.00 Build 0)  -->
<svg version="1.2" baseProfile="tiny" id="Layer_1" xmlns="http://www.w3.org/2000/svg" xmlns:xlink="http://www.w3.org/1999/xlink"
	 x="0px" y="0px" width="50px" height="50px" viewBox="0 0 50 50" xml:space="preserve">
<g>
	<g>
		<path fill="#FFFFFF" d="M24.998,50C11.214,50,0,38.784,0,25C0,11.214,11.214,0,24.998,0C38.784,0,50,11.214,50,25
			C50,38.784,38.784,50,24.998,50z M24.998,2.446C12.562,2.446,2.446,12.564,2.446,25c0,12.437,10.116,22.554,22.552,22.554
			c12.438,0,22.557-10.117,22.557-22.554C47.555,12.564,37.436,2.446,24.998,2.446z"/>
	</g>
	<g>
		<path fill="#FFFFFF" d="M19.872,36.479c-0.313,0-0.626-0.119-0.865-0.357c-0.478-0.479-0.478-1.252,0-1.729l9.391-9.389
			l-9.391-9.392c-0.478-0.478-0.478-1.251,0-1.729s1.251-0.478,1.729,0l11.121,11.121L20.737,36.121
			C20.498,36.359,20.185,36.479,19.872,36.479z"/>
	</g>
</g>
</svg>
