<?xml version="1.0" encoding="utf-8"?>
<!-- Generator: Adobe Illustrator 16.0.3, SVG Export Plug-In . SVG Version: 6.00 Build 0)  -->
<!DOCTYPE svg PUBLIC "-//W3C//DTD SVG 1.1//EN" "http://www.w3.org/Graphics/SVG/1.1/DTD/svg11.dtd">
<svg version="1.1" id="Layer_1" xmlns="http://www.w3.org/2000/svg" xmlns:xlink="http://www.w3.org/1999/xlink" x="0px" y="0px"
   width="50px" height="50px" viewBox="0 0 50 50" enable-background="new 0 0 50 50" xml:space="preserve">
<g>
  <path fill="#ffffff" d="M15.084-0.318c-3.518,0-4.271,0.818-4.271,4.348v40.999c0,2.83-0.091,3.919,1.402,3.972
    c1.012,0,1.972-0.882,2.75-1.674c0,0,9.434-11.098,10.058-11.33c0.364-0.144-0.014-0.17-0.027-0.104
    c-0.013,0.014,0.027,0.051,0.156,0.104c0.624,0.232,10.058,11.33,10.058,11.33C35.988,48.118,36.95,49,37.961,49
    c1.494-0.053,1.402-1.142,1.402-3.972V4.029c0-3.53-0.754-4.348-4.27-4.348H15.084z"/>
</g>
</svg>
