<?xml version="1.0" encoding="UTF-8" standalone="no"?>
<svg width="20px" height="20px" viewBox="0 0 20 20" version="1.1" xmlns="http://www.w3.org/2000/svg" xmlns:xlink="http://www.w3.org/1999/xlink" xmlns:sketch="http://www.bohemiancoding.com/sketch/ns">
    <!-- Generator: Sketch 3.3.3 (12081) - http://www.bohemiancoding.com/sketch -->
    <title>navbar - Find</title>
    <desc>Created with Sketch.</desc>
    <defs></defs>
    <g id="Icons" stroke="none" stroke-width="1" fill="none" fill-rule="evenodd" sketch:type="MSPage">
        <g id="Icon-List---Vector" sketch:type="MSArtboardGroup" transform="translate(-15.000000, -20.000000)" fill="#999999">
            <g id="navbar" sketch:type="MSLayerGroup" transform="translate(15.000000, 20.000000)">
                <path d="M13.0575495,14.1884495 C11.6790269,15.3165314 9.9168877,15.9933419 7.99667094,15.9933419 C3.58023153,15.9933419 0,12.4131104 0,7.99667094 C0,3.58023153 3.58023153,0 7.99667094,0 C12.4131104,0 15.9933419,3.58023153 15.9933419,7.99667094 C15.9933419,9.9168877 15.3165314,11.6790269 14.1884495,13.0575495 L20,18.8691 L18.8691,20 L13.0575495,14.1884495 Z M7.99667094,14.3940077 C11.5298225,14.3940077 14.3940077,11.5298225 14.3940077,7.99667094 C14.3940077,4.46351941 11.5298225,1.59933419 7.99667094,1.59933419 C4.46351941,1.59933419 1.59933419,4.46351941 1.59933419,7.99667094 C1.59933419,11.5298225 4.46351941,14.3940077 7.99667094,14.3940077 Z" id="navbar---Find" sketch:type="MSShapeGroup"></path>
            </g>
        </g>
    </g>
</svg>