<?xml version="1.0" encoding="utf-8"?>
<!-- Generator: Adobe Illustrator 16.0.3, SVG Export Plug-In . SVG Version: 6.00 Build 0)  -->
<!DOCTYPE svg PUBLIC "-//W3C//DTD SVG 1.1//EN" "http://www.w3.org/Graphics/SVG/1.1/DTD/svg11.dtd">
<svg version="1.1" xmlns="http://www.w3.org/2000/svg" xmlns:xlink="http://www.w3.org/1999/xlink" x="0px" y="0px" width="20px"
  height="40px" viewBox="0 0 20 40" enable-background="new 0 0 20 40" xml:space="preserve">
<g id="Layer_1">
 
  <circle fill-rule="evenodd" clip-rule="evenodd" fill="none" stroke="#FFFFFF" stroke-width="2.15" stroke-miterlimit="10" cx="7.8" cy="7.8" r="6.6"/>
 <path fill-rule="evenodd" clip-rule="evenodd" fill="#FFFFFF" d="M19.4,16.5c0.8,0.8,0.8,2,0,2.8l0,0c-0.8,0.8-2,0.8-2.8,0
  l-3.7-3.7c-0.8-0.8-0.8-2,0-2.8l0,0c0.8-0.8,2-0.8,2.8,0L19.4,16.5z"/>
</g>
<g id="Layer_1_copy">
 
  <circle fill-rule="evenodd" clip-rule="evenodd" fill="none" stroke="#BDA76F" stroke-width="2.15" stroke-miterlimit="10" cx="7.8" cy="27.9" r="6.6"/>
 <path fill-rule="evenodd" clip-rule="evenodd" fill="#BDA76F" d="M19.4,36.6c0.8,0.8,0.8,2,0,2.8l0,0c-0.8,0.8-2,0.8-2.8,0
  l-3.7-3.7c-0.8-0.8-0.8-2,0-2.8l0,0c0.8-0.8,2-0.8,2.8,0L19.4,36.6z"/>
</g>
</svg>
