<?xml version="1.0" encoding="utf-8"?>
<!-- Generator: Adobe Illustrator 16.0.3, SVG Export Plug-In . SVG Version: 6.00 Build 0)  -->
<!DOCTYPE svg PUBLIC "-//W3C//DTD SVG 1.1//EN" "http://www.w3.org/Graphics/SVG/1.1/DTD/svg11.dtd">
<svg version="1.1" id="Layer_1" xmlns="http://www.w3.org/2000/svg" xmlns:xlink="http://www.w3.org/1999/xlink" x="0px" y="0px"
	 width="50px" height="50px" viewBox="0 0 50 50" enable-background="new 0 0 50 50" xml:space="preserve">
<g>
	<g>
		<path fill="#BDA770" d="M17.048,22.425v-0.229c-0.005,0.127-0.016,0.253-0.016,0.382c0,5.191,3.478,9.4,7.769,9.4
			c4.29,0,7.768-4.209,7.768-9.4c0-0.076-0.008-0.151-0.009-0.226c-2.329-0.706-5.048-1.281-7.784-1.281
			C22.306,21.071,19.52,21.685,17.048,22.425z"/>
	</g>
	<path fill="#BDA770" d="M17.086,15.639c-0.006,1.501-0.023,3.003-0.04,4.505l1.63-0.271c0.051-0.019,0.105-0.033,0.162-0.042
		c1.53-0.248,3.056-0.568,4.598-0.687c2.342-0.182,4.669-0.018,6.958,0.564l2.124,0.353c0.001-0.41,0.002-0.821,0.002-1.232h0.023
		v-3.104c-1.894-0.438-5.083-1.074-7.32-1.01C21.629,14.815,18.811,15.273,17.086,15.639z M29.119,15.886
		c0.738-0.021,1.369,0.59,1.378,1.33c0.01,0.765-0.574,1.362-1.335,1.366c-0.761,0.003-1.346-0.584-1.342-1.353
		C27.822,16.512,28.408,15.906,29.119,15.886z M30.687,12.207c-0.142-0.041-0.28-0.088-0.422-0.122
		c-3.031-0.704-6.091-0.763-9.15-0.316c-1.106,0.161-2.187,0.557-3.259,0.906c-0.545,0.179-0.764,0.616-0.764,1.234
		c0,0.457-0.006,0.913-0.006,1.37c1.752-0.365,4.562-0.815,8.128-0.915c1.002-0.028,3.741,0.152,4.658,0.457
		c0.992,0.176,1.926,0.372,2.671,0.543V14.66C32.543,12.968,32.338,12.695,30.687,12.207z"/>
	<g>
		<g>
			<path fill="#BDA770" d="M32.782,32.658h0.085l-0.37-0.176l-0.477-1.67c0,0-2.274,2.998-6.929,2.998s-6.849-3.008-6.849-3.008
				l-0.47,1.695l-0.583,0.16h0.027c-4.027,1.297-6.174,3.629-6.174,8.104V50h27.912v-9.238
				C38.956,36.287,36.126,33.699,32.782,32.658z M21.082,48.678c-0.752,0-1.362-0.609-1.362-1.363c0-0.752,0.61-1.363,1.362-1.363
				c0.754,0,1.363,0.611,1.363,1.363C22.445,48.068,21.836,48.678,21.082,48.678z M21.082,44.092c-0.752,0-1.362-0.611-1.362-1.363
				c0-0.754,0.61-1.363,1.362-1.363c0.754,0,1.363,0.609,1.363,1.363C22.445,43.48,21.836,44.092,21.082,44.092z M21.082,39.506
				c-0.752,0-1.362-0.611-1.362-1.365c0-0.752,0.61-1.361,1.362-1.361c0.754,0,1.363,0.609,1.363,1.361
				C22.445,38.895,21.836,39.506,21.082,39.506z M28.918,48.678c-0.752,0-1.362-0.609-1.362-1.363c0-0.752,0.61-1.363,1.362-1.363
				c0.755,0,1.363,0.611,1.363,1.363C30.281,48.068,29.673,48.678,28.918,48.678z M28.918,44.092c-0.752,0-1.362-0.611-1.362-1.363
				c0-0.754,0.61-1.363,1.362-1.363c0.755,0,1.363,0.609,1.363,1.363C30.281,43.48,29.673,44.092,28.918,44.092z M28.918,39.506
				c-0.752,0-1.362-0.611-1.362-1.365c0-0.752,0.61-1.361,1.362-1.361c0.755,0,1.363,0.609,1.363,1.361
				C30.281,38.895,29.673,39.506,28.918,39.506z"/>
		</g>
	</g>
</g>
</svg>
