<?xml version="1.0" encoding="utf-8"?>
<!-- Generator: Adobe Illustrator 16.0.4, SVG Export Plug-In . SVG Version: 6.00 Build 0)  -->
<!DOCTYPE svg PUBLIC "-//W3C//DTD SVG 1.1//EN" "http://www.w3.org/Graphics/SVG/1.1/DTD/svg11.dtd">
<svg version="1.1" id="Layer_1" xmlns="http://www.w3.org/2000/svg" xmlns:xlink="http://www.w3.org/1999/xlink" x="0px" y="0px"
   width="50px" height="100px" viewBox="0 0 50 100" enable-background="new 0 0 50 100" xml:space="preserve">
<path fill="#999999" d="M35.642,34.435c0,0.197-0.159,0.356-0.355,0.356H14.714c-0.196,0-0.355-0.159-0.355-0.356v-1
  c0-0.197,0.159-0.355,0.355-0.355h20.572c0.196,0,0.355,0.159,0.355,0.355V34.435z"/>
<circle fill="#999999" cx="17.355" cy="36.062" r="1.439"/>
<circle fill="#999999" cx="32.523" cy="36.062" r="1.438"/>
<g>
  <path fill="#999999" d="M34.289,33.373h-1.1V14.04c0-0.243-0.197-0.44-0.44-0.44H17.45c-0.243,0-0.44,0.197-0.44,0.44v19.333h-1.1
    V14.04c0-0.85,0.691-1.54,1.54-1.54h15.299c0.85,0,1.54,0.69,1.54,1.54V33.373z"/>
</g>
<path fill="#999999" d="M30.037,24.833h-0.723v8.247h0.723c0.547,0,0.99-0.443,0.99-0.99v-6.267
  C31.027,25.276,30.584,24.833,30.037,24.833z"/>
<path fill="#999999" d="M27.095,24.833v-0.631c0-0.463-0.376-0.839-0.839-0.839h-2.247c-0.463,0-0.839,0.376-0.839,0.839v0.631
  h-1.533v8.247h6.99v-8.247H27.095z M23.857,24.202c0-0.084,0.068-0.151,0.151-0.151h2.247c0.083,0,0.151,0.067,0.151,0.151v0.631
  h-2.55V24.202z"/>
<path fill="#999999" d="M20.227,24.833c-0.546,0-0.99,0.443-0.99,0.99v6.267c0,0.547,0.443,0.99,0.99,0.99h0.724v-8.247H20.227z"/>
<path fill="#BDA770" d="M35.642,84.436c0,0.196-0.159,0.355-0.355,0.355H14.714c-0.196,0-0.355-0.159-0.355-0.355v-1
  c0-0.197,0.159-0.355,0.355-0.355h20.572c0.196,0,0.355,0.158,0.355,0.355V84.436z"/>
<circle fill="#BDA770" cx="17.354" cy="86.062" r="1.438"/>
<circle fill="#BDA770" cx="32.523" cy="86.062" r="1.438"/>
<g>
  <path fill="#BDA770" d="M34.289,83.373h-1.1V64.04c0-0.243-0.197-0.44-0.44-0.44h-15.3c-0.242,0-0.44,0.197-0.44,0.44v19.333h-1.1
    V64.04c0-0.85,0.691-1.54,1.54-1.54h15.3c0.85,0,1.54,0.69,1.54,1.54V83.373z"/>
</g>
<path fill="#BDA770" d="M30.037,74.832h-0.723v8.248h0.723c0.547,0,0.99-0.443,0.99-0.99v-6.268
  C31.027,75.275,30.584,74.832,30.037,74.832z"/>
<path fill="#BDA770" d="M27.095,74.832v-0.631c0-0.463-0.376-0.838-0.839-0.838h-2.247c-0.463,0-0.839,0.375-0.839,0.838v0.631
  h-1.533v8.248h6.99v-8.248H27.095z M23.857,74.201c0-0.084,0.067-0.15,0.151-0.15h2.247c0.083,0,0.151,0.066,0.151,0.15v0.631h-2.55
  V74.201z"/>
<path fill="#BDA770" d="M20.227,74.832c-0.546,0-0.989,0.443-0.989,0.99v6.268c0,0.547,0.443,0.99,0.989,0.99h0.724v-8.248H20.227z"
  />
</svg>
