<?xml version="1.0" encoding="utf-8"?>
<!-- Generator: Adobe Illustrator 16.0.3, SVG Export Plug-In . SVG Version: 6.00 Build 0)  -->
<!DOCTYPE svg PUBLIC "-//W3C//DTD SVG 1.1//EN" "http://www.w3.org/Graphics/SVG/1.1/DTD/svg11.dtd">
<svg version="1.1" id="Layer_1" xmlns="http://www.w3.org/2000/svg" xmlns:xlink="http://www.w3.org/1999/xlink" x="0px" y="0px"
	 width="50px" height="50px" viewBox="0 0 50 50" enable-background="new 0 0 50 50" xml:space="preserve">
<g>
	<g>
		<path fill="#BDA770" d="M20.506,19.716l3.134-1.646l3.135,1.646l-0.599-3.489l2.537-2.473l-3.506-0.509L23.64,10.07l-1.567,3.175
			l-3.504,0.509l2.536,2.473L20.506,19.716z M11.622,20.607l2.142-1.126l2.14,1.126l-0.409-2.384l1.731-1.688l-2.392-0.349
			l-1.07-2.168l-1.072,2.168L10.3,16.536l1.73,1.688L11.622,20.607z M31.377,20.607l2.143-1.126l2.141,1.126l-0.408-2.384
			l1.73-1.688l-2.395-0.349l-1.068-2.168l-1.069,2.168l-2.395,0.349l1.729,1.688L31.377,20.607z M16.64,31.937
			c0,0-0.614,0.587-1.936,0.083c0,0-1.04-0.359-2.13,0.229l0.002-0.27h-0.858v2.358h0.817c0,0,0.21-0.832,0.754-0.776
			c0.546,0.054,1.005,0.285,1.688,0.204c0,0-2.005,1.131-2.005,3.067h2.878c0,0-0.205-2.728,1.402-4.376L16.64,31.937z
			 M25.762,31.937c0,0-0.612,0.587-1.936,0.083c0,0-1.038-0.359-2.129,0.229l0.003-0.27h-0.86v2.358h0.818
			c0,0,0.209-0.832,0.755-0.776c0.544,0.054,1.004,0.285,1.686,0.204c0,0-2.004,1.131-2.004,3.067h2.878
			c0,0-0.206-2.728,1.403-4.376L25.762,31.937z M31.494,33.561c0.545,0.054,1.004,0.285,1.688,0.204c0,0-2.005,1.131-2.005,3.067
			h2.877c0,0-0.206-2.728,1.405-4.376l-0.616-0.52c0,0-0.612,0.587-1.936,0.083c0,0-1.036-0.359-2.129,0.229l0.004-0.27h-0.86v2.358
			h0.818C30.74,34.337,30.949,33.505,31.494,33.561z M41.548,36.207v-6.731c0.311-0.188,0.529-0.514,0.529-0.903
			c0-0.593-0.479-1.073-1.072-1.073c-0.594,0-1.073,0.48-1.073,1.073c0,0.366,0.195,0.673,0.475,0.866v6.705h-1.869V25.725h-5.229
			v-2.26h-5.966c-0.349-1.225-1.873-2.148-3.703-2.148s-3.354,0.923-3.703,2.148h-5.301v2.26H8.66v22.034h1.867V50H36.67v-2.241
			h1.867v-8.567h2.258c0.875,0,1.602-0.708,1.602-1.582C42.396,36.994,41.93,36.47,41.548,36.207z M19.49,29.46h8.218v9.71H19.49
			V29.46z M10.527,29.46h8.216v9.71h-8.216V29.46z M28.292,44.934h-9.303c-0.514,0-0.934-0.392-0.934-0.869s0.42-0.867,0.934-0.867
			h9.303c0.514,0,0.934,0.39,0.934,0.867S28.806,44.934,28.292,44.934z M36.67,39.17h-8.215v-9.71h8.215V39.17z"/>
	</g>
</g>
</svg>
