<?xml version="1.0" encoding="utf-8"?>
<!-- Generator: Adobe Illustrator 16.0.3, SVG Export Plug-In . SVG Version: 6.00 Build 0)  -->
<!DOCTYPE svg PUBLIC "-//W3C//DTD SVG 1.1//EN" "http://www.w3.org/Graphics/SVG/1.1/DTD/svg11.dtd">
<svg version="1.1" id="Layer_1" xmlns="http://www.w3.org/2000/svg" xmlns:xlink="http://www.w3.org/1999/xlink" x="0px" y="0px"
	 width="50px" height="50px" viewBox="0 0 50 50" enable-background="new 0 0 50 50" xml:space="preserve">
<g>
	<path fill-rule="evenodd" clip-rule="evenodd" fill="#BDA770" d="M26.021,20.469c0,0,2.977-3.803,6.926-3.441
		c4.894,0.448,6.928,4.589,6.928,4.589s-2.716,3.761-6.928,3.441C28.348,24.709,26.021,20.469,26.021,20.469z"/>
	<g>
		<g>
			<ellipse fill-rule="evenodd" clip-rule="evenodd" fill="#BDA770" cx="18.783" cy="41.396" rx="8.658" ry="8.604"/>
		</g>
	</g>
	<path fill="#FFFFFF" d="M23.183,37.092c-1.257-1.77-3.271-1.956-3.356-1.963c-0.277-0.021-0.517,0.182-0.539,0.457
		c-0.023,0.274,0.182,0.517,0.457,0.539c0.016,0.002,1.633,0.151,2.623,1.545c1.159,1.633,1.129,3.095,1.129,3.107
		c-0.01,0.276,0.205,0.509,0.48,0.52c0.007,0,0.014,0,0.02,0c0.268,0,0.489-0.211,0.5-0.48
		C24.498,40.744,24.55,39.017,23.183,37.092z"/>
	<path fill-rule="evenodd" clip-rule="evenodd" fill="#BDA770" d="M31.013,32.793c-1.904,0-3.66,0.618-5.089,1.654
		c1.766,1.792,2.858,4.242,2.858,6.949s-1.093,5.157-2.858,6.949C27.353,49.382,29.108,50,31.013,50
		c4.782,0,8.658-3.852,8.658-8.604S35.795,32.793,31.013,32.793z M37.158,41.297c-0.006,0-0.013,0-0.02,0
		c-0.276-0.012-0.491-0.244-0.48-0.52c0.001-0.013,0.03-1.475-1.128-3.107c-0.981-1.38-2.61-1.543-2.626-1.545
		c-0.274-0.024-0.479-0.267-0.454-0.541c0.023-0.275,0.292-0.472,0.538-0.455c0.086,0.007,2.1,0.193,3.356,1.962
		c1.367,1.926,1.316,3.653,1.313,3.726C37.647,41.086,37.426,41.297,37.158,41.297z"/>
	
		<path fill-rule="evenodd" clip-rule="evenodd" fill="none" stroke="#BDA770" stroke-width="2" stroke-linecap="round" stroke-linejoin="round" stroke-miterlimit="10" d="
		M28.178,29.499c-2.518-5.185-8.08-8.03-8.08-8.03s1.23,4.643,0,8.03"/>
</g>
</svg>
