<?xml version="1.0" encoding="utf-8"?>
<!-- Generator: Adobe Illustrator 16.0.3, SVG Export Plug-In . SVG Version: 6.00 Build 0)  -->
<!DOCTYPE svg PUBLIC "-//W3C//DTD SVG 1.1//EN" "http://www.w3.org/Graphics/SVG/1.1/DTD/svg11.dtd">
<svg version="1.1" id="Layer_1" xmlns="http://www.w3.org/2000/svg" xmlns:xlink="http://www.w3.org/1999/xlink" x="0px" y="0px"
  width="50px" height="100px" viewBox="0 0 50 100" enable-background="new 0 0 50 100" xml:space="preserve">
<path fill="#BDA770" d="M33.593,73.469c-0.831,0-1.601,0.256-2.237,0.691l-7.405-6.878c0.288-0.488,0.464-1.049,0.464-1.656
 c0-1.811-1.468-3.278-3.278-3.278c-1.81,0-3.277,1.468-3.277,3.278c0,1.812,1.468,3.277,3.277,3.277
 c0.694,0,1.337-0.219,1.866-0.587l7.354,6.832c-0.462,0.648-0.74,1.438-0.74,2.296c0,0.147,0.028,0.287,0.043,0.43l-10.787,4.872
 c-0.597-0.801-1.544-1.325-2.619-1.325c-1.81,0-3.276,1.469-3.276,3.279c0,1.809,1.467,3.277,3.276,3.277
 c1.811,0,3.278-1.469,3.278-3.277c0-0.233-0.025-0.46-0.071-0.68l10.599-4.788c0.657,1.294,1.985,2.188,3.534,2.188
 c2.195,0,3.976-1.78,3.976-3.977C37.568,75.249,35.788,73.469,33.593,73.469z"/>
<path fill="#FFFFFF" d="M33.593,23.469c-0.831,0-1.601,0.256-2.237,0.691l-7.405-6.878c0.288-0.488,0.464-1.049,0.464-1.656
 c0-1.811-1.468-3.278-3.278-3.278c-1.81,0-3.277,1.468-3.277,3.278c0,1.812,1.468,3.277,3.277,3.277
 c0.694,0,1.337-0.219,1.866-0.587l7.354,6.832c-0.462,0.648-0.74,1.438-0.74,2.296c0,0.147,0.028,0.287,0.043,0.43l-10.787,4.872
 c-0.597-0.801-1.544-1.325-2.619-1.325c-1.81,0-3.276,1.469-3.276,3.279c0,1.809,1.467,3.277,3.276,3.277
 c1.811,0,3.278-1.469,3.278-3.277c0-0.233-0.025-0.46-0.071-0.68l10.599-4.788c0.657,1.294,1.985,2.188,3.534,2.188
 c2.195,0,3.976-1.78,3.976-3.977C37.568,25.249,35.788,23.469,33.593,23.469z"/>
</svg>
