<?xml version="1.0" encoding="utf-8"?>
<!-- Generator: Adobe Illustrator 16.0.4, SVG Export Plug-In . SVG Version: 6.00 Build 0)  -->
<!DOCTYPE svg PUBLIC "-//W3C//DTD SVG 1.1//EN" "http://www.w3.org/Graphics/SVG/1.1/DTD/svg11.dtd">
<svg version="1.1" id="Layer_1" xmlns="http://www.w3.org/2000/svg" xmlns:xlink="http://www.w3.org/1999/xlink" x="0px" y="0px"
   width="50px" height="100px" viewBox="0 0 50 100" enable-background="new 0 0 50 100" xml:space="preserve">
<g>
  <g>
    <polygon fill="#FFFFFF" points="23.296,37.324 24.541,26.583 25.462,26.583 26.706,37.324     "/>
    <polygon fill="#FFFFFF" points="24.553,26.379 23.931,24.92 24.553,24.31 25.45,24.31 26.07,24.92 25.45,26.379     "/>
  </g>
  <path fill="#FFFFFF" d="M32.249,37.5c0.19,0,0.347-0.155,0.347-0.346v-9.762c0-0.805-0.236-1.588-1.257-1.92l-3.151-0.841
    L25,34.436l-3.188-9.805l-3.15,0.841c-1.021,0.332-1.256,1.115-1.256,1.92v9.762c0,0.191,0.155,0.346,0.346,0.346"/>
  <path fill="#FFFFFF" d="M28.747,18.084c-0.084-0.012-0.151-0.002-0.208,0.02c0.134-0.939,0.214-1.836,0.214-2.461
    c0-1.195-0.702-1.302-0.702-1.302c0-0.187-0.085-0.572-0.968-1.082c-0.884-0.51-1.706-0.47-2.362-0.47
    c-0.656,0-0.997-0.289-0.997-0.289s0.065,0.289,0.439,0.525c0,0-0.345,0.005-0.702-0.196c0,0,0.115,0.155,0.293,0.248
    c0,0-0.822,0.059-1.461,0.612c-0.818,0.707-1.153,1.636-0.992,3.012c0.037,0.435,0.092,0.913,0.162,1.403
    c-0.056-0.021-0.124-0.031-0.207-0.02c-0.59,0.082,0.065,1.633,0.288,2.096c0.092,0.191,0.235,0.291,0.371,0.343
    c0.006,0.027,0.013,0.055,0.02,0.082c0.391,1.58,1.295,2.95,3.066,2.95c1.771,0,2.676-1.37,3.067-2.95
    c0.007-0.027,0.014-0.054,0.021-0.082c0.136-0.052,0.278-0.151,0.37-0.343C28.682,19.717,29.336,18.166,28.747,18.084z"/>
</g>
<path fill="#FFFFFF" d="M35.968,37.154c0,0.191-0.155,0.346-0.346,0.346H14.378c-0.19,0-0.346-0.155-0.346-0.346v-1.242
  c0-0.191,0.155-0.346,0.346-0.346h21.244c0.19,0,0.346,0.155,0.346,0.346V37.154z"/>
<g>
  <g>
    <polygon fill="#999999" points="23.296,87.324 24.541,76.583 25.462,76.583 26.706,87.324     "/>
    <polygon fill="#999999" points="24.553,76.379 23.931,74.92 24.553,74.311 25.45,74.311 26.07,74.92 25.45,76.379     "/>
  </g>
  <path fill="#999999" d="M32.249,87.5c0.19,0,0.347-0.154,0.347-0.346v-9.762c0-0.807-0.236-1.588-1.257-1.92l-3.151-0.843
    L25,84.436l-3.188-9.805l-3.15,0.842c-1.021,0.332-1.256,1.114-1.256,1.92v9.762c0,0.191,0.155,0.347,0.346,0.347"/>
  <path fill="#999999" d="M28.747,68.084c-0.084-0.012-0.151-0.002-0.208,0.02c0.134-0.938,0.214-1.836,0.214-2.461
    c0-1.193-0.702-1.302-0.702-1.302c0-0.187-0.085-0.571-0.968-1.081c-0.884-0.51-1.706-0.471-2.362-0.471
    c-0.656,0-0.997-0.289-0.997-0.289s0.065,0.289,0.439,0.525c0,0-0.345,0.004-0.702-0.196c0,0,0.115,0.155,0.293,0.247
    c0,0-0.822,0.061-1.461,0.611c-0.818,0.707-1.153,1.637-0.992,3.013c0.037,0.435,0.092,0.913,0.162,1.403
    c-0.056-0.021-0.124-0.031-0.207-0.021c-0.59,0.082,0.065,1.633,0.288,2.097c0.092,0.19,0.235,0.291,0.371,0.344
    c0.006,0.025,0.013,0.055,0.02,0.08c0.391,1.58,1.295,2.951,3.066,2.951c1.771,0,2.676-1.371,3.067-2.951
    c0.007-0.025,0.014-0.054,0.021-0.08c0.136-0.053,0.278-0.152,0.37-0.344C28.682,69.717,29.336,68.166,28.747,68.084z"/>
</g>
<path fill="#999999" d="M35.968,87.154c0,0.191-0.155,0.346-0.346,0.346H14.378c-0.19,0-0.346-0.154-0.346-0.346v-1.242
  c0-0.191,0.155-0.346,0.346-0.346h21.244c0.19,0,0.346,0.154,0.346,0.346V87.154z"/>
</svg>
