<?xml version="1.0" encoding="utf-8"?>
<!-- Generator: Adobe Illustrator 16.0.3, SVG Export Plug-In . SVG Version: 6.00 Build 0)  -->
<!DOCTYPE svg PUBLIC "-//W3C//DTD SVG 1.1//EN" "http://www.w3.org/Graphics/SVG/1.1/DTD/svg11.dtd">
<svg version="1.1" id="Layer_1" xmlns="http://www.w3.org/2000/svg" xmlns:xlink="http://www.w3.org/1999/xlink" x="0px" y="0px"
	 width="50px" height="100px" viewBox="0 0 50 100" enable-background="new 0 0 50 100" xml:space="preserve">
<g>
	<g>
		<path fill="#999999" d="M32.004,14.434c0.018-0.067,0.03-0.137,0.03-0.211v-4.007c0-0.447-0.362-0.81-0.81-0.81H18.775
			c-0.447,0-0.81,0.362-0.81,0.81v4.007c0,0.074,0.013,0.144,0.03,0.211c2.008-1.338,4.416-2.12,7.004-2.12
			S29.996,13.096,32.004,14.434z"/>
	</g>
	<g>
		<path fill="#999999" d="M20.96,8.843h8.08c0.291,0,0.525-0.236,0.525-0.525V5.717c0-0.292-0.234-0.527-0.525-0.527h-8.08
			c-0.291,0-0.525,0.235-0.525,0.527v2.601C20.435,8.606,20.669,8.843,20.96,8.843z"/>
	</g>
	<g>
		<path fill="#999999" d="M18.01,35.526c-0.026,0.079-0.044,0.163-0.044,0.251v4.008c0,0.446,0.362,0.81,0.81,0.81h12.449
			c0.447,0,0.81-0.363,0.81-0.81v-4.008c0-0.088-0.018-0.172-0.043-0.251c-2.005,1.333-4.408,2.112-6.991,2.112
			S20.015,36.859,18.01,35.526z"/>
	</g>
	<g>
		<path fill="#999999" d="M29.04,41.157h-8.08c-0.291,0-0.525,0.236-0.525,0.527v2.6c0,0.291,0.234,0.526,0.525,0.526h8.08
			c0.291,0,0.525-0.235,0.525-0.526v-2.6C29.565,41.394,29.331,41.157,29.04,41.157z"/>
	</g>
	<g>
		<path fill="#999999" d="M37.662,24.976c0-4.394-2.251-8.271-5.658-10.542c-0.094,0.345-0.405,0.6-0.779,0.6h-1.609
			c3.748,1.748,6.358,5.541,6.358,9.942c0,4.441-2.656,8.266-6.46,9.991h1.711c0.359,0,0.66,0.235,0.767,0.56
			C35.405,33.256,37.662,29.376,37.662,24.976z"/>
	</g>
	<g>
		<path fill="#999999" d="M18.775,34.967h1.711c-3.804-1.726-6.46-5.55-6.46-9.991c0-4.401,2.61-8.194,6.358-9.942h-1.609
			c-0.374,0-0.686-0.255-0.779-0.6c-3.407,2.271-5.658,6.148-5.658,10.542c0,4.4,2.257,8.28,5.672,10.551
			C18.115,35.202,18.416,34.967,18.775,34.967z"/>
	</g>
	<g>
		<path fill="#999999" d="M18.775,15.033h1.609c1.405-0.655,2.965-1.031,4.615-1.031s3.21,0.376,4.615,1.031h1.609
			c0.374,0,0.686-0.255,0.779-0.6c-2.008-1.338-4.416-2.12-7.004-2.12s-4.996,0.782-7.004,2.12
			C18.09,14.778,18.401,15.033,18.775,15.033z"/>
	</g>
	<g>
		<path fill="#999999" d="M31.225,34.967h-1.711C28.135,35.593,26.61,35.95,25,35.95s-3.135-0.357-4.514-0.983h-1.711
			c-0.359,0-0.66,0.235-0.766,0.56c2.005,1.333,4.407,2.112,6.99,2.112s4.986-0.779,6.991-2.112
			C31.885,35.202,31.584,34.967,31.225,34.967z"/>
	</g>
</g>
<g>
	<circle fill="#999999" cx="25" cy="18.484" r="1.407"/>
</g>
<g>
	<path fill="#999999" d="M25,26.387c-0.123,0-0.245-0.04-0.346-0.119l-4.566-3.564c-0.245-0.191-0.289-0.545-0.097-0.79
		c0.19-0.245,0.544-0.289,0.789-0.098l4.26,3.325l6.703-4.065c0.266-0.16,0.612-0.076,0.772,0.188
		c0.161,0.267,0.076,0.612-0.189,0.773l-7.035,4.269C25.201,26.36,25.101,26.387,25,26.387z"/>
</g>
<g>
	<g>
		<path fill="#FFFFFF" d="M32.004,64.326c0.018-0.067,0.03-0.137,0.03-0.211v-4.007c0-0.447-0.362-0.81-0.81-0.81H18.775
			c-0.447,0-0.81,0.362-0.81,0.81v4.007c0,0.074,0.013,0.144,0.03,0.211c2.008-1.338,4.416-2.12,7.004-2.12
			S29.996,62.988,32.004,64.326z"/>
	</g>
	<g>
		<path fill="#FFFFFF" d="M20.96,58.735h8.08c0.291,0,0.525-0.236,0.525-0.525v-2.601c0-0.292-0.234-0.527-0.525-0.527h-8.08
			c-0.291,0-0.525,0.235-0.525,0.527v2.601C20.435,58.499,20.669,58.735,20.96,58.735z"/>
	</g>
	<g>
		<path fill="#FFFFFF" d="M18.01,85.419c-0.026,0.079-0.044,0.163-0.044,0.251v4.008c0,0.446,0.362,0.81,0.81,0.81h12.449
			c0.447,0,0.81-0.363,0.81-0.81V85.67c0-0.088-0.018-0.172-0.043-0.251c-2.005,1.333-4.408,2.112-6.991,2.112
			S20.015,86.752,18.01,85.419z"/>
	</g>
	<g>
		<path fill="#FFFFFF" d="M29.04,91.05h-8.08c-0.291,0-0.525,0.236-0.525,0.527v2.6c0,0.291,0.234,0.526,0.525,0.526h8.08
			c0.291,0,0.525-0.235,0.525-0.526v-2.6C29.565,91.286,29.331,91.05,29.04,91.05z"/>
	</g>
	<g>
		<path fill="#FFFFFF" d="M37.662,74.868c0-4.394-2.251-8.271-5.658-10.542c-0.094,0.345-0.405,0.6-0.779,0.6h-1.609
			c3.748,1.748,6.358,5.541,6.358,9.942c0,4.441-2.656,8.266-6.46,9.991h1.711c0.359,0,0.66,0.235,0.767,0.56
			C35.405,83.148,37.662,79.269,37.662,74.868z"/>
	</g>
	<g>
		<path fill="#FFFFFF" d="M18.775,84.859h1.711c-3.804-1.726-6.46-5.55-6.46-9.991c0-4.401,2.61-8.194,6.358-9.942h-1.609
			c-0.374,0-0.686-0.255-0.779-0.6c-3.407,2.271-5.658,6.148-5.658,10.542c0,4.4,2.257,8.28,5.672,10.551
			C18.115,85.095,18.416,84.859,18.775,84.859z"/>
	</g>
	<g>
		<path fill="#FFFFFF" d="M18.775,64.926h1.609c1.405-0.655,2.965-1.031,4.615-1.031s3.21,0.376,4.615,1.031h1.609
			c0.374,0,0.686-0.255,0.779-0.6c-2.008-1.338-4.416-2.12-7.004-2.12s-4.996,0.782-7.004,2.12
			C18.09,64.671,18.401,64.926,18.775,64.926z"/>
	</g>
	<g>
		<path fill="#FFFFFF" d="M31.225,84.859h-1.711c-1.379,0.626-2.903,0.983-4.514,0.983s-3.135-0.357-4.514-0.983h-1.711
			c-0.359,0-0.66,0.235-0.766,0.56c2.005,1.333,4.407,2.112,6.99,2.112s4.986-0.779,6.991-2.112
			C31.885,85.095,31.584,84.859,31.225,84.859z"/>
	</g>
</g>
<g>
	<circle fill="#FFFFFF" cx="25" cy="68.377" r="1.407"/>
</g>
<g>
	<path fill="#FFFFFF" d="M25,76.279c-0.123,0-0.245-0.04-0.346-0.119l-4.566-3.564c-0.245-0.191-0.289-0.545-0.097-0.79
		c0.19-0.245,0.544-0.289,0.789-0.098l4.26,3.325l6.703-4.065c0.266-0.16,0.612-0.076,0.772,0.188
		c0.161,0.267,0.076,0.612-0.189,0.773l-7.035,4.269C25.201,76.253,25.101,76.279,25,76.279z"/>
</g>
</svg>
