<?xml version="1.0" encoding="utf-8"?>
<!-- Generator: Adobe Illustrator 16.0.3, SVG Export Plug-In . SVG Version: 6.00 Build 0)  -->
<!DOCTYPE svg PUBLIC "-//W3C//DTD SVG 1.1//EN" "http://www.w3.org/Graphics/SVG/1.1/DTD/svg11.dtd">
<svg version="1.1" id="Layer_1" xmlns="http://www.w3.org/2000/svg" xmlns:xlink="http://www.w3.org/1999/xlink" x="0px" y="0px"
  width="50px" height="100px" viewBox="0 0 50 100" enable-background="new 0 0 50 100" xml:space="preserve">
<g>
 <path fill="#BDA76F" d="M29.312,64.183c-4.96,0-9.152,3.348-10.436,7.902c1.104-2.329,3.479-3.944,6.223-3.944
  c3.752,0,6.812,3.018,6.882,6.752h0.001h8.17C40.081,68.976,35.246,64.183,29.312,64.183z"/>
 <path fill="#BDA76F" d="M25.099,81.906c-3.752,0-6.812-3.018-6.882-6.753h-0.001h-8.17c0.07,5.918,4.905,10.711,10.84,10.711
  c4.96,0,9.151-3.347,10.436-7.901C30.218,80.291,27.843,81.906,25.099,81.906z"/>
</g>
<g>
 <path fill="#999999" d="M29.312,14.145c-4.96,0-9.152,3.348-10.436,7.902c1.104-2.329,3.479-3.944,6.223-3.944
  c3.752,0,6.812,3.018,6.882,6.752h0.001h8.17C40.081,18.938,35.246,14.145,29.312,14.145z"/>
 <path fill="#999999" d="M25.099,31.869c-3.752,0-6.812-3.018-6.882-6.753h-0.001h-8.17c0.07,5.918,4.905,10.711,10.84,10.711
  c4.96,0,9.151-3.347,10.436-7.901C30.218,30.253,27.843,31.869,25.099,31.869z"/>
</g>
</svg>
