<?xml version="1.0" encoding="utf-8"?>
<!-- Generator: Adobe Illustrator 16.0.3, SVG Export Plug-In . SVG Version: 6.00 Build 0)  -->
<!DOCTYPE svg PUBLIC "-//W3C//DTD SVG 1.1//EN" "http://www.w3.org/Graphics/SVG/1.1/DTD/svg11.dtd">
<svg version="1.1" id="Layer_1" xmlns="http://www.w3.org/2000/svg" xmlns:xlink="http://www.w3.org/1999/xlink" x="0px" y="0px"
	 width="50px" height="50px" viewBox="0 0 50 50" enable-background="new 0 0 50 50" xml:space="preserve">
<g>
	<path fill="#BDA770" d="M38.295,14.73c-2.761,4.202-7.957,5.081-11.997,6.292c-4.251,1.273-7.068,3.877-7.068,3.877
		c-5.923,5.093-2.039,13.825-2.039,13.825c0.108-0.05,0.212-0.104,0.319-0.152c14.338-6.66,19.438-19.319,19.438-19.319
		c-0.446,1.768-1.124,3.453-1.952,5.049c-5.07,9.79-12.744,14.102-15.923,16.126c-4.591,2.923-12.876,6.909-12.876,6.909L7.771,50
		l2.315-1.543l0.605-0.442l8.439-6.138c0,0,8.319,4.81,14.774-2.893c5.005-5.972,5.14-17.666,4.947-22.625
		c-0.013-0.359-0.029-0.68-0.045-0.963C38.758,14.464,38.597,14.289,38.295,14.73z"/>
</g>
</svg>
