<?xml version="1.0" encoding="utf-8"?>
<!-- Generator: Adobe Illustrator 16.0.3, SVG Export Plug-In . SVG Version: 6.00 Build 0)  -->
<!DOCTYPE svg PUBLIC "-//W3C//DTD SVG 1.1//EN" "http://www.w3.org/Graphics/SVG/1.1/DTD/svg11.dtd">
<svg version="1.1" id="Layer_1" xmlns="http://www.w3.org/2000/svg" xmlns:xlink="http://www.w3.org/1999/xlink" x="0px" y="0px"
	 width="50px" height="50px" viewBox="0 0 50 50" enable-background="new 0 0 50 50" xml:space="preserve">
<g>
	<path fill="#BDA770" d="M44.565,16.756v19.911c0,3.19-1.698,5.232-2.986,6.385c-0.965,0.862-2.051,1.36-2.568,1.589
		c0.088,0.458-0.174,0.931-0.621,1.12l-6.343,2.678c-0.514,0.218-1.113-0.022-1.331-0.537l-0.477-1.118
		c-0.219-0.514,0.018-1.107,0.531-1.324l6.324-2.679c0.41-0.174,0.809-0.055,1.088,0.262c0.943-0.411,4.15-2.146,4.15-6.375V16.846
		c-0.559-0.27-1.679-1.061-1.902-2.122c-0.316-1.513,0.728-2.996,2.24-3.313c1.513-0.317,3.131,0.652,3.449,2.165
		C46.404,14.936,45.682,16.271,44.565,16.756z"/>
	<g>
		<circle fill="#BDA770" cx="21.585" cy="25.329" r="1.396"/>
		<path fill="#BDA770" d="M21.585,7.832c-9.663,0-17.497,7.833-17.497,17.497c0,9.662,7.834,17.497,17.497,17.497
			c9.664,0,17.497-7.835,17.497-17.497C39.082,15.665,31.249,7.832,21.585,7.832z M21.585,31.25c-3.27,0-5.921-2.65-5.921-5.921
			s2.651-5.922,5.921-5.922s5.921,2.651,5.921,5.922S24.854,31.25,21.585,31.25z"/>
	</g>
	<rect x="3.818" y="46.093" fill="#BDA770" width="7.256" height="3.907"/>
	<rect x="14.424" y="46.093" fill="#BDA770" width="7.256" height="3.907"/>
</g>
</svg>
