<?xml version="1.0" encoding="utf-8"?>
<!-- Generator: Adobe Illustrator 16.0.3, SVG Export Plug-In . SVG Version: 6.00 Build 0)  -->
<!DOCTYPE svg PUBLIC "-//W3C//DTD SVG 1.1//EN" "http://www.w3.org/Graphics/SVG/1.1/DTD/svg11.dtd">
<svg version="1.1" id="Layer_1" xmlns="http://www.w3.org/2000/svg" xmlns:xlink="http://www.w3.org/1999/xlink" x="0px" y="0px"
	 width="50px" height="50px" viewBox="0 0 50 50" enable-background="new 0 0 50 50" xml:space="preserve">
<path fill="#BDA770" d="M41.128,27.334h-3.716v19.083h3.716V27.334z M36.337,27.334H13.904v19.088h22.433V27.334z M29.488,43.798
	l-4.495-2.371l-4.496,2.361l0.862-5.007l-3.636-3.551l5.029-0.724l2.254-4.556l2.243,4.559l5.028,0.733l-3.644,3.544L29.488,43.798z
	 M47.855,30.249v-2.011c-2.48,0-3.57-2.008-3.57-4.488H5.715c0,2.48-1.091,4.488-3.57,4.488v2.011c0.913,0,1.652,0.739,1.652,1.651
	c0,0.91-0.739,1.649-1.652,1.649v1.726c0.913,0,1.652,0.74,1.652,1.65c0,0.913-0.739,1.652-1.652,1.652v1.626
	c0.913,0,1.652,0.739,1.652,1.651s-0.739,1.65-1.652,1.65v2.006c0.042-0.002,0.084-0.002,0.12-0.002c2.477,0,3.569,2.01,3.569,4.488
	h38.451c0-2.479,1.09-4.488,3.57-4.488v-2.004c-0.914,0-1.652-0.738-1.652-1.65s0.738-1.651,1.652-1.651v-1.626
	c-0.914,0-1.652-0.739-1.652-1.652c0-0.91,0.738-1.65,1.652-1.65V33.55c-0.914,0-1.652-0.739-1.652-1.649
	C46.203,30.988,46.941,30.249,47.855,30.249z M42.146,47.525H7.854V26.229h34.292V47.525L42.146,47.525z M12.697,27.334H8.981
	v19.083h3.716V27.334z"/>
</svg>
