<?xml version="1.0" encoding="utf-8"?>
<!-- Generator: Adobe Illustrator 16.0.4, SVG Export Plug-In . SVG Version: 6.00 Build 0)  -->
<!DOCTYPE svg PUBLIC "-//W3C//DTD SVG 1.1//EN" "http://www.w3.org/Graphics/SVG/1.1/DTD/svg11.dtd">
<svg version="1.1" id="Layer_1" xmlns="http://www.w3.org/2000/svg" xmlns:xlink="http://www.w3.org/1999/xlink" x="0px" y="0px"
   width="50px" height="100px" viewBox="0 0 50 100" enable-background="new 0 0 50 100" xml:space="preserve">
<path fill="#999999" d="M37.236,66.277H12.764c-0.146,0-0.264,0.119-0.264,0.265v14.06c0,0.146,0.118,0.265,0.264,0.265h24.472
  c0.146,0,0.265-0.117,0.265-0.265v-14.06C37.5,66.396,37.382,66.277,37.236,66.277z M36.416,79.781H13.584v-12.42h22.832V79.781z"/>
<rect x="24.264" y="80.34" fill="#999999" width="1.559" height="3.118"/>
<path fill="#999999" d="M29.736,83.458c0,0.146-0.118,0.265-0.264,0.265h-8.86c-0.146,0-0.263-0.119-0.263-0.265
  c0-0.532,2.101-0.964,4.693-0.964C27.637,82.494,29.736,82.926,29.736,83.458z"/>
<g>
  
    <rect x="16.332" y="67.603" transform="matrix(-0.7071 -0.7071 0.7071 -0.7071 -21.4319 132.0113)" fill="#999999" width="0.586" height="5.682"/>
</g>
<g>
  
    <rect x="17.271" y="69.873" transform="matrix(-0.7067 -0.7075 0.7075 -0.7067 -20.5286 134.2573)" fill="#999999" width="0.587" height="3.021"/>
</g>
<path fill="#FFFFFF" d="M37.236,16.278H12.764c-0.146,0-0.264,0.118-0.264,0.264v14.06c0,0.146,0.118,0.264,0.264,0.264h24.472
  c0.146,0,0.265-0.117,0.265-0.264v-14.06C37.5,16.396,37.382,16.278,37.236,16.278z M36.416,29.781H13.584V17.362h22.832V29.781z"/>
<rect x="24.264" y="30.34" fill="#FFFFFF" width="1.559" height="3.118"/>
<path fill="#FFFFFF" d="M29.736,33.458c0,0.146-0.118,0.264-0.264,0.264h-8.86c-0.146,0-0.263-0.118-0.263-0.264
  c0-0.532,2.101-0.964,4.693-0.964C27.637,32.494,29.736,32.926,29.736,33.458z"/>
<g>
  
    <rect x="16.331" y="17.603" transform="matrix(-0.7071 -0.7071 0.7071 -0.7071 13.9228 46.6552)" fill="#FFFFFF" width="0.586" height="5.682"/>
</g>
<g>
  
    <rect x="17.271" y="19.874" transform="matrix(-0.7067 -0.7075 0.7075 -0.7067 14.8474 48.9232)" fill="#FFFFFF" width="0.586" height="3.02"/>
</g>
</svg>
