<?xml version="1.0" encoding="utf-8"?>
<!-- Generator: Adobe Illustrator 16.0.4, SVG Export Plug-In . SVG Version: 6.00 Build 0)  -->
<!DOCTYPE svg PUBLIC "-//W3C//DTD SVG 1.1//EN" "http://www.w3.org/Graphics/SVG/1.1/DTD/svg11.dtd">
<svg version="1.1" id="Layer_1" xmlns="http://www.w3.org/2000/svg" xmlns:xlink="http://www.w3.org/1999/xlink" x="0px" y="0px"
   width="50px" height="100px" viewBox="0 0 50 100" enable-background="new 0 0 50 100" xml:space="preserve">
<path fill="#BDA770" d="M37.236,66.278H12.764c-0.146,0-0.264,0.118-0.264,0.264v14.06c0,0.146,0.118,0.264,0.264,0.264h24.473
  c0.146,0,0.264-0.117,0.264-0.264v-14.06C37.5,66.396,37.382,66.278,37.236,66.278z M36.416,79.781H13.584V67.362h22.832V79.781z"/>
<rect x="24.264" y="80.34" fill="#BDA770" width="1.559" height="3.118"/>
<path fill="#BDA770" d="M29.736,83.458c0,0.146-0.118,0.264-0.264,0.264h-8.859c-0.146,0-0.263-0.118-0.263-0.264
  c0-0.532,2.101-0.964,4.693-0.964C27.636,82.494,29.736,82.926,29.736,83.458z"/>
<g>
  
    <rect x="16.331" y="67.603" transform="matrix(0.7071 0.7071 -0.7071 0.7071 54.6806 8.8781)" fill="#BDA770" width="0.586" height="5.682"/>
</g>
<g>
  
    <rect x="17.271" y="69.874" transform="matrix(0.7071 0.7071 -0.7071 0.7071 55.6211 8.4883)" fill="#BDA770" width="0.586" height="3.021"/>
</g>
<path fill="#999999" d="M37.236,16.278H12.764c-0.146,0-0.264,0.118-0.264,0.264v14.06c0,0.146,0.118,0.264,0.264,0.264h24.473
  c0.146,0,0.264-0.117,0.264-0.264v-14.06C37.5,16.396,37.382,16.278,37.236,16.278z M36.416,29.781H13.584V17.362h22.832V29.781z"/>
<rect x="24.264" y="30.34" fill="#999999" width="1.559" height="3.118"/>
<path fill="#999999" d="M29.736,33.458c0,0.146-0.118,0.264-0.264,0.264h-8.859c-0.146,0-0.263-0.118-0.263-0.264
  c0-0.532,2.101-0.964,4.693-0.964C27.636,32.494,29.736,32.926,29.736,33.458z"/>
<g>
  
    <rect x="16.331" y="17.603" transform="matrix(0.7071 0.7071 -0.7071 0.7071 19.3252 -5.7666)" fill="#999999" width="0.586" height="5.682"/>
</g>
<g>
  
    <rect x="17.271" y="19.874" transform="matrix(0.7071 0.7071 -0.7071 0.7071 20.2658 -6.1563)" fill="#999999" width="0.586" height="3.021"/>
</g>
</svg>
