<?xml version="1.0" encoding="utf-8"?>
<!-- Generator: Adobe Illustrator 18.1.1, SVG Export Plug-In . SVG Version: 6.00 Build 0)  -->
<svg version="1.1" id="Layer_1" xmlns:sketch="http://www.bohemiancoding.com/sketch/ns"
	 xmlns="http://www.w3.org/2000/svg" xmlns:xlink="http://www.w3.org/1999/xlink" x="0px" y="0px" width="35px" height="35px"
	 viewBox="-288 379 35 35" enable-background="new -288 379 35 35" xml:space="preserve">
<title>icon - twitter</title>
<desc>Created with Sketch.</desc>
<g id="Components" sketch:type="MSPage">
	<g id="Details---_x28_entertainment_x29_" transform="translate(-57.000000, -881.000000)" sketch:type="MSArtboardGroup">
		<path id="icon---twitter" sketch:type="MSShapeGroup" fill="#BDA770" d="M-199.3,1268.1l2.2-4.3l-3.3,2.2l-0.6,0.3
			c-1.3-1.5-3.2-2.5-5.4-2.5c-3.9,0-7.1,2.6-7.1,6.5c0,0.5,0.1,1.6,0.2,2.1l-0.2,0.1c0,0-14.2-2.2-15.3-7.6c0,0-3.3,5.4,2.2,9.7
			c0,0-2.2,1.1-3.3,0c0,0,0,3.2,5.5,6.5c0,0-2.2,1.1-3.3,0c0,0,4.4,4.3,6.6,4.3c0,0,0,3.2-9.8,3.2c0,0,12.4,8.1,24-1.1
			c5.9-4.7,7.3-10.6,7.4-15.1c0.1-0.6,0.2-1.1,0.2-1.7v-0.5l3.3-3.2L-199.3,1268.1"/>
	</g>
</g>
</svg>
