<?xml version="1.0" encoding="utf-8"?>
<!-- Generator: Adobe Illustrator 16.0.3, SVG Export Plug-In . SVG Version: 6.00 Build 0)  -->
<!DOCTYPE svg PUBLIC "-//W3C//DTD SVG 1.1//EN" "http://www.w3.org/Graphics/SVG/1.1/DTD/svg11.dtd">
<svg version="1.1" id="Layer_1" xmlns="http://www.w3.org/2000/svg" xmlns:xlink="http://www.w3.org/1999/xlink" x="0px" y="0px"
   width="50px" height="50px" viewBox="0 0 50 50" enable-background="new 0 0 50 50" xml:space="preserve">
<g>
  <path fill="#ffffff" d="M46.196,5.33h-3.554v1.777c0,0-0.056,5.387-5.33,5.387c0,0-5.33-0.057-5.33-5.332L31.927,5.33H17.712
    v1.777c0,0,0.055,5.387-5.275,5.387c0,0-5.386,0.054-5.386-5.332V5.33H3.553C1.591,5.33,0,6.923,0,8.884v37.312
    c0,1.965,1.591,3.554,3.553,3.554h42.643c1.963,0,3.554-1.589,3.554-3.554V8.884C49.75,6.923,48.159,5.33,46.196,5.33z
     M46.196,46.196H3.553V17.768h42.643V46.196z M12.438,10.661c1.962,0,3.553-1.59,3.553-3.553V3.553C15.991,1.591,14.4,0,12.438,0
    S8.884,1.591,8.884,3.553v3.554C8.884,9.071,10.475,10.661,12.438,10.661z M37.312,10.661c1.962,0,3.554-1.59,3.554-3.553V3.553
    C40.866,1.591,39.274,0,37.312,0s-3.554,1.591-3.554,3.553v3.554C33.759,9.071,35.351,10.661,37.312,10.661z M17.685,29.487v9.657
    h3.656V24.859H18.18c-0.414,0.879-0.986,1.34-1.718,1.938c-0.73,0.597-0.98,0.775-2.306,1.534v3.188
    c1.01-0.607,1.461-0.86,1.461-0.86S17.05,29.971,17.685,29.487z M28.045,33.068c-0.655,1.544-1.137,3.793-1.441,6.076h3.876
    c0.125-1.642,0.375-3.397,0.743-4.6c0.465-1.544,0.597-2.394,1.398-3.652c0.662-1.037,1.986-1.834,2.974-2.725V24.82H24.802v3.562
      h6.354C29.737,30.143,28.699,31.521,28.045,33.068z"/>
</g>
</svg>
