<?xml version="1.0" encoding="utf-8"?>
<!-- Generator: Adobe Illustrator 18.1.1, SVG Export Plug-In . SVG Version: 6.00 Build 0)  -->
<svg version="1.1" id="Capa_1" xmlns="http://www.w3.org/2000/svg" xmlns:xlink="http://www.w3.org/1999/xlink" x="0px" y="0px"
	 width="13px" height="13px" viewBox="299.5 390.5 13 13" enable-background="new 299.5 390.5 13 13" xml:space="preserve">
<g>
	<path fill="#F5A623" d="M312,394.5c-0.7-1.6-1.9-2.8-3.5-3.4c-0.8-0.3-1.6-0.5-2.5-0.5c-0.9,0-1.7,0.2-2.5,0.5
		c-1.6,0.7-2.8,1.8-3.5,3.4c-0.3,0.8-0.5,1.6-0.5,2.5s0.2,1.7,0.5,2.5c0.7,1.6,1.9,2.8,3.5,3.5c0.8,0.3,1.6,0.5,2.5,0.5
		c0.9,0,1.7-0.2,2.5-0.5c1.6-0.7,2.8-1.9,3.5-3.5c0.3-0.8,0.5-1.6,0.5-2.5S312.3,395.3,312,394.5z M303.8,391.7
		c-0.6,0.7-1,1.6-1.2,2.7h-1.7C301.5,393.2,302.6,392.2,303.8,391.7z M300.3,397c0-0.6,0.1-1.2,0.3-1.8h1.9
		c-0.1,0.6-0.1,1.2-0.1,1.8c0,0.6,0,1.2,0.1,1.8h-1.9C300.4,398.2,300.3,397.6,300.3,397z M300.9,399.6h1.7c0.3,1.1,0.7,2,1.2,2.7
		C302.6,401.8,301.5,400.8,300.9,399.6z M305.6,402.6c-0.5-0.1-0.9-0.5-1.3-1c-0.4-0.6-0.7-1.2-0.9-2.1h2.2L305.6,402.6L305.6,402.6
		z M305.6,398.8h-2.4c-0.1-0.6-0.1-1.2-0.1-1.8c0-0.6,0-1.2,0.2-1.8h2.3V398.8L305.6,398.8z M305.6,394.4h-2.2
		c0.2-0.8,0.5-1.5,0.9-2c0.4-0.6,0.8-0.9,1.3-1V394.4L305.6,394.4z M311.1,394.4h-1.7c-0.3-1.1-0.7-2-1.2-2.7
		C309.4,392.2,310.5,393.2,311.1,394.4z M306.4,391.4c0.5,0.1,0.9,0.5,1.3,1c0.4,0.5,0.7,1.2,0.9,2h-2.2V391.4z M306.4,395.2h2.3
		c0.1,0.6,0.2,1.2,0.2,1.8c0,0.6,0,1.1-0.1,1.8h-2.4V395.2z M306.4,402.6v-3.1h2.2c-0.2,0.8-0.5,1.5-0.9,2.1
		C307.3,402.2,306.9,402.5,306.4,402.6z M308.2,402.3c0.6-0.7,1-1.6,1.2-2.7h1.7C310.5,400.8,309.4,401.8,308.2,402.3z M311.4,398.8
		h-1.9c0.1-0.6,0.1-1.2,0.1-1.8c0-0.6,0-1.2-0.1-1.8h1.9c0.2,0.6,0.3,1.2,0.3,1.8C311.7,397.6,311.6,398.2,311.4,398.8z"/>
</g>
</svg>
