<?xml version="1.0" encoding="utf-8"?>
<!-- Generator: Adobe Illustrator 16.0.3, SVG Export Plug-In . SVG Version: 6.00 Build 0)  -->
<!DOCTYPE svg PUBLIC "-//W3C//DTD SVG 1.1//EN" "http://www.w3.org/Graphics/SVG/1.1/DTD/svg11.dtd">
<svg version="1.1" id="Layer_1" xmlns="http://www.w3.org/2000/svg" xmlns:xlink="http://www.w3.org/1999/xlink" x="0px" y="0px"
	 width="50px" height="50px" viewBox="0 0 50 50" enable-background="new 0 0 50 50" xml:space="preserve">
<g>
	<g>
		<path fill="#BDA770" d="M16.62,12.445c-1.112,0-2.016,0.905-2.016,2.017v5.347c0,1.112,0.903,2.017,2.016,2.017
			c1.113,0,2.017-0.904,2.017-2.017v-5.347C18.637,13.35,17.733,12.445,16.62,12.445z M33.378,12.445
			c-1.11,0-2.015,0.905-2.015,2.017v5.347c0,1.112,0.902,2.017,2.015,2.017c1.113,0,2.019-0.904,2.019-2.017v-5.347
			C35.396,13.35,34.491,12.445,33.378,12.445z"/>
	</g>
</g>
<path fill="#BDA770" d="M38.661,17.135h-2.022v2.674c0,1.796-1.464,3.257-3.261,3.257c-1.794,0-3.256-1.461-3.256-3.257v-2.674
	H19.878v2.674c0,1.796-1.462,3.257-3.258,3.257s-3.258-1.461-3.258-3.257v-2.674h-2.023c-1.538,0-2.791,1.254-2.791,2.792v27.322
	c0,1.539,1.253,2.792,2.791,2.792h27.322c1.537,0,2.791-1.253,2.791-2.792V19.927C41.452,18.389,40.198,17.135,38.661,17.135z
	 M39.592,47.249c0,0.515-0.421,0.931-0.931,0.931H11.339c-0.514,0-0.931-0.416-0.931-0.931v-20.16h29.184V47.249z"/>
<g>
	<g>
		<path fill="#BDA770" d="M39.592,34.825v-1.241h-8.82v-6.521h-1.242v6.521h-9.512v-6.521h-1.24v6.521h-8.388v1.241h8.388v5.772
			h-8.388v1.24h8.388v6.387h1.24v-6.387h9.512v6.387h1.242v-6.387h8.82v-1.24h-8.82v-5.772H39.592z M29.529,40.6h-9.513v-5.773
			h9.513V40.6z"/>
	</g>
</g>
</svg>
