<?xml version="1.0" encoding="utf-8"?>
<!-- Generator: Adobe Illustrator 16.0.3, SVG Export Plug-In . SVG Version: 6.00 Build 0)  -->
<!DOCTYPE svg PUBLIC "-//W3C//DTD SVG 1.1//EN" "http://www.w3.org/Graphics/SVG/1.1/DTD/svg11.dtd">
<svg version="1.1" id="Layer_1" xmlns="http://www.w3.org/2000/svg" xmlns:xlink="http://www.w3.org/1999/xlink" x="0px" y="0px"
	 width="50px" height="100px" viewBox="0 0 50 100" enable-background="new 0 0 50 100" xml:space="preserve">
<g>
	<polygon fill="#999999" points="8.183,13.945 38.1,13.945 39.809,42.893 6.131,42.893 	"/>
	<polygon fill="#999999" points="41.048,42.151 43.869,40.745 39.809,13.945 39.039,13.945 	"/>
	<g>
		<path fill="#999999" d="M16.554,14.031l-1.357-0.17c0.009-0.067,0.917-6.753,7.344-6.753c5.185,0,6.741,4.454,6.84,6.809
			l-1.366,0.058c-0.011-0.223-0.314-5.499-5.474-5.499C17.331,8.475,16.584,13.804,16.554,14.031z"/>
	</g>
	<g>
		<path fill="#999999" d="M20.313,14.029l-1.357-0.169c0.009-0.067,0.916-6.753,7.344-6.753c5.184,0,6.741,4.454,6.84,6.809
			l-1.366,0.058c-0.011-0.223-0.315-5.499-5.474-5.499C21.065,8.475,20.342,13.802,20.313,14.029z"/>
	</g>
</g>
<g>
	<polygon fill="#FFFFFF" points="8.183,63.945 38.1,63.945 39.809,92.893 6.131,92.893 	"/>
	<polygon fill="#FFFFFF" points="41.048,92.15 43.869,90.744 39.809,63.945 39.039,63.945 	"/>
	<g>
		<path fill="#FFFFFF" d="M16.554,64.031l-1.357-0.172c0.009-0.066,0.917-6.752,7.344-6.752c5.185,0,6.741,4.453,6.84,6.809
			l-1.366,0.057c-0.011-0.223-0.314-5.498-5.474-5.498C17.331,58.475,16.584,63.805,16.554,64.031z"/>
	</g>
	<g>
		<path fill="#FFFFFF" d="M20.313,64.029l-1.357-0.17c0.009-0.066,0.916-6.752,7.344-6.752c5.184,0,6.741,4.453,6.84,6.809
			l-1.366,0.057c-0.011-0.223-0.315-5.498-5.474-5.498C21.065,58.475,20.342,63.803,20.313,64.029z"/>
	</g>
</g>
</svg>
