<?xml version="1.0" encoding="utf-8"?>
<!-- Generator: Adobe Illustrator 16.0.3, SVG Export Plug-In . SVG Version: 6.00 Build 0)  -->
<!DOCTYPE svg PUBLIC "-//W3C//DTD SVG 1.1//EN" "http://www.w3.org/Graphics/SVG/1.1/DTD/svg11.dtd">
<svg version="1.1" id="Layer_1" xmlns="http://www.w3.org/2000/svg" xmlns:xlink="http://www.w3.org/1999/xlink" x="0px" y="0px"
  width="50px" height="100px" viewBox="0 0 50 100" enable-background="new 0 0 50 100" xml:space="preserve">
<g>
 <path fill="#BDA770" d="M34.521,76.428v-1.343H31.98v1.343h-0.646v10.304h5.896V76.428H34.521z M32.529,84.791h-0.666v-1.53h0.666
  V84.791z M32.529,82.697h-0.666v-1.532h0.666V82.697z M32.529,80.603h-0.666v-1.53h0.666V80.603z M32.529,78.51h-0.666v-1.531
  h0.666V78.51z M33.572,84.791h-0.667v-1.53h0.667V84.791z M33.572,82.697h-0.667v-1.532h0.667V82.697z M33.572,80.603h-0.667v-1.53
  h0.667V80.603z M33.572,78.51h-0.667v-1.531h0.667V78.51z M34.615,84.791H33.95v-1.53h0.665V84.791z M34.615,82.697H33.95v-1.532
  h0.665V82.697z M34.615,80.603H33.95v-1.53h0.665V80.603z M34.615,78.51H33.95v-1.531h0.665V78.51z M35.656,84.791h-0.663v-1.53
  h0.663V84.791z M35.656,82.697h-0.663v-1.532h0.663V82.697z M35.656,80.603h-0.663v-1.53h0.663V80.603z M35.656,78.51h-0.663
  v-1.531h0.663V78.51z M36.701,84.791h-0.666v-1.53h0.666V84.791z M36.701,82.697h-0.666v-1.532h0.666V82.697z M36.701,80.603
  h-0.666v-1.53h0.666V80.603z M36.701,78.51h-0.666v-1.531h0.666V78.51z"/>
 <polygon fill="#BDA770" points="30.123,84.589 30.123,82.083 29.496,82.083 29.496,68.464 29.013,68.464 29.013,67.01 
  28.443,67.01 28.443,66.08 27.971,66.08 27.618,63.452 27.618,63.452 27.618,63.18 27.358,63.18 27.324,60.663 27.263,60.663 
  27.232,63.18 26.972,63.18 26.972,63.452 26.62,66.08 26.146,66.08 26.146,67.01 25.577,67.01 25.577,68.464 25.093,68.464 
  25.093,82.083 24.469,82.083 24.469,84.589 24.001,84.589 24.001,86.731 30.59,86.731 30.59,84.589  "/>
 <path fill="#BDA770" d="M19.053,69.971v16.761h4.201V69.971H19.053z M20.084,84.394h-0.573v-1.272h0.573V84.394z M20.084,82.577
  h-0.573v-1.272h0.573V82.577z M20.084,80.759h-0.573v-1.274h0.573V80.759z M20.084,78.942h-0.573v-1.275h0.573V78.942z
   M20.084,77.125h-0.573v-1.274h0.573V77.125z M20.084,75.308h-0.573v-1.275h0.573V75.308z M20.084,73.49h-0.573v-1.273h0.573V73.49
  z M20.084,71.673h-0.573v-1.273h0.573V71.673z M20.987,84.394h-0.571v-1.272h0.571V84.394z M20.987,82.577h-0.571v-1.272h0.571
  V82.577z M20.987,80.759h-0.571v-1.274h0.571V80.759z M20.987,78.942h-0.571v-1.275h0.571V78.942z M20.987,77.125h-0.571v-1.274
  h0.571V77.125z M20.987,75.308h-0.571v-1.275h0.571V75.308z M20.987,73.49h-0.571v-1.273h0.571V73.49z M20.987,71.673h-0.571
  v-1.273h0.571V71.673z M21.891,84.394h-0.569v-1.272h0.569V84.394z M21.891,82.577h-0.569v-1.272h0.569V82.577z M21.891,80.759
  h-0.569v-1.274h0.569V80.759z M21.891,78.942h-0.569v-1.275h0.569V78.942z M21.891,77.125h-0.569v-1.274h0.569V77.125z
   M21.891,75.308h-0.569v-1.275h0.569V75.308z M21.891,73.49h-0.569v-1.273h0.569V73.49z M21.891,71.673h-0.569v-1.273h0.569V71.673
  z M22.796,84.394h-0.571v-1.272h0.571V84.394z M22.796,82.577h-0.571v-1.272h0.571V82.577z M22.796,80.759h-0.571v-1.274h0.571
  V80.759z M22.796,78.942h-0.571v-1.275h0.571V78.942z M22.796,77.125h-0.571v-1.274h0.571V77.125z M22.796,75.308h-0.571v-1.275
  h0.571V75.308z M22.796,73.49h-0.571v-1.273h0.571V73.49z M22.796,71.673h-0.571v-1.273h0.571V71.673z"/>
 <polygon fill="#BDA770" points="17.576,74.03 17.576,71.355 15.275,71.355 15.275,70.391 13.633,70.391 13.633,71.355 
  13.01,71.355 13.01,86.731 13.053,86.731 17.576,86.731 18.307,86.731 18.307,74.03  "/>
</g>
<g>
 <path fill="#999999" d="M34.521,26.394v-1.343H31.98v1.343h-0.646v10.304h5.896V26.394H34.521z M32.529,34.757h-0.666v-1.53h0.666
  V34.757z M32.529,32.663h-0.666v-1.532h0.666V32.663z M32.529,30.568h-0.666v-1.53h0.666V30.568z M32.529,28.476h-0.666v-1.531
  h0.666V28.476z M33.572,34.757h-0.667v-1.53h0.667V34.757z M33.572,32.663h-0.667v-1.532h0.667V32.663z M33.572,30.568h-0.667
  v-1.53h0.667V30.568z M33.572,28.476h-0.667v-1.531h0.667V28.476z M34.615,34.757H33.95v-1.53h0.665V34.757z M34.615,32.663H33.95
  v-1.532h0.665V32.663z M34.615,30.568H33.95v-1.53h0.665V30.568z M34.615,28.476H33.95v-1.531h0.665V28.476z M35.656,34.757h-0.663
  v-1.53h0.663V34.757z M35.656,32.663h-0.663v-1.532h0.663V32.663z M35.656,30.568h-0.663v-1.53h0.663V30.568z M35.656,28.476
  h-0.663v-1.531h0.663V28.476z M36.701,34.757h-0.666v-1.53h0.666V34.757z M36.701,32.663h-0.666v-1.532h0.666V32.663z
   M36.701,30.568h-0.666v-1.53h0.666V30.568z M36.701,28.476h-0.666v-1.531h0.666V28.476z"/>
 <polygon fill="#999999" points="30.123,34.555 30.123,32.049 29.496,32.049 29.496,18.43 29.013,18.43 29.013,16.976 
  28.443,16.976 28.443,16.046 27.971,16.046 27.618,13.418 27.618,13.418 27.618,13.146 27.358,13.146 27.324,10.629 27.263,10.629 
  27.232,13.146 26.972,13.146 26.972,13.418 26.62,16.046 26.146,16.046 26.146,16.976 25.577,16.976 25.577,18.43 25.093,18.43 
  25.093,32.049 24.469,32.049 24.469,34.555 24.001,34.555 24.001,36.697 30.59,36.697 30.59,34.555  "/>
 <path fill="#999999" d="M19.053,19.937v16.761h4.201V19.937H19.053z M20.084,34.359h-0.573v-1.272h0.573V34.359z M20.084,32.543
  h-0.573v-1.272h0.573V32.543z M20.084,30.725h-0.573V29.45h0.573V30.725z M20.084,28.908h-0.573v-1.275h0.573V28.908z
   M20.084,27.091h-0.573v-1.274h0.573V27.091z M20.084,25.273h-0.573v-1.275h0.573V25.273z M20.084,23.456h-0.573v-1.273h0.573
  V23.456z M20.084,21.639h-0.573v-1.273h0.573V21.639z M20.987,34.359h-0.571v-1.272h0.571V34.359z M20.987,32.543h-0.571v-1.272
  h0.571V32.543z M20.987,30.725h-0.571V29.45h0.571V30.725z M20.987,28.908h-0.571v-1.275h0.571V28.908z M20.987,27.091h-0.571
  v-1.274h0.571V27.091z M20.987,25.273h-0.571v-1.275h0.571V25.273z M20.987,23.456h-0.571v-1.273h0.571V23.456z M20.987,21.639
  h-0.571v-1.273h0.571V21.639z M21.891,34.359h-0.569v-1.272h0.569V34.359z M21.891,32.543h-0.569v-1.272h0.569V32.543z
   M21.891,30.725h-0.569V29.45h0.569V30.725z M21.891,28.908h-0.569v-1.275h0.569V28.908z M21.891,27.091h-0.569v-1.274h0.569
  V27.091z M21.891,25.273h-0.569v-1.275h0.569V25.273z M21.891,23.456h-0.569v-1.273h0.569V23.456z M21.891,21.639h-0.569v-1.273
  h0.569V21.639z M22.796,34.359h-0.571v-1.272h0.571V34.359z M22.796,32.543h-0.571v-1.272h0.571V32.543z M22.796,30.725h-0.571
  V29.45h0.571V30.725z M22.796,28.908h-0.571v-1.275h0.571V28.908z M22.796,27.091h-0.571v-1.274h0.571V27.091z M22.796,25.273
  h-0.571v-1.275h0.571V25.273z M22.796,23.456h-0.571v-1.273h0.571V23.456z M22.796,21.639h-0.571v-1.273h0.571V21.639z"/>
 <polygon fill="#999999" points="17.576,23.996 17.576,21.321 15.275,21.321 15.275,20.356 13.633,20.356 13.633,21.321 
  13.01,21.321 13.01,36.697 13.053,36.697 17.576,36.697 18.307,36.697 18.307,23.996  "/>
</g>
</svg>
