<?xml version="1.0" encoding="utf-8"?>
<!-- Generator: Adobe Illustrator 16.0.3, SVG Export Plug-In . SVG Version: 6.00 Build 0)  -->
<!DOCTYPE svg PUBLIC "-//W3C//DTD SVG 1.1//EN" "http://www.w3.org/Graphics/SVG/1.1/DTD/svg11.dtd">
<svg version="1.1" id="Layer_1" xmlns="http://www.w3.org/2000/svg" xmlns:xlink="http://www.w3.org/1999/xlink" x="0px" y="0px"
	 width="50px" height="50px" viewBox="0 0 50 50" enable-background="new 0 0 50 50" xml:space="preserve">
<g>
	<path fill="#BDA770" d="M9.5,24.662c1.934,0,3.5-1.566,3.5-3.499s-1.566-3.501-3.5-3.501S6,19.23,6,21.163S7.566,24.662,9.5,24.662
		z M9.5,18.946c1.225,0,2.217,0.991,2.217,2.217c0,1.225-0.992,2.218-2.217,2.218V18.946z"/>
	<path fill="#BDA770" d="M40.501,24.662c1.933,0,3.499-1.566,3.499-3.5c0-1.932-1.566-3.5-3.499-3.5s-3.499,1.568-3.499,3.5
		C37.002,23.096,38.568,24.662,40.501,24.662z M40.501,18.945c1.226,0,2.217,0.991,2.217,2.217s-0.991,2.218-2.217,2.218V18.945z"/>
	<path fill="#BDA770" d="M36,50h9c0-1.738-1.256-3.204-3-3.755v-19.42v-0.5h-0.5h-2H39v0.5v2.896
		c-0.164,0.096-0.32,0.207-0.458,0.354c-3.155,3.361-8.219,5.369-13.542,5.369c-5.324,0-10.387-2.008-13.541-5.369
		c-0.137-0.146-0.295-0.258-0.459-0.354v-2.896v-0.5h-0.5h-2H8v0.5v19.42C6.256,46.796,5,48.262,5,50h9c0-1.738-1.256-3.204-3-3.755
		V34.973c3.791,2.854,8.719,4.471,14,4.471c5.279,0,10.208-1.615,14-4.471v11.272C37.256,46.796,36,48.262,36,50z"/>
</g>
</svg>
