<?xml version="1.0" encoding="utf-8"?>
<!-- Generator: Adobe Illustrator 16.0.3, SVG Export Plug-In . SVG Version: 6.00 Build 0)  -->
<!DOCTYPE svg PUBLIC "-//W3C//DTD SVG 1.1//EN" "http://www.w3.org/Graphics/SVG/1.1/DTD/svg11.dtd">
<svg version="1.1" id="Layer_1" xmlns="http://www.w3.org/2000/svg" xmlns:xlink="http://www.w3.org/1999/xlink" x="0px" y="0px"
   width="50px" height="100px" viewBox="0 0 50 100" enable-background="new 0 0 50 100" xml:space="preserve">
<g>
  <path fill="#ffffff" d="M36.911,2.066c-0.002,0-0.004,0.001-0.005,0.002l0.003-0.002c-2.216,0.502-4.209,0.518-6.191,0
    c-1.745,3.252-8.188,13.778-12.287,20.519C14.273,15.698,9.35,7.749,6.144,2.066C3.601,2.608,2.538,2.643,0,2.066
    c5.036,7.587,13.105,22.04,15.851,26.784l-0.368,19.783c0,0,1.77-0.297,2.954-0.297c1.312,0,2.943,0.297,2.943,0.297L21.011,28.85
    C26.133,19.864,34.588,5.202,36.911,2.066z"/>
  <path fill="#ffffff" d="M47.215,1.716l-0.001,0.002L47.215,1.716c-0.001,0-0.384-0.053-0.642-0.053
    c-1.476,0-2.937,0.865-2.937,3.077c-0.875,11.094-1.787,22.219-3.285,32.807l-0.006,0.006c0.002,0,0.004,0,0.006,0l0,0l0.006-0.002
    c0.906-0.156,1.608,0.08,2.291,0.355L42.646,37.9c1.701-10.754,5.74-26.858,6.773-31.417c0.148-0.641,0.369-1.399,0.369-1.938
    C49.789,2.919,48.759,1.975,47.215,1.716z"/>
  <path fill="#ffffff" d="M40.162,42.004c-1.934,0-2.896,1.475-2.896,3.059c0,1.869,1.493,2.828,3.338,2.828
    c1.336,0,2.791-0.812,2.791-3.014C43.396,43.111,42.014,42.004,40.162,42.004z"/>
</g>
<g>
  <path fill="#BDA770" d="M36.911,53.434c-0.002,0-0.004,0-0.005,0.002l0.003-0.002c-2.216,0.502-4.209,0.518-6.191,0
    c-1.745,3.252-8.188,13.777-12.287,20.519C14.273,67.065,9.35,59.116,6.144,53.434c-2.543,0.541-3.606,0.576-6.144,0
    c5.036,7.586,13.105,22.039,15.851,26.783L15.483,100c0,0,1.77-0.297,2.954-0.297c1.312,0,2.943,0.297,2.943,0.297l-0.369-19.783
    C26.133,71.231,34.588,56.569,36.911,53.434z"/>
  <path fill="#BDA770" d="M47.215,53.083l-0.001,0.002L47.215,53.083c-0.001,0-0.384-0.053-0.642-0.053
    c-1.476,0-2.937,0.864-2.937,3.077c-0.875,11.094-1.787,22.219-3.285,32.807l-0.006,0.006c0.002,0,0.004,0,0.006,0l0,0l0.006-0.002
    c0.906-0.156,1.608,0.08,2.291,0.355l-0.002-0.006c1.701-10.754,5.74-26.858,6.773-31.418c0.148-0.641,0.369-1.398,0.369-1.938
    C49.789,54.286,48.759,53.342,47.215,53.083z"/>
  <path fill="#BDA770" d="M40.162,93.371c-1.934,0-2.896,1.475-2.896,3.059c0,1.869,1.493,2.828,3.338,2.828
    c1.336,0,2.791-0.812,2.791-3.014C43.396,94.479,42.014,93.371,40.162,93.371z"/>
</g>
</svg>
